<svg width="66" height="66" viewBox="0 0 66 66" fill="none" xmlns="http://www.w3.org/2000/svg">
<path d="M17.4432 13.7891C21.0275 10.5866 25.9823 8.54724 30.7567 8.14508C30.7798 8.13834 30.7638 8.14058 30.8034 8.15906C30.6782 10.0545 30.7599 11.9924 30.7567 13.894C28.0294 14.3142 23.5657 15.7757 21.5441 17.8017C21.0196 17.1104 20.2136 16.4714 19.5898 15.851C18.8807 15.163 18.2014 14.4234 17.4432 13.7891Z" fill="#B708BD"/>
<path d="M35.3328 13.8942C35.348 11.9782 35.3071 10.0609 35.3328 8.14526C40.2118 8.41639 44.9648 10.6993 48.6902 13.7893C48.06 14.3314 47.1341 15.2193 46.6007 15.8512C46.3241 16.0584 46.0844 16.3224 45.836 16.562L44.5392 17.8019C42.5176 15.8832 37.9707 14.0228 35.3328 13.8942Z" fill="#B708BD"/>
<path d="M47.6733 21.038C48.489 20.041 50.8806 17.737 51.8717 16.8962L51.9066 16.9084C54.6162 20.4569 57.1595 25.5599 57.1885 30.1614H52.9947H51.6602C50.9902 26.7708 50.061 23.7116 47.6733 21.038Z" fill="#B708BD"/>
<path d="M8.91542 30.1614C8.8458 26.6215 11.5848 19.4926 14.3412 16.8962C14.8113 17.6559 17.5697 20.1801 18.3754 21.038C16.2889 23.4488 14.9874 27.0214 14.6349 30.1614H12.9839H8.91542Z" fill="#B708BD"/>
<path d="M33.738 46.7747C30.093 46.9005 26.6974 45.8218 23.8775 43.4799C17.8876 38.5054 17.3343 29.2877 22.2593 23.3816C24.8992 20.2157 28.3842 18.6552 32.3955 18.2912C39.813 17.9766 46.3631 23.6759 47.0912 31.0698C47.7904 38.1706 43.3037 44.7932 36.3024 46.4111C35.4566 46.6066 34.6004 46.6916 33.738 46.7747ZM33.0299 25.4145C31.0722 26.8417 26.3573 31.2373 25.9553 33.8419C25.7144 35.4041 26.9614 36.8165 28.4793 37.0289C29.4186 37.1603 30.0978 36.6719 30.9512 36.4027C30.6146 37.6566 30.2773 38.9436 30.014 40.2143H33.0299H36.0605C35.8493 38.9338 35.3438 37.6499 35.1374 36.4027C36.0878 36.8406 37.0445 37.3 38.0986 36.9182C39.5247 36.4017 40.4955 34.7934 39.9429 33.3163C39.0273 30.8685 36.0567 27.6817 34.0001 26.1057C33.7217 25.8923 33.368 25.5102 33.0299 25.4145Z" fill="#B708BD"/>
<path d="M8.91541 34.7444C9.11162 34.7523 9.3093 34.7461 9.5057 34.7444H14.6349L14.6336 34.8497C14.6269 37.4756 16.5963 42.2503 18.3754 44.0199C17.5564 44.6404 16.6856 45.5898 15.9892 46.3506C15.4629 46.951 14.8421 47.4781 14.3412 48.0973C13.8298 47.3183 13.1716 46.6365 12.6624 45.8486C10.6316 42.7062 9.02608 38.5101 8.91541 34.7444Z" fill="#B708BD"/>
<path d="M47.6733 44.0199C50.1115 41.3764 51.0372 38.1546 51.6602 34.7444H57.2639C57.1481 39.0554 54.8939 43.7535 52.5053 47.217C52.2419 47.4992 52.04 47.7481 51.8717 48.0973C50.4046 46.8355 49.1731 45.2357 47.6733 44.0199Z" fill="#B708BD"/>
<path d="M17.545 51.2084C17.9383 50.7077 18.4337 50.253 18.8761 49.7947L21.3625 47.217C21.9985 47.6293 22.5849 48.1165 23.2319 48.5218C25.5396 49.967 28.0727 50.8068 30.7567 51.2084C30.6828 51.6527 30.7547 52.2969 30.7555 52.7645L30.7567 56.6919C29.661 56.6347 28.5878 56.4003 27.5213 56.1559C23.3916 55.1614 20.8065 53.7054 17.545 51.2084Z" fill="#B708BD"/>
<path d="M35.4188 51.2084C38.4957 50.9165 42.2062 49.2208 44.5392 47.217C44.7604 47.5226 45.0587 47.7872 45.3249 48.0543L46.9295 49.6376C47.4475 50.152 47.9414 50.7729 48.5233 51.2084C45.929 53.1914 43.3201 54.8062 40.1395 55.7369C39.7239 55.8586 39.2872 55.956 38.893 56.1383L38.8559 56.1559C37.8626 56.2435 36.4646 56.5346 35.4188 56.6919V51.2084Z" fill="#B708BD"/>
</svg>
