<svg width="114" height="43" viewBox="0 0 114 43" fill="none" xmlns="http://www.w3.org/2000/svg">
<path d="M18.9023 17.3555C18.9023 17.3633 18.9062 17.3789 18.9141 17.4023L18.8789 17.4961H18.8906V17.5195C18.8906 17.5352 18.8867 17.5469 18.8789 17.5547C18.5117 17.8359 17.6133 18.0938 16.1836 18.3281C14.7617 18.5625 13.7812 18.6797 13.2422 18.6797C12.7109 18.6797 12.4141 18.6758 12.3516 18.668L11.7539 18.7031C11.1289 18.7422 10.7695 18.7617 10.6758 18.7617C7.39453 18.7617 4.89453 17.9375 3.17578 16.2891C1.46484 14.6406 0.609375 12.3008 0.609375 9.26953C0.609375 6.23047 1.53125 3.92578 3.375 2.35547C5.22656 0.785156 7.73047 0 10.8867 0C11.4648 0 12.1758 0.0546875 13.0195 0.164062C13.8711 0.273438 14.6172 0.433594 15.2578 0.644531C16.0391 0.964844 16.707 1.42969 17.2617 2.03906C17.8242 2.64062 18.1914 3.30859 18.3633 4.04297C18.3945 4.24609 18.4297 4.56641 18.4688 5.00391C18.5156 5.43359 18.5547 5.75 18.5859 5.95312C18.5391 6.07031 18.3711 6.12891 18.082 6.12891L12.1289 6.02344C12.0977 6.00781 12.0586 5.90234 12.0117 5.70703V5.74219C11.8711 5.10938 11.5938 4.72266 11.1797 4.58203C10.9922 4.51172 10.7461 4.47656 10.4414 4.47656C10.1367 4.47656 9.84766 4.52734 9.57422 4.62891C9.30859 4.73047 9.08594 4.87109 8.90625 5.05078C8.72656 5.23047 8.56641 5.44141 8.42578 5.68359C8.28516 5.91797 8.17969 6.17188 8.10938 6.44531C8.03906 6.71875 7.97656 7 7.92188 7.28906C7.86719 7.57812 7.83203 7.86328 7.81641 8.14453C7.80859 8.42578 7.79688 8.69531 7.78125 8.95312C7.77344 9.21094 7.77344 9.42578 7.78125 9.59766C7.78906 9.76172 7.79297 9.87109 7.79297 9.92578V10.7344C7.79297 11.2422 7.81641 11.5977 7.86328 11.8008C7.91016 11.9961 7.96484 12.2148 8.02734 12.457C8.08984 12.6914 8.16406 12.8711 8.25 12.9961C8.55469 13.4258 8.88281 13.7266 9.23438 13.8984C9.59375 14.0625 10.1484 14.1445 10.8984 14.1445C11.6562 14.1445 12.375 14.0312 13.0547 13.8047L13.1133 11.9531L12.2695 11.8828L12.1523 11.9414H10.9336L10.793 11.9531L10.5 11.6484C10.4844 11.5156 10.4766 11.3047 10.4766 11.0156V8.39062C10.4766 8.25781 10.5703 8.125 10.7578 7.99219H11.543C12.2227 7.99219 12.9844 8 13.8281 8.01562H13.9453C14.7109 8.03125 15.293 8.03906 15.6914 8.03906H16.3945L16.6641 8.02734C18.0547 8.02734 18.8477 8.11719 19.043 8.29688L18.9023 17.1914V17.3555Z" fill="#B708BD"/>
<path d="M26.3203 10.2539L26.4375 10.2656H26.7188C26.9844 10.2656 27.1914 10.2461 27.3398 10.207L27.9727 10.125C29.0508 10.0469 29.6992 9.75781 29.918 9.25781C30.0273 9.00781 30.082 8.69141 30.082 8.30859C30.0352 8.23047 30.0117 8.08203 30.0117 7.86328C30.0117 7.64453 29.8984 7.41406 29.6719 7.17188C29.4531 6.92969 29.1914 6.80859 28.8867 6.80859H28.8281C28.0781 6.80859 27.7031 7.44531 27.7031 8.71875C27.6641 8.78125 27.5977 8.80469 27.5039 8.78906C27.418 8.77344 27.2031 8.76562 26.8594 8.76562H20.8125C20.8516 8.22656 20.9922 7.64453 21.2344 7.01953C21.6953 5.81641 22.5859 4.95312 23.9062 4.42969C25.2344 3.89844 26.5508 3.60938 27.8555 3.5625L28.5586 3.52734L28.9336 3.49219C28.9805 3.49219 29.0273 3.50391 29.0742 3.52734H29.2266L29.7539 3.50391C29.8633 3.50391 30.1094 3.53125 30.4922 3.58594L30.832 3.63281C30.8867 3.64062 30.9727 3.64453 31.0898 3.64453C31.207 3.64453 31.4531 3.67188 31.8281 3.72656C32.2031 3.77344 32.6719 3.90625 33.2344 4.125C35.1406 4.875 36.2969 6.3125 36.7031 8.4375C36.875 9.33594 36.9609 10.332 36.9609 11.4258C37.0156 11.6055 37.043 11.7695 37.043 11.918L36.9844 12.7266V14.0859C36.9922 14.1016 36.9961 14.168 36.9961 14.2852L36.9727 15.082V15.1875C36.9961 15.2266 37.0078 15.2812 37.0078 15.3516L36.9961 15.457V15.7031C36.9961 16.4453 37.1094 17.1484 37.3359 17.8125L37.4531 18.0703H32.1562L31.7344 18.0586C31.4219 18.0586 31.1836 18.0625 31.0195 18.0703C30.7695 17.6016 30.5312 16.9609 30.3047 16.1484C30.2031 16.3594 30.0273 16.6016 29.7773 16.875C29.5352 17.1406 29.3555 17.2734 29.2383 17.2734C28.082 17.8359 27.2031 18.1562 26.6016 18.2344C25.7109 18.3828 25.2305 18.457 25.1602 18.457C25.0977 18.457 25.0664 18.457 25.0664 18.457C23.1992 18.457 21.7891 17.8086 20.8359 16.5117C20.3594 15.8477 20.1211 15.0781 20.1211 14.2031C20.1211 12.3047 21.0039 11.1406 22.7695 10.7109C23.2227 10.6016 24.0977 10.4883 25.3945 10.3711L25.7812 10.3359L26.3203 10.2539ZM30.1641 12.9727L30.1758 12.5977C30.1758 12.207 30.1445 11.832 30.082 11.4727C29.9102 11.5664 29.6602 11.6719 29.332 11.7891C29.0039 11.9062 28.7422 12.0078 28.5469 12.0938C28.3516 12.1719 28.1719 12.3164 28.0078 12.5273C27.8516 12.7305 27.7734 13.0117 27.7734 13.3711C27.7734 13.7305 27.8867 14.0586 28.1133 14.3555C28.3477 14.6523 28.6016 14.8008 28.875 14.8008C29.4609 14.8008 29.8789 14.5898 30.1289 14.168L30.1523 14.0508L30.1641 13.3242V12.9727Z" fill="#B708BD"/>
<path d="M53.9883 6.36328C55.4414 4.46484 56.8906 3.51562 58.3359 3.51562C59.7812 3.51562 61.0547 4.05078 62.1562 5.12109C62.6953 5.65234 63.0586 6.24219 63.2461 6.89062L63.3281 7.20703C63.5391 7.94141 63.6445 8.39844 63.6445 8.57812C63.6445 8.75 63.6289 8.89062 63.5977 9C63.6523 9.04688 63.6797 9.11719 63.6797 9.21094L63.6562 9.66797C63.6719 10.2305 63.6797 10.625 63.6797 10.8516V18.0469H56.5781L56.5664 11.1562L56.5781 10.8984C56.5781 9.76562 56.2617 9.19922 55.6289 9.19922C54.918 9.19922 54.5625 9.82422 54.5625 11.0742L54.5859 11.8828V18.0352L51.3281 18.0469H48.082L48.0703 11.7539L48.0938 10.9922C48.0938 9.97656 47.7812 9.375 47.1562 9.1875C46.4219 9.22656 46.0547 9.79297 46.0547 10.8867L46.0781 11.5898V18.0352L42.3047 18.0469H38.5547L38.543 11.0039V4.00781L41.7539 3.99609H44.9766L45.0586 4.27734C45.3477 5.30078 45.5664 6.09766 45.7148 6.66797C46.2227 5.79297 46.8125 5.05078 47.4844 4.44141C48.1641 3.82422 48.8398 3.51562 49.5117 3.51562C49.7227 3.51562 49.9336 3.51562 50.1445 3.51562C50.8242 3.51562 51.5195 3.79688 52.2305 4.35938C52.9414 4.91406 53.5273 5.58203 53.9883 6.36328Z" fill="#B708BD"/>
<path d="M70.7227 3.66797C71.0742 3.56641 71.4492 3.51562 71.8477 3.51562C72.2461 3.51562 72.625 3.53125 72.9844 3.5625L73.4766 3.60938C74.25 3.67969 74.8438 3.76953 75.2578 3.87891V3.86719L75.5039 3.97266C77.1445 4.48047 78.4219 5.25391 79.3359 6.29297V6.28125C79.5469 6.53125 79.8047 6.91016 80.1094 7.41797C80.4219 7.91797 80.5781 8.26562 80.5781 8.46094L80.6719 8.77734L80.7305 9.11719C80.8789 9.64062 80.9531 10.0781 80.9531 10.4297C80.9531 10.7812 80.957 11.0508 80.9648 11.2383H71.3086V11.625C71.3555 11.8047 71.3789 11.9922 71.3789 12.1875C71.3789 12.3828 71.3789 12.5391 71.3789 12.6562C71.3867 12.7656 71.3984 12.875 71.4141 12.9844C71.4297 13.0859 71.4375 13.1719 71.4375 13.2422C71.4453 13.3047 71.4648 13.3828 71.4961 13.4766C71.5273 13.5625 71.543 13.6211 71.543 13.6523C71.5508 13.6836 71.5742 13.7461 71.6133 13.8398C71.6602 13.9336 71.6953 14.0234 71.7188 14.1094C71.75 14.1875 71.8047 14.2656 71.8828 14.3438V14.332L72.0117 14.5781C72.1602 14.7422 72.3633 14.8594 72.6211 14.9297C73.0508 14.8359 73.3398 14.6133 73.4883 14.2617C73.6445 13.9102 73.7734 13.4727 73.875 12.9492C74.1562 12.8711 74.5547 12.832 75.0703 12.832L76.5703 12.8672H80.8945C80.8008 13.8203 80.5195 14.6953 80.0508 15.4922H80.0625C79.6562 16.1328 79.0234 16.6836 78.1641 17.1445C75.7344 17.9961 74.1758 18.4219 73.4883 18.4219C73.3633 18.4219 73.2617 18.4141 73.1836 18.3984H72.9141L72.8086 18.4102H72.7031C72.6406 18.4102 72.5625 18.4023 72.4688 18.3867C72.3906 18.4336 72.2969 18.457 72.1875 18.457L71.168 18.3398C71.1133 18.3633 71 18.375 70.8281 18.375C70.6641 18.375 70.2266 18.2695 69.5156 18.0586V18.0703L69.2344 17.9883L68.9531 17.8945C67.7812 17.5508 66.7773 16.9492 65.9414 16.0898C65.1055 15.2227 64.5703 14.2148 64.3359 13.0664C64.3125 12.9258 64.2695 12.7148 64.207 12.4336C64.1445 12.1445 64.1133 11.9492 64.1133 11.8477V11.2852C64.1133 11.1523 64.1172 11.0508 64.125 10.9805V10.8047C64.125 9.14844 64.6172 7.71875 65.6016 6.51562C66.5859 5.30469 67.9062 4.45312 69.5625 3.96094L69.8438 3.87891C70.2578 3.80859 70.5547 3.73438 70.7344 3.65625L70.7227 3.66797ZM74.2266 9.69141L74.4727 9.53906C74.3398 8.69531 74.2148 8.15625 74.0977 7.92188C73.9805 7.67969 73.8672 7.47266 73.7578 7.30078C73.5547 6.97266 73.2852 6.80859 72.9492 6.80859C72.6211 6.80859 72.3398 6.97266 72.1055 7.30078C71.6914 7.87891 71.4297 8.69141 71.3203 9.73828C71.8203 9.70703 72.2812 9.69141 72.7031 9.69141H74.2266Z" fill="#B708BD"/>
<path d="M82.0547 4.00781L85.1719 3.99609H88.2891L88.5469 5.56641C88.7266 6.66797 88.832 7.29297 88.8633 7.44141H89.2734C89.5625 6.10547 90.1172 5.15625 90.9375 4.59375L91.4062 4.32422C91.4297 4.27734 91.5703 4.19141 91.8281 4.06641L91.7812 4.07812L92.0508 3.97266C92.8164 3.66797 93.4766 3.51172 94.0312 3.50391C94.1484 3.50391 94.2266 3.51172 94.2656 3.52734H94.6992V10.0664C94.5352 10.0273 94.2773 10.0078 93.9258 10.0078C93.5742 10.0078 93.2109 10.0586 92.8359 10.1602C92.4688 10.2617 92.1562 10.3945 91.8984 10.5586C91.6484 10.7148 91.4297 10.918 91.2422 11.168C90.6641 11.9414 90.375 13.1016 90.375 14.6484L90.3984 15.8789V18.0352L86.2266 18.0469H82.0664L82.0547 11.0508V4.00781Z" fill="#B708BD"/>
<path d="M113.168 10.9453C113.152 11.0234 113.145 11.0703 113.145 11.0859V11.1797C113.121 12.4688 112.824 13.6289 112.254 14.6602H112.266C111.469 15.8789 110.355 16.8164 108.926 17.4727C107.504 18.1289 106.102 18.457 104.719 18.457C103.336 18.457 102.188 18.3203 101.273 18.0469C100.367 17.7812 99.5273 17.3906 98.7539 16.875C97.9805 16.3594 97.4062 15.8633 97.0312 15.3867C96.1406 14.2617 95.6953 12.6719 95.6953 10.6172C95.6953 10.5469 95.707 10.4883 95.7305 10.4414V10.2539C95.707 10.2227 95.6953 10.1914 95.6953 10.1602L95.7188 10.0312H95.707C95.8555 8.66406 96.1445 7.76562 96.5742 7.33594C96.5742 7.25 96.6289 7.15234 96.7383 7.04297V7.05469L96.9141 6.77344C97.8359 5.59375 98.8906 4.78516 100.078 4.34766L100.488 4.19531C101.004 3.94531 101.727 3.75781 102.656 3.63281L103.031 3.59766C103.086 3.58984 103.195 3.58203 103.359 3.57422C103.531 3.56641 103.652 3.55078 103.723 3.52734L104.227 3.53906C104.25 3.53125 104.277 3.52734 104.309 3.52734C104.34 3.52734 104.375 3.53125 104.414 3.53906L104.402 3.52734C104.449 3.55078 104.52 3.5625 104.613 3.5625C104.645 3.53125 104.699 3.51562 104.777 3.51562C106.473 3.51562 107.914 3.86328 109.102 4.55859L109.336 4.66406C111.891 5.89062 113.168 7.98438 113.168 10.9453ZM105.879 11.0156C105.848 9.46094 105.625 8.41016 105.211 7.86328C105.039 7.63672 104.828 7.52344 104.578 7.52344C104.336 7.52344 104.121 7.66797 103.934 7.95703C103.746 8.23828 103.594 8.68359 103.477 9.29297C103.367 9.90234 103.312 10.4453 103.312 10.9219C103.312 11.3906 103.332 11.7969 103.371 12.1406C103.418 12.4766 103.484 12.8359 103.57 13.2188C103.656 13.5938 103.789 13.9102 103.969 14.168C104.148 14.418 104.352 14.543 104.578 14.543C105.445 14.543 105.879 13.3672 105.879 11.0156Z" fill="#B708BD"/>
<path d="M0.574219 32.6953C0.761719 30.9141 1.07422 29.5742 1.51172 28.6758C2.34766 26.9414 3.59375 25.7109 5.25 24.9844C6.72656 24.3359 8.33203 24.0117 10.0664 24.0117C12.9727 24.0117 15.0938 24.8086 16.4297 26.4023C17.2344 27.3477 17.6992 28.5234 17.8242 29.9297L17.9297 31.0312C17.7969 31.1562 16.957 31.2188 15.4102 31.2188L13.5469 31.1953H13.3945L12.375 31.1719L12.0938 31.1836H11.8594C11.6406 31.1836 11.4727 30.8633 11.3555 30.2227C11.2461 29.582 11.0742 29.1602 10.8398 28.957C10.6133 28.7461 10.3477 28.6406 10.043 28.6406C9.73828 28.6406 9.46875 28.6953 9.23438 28.8047C9.00781 28.9141 8.82031 29.0469 8.67188 29.2031C8.52344 29.3516 8.39844 29.5664 8.29688 29.8477C8.10938 30.332 7.99609 30.8477 7.95703 31.3945C7.91797 31.9336 7.89844 32.5391 7.89844 33.2109V33.4922L7.85156 34.6758C7.85156 36.832 8.46094 37.9336 9.67969 37.9805C9.99219 37.9805 10.2109 37.9258 10.3359 37.8164C10.6719 37.5195 10.9648 36.9219 11.2148 36.0234C11.2695 35.8359 11.3359 35.6836 11.4141 35.5664H11.8594L12.3984 35.5781H14.2969L14.8711 35.5664L15.9844 35.5781H16.6641L17.3555 35.5898H17.8242C17.918 35.5977 17.9844 35.6797 18.0234 35.8359L17.9883 36.2227C17.918 37.1445 17.7031 37.9805 17.3438 38.7305C16.6797 40.1055 15.6328 41.1289 14.2031 41.8008C12.7812 42.4648 11.2188 42.7969 9.51562 42.7969C6.53906 42.7969 4.30469 41.918 2.8125 40.1602C1.32031 38.4023 0.574219 35.9141 0.574219 32.6953Z" fill="#00A677"/>
<path d="M23.5781 32.4375L20.9062 32.4141H19.9453V28.0195H34.6289C34.6211 28.043 34.6055 28.0547 34.582 28.0547L33.2578 30.1875C31.3516 33.4766 29.9258 35.9805 28.9805 37.6992H31.1953L33.7617 37.7109V42.0469H19.9336C19.9336 42.0469 19.5938 42.0586 18.9141 42.082C18.6875 42.082 18.5039 42.0703 18.3633 42.0469L18.375 42.0586C18.3516 42.0586 18.3203 42.0508 18.2812 42.0352C18.2422 42.0273 18.2148 42.0234 18.1992 42.0234C18.2852 41.8359 18.8281 40.9766 19.8281 39.4453C20.8281 37.9062 21.5078 36.8438 21.8672 36.2578L24.2344 32.4375H23.5781Z" fill="#00A677"/>
<path d="M41.5898 27.668C41.9414 27.5664 42.3164 27.5156 42.7148 27.5156C43.1133 27.5156 43.4922 27.5312 43.8516 27.5625L44.3438 27.6094C45.1172 27.6797 45.7109 27.7695 46.125 27.8789V27.8672L46.3711 27.9727C48.0117 28.4805 49.2891 29.2539 50.2031 30.293V30.2812C50.4141 30.5312 50.6719 30.9102 50.9766 31.418C51.2891 31.918 51.4453 32.2656 51.4453 32.4609L51.5391 32.7773L51.5977 33.1172C51.7461 33.6406 51.8203 34.0781 51.8203 34.4297C51.8203 34.7812 51.8242 35.0508 51.832 35.2383H42.1758V35.625C42.2227 35.8047 42.2461 35.9922 42.2461 36.1875C42.2461 36.3828 42.2461 36.5391 42.2461 36.6562C42.2539 36.7656 42.2656 36.875 42.2812 36.9844C42.2969 37.0859 42.3047 37.1719 42.3047 37.2422C42.3125 37.3047 42.332 37.3828 42.3633 37.4766C42.3945 37.5625 42.4102 37.6211 42.4102 37.6523C42.418 37.6836 42.4414 37.7461 42.4805 37.8398C42.5273 37.9336 42.5625 38.0234 42.5859 38.1094C42.6172 38.1875 42.6719 38.2656 42.75 38.3438V38.332L42.8789 38.5781C43.0273 38.7422 43.2305 38.8594 43.4883 38.9297C43.918 38.8359 44.207 38.6133 44.3555 38.2617C44.5117 37.9102 44.6406 37.4727 44.7422 36.9492C45.0234 36.8711 45.4219 36.832 45.9375 36.832L47.4375 36.8672H51.7617C51.668 37.8203 51.3867 38.6953 50.918 39.4922H50.9297C50.5234 40.1328 49.8906 40.6836 49.0312 41.1445C46.6016 41.9961 45.043 42.4219 44.3555 42.4219C44.2305 42.4219 44.1289 42.4141 44.0508 42.3984H43.7812L43.6758 42.4102H43.5703C43.5078 42.4102 43.4297 42.4023 43.3359 42.3867C43.2578 42.4336 43.1641 42.457 43.0547 42.457L42.0352 42.3398C41.9805 42.3633 41.8672 42.375 41.6953 42.375C41.5312 42.375 41.0938 42.2695 40.3828 42.0586V42.0703L40.1016 41.9883L39.8203 41.8945C38.6484 41.5508 37.6445 40.9492 36.8086 40.0898C35.9727 39.2227 35.4375 38.2148 35.2031 37.0664C35.1797 36.9258 35.1367 36.7148 35.0742 36.4336C35.0117 36.1445 34.9805 35.9492 34.9805 35.8477V35.2852C34.9805 35.1523 34.9844 35.0508 34.9922 34.9805V34.8047C34.9922 33.1484 35.4844 31.7188 36.4688 30.5156C37.4531 29.3047 38.7734 28.4531 40.4297 27.9609L40.7109 27.8789C41.125 27.8086 41.4219 27.7344 41.6016 27.6562L41.5898 27.668ZM45.0938 33.6914L45.3398 33.5391C45.207 32.6953 45.082 32.1562 44.9648 31.9219C44.8477 31.6797 44.7344 31.4727 44.625 31.3008C44.4219 30.9727 44.1523 30.8086 43.8164 30.8086C43.4883 30.8086 43.207 30.9727 42.9727 31.3008C42.5586 31.8789 42.2969 32.6914 42.1875 33.7383C42.6875 33.707 43.1484 33.6914 43.5703 33.6914H45.0938Z" fill="#00A677"/>
<path d="M61.6172 42.3984L60.6797 42.457C60.2031 42.457 59.7344 42.4023 59.2734 42.293C58.9609 42.293 58.5391 42.2109 58.0078 42.0469C56.2266 41.625 54.8984 40.8945 54.0234 39.8555L53.8125 39.6094C53.1328 38.7344 52.6914 37.5586 52.4883 36.082L52.4531 35.8359C52.4219 35.5859 52.4062 35.2891 52.4062 34.9453C52.4062 34.5938 52.4727 34.1211 52.6055 33.5273C53.0977 31.332 54.1328 29.8164 55.7109 28.9805L57.293 28.1367C58.4648 27.7148 59.9258 27.5039 61.6758 27.5039C62.3398 27.5039 62.9531 27.5898 63.5156 27.7617L63.75 27.832C63.7422 27.832 63.7383 27.8281 63.7383 27.8203H63.7617C66.4102 28.5234 68.1719 29.6875 69.0469 31.3125L69.0703 31.3945C69.4609 32.1836 69.7227 33.0664 69.8555 34.043L69.5859 33.9492H62.25L62.1914 33.5156C62.0664 32.6172 61.8555 32.0195 61.5586 31.7227L61.3242 31.582C60.6367 31.6289 60.25 32.5664 60.1641 34.3945C60.1562 34.6445 60.1445 34.793 60.1289 34.8398L60.1406 35.2148L60.1758 35.8945C60.1758 35.9492 60.1797 36.0078 60.1875 36.0703L60.3047 36.1875H60.1758C60.2148 36.7734 60.3359 37.2227 60.5391 37.5352C60.75 37.8477 60.9609 38.0039 61.1719 38.0039C61.5703 38.0039 61.8438 37.7617 61.9922 37.2773C62.1406 36.793 62.2148 36.3516 62.2148 35.9531C62.8164 35.9219 63.7227 35.9062 64.9336 35.9062H65.3789L66.5039 35.918H67.6289L69.8906 35.9297C69.6484 38.4375 68.4648 40.2109 66.3398 41.25C66.1836 41.3047 65.9688 41.3945 65.6953 41.5195L65.25 41.7305C64.0078 42.207 62.8711 42.4453 61.8398 42.4453C61.7305 42.4453 61.6562 42.4297 61.6172 42.3984Z" fill="#00A677"/>
<path d="M86.3086 34.2422L86.3203 37.8867V40.0312L86.332 42.0469H79.6758L79.6641 36.0469L79.6992 34.7461C79.6992 34.0352 79.5938 33.5078 79.3828 33.1641C79.1797 32.8125 78.9258 32.6367 78.6211 32.6367C78.043 32.6367 77.6836 32.9258 77.543 33.5039C77.4414 33.9102 77.3906 34.4414 77.3906 35.0977V36.5977L77.4023 37.0898V42.0352L74.0391 42.0469H70.6992L70.6875 32.8594V23.6602C72.2578 23.6445 74.5195 23.6367 77.4727 23.6367L77.4844 29.543C78.0312 28.9258 78.6953 28.4336 79.4766 28.0664C80.2656 27.6992 80.9844 27.5156 81.6328 27.5156C82.2812 27.5156 82.918 27.6719 83.543 27.9844C84.168 28.2969 84.6836 28.7109 85.0898 29.2266C85.4336 29.7656 85.7266 30.418 85.9688 31.1836C86.2109 31.9414 86.332 32.5742 86.332 33.082L86.3086 34.2422Z" fill="#00A677"/>
</svg>
