<svg width="198" height="155" viewBox="0 0 198 155" fill="none" xmlns="http://www.w3.org/2000/svg">
<g filter="url(#filter0_d_95_127)">
<path d="M100.231 120.07C93.249 123.049 85.8027 124.538 77.8926 124.538C69.9824 124.538 62.5117 123.049 55.4805 120.07C41.3691 114.113 31.3105 104.03 25.3047 89.8213C22.3262 82.79 20.8369 75.3193 20.8369 67.4092C20.8369 59.499 22.3262 52.0527 25.3047 45.0703C31.2617 30.8125 41.3203 20.7051 55.4805 14.748C62.5117 11.7695 69.9824 10.2803 77.8926 10.2803C85.8027 10.2803 93.249 11.7695 100.231 14.748C114.489 20.7051 124.597 30.8125 130.554 45.0703C133.532 52.0527 135.021 59.499 135.021 67.4092C135.021 75.3193 133.532 82.79 130.554 89.8213C124.548 104.03 114.44 114.113 100.231 120.07ZM77.8926 113.332C84.3379 113.332 90.3438 112.136 95.9102 109.743C101.623 107.302 106.481 104.079 110.485 100.075C114.636 95.9248 117.883 91.0176 120.227 85.3535C122.619 79.6406 123.815 73.6592 123.815 67.4092C123.815 60.9639 122.619 54.958 120.227 49.3916C117.785 43.5811 114.538 38.6982 110.485 34.7432C106.335 30.5928 101.428 27.3457 95.7637 25.002C90.0996 22.6094 84.1426 21.4131 77.8926 21.4131C71.6914 21.4131 65.7344 22.6094 60.0215 25.002C54.3086 27.3457 49.4014 30.5928 45.2998 34.7432C41.2959 38.7471 38.0732 43.6299 35.6318 49.3916C33.2393 54.958 32.043 60.9639 32.043 67.4092C32.043 73.6592 33.2148 79.6406 35.5586 85.3535C37.9023 91.0176 41.1494 95.9248 45.2998 100.075C49.3037 104.079 54.1621 107.302 59.875 109.743C65.5391 112.136 71.5449 113.332 77.8926 113.332ZM77.8926 74.2207C76.0371 74.2207 74.4502 73.5615 73.1318 72.2432C71.8623 70.9248 71.2275 69.2891 71.2275 67.3359C71.2275 65.4316 71.8623 63.8447 73.1318 62.5752C74.4502 61.2568 76.0371 60.5977 77.8926 60.5977C79.7969 60.5977 81.3838 61.2568 82.6533 62.5752C83.9717 63.8447 84.6309 65.4561 84.6309 67.4092C84.6309 69.3135 83.9717 70.9248 82.6533 72.2432C81.3838 73.5615 79.7969 74.2207 77.8926 74.2207ZM169.738 11.5254H175.158C176.672 11.5254 177.429 12.3311 177.429 13.9424V120.29C177.429 121.169 177.16 121.877 176.623 122.414C176.135 122.902 175.427 123.146 174.499 123.146H168.859C168.078 123.146 167.443 122.902 166.955 122.414C166.516 121.877 166.296 121.193 166.296 120.363V24.7822L152.966 30.6416C152.185 30.9834 151.525 31.0078 150.988 30.7148C150.451 30.373 150.183 29.8359 150.183 29.1035V21.999C150.183 20.583 150.744 19.582 151.867 18.9961L165.563 12.7705C167.321 11.9404 168.713 11.5254 169.738 11.5254Z" fill="white"/>
</g>
<defs>
<filter id="filter0_d_95_127" x="0.836914" y="0.280273" width="196.592" height="154.258" filterUnits="userSpaceOnUse" color-interpolation-filters="sRGB">
<feFlood flood-opacity="0" result="BackgroundImageFix"/>
<feColorMatrix in="SourceAlpha" type="matrix" values="0 0 0 0 0 0 0 0 0 0 0 0 0 0 0 0 0 0 127 0" result="hardAlpha"/>
<feOffset dy="10"/>
<feGaussianBlur stdDeviation="10"/>
<feComposite in2="hardAlpha" operator="out"/>
<feColorMatrix type="matrix" values="0 0 0 0 0 0 0 0 0 0 0 0 0 0 0 0 0 0 0.8 0"/>
<feBlend mode="normal" in2="BackgroundImageFix" result="effect1_dropShadow_95_127"/>
<feBlend mode="normal" in="SourceGraphic" in2="effect1_dropShadow_95_127" result="shape"/>
</filter>
</defs>
</svg>
