<svg width="245" height="155" viewBox="0 0 245 155" fill="none" xmlns="http://www.w3.org/2000/svg">
<g filter="url(#filter0_d_96_138)">
<path d="M100.231 120.07C93.249 123.049 85.8027 124.538 77.8926 124.538C69.9824 124.538 62.5117 123.049 55.4805 120.07C41.3691 114.113 31.3105 104.03 25.3047 89.8213C22.3262 82.79 20.8369 75.3193 20.8369 67.4092C20.8369 59.499 22.3262 52.0527 25.3047 45.0703C31.2617 30.8125 41.3203 20.7051 55.4805 14.748C62.5117 11.7695 69.9824 10.2803 77.8926 10.2803C85.8027 10.2803 93.249 11.7695 100.231 14.748C114.489 20.7051 124.597 30.8125 130.554 45.0703C133.532 52.0527 135.021 59.499 135.021 67.4092C135.021 75.3193 133.532 82.79 130.554 89.8213C124.548 104.03 114.44 114.113 100.231 120.07ZM77.8926 113.332C84.3379 113.332 90.3438 112.136 95.9102 109.743C101.623 107.302 106.481 104.079 110.485 100.075C114.636 95.9248 117.883 91.0176 120.227 85.3535C122.619 79.6406 123.815 73.6592 123.815 67.4092C123.815 60.9639 122.619 54.958 120.227 49.3916C117.785 43.5811 114.538 38.6982 110.485 34.7432C106.335 30.5928 101.428 27.3457 95.7637 25.002C90.0996 22.6094 84.1426 21.4131 77.8926 21.4131C71.6914 21.4131 65.7344 22.6094 60.0215 25.002C54.3086 27.3457 49.4014 30.5928 45.2998 34.7432C41.2959 38.7471 38.0732 43.6299 35.6318 49.3916C33.2393 54.958 32.043 60.9639 32.043 67.4092C32.043 73.6592 33.2148 79.6406 35.5586 85.3535C37.9023 91.0176 41.1494 95.9248 45.2998 100.075C49.3037 104.079 54.1621 107.302 59.875 109.743C65.5391 112.136 71.5449 113.332 77.8926 113.332ZM77.8926 74.2207C76.0371 74.2207 74.4502 73.5615 73.1318 72.2432C71.8623 70.9248 71.2275 69.2891 71.2275 67.3359C71.2275 65.4316 71.8623 63.8447 73.1318 62.5752C74.4502 61.2568 76.0371 60.5977 77.8926 60.5977C79.7969 60.5977 81.3838 61.2568 82.6533 62.5752C83.9717 63.8447 84.6309 65.4561 84.6309 67.4092C84.6309 69.3135 83.9717 70.9248 82.6533 72.2432C81.3838 73.5615 79.7969 74.2207 77.8926 74.2207ZM199.182 57.375C206.652 58.9375 212.707 62.5752 217.346 68.2881C222.033 73.9033 224.377 80.666 224.377 88.5762C224.377 99.0254 220.764 107.644 213.537 114.431C206.311 121.169 197.106 124.538 185.925 124.538C177.771 124.538 170.3 122.316 163.513 117.873C156.726 113.43 152.233 107.79 150.036 100.954C149.304 98.708 149.548 97.4141 150.769 97.0723L156.481 95.0947C157.897 94.6553 158.85 95.1924 159.338 96.7061C160.998 101.735 164.294 105.91 169.226 109.23C174.108 112.502 179.577 114.138 185.632 114.138C193.688 114.138 200.329 111.647 205.554 106.667C210.827 101.638 213.464 95.2656 213.464 87.5508C213.464 80.2266 210.852 74.1719 205.627 69.3867C200.402 64.6016 193.737 62.209 185.632 62.209H179.919C179.235 62.209 178.674 61.9893 178.234 61.5498C177.795 61.1104 177.575 60.5732 177.575 59.9385V55.4707C177.575 54.8359 177.771 54.3232 178.161 53.9326C178.601 53.4932 179.138 53.2734 179.772 53.2734H185.266C190.979 53.2734 195.617 51.7842 199.182 48.8057C202.844 45.8271 204.675 42.043 204.675 37.4531C204.675 32.5703 202.966 28.5664 199.548 25.4414C196.081 22.2676 191.687 20.6807 186.364 20.6807C182.946 20.6807 179.602 21.5352 176.33 23.2441C173.156 24.9043 170.666 27.0771 168.859 29.7627C168.029 30.9346 167.053 31.1787 165.93 30.4951L161.096 26.54C160.07 25.8564 159.973 24.9531 160.803 23.8301C163.195 19.875 166.809 16.6279 171.643 14.0889C176.428 11.5498 181.311 10.2803 186.291 10.2803C194.689 10.2803 201.55 12.7705 206.872 17.751C212.243 22.6826 214.929 28.957 214.929 36.5742C214.929 41.6035 213.488 45.998 210.607 49.7578C207.775 53.4199 203.967 55.959 199.182 57.375Z" fill="white"/>
</g>
<defs>
<filter id="filter0_d_96_138" x="0.836914" y="0.280273" width="243.54" height="154.258" filterUnits="userSpaceOnUse" color-interpolation-filters="sRGB">
<feFlood flood-opacity="0" result="BackgroundImageFix"/>
<feColorMatrix in="SourceAlpha" type="matrix" values="0 0 0 0 0 0 0 0 0 0 0 0 0 0 0 0 0 0 127 0" result="hardAlpha"/>
<feOffset dy="10"/>
<feGaussianBlur stdDeviation="10"/>
<feComposite in2="hardAlpha" operator="out"/>
<feColorMatrix type="matrix" values="0 0 0 0 0 0 0 0 0 0 0 0 0 0 0 0 0 0 0.8 0"/>
<feBlend mode="normal" in2="BackgroundImageFix" result="effect1_dropShadow_96_138"/>
<feBlend mode="normal" in="SourceGraphic" in2="effect1_dropShadow_96_138" result="shape"/>
</filter>
</defs>
</svg>
