<svg width="248" height="155" viewBox="0 0 248 155" fill="none" xmlns="http://www.w3.org/2000/svg">
<g filter="url(#filter0_d_96_144)">
<path d="M100.231 120.07C93.249 123.049 85.8027 124.538 77.8926 124.538C69.9824 124.538 62.5117 123.049 55.4805 120.07C41.3691 114.113 31.3105 104.03 25.3047 89.8213C22.3262 82.79 20.8369 75.3193 20.8369 67.4092C20.8369 59.499 22.3262 52.0527 25.3047 45.0703C31.2617 30.8125 41.3203 20.7051 55.4805 14.748C62.5117 11.7695 69.9824 10.2803 77.8926 10.2803C85.8027 10.2803 93.249 11.7695 100.231 14.748C114.489 20.7051 124.597 30.8125 130.554 45.0703C133.532 52.0527 135.021 59.499 135.021 67.4092C135.021 75.3193 133.532 82.79 130.554 89.8213C124.548 104.03 114.44 114.113 100.231 120.07ZM77.8926 113.332C84.3379 113.332 90.3438 112.136 95.9102 109.743C101.623 107.302 106.481 104.079 110.485 100.075C114.636 95.9248 117.883 91.0176 120.227 85.3535C122.619 79.6406 123.815 73.6592 123.815 67.4092C123.815 60.9639 122.619 54.958 120.227 49.3916C117.785 43.5811 114.538 38.6982 110.485 34.7432C106.335 30.5928 101.428 27.3457 95.7637 25.002C90.0996 22.6094 84.1426 21.4131 77.8926 21.4131C71.6914 21.4131 65.7344 22.6094 60.0215 25.002C54.3086 27.3457 49.4014 30.5928 45.2998 34.7432C41.2959 38.7471 38.0732 43.6299 35.6318 49.3916C33.2393 54.958 32.043 60.9639 32.043 67.4092C32.043 73.6592 33.2148 79.6406 35.5586 85.3535C37.9023 91.0176 41.1494 95.9248 45.2998 100.075C49.3037 104.079 54.1621 107.302 59.875 109.743C65.5391 112.136 71.5449 113.332 77.8926 113.332ZM77.8926 74.2207C76.0371 74.2207 74.4502 73.5615 73.1318 72.2432C71.8623 70.9248 71.2275 69.2891 71.2275 67.3359C71.2275 65.4316 71.8623 63.8447 73.1318 62.5752C74.4502 61.2568 76.0371 60.5977 77.8926 60.5977C79.7969 60.5977 81.3838 61.2568 82.6533 62.5752C83.9717 63.8447 84.6309 65.4561 84.6309 67.4092C84.6309 69.3135 83.9717 70.9248 82.6533 72.2432C81.3838 73.5615 79.7969 74.2207 77.8926 74.2207ZM190.905 49.0986C201.403 49.0986 210.144 52.7363 217.126 60.0117C224.108 67.2871 227.6 76.2959 227.6 87.0381C227.746 93.7764 226.062 100.075 222.546 105.935C219.079 111.745 214.367 116.335 208.41 119.704C202.502 123.073 196.154 124.685 189.367 124.538C182.092 124.538 174.963 122.634 167.98 118.825C161.047 114.968 156.14 110.207 153.259 104.543C152.868 103.859 152.722 103.127 152.819 102.346C152.966 101.516 153.308 100.905 153.845 100.515L158.386 96.6328C159.558 95.7539 160.778 96.1689 162.048 97.8779C164.44 102.419 168.273 106.203 173.547 109.23C178.723 112.209 183.972 113.698 189.294 113.698C196.96 113.698 203.405 111.135 208.63 106.008C213.854 100.881 216.467 94.5576 216.467 87.0381C216.467 79.3232 213.928 72.8535 208.85 67.6289C203.771 62.4043 197.521 59.792 190.1 59.792C185.412 59.792 181.066 60.7441 177.062 62.6484C173.059 64.5039 169.885 67.043 167.541 70.2656C165.979 71.6816 164.855 72.3896 164.172 72.3896H158.386C157.556 72.3896 156.872 72.0967 156.335 71.5107C155.847 70.876 155.651 70.168 155.749 69.3867L159.997 14.1621C160.046 13.4785 160.314 12.917 160.803 12.4775C161.34 11.9893 161.926 11.7451 162.561 11.7451H217.126C217.956 11.7451 218.64 11.9893 219.177 12.4775C219.763 12.9658 220.056 13.5762 220.056 14.3086V19.0693C220.056 19.8506 219.787 20.5098 219.25 21.0469C218.762 21.5352 218.127 21.7793 217.346 21.7793H170.104L167.395 58.6201C169.982 55.8369 173.376 53.5664 177.575 51.8086C181.823 50.002 186.267 49.0986 190.905 49.0986Z" fill="white"/>
</g>
<defs>
<filter id="filter0_d_96_144" x="0.836914" y="0.280273" width="246.982" height="154.478" filterUnits="userSpaceOnUse" color-interpolation-filters="sRGB">
<feFlood flood-opacity="0" result="BackgroundImageFix"/>
<feColorMatrix in="SourceAlpha" type="matrix" values="0 0 0 0 0 0 0 0 0 0 0 0 0 0 0 0 0 0 127 0" result="hardAlpha"/>
<feOffset dy="10"/>
<feGaussianBlur stdDeviation="10"/>
<feComposite in2="hardAlpha" operator="out"/>
<feColorMatrix type="matrix" values="0 0 0 0 0 0 0 0 0 0 0 0 0 0 0 0 0 0 0.8 0"/>
<feBlend mode="normal" in2="BackgroundImageFix" result="effect1_dropShadow_96_144"/>
<feBlend mode="normal" in="SourceGraphic" in2="effect1_dropShadow_96_144" result="shape"/>
</filter>
</defs>
</svg>
