<svg width="1440" height="98" viewBox="0 0 1440 98" fill="none" xmlns="http://www.w3.org/2000/svg">
<path d="M-8.5 25.5893L397.398 25.5893C398.082 25.5893 398.423 25.8969 398.423 26.5121V76.2436C398.423 76.9272 398.082 77.269 397.398 77.269H394.117C393.501 77.269 393.194 76.9272 393.194 76.2436V30.101H-4.2959V76.2949C-4.2959 76.9443 -4.58643 77.269 -5.16748 77.269H-8.5C-9.14941 77.269 -9.47412 76.9443 -9.47412 76.2949V26.5121C-9.47412 25.8969 -9.14941 25.5893 -8.5 25.5893Z" fill="white"/>
<path d="M443.182 24.5639C447.864 24.4614 452.205 25.6064 456.204 27.999C460.203 30.3915 463.348 33.6728 465.638 37.8427C467.928 42.0126 469.039 46.5585 468.97 51.4804C468.97 56.4365 467.825 60.9482 465.535 65.0156C463.279 69.1171 460.169 72.3471 456.204 74.7055C452.239 77.0297 447.864 78.1918 443.079 78.1918C438.191 78.1918 433.748 76.9614 429.749 74.5004C425.784 72.0395 422.708 68.707 420.521 64.5029L420.572 96.1362C420.572 96.8539 420.23 97.2128 419.546 97.2128H416.47C415.718 97.2128 415.342 96.8539 415.342 96.1362V26.5121C415.342 25.7944 415.701 25.4355 416.419 25.4355H418.213C418.863 25.4355 419.239 25.7431 419.341 26.3583L420.367 38.6117C422.452 34.3051 425.528 30.8871 429.595 28.3578C433.663 25.8285 438.191 24.5639 443.182 24.5639ZM442.31 73.0649C448.292 73.0649 453.35 70.9628 457.486 66.7587C461.656 62.5204 463.741 57.4106 463.741 51.4291C463.741 45.2768 461.673 40.1157 457.537 35.9457C453.401 31.7416 448.36 29.6396 442.413 29.6396C436.294 29.6396 431.116 31.7416 426.878 35.9457C422.64 40.1498 420.521 45.311 420.521 51.4291C420.521 57.4448 422.623 62.5546 426.827 66.7587C431.065 70.9628 436.226 73.0649 442.31 73.0649Z" fill="white"/>
<path d="M478.301 51.3779C478.301 47.7548 478.985 44.2856 480.352 40.9701C481.753 37.6205 483.667 34.7494 486.094 32.3569C488.589 29.9301 491.495 28.0331 494.81 26.6659C498.16 25.2646 501.646 24.5639 505.269 24.5639C508.892 24.5639 512.378 25.2646 515.728 26.6659C519.078 28.0331 521.949 29.9301 524.341 32.3569C526.768 34.7494 528.665 37.6205 530.032 40.9701C531.434 44.2856 532.134 47.7548 532.134 51.3779C532.134 58.8632 529.537 65.2035 524.341 70.3989C519.146 75.5942 512.789 78.1918 505.269 78.1918C497.784 78.1918 491.409 75.5942 486.146 70.3989C480.916 65.2035 478.301 58.8632 478.301 51.3779ZM505.269 29.5883C499.151 29.5883 493.99 31.6904 489.786 35.8945C485.616 40.1327 483.531 45.2939 483.531 51.3779C483.531 57.496 485.633 62.6572 489.837 66.8613C494.041 71.0654 499.185 73.1674 505.269 73.1674C511.319 73.1674 516.429 71.0654 520.599 66.8613C524.769 62.623 526.854 57.4618 526.854 51.3779C526.854 45.2939 524.769 40.1327 520.599 35.8945C516.429 31.6904 511.319 29.5883 505.269 29.5883Z" fill="white"/>
<path d="M621.446 25.4867H623.24C623.958 25.4867 624.317 25.8456 624.317 26.5634V76.1923C624.317 76.9101 623.958 77.269 623.24 77.269H621.446C620.831 77.269 620.472 76.9784 620.369 76.3974L619.344 64.5029C617.122 68.707 614.029 72.0224 610.064 74.4492C606.099 76.8759 601.673 78.0893 596.785 78.0893C592 78.0893 587.625 76.9272 583.66 74.603C579.695 72.2446 576.568 69.0146 574.278 64.913C572.022 60.8115 570.894 56.2997 570.894 51.3779C570.826 46.456 571.937 41.9101 574.227 37.7402C576.551 33.5702 579.712 30.289 583.711 27.8964C587.71 25.5038 592.051 24.3588 596.734 24.4614C601.69 24.4614 606.133 25.6918 610.064 28.1528C614.029 30.5453 617.122 33.8608 619.344 38.099L620.369 26.4096C620.472 25.7944 620.831 25.4867 621.446 25.4867ZM597.554 73.0136C603.604 73.0136 608.765 70.9116 613.038 66.7075C617.276 62.5033 619.395 57.3935 619.395 51.3779C619.395 45.2597 617.276 40.0986 613.038 35.8945C608.765 31.6904 603.57 29.5883 597.452 29.5883C591.539 29.5883 586.497 31.6904 582.327 35.8945C578.191 40.0644 576.124 45.2255 576.124 51.3779C576.124 57.3593 578.208 62.4692 582.378 66.7075C586.514 70.9116 591.573 73.0136 597.554 73.0136Z" fill="white"/>
<path d="M669.178 24.5639C673.86 24.4614 678.201 25.6064 682.2 27.999C686.199 30.3915 689.344 33.6728 691.634 37.8427C693.924 42.0126 695.035 46.5585 694.966 51.4804C694.966 56.4365 693.821 60.9482 691.531 65.0156C689.275 69.1171 686.165 72.3471 682.2 74.7055C678.235 77.0297 673.86 78.1918 669.075 78.1918C664.188 78.1918 659.744 76.9614 655.745 74.5004C651.78 72.0395 648.704 68.707 646.517 64.5029L646.568 96.1362C646.568 96.8539 646.226 97.2128 645.542 97.2128H642.466C641.714 97.2128 641.338 96.8539 641.338 96.1362V26.5121C641.338 25.7944 641.697 25.4355 642.415 25.4355H644.209C644.859 25.4355 645.235 25.7431 645.337 26.3583L646.363 38.6117C648.448 34.3051 651.524 30.8871 655.591 28.3578C659.659 25.8285 664.188 24.5639 669.178 24.5639ZM668.306 73.0649C674.288 73.0649 679.346 70.9628 683.482 66.7587C687.652 62.5204 689.737 57.4106 689.737 51.4291C689.737 45.2768 687.669 40.1157 683.533 35.9457C679.397 31.7416 674.356 29.6396 668.409 29.6396C662.291 29.6396 657.112 31.7416 652.874 35.9457C648.636 40.1498 646.517 45.311 646.517 51.4291C646.517 57.4448 648.619 62.5546 652.823 66.7587C657.061 70.9628 662.222 73.0649 668.306 73.0649Z" fill="white"/>
<path d="M733.47 24.5639C736.922 24.5639 740.254 25.2646 743.467 26.6659C746.68 28.0331 749.466 29.9301 751.824 32.3569C754.217 34.7494 756.097 37.6205 757.464 40.9701C758.831 44.2856 759.515 47.7548 759.515 51.3779C759.583 54.9667 758.899 58.436 757.464 61.7856C756.062 65.1352 754.148 68.0234 751.722 70.4501C749.329 72.8427 746.458 74.7568 743.108 76.1923C739.759 77.5937 736.29 78.2602 732.701 78.1918C727.916 78.2944 723.438 77.1664 719.268 74.808C715.098 72.4155 711.783 69.1855 709.322 65.1181C706.895 61.0165 705.682 56.5903 705.682 51.8393L705.528 35.997C705.459 25.4697 708.108 17.3349 713.475 11.5927C718.875 5.78216 725.984 2.97942 734.803 3.1845C742.22 3.32122 747.278 2.48382 749.979 0.672292C750.696 0.364675 751.209 0.586843 751.517 1.3388L751.824 3.54339C752.029 4.12444 751.773 4.62005 751.055 5.0302C747.706 7.01262 742.459 7.91839 735.315 7.74749C727.625 7.61077 721.592 9.98626 717.217 14.874C712.842 19.7616 710.74 26.8027 710.911 35.997V39.0219C712.791 34.7836 715.73 31.3144 719.729 28.6142C723.694 25.914 728.274 24.5639 733.47 24.5639ZM732.649 73.0649C738.665 73.0649 743.758 70.9628 747.928 66.7587C752.132 62.5546 754.234 57.4277 754.234 51.3779C754.234 45.2597 752.132 40.1327 747.928 35.997C743.758 31.7929 738.665 29.6908 732.649 29.6908C726.565 29.6908 721.421 31.7929 717.217 35.997C713.047 40.1669 710.962 45.2939 710.962 51.3779C710.962 57.3935 713.047 62.5204 717.217 66.7587C721.421 70.9628 726.565 73.0649 732.649 73.0649Z" fill="white"/>
<path d="M816.167 25.2304H816.373C816.919 25.2304 817.193 25.5038 817.193 26.0507V76.2436C817.193 76.893 816.868 77.2177 816.219 77.2177H812.886C812.271 77.2177 811.963 76.893 811.963 76.2436V35.9457L775.459 76.6537C774.776 77.2348 774.212 77.5253 773.768 77.5253H773.511C772.964 77.5253 772.691 77.2006 772.691 76.5512V26.5121C772.691 25.8285 773.016 25.4867 773.665 25.4867H776.998C777.613 25.4867 777.92 25.8285 777.92 26.5121V66.9638L814.732 26.0507C815.245 25.5038 815.723 25.2304 816.167 25.2304Z" fill="white"/>
<path d="M827.703 29.0756V26.6147C827.703 25.9311 828.062 25.5893 828.78 25.5893H866.053C866.771 25.5893 867.129 25.9311 867.129 26.6147V29.0756C867.129 29.7934 866.771 30.1523 866.053 30.1523H850.005V76.2949C850.005 76.9443 849.664 77.269 848.98 77.269H845.75C845.101 77.269 844.776 76.9443 844.776 76.2949V30.1523H828.78C828.062 30.1523 827.703 29.7934 827.703 29.0756Z" fill="white"/>
<path d="M905.428 24.5639C910.11 24.4614 914.451 25.6064 918.45 27.999C922.449 30.3915 925.594 33.6728 927.884 37.8427C930.174 42.0126 931.285 46.5585 931.216 51.4804C931.216 56.4365 930.071 60.9482 927.781 65.0156C925.525 69.1171 922.415 72.3471 918.45 74.7055C914.485 77.0297 910.11 78.1918 905.325 78.1918C900.438 78.1918 895.994 76.9614 891.995 74.5004C888.03 72.0395 884.954 68.707 882.767 64.5029L882.818 96.1362C882.818 96.8539 882.476 97.2128 881.792 97.2128H878.716C877.964 97.2128 877.588 96.8539 877.588 96.1362V26.5121C877.588 25.7944 877.947 25.4355 878.665 25.4355H880.459C881.109 25.4355 881.485 25.7431 881.587 26.3583L882.613 38.6117C884.698 34.3051 887.774 30.8871 891.841 28.3578C895.909 25.8285 900.438 24.5639 905.428 24.5639ZM904.556 73.0649C910.538 73.0649 915.596 70.9628 919.732 66.7587C923.902 62.5204 925.987 57.4106 925.987 51.4291C925.987 45.2768 923.919 40.1157 919.783 35.9457C915.647 31.7416 910.606 29.6396 904.659 29.6396C898.541 29.6396 893.362 31.7416 889.124 35.9457C884.886 40.1498 882.767 45.311 882.767 51.4291C882.767 57.4448 884.869 62.5546 889.073 66.7587C893.311 70.9628 898.472 73.0649 904.556 73.0649Z" fill="white"/>
<path d="M991.099 25.4867H992.894C993.611 25.4867 993.97 25.8456 993.97 26.5634V76.1923C993.97 76.9101 993.611 77.269 992.894 77.269H991.099C990.484 77.269 990.125 76.9784 990.022 76.3974L988.997 64.5029C986.775 68.707 983.682 72.0224 979.717 74.4492C975.752 76.8759 971.326 78.0893 966.438 78.0893C961.653 78.0893 957.278 76.9272 953.313 74.603C949.349 72.2446 946.221 69.0146 943.931 64.913C941.675 60.8115 940.547 56.2997 940.547 51.3779C940.479 46.456 941.59 41.9101 943.88 37.7402C946.204 33.5702 949.366 30.289 953.365 27.8964C957.364 25.5038 961.705 24.3588 966.387 24.4614C971.343 24.4614 975.787 25.6918 979.717 28.1528C983.682 30.5453 986.775 33.8608 988.997 38.099L990.022 26.4096C990.125 25.7944 990.484 25.4867 991.099 25.4867ZM967.208 73.0136C973.257 73.0136 978.418 70.9116 982.691 66.7075C986.929 62.5033 989.048 57.3935 989.048 51.3779C989.048 45.2597 986.929 40.0986 982.691 35.8945C978.418 31.6904 973.223 29.5883 967.105 29.5883C961.192 29.5883 956.15 31.6904 951.98 35.8945C947.845 40.0644 945.777 45.2255 945.777 51.3779C945.777 57.3593 947.862 62.4692 952.032 66.7075C956.167 70.9116 961.226 73.0136 967.208 73.0136Z" fill="white"/>
<path d="M1444.64 47.7719L1467.56 74.9448C1468.11 75.6967 1468 76.2094 1467.25 76.4828H1463.56C1463.01 76.7563 1462.5 76.6025 1462.02 76.0214L1440.28 50.0278L1050.62 50.6088V76.2436C1050.62 76.9272 1050.25 77.269 1049.5 77.269H1046.42C1045.74 77.269 1045.39 76.9272 1045.39 76.2436V50.6088H1034.93L1013.15 76.6025C1012.7 77.2177 1012.21 77.3715 1011.66 77.0639H1007.97C1007.15 76.8246 1007.03 76.3119 1007.61 75.5258L1030.58 48.353L1015.5 27.2812C1015.02 26.5634 1015.13 26.0678 1015.81 25.7944H1019.25C1019.93 25.35 1020.51 25.5209 1020.99 26.3071L1035.09 46.0458H1045.39V26.5634C1045.39 25.8456 1045.74 25.4867 1046.42 25.4867H1049.5C1050.25 25.4867 1050.62 25.8456 1050.62 26.5634V46.0458L1440.13 45.4648L1454.18 25.726C1454.62 25.0082 1455.22 24.8373 1455.97 25.2133H1459.41C1460.06 25.4526 1460.14 25.9482 1459.66 26.7001L1444.64 47.7719Z" fill="white"/>
</svg>
