<svg width="1440" height="74" viewBox="0 0 1440 74" fill="none" xmlns="http://www.w3.org/2000/svg">
<path d="M-17.5259 0L462.398 1.58936C463.082 1.58936 463.423 1.89697 463.423 2.51221V52.2437C463.423 52.9272 463.082 53.269 462.398 53.269H459.117C458.501 53.269 458.194 52.9272 458.194 52.2437V6.10107L-13.3218 4.51172V50.7056C-13.3218 51.355 -13.6123 51.6797 -14.1934 51.6797H-17.5259C-18.1753 51.6797 -18.5 51.355 -18.5 50.7056V0.922852C-18.5 0.307617 -18.1753 0 -17.5259 0Z" fill="white"/>
<path d="M508.182 0.563965C512.864 0.461426 517.205 1.60645 521.204 3.99902C525.203 6.3916 528.348 9.67285 530.638 13.8428C532.928 18.0127 534.039 22.5586 533.97 27.4805C533.97 32.4365 532.825 36.9482 530.535 41.0156C528.279 45.1172 525.169 48.3472 521.204 50.7056C517.239 53.0298 512.864 54.1919 508.079 54.1919C503.191 54.1919 498.748 52.9614 494.749 50.5005C490.784 48.0396 487.708 44.707 485.521 40.5029L485.572 72.1362C485.572 72.854 485.23 73.2129 484.546 73.2129H481.47C480.718 73.2129 480.342 72.854 480.342 72.1362V2.51221C480.342 1.79443 480.701 1.43555 481.419 1.43555H483.213C483.863 1.43555 484.239 1.74316 484.341 2.3584L485.367 14.6118C487.452 10.3052 490.528 6.88721 494.595 4.35791C498.663 1.82861 503.191 0.563965 508.182 0.563965ZM507.31 49.0649C513.292 49.0649 518.35 46.9629 522.486 42.7588C526.656 38.5205 528.741 33.4106 528.741 27.4292C528.741 21.2769 526.673 16.1157 522.537 11.9458C518.401 7.7417 513.36 5.63965 507.413 5.63965C501.294 5.63965 496.116 7.7417 491.878 11.9458C487.64 16.1499 485.521 21.311 485.521 27.4292C485.521 33.4448 487.623 38.5547 491.827 42.7588C496.065 46.9629 501.226 49.0649 507.31 49.0649Z" fill="white"/>
<path d="M543.301 27.3779C543.301 23.7549 543.985 20.2856 545.352 16.9702C546.753 13.6206 548.667 10.7495 551.094 8.35693C553.589 5.93018 556.495 4.0332 559.81 2.66602C563.16 1.26465 566.646 0.563965 570.269 0.563965C573.892 0.563965 577.378 1.26465 580.728 2.66602C584.078 4.0332 586.949 5.93018 589.341 8.35693C591.768 10.7495 593.665 13.6206 595.032 16.9702C596.434 20.2856 597.134 23.7549 597.134 27.3779C597.134 34.8633 594.537 41.2036 589.341 46.3989C584.146 51.5942 577.789 54.1919 570.269 54.1919C562.784 54.1919 556.409 51.5942 551.146 46.3989C545.916 41.2036 543.301 34.8633 543.301 27.3779ZM570.269 5.58838C564.151 5.58838 558.99 7.69043 554.786 11.8945C550.616 16.1328 548.531 21.2939 548.531 27.3779C548.531 33.4961 550.633 38.6572 554.837 42.8613C559.041 47.0654 564.185 49.1675 570.269 49.1675C576.319 49.1675 581.429 47.0654 585.599 42.8613C589.769 38.623 591.854 33.4619 591.854 27.3779C591.854 21.2939 589.769 16.1328 585.599 11.8945C581.429 7.69043 576.319 5.58838 570.269 5.58838Z" fill="white"/>
<path d="M640.662 1.58936H681.626C682.31 1.58936 682.652 1.89697 682.652 2.51221V52.2437C682.652 52.9272 682.31 53.269 681.626 53.269H678.345C677.73 53.269 677.422 52.9272 677.422 52.2437V6.10107H644.866V52.2949C644.866 52.9443 644.576 53.269 643.995 53.269H640.662C640.013 53.269 639.688 52.9443 639.688 52.2949V2.51221C639.688 1.89697 640.013 1.58936 640.662 1.58936Z" fill="white"/>
<path d="M727.41 0.563965C732.093 0.461426 736.434 1.60645 740.433 3.99902C744.432 6.3916 747.576 9.67285 749.866 13.8428C752.156 18.0127 753.267 22.5586 753.199 27.4805C753.199 32.4365 752.054 36.9482 749.764 41.0156C747.508 45.1172 744.397 48.3472 740.433 50.7056C736.468 53.0298 732.093 54.1919 727.308 54.1919C722.42 54.1919 717.977 52.9614 713.978 50.5005C710.013 48.0396 706.937 44.707 704.749 40.5029L704.8 72.1362C704.8 72.854 704.458 73.2129 703.775 73.2129H700.699C699.947 73.2129 699.571 72.854 699.571 72.1362V2.51221C699.571 1.79443 699.93 1.43555 700.647 1.43555H702.442C703.091 1.43555 703.467 1.74316 703.57 2.3584L704.595 14.6118C706.68 10.3052 709.756 6.88721 713.824 4.35791C717.891 1.82861 722.42 0.563965 727.41 0.563965ZM726.539 49.0649C732.52 49.0649 737.579 46.9629 741.714 42.7588C745.884 38.5205 747.969 33.4106 747.969 27.4292C747.969 21.2769 745.901 16.1157 741.766 11.9458C737.63 7.7417 732.588 5.63965 726.641 5.63965C720.523 5.63965 715.345 7.7417 711.106 11.9458C706.868 16.1499 704.749 21.311 704.749 27.4292C704.749 33.4448 706.851 38.5547 711.055 42.7588C715.293 46.9629 720.455 49.0649 726.539 49.0649Z" fill="white"/>
<path d="M762.53 27.3779C762.53 23.7549 763.213 20.2856 764.581 16.9702C765.982 13.6206 767.896 10.7495 770.323 8.35693C772.818 5.93018 775.723 4.0332 779.039 2.66602C782.388 1.26465 785.875 0.563965 789.498 0.563965C793.121 0.563965 796.607 1.26465 799.957 2.66602C803.306 4.0332 806.177 5.93018 808.57 8.35693C810.997 10.7495 812.894 13.6206 814.261 16.9702C815.662 20.2856 816.363 23.7549 816.363 27.3779C816.363 34.8633 813.765 41.2036 808.57 46.3989C803.375 51.5942 797.017 54.1919 789.498 54.1919C782.012 54.1919 775.638 51.5942 770.374 46.3989C765.145 41.2036 762.53 34.8633 762.53 27.3779ZM789.498 5.58838C783.379 5.58838 778.218 7.69043 774.014 11.8945C769.844 16.1328 767.759 21.2939 767.759 27.3779C767.759 33.4961 769.861 38.6572 774.065 42.8613C778.27 47.0654 783.414 49.1675 789.498 49.1675C795.547 49.1675 800.657 47.0654 804.827 42.8613C808.997 38.623 811.082 33.4619 811.082 27.3779C811.082 21.2939 808.997 16.1328 804.827 11.8945C800.657 7.69043 795.547 5.58838 789.498 5.58838Z" fill="white"/>
<path d="M870.401 48.7061H875.425C876.006 48.7061 876.297 48.9966 876.297 49.5776V61.6772C876.297 62.2925 876.041 62.6001 875.528 62.6001H872.298C871.717 62.6001 871.426 62.2925 871.426 61.6772V53.1665H826.924V61.6772C826.924 62.2925 826.617 62.6001 826.001 62.6001H822.771C822.259 62.6001 822.002 62.2925 822.002 61.6772V49.5776C822.002 48.9966 822.31 48.7061 822.925 48.7061H826.822C828.565 45.9375 830.188 41.4429 831.692 35.2222C833.196 29.0015 834.222 22.3877 834.769 15.3809L835.845 2.46094C835.914 1.87988 836.187 1.58936 836.666 1.58936H869.529C870.11 1.58936 870.401 1.87988 870.401 2.46094V48.7061ZM832.513 48.7061H865.274V6.10107L840.613 6.15234L839.896 15.5859C839.349 22.1826 838.375 28.6426 836.973 34.9658C835.606 41.1865 834.119 45.7666 832.513 48.7061Z" fill="white"/>
<path d="M923.772 1.53809H927.31C927.652 1.53809 927.891 1.64062 928.028 1.8457C928.199 2.05078 928.216 2.32422 928.079 2.66602L907.52 52.1411L899.266 72.085C898.992 72.7002 898.633 73.0078 898.189 73.0078H895.267C894.31 73.0078 894.002 72.5464 894.344 71.6235L902.239 52.2437L881.68 2.66602C881.407 1.91406 881.646 1.53809 882.398 1.53809H885.936C886.585 1.53809 887.029 1.8457 887.269 2.46094L904.854 45.9888L922.491 2.46094C922.662 1.8457 923.089 1.53809 923.772 1.53809Z" fill="white"/>
<path d="M957.303 24.353L980.271 51.5259C980.818 52.2778 980.699 52.7905 979.913 53.064H976.221C975.64 53.3716 975.145 53.2178 974.734 52.6025L952.945 26.6089H942.896V52.2437C942.896 52.9272 942.537 53.269 941.819 53.269H938.692C938.008 53.269 937.667 52.9272 937.667 52.2437V2.56348C937.667 1.8457 938.008 1.48682 938.692 1.48682H941.819C942.537 1.48682 942.896 1.8457 942.896 2.56348V22.0459H952.791L966.839 2.30713C967.352 1.58936 967.95 1.41846 968.633 1.79443H972.068C972.752 2.06787 972.854 2.56348 972.376 3.28125L957.303 24.353Z" fill="white"/>
<path d="M987.449 5.07568V2.61475C987.449 1.93115 987.808 1.58936 988.526 1.58936H1448.78C1449.5 1.58936 1449.86 1.93115 1449.86 2.61475V5.07568C1449.86 5.79346 1449.5 6.15234 1448.78 6.15234H1009.75V52.2949C1009.75 52.9443 1009.41 53.269 1008.73 53.269H1005.5C1004.85 53.269 1004.52 52.9443 1004.52 52.2949V6.15234H988.526C987.808 6.15234 987.449 5.79346 987.449 5.07568Z" fill="white"/>
</svg>
