<svg width="254" height="56" viewBox="0 0 254 56" fill="none" xmlns="http://www.w3.org/2000/svg">
<rect x="1" y="1" width="252" height="54" rx="27" fill="black" stroke="white" stroke-width="2"/>
<circle cx="27.9783" cy="27.9783" r="27.9783" transform="rotate(-90 27.9783 27.9783)" fill="white"/>
<path d="M28.4101 22.3208L28.4101 38.4893L26.1113 38.4893L26.1113 22.3208L26.1113 21.7288L25.687 22.1417L19.1445 28.5077L17.5756 26.975L27.2607 17.5661L36.9465 26.9755L35.387 28.5074L28.8343 22.1415L28.4101 21.7294L28.4101 22.3208Z" fill="black" stroke="white" stroke-width="0.5"/>
<path d="M82.508 35V19.6H89.152C90.868 19.6 92.1953 19.9447 93.134 20.634C94.0873 21.3233 94.564 22.2987 94.564 23.56C94.564 24.396 94.366 25.1 93.97 25.672C93.5887 26.244 93.0607 26.6767 92.386 26.97C91.726 27.2633 91 27.41 90.208 27.41L90.582 26.882C91.5647 26.882 92.408 27.036 93.112 27.344C93.8307 27.6373 94.388 28.0847 94.784 28.686C95.18 29.2727 95.378 30.006 95.378 30.886C95.378 32.1913 94.894 33.2033 93.926 33.922C92.9727 34.6407 91.528 35 89.592 35H82.508ZM84.136 33.658H89.57C90.9193 33.658 91.9533 33.4307 92.672 32.976C93.3907 32.5067 93.75 31.766 93.75 30.754C93.75 29.7567 93.3907 29.0307 92.672 28.576C91.9533 28.1067 90.9193 27.872 89.57 27.872H83.96V26.53H89.042C90.274 26.53 91.2273 26.2953 91.902 25.826C92.5913 25.3567 92.936 24.66 92.936 23.736C92.936 22.7973 92.5913 22.1007 91.902 21.646C91.2273 21.1767 90.274 20.942 89.042 20.942H84.136V33.658ZM106.002 35V32.448L105.936 32.03V27.762C105.936 26.7793 105.657 26.024 105.1 25.496C104.557 24.968 103.743 24.704 102.658 24.704C101.91 24.704 101.199 24.8287 100.524 25.078C99.8493 25.3273 99.2773 25.6573 98.8079 26.068L98.1039 24.902C98.6906 24.4033 99.3946 24.022 100.216 23.758C101.037 23.4793 101.903 23.34 102.812 23.34C104.308 23.34 105.459 23.714 106.266 24.462C107.087 25.1953 107.498 26.3173 107.498 27.828V35H106.002ZM102.02 35.11C101.155 35.11 100.399 34.9707 99.7539 34.692C99.1233 34.3987 98.6393 34.0027 98.3019 33.504C97.9646 32.9907 97.7959 32.404 97.7959 31.744C97.7959 31.1427 97.9353 30.6 98.2139 30.116C98.5073 29.6173 98.9766 29.2213 99.6219 28.928C100.282 28.62 101.162 28.466 102.262 28.466H106.244V29.632H102.306C101.191 29.632 100.414 29.83 99.9739 30.226C99.5486 30.622 99.3359 31.1133 99.3359 31.7C99.3359 32.36 99.5926 32.888 100.106 33.284C100.619 33.68 101.338 33.878 102.262 33.878C103.142 33.878 103.897 33.68 104.528 33.284C105.173 32.8733 105.643 32.2867 105.936 31.524L106.288 32.602C105.995 33.3647 105.481 33.9733 104.748 34.428C104.029 34.8827 103.12 35.11 102.02 35.11ZM116.537 35.11C115.393 35.11 114.366 34.8607 113.457 34.362C112.562 33.8487 111.858 33.152 111.345 32.272C110.831 31.3773 110.575 30.358 110.575 29.214C110.575 28.0553 110.831 27.036 111.345 26.156C111.858 25.276 112.562 24.5867 113.457 24.088C114.366 23.5893 115.393 23.34 116.537 23.34C117.519 23.34 118.407 23.5307 119.199 23.912C119.991 24.2933 120.614 24.8653 121.069 25.628L119.903 26.42C119.507 25.8333 119.015 25.4007 118.429 25.122C117.842 24.8433 117.204 24.704 116.515 24.704C115.693 24.704 114.953 24.8947 114.293 25.276C113.633 25.6427 113.112 26.1633 112.731 26.838C112.349 27.5127 112.159 28.3047 112.159 29.214C112.159 30.1233 112.349 30.9153 112.731 31.59C113.112 32.2647 113.633 32.7927 114.293 33.174C114.953 33.5407 115.693 33.724 116.515 33.724C117.204 33.724 117.842 33.5847 118.429 33.306C119.015 33.0273 119.507 32.602 119.903 32.03L121.069 32.822C120.614 33.57 119.991 34.142 119.199 34.538C118.407 34.9193 117.519 35.11 116.537 35.11ZM125.197 32.008L125.241 30.006L132.435 23.45H134.349L129.267 28.312L128.387 29.06L125.197 32.008ZM123.965 35V18.676H125.527V35H123.965ZM132.919 35L128.101 28.994L129.113 27.784L134.833 35H132.919ZM146.588 35.11C145.502 35.11 144.666 34.8167 144.08 34.23C143.493 33.6433 143.2 32.8147 143.2 31.744V20.898H144.762V31.656C144.762 32.3307 144.93 32.8513 145.268 33.218C145.62 33.5847 146.118 33.768 146.764 33.768C147.453 33.768 148.025 33.57 148.48 33.174L149.03 34.296C148.722 34.5747 148.348 34.78 147.908 34.912C147.482 35.044 147.042 35.11 146.588 35.11ZM141.132 24.748V23.45H148.282V24.748H141.132ZM156.173 35.11C155.058 35.11 154.054 34.8607 153.159 34.362C152.279 33.8487 151.582 33.152 151.069 32.272C150.556 31.3773 150.299 30.358 150.299 29.214C150.299 28.0553 150.556 27.036 151.069 26.156C151.582 25.276 152.279 24.5867 153.159 24.088C154.039 23.5893 155.044 23.34 156.173 23.34C157.317 23.34 158.329 23.5893 159.209 24.088C160.104 24.5867 160.8 25.276 161.299 26.156C161.812 27.036 162.069 28.0553 162.069 29.214C162.069 30.358 161.812 31.3773 161.299 32.272C160.8 33.152 160.104 33.8487 159.209 34.362C158.314 34.8607 157.302 35.11 156.173 35.11ZM156.173 33.724C157.009 33.724 157.75 33.5407 158.395 33.174C159.04 32.7927 159.546 32.2647 159.913 31.59C160.294 30.9007 160.485 30.1087 160.485 29.214C160.485 28.3047 160.294 27.5127 159.913 26.838C159.546 26.1633 159.04 25.6427 158.395 25.276C157.75 24.8947 157.016 24.704 156.195 24.704C155.374 24.704 154.64 24.8947 153.995 25.276C153.35 25.6427 152.836 26.1633 152.455 26.838C152.074 27.5127 151.883 28.3047 151.883 29.214C151.883 30.1087 152.074 30.9007 152.455 31.59C152.836 32.2647 153.35 32.7927 153.995 33.174C154.64 33.5407 155.366 33.724 156.173 33.724ZM174.668 35.11C173.583 35.11 172.747 34.8167 172.16 34.23C171.573 33.6433 171.28 32.8147 171.28 31.744V20.898H172.842V31.656C172.842 32.3307 173.011 32.8513 173.348 33.218C173.7 33.5847 174.199 33.768 174.844 33.768C175.533 33.768 176.105 33.57 176.56 33.174L177.11 34.296C176.802 34.5747 176.428 34.78 175.988 34.912C175.563 35.044 175.123 35.11 174.668 35.11ZM169.212 24.748V23.45H176.362V24.748H169.212ZM184.253 35.11C183.139 35.11 182.134 34.8607 181.239 34.362C180.359 33.8487 179.663 33.152 179.149 32.272C178.636 31.3773 178.379 30.358 178.379 29.214C178.379 28.0553 178.636 27.036 179.149 26.156C179.663 25.276 180.359 24.5867 181.239 24.088C182.119 23.5893 183.124 23.34 184.253 23.34C185.397 23.34 186.409 23.5893 187.289 24.088C188.184 24.5867 188.881 25.276 189.379 26.156C189.893 27.036 190.149 28.0553 190.149 29.214C190.149 30.358 189.893 31.3773 189.379 32.272C188.881 33.152 188.184 33.8487 187.289 34.362C186.395 34.8607 185.383 35.11 184.253 35.11ZM184.253 33.724C185.089 33.724 185.83 33.5407 186.475 33.174C187.121 32.7927 187.627 32.2647 187.993 31.59C188.375 30.9007 188.565 30.1087 188.565 29.214C188.565 28.3047 188.375 27.5127 187.993 26.838C187.627 26.1633 187.121 25.6427 186.475 25.276C185.83 24.8947 185.097 24.704 184.275 24.704C183.454 24.704 182.721 24.8947 182.075 25.276C181.43 25.6427 180.917 26.1633 180.535 26.838C180.154 27.5127 179.963 28.3047 179.963 29.214C179.963 30.1087 180.154 30.9007 180.535 31.59C180.917 32.2647 181.43 32.7927 182.075 33.174C182.721 33.5407 183.447 33.724 184.253 33.724ZM199.3 35.11C198.303 35.11 197.401 34.8827 196.594 34.428C195.787 33.9587 195.142 33.2913 194.658 32.426C194.189 31.546 193.954 30.4753 193.954 29.214C193.954 27.9527 194.189 26.8893 194.658 26.024C195.127 25.144 195.765 24.4767 196.572 24.022C197.379 23.5673 198.288 23.34 199.3 23.34C200.4 23.34 201.383 23.5893 202.248 24.088C203.128 24.572 203.817 25.2613 204.316 26.156C204.815 27.036 205.064 28.0553 205.064 29.214C205.064 30.3873 204.815 31.414 204.316 32.294C203.817 33.174 203.128 33.8633 202.248 34.362C201.383 34.8607 200.4 35.11 199.3 35.11ZM193.338 39.268V23.45H194.834V26.926L194.68 29.236L194.9 31.568V39.268H193.338ZM199.19 33.724C200.011 33.724 200.745 33.5407 201.39 33.174C202.035 32.7927 202.549 32.2647 202.93 31.59C203.311 30.9007 203.502 30.1087 203.502 29.214C203.502 28.3193 203.311 27.5347 202.93 26.86C202.549 26.1853 202.035 25.6573 201.39 25.276C200.745 24.8947 200.011 24.704 199.19 24.704C198.369 24.704 197.628 24.8947 196.968 25.276C196.323 25.6573 195.809 26.1853 195.428 26.86C195.061 27.5347 194.878 28.3193 194.878 29.214C194.878 30.1087 195.061 30.9007 195.428 31.59C195.809 32.2647 196.323 32.7927 196.968 33.174C197.628 33.5407 198.369 33.724 199.19 33.724Z" fill="white"/>
</svg>
