<svg width="226" height="153" viewBox="0 0 226 153" fill="none" xmlns="http://www.w3.org/2000/svg">
<g filter="url(#filter0_d_93_87)">
<path d="M204 6H22C16.4772 6 12 10.4772 12 16V125C12 130.523 16.4772 135 22 135H204C209.523 135 214 130.523 214 125V16C214 10.4772 209.523 6 204 6Z" fill="white"/>
<path d="M35.4361 88.1419H34.3568V87.1251C33.1888 87.0521 32.2659 86.7289 31.5881 86.1553C30.9103 85.5766 30.5688 84.8257 30.5635 83.9028H32.4719C32.5084 84.3513 32.6935 84.7241 33.0272 85.0213C33.3661 85.3133 33.8093 85.4905 34.3568 85.5531V82.1353L33.606 81.9476C32.6987 81.7286 32.0052 81.3584 31.5255 80.837C31.0511 80.3156 30.8138 79.6638 30.8138 78.8817C30.8138 77.9588 31.1267 77.2132 31.7524 76.6449C32.378 76.0713 33.2462 75.735 34.3568 75.6359V74.5566H35.4361V75.6359C36.4893 75.7298 37.3314 76.0687 37.9623 76.6527C38.5984 77.2314 38.9269 77.9614 38.9478 78.8426H37.0785C37.0681 78.4255 36.9091 78.0683 36.6014 77.7711C36.299 77.4739 35.9106 77.294 35.4361 77.2314V80.4772L36.2104 80.6414C37.2011 80.8761 37.9388 81.2489 38.4238 81.7599C38.9087 82.2708 39.1511 82.9382 39.1511 83.7621C39.1511 84.7371 38.8278 85.5166 38.1813 86.1006C37.5348 86.6793 36.6197 87.0156 35.4361 87.1095V88.1419ZM37.2506 83.9654C37.2506 83.5326 37.102 83.1859 36.8048 82.9252C36.5128 82.6593 36.0566 82.4638 35.4361 82.3386V85.5687C36.0096 85.5322 36.4554 85.3732 36.7735 85.0917C37.0916 84.8101 37.2506 84.4347 37.2506 83.9654ZM32.7378 78.7253C32.7378 79.1163 32.876 79.4422 33.1523 79.7029C33.4287 79.9584 33.8302 80.1409 34.3568 80.2504V77.2236C33.8875 77.2497 33.4991 77.4035 33.1914 77.6851C32.889 77.9666 32.7378 78.3134 32.7378 78.7253ZM40.6449 79.132C40.6449 78.0892 41.0204 77.2341 41.7712 76.5667C42.522 75.894 43.4814 75.5577 44.6494 75.5577C45.7704 75.5577 46.6933 75.8628 47.418 76.4728C48.148 77.0828 48.513 77.8467 48.513 78.7644C48.513 79.3953 48.3357 79.9923 47.9811 80.5554C47.6318 81.1133 47.0504 81.8016 46.237 82.6202L43.4449 85.381V85.4201H48.685V87.0704H40.7544V85.7095L44.9074 81.58C45.5488 80.923 45.9815 80.4094 46.2058 80.0392C46.43 79.669 46.5421 79.2728 46.5421 78.8504C46.5421 78.3811 46.3544 77.9849 45.9789 77.6616C45.6087 77.3383 45.1447 77.1767 44.5868 77.1767C43.9976 77.1767 43.5075 77.3618 43.1164 77.732C42.7306 78.1022 42.5377 78.5662 42.5377 79.1242V79.1554H40.6449V79.132ZM55.3095 87.0704V84.9352H49.6783V83.1989C50.6064 81.447 52.168 78.9756 54.3632 75.7845H57.2335V83.285H58.7508V84.9352H57.2335V87.0704H55.3095ZM51.5085 83.2772V83.3319H55.3408V77.2784H55.3095C54.3553 78.6601 53.5915 79.802 53.0179 80.704C52.4444 81.6061 51.9412 82.4638 51.5085 83.2772ZM61.4334 89.4558H59.9396L60.5888 85.209H62.4893L61.4334 89.4558ZM68.5976 87.2972C67.4348 87.2972 66.4702 86.9818 65.7038 86.3509C64.9373 85.7147 64.5332 84.8961 64.4915 83.895H66.3842C66.4468 84.4164 66.684 84.8414 67.0959 85.1699C67.513 85.4984 68.0188 85.6626 68.6132 85.6626C69.2858 85.6626 69.8307 85.4514 70.2478 85.0291C70.6702 84.6067 70.8813 84.0619 70.8813 83.3945C70.8813 82.7166 70.6702 82.164 70.2478 81.7364C69.8307 81.3036 69.291 81.0873 68.6289 81.0873C68.17 81.0873 67.7503 81.1863 67.3697 81.3845C66.9942 81.5826 66.7023 81.8589 66.4937 82.2135H64.6636L65.2501 75.7845H72.164V77.4348H66.8456L66.5563 80.7353H66.6032C66.8378 80.3703 67.1767 80.0835 67.6199 79.875C68.0631 79.6612 68.5611 79.5543 69.1138 79.5543C70.1931 79.5543 71.0821 79.9115 71.7808 80.6258C72.4794 81.3349 72.8288 82.2396 72.8288 83.3397C72.8288 84.5129 72.4351 85.4671 71.6478 86.2023C70.8657 86.9322 69.849 87.2972 68.5976 87.2972ZM76.7863 82.0414V80.5241H78.1471C78.7259 80.5241 79.1952 80.3651 79.5549 80.047C79.9147 79.7238 80.0946 79.3093 80.0946 78.8035C80.0946 78.3029 79.9225 77.9041 79.5784 77.6069C79.2395 77.3097 78.7598 77.1611 78.1393 77.1611C77.5606 77.1611 77.0887 77.3201 76.7237 77.6381C76.3587 77.951 76.1554 78.3707 76.1137 78.8973H74.2366C74.2939 77.8806 74.6824 77.0698 75.4019 76.465C76.1267 75.8601 77.0704 75.5577 78.2332 75.5577C79.349 75.5577 80.2614 75.8341 80.9706 76.3868C81.6797 76.9395 82.0342 77.6538 82.0342 78.5297C82.0342 79.2232 81.8205 79.8098 81.3929 80.2895C80.9706 80.764 80.4074 81.0612 79.7035 81.1811V81.228C80.5534 81.2906 81.2287 81.5669 81.7292 82.0571C82.235 82.542 82.4879 83.1755 82.4879 83.9576C82.4879 84.9483 82.0838 85.7538 81.2756 86.3743C80.4726 86.9896 79.4507 87.2972 78.2097 87.2972C76.9792 87.2972 75.9859 86.9896 75.2299 86.3743C74.4738 85.7538 74.0697 84.9378 74.0176 83.9263H75.9416C75.9885 84.4477 76.2153 84.8648 76.622 85.1777C77.0287 85.4905 77.5632 85.647 78.2254 85.647C78.8771 85.647 79.4089 85.4827 79.8209 85.1542C80.2328 84.8257 80.4387 84.4008 80.4387 83.8794C80.4387 83.3111 80.2354 82.8626 79.8287 82.5342C79.4272 82.2057 78.8771 82.0414 78.1784 82.0414H76.7863ZM88.2911 87.2972C86.9146 87.2972 85.8327 86.7732 85.0454 85.7252C84.2632 84.6719 83.8722 83.2354 83.8722 81.4157C83.8722 79.6065 84.2659 78.1778 85.0532 77.1298C85.8405 76.0817 86.9198 75.5577 88.2911 75.5577C89.6624 75.5577 90.7391 76.0817 91.5212 77.1298C92.3033 78.1726 92.6944 79.5986 92.6944 81.4079C92.6944 83.2224 92.3033 84.6589 91.5212 85.7173C90.7391 86.7706 89.6624 87.2972 88.2911 87.2972ZM88.2911 85.647C89.0367 85.647 89.6155 85.2741 90.0274 84.5285C90.4445 83.7829 90.6531 82.7453 90.6531 81.4157C90.6531 80.0966 90.4445 79.0668 90.0274 78.3264C89.6103 77.5808 89.0315 77.208 88.2911 77.208C87.5507 77.208 86.9667 77.5808 86.5392 78.3264C86.1168 79.072 85.9057 80.0992 85.9057 81.4079C85.9057 82.7375 86.1142 83.7777 86.5314 84.5285C86.9537 85.2741 87.5403 85.647 88.2911 85.647ZM95.1659 87.1564C94.8478 87.1564 94.5793 87.0495 94.3603 86.8358C94.1465 86.6168 94.0396 86.3482 94.0396 86.0302C94.0396 85.7173 94.1465 85.4514 94.3603 85.2324C94.5793 85.0134 94.8478 84.9039 95.1659 84.9039C95.4787 84.9039 95.742 85.0134 95.9558 85.2324C96.1748 85.4514 96.2843 85.7173 96.2843 86.0302C96.2843 86.3482 96.1748 86.6168 95.9558 86.8358C95.742 87.0495 95.4787 87.1564 95.1659 87.1564ZM102.26 87.2972C100.883 87.2972 99.8012 86.7732 99.0139 85.7252C98.2317 84.6719 97.8407 83.2354 97.8407 81.4157C97.8407 79.6065 98.2343 78.1778 99.0217 77.1298C99.809 76.0817 100.888 75.5577 102.26 75.5577C103.631 75.5577 104.708 76.0817 105.49 77.1298C106.272 78.1726 106.663 79.5986 106.663 81.4079C106.663 83.2224 106.272 84.6589 105.49 85.7173C104.708 86.7706 103.631 87.2972 102.26 87.2972ZM102.26 85.647C103.005 85.647 103.584 85.2741 103.996 84.5285C104.413 83.7829 104.622 82.7453 104.622 81.4157C104.622 80.0966 104.413 79.0668 103.996 78.3264C103.579 77.5808 103 77.208 102.26 77.208C101.519 77.208 100.935 77.5808 100.508 78.3264C100.085 79.072 99.8742 80.0992 99.8742 81.4079C99.8742 82.7375 100.083 83.7777 100.5 84.5285C100.922 85.2741 101.509 85.647 102.26 85.647ZM112.552 87.305C111.728 87.305 110.993 87.1121 110.347 86.7263C109.705 86.3404 109.194 85.7851 108.814 85.0604C108.277 84.1271 108.008 82.9591 108.008 81.5565C108.008 79.6795 108.417 78.2091 109.236 77.1454C110.055 76.0817 111.181 75.5499 112.615 75.5499C113.647 75.5499 114.531 75.8315 115.266 76.3946C116.001 76.9525 116.452 77.6877 116.619 78.6001H114.617C114.486 78.1726 114.239 77.8311 113.874 77.5756C113.509 77.3201 113.084 77.1923 112.599 77.1923C111.754 77.1923 111.097 77.5678 110.628 78.3186C110.159 79.0694 109.927 80.1226 109.932 81.4783H109.971C110.211 80.9204 110.605 80.4746 111.152 80.1409C111.7 79.8072 112.325 79.6403 113.029 79.6403C114.103 79.6403 114.995 79.9949 115.704 80.704C116.413 81.4079 116.768 82.2943 116.768 83.3632C116.768 84.5103 116.371 85.454 115.579 86.1944C114.786 86.9348 113.777 87.305 112.552 87.305ZM112.536 85.6548C113.162 85.6548 113.691 85.4384 114.124 85.0056C114.562 84.5729 114.781 84.0462 114.781 83.4258C114.781 82.7896 114.57 82.263 114.147 81.8459C113.73 81.4288 113.199 81.2202 112.552 81.2202C111.906 81.2202 111.366 81.4288 110.933 81.8459C110.506 82.2578 110.292 82.7766 110.292 83.4023C110.292 84.0332 110.508 84.5676 110.941 85.0056C111.374 85.4384 111.906 85.6548 112.536 85.6548Z" fill="#161616"/>
<path fill-rule="evenodd" clip-rule="evenodd" d="M37.4496 100.691H32.821C31.2086 100.691 30.1968 101.833 30.1968 103.449V107.811C30.1968 109.427 31.2032 110.569 32.821 110.569H37.4496C39.0673 110.569 40.0743 109.427 40.0743 107.811V103.449C40.0743 101.833 39.0673 100.691 37.4496 100.691Z" stroke="url(#paint0_linear_93_87)" stroke-width="1.3348" stroke-linecap="round" stroke-linejoin="round"/>
<path d="M35.1353 103.448V107.812" stroke="url(#paint1_linear_93_87)" stroke-width="1.3348" stroke-linecap="round" stroke-linejoin="round"/>
<path d="M33.1343 105.458L35.1355 103.448L37.1366 105.458" stroke="url(#paint2_linear_93_87)" stroke-width="1.3348" stroke-linecap="round" stroke-linejoin="round"/>
<path d="M47.9928 107.211V109.526H46.8197V107.211H44.6558V106.053H46.8197V103.775H47.9928V106.053H50.1619V107.211H47.9928ZM54.9223 109.63V108.207H51.1682V107.049C51.7869 105.881 52.828 104.233 54.2914 102.106H56.205V107.106H57.2165V108.207H56.205V109.63H54.9223ZM52.3883 107.101V107.138H54.9432V103.102H54.9223C54.2862 104.023 53.777 104.784 53.3946 105.386C53.0122 105.987 52.6768 106.559 52.3883 107.101ZM60.882 109.781C60.1069 109.781 59.4638 109.571 58.9528 109.15C58.4418 108.726 58.1724 108.18 58.1446 107.513H59.4064C59.4481 107.861 59.6063 108.144 59.8809 108.363C60.159 108.582 60.4962 108.691 60.8924 108.691C61.3409 108.691 61.7041 108.551 61.9822 108.269C62.2637 107.988 62.4045 107.624 62.4045 107.179C62.4045 106.728 62.2637 106.359 61.9822 106.074C61.7041 105.785 61.3443 105.641 60.9029 105.641C60.597 105.641 60.3172 105.707 60.0634 105.839C59.8131 105.971 59.6185 106.156 59.4794 106.392H58.2593L58.6504 102.106H63.2596V103.206H59.7141L59.5211 105.407H59.5524C59.7088 105.163 59.9348 104.972 60.2303 104.833C60.5257 104.69 60.8577 104.619 61.2261 104.619C61.9457 104.619 62.5384 104.857 63.0041 105.334C63.4699 105.806 63.7028 106.409 63.7028 107.143C63.7028 107.925 63.4404 108.561 62.9155 109.051C62.3941 109.538 61.7163 109.781 60.882 109.781ZM65.4913 111.22H64.4954L64.9281 108.389H66.1952L65.4913 111.22ZM67.5352 109.63L70.8357 103.232V103.206H66.9251V102.106H72.16V103.227L68.943 109.63H67.5352ZM76.0915 109.63V108.207H72.3373V107.049C72.9561 105.881 73.9971 104.233 75.4606 102.106H77.3741V107.106H78.3856V108.207H77.3741V109.63H76.0915ZM73.5574 107.101V107.138H76.1123V103.102H76.0915C75.4553 104.023 74.9461 104.784 74.5637 105.386C74.1814 105.987 73.8459 106.559 73.5574 107.101ZM81.8321 102.502C82.1346 102.846 82.2858 103.312 82.2858 103.9C82.2858 104.487 82.1346 104.955 81.8321 105.302C81.5297 105.65 81.1248 105.824 80.6173 105.824C80.1098 105.824 79.7048 105.65 79.4024 105.302C79.1034 104.955 78.954 104.487 78.954 103.9C78.954 103.312 79.1034 102.846 79.4024 102.502C79.7048 102.155 80.1098 101.981 80.6173 101.981C81.1248 101.981 81.5297 102.155 81.8321 102.502ZM80.6173 105.005C80.8119 105.005 80.9631 104.908 81.0709 104.713C81.1821 104.515 81.2377 104.244 81.2377 103.9C81.2377 103.552 81.1821 103.281 81.0709 103.086C80.9631 102.888 80.8119 102.789 80.6173 102.789C80.4261 102.789 80.2749 102.888 80.1636 103.086C80.0559 103.281 80.002 103.552 80.002 103.9C80.002 104.244 80.0559 104.515 80.1636 104.713C80.2749 104.908 80.4261 105.005 80.6173 105.005ZM80.7215 109.63H79.5849L82.4995 105.641L85.0857 102.106H86.212L83.3755 105.991L80.7215 109.63ZM86.3945 106.402C86.6969 106.75 86.8481 107.218 86.8481 107.805C86.8481 108.393 86.6969 108.86 86.3945 109.208C86.092 109.552 85.6871 109.724 85.1796 109.724C84.6721 109.724 84.2671 109.552 83.9647 109.208C83.6658 108.86 83.5163 108.393 83.5163 107.805C83.5163 107.218 83.6658 106.75 83.9647 106.402C84.2671 106.055 84.6721 105.881 85.1796 105.881C85.6871 105.881 86.092 106.055 86.3945 106.402ZM84.726 108.613C84.8372 108.811 84.9884 108.91 85.1796 108.91C85.3708 108.91 85.522 108.811 85.6332 108.613C85.7444 108.415 85.8001 108.144 85.8001 107.8C85.8001 107.456 85.7444 107.185 85.6332 106.986C85.522 106.788 85.3708 106.689 85.1796 106.689C84.9884 106.689 84.8372 106.788 84.726 106.986C84.6182 107.185 84.5643 107.456 84.5643 107.8C84.5643 108.144 84.6182 108.415 84.726 108.613Z" fill="url(#paint3_linear_93_87)"/>
<path d="M44.0348 48.7137C51.8982 48.7137 58.2727 42.3392 58.2727 34.4758C58.2727 26.6124 51.8982 20.2379 44.0348 20.2379C36.1714 20.2379 29.7969 26.6124 29.7969 34.4758C29.7969 42.3392 36.1714 48.7137 44.0348 48.7137Z" fill="url(#paint4_linear_93_87)"/>
<path d="M48.7803 30.6195C49.2717 30.6195 49.6701 30.2211 49.6701 29.7297C49.6701 29.2382 49.2717 28.8398 48.7803 28.8398V30.6195ZM40.1782 30.6195H48.7803V28.8398H40.1782V30.6195ZM40.1782 33.5858H44.9242V31.806H40.1782V33.5858ZM39.585 31.2128C39.585 30.8851 39.8506 30.6195 40.1782 30.6195V28.8398C38.8677 28.8398 37.8052 29.9022 37.8052 31.2128H39.585ZM37.8052 31.2128C37.8052 32.5233 38.8677 33.5858 40.1782 33.5858V31.806C39.8506 31.806 39.585 31.5404 39.585 31.2128H37.8052Z" fill="white"/>
<path d="M39.5855 34.4757V31.2129H37.8057V34.4757H39.5855Z" fill="white"/>
<path d="M49.8188 38.0352V37.5903H49.3738H47.5941C46.8569 37.5903 46.2593 36.9927 46.2593 36.2555C46.2593 35.5183 46.8569 34.9207 47.5941 34.9207H49.3738H49.8188V34.4757V34.4464C49.8188 34.052 49.8188 33.7122 49.7822 33.44C49.743 33.1484 49.6546 32.8688 49.4278 32.642L49.1155 32.9543L49.4278 32.642C49.201 32.4153 48.9215 32.3268 48.6298 32.2876C48.3577 32.251 48.0178 32.251 47.6234 32.2511H47.5941H38.6954H38.2505V32.696V38.0352V38.0645C38.2505 38.4589 38.2504 38.7988 38.287 39.0709C38.3262 39.3626 38.4147 39.6422 38.6414 39.8689C38.8682 40.0957 39.1478 40.1841 39.4394 40.2233C39.7116 40.2599 40.0514 40.2599 40.4459 40.2599H40.4751H47.5941C47.6039 40.2599 47.6136 40.2599 47.6234 40.2599C48.0178 40.2599 48.3577 40.2599 48.6298 40.2233C48.9215 40.1841 49.201 40.0957 49.4278 39.8689C49.6546 39.6422 49.743 39.3626 49.7822 39.0709C49.8188 38.7988 49.8188 38.4589 49.8188 38.0645C49.8188 38.0548 49.8188 38.045 49.8188 38.0352Z" fill="white" stroke="white" stroke-width="0.889868"/>
<path d="M73.4039 38.4758H69.7236V29.6979H73.3674C74.1663 29.6979 74.803 29.8966 75.2775 30.294C75.752 30.6915 75.9892 31.2227 75.9892 31.8878C75.9892 32.3582 75.8351 32.7759 75.5269 33.1409C75.2187 33.5059 74.8395 33.7249 74.3893 33.7979V33.8465C74.9895 33.9033 75.4762 34.1284 75.8493 34.5218C76.2264 34.9151 76.415 35.4018 76.415 35.9817C76.415 36.7563 76.1474 37.3666 75.612 37.8127C75.0767 38.2548 74.3407 38.4758 73.4039 38.4758ZM71.2931 30.9206V33.3964H72.7287C73.2761 33.3964 73.6979 33.2869 73.9939 33.0679C74.29 32.8449 74.438 32.5285 74.438 32.1189C74.438 31.7377 74.3103 31.4437 74.0548 31.2369C73.8033 31.026 73.4424 30.9206 72.972 30.9206H71.2931ZM71.2931 37.2531H73.045C73.6209 37.2531 74.0588 37.1355 74.3589 36.9003C74.6631 36.665 74.8152 36.3224 74.8152 35.8722C74.8152 35.4261 74.659 35.0875 74.3468 34.8563C74.0386 34.6252 73.5823 34.5096 72.9781 34.5096H71.2931V37.2531ZM79.7364 37.4356C80.1703 37.4356 80.5353 37.3078 80.8313 37.0523C81.1314 36.7928 81.2815 36.4704 81.2815 36.0851V35.5924L79.7911 35.6836C79.4261 35.708 79.1423 35.7992 78.9395 35.9574C78.7408 36.1115 78.6414 36.3163 78.6414 36.5718C78.6414 36.8354 78.7408 37.0462 78.9395 37.2044C79.1423 37.3585 79.4079 37.4356 79.7364 37.4356ZM79.2801 38.5792C78.6516 38.5792 78.1345 38.3987 77.729 38.0378C77.3275 37.6769 77.1267 37.2085 77.1267 36.6326C77.1267 36.0608 77.3376 35.6086 77.7594 35.2761C78.1852 34.9435 78.7915 34.7529 79.5782 34.7043L81.2815 34.6069V34.1446C81.2815 33.808 81.174 33.5464 80.9591 33.3599C80.7482 33.1734 80.4542 33.0801 80.077 33.0801C79.7242 33.0801 79.4363 33.1592 79.2132 33.3173C78.9902 33.4755 78.8543 33.6904 78.8057 33.9621H77.4005C77.4329 33.3498 77.6945 32.853 78.1852 32.4718C78.6799 32.0865 79.3308 31.8939 80.1379 31.8939C80.9368 31.8939 81.5755 32.0885 82.054 32.4779C82.5366 32.8672 82.7779 33.3863 82.7779 34.0351V38.4758H81.318V37.4477H81.2876C81.1051 37.7924 80.8293 38.0682 80.4603 38.275C80.0912 38.4778 79.6978 38.5792 79.2801 38.5792ZM84.0432 38.4758V29.6979H85.5579V38.4758H84.0432ZM89.2016 37.4356C89.6356 37.4356 90.0006 37.3078 90.2966 37.0523C90.5967 36.7928 90.7468 36.4704 90.7468 36.0851V35.5924L89.2564 35.6836C88.8914 35.708 88.6075 35.7992 88.4048 35.9574C88.2061 36.1115 88.1067 36.3163 88.1067 36.5718C88.1067 36.8354 88.2061 37.0462 88.4048 37.2044C88.6075 37.3585 88.8732 37.4356 89.2016 37.4356ZM88.7454 38.5792C88.1168 38.5792 87.5998 38.3987 87.1942 38.0378C86.7927 37.6769 86.592 37.2085 86.592 36.6326C86.592 36.0608 86.8029 35.6086 87.2246 35.2761C87.6505 34.9435 88.2567 34.7529 89.0435 34.7043L90.7468 34.6069V34.1446C90.7468 33.808 90.6393 33.5464 90.4243 33.3599C90.2135 33.1734 89.9195 33.0801 89.5423 33.0801C89.1895 33.0801 88.9015 33.1592 88.6785 33.3173C88.4555 33.4755 88.3196 33.6904 88.2709 33.9621H86.8657C86.8982 33.3498 87.1598 32.853 87.6505 32.4718C88.1452 32.0865 88.7961 31.8939 89.6031 31.8939C90.402 31.8939 91.0408 32.0885 91.5193 32.4779C92.0019 32.8672 92.2432 33.3863 92.2432 34.0351V38.4758H90.7832V37.4477H90.7528C90.5703 37.7924 90.2946 38.0682 89.9255 38.275C89.5565 38.4778 89.1631 38.5792 88.7454 38.5792ZM93.4659 38.4758V32.0277H94.9197V33.1348H94.9502C95.1286 32.7455 95.3881 32.4434 95.7288 32.2284C96.0735 32.0135 96.4892 31.906 96.9758 31.906C97.6815 31.906 98.2289 32.1189 98.6183 32.5448C99.0116 32.9706 99.2083 33.5586 99.2083 34.3089V38.4758H97.6936V34.613C97.6936 34.1507 97.5841 33.7979 97.3651 33.5546C97.1502 33.3112 96.8298 33.1896 96.404 33.1896C95.9701 33.1896 95.6234 33.3315 95.3638 33.6154C95.1083 33.8993 94.9806 34.2744 94.9806 34.7408V38.4758H93.4659ZM106.107 34.3271H104.677C104.612 33.9662 104.458 33.6762 104.215 33.4572C103.971 33.2342 103.655 33.1227 103.266 33.1227C102.787 33.1227 102.406 33.3133 102.122 33.6945C101.838 34.0716 101.696 34.5907 101.696 35.2517C101.696 35.9209 101.838 36.444 102.122 36.8212C102.406 37.1943 102.791 37.3808 103.278 37.3808C103.659 37.3808 103.971 37.2794 104.215 37.0767C104.458 36.8698 104.614 36.5819 104.683 36.2129H106.113C106.052 36.9347 105.762 37.5146 105.243 37.9526C104.728 38.3866 104.067 38.6035 103.26 38.6035C102.311 38.6035 101.556 38.3054 100.997 37.7093C100.437 37.1091 100.157 36.2899 100.157 35.2517C100.157 34.2257 100.437 33.4106 100.997 32.8063C101.556 32.198 102.307 31.8939 103.248 31.8939C104.075 31.8939 104.744 32.125 105.255 32.5873C105.77 33.0456 106.054 33.6255 106.107 34.3271ZM109.799 33.0679C109.377 33.0679 109.024 33.2139 108.741 33.5059C108.461 33.7938 108.305 34.1649 108.272 34.6191H111.283C111.267 34.1608 111.123 33.7877 110.851 33.4998C110.58 33.2119 110.229 33.0679 109.799 33.0679ZM111.289 36.5474H112.707C112.609 37.1598 112.299 37.6566 111.776 38.0378C111.253 38.4149 110.612 38.6035 109.854 38.6035C108.889 38.6035 108.13 38.3075 107.579 37.7154C107.027 37.1192 106.751 36.3061 106.751 35.2761C106.751 34.2541 107.025 33.4349 107.573 32.8185C108.124 32.2021 108.864 31.8939 109.793 31.8939C110.705 31.8939 111.429 32.1879 111.965 32.7759C112.5 33.3599 112.768 34.1426 112.768 35.124V35.6167H108.26V35.708C108.26 36.2271 108.406 36.6448 108.698 36.9611C108.994 37.2774 109.389 37.4356 109.884 37.4356C110.233 37.4356 110.533 37.3565 110.784 37.1983C111.04 37.0361 111.208 36.8191 111.289 36.5474Z" fill="#0D0D0D"/>
<path d="M159.993 38.0584C159.511 38.1524 159.196 38.6196 159.29 39.102C159.384 39.5844 159.851 39.8993 160.333 39.8053L159.993 38.0584ZM168.687 28.7121L168.281 27.9204L168.687 28.7121ZM183.844 35.947L184.309 36.7062L183.844 35.947ZM196.208 21.0217C196.632 20.7728 196.774 20.2275 196.525 19.8037C196.276 19.3799 195.731 19.2382 195.307 19.4871L196.208 21.0217ZM160.333 39.8053C162.262 39.4296 163.505 38.7556 164.303 37.7817C165.079 36.8335 165.33 35.7127 165.529 34.7448C165.738 33.7279 165.898 32.8323 166.367 31.9646C166.816 31.1323 167.583 30.2786 169.093 29.5038L168.281 27.9204C166.487 28.841 165.44 29.9365 164.801 31.1184C164.181 32.2647 163.978 33.4482 163.785 34.3865C163.583 35.3737 163.393 36.084 162.926 36.6542C162.48 37.1986 161.677 37.7302 159.993 38.0584L160.333 39.8053ZM169.093 29.5038C169.824 29.1286 170.434 29.0226 170.959 29.0666C171.487 29.111 171.998 29.3137 172.519 29.6649C173.601 30.3952 174.574 31.6528 175.657 33.0642C176.683 34.4012 177.828 35.9056 179.182 36.771C179.883 37.2196 180.676 37.5226 181.568 37.5378C182.461 37.553 183.372 37.2787 184.309 36.7062L183.38 35.1879C182.67 35.6219 182.088 35.7667 181.599 35.7583C181.109 35.75 180.634 35.5868 180.14 35.2715C179.104 34.6091 178.154 33.3947 177.069 31.9807C176.041 30.6412 174.887 29.1157 173.514 28.1896C172.807 27.7125 172.009 27.3688 171.107 27.2931C170.201 27.2171 169.26 27.4176 168.281 27.9204L169.093 29.5038ZM184.309 36.7062C185.536 35.9553 186.631 34.6822 187.628 33.2614C188.635 31.828 189.607 30.1494 190.555 28.5184C191.512 26.8704 192.446 25.2696 193.403 23.923C194.37 22.5638 195.298 21.5566 196.208 21.0217L195.307 19.4871C194.063 20.218 192.957 21.4791 191.953 22.8917C190.939 24.317 189.964 25.9917 189.016 27.6242C188.057 29.2736 187.126 30.8803 186.172 32.2385C185.209 33.6091 184.286 34.6337 183.38 35.1879L184.309 36.7062Z" fill="url(#paint5_linear_93_87)"/>
<path d="M168.687 28.7121C162.08 32.103 167.389 37.5241 160.163 38.9318V55.8491H195.758V20.2544C191.448 22.786 188.112 33.3369 183.844 35.947C177.261 39.9731 175.53 25.2004 168.687 28.7121Z" fill="url(#paint6_linear_93_87)"/>
</g>
<defs>
<filter id="filter0_d_93_87" x="0" y="0" width="226" height="153" filterUnits="userSpaceOnUse" color-interpolation-filters="sRGB">
<feFlood flood-opacity="0" result="BackgroundImageFix"/>
<feColorMatrix in="SourceAlpha" type="matrix" values="0 0 0 0 0 0 0 0 0 0 0 0 0 0 0 0 0 0 127 0" result="hardAlpha"/>
<feOffset dy="6"/>
<feGaussianBlur stdDeviation="6"/>
<feComposite in2="hardAlpha" operator="out"/>
<feColorMatrix type="matrix" values="0 0 0 0 0 0 0 0 0 0 0 0 0 0 0 0 0 0 0.4 0"/>
<feBlend mode="normal" in2="BackgroundImageFix" result="effect1_dropShadow_93_87"/>
<feBlend mode="normal" in="SourceGraphic" in2="effect1_dropShadow_93_87" result="shape"/>
</filter>
<linearGradient id="paint0_linear_93_87" x1="40.0743" y1="104.421" x2="30.1486" y2="103.927" gradientUnits="userSpaceOnUse">
<stop stop-color="#756BEB"/>
<stop offset="1" stop-color="#4F84EA"/>
</linearGradient>
<linearGradient id="paint1_linear_93_87" x1="nan" y1="nan" x2="nan" y2="nan" gradientUnits="userSpaceOnUse">
<stop stop-color="#756BEB"/>
<stop offset="1" stop-color="#4F84EA"/>
</linearGradient>
<linearGradient id="paint2_linear_93_87" x1="37.1366" y1="104.207" x2="33.1441" y2="103.811" gradientUnits="userSpaceOnUse">
<stop stop-color="#756BEB"/>
<stop offset="1" stop-color="#4F84EA"/>
</linearGradient>
<linearGradient id="paint3_linear_93_87" x1="44.0354" y1="107.834" x2="87.7132" y2="113.146" gradientUnits="userSpaceOnUse">
<stop stop-color="#756BEB"/>
<stop offset="1" stop-color="#4F84EA"/>
</linearGradient>
<linearGradient id="paint4_linear_93_87" x1="29.7969" y1="37.9626" x2="58.4114" y2="39.3863" gradientUnits="userSpaceOnUse">
<stop stop-color="#756BEB"/>
<stop offset="1" stop-color="#4F84EA"/>
</linearGradient>
<linearGradient id="paint5_linear_93_87" x1="160.163" y1="31.8801" x2="195.7" y2="35.2497" gradientUnits="userSpaceOnUse">
<stop stop-color="#756BEB"/>
<stop offset="1" stop-color="#4F84EA"/>
</linearGradient>
<linearGradient id="paint6_linear_93_87" x1="178.405" y1="-58.9604" x2="178.405" y2="55.8326" gradientUnits="userSpaceOnUse">
<stop stop-color="#4F84EA"/>
<stop offset="0.750868" stop-color="#4F84EA" stop-opacity="0.25"/>
<stop offset="1" stop-color="#4F84EA" stop-opacity="0"/>
</linearGradient>
</defs>
</svg>
