<svg width="1440" height="95" viewBox="0 0 1440 95" fill="none" xmlns="http://www.w3.org/2000/svg">
<path d="M-14.9727 2.12129H673.241C674.403 2.12129 674.984 2.63399 674.984 3.65938V8.68379C674.984 9.74336 674.403 10.2731 673.241 10.2731H-8V45.239H665.551C666.884 45.239 667.55 45.7858 667.55 46.8796V51.5451C667.55 52.6047 666.884 53.1345 665.551 53.1345H-8V78.3591C-8 79.4528 -8.5127 79.9997 -9.53809 79.9997H-14.9727C-16.0664 79.9997 -16.6133 79.4528 -16.6133 78.3591V3.71065C-16.6133 2.65108 -16.0664 2.12129 -14.9727 2.12129Z" fill="white"/>
<path d="M708.002 2.94161L740.712 78.154C740.985 78.7009 741.002 79.1794 740.763 79.5896C740.524 79.9655 740.08 80.1535 739.43 80.1535H733.38C732.594 80.1535 732.03 79.6921 731.688 78.7692L727.536 68.823H684.213L680.111 78.718C679.77 79.6408 679.188 80.1022 678.368 80.1022H672.421C671.737 80.1022 671.276 79.9314 671.037 79.5896C670.797 79.2136 670.814 78.718 671.088 78.1027L703.798 2.89034C704.208 1.9333 704.84 1.45479 705.695 1.45479H706.105C706.959 1.45479 707.592 1.95039 708.002 2.94161ZM705.9 16.7331L687.34 61.2863H724.408L705.9 16.7331Z" fill="white"/>
<path d="M1503.5 46.8112C1503.5 52.0749 1502.56 57.0139 1500.68 61.6281C1498.8 66.3449 1496.27 70.4294 1493.09 73.8815C1489.85 77.4021 1486 80.2561 1481.56 82.4436C1477.01 84.6994 793.109 80.4782 788.085 80.9226V92.7658C788.085 93.8938 787.606 94.4577 786.649 94.4577H781.676C780.583 94.4577 780.036 93.8938 780.036 92.7658V80.8713C775.045 80.3928 770.312 79.0427 765.834 76.821C761.391 74.5993 757.562 71.7453 754.35 68.259C751.103 64.7043 748.573 60.6027 746.762 55.9543C744.95 51.2717 744.044 46.3669 744.044 41.2399C744.044 35.6687 745.087 30.4221 747.172 25.5002C749.291 20.5441 752.111 16.2888 755.631 12.7341C759.22 9.1794 763.493 6.34248 768.449 4.22334C773.371 2.13838 778.617 1.0959 784.188 1.0959C789.76 1.0959 1474.38 -0.584961 1479.3 1.5C1484.36 3.65332 1488.38 14.7849 1491.86 18.3054C1495.42 21.8259 1498.25 26.0813 1500.37 31.0715C1502.46 35.9934 1503.5 41.2399 1503.5 46.8112ZM1494.94 46.8112C1494.94 40.9665 1493.54 35.6516 1490.73 30.8664C1487.97 26.0129 1486.41 14.2686 1481.56 11.5C1476.7 8.69727 789.999 9.65791 784.188 9.65791C779.916 9.65791 775.814 10.4782 771.884 12.1189C767.953 13.7253 764.569 15.947 761.732 18.7839C758.896 21.6208 756.657 25.0046 755.016 28.9353C753.41 32.8317 752.606 36.9333 752.606 41.2399C752.606 47.0505 753.991 52.3313 756.759 57.0822C759.596 61.9016 763.407 65.6784 768.192 68.4128C773.08 71.1472 778.412 72.5144 784.188 72.5144C789.965 72.5144 1474.41 76.7185 1479.3 73.9841C1484.12 71.2497 1487.93 67.4729 1490.73 62.6535C1493.54 57.9025 1494.94 52.6218 1494.94 46.8112Z" fill="white"/>
</svg>
