<svg width="388" height="104" viewBox="0 0 388 104" fill="none" xmlns="http://www.w3.org/2000/svg">
<path d="M96.5893 18.5803C92.2567 18.5803 88.2155 20.8271 85.8844 24.5002L66.2153 55.7483H124.387C128.719 55.7483 132.76 53.4938 135.092 49.8284L154.761 18.5803H96.5893Z" fill="#B852FF"/>
<path d="M29.2927 71.7442L9.63135 103H67.795C72.1352 103 76.1764 100.746 78.5075 97.0801L98.1766 65.832H40.0053C35.6727 65.832 31.6315 68.0788 29.2927 71.7442Z" fill="#36CB61"/>
<path d="M68.8378 31.2481L88.5069 0H30.3816C26.049 0 22.0002 2.2468 19.6691 5.91222L0 37.1603H58.1713C62.5039 37.1603 66.545 34.9135 68.8378 31.2481Z" fill="#009ACB"/>
<path d="M176.258 3.02067C176.258 3.48942 176.524 3.73421 176.946 3.73421H186.435V33.5207C186.435 33.9894 186.675 34.2342 187.123 34.2342H189.456C189.899 34.2342 190.144 33.9894 190.144 33.5207V3.73421H199.696C200.092 3.73421 200.336 3.46859 200.336 3.02067V1.11442C200.336 0.687338 200.092 0.447754 199.696 0.447754H176.946C176.503 0.447754 176.258 0.687338 176.258 1.11442V3.02067Z" fill="white"/>
<path d="M226.397 23.8385C230.131 21.7031 232.486 17.8385 232.486 13.1094C232.486 5.75521 226.975 0.421875 219.376 0.421875H210.251C209.98 0.421875 209.116 0.421875 208.407 0.421875H207.803C207.361 0.421875 207.095 0.713542 207.095 1.11458V33.5208C207.095 33.9635 207.361 34.2344 207.803 34.2344H210.116C210.538 34.2344 210.803 33.9635 210.803 33.5208V25.5885H219.376C220.689 25.5885 221.934 25.4375 223.09 25.1458L227.199 33.6562C227.355 33.9896 227.689 34.2344 227.975 34.2344H230.663C231.152 34.2344 231.35 33.8333 231.131 33.3854L226.397 23.8385ZM219.157 22.4375H210.803V3.73438H219.157C224.621 3.73438 228.777 7.66667 228.777 13.0833C228.777 18.526 224.777 22.4375 219.157 22.4375Z" fill="white"/>
<path d="M267.626 33.3854L253.454 0.802083C253.298 0.421874 252.965 0.15625 252.631 0.15625H252.454C252.121 0.15625 251.788 0.401042 251.631 0.78125L237.46 33.3646C237.241 33.901 237.46 34.2344 238.038 34.2344H240.616C240.949 34.2344 241.236 33.9635 241.371 33.6302L243.147 29.3438H261.918L263.715 33.6563C263.85 33.9896 264.116 34.2552 264.449 34.2552H267.069C267.626 34.2552 267.85 33.875 267.626 33.3854ZM244.501 26.0781L252.543 6.77604L260.564 26.0781H244.501Z" fill="white"/>
<path d="M296.329 0.447754H274.845C274.335 0.447754 274.137 0.666503 274.137 1.13525V33.479C274.137 33.9634 274.335 34.1873 274.845 34.1873H277.204C277.626 34.1873 277.866 33.9426 277.866 33.479V22.5467H292.996C293.553 22.5467 293.861 22.2811 293.861 21.8592V19.8384C293.861 19.3696 293.553 19.1248 292.996 19.1248H277.866V3.979H296.329C296.793 3.979 297.085 3.73421 297.085 3.2863V1.11442C297.085 0.687338 296.793 0.447754 296.329 0.447754Z" fill="white"/>
<path d="M308.235 0.93221C308.235 0.578044 308.016 0.380127 307.657 0.380127H305.058C304.704 0.380127 304.527 0.578044 304.527 0.93221V33.677C304.527 34.0312 304.704 34.2343 305.058 34.2343H307.657C308.016 34.2343 308.235 34.0312 308.235 33.677V0.93221Z" fill="white"/>
<path d="M341.855 27.8802C339.496 29.901 336.366 30.9427 333.522 30.9427C325.861 30.9427 319.642 24.9479 319.642 17.349C319.642 9.75521 325.814 3.71354 333.522 3.71354C336.475 3.71354 339.496 4.6875 341.897 6.79688C342.366 7.19792 342.788 7.02083 342.944 6.79688L344.34 4.70833C344.496 4.48958 344.543 4.10938 344.053 3.71354C341.163 1.26563 337.121 0 333.522 0C323.725 0 315.928 7.64062 315.928 17.349C315.928 27.0365 323.725 34.6562 333.522 34.6562C337.209 34.6562 341.163 33.2969 343.965 30.9427C344.34 30.6771 344.475 30.2344 344.298 29.9896L342.918 27.8802C342.673 27.5885 342.209 27.5885 341.855 27.8802Z" fill="white"/>
<path d="M201.927 70.7977C199.568 72.8185 196.438 73.8602 193.594 73.8602C185.932 73.8602 179.714 67.8654 179.714 60.2664C179.714 52.6727 185.885 46.631 193.594 46.631C196.547 46.631 199.568 47.605 201.969 49.7144C202.438 50.1154 202.859 49.9383 203.016 49.7144L204.411 47.6258C204.568 47.4071 204.615 47.0269 204.125 46.631C201.234 44.1831 197.193 42.9175 193.594 42.9175C183.797 42.9175 176 50.5581 176 60.2664C176 69.9539 183.797 77.5737 193.594 77.5737C197.281 77.5737 201.234 76.2144 204.036 73.8602C204.411 73.5946 204.547 73.1519 204.37 72.9071L202.99 70.7977C202.745 70.506 202.281 70.506 201.927 70.7977Z" fill="white"/>
<path d="M239.021 76.3029L224.849 43.7196C224.693 43.3394 224.36 43.0737 224.026 43.0737H223.849C223.516 43.0737 223.183 43.3185 223.026 43.6987L208.855 76.2821C208.636 76.8185 208.855 77.1519 209.433 77.1519H212.011C212.344 77.1519 212.631 76.881 212.766 76.5477L214.542 72.2612H233.313L235.11 76.5737C235.245 76.9071 235.511 77.1727 235.844 77.1727H238.464C239.021 77.1727 239.245 76.7925 239.021 76.3029ZM215.896 68.9956L223.938 49.6935L231.959 68.9956H215.896Z" fill="white"/>
<path d="M254.573 43.3655H248.688C248.485 43.3655 247.995 43.3655 247.464 43.3655H246.24C245.818 43.3655 245.532 43.6519 245.532 44.053V76.4384C245.532 76.8603 245.797 77.1519 246.24 77.1519H248.553C248.974 77.1519 249.24 76.8603 249.24 76.4384V69.4853H254.573C263.011 69.4853 269.146 64.178 269.146 56.4696C269.146 48.8707 263.011 43.3655 254.573 43.3655ZM254.329 66.178H249.24V46.6728H254.329C260.771 46.6728 265.433 50.7821 265.433 56.4696C265.433 62.2457 260.771 66.178 254.329 66.178Z" fill="white"/>
<path d="M280.429 43.8499C280.429 43.4958 280.211 43.2979 279.851 43.2979H277.252C276.898 43.2979 276.721 43.4958 276.721 43.8499V76.5947C276.721 76.9489 276.898 77.152 277.252 77.152H279.851C280.211 77.152 280.429 76.9489 280.429 76.5947V43.8499Z" fill="white"/>
<path d="M287.19 45.9384C287.19 46.4071 287.456 46.6519 287.878 46.6519H297.367V76.4384C297.367 76.9072 297.607 77.1519 298.055 77.1519H300.388C300.831 77.1519 301.076 76.9072 301.076 76.4384V46.6519H310.628C311.024 46.6519 311.268 46.3863 311.268 45.9384V44.0321C311.268 43.6051 311.024 43.3655 310.628 43.3655H287.878C287.435 43.3655 287.19 43.6051 287.19 44.0321V45.9384Z" fill="white"/>
<path d="M344.615 76.3029L330.443 43.7196C330.287 43.3394 329.954 43.0737 329.62 43.0737H329.443C329.11 43.0737 328.777 43.3185 328.62 43.6987L314.449 76.2821C314.23 76.8185 314.449 77.1519 315.027 77.1519H317.605C317.938 77.1519 318.225 76.881 318.36 76.5477L320.136 72.2612H338.907L340.704 76.5737C340.839 76.9071 341.105 77.1727 341.438 77.1727H344.058C344.615 77.1727 344.839 76.7925 344.615 76.3029ZM321.49 68.9956L329.532 49.6935L337.553 68.9956H321.49Z" fill="white"/>
<path d="M371.652 73.7979H354.834V43.8499C354.834 43.4958 354.636 43.2979 354.282 43.2979H351.704C351.324 43.2979 351.126 43.4958 351.126 43.8499V76.527C351.126 76.9072 351.324 77.1051 351.704 77.1051H371.626C372.006 77.1051 372.204 76.9072 372.204 76.527V74.3708C372.204 73.9958 372.006 73.7979 371.652 73.7979Z" fill="white"/>
<path d="M177.167 96.1041V98.9583H181.271V99.9583H177.167V103.271H176V95.0833H181.771V96.1041H177.167Z" fill="#36CB61"/>
<path d="M186.339 95.0833H187.506V103.271H186.339V95.0833Z" fill="#36CB61"/>
<path d="M199.923 95.0833V103.271H198.964L194.048 97.1666V103.271H192.881V95.0833H193.839L198.756 101.187V95.0833H199.923Z" fill="#36CB61"/>
<path d="M210.496 101.229H206.142L205.246 103.271H204.038L207.746 95.0833H208.913L212.621 103.271H211.392L210.496 101.229ZM210.079 100.292L208.329 96.2916L206.558 100.292H210.079Z" fill="#36CB61"/>
<path d="M223.801 95.0833V103.271H222.843L217.926 97.1666V103.271H216.76V95.0833H217.718L222.635 101.187V95.0833H223.801Z" fill="#36CB61"/>
<path d="M232.812 103.354C232.005 103.354 231.27 103.177 230.604 102.812C229.947 102.453 229.437 101.958 229.062 101.333C228.687 100.698 228.5 99.9792 228.5 99.1875C228.5 98.3854 228.687 97.6667 229.062 97.0417C229.437 96.4062 229.947 95.9062 230.604 95.5417C231.27 95.1823 232.01 95 232.833 95C233.468 95 234.052 95.1146 234.583 95.3333C235.109 95.5417 235.562 95.8542 235.937 96.2708L235.187 97C234.572 96.3646 233.802 96.0417 232.875 96.0417C232.276 96.0417 231.729 96.1823 231.229 96.4583C230.739 96.724 230.359 97.099 230.083 97.5833C229.802 98.0573 229.666 98.5938 229.666 99.1875C229.666 99.7708 229.802 100.307 230.083 100.792C230.359 101.266 230.739 101.641 231.229 101.917C231.729 102.198 232.276 102.333 232.875 102.333C233.791 102.333 234.562 102 235.187 101.333L235.937 102.083C235.562 102.5 235.109 102.823 234.583 103.042C234.052 103.25 233.463 103.354 232.812 103.354Z" fill="#36CB61"/>
<path d="M240.533 95.0833H241.7V103.271H240.533V95.0833Z" fill="#36CB61"/>
<path d="M252.284 101.229H247.929L247.034 103.271H245.825L249.534 95.0833H250.7L254.409 103.271H253.179L252.284 101.229ZM251.867 100.292L250.117 96.2916L248.346 100.292H251.867Z" fill="#36CB61"/>
<path d="M258.547 95.0833H259.714V102.25H264.151V103.271H258.547V95.0833Z" fill="#36CB61"/>
<path d="M274.47 95.0833H275.637V103.271H274.47V95.0833Z" fill="#36CB61"/>
<path d="M288.054 95.0833V103.271H287.096L282.179 97.1666V103.271H281.012V95.0833H281.971L286.887 101.187V95.0833H288.054Z" fill="#36CB61"/>
<path d="M300.523 95.0833L296.94 103.271H295.773L292.169 95.0833H293.44L296.377 101.812L299.356 95.0833H300.523Z" fill="#36CB61"/>
<path d="M310.595 102.25V103.271H304.657V95.0833H310.428V96.1041H305.824V98.6249H309.928V99.6041H305.824V102.25H310.595Z" fill="#36CB61"/>
<path d="M317.78 103.354C317.165 103.354 316.577 103.266 316.009 103.083C315.436 102.891 314.988 102.641 314.655 102.333L315.092 101.417C315.394 101.708 315.79 101.948 316.28 102.125C316.764 102.292 317.264 102.375 317.78 102.375C318.457 102.375 318.967 102.266 319.301 102.042C319.634 101.807 319.801 101.495 319.801 101.104C319.801 100.828 319.707 100.604 319.53 100.438C319.347 100.26 319.118 100.12 318.842 100.021C318.577 99.9271 318.202 99.8229 317.717 99.7083C317.103 99.5573 316.603 99.4115 316.217 99.2708C315.842 99.1198 315.519 98.8906 315.259 98.5833C314.993 98.2812 314.863 97.8646 314.863 97.3333C314.863 96.9062 314.972 96.5156 315.196 96.1667C315.431 95.8073 315.78 95.5208 316.238 95.3125C316.707 95.1042 317.29 95 317.988 95C318.472 95 318.946 95.0625 319.405 95.1875C319.874 95.3125 320.28 95.4948 320.613 95.7292L320.238 96.6458C319.889 96.4375 319.519 96.2812 319.134 96.1667C318.743 96.0417 318.363 95.9792 317.988 95.9792C317.321 95.9792 316.821 96.1042 316.488 96.3542C316.165 96.5938 316.009 96.9062 316.009 97.2917C316.009 97.5729 316.097 97.8021 316.28 97.9792C316.457 98.1458 316.686 98.2812 316.967 98.375C317.243 98.474 317.618 98.5781 318.092 98.6875C318.717 98.8438 319.217 98.9948 319.592 99.1458C319.967 99.2865 320.285 99.5104 320.551 99.8125C320.811 100.12 320.946 100.531 320.946 101.042C320.946 101.474 320.827 101.87 320.592 102.229C320.368 102.578 320.014 102.854 319.53 103.062C319.056 103.26 318.472 103.354 317.78 103.354Z" fill="#36CB61"/>
<path d="M327.205 96.1041H324.393V95.0833H331.163V96.1041H328.351V103.271H327.205V96.1041Z" fill="#36CB61"/>
<path d="M342.941 103.271L342.921 97.3124L339.983 102.271H339.441L336.483 97.3541V103.271H335.358V95.0833H336.316L339.733 100.833L343.087 95.0833H344.046L344.066 103.271H342.941Z" fill="#36CB61"/>
<path d="M355.373 102.25V103.271H349.435V95.0833H355.206V96.1041H350.602V98.6249H354.706V99.6041H350.602V102.25H355.373Z" fill="#36CB61"/>
<path d="M367.225 95.0833V103.271H366.266L361.35 97.1666V103.271H360.183V95.0833H361.141L366.058 101.187V95.0833H367.225Z" fill="#36CB61"/>
<path d="M374.215 96.1041H371.402V95.0833H378.173V96.1041H375.36V103.271H374.215V96.1041Z" fill="#36CB61"/>
<path d="M384.743 103.354C384.128 103.354 383.54 103.266 382.972 103.083C382.399 102.891 381.951 102.641 381.618 102.333L382.055 101.417C382.357 101.708 382.753 101.948 383.243 102.125C383.727 102.292 384.227 102.375 384.743 102.375C385.42 102.375 385.93 102.266 386.264 102.042C386.597 101.807 386.764 101.495 386.764 101.104C386.764 100.828 386.67 100.604 386.493 100.438C386.31 100.26 386.081 100.12 385.805 100.021C385.54 99.9271 385.165 99.8229 384.68 99.7083C384.066 99.5573 383.566 99.4115 383.18 99.2708C382.805 99.1198 382.482 98.8906 382.222 98.5833C381.956 98.2812 381.826 97.8646 381.826 97.3333C381.826 96.9062 381.935 96.5156 382.159 96.1667C382.394 95.8073 382.743 95.5208 383.201 95.3125C383.67 95.1042 384.253 95 384.951 95C385.435 95 385.909 95.0625 386.368 95.1875C386.836 95.3125 387.243 95.4948 387.576 95.7292L387.201 96.6458C386.852 96.4375 386.482 96.2812 386.097 96.1667C385.706 96.0417 385.326 95.9792 384.951 95.9792C384.284 95.9792 383.784 96.1042 383.451 96.3542C383.128 96.5938 382.972 96.9062 382.972 97.2917C382.972 97.5729 383.06 97.8021 383.243 97.9792C383.42 98.1458 383.649 98.2812 383.93 98.375C384.206 98.474 384.581 98.5781 385.055 98.6875C385.68 98.8438 386.18 98.9948 386.555 99.1458C386.93 99.2865 387.248 99.5104 387.514 99.8125C387.774 100.12 387.909 100.531 387.909 101.042C387.909 101.474 387.79 101.87 387.555 102.229C387.331 102.578 386.977 102.854 386.493 103.062C386.019 103.26 385.435 103.354 384.743 103.354Z" fill="#36CB61"/>
</svg>
