<svg width="1440" height="63" viewBox="0 0 1440 63" fill="none" xmlns="http://www.w3.org/2000/svg">
<path d="M572.828 47.9072H577.989C578.605 47.9072 578.912 48.2034 578.912 48.7959V61.4765C578.912 61.7728 578.833 62.012 578.673 62.1943C578.514 62.3766 578.331 62.4678 578.126 62.4678H574.469C574.195 62.4678 573.968 62.3652 573.785 62.1601C573.626 61.9778 573.546 61.75 573.546 61.4765V53.2051L-19.0083 53.3574V61.6289C-19.0083 61.9023 -19.0994 62.1302 -19.2817 62.3125C-19.4412 62.5176 -19.6577 62.6201 -19.9312 62.6201H-23.5884C-23.7935 62.6201 -23.9757 62.529 -24.1353 62.3467C-24.2948 62.1644 -24.3745 61.9251 -24.3745 61.6289V48.9482C-24.3745 48.3558 -24.0669 48.0596 -23.4517 48.0596H-19.3159C-17.5614 45.2112 -15.9093 40.654 -14.3599 34.3877C-12.8332 28.1898 -11.7964 21.7754 -11.2495 15.1445L-10.1558 2.36131C-10.1102 1.74608 -9.81396 1.43846 -9.26709 1.43846L571.871 1.28612C572.145 1.28612 572.372 1.37727 572.555 1.55956C572.737 1.71906 572.828 1.93553 572.828 2.20897V47.9072ZM-13.061 48.0596L567.12 47.9072V6.41307L-4.85791 6.56542L-5.57568 15.5547C-6.0542 22.0488 -6.99984 28.3721 -8.4126 34.5244C-9.80257 40.54 -11.3521 45.0517 -13.061 48.0596Z" fill="white"/>
<path d="M596.447 2.41405C596.469 2.04947 596.618 1.73046 596.891 1.45702C597.164 1.18358 597.483 1.04686 597.848 1.04686L626.901 0.978502C627.721 0.978502 628.131 1.37727 628.131 2.17479V51.9062C628.131 52.6354 627.812 53 627.174 53H623.449C622.765 53 622.423 52.624 622.423 51.8721V6.10546L601.608 6.17381C601.494 7.79165 601.3 10.3209 601.027 13.7617C600.799 16.6328 600.571 19.1051 600.343 21.1787C600.07 23.9359 599.762 26.3626 599.42 28.459C599.147 30.2135 598.725 32.4238 598.156 35.0898C597.654 37.3913 597.107 39.3965 596.515 41.1055C595.945 42.7461 595.228 44.3981 594.362 46.0615C591.901 50.7327 588.483 53.1481 584.108 53.3076C583.378 53.3076 582.854 53.2734 582.535 53.2051C582.194 53.1595 581.909 53.0456 581.681 52.8633C581.476 52.6582 581.373 52.4303 581.373 52.1797V48.7959C581.373 48.1806 581.727 47.873 582.433 47.873H583.424C587.275 47.7363 590.192 44.2272 592.174 37.3457C593.405 33.2213 594.362 28.0032 595.045 21.6914C595.387 18.7064 595.672 15.596 595.9 12.3603C596.059 9.8994 596.242 6.58397 596.447 2.41405Z" fill="white"/>
<path d="M678.41 1.04686C679.139 1.04686 679.503 1.40005 679.503 2.10643V51.9746C679.503 52.7038 679.139 53.0683 678.41 53.0683H674.855C674.149 53.0683 673.795 52.7038 673.795 51.9746V39.7724H660.602C658.665 39.7724 656.763 39.5446 654.894 39.0889L648.571 52.1797C648.297 52.7721 647.899 53.0683 647.375 53.0683H643.239C642.874 53.0683 642.612 52.943 642.453 52.6924C642.316 52.4189 642.339 52.1113 642.521 51.7695L649.801 37.0723C646.885 35.3861 644.595 33.1188 642.931 30.2705C641.268 27.3766 640.436 24.1409 640.436 20.5635C640.368 16.9176 641.211 13.5908 642.965 10.583C644.72 7.57518 647.147 5.22818 650.246 3.54198C653.367 1.83299 656.82 1.00129 660.602 1.04686H678.41ZM660.944 34.9189H673.795V6.13964H660.944C656.751 6.13964 653.231 7.50682 650.382 10.2412C647.557 12.93 646.144 16.3594 646.144 20.5293C646.144 24.7448 647.523 28.1969 650.28 30.8857C653.037 33.5745 656.592 34.9189 660.944 34.9189Z" fill="white"/>
<path d="M732.79 21.7939L755.519 51.7012C755.747 51.9974 755.793 52.305 755.656 52.624C755.542 52.9202 755.291 53.0683 754.904 53.0683H750.358C749.925 53.0683 749.538 52.8633 749.196 52.4531L728.209 24.8359H720.348V52.2139C720.348 52.7835 720.052 53.0683 719.459 53.0683H715.46C714.914 53.0683 714.64 52.7835 714.64 52.2139V1.83299C714.64 1.26333 714.914 0.978502 715.46 0.978502H719.459C720.052 0.978502 720.348 1.26333 720.348 1.83299V19.709H727.423L741.266 1.79881C741.608 1.29751 742.109 1.04686 742.77 1.04686H747.419C747.829 1.04686 748.091 1.19497 748.205 1.4912C748.319 1.78742 748.262 2.09504 748.034 2.41405L732.79 21.7939Z" fill="white"/>
<path d="M759.552 27.1601C759.552 23.4459 760.247 19.9482 761.637 16.667C763.05 13.3629 764.93 10.526 767.277 8.15624C769.669 5.78645 772.518 3.89517 775.822 2.48241C779.103 1.09243 782.601 0.397448 786.315 0.397448C790.029 0.397448 793.527 1.09243 796.808 2.48241C800.181 3.91796 803.029 5.80923 805.353 8.15624C807.723 10.5032 809.614 13.3402 811.027 16.667C812.417 19.9482 813.112 23.4459 813.112 27.1601C813.112 30.8515 812.417 34.3379 811.027 37.6191C809.637 40.9004 807.746 43.7145 805.353 46.0615C803.052 48.3629 800.203 50.2314 796.808 51.667C793.504 53.0342 790.006 53.7178 786.315 53.7178C782.646 53.7178 779.149 53.0342 775.822 51.667C772.495 50.2542 769.647 48.3857 767.277 46.0615C764.907 43.6917 763.027 40.8776 761.637 37.6191C760.247 34.3379 759.552 30.8515 759.552 27.1601ZM765.26 27.1601C765.26 31.0338 766.183 34.5543 768.029 37.7217C769.92 40.9346 772.461 43.4525 775.651 45.2754C778.909 47.0983 782.464 48.0098 786.315 48.0098C790.166 48.0098 793.721 47.0983 796.979 45.2754C800.192 43.4525 802.733 40.9346 804.601 37.7217C806.47 34.5543 807.404 31.0338 807.404 27.1601C807.404 23.2637 806.47 19.7204 804.601 16.5303C802.755 13.2946 800.215 10.7539 796.979 8.90819C793.743 7.0397 790.189 6.10546 786.315 6.10546C783.467 6.10546 780.732 6.65233 778.112 7.74608C775.491 8.81704 773.236 10.2982 771.344 12.1894C769.453 14.0807 767.961 16.3366 766.867 18.957C765.796 21.5547 765.26 24.289 765.26 27.1601Z" fill="white"/>
<path d="M825.041 1.08104H853.683C853.957 1.08104 854.173 1.16079 854.333 1.3203C854.515 1.4798 854.606 1.68488 854.606 1.93553V5.25096C854.606 5.50161 854.515 5.71809 854.333 5.90038C854.173 6.05988 853.957 6.13964 853.683 6.13964H829.86V52.1113C829.86 52.6582 829.655 52.9544 829.245 53H825.041C824.448 53 824.152 52.7038 824.152 52.1113V1.93553C824.152 1.36587 824.448 1.08104 825.041 1.08104Z" fill="white"/>
<path d="M856.281 27.1601C856.281 23.4459 856.976 19.9482 858.366 16.667C859.779 13.3629 861.659 10.526 864.006 8.15624C866.398 5.78645 869.247 3.89517 872.551 2.48241C875.832 1.09243 879.33 0.397448 883.044 0.397448C886.758 0.397448 1447.91 -0.193373 1451.2 1.1966C1454.57 2.63215 1457.42 4.52342 1459.74 6.87043C1462.11 9.21743 1464 12.0543 1465.42 15.3812C1466.81 18.6624 1467.5 24.1601 1467.5 27.8743C1467.5 31.5657 1466.81 36.0521 1465.42 39.3333C1464.03 42.6146 1462.13 45.4287 1459.74 47.7757C1457.44 50.0771 1454.59 51.9456 1451.2 53.3812C1447.89 54.7484 886.735 53.7178 883.044 53.7178C879.375 53.7178 875.877 53.0342 872.551 51.667C869.224 50.2542 866.375 48.3857 864.006 46.0615C861.636 43.6917 859.756 40.8776 858.366 37.6191C856.976 34.3379 856.281 30.8515 856.281 27.1601ZM861.989 27.1601C861.989 31.0338 862.912 34.5543 864.758 37.7217C866.649 40.9346 869.19 43.4525 872.38 45.2754C875.638 47.0983 879.193 48.0098 883.044 48.0098C886.895 48.0098 1448.11 48.8125 1451.37 46.9896C1454.58 45.1666 1457.12 42.6487 1458.99 39.4359C1460.86 36.2685 1461.79 29.748 1461.79 25.8743C1461.79 21.9779 1460.86 18.4346 1458.99 15.2445C1457.14 12.0088 1454.6 9.46809 1451.37 7.62238C1448.13 5.75389 886.917 6.10546 883.044 6.10546C880.195 6.10546 877.461 6.65233 874.841 7.74608C872.22 8.81704 869.964 10.2982 868.073 12.1894C866.182 14.0807 864.689 16.3366 863.595 18.957C862.524 21.5547 861.989 24.289 861.989 27.1601Z" fill="white"/>
</svg>
