<svg width="2201" height="399" viewBox="0 0 2201 399" fill="none" xmlns="http://www.w3.org/2000/svg">
<path fill-rule="evenodd" clip-rule="evenodd" d="M1825.58 12.6966C1801.31 8.17293 1779.6 6.90095 1762.42 10.8524C1741.18 15.7396 1723.34 25.5188 1706.21 37.9197C1694.69 46.2537 1683.71 55.5878 1672.22 65.3611C1666.45 70.2652 1660.55 75.2799 1654.39 80.3344C1617.72 110.413 1573.6 140.198 1500.36 147.839C1493.53 148.553 1486.54 152.013 1479.3 158.195C1472.08 164.365 1464.93 172.97 1457.79 183.367C1443.87 203.664 1430.52 230.033 1417.02 256.694L1415.99 258.732C1402.23 285.918 1388.28 313.273 1373.6 333.816C1366.25 344.094 1358.57 352.893 1350.44 359.158C1342.29 365.433 1333.36 369.414 1323.64 369.414C1308.41 369.414 1287.09 363.276 1262.36 354.331C1242.35 347.088 1219.57 337.79 1195.26 327.859C1189.31 325.43 1183.26 322.962 1177.14 320.477C1101.36 289.707 1025.96 296.185 948.612 315.571C911.456 324.884 874.01 337.133 835.907 349.597C834.322 350.115 832.737 350.633 831.151 351.152C791.473 364.126 751.096 377.2 709.966 387.136C535.933 429.177 208.05 349.494 3.5742 303.663C1.0501 303.097 -0.487328 300.794 0.140262 298.519C0.767852 296.243 3.32279 294.857 5.8469 295.423C210.673 341.333 536.201 420.323 707.528 378.935C748.21 369.107 788.224 356.156 827.94 343.17C829.566 342.638 831.193 342.106 832.819 341.574C870.819 329.143 908.574 316.793 946.089 307.391C1024.39 287.765 1102.34 280.793 1181.01 312.736C1187.18 315.243 1193.26 317.726 1199.24 320.165C1223.54 330.086 1246.07 339.284 1265.88 346.451C1290.73 355.451 1310.48 360.922 1323.64 360.922C1330.34 360.922 1337.18 358.194 1344.32 352.702C1351.47 347.2 1358.57 339.173 1365.69 329.217C1379.92 309.293 1393.58 282.549 1407.42 255.207L1408.6 252.883C1421.99 226.454 1435.54 199.663 1449.78 178.902C1457.12 168.207 1464.76 158.914 1472.83 152.03C1480.88 145.157 1489.68 140.407 1499.29 139.404C1569.72 132.054 1612.05 103.578 1648.05 74.0541C1653.92 69.2359 1659.67 64.3431 1665.38 59.4939C1677.05 49.5749 1688.51 39.8388 1700.31 31.298C1718.05 18.4669 1737.07 7.91904 1760.09 2.62517C1779.34 -1.80264 1802.73 -0.232946 1827.49 4.38162C1852.33 9.01186 1879.05 16.8097 1905.19 25.2315C1918.16 29.4172 1931.04 33.7708 1943.49 37.9789L1943.75 38.0658C1956.29 42.3056 1968.38 46.3924 1979.77 50.034C2002.68 57.3583 2022.27 62.7164 2036.56 63.9586C2069.4 66.8129 2091.58 66.1834 2107.35 64.2136C2123.05 62.2536 2132.55 58.9515 2140.15 56.2332L2141.08 55.9002C2148.29 53.3172 2154.77 50.997 2163.37 51.7158C2172.11 52.4465 2182.58 56.2447 2198.63 64.497C2200.88 65.659 2201.67 68.2519 2200.38 70.2884C2199.1 72.3249 2196.22 73.0337 2193.95 71.8717C2178.07 63.6982 2169.1 60.7216 2162.5 60.1704C2156.17 59.6417 2151.62 61.2705 2143.78 64.0677L2143.63 64.1265C2135.72 66.9528 2125.42 70.5297 2108.64 72.6241C2091.95 74.7086 2069.01 75.3091 2035.66 72.4103C2020.07 71.0551 1999.47 65.3388 1976.62 58.0365C1965.14 54.3648 1952.96 50.2502 1940.44 46.016L1940.21 45.9369C1927.74 41.7229 1914.93 37.3893 1902.01 33.2265C1875.99 24.8415 1849.77 17.2046 1825.58 12.6966Z" fill="url(#paint0_linear_1344_80)"/>
<defs>
<linearGradient id="paint0_linear_1344_80" x1="1568.86" y1="18.7352" x2="654.209" y2="448.226" gradientUnits="userSpaceOnUse">
<stop stop-color="#8B8B8B"/>
<stop offset="1" stop-color="#D3D3D3"/>
</linearGradient>
</defs>
</svg>
