<svg width="1440" height="436" viewBox="0 0 1440 436" fill="none" xmlns="http://www.w3.org/2000/svg">
<path fill-rule="evenodd" clip-rule="evenodd" d="M1463.58 49.6966C1439.31 45.1729 1417.6 43.9009 1400.42 47.8524C1379.18 52.7396 1361.34 62.5188 1344.21 74.9197C1332.69 83.2537 1321.71 92.5878 1310.22 102.361C1304.45 107.265 1298.55 112.28 1292.39 117.334C1255.72 147.413 1211.6 177.198 1138.36 184.839C1131.53 185.553 1124.54 189.013 1117.3 195.195C1110.08 201.365 1102.93 209.97 1095.79 220.367C1081.87 240.664 1068.52 267.033 1055.02 293.694L1053.99 295.732C1040.23 322.918 1026.28 350.273 1011.6 370.816C1004.25 381.094 996.571 389.893 988.436 396.158C980.29 402.433 971.358 406.414 961.638 406.414C946.411 406.414 925.088 400.276 900.363 391.331C880.348 384.088 857.573 374.79 833.258 364.859C827.306 362.43 821.255 359.962 815.138 357.477C739.36 326.707 663.959 333.185 586.612 352.571C549.456 361.884 512.01 374.133 473.907 386.597C472.322 387.115 470.737 387.633 469.151 388.152C429.473 401.126 389.096 414.2 347.966 424.136C173.933 466.177 -153.95 386.494 -358.426 340.663C-360.95 340.097 -362.487 337.794 -361.86 335.519C-361.232 333.243 -358.677 331.857 -356.153 332.423C-151.327 378.333 174.201 457.323 345.528 415.935C386.21 406.107 426.224 393.156 465.94 380.17C467.566 379.638 469.193 379.106 470.819 378.574C508.819 366.143 546.574 353.793 584.089 344.391C662.389 324.765 740.339 317.793 819.005 349.736C825.178 352.243 831.263 354.726 837.236 357.165C861.54 367.086 884.071 376.284 903.876 383.451C928.734 392.451 948.483 397.922 961.638 397.922C968.343 397.922 975.181 395.194 982.319 389.702C989.467 384.2 996.571 376.173 1003.69 366.217C1017.92 346.293 1031.58 319.549 1045.42 292.207L1046.6 289.883C1059.99 263.454 1073.54 236.663 1087.78 215.902C1095.12 205.207 1102.76 195.914 1110.83 189.03C1118.88 182.157 1127.68 177.407 1137.29 176.404C1207.72 169.054 1250.05 140.578 1286.05 111.054C1291.92 106.236 1297.67 101.343 1303.38 96.4939C1315.05 86.5749 1326.51 76.8388 1338.31 68.298C1356.05 55.4669 1375.07 44.919 1398.09 39.6252C1417.34 35.1974 1440.73 36.7671 1465.49 41.3816C1490.33 46.0119 1517.05 53.8097 1543.19 62.2315C1556.16 66.4172 1569.04 70.7708 1581.49 74.9789L1581.75 75.0658C1594.29 79.3056 1606.38 83.3924 1617.77 87.034C1640.68 94.3583 1660.27 99.7164 1674.56 100.959C1707.4 103.813 1729.58 103.183 1745.35 101.214C1761.05 99.2536 1770.55 95.9515 1778.15 93.2332L1779.08 92.9002C1786.29 90.3172 1792.77 87.997 1801.37 88.7158C1810.11 89.4465 1820.58 93.2447 1836.63 101.497C1838.88 102.659 1839.67 105.252 1838.38 107.288C1837.1 109.325 1834.22 110.034 1831.95 108.872C1816.07 100.698 1807.1 97.7216 1800.5 97.1704C1794.17 96.6417 1789.62 98.2705 1781.78 101.068L1781.63 101.126C1773.72 103.953 1763.42 107.53 1746.64 109.624C1729.95 111.709 1707.01 112.309 1673.66 109.41C1658.07 108.055 1637.47 102.339 1614.62 95.0365C1603.14 91.3648 1590.96 87.2502 1578.44 83.016L1578.21 82.9369C1565.74 78.7229 1552.93 74.3893 1540.01 70.2265C1513.99 61.8415 1487.77 54.2046 1463.58 49.6966Z" fill="url(#paint0_linear_2008_78)"/>
<circle cx="474.5" cy="380.5" r="15" fill="#B852FF" stroke="#404040" stroke-width="5"/>
<path fill-rule="evenodd" clip-rule="evenodd" d="M435 305C426.716 305 420 311.716 420 320V327C420 335.284 426.716 342 435 342H468.014L475 353L481.986 342H515C523.284 342 530 335.284 530 327V320C530 311.716 523.284 305 515 305H435Z" fill="white"/>
<path d="M432.608 327.516V319.884H433.742V327.516H432.608ZM429.26 324.24V323.178H437.09V324.24H429.26ZM443.185 332.16V315.24H444.085V332.16H443.185ZM443.563 330.108C442.627 330.108 441.727 329.958 440.863 329.658C440.011 329.346 439.351 328.95 438.883 328.47L439.405 327.444C439.849 327.876 440.443 328.242 441.187 328.542C441.943 328.83 442.735 328.974 443.563 328.974C444.355 328.974 444.997 328.878 445.489 328.686C445.993 328.482 446.359 328.212 446.587 327.876C446.827 327.54 446.947 327.168 446.947 326.76C446.947 326.268 446.803 325.872 446.515 325.572C446.239 325.272 445.873 325.038 445.417 324.87C444.961 324.69 444.457 324.534 443.905 324.402C443.353 324.27 442.801 324.132 442.249 323.988C441.697 323.832 441.187 323.628 440.719 323.376C440.263 323.124 439.891 322.794 439.603 322.386C439.327 321.966 439.189 321.42 439.189 320.748C439.189 320.124 439.351 319.554 439.675 319.038C440.011 318.51 440.521 318.09 441.205 317.778C441.889 317.454 442.765 317.292 443.833 317.292C444.541 317.292 445.243 317.394 445.939 317.598C446.635 317.79 447.235 318.06 447.739 318.408L447.289 319.47C446.749 319.11 446.173 318.846 445.561 318.678C444.961 318.51 444.379 318.426 443.815 318.426C443.059 318.426 442.435 318.528 441.943 318.732C441.451 318.936 441.085 319.212 440.845 319.56C440.617 319.896 440.503 320.28 440.503 320.712C440.503 321.204 440.641 321.6 440.917 321.9C441.205 322.2 441.577 322.434 442.033 322.602C442.501 322.77 443.011 322.92 443.563 323.052C444.115 323.184 444.661 323.328 445.201 323.484C445.753 323.64 446.257 323.844 446.713 324.096C447.181 324.336 447.553 324.66 447.829 325.068C448.117 325.476 448.261 326.01 448.261 326.67C448.261 327.282 448.093 327.852 447.757 328.38C447.421 328.896 446.905 329.316 446.209 329.64C445.525 329.952 444.643 330.108 443.563 330.108ZM449.813 330V329.082L455.051 323.952C455.531 323.484 455.891 323.076 456.131 322.728C456.371 322.368 456.533 322.032 456.617 321.72C456.701 321.408 456.743 321.114 456.743 320.838C456.743 320.106 456.491 319.53 455.987 319.11C455.495 318.69 454.763 318.48 453.791 318.48C453.047 318.48 452.387 318.594 451.811 318.822C451.247 319.05 450.761 319.404 450.353 319.884L449.435 319.092C449.927 318.516 450.557 318.072 451.325 317.76C452.093 317.448 452.951 317.292 453.899 317.292C454.751 317.292 455.489 317.43 456.113 317.706C456.737 317.97 457.217 318.36 457.553 318.876C457.901 319.392 458.075 319.998 458.075 320.694C458.075 321.102 458.015 321.504 457.895 321.9C457.787 322.296 457.583 322.716 457.283 323.16C456.995 323.592 456.569 324.084 456.005 324.636L451.199 329.352L450.839 328.848H458.651V330H449.813ZM464.04 330.108C463.128 330.108 462.264 329.964 461.448 329.676C460.644 329.376 459.996 328.98 459.504 328.488L460.134 327.462C460.542 327.882 461.088 328.23 461.772 328.506C462.468 328.782 463.224 328.92 464.04 328.92C465.084 328.92 465.882 328.692 466.434 328.236C466.998 327.78 467.28 327.168 467.28 326.4C467.28 325.632 467.004 325.02 466.452 324.564C465.912 324.108 465.054 323.88 463.878 323.88H462.978V322.926L466.866 318.048L467.046 318.552H460.026V317.4H468.126V318.318L464.238 323.196L463.608 322.782H464.094C465.606 322.782 466.734 323.118 467.478 323.79C468.234 324.462 468.612 325.326 468.612 326.382C468.612 327.09 468.444 327.726 468.108 328.29C467.772 328.854 467.262 329.298 466.578 329.622C465.906 329.946 465.06 330.108 464.04 330.108ZM470.222 326.688V325.752L476.9 317.4H478.34L471.716 325.752L471.014 325.536H481.148V326.688H470.222ZM477.332 330V326.688L477.368 325.536V322.62H478.628V330H477.332ZM490.073 333.492C489.413 332.4 488.897 331.14 488.525 329.712C488.165 328.272 487.985 326.724 487.985 325.068C487.985 323.412 488.165 321.864 488.525 320.424C488.897 318.972 489.413 317.712 490.073 316.644H491.297C490.589 317.88 490.067 319.194 489.731 320.586C489.407 321.966 489.245 323.46 489.245 325.068C489.245 326.676 489.407 328.176 489.731 329.568C490.067 330.948 490.589 332.256 491.297 333.492H490.073ZM496.735 330.108C495.823 330.108 494.959 329.964 494.143 329.676C493.339 329.376 492.691 328.98 492.199 328.488L492.829 327.462C493.237 327.882 493.783 328.23 494.467 328.506C495.163 328.782 495.919 328.92 496.735 328.92C497.779 328.92 498.577 328.692 499.129 328.236C499.693 327.78 499.975 327.168 499.975 326.4C499.975 325.632 499.699 325.02 499.147 324.564C498.607 324.108 497.749 323.88 496.573 323.88H495.673V322.926L499.561 318.048L499.741 318.552H492.721V317.4H500.821V318.318L496.933 323.196L496.303 322.782H496.789C498.301 322.782 499.429 323.118 500.173 323.79C500.929 324.462 501.307 325.326 501.307 326.382C501.307 327.09 501.139 327.726 500.803 328.29C500.467 328.854 499.957 329.298 499.273 329.622C498.601 329.946 497.755 330.108 496.735 330.108ZM504.649 330L513.253 317.4H514.315L505.711 330H504.649ZM505.621 324.15C505.057 324.15 504.559 324.012 504.127 323.736C503.695 323.448 503.359 323.046 503.119 322.53C502.891 322.014 502.777 321.414 502.777 320.73C502.777 320.046 502.891 319.446 503.119 318.93C503.359 318.414 503.695 318.018 504.127 317.742C504.559 317.454 505.057 317.31 505.621 317.31C506.185 317.31 506.677 317.454 507.097 317.742C507.529 318.018 507.865 318.414 508.105 318.93C508.345 319.446 508.465 320.046 508.465 320.73C508.465 321.414 508.345 322.014 508.105 322.53C507.865 323.046 507.529 323.448 507.097 323.736C506.677 324.012 506.185 324.15 505.621 324.15ZM505.621 323.34C506.209 323.34 506.677 323.112 507.025 322.656C507.385 322.188 507.565 321.546 507.565 320.73C507.565 319.914 507.385 319.278 507.025 318.822C506.677 318.354 506.209 318.12 505.621 318.12C505.021 318.12 504.547 318.354 504.199 318.822C503.851 319.278 503.677 319.914 503.677 320.73C503.677 321.546 503.851 322.188 504.199 322.656C504.547 323.112 505.021 323.34 505.621 323.34ZM513.343 330.09C512.791 330.09 512.299 329.952 511.867 329.676C511.435 329.388 511.099 328.986 510.859 328.47C510.619 327.954 510.499 327.354 510.499 326.67C510.499 325.986 510.619 325.386 510.859 324.87C511.099 324.354 511.435 323.958 511.867 323.682C512.299 323.394 512.791 323.25 513.343 323.25C513.919 323.25 514.417 323.394 514.837 323.682C515.269 323.958 515.599 324.354 515.827 324.87C516.067 325.386 516.187 325.986 516.187 326.67C516.187 327.354 516.067 327.954 515.827 328.47C515.599 328.986 515.269 329.388 514.837 329.676C514.417 329.952 513.919 330.09 513.343 330.09ZM513.343 329.28C513.931 329.28 514.399 329.052 514.747 328.596C515.107 328.128 515.287 327.486 515.287 326.67C515.287 325.854 515.107 325.218 514.747 324.762C514.399 324.294 513.931 324.06 513.343 324.06C512.755 324.06 512.281 324.294 511.921 324.762C511.573 325.218 511.399 325.854 511.399 326.67C511.399 327.486 511.573 328.128 511.921 328.596C512.281 329.052 512.755 329.28 513.343 329.28ZM518.538 333.492H517.314C518.034 332.256 518.556 330.948 518.88 329.568C519.216 328.176 519.384 326.676 519.384 325.068C519.384 323.46 519.216 321.966 518.88 320.586C518.556 319.194 518.034 317.88 517.314 316.644H518.538C519.222 317.712 519.744 318.972 520.104 320.424C520.464 321.864 520.644 323.412 520.644 325.068C520.644 326.724 520.464 328.272 520.104 329.712C519.744 331.14 519.222 332.4 518.538 333.492Z" fill="black"/>
<circle cx="1327.5" cy="81.5" r="15" fill="#B852FF" stroke="#404040" stroke-width="5"/>
<g filter="url(#filter0_d_2008_78)">
<path fill-rule="evenodd" clip-rule="evenodd" d="M1280 6C1271.72 6 1265 12.7157 1265 21V28C1265 36.2843 1271.72 43 1280 43H1320L1328 54L1336 43H1376C1384.28 43 1391 36.2843 1391 28V21C1391 12.7157 1384.28 6 1376 6H1280Z" fill="white"/>
</g>
<path d="M1281.61 28.516V20.884H1282.74V28.516H1281.61ZM1278.26 25.24V24.178H1286.09V25.24H1278.26ZM1292.19 33.16V16.24H1293.09V33.16H1292.19ZM1292.56 31.108C1291.63 31.108 1290.73 30.958 1289.86 30.658C1289.01 30.346 1288.35 29.95 1287.88 29.47L1288.41 28.444C1288.85 28.876 1289.44 29.242 1290.19 29.542C1290.94 29.83 1291.74 29.974 1292.56 29.974C1293.36 29.974 1294 29.878 1294.49 29.686C1294.99 29.482 1295.36 29.212 1295.59 28.876C1295.83 28.54 1295.95 28.168 1295.95 27.76C1295.95 27.268 1295.8 26.872 1295.52 26.572C1295.24 26.272 1294.87 26.038 1294.42 25.87C1293.96 25.69 1293.46 25.534 1292.91 25.402C1292.35 25.27 1291.8 25.132 1291.25 24.988C1290.7 24.832 1290.19 24.628 1289.72 24.376C1289.26 24.124 1288.89 23.794 1288.6 23.386C1288.33 22.966 1288.19 22.42 1288.19 21.748C1288.19 21.124 1288.35 20.554 1288.68 20.038C1289.01 19.51 1289.52 19.09 1290.21 18.778C1290.89 18.454 1291.77 18.292 1292.83 18.292C1293.54 18.292 1294.24 18.394 1294.94 18.598C1295.64 18.79 1296.24 19.06 1296.74 19.408L1296.29 20.47C1295.75 20.11 1295.17 19.846 1294.56 19.678C1293.96 19.51 1293.38 19.426 1292.82 19.426C1292.06 19.426 1291.44 19.528 1290.94 19.732C1290.45 19.936 1290.09 20.212 1289.85 20.56C1289.62 20.896 1289.5 21.28 1289.5 21.712C1289.5 22.204 1289.64 22.6 1289.92 22.9C1290.21 23.2 1290.58 23.434 1291.03 23.602C1291.5 23.77 1292.01 23.92 1292.56 24.052C1293.12 24.184 1293.66 24.328 1294.2 24.484C1294.75 24.64 1295.26 24.844 1295.71 25.096C1296.18 25.336 1296.55 25.66 1296.83 26.068C1297.12 26.476 1297.26 27.01 1297.26 27.67C1297.26 28.282 1297.09 28.852 1296.76 29.38C1296.42 29.896 1295.91 30.316 1295.21 30.64C1294.53 30.952 1293.64 31.108 1292.56 31.108ZM1303.03 31.108C1302.13 31.108 1301.27 30.964 1300.45 30.676C1299.64 30.376 1298.99 29.98 1298.51 29.488L1299.14 28.462C1299.53 28.882 1300.07 29.23 1300.76 29.506C1301.45 29.782 1302.2 29.92 1303.01 29.92C1304.08 29.92 1304.89 29.686 1305.44 29.218C1306 28.738 1306.28 28.114 1306.28 27.346C1306.28 26.806 1306.15 26.344 1305.89 25.96C1305.64 25.564 1305.2 25.258 1304.59 25.042C1303.98 24.826 1303.14 24.718 1302.07 24.718H1299.39L1300.04 18.4H1306.93V19.552H1300.56L1301.23 18.922L1300.67 24.214L1300 23.566H1302.36C1303.63 23.566 1304.65 23.722 1305.42 24.034C1306.19 24.346 1306.74 24.784 1307.08 25.348C1307.42 25.9 1307.6 26.548 1307.6 27.292C1307.6 28 1307.43 28.648 1307.09 29.236C1306.76 29.812 1306.25 30.268 1305.58 30.604C1304.91 30.94 1304.06 31.108 1303.03 31.108ZM1314.41 31.108C1313.29 31.108 1312.35 30.862 1311.58 30.37C1310.81 29.866 1310.23 29.146 1309.84 28.21C1309.44 27.262 1309.24 26.128 1309.24 24.808C1309.24 23.38 1309.48 22.186 1309.96 21.226C1310.45 20.254 1311.13 19.522 1312 19.03C1312.86 18.538 1313.86 18.292 1315 18.292C1315.57 18.292 1316.11 18.346 1316.62 18.454C1317.14 18.562 1317.59 18.736 1317.99 18.976L1317.47 20.02C1317.14 19.804 1316.77 19.654 1316.35 19.57C1315.93 19.474 1315.49 19.426 1315.02 19.426C1313.66 19.426 1312.58 19.858 1311.76 20.722C1310.96 21.586 1310.56 22.876 1310.56 24.592C1310.56 24.856 1310.57 25.186 1310.59 25.582C1310.63 25.966 1310.7 26.35 1310.81 26.734L1310.36 26.392C1310.49 25.768 1310.75 25.24 1311.13 24.808C1311.52 24.364 1312 24.028 1312.57 23.8C1313.15 23.572 1313.78 23.458 1314.46 23.458C1315.3 23.458 1316.04 23.614 1316.68 23.926C1317.31 24.238 1317.81 24.676 1318.17 25.24C1318.53 25.804 1318.71 26.47 1318.71 27.238C1318.71 28.018 1318.52 28.702 1318.15 29.29C1317.78 29.866 1317.26 30.316 1316.6 30.64C1315.96 30.952 1315.22 31.108 1314.41 31.108ZM1314.35 30.01C1314.95 30.01 1315.48 29.902 1315.94 29.686C1316.41 29.458 1316.77 29.14 1317.04 28.732C1317.3 28.312 1317.43 27.826 1317.43 27.274C1317.43 26.446 1317.14 25.786 1316.57 25.294C1316 24.802 1315.24 24.556 1314.26 24.556C1313.62 24.556 1313.05 24.676 1312.57 24.916C1312.09 25.156 1311.71 25.486 1311.44 25.906C1311.16 26.314 1311.02 26.782 1311.02 27.31C1311.02 27.766 1311.15 28.204 1311.4 28.624C1311.65 29.032 1312.03 29.368 1312.52 29.632C1313.02 29.884 1313.63 30.01 1314.35 30.01ZM1322.28 31L1327.72 18.976L1328.12 19.552H1320.32L1320.99 18.922V21.91H1319.71V18.4H1328.96V19.318L1323.69 31H1322.28ZM1338.41 34.492C1337.75 33.4 1337.23 32.14 1336.86 30.712C1336.5 29.272 1336.32 27.724 1336.32 26.068C1336.32 24.412 1336.5 22.864 1336.86 21.424C1337.23 19.972 1337.75 18.712 1338.41 17.644H1339.63C1338.92 18.88 1338.4 20.194 1338.06 21.586C1337.74 22.966 1337.58 24.46 1337.58 26.068C1337.58 27.676 1337.74 29.176 1338.06 30.568C1338.4 31.948 1338.92 33.256 1339.63 34.492H1338.41ZM1343.68 31V18.94L1344.25 19.552H1340.71V18.4H1344.97V31H1343.68ZM1347.75 31V30.082L1352.99 24.952C1353.47 24.484 1353.83 24.076 1354.07 23.728C1354.31 23.368 1354.47 23.032 1354.55 22.72C1354.64 22.408 1354.68 22.114 1354.68 21.838C1354.68 21.106 1354.43 20.53 1353.92 20.11C1353.43 19.69 1352.7 19.48 1351.73 19.48C1350.98 19.48 1350.32 19.594 1349.75 19.822C1349.18 20.05 1348.7 20.404 1348.29 20.884L1347.37 20.092C1347.86 19.516 1348.49 19.072 1349.26 18.76C1350.03 18.448 1350.89 18.292 1351.84 18.292C1352.69 18.292 1353.43 18.43 1354.05 18.706C1354.67 18.97 1355.15 19.36 1355.49 19.876C1355.84 20.392 1356.01 20.998 1356.01 21.694C1356.01 22.102 1355.95 22.504 1355.83 22.9C1355.72 23.296 1355.52 23.716 1355.22 24.16C1354.93 24.592 1354.51 25.084 1353.94 25.636L1349.14 30.352L1348.78 29.848H1356.59V31H1347.75ZM1360.08 31L1368.69 18.4H1369.75L1361.15 31H1360.08ZM1361.06 25.15C1360.49 25.15 1359.99 25.012 1359.56 24.736C1359.13 24.448 1358.79 24.046 1358.55 23.53C1358.33 23.014 1358.21 22.414 1358.21 21.73C1358.21 21.046 1358.33 20.446 1358.55 19.93C1358.79 19.414 1359.13 19.018 1359.56 18.742C1359.99 18.454 1360.49 18.31 1361.06 18.31C1361.62 18.31 1362.11 18.454 1362.53 18.742C1362.96 19.018 1363.3 19.414 1363.54 19.93C1363.78 20.446 1363.9 21.046 1363.9 21.73C1363.9 22.414 1363.78 23.014 1363.54 23.53C1363.3 24.046 1362.96 24.448 1362.53 24.736C1362.11 25.012 1361.62 25.15 1361.06 25.15ZM1361.06 24.34C1361.64 24.34 1362.11 24.112 1362.46 23.656C1362.82 23.188 1363 22.546 1363 21.73C1363 20.914 1362.82 20.278 1362.46 19.822C1362.11 19.354 1361.64 19.12 1361.06 19.12C1360.46 19.12 1359.98 19.354 1359.63 19.822C1359.29 20.278 1359.11 20.914 1359.11 21.73C1359.11 22.546 1359.29 23.188 1359.63 23.656C1359.98 24.112 1360.46 24.34 1361.06 24.34ZM1368.78 31.09C1368.23 31.09 1367.73 30.952 1367.3 30.676C1366.87 30.388 1366.53 29.986 1366.29 29.47C1366.05 28.954 1365.93 28.354 1365.93 27.67C1365.93 26.986 1366.05 26.386 1366.29 25.87C1366.53 25.354 1366.87 24.958 1367.3 24.682C1367.73 24.394 1368.23 24.25 1368.78 24.25C1369.35 24.25 1369.85 24.394 1370.27 24.682C1370.7 24.958 1371.03 25.354 1371.26 25.87C1371.5 26.386 1371.62 26.986 1371.62 27.67C1371.62 28.354 1371.5 28.954 1371.26 29.47C1371.03 29.986 1370.7 30.388 1370.27 30.676C1369.85 30.952 1369.35 31.09 1368.78 31.09ZM1368.78 30.28C1369.37 30.28 1369.83 30.052 1370.18 29.596C1370.54 29.128 1370.72 28.486 1370.72 27.67C1370.72 26.854 1370.54 26.218 1370.18 25.762C1369.83 25.294 1369.37 25.06 1368.78 25.06C1368.19 25.06 1367.72 25.294 1367.36 25.762C1367.01 26.218 1366.83 26.854 1366.83 27.67C1366.83 28.486 1367.01 29.128 1367.36 29.596C1367.72 30.052 1368.19 30.28 1368.78 30.28ZM1373.97 34.492H1372.75C1373.47 33.256 1373.99 31.948 1374.31 30.568C1374.65 29.176 1374.82 27.676 1374.82 26.068C1374.82 24.46 1374.65 22.966 1374.31 21.586C1373.99 20.194 1373.47 18.88 1372.75 17.644H1373.97C1374.66 18.712 1375.18 19.972 1375.54 21.424C1375.9 22.864 1376.08 24.412 1376.08 26.068C1376.08 27.724 1375.9 29.272 1375.54 30.712C1375.18 32.14 1374.66 33.4 1373.97 34.492Z" fill="black"/>
<defs>
<filter id="filter0_d_2008_78" x="1253" y="0" width="150" height="72" filterUnits="userSpaceOnUse" color-interpolation-filters="sRGB">
<feFlood flood-opacity="0" result="BackgroundImageFix"/>
<feColorMatrix in="SourceAlpha" type="matrix" values="0 0 0 0 0 0 0 0 0 0 0 0 0 0 0 0 0 0 127 0" result="hardAlpha"/>
<feOffset dy="6"/>
<feGaussianBlur stdDeviation="6"/>
<feComposite in2="hardAlpha" operator="out"/>
<feColorMatrix type="matrix" values="0 0 0 0 0 0 0 0 0 0 0 0 0 0 0 0 0 0 0.4 0"/>
<feBlend mode="normal" in2="BackgroundImageFix" result="effect1_dropShadow_2008_78"/>
<feBlend mode="normal" in="SourceGraphic" in2="effect1_dropShadow_2008_78" result="shape"/>
</filter>
<linearGradient id="paint0_linear_2008_78" x1="1206.86" y1="55.7352" x2="292.209" y2="485.226" gradientUnits="userSpaceOnUse">
<stop stop-color="#8B8B8B"/>
<stop offset="1" stop-color="#D3D3D3"/>
</linearGradient>
</defs>
</svg>
