<svg width="1440" height="100" viewBox="0 0 1440 100" fill="none" xmlns="http://www.w3.org/2000/svg">
<path d="M281.636 50.1865L304.605 77.3594C305.152 78.1113 305.032 78.624 304.246 78.8975H300.555C299.974 79.2051 299.478 79.0513 299.068 78.436L277.278 52.4424H-5V78.0771C-5 78.7607 -5.35889 79.1025 -6.07666 79.1025H-9.2041C-9.8877 79.1025 -10.2295 78.7607 -10.2295 78.0771V28.397C-10.2295 27.6792 -9.8877 27.3203 -9.2041 27.3203H-6.07666C-5.35889 27.3203 -5 27.6792 -5 28.397V47.8794H277.125L291.172 28.1406C291.685 27.4229 292.283 27.252 292.967 27.6279H296.402C297.085 27.9014 297.188 28.397 296.709 29.1147L281.636 50.1865Z" fill="white"/>
<path d="M362.591 27.3203H364.385C365.103 27.3203 365.462 27.6792 365.462 28.397V78.0259C365.462 78.7437 365.103 79.1025 364.385 79.1025H362.591C361.976 79.1025 361.617 78.812 361.514 78.231L360.489 66.3364C358.267 70.5405 355.174 73.856 351.209 76.2827C347.244 78.7095 342.818 79.9229 337.93 79.9229C333.145 79.9229 328.77 78.7607 324.805 76.4365C320.84 74.0781 317.713 70.8481 315.423 66.7466C313.167 62.645 312.039 58.1333 312.039 53.2114C311.971 48.2896 313.082 43.7437 315.372 39.5737C317.696 35.4038 320.857 32.1226 324.856 29.73C328.855 27.3374 333.196 26.1924 337.879 26.2949C342.835 26.2949 347.278 27.5254 351.209 29.9863C355.174 32.3789 358.267 35.6943 360.489 39.9326L361.514 28.2432C361.617 27.6279 361.976 27.3203 362.591 27.3203ZM338.699 74.8472C344.749 74.8472 349.91 72.7451 354.183 68.541C358.421 64.3369 360.54 59.2271 360.54 53.2114C360.54 47.0933 358.421 41.9321 354.183 37.728C349.91 33.5239 344.715 31.4219 338.597 31.4219C332.684 31.4219 327.642 33.5239 323.472 37.728C319.336 41.8979 317.269 47.0591 317.269 53.2114C317.269 59.1929 319.354 64.3027 323.523 68.541C327.659 72.7451 332.718 74.8472 338.699 74.8472Z" fill="white"/>
<path d="M402.12 50.1865L425.088 77.3594C425.635 78.1113 425.516 78.624 424.729 78.8975H421.038C420.457 79.2051 419.961 79.0513 419.551 78.436L397.762 52.4424H387.713V78.0771C387.713 78.7607 387.354 79.1025 386.636 79.1025H383.509C382.825 79.1025 382.483 78.7607 382.483 78.0771V28.397C382.483 27.6792 382.825 27.3203 383.509 27.3203H386.636C387.354 27.3203 387.713 27.6792 387.713 28.397V47.8794H397.608L411.656 28.1406C412.168 27.4229 412.767 27.252 413.45 27.6279H416.885C417.569 27.9014 417.671 28.397 417.193 29.1147L402.12 50.1865Z" fill="white"/>
<path d="M483.433 26.5C488.252 26.5 492.679 27.6963 496.712 30.0889C500.813 32.4473 504.043 35.6772 506.402 39.7788C508.794 43.8462 509.991 48.3066 509.991 53.1602C509.991 57.9795 508.794 62.457 506.402 66.5928C504.043 70.7285 500.813 73.9927 496.712 76.3853C492.576 78.812 488.116 80.0254 483.331 80.0254C480.118 80.0254 476.905 79.3931 473.692 78.1284C470.513 76.8296 467.625 75.0693 465.027 72.8477C464.412 72.3008 464.327 71.7539 464.771 71.207L466.309 69.0537C466.514 68.7803 466.788 68.6436 467.129 68.6436C467.471 68.6436 467.745 68.7461 467.95 68.9512C472.12 72.916 477.212 74.8984 483.228 74.8984C487.945 74.8984 492.149 73.5142 495.84 70.7456C499.6 67.9087 502.164 64.3027 503.531 59.9277H482.51C482.203 59.9277 481.929 59.8252 481.69 59.6201C481.485 59.415 481.399 59.1587 481.434 58.8511V56.6465C481.434 55.9629 481.81 55.6211 482.562 55.6211H504.454C504.556 54.8008 504.607 53.9805 504.607 53.1602C504.607 47.1104 502.54 42.0176 498.404 37.8818C494.302 33.7119 489.295 31.627 483.382 31.627C477.64 31.627 472.496 33.6436 467.95 37.6768C467.369 38.1895 466.805 38.1211 466.258 37.4717L464.771 35.1646C464.361 34.5835 464.412 34.0708 464.925 33.6265C467.42 31.439 470.291 29.7129 473.538 28.4482C476.854 27.1494 480.152 26.5 483.433 26.5Z" fill="white"/>
<path d="M516.758 30.9092V28.4482C516.758 27.7646 517.117 27.4229 517.835 27.4229H555.108C555.826 27.4229 556.185 27.7646 556.185 28.4482V30.9092C556.185 31.627 555.826 31.9858 555.108 31.9858H539.061V78.1284C539.061 78.7778 538.719 79.1025 538.035 79.1025H534.805C534.156 79.1025 533.831 78.7778 533.831 78.1284V31.9858H517.835C517.117 31.9858 516.758 31.627 516.758 30.9092Z" fill="white"/>
<path d="M562.85 53.2114C562.85 49.5884 563.533 46.1191 564.9 42.8037C566.302 39.4541 568.216 36.583 570.643 34.1904C573.138 31.7637 576.043 29.8667 579.358 28.4995C582.708 27.0981 586.194 26.3975 589.817 26.3975C593.44 26.3975 596.927 27.0981 600.276 28.4995C603.626 29.8667 606.497 31.7637 608.89 34.1904C611.316 36.583 613.213 39.4541 614.581 42.8037C615.982 46.1191 616.683 49.5884 616.683 53.2114C616.683 60.6968 614.085 67.0371 608.89 72.2324C603.694 77.4277 597.337 80.0254 589.817 80.0254C582.332 80.0254 575.958 77.4277 570.694 72.2324C565.464 67.0371 562.85 60.6968 562.85 53.2114ZM589.817 31.4219C583.699 31.4219 578.538 33.5239 574.334 37.728C570.164 41.9663 568.079 47.1274 568.079 53.2114C568.079 59.3296 570.181 64.4907 574.385 68.6948C578.589 72.8989 583.733 75.001 589.817 75.001C595.867 75.001 600.977 72.8989 605.147 68.6948C609.317 64.4565 611.402 59.2954 611.402 53.2114C611.402 47.1274 609.317 41.9663 605.147 37.728C600.977 33.5239 595.867 31.4219 589.817 31.4219Z" fill="white"/>
<path d="M687.076 26.3975C691.758 26.2949 696.099 27.4399 700.098 29.8325C704.097 32.2251 707.242 35.5063 709.532 39.6763C711.822 43.8462 712.933 48.3921 712.864 53.314C712.864 58.27 711.719 62.7817 709.429 66.8491C707.173 70.9507 704.063 74.1807 700.098 76.5391C696.133 78.8633 691.758 80.0254 686.973 80.0254C682.085 80.0254 677.642 78.7949 673.643 76.334C669.678 73.873 666.602 70.5405 664.415 66.3364L664.466 97.9697C664.466 98.6875 664.124 99.0464 663.44 99.0464H660.364C659.612 99.0464 659.236 98.6875 659.236 97.9697V28.3457C659.236 27.6279 659.595 27.269 660.313 27.269H662.107C662.757 27.269 663.133 27.5767 663.235 28.1919L664.261 40.4453C666.346 36.1387 669.422 32.7207 673.489 30.1914C677.557 27.6621 682.085 26.3975 687.076 26.3975ZM686.204 74.8984C692.186 74.8984 697.244 72.7964 701.38 68.5923C705.55 64.354 707.635 59.2441 707.635 53.2627C707.635 47.1104 705.567 41.9492 701.431 37.7793C697.295 33.5752 692.254 31.4731 686.307 31.4731C680.188 31.4731 675.01 33.5752 670.772 37.7793C666.534 41.9834 664.415 47.1445 664.415 53.2627C664.415 59.2783 666.517 64.3882 670.721 68.5923C674.959 72.7964 680.12 74.8984 686.204 74.8984Z" fill="white"/>
<path d="M772.747 27.3203H774.542C775.259 27.3203 775.618 27.6792 775.618 28.397V78.0259C775.618 78.7437 775.259 79.1025 774.542 79.1025H772.747C772.132 79.1025 771.773 78.812 771.67 78.231L770.645 66.3364C768.423 70.5405 765.33 73.856 761.365 76.2827C757.4 78.7095 752.974 79.9229 748.086 79.9229C743.301 79.9229 738.926 78.7607 734.961 76.4365C730.997 74.0781 727.869 70.8481 725.579 66.7466C723.323 62.645 722.195 58.1333 722.195 53.2114C722.127 48.2896 723.238 43.7437 725.528 39.5737C727.852 35.4038 731.014 32.1226 735.013 29.73C739.012 27.3374 743.353 26.1924 748.035 26.2949C752.991 26.2949 757.435 27.5254 761.365 29.9863C765.33 32.3789 768.423 35.6943 770.645 39.9326L771.67 28.2432C771.773 27.6279 772.132 27.3203 772.747 27.3203ZM748.855 74.8472C754.905 74.8472 760.066 72.7451 764.339 68.541C768.577 64.3369 770.696 59.2271 770.696 53.2114C770.696 47.0933 768.577 41.9321 764.339 37.728C760.066 33.5239 754.871 31.4219 748.753 31.4219C742.84 31.4219 737.798 33.5239 733.628 37.728C729.493 41.8979 727.425 47.0591 727.425 53.2114C727.425 59.1929 729.51 64.3027 733.68 68.541C737.815 72.7451 742.874 74.8472 748.855 74.8472Z" fill="white"/>
<path d="M818.018 26.3975C821.47 26.3975 824.803 27.0981 828.016 28.4995C831.229 29.8667 834.014 31.7637 836.373 34.1904C838.765 36.583 840.645 39.4541 842.012 42.8037C843.379 46.1191 844.063 49.5884 844.063 53.2114C844.131 56.8003 843.448 60.2695 842.012 63.6191C840.611 66.9688 838.697 69.8569 836.27 72.2837C833.877 74.6763 831.006 76.5903 827.657 78.0259C824.307 79.4272 820.838 80.0938 817.249 80.0254C812.464 80.1279 807.986 79 803.816 76.6416C799.646 74.249 796.331 71.019 793.87 66.9517C791.443 62.8501 790.23 58.4238 790.23 53.6729L790.076 37.8306C790.008 27.3032 792.657 19.1685 798.023 13.4263C803.423 7.61572 810.533 4.81299 819.351 5.01807C826.768 5.15479 831.827 4.31738 834.527 2.50586C835.245 2.19824 835.757 2.42041 836.065 3.17236L836.373 5.37695C836.578 5.95801 836.321 6.45361 835.604 6.86377C832.254 8.84619 827.007 9.75195 819.864 9.58105C812.173 9.44434 806.141 11.8198 801.766 16.7075C797.391 21.5952 795.289 28.6362 795.459 37.8306V40.8555C797.339 36.6172 800.279 33.1479 804.278 30.4478C808.243 27.7476 812.823 26.3975 818.018 26.3975ZM817.198 74.8984C823.213 74.8984 828.306 72.7964 832.476 68.5923C836.68 64.3882 838.782 59.2612 838.782 53.2114C838.782 47.0933 836.68 41.9663 832.476 37.8306C828.306 33.6265 823.213 31.5244 817.198 31.5244C811.114 31.5244 805.97 33.6265 801.766 37.8306C797.596 42.0005 795.511 47.1274 795.511 53.2114C795.511 59.2271 797.596 64.354 801.766 68.5923C805.97 72.7964 811.114 74.8984 817.198 74.8984Z" fill="white"/>
<path d="M853.445 53.2114C853.445 49.5884 854.129 46.1191 855.496 42.8037C856.897 39.4541 858.812 36.583 861.238 34.1904C863.733 31.7637 866.639 29.8667 869.954 28.4995C873.304 27.0981 876.79 26.3975 880.413 26.3975C884.036 26.3975 887.522 27.0981 890.872 28.4995C894.222 29.8667 897.093 31.7637 899.485 34.1904C901.912 36.583 903.809 39.4541 905.176 42.8037C906.578 46.1191 907.278 49.5884 907.278 53.2114C907.278 60.6968 904.681 67.0371 899.485 72.2324C894.29 77.4277 887.933 80.0254 880.413 80.0254C872.928 80.0254 866.553 77.4277 861.29 72.2324C856.06 67.0371 853.445 60.6968 853.445 53.2114ZM880.413 31.4219C874.295 31.4219 869.134 33.5239 864.93 37.728C860.76 41.9663 858.675 47.1274 858.675 53.2114C858.675 59.3296 860.777 64.4907 864.981 68.6948C869.185 72.8989 874.329 75.001 880.413 75.001C886.463 75.001 891.573 72.8989 895.743 68.6948C899.913 64.4565 901.998 59.2954 901.998 53.2114C901.998 47.1274 899.913 41.9663 895.743 37.728C891.573 33.5239 886.463 31.4219 880.413 31.4219Z" fill="white"/>
<path d="M913.995 30.9092V28.4482C913.995 27.7646 914.354 27.4229 915.071 27.4229H952.344C953.062 27.4229 953.421 27.7646 953.421 28.4482V30.9092C953.421 31.627 953.062 31.9858 952.344 31.9858H936.297V78.1284C936.297 78.7778 935.955 79.1025 935.271 79.1025H932.042C931.392 79.1025 931.067 78.7778 931.067 78.1284V31.9858H915.071C914.354 31.9858 913.995 31.627 913.995 30.9092Z" fill="white"/>
<path d="M1010.64 27.3203H1012.43C1013.15 27.3203 1013.51 27.6792 1013.51 28.397V78.0259C1013.51 78.7437 1013.15 79.1025 1012.43 79.1025H1010.64C1010.02 79.1025 1009.66 78.812 1009.56 78.231L1008.54 66.3364C1006.31 70.5405 1003.22 73.856 999.256 76.2827C995.291 78.7095 990.865 79.9229 985.977 79.9229C981.192 79.9229 976.817 78.7607 972.852 76.4365C968.887 74.0781 965.76 70.8481 963.47 66.7466C961.214 62.645 960.086 58.1333 960.086 53.2114C960.018 48.2896 961.128 43.7437 963.418 39.5737C965.743 35.4038 968.904 32.1226 972.903 29.73C976.902 27.3374 981.243 26.1924 985.926 26.2949C990.882 26.2949 995.325 27.5254 999.256 29.9863C1003.22 32.3789 1006.31 35.6943 1008.54 39.9326L1009.56 28.2432C1009.66 27.6279 1010.02 27.3203 1010.64 27.3203ZM986.746 74.8472C992.796 74.8472 997.957 72.7451 1002.23 68.541C1006.47 64.3369 1008.59 59.2271 1008.59 53.2114C1008.59 47.0933 1006.47 41.9321 1002.23 37.728C997.957 33.5239 992.762 31.4219 986.644 31.4219C980.73 31.4219 975.689 33.5239 971.519 37.728C967.383 41.8979 965.315 47.0591 965.315 53.2114C965.315 59.1929 967.4 64.3027 971.57 68.541C975.706 72.7451 980.765 74.8472 986.746 74.8472Z" fill="white"/>
<path d="M1052.52 26.4487C1059.87 26.4487 1065.91 28.8413 1070.62 33.6265C1075.37 38.3774 1077.75 44.4614 1077.75 51.8784C1077.75 52.7329 1077.49 53.502 1076.98 54.1855C1076.47 54.835 1075.82 55.1597 1075.03 55.1597H1032.07C1032.38 60.731 1034.6 65.4307 1038.73 69.2588C1042.87 73.0869 1047.89 75.001 1053.81 75.001C1056.68 75.001 1059.45 74.5054 1062.11 73.5142C1064.81 72.4888 1067.17 71.0532 1069.19 69.2075C1069.7 68.729 1070.21 68.7461 1070.73 69.2588L1072.42 71.4634C1072.93 71.9761 1072.88 72.5229 1072.26 73.104C1069.91 75.3599 1067.07 77.0688 1063.75 78.231C1060.37 79.4272 1056.97 80.0254 1053.55 80.0254C1048.59 80.0254 1044.05 78.8291 1039.91 76.4365C1035.81 74.0439 1032.58 70.814 1030.22 66.7466C1027.9 62.6108 1026.74 58.1333 1026.74 53.314C1026.74 48.3921 1027.86 43.8804 1030.12 39.7788C1032.41 35.6431 1035.54 32.396 1039.5 30.0376C1043.43 27.645 1047.77 26.4487 1052.52 26.4487ZM1052.47 31.4219C1047.14 31.4219 1042.56 33.2334 1038.73 36.8564C1034.87 40.4453 1032.67 44.9229 1032.12 50.2891H1072.62C1072.25 44.6836 1070.2 40.1377 1066.47 36.6514C1062.78 33.165 1058.11 31.4219 1052.47 31.4219Z" fill="white"/>
<path d="M1084.41 30.9092V28.4482C1084.41 27.7646 1084.77 27.4229 1085.49 27.4229H1122.76C1123.48 27.4229 1123.84 27.7646 1123.84 28.4482V30.9092C1123.84 31.627 1123.48 31.9858 1122.76 31.9858H1106.72V78.1284C1106.72 78.7778 1106.38 79.1025 1105.69 79.1025H1102.46C1101.81 79.1025 1101.49 78.7778 1101.49 78.1284V31.9858H1085.49C1084.77 31.9858 1084.41 31.627 1084.41 30.9092Z" fill="white"/>
<path d="M1154.76 51.5708L1154.71 58.8511C1154.71 59.1929 1154.6 59.4663 1154.4 59.6714C1154.19 59.8765 1153.94 59.979 1153.63 59.979H1150.91C1150.57 59.979 1150.28 59.8765 1150.04 59.6714C1149.83 59.4663 1149.73 59.1929 1149.73 58.8511V51.2632C1149.73 48.6655 1150.62 46.0679 1152.4 43.4702C1154.18 40.9067 1155 40.5 1159.5 38.5C1171.5 33.5 1462.46 31.5928 1463.76 30.2939C1466.66 27.252 1468.13 23.9536 1468.17 20.3989C1468.17 15.7505 1466.61 12.0933 1463.5 9.42725C1460.43 6.76123 1160 5.42822 1154.6 5.42822C1149.27 5.42822 1145.07 6.91504 1141.99 9.88867C1138.95 12.8281 1137.43 16.8442 1137.43 21.937C1137.43 22.313 1137.31 22.6206 1137.07 22.8599C1136.86 23.0991 1136.59 23.2188 1136.25 23.2188H1133.07C1132.8 23.2188 1132.56 23.1162 1132.35 22.9111C1132.18 22.6719 1132.1 22.3813 1132.1 22.0396C1132.1 15.2378 1134.11 9.88867 1138.15 5.99219C1142.18 2.0957 1147.66 0.147461 1154.6 0.147461C1161.47 0.147461 1463.36 4.34277 1467.5 8C1471.64 11.623 1473.5 14.1782 1473.5 20.3989C1473.5 24.5005 1472.27 28.0039 1469.81 30.9092C1468.41 32.5156 1467.06 33.8828 1465.76 35.0107C1463.98 36.4805 1465.45 30.6528 1463.5 31.9858C1461.14 33.6123 1210.28 34.3924 1164.05 43.1922C1159.46 44.0641 1154.76 46.9078 1154.76 51.5708ZM1152.65 80.1279C1151.42 80.1279 1150.38 79.7007 1149.53 78.8462C1148.67 77.9575 1148.25 76.915 1148.25 75.7188C1148.25 74.5225 1148.67 73.4971 1149.53 72.6426C1150.38 71.7881 1151.42 71.3608 1152.65 71.3608C1153.85 71.3608 1154.86 71.7881 1155.68 72.6426C1156.53 73.4971 1156.96 74.5225 1156.96 75.7188C1156.96 76.915 1156.53 77.9575 1155.68 78.8462C1154.82 79.7007 1153.82 80.1279 1152.65 80.1279Z" fill="white"/>
</svg>
