<svg width="198" height="174" viewBox="0 0 198 174" fill="none" xmlns="http://www.w3.org/2000/svg">
<g filter="url(#filter0_d_93_64)">
<path d="M176 12H22C16.4772 12 12 16.4772 12 22V152C12 157.523 16.4772 162 22 162H176C181.523 162 186 157.523 186 152V22C186 16.4772 181.523 12 176 12Z" fill="white"/>
<path d="M161 31L164.717 34.7172C164.873 34.8734 165.127 34.8734 165.283 34.7172L169 31" stroke="black" stroke-width="0.77" stroke-linecap="round"/>
<path d="M174 22.35H111C109.537 22.35 108.35 23.5364 108.35 25V39C108.35 40.4635 109.537 41.65 111 41.65H174C175.464 41.65 176.65 40.4635 176.65 39V25C176.65 23.5364 175.464 22.35 174 22.35Z" stroke="#EBEBEB" stroke-width="0.7"/>
<path d="M121.178 34.334V35H117.576V29.0667H118.316V34.334H121.178ZM123.291 34.4655C123.628 34.4655 123.911 34.3613 124.138 34.153C124.368 33.9419 124.484 33.6828 124.484 33.3758V33.0264L123.34 33.0963C123.053 33.1155 122.829 33.1853 122.67 33.306C122.514 33.4266 122.436 33.5883 122.436 33.7911C122.436 33.994 122.514 34.1571 122.67 34.2804C122.826 34.4038 123.033 34.4655 123.291 34.4655ZM123.131 35.074C122.706 35.074 122.362 34.9561 122.099 34.7204C121.838 34.4846 121.708 34.1749 121.708 33.7911C121.708 33.4238 121.842 33.1305 122.111 32.9112C122.382 32.6919 122.765 32.5685 123.258 32.5411L124.484 32.4713V32.1136C124.484 31.8532 124.401 31.6488 124.237 31.5008C124.072 31.3528 123.842 31.2788 123.546 31.2788C123.275 31.2788 123.054 31.3391 122.884 31.4597C122.714 31.5776 122.606 31.7434 122.559 31.9572H121.868C121.893 31.5762 122.058 31.2637 122.362 31.0197C122.669 30.773 123.069 30.6497 123.562 30.6497C124.064 30.6497 124.462 30.7758 124.755 31.028C125.051 31.2802 125.199 31.6187 125.199 32.0436V35H124.521V34.264H124.504C124.375 34.5079 124.186 34.7039 123.937 34.852C123.687 35 123.419 35.074 123.131 35.074ZM126.034 31.9038C126.034 31.5365 126.182 31.2363 126.478 31.0033C126.777 30.7675 127.16 30.6497 127.629 30.6497C128.07 30.6497 128.438 30.7675 128.731 31.0033C129.024 31.239 129.179 31.5378 129.196 31.8997H128.513C128.488 31.6913 128.395 31.5282 128.234 31.4104C128.075 31.2926 127.865 31.2337 127.604 31.2337C127.344 31.2337 127.134 31.2926 126.975 31.4104C126.816 31.5255 126.737 31.6776 126.737 31.8668C126.737 32.1573 126.974 32.363 127.448 32.4837L128.11 32.6439C128.541 32.7536 128.843 32.8962 129.019 33.0716C129.197 33.2443 129.286 33.4882 129.286 33.8035C129.286 34.1763 129.127 34.4819 128.809 34.7204C128.491 34.9561 128.083 35.074 127.584 35.074C127.118 35.074 126.733 34.9589 126.428 34.7286C126.127 34.4956 125.957 34.1886 125.919 33.8076H126.634C126.714 34.2626 127.045 34.4902 127.629 34.4902C127.917 34.4902 128.144 34.434 128.312 34.3216C128.482 34.2065 128.567 34.0515 128.567 33.8569C128.567 33.7034 128.516 33.5814 128.414 33.491C128.316 33.4005 128.147 33.3238 127.909 33.2607L127.156 33.0674C126.408 32.8755 126.034 32.4877 126.034 31.9038ZM130.261 29.6917H130.976V30.7237H131.807V31.3118H130.976V33.8528C130.976 34.0475 131.019 34.1913 131.104 34.2845C131.189 34.375 131.323 34.4202 131.507 34.4202C131.622 34.4202 131.72 34.4134 131.803 34.3997V35C131.709 35.0219 131.559 35.0329 131.35 35.0329C130.958 35.0329 130.679 34.9452 130.512 34.7697C130.344 34.5943 130.261 34.301 130.261 33.8898V31.3118H129.623V30.7237H130.261V29.6917ZM140.257 35H139.566V30.4277H139.537L137.646 34.959H137.021L135.129 30.4277H135.1V35H134.41V29.0667H135.269L137.317 34.0173H137.35L139.397 29.0667H140.257V35ZM143.069 35.074C142.471 35.074 141.992 34.8753 141.63 34.4778C141.268 34.0777 141.087 33.5389 141.087 32.8618C141.087 32.1848 141.268 31.6475 141.63 31.25C141.992 30.8498 142.471 30.6497 143.069 30.6497C143.664 30.6497 144.142 30.8498 144.504 31.25C144.866 31.6475 145.047 32.1848 145.047 32.8618C145.047 33.5362 144.866 34.0735 144.504 34.4737C144.142 34.8739 143.664 35.074 143.069 35.074ZM142.152 34.0255C142.38 34.3051 142.685 34.445 143.069 34.445C143.453 34.445 143.757 34.3065 143.982 34.0296C144.207 33.75 144.319 33.3607 144.319 32.8618C144.319 32.3629 144.207 31.9751 143.982 31.6982C143.757 31.4186 143.453 31.2788 143.069 31.2788C142.685 31.2788 142.38 31.4186 142.152 31.6982C141.927 31.9778 141.815 32.3657 141.815 32.8618C141.815 33.358 141.927 33.7459 142.152 34.0255ZM145.771 35V30.7237H146.445V31.4063H146.461C146.585 31.1678 146.762 30.9827 146.992 30.8512C147.222 30.7168 147.498 30.6497 147.818 30.6497C148.284 30.6497 148.647 30.7908 148.908 31.0732C149.168 31.3528 149.299 31.7367 149.299 32.2246V35H148.583V32.352C148.583 32.0038 148.501 31.7393 148.336 31.5584C148.172 31.3747 147.927 31.2829 147.6 31.2829C147.263 31.2829 146.993 31.3925 146.79 31.6118C146.587 31.8311 146.486 32.1218 146.486 32.4837V35H145.771ZM150.442 29.6917H151.157V30.7237H151.988V31.3118H151.157V33.8528C151.157 34.0475 151.2 34.1913 151.285 34.2845C151.37 34.375 151.504 34.4202 151.687 34.4202C151.803 34.4202 151.901 34.4134 151.984 34.3997V35C151.89 35.0219 151.74 35.0329 151.531 35.0329C151.139 35.0329 150.86 34.9452 150.692 34.7697C150.525 34.5943 150.442 34.301 150.442 33.8898V31.3118H149.804V30.7237H150.442V29.6917ZM152.789 35V29.0667H153.505V31.4063H153.521C153.642 31.165 153.817 30.9786 154.048 30.847C154.281 30.7155 154.558 30.6497 154.878 30.6497C155.344 30.6497 155.712 30.7936 155.98 31.0814C156.249 31.3692 156.383 31.7544 156.383 32.2368V35H155.668V32.3685C155.668 32.0231 155.581 31.7559 155.409 31.5667C155.239 31.3776 154.988 31.2829 154.656 31.2829C154.303 31.2829 154.022 31.3939 153.813 31.616C153.608 31.838 153.505 32.1354 153.505 32.5082V35H152.789Z" fill="black"/>
<path d="M103 140.812C107.395 140.812 109.565 135.675 114.108 135.675C118.652 135.675 121.076 145.511 124.502 145.511C127.928 145.511 130.259 138.437 133.688 138.036C141.178 137.162 142.703 131.239 147.318 130.051C151.117 129.073 154.427 142.526 157.543 142.829C164.444 143.5 166.67 131.719 170 133.635" stroke="#17B294" stroke-linecap="round" stroke-linejoin="round"/>
<path d="M103 67.8117C107.395 67.8117 106.957 75.5001 111.5 75.5001C116.043 75.5001 121.074 67.8117 124.5 67.8117C125.618 67.8117 127.186 68.0693 128.909 68.4023C135.415 69.6595 143.788 71.6457 146.11 65.4394C147.106 62.7766 148.032 60.0065 150 59.5001C153.799 58.5224 157.385 68.197 160.5 68.5C167.401 69.1713 166.5 60.5 170 59" stroke="#17B294" stroke-linecap="round" stroke-linejoin="round"/>
<path d="M103 102.5C107.361 102.5 106.991 99 111.5 99C116.009 99 118.6 106.5 122 106.5C123.62 106.5 124.627 106.366 125.605 106.182C128.185 105.695 131.337 106.554 133.252 104.757C135.152 102.973 134.172 98.8868 137.5 98C145.461 95.8787 156.834 106.075 165.019 105.14C166.391 104.984 167.456 104.27 168 102.863" stroke="#17B294" stroke-linecap="round" stroke-linejoin="round"/>
<path d="M38.6875 70.5352H38.1641V70.0117C37.6354 69.9727 37.2109 69.8125 36.8906 69.5312C36.5729 69.25 36.4128 68.8919 36.4102 68.457H37.0781C37.099 68.7174 37.2044 68.931 37.3945 69.0977C37.5846 69.2643 37.8411 69.3672 38.1641 69.4062V67.375L37.8516 67.2891C37.4323 67.1797 37.1094 67 36.8828 66.75C36.6589 66.5 36.5469 66.194 36.5469 65.832C36.5469 65.4049 36.6914 65.0547 36.9805 64.7812C37.2695 64.5078 37.6641 64.3464 38.1641 64.2969V63.75H38.6875V64.293C39.1745 64.3346 39.5664 64.4948 39.8633 64.7734C40.1628 65.0521 40.319 65.4023 40.332 65.8242H39.668C39.6602 65.582 39.5664 65.3763 39.3867 65.207C39.2096 65.0352 38.9766 64.9323 38.6875 64.8984V66.8086L39.0195 66.8906C39.4987 67.0182 39.8529 67.2044 40.082 67.4492C40.3138 67.694 40.4297 68.013 40.4297 68.4062C40.4297 68.8672 40.276 69.2383 39.9688 69.5195C39.6641 69.8008 39.237 69.9635 38.6875 70.0078V70.5352ZM39.7539 68.4609C39.7539 68.2031 39.668 67.9948 39.4961 67.8359C39.3242 67.6771 39.0547 67.5586 38.6875 67.4805V69.418C39.026 69.3997 39.2878 69.3073 39.4727 69.1406C39.6602 68.974 39.7539 68.7474 39.7539 68.4609ZM37.2188 65.793C37.2188 66.2617 37.5339 66.5625 38.1641 66.6953V64.8984C37.8906 64.9141 37.6641 65.0065 37.4844 65.1758C37.3073 65.3424 37.2188 65.5482 37.2188 65.793ZM44.3789 70V65.1094H44.3633L42.8711 66.1836V65.4414L44.3711 64.3633H45.0586V70H44.3789ZM47.6367 67.3984V66.8047H48.3125C48.6354 66.8047 48.8997 66.7122 49.1055 66.5273C49.3112 66.3398 49.4141 66.1029 49.4141 65.8164C49.4141 65.5299 49.319 65.3021 49.1289 65.1328C48.9388 64.9635 48.6693 64.8789 48.3203 64.8789C47.9974 64.8789 47.7344 64.9648 47.5312 65.1367C47.3281 65.3086 47.2109 65.543 47.1797 65.8398H46.5039C46.543 65.3607 46.7279 64.9792 47.0586 64.6953C47.3919 64.4115 47.8229 64.2695 48.3516 64.2695C48.8594 64.2695 49.2812 64.4062 49.6172 64.6797C49.9531 64.9531 50.1211 65.3008 50.1211 65.7227C50.1211 66.0742 50.0169 66.3698 49.8086 66.6094C49.6003 66.849 49.319 67 48.9648 67.0625V67.0781C49.3919 67.1042 49.7318 67.2409 49.9844 67.4883C50.237 67.7331 50.3633 68.0534 50.3633 68.4492C50.3633 68.7643 50.2747 69.0482 50.0977 69.3008C49.9206 69.5534 49.681 69.7487 49.3789 69.8867C49.0768 70.0247 48.7422 70.0938 48.375 70.0938C47.7917 70.0938 47.3216 69.9479 46.9648 69.6562C46.6081 69.3646 46.4167 68.9818 46.3906 68.5078H47.0664C47.0977 68.8021 47.2292 69.0391 47.4609 69.2188C47.6927 69.3958 47.9948 69.4844 48.3672 69.4844C48.7396 69.4844 49.0456 69.3893 49.2852 69.1992C49.5273 69.0091 49.6484 68.7669 49.6484 68.4727C49.6484 68.1419 49.5312 67.8802 49.2969 67.6875C49.0651 67.4948 48.7474 67.3984 48.3438 67.3984H47.6367ZM51.5547 71.1211H50.9883L51.3672 69.1328H52.0898L51.5547 71.1211ZM55.8164 70V68.8281H52.9844V68.1914C53.2266 67.7409 53.5339 67.2266 53.9062 66.6484C54.2812 66.0703 54.7982 65.3086 55.457 64.3633H56.4961V68.2109H57.293V68.8281H56.4961V70H55.8164ZM53.6797 68.1953V68.2109H55.8164V64.9492H55.8047C54.8177 66.3581 54.1094 67.4401 53.6797 68.1953ZM59.1289 67.3984V66.8047H59.8047C60.1276 66.8047 60.3919 66.7122 60.5977 66.5273C60.8034 66.3398 60.9062 66.1029 60.9062 65.8164C60.9062 65.5299 60.8112 65.3021 60.6211 65.1328C60.431 64.9635 60.1615 64.8789 59.8125 64.8789C59.4896 64.8789 59.2266 64.9648 59.0234 65.1367C58.8203 65.3086 58.7031 65.543 58.6719 65.8398H57.9961C58.0352 65.3607 58.2201 64.9792 58.5508 64.6953C58.8841 64.4115 59.3151 64.2695 59.8438 64.2695C60.3516 64.2695 60.7734 64.4062 61.1094 64.6797C61.4453 64.9531 61.6133 65.3008 61.6133 65.7227C61.6133 66.0742 61.5091 66.3698 61.3008 66.6094C61.0924 66.849 60.8112 67 60.457 67.0625V67.0781C60.8841 67.1042 61.224 67.2409 61.4766 67.4883C61.7292 67.7331 61.8555 68.0534 61.8555 68.4492C61.8555 68.7643 61.7669 69.0482 61.5898 69.3008C61.4128 69.5534 61.1732 69.7487 60.8711 69.8867C60.569 70.0247 60.2344 70.0938 59.8672 70.0938C59.2839 70.0938 58.8138 69.9479 58.457 69.6562C58.1003 69.3646 57.9089 68.9818 57.8828 68.5078H58.5586C58.5898 68.8021 58.7214 69.0391 58.9531 69.2188C59.1849 69.3958 59.487 69.4844 59.8594 69.4844C60.2318 69.4844 60.5378 69.3893 60.7773 69.1992C61.0195 69.0091 61.1406 68.7669 61.1406 68.4727C61.1406 68.1419 61.0234 67.8802 60.7891 67.6875C60.5573 67.4948 60.2396 67.3984 59.8359 67.3984H59.1289ZM64.6523 70.0938C64.1133 70.0938 63.6628 69.9414 63.3008 69.6367C62.9414 69.332 62.7474 68.9401 62.7188 68.4609H63.4102C63.4414 68.7604 63.5729 69.0052 63.8047 69.1953C64.0365 69.3828 64.3216 69.4766 64.6602 69.4766C65.043 69.4766 65.3542 69.3568 65.5938 69.1172C65.8359 68.8776 65.957 68.5677 65.957 68.1875C65.957 67.8073 65.8359 67.4961 65.5938 67.2539C65.3542 67.0091 65.0469 66.8867 64.6719 66.8867C64.4089 66.8867 64.1706 66.9427 63.957 67.0547C63.7435 67.1667 63.5794 67.3216 63.4648 67.5195H62.8047L63.1133 64.3633H66.3398V64.9883H63.6914L63.5195 66.8242H63.5352C63.6628 66.6549 63.8372 66.5221 64.0586 66.4258C64.2826 66.3294 64.5286 66.2812 64.7969 66.2812C65.3385 66.2812 65.7839 66.4596 66.1328 66.8164C66.4844 67.1706 66.6602 67.6211 66.6602 68.168C66.6602 68.7331 66.4727 69.1953 66.0977 69.5547C65.7227 69.9141 65.2409 70.0938 64.6523 70.0938ZM69.332 70.0938C68.7357 70.0938 68.2461 69.9427 67.8633 69.6406C67.4805 69.3359 67.2891 68.9479 67.2891 68.4766C67.2891 68.125 67.3997 67.8164 67.6211 67.5508C67.8424 67.2852 68.1354 67.1107 68.5 67.0273V67.0117C68.1953 66.918 67.9544 66.7591 67.7773 66.5352C67.6003 66.3086 67.5117 66.0469 67.5117 65.75C67.5117 65.3255 67.6836 64.9727 68.0273 64.6914C68.3737 64.4102 68.8086 64.2695 69.332 64.2695C69.8581 64.2695 70.2917 64.4102 70.6328 64.6914C70.9766 64.9701 71.1484 65.3242 71.1484 65.7539C71.1484 66.0482 71.0612 66.3073 70.8867 66.5312C70.7122 66.7552 70.4714 66.9154 70.1641 67.0117V67.0273C70.5286 67.1133 70.8216 67.2891 71.043 67.5547C71.2669 67.8203 71.3789 68.1276 71.3789 68.4766C71.3789 68.9479 71.1875 69.3359 70.8047 69.6406C70.4219 69.9427 69.931 70.0938 69.332 70.0938ZM69.332 69.4805C69.7201 69.4805 70.0378 69.3815 70.2852 69.1836C70.5352 68.9857 70.6602 68.7331 70.6602 68.4258C70.6602 68.1159 70.5352 67.862 70.2852 67.6641C70.0378 67.4661 69.7201 67.3672 69.332 67.3672C68.944 67.3672 68.625 67.4674 68.375 67.668C68.1276 67.8659 68.0039 68.1185 68.0039 68.4258C68.0039 68.7331 68.1289 68.9857 68.3789 69.1836C68.6289 69.3815 68.9466 69.4805 69.332 69.4805ZM69.332 66.75C69.6602 66.75 69.9284 66.6628 70.1367 66.4883C70.3477 66.3138 70.4531 66.0898 70.4531 65.8164C70.4531 65.5404 70.349 65.3151 70.1406 65.1406C69.9323 64.9635 69.6628 64.875 69.332 64.875C69.0013 64.875 68.7318 64.9635 68.5234 65.1406C68.3151 65.3151 68.2109 65.5404 68.2109 65.8164C68.2109 66.0898 68.3151 66.3138 68.5234 66.4883C68.7318 66.6628 69.0013 66.75 69.332 66.75ZM73.9844 70.0938C73.5052 70.0938 73.0951 69.9609 72.7539 69.6953C72.4128 69.4297 72.1992 69.0755 72.1133 68.6328H72.8281C72.9036 68.888 73.0469 69.0938 73.2578 69.25C73.4688 69.4036 73.7135 69.4805 73.9922 69.4805C74.4609 69.4805 74.8242 69.2773 75.082 68.8711C75.3424 68.4622 75.4779 67.8828 75.4883 67.1328H75.4844H75.4766C75.3568 67.4115 75.1536 67.6354 74.8672 67.8047C74.5833 67.9714 74.2617 68.0547 73.9023 68.0547C73.3659 68.0547 72.9193 67.8776 72.5625 67.5234C72.2083 67.1693 72.0312 66.7253 72.0312 66.1914C72.0312 65.6341 72.2188 65.1745 72.5938 64.8125C72.9714 64.4479 73.4492 64.2656 74.0273 64.2656C74.4518 64.2656 74.8255 64.3763 75.1484 64.5977C75.4714 64.8164 75.7188 65.1276 75.8906 65.5312C76.0755 65.9583 76.168 66.4766 76.168 67.0859C76.168 68.0365 75.9766 68.776 75.5938 69.3047C75.2109 69.8307 74.6745 70.0938 73.9844 70.0938ZM74.0234 67.4375C74.3958 67.4375 74.7057 67.319 74.9531 67.082C75.2005 66.8451 75.3242 66.5469 75.3242 66.1875C75.3242 65.8255 75.1992 65.5208 74.9492 65.2734C74.7018 65.0234 74.3971 64.8984 74.0352 64.8984C73.6732 64.8984 73.3672 65.0221 73.1172 65.2695C72.8672 65.5143 72.7422 65.8138 72.7422 66.168C72.7422 66.5352 72.8633 66.8385 73.1055 67.0781C73.3477 67.3177 73.6536 67.4375 74.0234 67.4375Z" fill="black"/>
<path d="M38.6875 105.535H38.1641V105.012C37.6354 104.973 37.2109 104.812 36.8906 104.531C36.5729 104.25 36.4128 103.892 36.4102 103.457H37.0781C37.099 103.717 37.2044 103.931 37.3945 104.098C37.5846 104.264 37.8411 104.367 38.1641 104.406V102.375L37.8516 102.289C37.4323 102.18 37.1094 102 36.8828 101.75C36.6589 101.5 36.5469 101.194 36.5469 100.832C36.5469 100.405 36.6914 100.055 36.9805 99.7812C37.2695 99.5078 37.6641 99.3464 38.1641 99.2969V98.75H38.6875V99.293C39.1745 99.3346 39.5664 99.4948 39.8633 99.7734C40.1628 100.052 40.319 100.402 40.332 100.824H39.668C39.6602 100.582 39.5664 100.376 39.3867 100.207C39.2096 100.035 38.9766 99.9323 38.6875 99.8984V101.809L39.0195 101.891C39.4987 102.018 39.8529 102.204 40.082 102.449C40.3138 102.694 40.4297 103.013 40.4297 103.406C40.4297 103.867 40.276 104.238 39.9688 104.52C39.6641 104.801 39.237 104.963 38.6875 105.008V105.535ZM39.7539 103.461C39.7539 103.203 39.668 102.995 39.4961 102.836C39.3242 102.677 39.0547 102.559 38.6875 102.48V104.418C39.026 104.4 39.2878 104.307 39.4727 104.141C39.6602 103.974 39.7539 103.747 39.7539 103.461ZM37.2188 100.793C37.2188 101.262 37.5339 101.562 38.1641 101.695V99.8984C37.8906 99.9141 37.6641 100.006 37.4844 100.176C37.3073 100.342 37.2188 100.548 37.2188 100.793ZM44.0898 102.398V101.805H44.7656C45.0885 101.805 45.3529 101.712 45.5586 101.527C45.7643 101.34 45.8672 101.103 45.8672 100.816C45.8672 100.53 45.7721 100.302 45.582 100.133C45.3919 99.9635 45.1224 99.8789 44.7734 99.8789C44.4505 99.8789 44.1875 99.9648 43.9844 100.137C43.7812 100.309 43.6641 100.543 43.6328 100.84H42.957C42.9961 100.361 43.181 99.9792 43.5117 99.6953C43.8451 99.4115 44.276 99.2695 44.8047 99.2695C45.3125 99.2695 45.7344 99.4062 46.0703 99.6797C46.4062 99.9531 46.5742 100.301 46.5742 100.723C46.5742 101.074 46.4701 101.37 46.2617 101.609C46.0534 101.849 45.7721 102 45.418 102.062V102.078C45.8451 102.104 46.1849 102.241 46.4375 102.488C46.6901 102.733 46.8164 103.053 46.8164 103.449C46.8164 103.764 46.7279 104.048 46.5508 104.301C46.3737 104.553 46.1341 104.749 45.832 104.887C45.5299 105.025 45.1953 105.094 44.8281 105.094C44.2448 105.094 43.7747 104.948 43.418 104.656C43.0612 104.365 42.8698 103.982 42.8438 103.508H43.5195C43.5508 103.802 43.6823 104.039 43.9141 104.219C44.1458 104.396 44.4479 104.484 44.8203 104.484C45.1927 104.484 45.4987 104.389 45.7383 104.199C45.9805 104.009 46.1016 103.767 46.1016 103.473C46.1016 103.142 45.9844 102.88 45.75 102.688C45.5182 102.495 45.2005 102.398 44.7969 102.398H44.0898ZM47.6406 100.988C47.6406 100.496 47.8177 100.087 48.1719 99.7617C48.526 99.4336 48.9688 99.2695 49.5 99.2695C50.0026 99.2695 50.4284 99.4193 50.7773 99.7188C51.1263 100.018 51.3008 100.384 51.3008 100.816C51.3008 101.129 51.2148 101.43 51.043 101.719C50.8711 102.008 50.5482 102.397 50.0742 102.887L48.6484 104.359V104.375H51.3945V105H47.6758V104.516L49.6602 102.426C50.0378 102.027 50.2878 101.725 50.4102 101.52C50.5352 101.314 50.5977 101.094 50.5977 100.859C50.5977 100.588 50.4883 100.358 50.2695 100.168C50.0534 99.9779 49.7904 99.8828 49.4805 99.8828C49.1497 99.8828 48.8737 99.9883 48.6523 100.199C48.431 100.41 48.3203 100.673 48.3203 100.988V100.992H47.6406V100.988ZM52.6562 106.121H52.0898L52.4688 104.133H53.1914L52.6562 106.121ZM56.918 105V103.828H54.0859V103.191C54.3281 102.741 54.6354 102.227 55.0078 101.648C55.3828 101.07 55.8997 100.309 56.5586 99.3633H57.5977V103.211H58.3945V103.828H57.5977V105H56.918ZM54.7812 103.195V103.211H56.918V99.9492H56.9062C55.9193 101.358 55.2109 102.44 54.7812 103.195ZM60.2305 102.398V101.805H60.9062C61.2292 101.805 61.4935 101.712 61.6992 101.527C61.9049 101.34 62.0078 101.103 62.0078 100.816C62.0078 100.53 61.9128 100.302 61.7227 100.133C61.5326 99.9635 61.263 99.8789 60.9141 99.8789C60.5911 99.8789 60.3281 99.9648 60.125 100.137C59.9219 100.309 59.8047 100.543 59.7734 100.84H59.0977C59.1367 100.361 59.3216 99.9792 59.6523 99.6953C59.9857 99.4115 60.4167 99.2695 60.9453 99.2695C61.4531 99.2695 61.875 99.4062 62.2109 99.6797C62.5469 99.9531 62.7148 100.301 62.7148 100.723C62.7148 101.074 62.6107 101.37 62.4023 101.609C62.194 101.849 61.9128 102 61.5586 102.062V102.078C61.9857 102.104 62.3255 102.241 62.5781 102.488C62.8307 102.733 62.957 103.053 62.957 103.449C62.957 103.764 62.8685 104.048 62.6914 104.301C62.5143 104.553 62.2747 104.749 61.9727 104.887C61.6706 105.025 61.3359 105.094 60.9688 105.094C60.3854 105.094 59.9154 104.948 59.5586 104.656C59.2018 104.365 59.0104 103.982 58.9844 103.508H59.6602C59.6914 103.802 59.8229 104.039 60.0547 104.219C60.2865 104.396 60.5885 104.484 60.9609 104.484C61.3333 104.484 61.6393 104.389 61.8789 104.199C62.1211 104.009 62.2422 103.767 62.2422 103.473C62.2422 103.142 62.125 102.88 61.8906 102.688C61.6589 102.495 61.3411 102.398 60.9375 102.398H60.2305ZM65.8555 105.098C65.4336 105.098 65.0612 104.988 64.7383 104.77C64.4154 104.548 64.1667 104.234 63.9922 103.828C63.8073 103.401 63.7148 102.884 63.7148 102.277C63.7148 101.327 63.9062 100.587 64.2891 100.059C64.6745 99.5299 65.2122 99.2656 65.9023 99.2656C66.3815 99.2656 66.7904 99.3984 67.1289 99.6641C67.4674 99.9297 67.6823 100.284 67.7734 100.727H67.0586C66.9831 100.471 66.8398 100.268 66.6289 100.117C66.418 99.9635 66.1732 99.8867 65.8945 99.8867C65.4232 99.8867 65.0586 100.089 64.8008 100.492C64.543 100.896 64.4076 101.473 64.3945 102.223H64.4062C64.5339 101.947 64.7409 101.725 65.0273 101.559C65.3138 101.392 65.6315 101.309 65.9805 101.309C66.5169 101.309 66.9622 101.486 67.3164 101.84C67.6732 102.194 67.8516 102.638 67.8516 103.172C67.8516 103.729 67.6628 104.19 67.2852 104.555C66.9102 104.917 66.4336 105.098 65.8555 105.098ZM64.9336 104.098C65.1836 104.348 65.4883 104.473 65.8477 104.473C66.207 104.473 66.5117 104.349 66.7617 104.102C67.0117 103.854 67.1367 103.552 67.1367 103.195C67.1367 102.825 67.0169 102.522 66.7773 102.285C66.5378 102.046 66.2318 101.926 65.8594 101.926C65.487 101.926 65.1771 102.044 64.9297 102.281C64.6849 102.518 64.5625 102.816 64.5625 103.176C64.5625 103.538 64.6862 103.845 64.9336 104.098ZM69.7539 102.398V101.805H70.4297C70.7526 101.805 71.0169 101.712 71.2227 101.527C71.4284 101.34 71.5312 101.103 71.5312 100.816C71.5312 100.53 71.4362 100.302 71.2461 100.133C71.056 99.9635 70.7865 99.8789 70.4375 99.8789C70.1146 99.8789 69.8516 99.9648 69.6484 100.137C69.4453 100.309 69.3281 100.543 69.2969 100.84H68.6211C68.6602 100.361 68.8451 99.9792 69.1758 99.6953C69.5091 99.4115 69.9401 99.2695 70.4688 99.2695C70.9766 99.2695 71.3984 99.4062 71.7344 99.6797C72.0703 99.9531 72.2383 100.301 72.2383 100.723C72.2383 101.074 72.1341 101.37 71.9258 101.609C71.7174 101.849 71.4362 102 71.082 102.062V102.078C71.5091 102.104 71.849 102.241 72.1016 102.488C72.3542 102.733 72.4805 103.053 72.4805 103.449C72.4805 103.764 72.3919 104.048 72.2148 104.301C72.0378 104.553 71.7982 104.749 71.4961 104.887C71.194 105.025 70.8594 105.094 70.4922 105.094C69.9089 105.094 69.4388 104.948 69.082 104.656C68.7253 104.365 68.5339 103.982 68.5078 103.508H69.1836C69.2148 103.802 69.3464 104.039 69.5781 104.219C69.8099 104.396 70.112 104.484 70.4844 104.484C70.8568 104.484 71.1628 104.389 71.4023 104.199C71.6445 104.009 71.7656 103.767 71.7656 103.473C71.7656 103.142 71.6484 102.88 71.4141 102.688C71.1823 102.495 70.8646 102.398 70.4609 102.398H69.7539Z" fill="black"/>
<path d="M38.6875 140.535H38.1641V140.012C37.6354 139.973 37.2109 139.812 36.8906 139.531C36.5729 139.25 36.4128 138.892 36.4102 138.457H37.0781C37.099 138.717 37.2044 138.931 37.3945 139.098C37.5846 139.264 37.8411 139.367 38.1641 139.406V137.375L37.8516 137.289C37.4323 137.18 37.1094 137 36.8828 136.75C36.6589 136.5 36.5469 136.194 36.5469 135.832C36.5469 135.405 36.6914 135.055 36.9805 134.781C37.2695 134.508 37.6641 134.346 38.1641 134.297V133.75H38.6875V134.293C39.1745 134.335 39.5664 134.495 39.8633 134.773C40.1628 135.052 40.319 135.402 40.332 135.824H39.668C39.6602 135.582 39.5664 135.376 39.3867 135.207C39.2096 135.035 38.9766 134.932 38.6875 134.898V136.809L39.0195 136.891C39.4987 137.018 39.8529 137.204 40.082 137.449C40.3138 137.694 40.4297 138.013 40.4297 138.406C40.4297 138.867 40.276 139.238 39.9688 139.52C39.6641 139.801 39.237 139.964 38.6875 140.008V140.535ZM39.7539 138.461C39.7539 138.203 39.668 137.995 39.4961 137.836C39.3242 137.677 39.0547 137.559 38.6875 137.48V139.418C39.026 139.4 39.2878 139.307 39.4727 139.141C39.6602 138.974 39.7539 138.747 39.7539 138.461ZM37.2188 135.793C37.2188 136.262 37.5339 136.562 38.1641 136.695V134.898C37.8906 134.914 37.6641 135.007 37.4844 135.176C37.3073 135.342 37.2188 135.548 37.2188 135.793ZM42.9062 135.988C42.9062 135.496 43.0833 135.087 43.4375 134.762C43.7917 134.434 44.2344 134.27 44.7656 134.27C45.2682 134.27 45.694 134.419 46.043 134.719C46.3919 135.018 46.5664 135.384 46.5664 135.816C46.5664 136.129 46.4805 136.43 46.3086 136.719C46.1367 137.008 45.8138 137.397 45.3398 137.887L43.9141 139.359V139.375H46.6602V140H42.9414V139.516L44.9258 137.426C45.3034 137.027 45.5534 136.725 45.6758 136.52C45.8008 136.314 45.8633 136.094 45.8633 135.859C45.8633 135.589 45.7539 135.358 45.5352 135.168C45.319 134.978 45.056 134.883 44.7461 134.883C44.4154 134.883 44.1393 134.988 43.918 135.199C43.6966 135.41 43.5859 135.673 43.5859 135.988V135.992H42.9062V135.988ZM49.957 140V138.828H47.125V138.191C47.3672 137.741 47.6745 137.227 48.0469 136.648C48.4219 136.07 48.9388 135.309 49.5977 134.363H50.6367V138.211H51.4336V138.828H50.6367V140H49.957ZM47.8203 138.195V138.211H49.957V134.949H49.9453C48.9583 136.358 48.25 137.44 47.8203 138.195ZM52.5703 141.121H52.0039L52.3828 139.133H53.1055L52.5703 141.121ZM56.832 140V138.828H54V138.191C54.2422 137.741 54.5495 137.227 54.9219 136.648C55.2969 136.07 55.8138 135.309 56.4727 134.363H57.5117V138.211H58.3086V138.828H57.5117V140H56.832ZM54.6953 138.195V138.211H56.832V134.949H56.8203C55.8333 136.358 55.125 137.44 54.6953 138.195ZM60.1445 137.398V136.805H60.8203C61.1432 136.805 61.4076 136.712 61.6133 136.527C61.819 136.34 61.9219 136.103 61.9219 135.816C61.9219 135.53 61.8268 135.302 61.6367 135.133C61.4466 134.964 61.1771 134.879 60.8281 134.879C60.5052 134.879 60.2422 134.965 60.0391 135.137C59.8359 135.309 59.7188 135.543 59.6875 135.84H59.0117C59.0508 135.361 59.2357 134.979 59.5664 134.695C59.8997 134.411 60.3307 134.27 60.8594 134.27C61.3672 134.27 61.7891 134.406 62.125 134.68C62.4609 134.953 62.6289 135.301 62.6289 135.723C62.6289 136.074 62.5247 136.37 62.3164 136.609C62.1081 136.849 61.8268 137 61.4727 137.062V137.078C61.8997 137.104 62.2396 137.241 62.4922 137.488C62.7448 137.733 62.8711 138.053 62.8711 138.449C62.8711 138.764 62.7826 139.048 62.6055 139.301C62.4284 139.553 62.1888 139.749 61.8867 139.887C61.5846 140.025 61.25 140.094 60.8828 140.094C60.2995 140.094 59.8294 139.948 59.4727 139.656C59.1159 139.365 58.9245 138.982 58.8984 138.508H59.5742C59.6055 138.802 59.737 139.039 59.9688 139.219C60.2005 139.396 60.5026 139.484 60.875 139.484C61.2474 139.484 61.5534 139.389 61.793 139.199C62.0352 139.009 62.1562 138.767 62.1562 138.473C62.1562 138.142 62.0391 137.88 61.8047 137.688C61.5729 137.495 61.2552 137.398 60.8516 137.398H60.1445ZM66.4102 140V138.828H63.5781V138.191C63.8203 137.741 64.1276 137.227 64.5 136.648C64.875 136.07 65.3919 135.309 66.0508 134.363H67.0898V138.211H67.8867V138.828H67.0898V140H66.4102ZM64.2734 138.195V138.211H66.4102V134.949H66.3984C65.4115 136.358 64.7031 137.44 64.2734 138.195ZM70.5117 140.094C69.9727 140.094 69.5221 139.941 69.1602 139.637C68.8008 139.332 68.6068 138.94 68.5781 138.461H69.2695C69.3008 138.76 69.4323 139.005 69.6641 139.195C69.8958 139.383 70.181 139.477 70.5195 139.477C70.9023 139.477 71.2135 139.357 71.4531 139.117C71.6953 138.878 71.8164 138.568 71.8164 138.188C71.8164 137.807 71.6953 137.496 71.4531 137.254C71.2135 137.009 70.9062 136.887 70.5312 136.887C70.2682 136.887 70.0299 136.943 69.8164 137.055C69.6029 137.167 69.4388 137.322 69.3242 137.52H68.6641L68.9727 134.363H72.1992V134.988H69.5508L69.3789 136.824H69.3945C69.5221 136.655 69.6966 136.522 69.918 136.426C70.1419 136.329 70.388 136.281 70.6562 136.281C71.1979 136.281 71.6432 136.46 71.9922 136.816C72.3438 137.171 72.5195 137.621 72.5195 138.168C72.5195 138.733 72.332 139.195 71.957 139.555C71.582 139.914 71.1003 140.094 70.5117 140.094ZM75.293 140.098C74.8711 140.098 74.4987 139.988 74.1758 139.77C73.8529 139.548 73.6042 139.234 73.4297 138.828C73.2448 138.401 73.1523 137.884 73.1523 137.277C73.1523 136.327 73.3438 135.587 73.7266 135.059C74.112 134.53 74.6497 134.266 75.3398 134.266C75.819 134.266 76.2279 134.398 76.5664 134.664C76.9049 134.93 77.1198 135.284 77.2109 135.727H76.4961C76.4206 135.471 76.2773 135.268 76.0664 135.117C75.8555 134.964 75.6107 134.887 75.332 134.887C74.8607 134.887 74.4961 135.089 74.2383 135.492C73.9805 135.896 73.8451 136.473 73.832 137.223H73.8438C73.9714 136.947 74.1784 136.725 74.4648 136.559C74.7513 136.392 75.069 136.309 75.418 136.309C75.9544 136.309 76.3997 136.486 76.7539 136.84C77.1107 137.194 77.2891 137.638 77.2891 138.172C77.2891 138.729 77.1003 139.19 76.7227 139.555C76.3477 139.917 75.8711 140.098 75.293 140.098ZM74.3711 139.098C74.6211 139.348 74.9258 139.473 75.2852 139.473C75.6445 139.473 75.9492 139.349 76.1992 139.102C76.4492 138.854 76.5742 138.552 76.5742 138.195C76.5742 137.826 76.4544 137.522 76.2148 137.285C75.9753 137.046 75.6693 136.926 75.2969 136.926C74.9245 136.926 74.6146 137.044 74.3672 137.281C74.1224 137.518 74 137.816 74 138.176C74 138.538 74.1237 138.845 74.3711 139.098Z" fill="black"/>
</g>
<defs>
<filter id="filter0_d_93_64" x="0" y="0" width="198" height="174" filterUnits="userSpaceOnUse" color-interpolation-filters="sRGB">
<feFlood flood-opacity="0" result="BackgroundImageFix"/>
<feColorMatrix in="SourceAlpha" type="matrix" values="0 0 0 0 0 0 0 0 0 0 0 0 0 0 0 0 0 0 127 0" result="hardAlpha"/>
<feOffset/>
<feGaussianBlur stdDeviation="6"/>
<feComposite in2="hardAlpha" operator="out"/>
<feColorMatrix type="matrix" values="0 0 0 0 0 0 0 0 0 0 0 0 0 0 0 0 0 0 0.4 0"/>
<feBlend mode="normal" in2="BackgroundImageFix" result="effect1_dropShadow_93_64"/>
<feBlend mode="normal" in="SourceGraphic" in2="effect1_dropShadow_93_64" result="shape"/>
</filter>
</defs>
</svg>
