<svg width="116" height="2238" viewBox="0 0 116 2238" fill="none" xmlns="http://www.w3.org/2000/svg">
<path d="M80.2304 2233.12C73.248 2236.1 65.8017 2237.59 57.8915 2237.59C49.9814 2237.59 42.5107 2236.1 35.4794 2233.12C26.1027 2229.17 18.8404 2224.45 11.6353 2215.55C3.19124 2205.11 0.50039 2192.71 0.502518 2179.29C0.536808 1962.95 0.908791 65.3401 0.839691 58C0.83784 57.8033 0.836914 57.6064 0.836914 57.4092C0.836914 49.499 2.32617 42.0527 5.30469 35.0703C11.2617 20.8125 21.3203 10.7051 35.4805 4.74805C42.5117 1.76953 49.9824 0.280273 57.8926 0.280273C65.8027 0.280273 73.249 1.76953 80.2314 4.74805C94.4893 10.7051 104.597 20.8125 110.554 35.0703C113.532 42.0527 115.021 49.499 115.021 57.4092C115.021 57.6064 115.02 2180.86 115.018 2181.05C114.945 2188.74 113.457 2196.02 110.553 2202.87C104.547 2217.08 94.4394 2227.17 80.2304 2233.12ZM57.8915 2226.39C64.3369 2226.39 70.3427 2225.19 75.9091 2222.8C81.622 2220.35 86.4804 2217.13 90.4843 2213.13C94.6347 2208.98 97.8818 2204.07 100.226 2198.41C102.543 2192.87 103.738 2187.09 103.811 2181.05C103.813 2180.86 103.815 57.6064 103.815 57.4092C103.815 50.9639 102.619 44.958 100.227 39.3916C97.7852 33.5811 94.5381 28.6982 90.4854 24.7432C86.335 20.5928 81.4277 17.3457 75.7637 15.002C70.0996 12.6094 64.1426 11.4131 57.8926 11.4131C51.6914 11.4131 45.7344 12.6094 40.0215 15.002C34.3086 17.3457 29.4014 20.5928 25.2998 24.7432C21.2959 28.7471 18.0732 33.6299 15.6318 39.3916C13.2393 44.958 12.043 50.9639 12.043 57.4092C12.043 57.6064 12.0431 2180.86 12.0454 2181.05C12.117 2187.09 13.2878 2192.87 15.5576 2198.41C17.9013 2204.07 21.1484 2208.98 25.2988 2213.13C29.3027 2217.13 34.1611 2220.35 39.874 2222.8C45.538 2225.19 51.5439 2226.39 57.8915 2226.39ZM57.8915 2187.27C56.0361 2187.27 54.4492 2186.61 53.1308 2185.3C51.897 2184.02 51.2612 2182.93 51.2265 2181.05C51.2255 2181 51.2276 57.3909 51.2276 57.3359C51.2276 55.4316 51.8623 53.8447 53.1319 52.5752C54.4502 51.2568 56.0371 50.5977 57.8926 50.5977C59.7969 50.5977 61.3838 51.2568 62.6533 52.5752C63.9717 53.8447 64.6309 55.4561 64.6309 57.4092C64.6309 57.4628 64.6309 2181 64.6298 2181.05C64.5938 2182.89 63.9335 2184.02 62.6523 2185.3C61.3827 2186.61 59.7958 2187.27 57.8915 2187.27Z" fill="white"/>
</svg>
