<svg width="110" height="93" viewBox="0 0 110 93" fill="none" xmlns="http://www.w3.org/2000/svg">
<circle cx="54.5" cy="75.5" r="15" fill="#B852FF" stroke="#404040" stroke-width="5"/>
<path fill-rule="evenodd" clip-rule="evenodd" d="M15 0C6.71573 0 0 6.71573 0 15V22C0 30.2843 6.71573 37 15 37H48.0141L55 48L61.9859 37H95C103.284 37 110 30.2843 110 22V15C110 6.71573 103.284 0 95 0H15Z" fill="white"/>
<path d="M12.608 22.516V14.884H13.742V22.516H12.608ZM9.26 19.24V18.178H17.09V19.24H9.26ZM23.1851 27.16V10.24H24.0851V27.16H23.1851ZM23.5631 25.108C22.6271 25.108 21.7271 24.958 20.8631 24.658C20.0111 24.346 19.3511 23.95 18.8831 23.47L19.4051 22.444C19.8491 22.876 20.4431 23.242 21.1871 23.542C21.9431 23.83 22.7351 23.974 23.5631 23.974C24.3551 23.974 24.9971 23.878 25.4891 23.686C25.9931 23.482 26.3591 23.212 26.5871 22.876C26.8271 22.54 26.9471 22.168 26.9471 21.76C26.9471 21.268 26.8031 20.872 26.5151 20.572C26.2391 20.272 25.8731 20.038 25.4171 19.87C24.9611 19.69 24.4571 19.534 23.9051 19.402C23.3531 19.27 22.8011 19.132 22.2491 18.988C21.6971 18.832 21.1871 18.628 20.7191 18.376C20.2631 18.124 19.8911 17.794 19.6031 17.386C19.3271 16.966 19.1891 16.42 19.1891 15.748C19.1891 15.124 19.3511 14.554 19.6751 14.038C20.0111 13.51 20.5211 13.09 21.2051 12.778C21.8891 12.454 22.7651 12.292 23.8331 12.292C24.5411 12.292 25.2431 12.394 25.9391 12.598C26.6351 12.79 27.2351 13.06 27.7391 13.408L27.2891 14.47C26.7491 14.11 26.1731 13.846 25.5611 13.678C24.9611 13.51 24.3791 13.426 23.8151 13.426C23.0591 13.426 22.4351 13.528 21.9431 13.732C21.4511 13.936 21.0851 14.212 20.8451 14.56C20.6171 14.896 20.5031 15.28 20.5031 15.712C20.5031 16.204 20.6411 16.6 20.9171 16.9C21.2051 17.2 21.5771 17.434 22.0331 17.602C22.5011 17.77 23.0111 17.92 23.5631 18.052C24.1151 18.184 24.6611 18.328 25.2011 18.484C25.7531 18.64 26.2571 18.844 26.7131 19.096C27.1811 19.336 27.5531 19.66 27.8291 20.068C28.1171 20.476 28.2611 21.01 28.2611 21.67C28.2611 22.282 28.0931 22.852 27.7571 23.38C27.4211 23.896 26.9051 24.316 26.2091 24.64C25.5251 24.952 24.6431 25.108 23.5631 25.108ZM29.8133 25V24.082L35.0513 18.952C35.5313 18.484 35.8913 18.076 36.1313 17.728C36.3713 17.368 36.5333 17.032 36.6173 16.72C36.7013 16.408 36.7433 16.114 36.7433 15.838C36.7433 15.106 36.4913 14.53 35.9873 14.11C35.4953 13.69 34.7633 13.48 33.7913 13.48C33.0473 13.48 32.3873 13.594 31.8113 13.822C31.2473 14.05 30.7613 14.404 30.3533 14.884L29.4353 14.092C29.9273 13.516 30.5573 13.072 31.3253 12.76C32.0933 12.448 32.9513 12.292 33.8993 12.292C34.7513 12.292 35.4893 12.43 36.1133 12.706C36.7373 12.97 37.2173 13.36 37.5533 13.876C37.9013 14.392 38.0753 14.998 38.0753 15.694C38.0753 16.102 38.0153 16.504 37.8953 16.9C37.7873 17.296 37.5833 17.716 37.2833 18.16C36.9953 18.592 36.5693 19.084 36.0053 19.636L31.1993 24.352L30.8393 23.848H38.6513V25H29.8133ZM44.0398 25.108C43.1278 25.108 42.2638 24.964 41.4478 24.676C40.6438 24.376 39.9958 23.98 39.5038 23.488L40.1338 22.462C40.5418 22.882 41.0878 23.23 41.7718 23.506C42.4678 23.782 43.2238 23.92 44.0398 23.92C45.0838 23.92 45.8818 23.692 46.4338 23.236C46.9978 22.78 47.2798 22.168 47.2798 21.4C47.2798 20.632 47.0038 20.02 46.4518 19.564C45.9118 19.108 45.0538 18.88 43.8778 18.88H42.9778V17.926L46.8658 13.048L47.0458 13.552H40.0258V12.4H48.1258V13.318L44.2378 18.196L43.6078 17.782H44.0938C45.6058 17.782 46.7338 18.118 47.4778 18.79C48.2338 19.462 48.6118 20.326 48.6118 21.382C48.6118 22.09 48.4438 22.726 48.1078 23.29C47.7718 23.854 47.2618 24.298 46.5778 24.622C45.9058 24.946 45.0598 25.108 44.0398 25.108ZM50.222 21.688V20.752L56.9 12.4H58.34L51.716 20.752L51.014 20.536H61.148V21.688H50.222ZM57.332 25V21.688L57.368 20.536V17.62H58.628V25H57.332ZM70.0733 28.492C69.4133 27.4 68.8973 26.14 68.5253 24.712C68.1653 23.272 67.9853 21.724 67.9853 20.068C67.9853 18.412 68.1653 16.864 68.5253 15.424C68.8973 13.972 69.4133 12.712 70.0733 11.644H71.2973C70.5893 12.88 70.0673 14.194 69.7313 15.586C69.4073 16.966 69.2453 18.46 69.2453 20.068C69.2453 21.676 69.4073 23.176 69.7313 24.568C70.0673 25.948 70.5893 27.256 71.2973 28.492H70.0733ZM76.7351 25.108C75.8231 25.108 74.9591 24.964 74.1431 24.676C73.3391 24.376 72.6911 23.98 72.1991 23.488L72.8291 22.462C73.2371 22.882 73.7831 23.23 74.4671 23.506C75.1631 23.782 75.9191 23.92 76.7351 23.92C77.7791 23.92 78.5771 23.692 79.1291 23.236C79.6931 22.78 79.9751 22.168 79.9751 21.4C79.9751 20.632 79.6991 20.02 79.1471 19.564C78.6071 19.108 77.7491 18.88 76.5731 18.88H75.6731V17.926L79.5611 13.048L79.7411 13.552H72.7211V12.4H80.8211V13.318L76.9331 18.196L76.3031 17.782H76.7891C78.3011 17.782 79.4291 18.118 80.1731 18.79C80.9291 19.462 81.3071 20.326 81.3071 21.382C81.3071 22.09 81.1391 22.726 80.8031 23.29C80.4671 23.854 79.9571 24.298 79.2731 24.622C78.6011 24.946 77.7551 25.108 76.7351 25.108ZM84.6495 25L93.2535 12.4H94.3155L85.7115 25H84.6495ZM85.6215 19.15C85.0575 19.15 84.5595 19.012 84.1275 18.736C83.6955 18.448 83.3595 18.046 83.1195 17.53C82.8915 17.014 82.7775 16.414 82.7775 15.73C82.7775 15.046 82.8915 14.446 83.1195 13.93C83.3595 13.414 83.6955 13.018 84.1275 12.742C84.5595 12.454 85.0575 12.31 85.6215 12.31C86.1855 12.31 86.6775 12.454 87.0975 12.742C87.5295 13.018 87.8655 13.414 88.1055 13.93C88.3455 14.446 88.4655 15.046 88.4655 15.73C88.4655 16.414 88.3455 17.014 88.1055 17.53C87.8655 18.046 87.5295 18.448 87.0975 18.736C86.6775 19.012 86.1855 19.15 85.6215 19.15ZM85.6215 18.34C86.2095 18.34 86.6775 18.112 87.0255 17.656C87.3855 17.188 87.5655 16.546 87.5655 15.73C87.5655 14.914 87.3855 14.278 87.0255 13.822C86.6775 13.354 86.2095 13.12 85.6215 13.12C85.0215 13.12 84.5475 13.354 84.1995 13.822C83.8515 14.278 83.6775 14.914 83.6775 15.73C83.6775 16.546 83.8515 17.188 84.1995 17.656C84.5475 18.112 85.0215 18.34 85.6215 18.34ZM93.3435 25.09C92.7915 25.09 92.2995 24.952 91.8675 24.676C91.4355 24.388 91.0995 23.986 90.8595 23.47C90.6195 22.954 90.4995 22.354 90.4995 21.67C90.4995 20.986 90.6195 20.386 90.8595 19.87C91.0995 19.354 91.4355 18.958 91.8675 18.682C92.2995 18.394 92.7915 18.25 93.3435 18.25C93.9195 18.25 94.4175 18.394 94.8375 18.682C95.2695 18.958 95.5995 19.354 95.8275 19.87C96.0675 20.386 96.1875 20.986 96.1875 21.67C96.1875 22.354 96.0675 22.954 95.8275 23.47C95.5995 23.986 95.2695 24.388 94.8375 24.676C94.4175 24.952 93.9195 25.09 93.3435 25.09ZM93.3435 24.28C93.9315 24.28 94.3995 24.052 94.7475 23.596C95.1075 23.128 95.2875 22.486 95.2875 21.67C95.2875 20.854 95.1075 20.218 94.7475 19.762C94.3995 19.294 93.9315 19.06 93.3435 19.06C92.7555 19.06 92.2815 19.294 91.9215 19.762C91.5735 20.218 91.3995 20.854 91.3995 21.67C91.3995 22.486 91.5735 23.128 91.9215 23.596C92.2815 24.052 92.7555 24.28 93.3435 24.28ZM98.5378 28.492H97.3138C98.0338 27.256 98.5558 25.948 98.8798 24.568C99.2158 23.176 99.3838 21.676 99.3838 20.068C99.3838 18.46 99.2158 16.966 98.8798 15.586C98.5558 14.194 98.0338 12.88 97.3138 11.644H98.5378C99.2218 12.712 99.7438 13.972 100.104 15.424C100.464 16.864 100.644 18.412 100.644 20.068C100.644 21.724 100.464 23.272 100.104 24.712C99.7438 26.14 99.2218 27.4 98.5378 28.492Z" fill="black"/>
</svg>
