<svg width="31" height="22" viewBox="0 0 31 22" fill="none" xmlns="http://www.w3.org/2000/svg">
<path fill-rule="evenodd" clip-rule="evenodd" d="M1.25719 1.2581C0 2.51619 0 4.54108 0 8.59082V13.1249C0 17.1746 0 19.1995 1.25719 20.4576C2.51438 21.7157 4.53779 21.7157 8.58461 21.7157H22.4154C26.4622 21.7157 28.4857 21.7157 29.7428 20.4576C31 19.1995 31 17.1746 31 13.1249V8.59082C31 4.54108 31 2.51619 29.7428 1.2581C28.4857 -3.41369e-07 26.4622 0 22.4154 0H8.58462C4.53779 0 2.51438 -3.41369e-07 1.25719 1.2581ZM4.64999 3.10213C3.79394 3.10213 3.09999 3.79658 3.09999 4.65325C3.09999 5.50991 3.79394 6.20438 4.64999 6.20438H7.75C8.60604 6.20438 9.29999 5.50991 9.29999 4.65325C9.29999 3.79658 8.60604 3.10213 7.75 3.10213H4.64999ZM21.7 17.0622C21.7 16.2056 22.3939 15.5112 23.2499 15.5112H26.35C27.206 15.5112 27.9 16.2056 27.9 17.0622C27.9 17.9189 27.206 18.6133 26.35 18.6133H23.2499C22.3939 18.6133 21.7 17.9189 21.7 17.0622ZM17.05 10.8578C17.05 11.7144 16.3561 12.4089 15.5 12.4089C14.644 12.4089 13.9499 11.7144 13.9499 10.8578C13.9499 10.001 14.644 9.30658 15.5 9.30658C16.3561 9.30658 17.05 10.001 17.05 10.8578ZM20.15 10.8578C20.15 13.4277 18.0681 15.5112 15.5 15.5112C12.9319 15.5112 10.85 13.4277 10.85 10.8578C10.85 8.28771 12.9319 6.20438 15.5 6.20438C18.0681 6.20438 20.15 8.28771 20.15 10.8578Z" fill="url(#paint0_linear_93_60)"/>
<defs>
<linearGradient id="paint0_linear_93_60" x1="4.14734e-09" y1="13.5169" x2="31.0715" y2="15.7238" gradientUnits="userSpaceOnUse">
<stop stop-color="#9E8DFE"/>
<stop offset="1" stop-color="#5578E3"/>
</linearGradient>
</defs>
</svg>
