<svg width="150" height="99" viewBox="0 0 150 99" fill="none" xmlns="http://www.w3.org/2000/svg">
<circle cx="74.5" cy="81.5" r="15" fill="#B852FF" stroke="#404040" stroke-width="5"/>
<g filter="url(#filter0_d_93_52)">
<path fill-rule="evenodd" clip-rule="evenodd" d="M27 6C18.7157 6 12 12.7157 12 21V28C12 36.2843 18.7157 43 27 43H66.9978L74.9999 54L83.002 43H123C131.284 43 138 36.2843 138 28V21C138 12.7157 131.284 6 123 6H27Z" fill="white"/>
</g>
<path d="M28.608 28.516V20.884H29.742V28.516H28.608ZM25.26 25.24V24.178H33.09V25.24H25.26ZM39.1851 33.16V16.24H40.0851V33.16H39.1851ZM39.5631 31.108C38.6271 31.108 37.7271 30.958 36.8631 30.658C36.0111 30.346 35.3511 29.95 34.8831 29.47L35.4051 28.444C35.8491 28.876 36.4431 29.242 37.1871 29.542C37.9431 29.83 38.7351 29.974 39.5631 29.974C40.3551 29.974 40.9971 29.878 41.4891 29.686C41.9931 29.482 42.3591 29.212 42.5871 28.876C42.8271 28.54 42.9471 28.168 42.9471 27.76C42.9471 27.268 42.8031 26.872 42.5151 26.572C42.2391 26.272 41.8731 26.038 41.4171 25.87C40.9611 25.69 40.4571 25.534 39.9051 25.402C39.3531 25.27 38.8011 25.132 38.2491 24.988C37.6971 24.832 37.1871 24.628 36.7191 24.376C36.2631 24.124 35.8911 23.794 35.6031 23.386C35.3271 22.966 35.1891 22.42 35.1891 21.748C35.1891 21.124 35.3511 20.554 35.6751 20.038C36.0111 19.51 36.5211 19.09 37.2051 18.778C37.8891 18.454 38.7651 18.292 39.8331 18.292C40.5411 18.292 41.2431 18.394 41.9391 18.598C42.6351 18.79 43.2351 19.06 43.7391 19.408L43.2891 20.47C42.7491 20.11 42.1731 19.846 41.5611 19.678C40.9611 19.51 40.3791 19.426 39.8151 19.426C39.0591 19.426 38.4351 19.528 37.9431 19.732C37.4511 19.936 37.0851 20.212 36.8451 20.56C36.6171 20.896 36.5031 21.28 36.5031 21.712C36.5031 22.204 36.6411 22.6 36.9171 22.9C37.2051 23.2 37.5771 23.434 38.0331 23.602C38.5011 23.77 39.0111 23.92 39.5631 24.052C40.1151 24.184 40.6611 24.328 41.2011 24.484C41.7531 24.64 42.2571 24.844 42.7131 25.096C43.1811 25.336 43.5531 25.66 43.8291 26.068C44.1171 26.476 44.2611 27.01 44.2611 27.67C44.2611 28.282 44.0931 28.852 43.7571 29.38C43.4211 29.896 42.9051 30.316 42.2091 30.64C41.5251 30.952 40.6431 31.108 39.5631 31.108ZM50.0253 31.108C49.1253 31.108 48.2673 30.964 47.4513 30.676C46.6353 30.376 45.9873 29.98 45.5073 29.488L46.1373 28.462C46.5333 28.882 47.0733 29.23 47.7573 29.506C48.4533 29.782 49.2033 29.92 50.0073 29.92C51.0753 29.92 51.8853 29.686 52.4373 29.218C53.0013 28.738 53.2833 28.114 53.2833 27.346C53.2833 26.806 53.1513 26.344 52.8873 25.96C52.6353 25.564 52.2033 25.258 51.5913 25.042C50.9793 24.826 50.1393 24.718 49.0713 24.718H46.3893L47.0373 18.4H53.9313V19.552H47.5593L48.2253 18.922L47.6673 24.214L47.0013 23.566H49.3593C50.6313 23.566 51.6513 23.722 52.4193 24.034C53.1873 24.346 53.7393 24.784 54.0753 25.348C54.4233 25.9 54.5973 26.548 54.5973 27.292C54.5973 28 54.4293 28.648 54.0933 29.236C53.7573 29.812 53.2533 30.268 52.5813 30.604C51.9093 30.94 51.0573 31.108 50.0253 31.108ZM61.4086 31.108C60.2926 31.108 59.3506 30.862 58.5826 30.37C57.8146 29.866 57.2326 29.146 56.8366 28.21C56.4406 27.262 56.2426 26.128 56.2426 24.808C56.2426 23.38 56.4826 22.186 56.9626 21.226C57.4546 20.254 58.1326 19.522 58.9966 19.03C59.8606 18.538 60.8626 18.292 62.0026 18.292C62.5666 18.292 63.1066 18.346 63.6226 18.454C64.1386 18.562 64.5946 18.736 64.9906 18.976L64.4686 20.02C64.1446 19.804 63.7726 19.654 63.3526 19.57C62.9326 19.474 62.4886 19.426 62.0206 19.426C60.6646 19.426 59.5786 19.858 58.7626 20.722C57.9586 21.586 57.5566 22.876 57.5566 24.592C57.5566 24.856 57.5686 25.186 57.5926 25.582C57.6286 25.966 57.7006 26.35 57.8086 26.734L57.3586 26.392C57.4906 25.768 57.7486 25.24 58.1326 24.808C58.5166 24.364 58.9966 24.028 59.5726 23.8C60.1486 23.572 60.7786 23.458 61.4626 23.458C62.3026 23.458 63.0406 23.614 63.6766 23.926C64.3126 24.238 64.8106 24.676 65.1706 25.24C65.5306 25.804 65.7106 26.47 65.7106 27.238C65.7106 28.018 65.5246 28.702 65.1526 29.29C64.7806 29.866 64.2646 30.316 63.6046 30.64C62.9566 30.952 62.2246 31.108 61.4086 31.108ZM61.3546 30.01C61.9546 30.01 62.4826 29.902 62.9386 29.686C63.4066 29.458 63.7726 29.14 64.0366 28.732C64.3006 28.312 64.4326 27.826 64.4326 27.274C64.4326 26.446 64.1446 25.786 63.5686 25.294C63.0046 24.802 62.2366 24.556 61.2646 24.556C60.6166 24.556 60.0526 24.676 59.5726 24.916C59.0926 25.156 58.7146 25.486 58.4386 25.906C58.1626 26.314 58.0246 26.782 58.0246 27.31C58.0246 27.766 58.1506 28.204 58.4026 28.624C58.6546 29.032 59.0266 29.368 59.5186 29.632C60.0226 29.884 60.6346 30.01 61.3546 30.01ZM69.2848 31L74.7208 18.976L75.1168 19.552H67.3228L67.9888 18.922V21.91H66.7108V18.4H75.9628V19.318L70.6888 31H69.2848ZM85.4053 34.492C84.7453 33.4 84.2293 32.14 83.8573 30.712C83.4973 29.272 83.3173 27.724 83.3173 26.068C83.3173 24.412 83.4973 22.864 83.8573 21.424C84.2293 19.972 84.7453 18.712 85.4053 17.644H86.6293C85.9213 18.88 85.3993 20.194 85.0633 21.586C84.7393 22.966 84.5773 24.46 84.5773 26.068C84.5773 27.676 84.7393 29.176 85.0633 30.568C85.3993 31.948 85.9213 33.256 86.6293 34.492H85.4053ZM90.6769 31V18.94L91.2529 19.552H87.7069V18.4H91.9729V31H90.6769ZM94.7508 31V30.082L99.9888 24.952C100.469 24.484 100.829 24.076 101.069 23.728C101.309 23.368 101.471 23.032 101.555 22.72C101.639 22.408 101.681 22.114 101.681 21.838C101.681 21.106 101.429 20.53 100.925 20.11C100.433 19.69 99.7008 19.48 98.7288 19.48C97.9848 19.48 97.3248 19.594 96.7488 19.822C96.1848 20.05 95.6988 20.404 95.2908 20.884L94.3728 20.092C94.8648 19.516 95.4948 19.072 96.2628 18.76C97.0308 18.448 97.8888 18.292 98.8368 18.292C99.6888 18.292 100.427 18.43 101.051 18.706C101.675 18.97 102.155 19.36 102.491 19.876C102.839 20.392 103.013 20.998 103.013 21.694C103.013 22.102 102.953 22.504 102.833 22.9C102.725 23.296 102.521 23.716 102.221 24.16C101.933 24.592 101.507 25.084 100.943 25.636L96.1368 30.352L95.7768 29.848H103.589V31H94.7508ZM107.083 31L115.687 18.4H116.749L108.145 31H107.083ZM108.055 25.15C107.491 25.15 106.993 25.012 106.561 24.736C106.129 24.448 105.793 24.046 105.553 23.53C105.325 23.014 105.211 22.414 105.211 21.73C105.211 21.046 105.325 20.446 105.553 19.93C105.793 19.414 106.129 19.018 106.561 18.742C106.993 18.454 107.491 18.31 108.055 18.31C108.619 18.31 109.111 18.454 109.531 18.742C109.963 19.018 110.299 19.414 110.539 19.93C110.779 20.446 110.899 21.046 110.899 21.73C110.899 22.414 110.779 23.014 110.539 23.53C110.299 24.046 109.963 24.448 109.531 24.736C109.111 25.012 108.619 25.15 108.055 25.15ZM108.055 24.34C108.643 24.34 109.111 24.112 109.459 23.656C109.819 23.188 109.999 22.546 109.999 21.73C109.999 20.914 109.819 20.278 109.459 19.822C109.111 19.354 108.643 19.12 108.055 19.12C107.455 19.12 106.981 19.354 106.633 19.822C106.285 20.278 106.111 20.914 106.111 21.73C106.111 22.546 106.285 23.188 106.633 23.656C106.981 24.112 107.455 24.34 108.055 24.34ZM115.777 31.09C115.225 31.09 114.733 30.952 114.301 30.676C113.869 30.388 113.533 29.986 113.293 29.47C113.053 28.954 112.933 28.354 112.933 27.67C112.933 26.986 113.053 26.386 113.293 25.87C113.533 25.354 113.869 24.958 114.301 24.682C114.733 24.394 115.225 24.25 115.777 24.25C116.353 24.25 116.851 24.394 117.271 24.682C117.703 24.958 118.033 25.354 118.261 25.87C118.501 26.386 118.621 26.986 118.621 27.67C118.621 28.354 118.501 28.954 118.261 29.47C118.033 29.986 117.703 30.388 117.271 30.676C116.851 30.952 116.353 31.09 115.777 31.09ZM115.777 30.28C116.365 30.28 116.833 30.052 117.181 29.596C117.541 29.128 117.721 28.486 117.721 27.67C117.721 26.854 117.541 26.218 117.181 25.762C116.833 25.294 116.365 25.06 115.777 25.06C115.189 25.06 114.715 25.294 114.355 25.762C114.007 26.218 113.833 26.854 113.833 27.67C113.833 28.486 114.007 29.128 114.355 29.596C114.715 30.052 115.189 30.28 115.777 30.28ZM120.971 34.492H119.747C120.467 33.256 120.989 31.948 121.313 30.568C121.649 29.176 121.817 27.676 121.817 26.068C121.817 24.46 121.649 22.966 121.313 21.586C120.989 20.194 120.467 18.88 119.747 17.644H120.971C121.655 18.712 122.177 19.972 122.537 21.424C122.897 22.864 123.077 24.412 123.077 26.068C123.077 27.724 122.897 29.272 122.537 30.712C122.177 32.14 121.655 33.4 120.971 34.492Z" fill="black"/>
<defs>
<filter id="filter0_d_93_52" x="0" y="0" width="150" height="72" filterUnits="userSpaceOnUse" color-interpolation-filters="sRGB">
<feFlood flood-opacity="0" result="BackgroundImageFix"/>
<feColorMatrix in="SourceAlpha" type="matrix" values="0 0 0 0 0 0 0 0 0 0 0 0 0 0 0 0 0 0 127 0" result="hardAlpha"/>
<feOffset dy="6"/>
<feGaussianBlur stdDeviation="6"/>
<feComposite in2="hardAlpha" operator="out"/>
<feColorMatrix type="matrix" values="0 0 0 0 0 0 0 0 0 0 0 0 0 0 0 0 0 0 0.4 0"/>
<feBlend mode="normal" in2="BackgroundImageFix" result="effect1_dropShadow_93_52"/>
<feBlend mode="normal" in="SourceGraphic" in2="effect1_dropShadow_93_52" result="shape"/>
</filter>
</defs>
</svg>
