<svg width="226" height="133" viewBox="0 0 226 133" fill="none" xmlns="http://www.w3.org/2000/svg">
<rect width="133" height="133" rx="66.5" fill="url(#paint0_linear_96_184)"/>
<circle cx="163.5" cy="66.5" r="62.5" fill="black"/>
<path d="M210.123 67.881H188.5V65.1189H210.123H211.31L210.481 64.2698L202.015 55.5907L203.852 53.7156L216.302 66.5L203.851 79.2854L202.016 77.4223L210.482 68.7298L211.308 67.881H210.123Z" fill="white" stroke="black"/>
<path d="M12.1982 64.2744C13.1006 64.4736 13.8213 64.9072 14.3604 65.5752C14.8994 66.2373 15.1689 67.0225 15.1689 67.9307C15.1689 69.1904 14.6973 70.2217 13.7539 71.0244C12.8164 71.8154 11.5801 72.2109 10.0449 72.2109C9.13086 72.2109 8.2959 72.0322 7.54004 71.6748C6.77246 71.3115 6.19238 70.8135 5.7998 70.1807C5.60645 69.958 5.59473 69.7705 5.76465 69.6182L6.26562 69.0117C6.38867 68.9121 6.52344 68.9355 6.66992 69.082C6.99219 69.627 7.45801 70.043 8.06738 70.3301C8.67676 70.6113 9.36816 70.752 10.1416 70.752C11.1904 70.752 12.0371 70.4766 12.6816 69.9258C13.3379 69.375 13.666 68.666 13.666 67.7988C13.666 66.9492 13.335 66.2607 12.6729 65.7334C12.0166 65.2002 11.1523 64.9336 10.0801 64.9336H8.9375C8.84961 64.9336 8.77637 64.9072 8.71777 64.8545C8.65918 64.7959 8.62988 64.7227 8.62988 64.6348V64.002C8.62988 63.9141 8.65625 63.8438 8.70898 63.791C8.76758 63.7383 8.83789 63.7119 8.91992 63.7119H10.0625C10.8359 63.7119 11.4629 63.542 11.9434 63.2021C12.4297 62.8564 12.6729 62.4141 12.6729 61.875C12.6729 61.2891 12.4443 60.8174 11.9873 60.46C11.5244 60.0967 10.9268 59.915 10.1943 59.915C9.6377 59.915 9.12793 60.0117 8.66504 60.2051C8.19629 60.3984 7.83887 60.6504 7.59277 60.9609C7.42285 61.1016 7.29102 61.1162 7.19727 61.0049L6.67871 60.2666C6.5791 60.1318 6.5791 60.0088 6.67871 59.8975C7.00098 59.4756 7.48438 59.1328 8.12891 58.8691C8.77344 58.5996 9.45898 58.4648 10.1855 58.4648C11.3691 58.4648 12.3271 58.7695 13.0596 59.3789C13.7861 59.9824 14.1494 60.7734 14.1494 61.752C14.1494 62.3496 13.9736 62.8711 13.6221 63.3164C13.2646 63.7734 12.79 64.0928 12.1982 64.2744ZM25.3115 63.123H25.8389C25.9854 63.123 26.0586 63.1963 26.0586 63.3428V71.7979C26.0586 71.9443 25.9854 72.0176 25.8389 72.0176H25.3115C25.2002 72.0176 25.124 71.9619 25.083 71.8506L24.8281 70.1279C24.4531 70.7666 23.9492 71.2676 23.3164 71.6309C22.6836 71.9941 21.9893 72.1758 21.2334 72.1758C20.4424 72.1875 19.7041 71.9883 19.0186 71.5781C18.3389 71.168 17.8027 70.6055 17.4102 69.8906C17.0176 69.1758 16.8301 68.4023 16.8477 67.5703C16.8477 66.252 17.2666 65.1475 18.1045 64.2568C18.9482 63.3721 19.9883 62.9297 21.2246 62.9297C21.9922 62.9297 22.6895 63.1113 23.3164 63.4746C23.9492 63.8379 24.4531 64.3447 24.8281 64.9951L25.083 63.29C25.1182 63.1787 25.1943 63.123 25.3115 63.123ZM21.4619 70.8662C22.3936 70.8662 23.1787 70.5469 23.8174 69.9082C24.4619 69.2637 24.7842 68.4814 24.7842 67.5615C24.7842 66.6299 24.459 65.8447 23.8086 65.2061C23.1699 64.5674 22.3848 64.248 21.4531 64.248C20.5449 64.248 19.7744 64.5674 19.1416 65.2061C18.5088 65.8447 18.1924 66.6299 18.1924 67.5615C18.1924 68.4873 18.5117 69.2695 19.1504 69.9082C19.7891 70.5469 20.5596 70.8662 21.4619 70.8662ZM33.6523 62.9473C34.8945 62.9473 35.9316 63.3896 36.7637 64.2744C37.6074 65.1592 38.0293 66.2607 38.0293 67.5791C38.0293 68.874 37.6074 69.9668 36.7637 70.8574C35.9199 71.7422 34.8799 72.1846 33.6436 72.1846C32.9053 72.1846 32.2285 72.0146 31.6133 71.6748C31.0039 71.335 30.5059 70.8604 30.1191 70.251L30.1279 75.2344C30.1279 75.375 30.0605 75.4453 29.9258 75.4453H29.0117C28.8652 75.4453 28.792 75.375 28.792 75.2344V63.3252C28.792 63.1787 28.8623 63.1055 29.0029 63.1055H29.5391C29.6562 63.1055 29.7295 63.1641 29.7588 63.2812L30.0225 65.0391C30.3975 64.3828 30.9014 63.8701 31.5342 63.501C32.1729 63.1318 32.8789 62.9473 33.6523 62.9473ZM33.415 70.875C34.3174 70.875 35.0879 70.5557 35.7266 69.917C36.3652 69.2783 36.6846 68.499 36.6846 67.5791C36.6846 66.6475 36.3682 65.8623 35.7354 65.2236C35.1025 64.5791 34.335 64.2568 33.4326 64.2568C32.5068 64.2568 31.7158 64.5791 31.0596 65.2236C30.415 65.8682 30.0928 66.6533 30.0928 67.5791C30.0928 68.4932 30.415 69.2725 31.0596 69.917C31.6982 70.5557 32.4834 70.875 33.415 70.875ZM44.0059 62.9473C45.2598 62.9473 46.2969 63.3574 47.1172 64.1777C47.9434 64.998 48.3564 66.0293 48.3564 67.2715C48.3564 67.4883 48.2891 67.6904 48.1543 67.8779C48.0254 68.0537 47.8643 68.1416 47.6709 68.1416H40.9033C41.0029 68.9268 41.3604 69.5859 41.9756 70.1191C42.6025 70.6465 43.3438 70.9102 44.1992 70.9102C44.6152 70.9102 45.0342 70.8311 45.4561 70.6729C45.8838 70.5146 46.2529 70.2979 46.5635 70.0225C46.6807 69.9229 46.7891 69.9316 46.8887 70.0488L47.3721 70.6904C47.4658 70.8018 47.457 70.9131 47.3457 71.0244C46.9473 71.3877 46.4551 71.6748 45.8691 71.8857C45.2832 72.0908 44.7119 72.1934 44.1553 72.1934C43.5225 72.1934 42.9189 72.0732 42.3447 71.833C41.7705 71.5928 41.2695 71.2646 40.8418 70.8486C40.4258 70.4326 40.0977 69.9404 39.8574 69.3721C39.623 68.7979 39.5059 68.2002 39.5059 67.5791C39.5059 66.2783 39.9395 65.1826 40.8066 64.292C41.6738 63.3955 42.7402 62.9473 44.0059 62.9473ZM43.9707 64.2129C43.1973 64.2129 42.5234 64.4678 41.9492 64.9775C41.3691 65.4932 41.0234 66.1377 40.9121 66.9111H47.0469C46.959 66.1084 46.6309 65.458 46.0625 64.96C45.5059 64.4619 44.8086 64.2129 43.9707 64.2129ZM50.6416 63.1318H56.3281C56.4453 63.1318 56.5039 63.1904 56.5039 63.3076V64.1162C56.5039 64.2275 56.4482 64.2832 56.3369 64.2832H51.7666V71.8945C51.7666 72.0117 51.7139 72.0703 51.6084 72.0703H50.6416C50.5244 72.0703 50.4658 72.0117 50.4658 71.8945V63.3076C50.4658 63.1904 50.5244 63.1318 50.6416 63.1318ZM66.0137 63.0439H66.0664C66.1777 63.0439 66.2334 63.0996 66.2334 63.2109V71.8066C66.2334 71.9414 66.1689 72.0088 66.04 72.0088H65.0908C64.9619 72.0088 64.8975 71.9414 64.8975 71.8066V65.7158L58.9648 71.9033C58.8125 72.0264 58.6924 72.0879 58.6045 72.0879H58.543C58.4316 72.0879 58.376 72.0234 58.376 71.8945V63.3164C58.376 63.1875 58.4404 63.123 58.5693 63.123H59.5273C59.5801 63.123 59.624 63.1406 59.6592 63.1758C59.6943 63.2109 59.7119 63.2578 59.7119 63.3164V69.416L65.7061 63.2021C65.8408 63.0967 65.9434 63.0439 66.0137 63.0439ZM72.957 72.1846C72.1191 72.1846 71.3428 71.9766 70.6279 71.5605C69.9248 71.1504 69.3652 70.5879 68.9492 69.873C68.5391 69.1641 68.334 68.3936 68.334 67.5615C68.334 66.7178 68.5391 65.9473 68.9492 65.25C69.3594 64.541 69.916 63.9844 70.6191 63.5801C71.3281 63.1699 72.1016 62.9648 72.9395 62.9648C73.5078 62.9648 74.0762 63.0762 74.6445 63.2988C75.2188 63.5215 75.6992 63.8057 76.0859 64.1514C76.1973 64.2451 76.209 64.3477 76.1211 64.459L75.6641 65.1621C75.6289 65.209 75.5791 65.2383 75.5146 65.25C75.4561 65.2559 75.3975 65.2383 75.3389 65.1973C74.6357 64.582 73.8418 64.2744 72.957 64.2744C72.043 64.2744 71.2754 64.5938 70.6543 65.2324C70.0273 65.8711 69.7139 66.6475 69.7139 67.5615C69.7139 68.4697 70.0303 69.249 70.6631 69.8994C71.2959 70.5439 72.0664 70.8662 72.9746 70.8662C73.8945 70.8662 74.6826 70.5645 75.3389 69.9609C75.4561 69.8613 75.5586 69.8701 75.6465 69.9873L76.1211 70.6641C76.1562 70.7051 76.1709 70.7607 76.165 70.8311C76.1592 70.8955 76.1299 70.9482 76.0771 70.9893C75.667 71.3525 75.1807 71.6455 74.6182 71.8682C74.0615 72.0791 73.5078 72.1846 72.957 72.1846ZM77.2637 64.0547V63.3604C77.2637 63.208 77.3428 63.1318 77.501 63.1318H84.0225C84.1748 63.1318 84.251 63.208 84.251 63.3604V64.0547C84.251 64.207 84.1748 64.2832 84.0225 64.2832H81.4209V71.7979C81.4209 71.9443 81.3477 72.0176 81.2012 72.0176H80.3047C80.1582 72.0176 80.085 71.9443 80.085 71.7979V64.2832H77.501C77.3428 64.2832 77.2637 64.207 77.2637 64.0547ZM90.8164 62.9473C92.0586 62.9473 93.0957 63.3896 93.9277 64.2744C94.7715 65.1592 95.1934 66.2607 95.1934 67.5791C95.1934 68.874 94.7715 69.9668 93.9277 70.8574C93.084 71.7422 92.0439 72.1846 90.8076 72.1846C90.0693 72.1846 89.3926 72.0146 88.7773 71.6748C88.168 71.335 87.6699 70.8604 87.2832 70.251L87.292 75.2344C87.292 75.375 87.2246 75.4453 87.0898 75.4453H86.1758C86.0293 75.4453 85.9561 75.375 85.9561 75.2344V63.3252C85.9561 63.1787 86.0264 63.1055 86.167 63.1055H86.7031C86.8203 63.1055 86.8936 63.1641 86.9229 63.2812L87.1865 65.0391C87.5615 64.3828 88.0654 63.8701 88.6982 63.501C89.3369 63.1318 90.043 62.9473 90.8164 62.9473ZM90.5791 70.875C91.4814 70.875 92.252 70.5557 92.8906 69.917C93.5293 69.2783 93.8486 68.499 93.8486 67.5791C93.8486 66.6475 93.5322 65.8623 92.8994 65.2236C92.2666 64.5791 91.499 64.2568 90.5967 64.2568C89.6709 64.2568 88.8799 64.5791 88.2236 65.2236C87.5791 65.8682 87.2568 66.6533 87.2568 67.5791C87.2568 68.4932 87.5791 69.2725 88.2236 69.917C88.8623 70.5557 89.6475 70.875 90.5791 70.875ZM104.932 63.0439H104.984C105.096 63.0439 105.151 63.0996 105.151 63.2109V71.8066C105.151 71.9414 105.087 72.0088 104.958 72.0088H104.009C103.88 72.0088 103.815 71.9414 103.815 71.8066V65.7158L97.8828 71.9033C97.7305 72.0264 97.6104 72.0879 97.5225 72.0879H97.4609C97.3496 72.0879 97.2939 72.0234 97.2939 71.8945V63.3164C97.2939 63.1875 97.3584 63.123 97.4873 63.123H98.4453C98.498 63.123 98.542 63.1406 98.5771 63.1758C98.6123 63.2109 98.6299 63.2578 98.6299 63.3164V69.416L104.624 63.2021C104.759 63.0967 104.861 63.0439 104.932 63.0439ZM112.736 62.9473C113.979 62.9473 115.016 63.3896 115.848 64.2744C116.691 65.1592 117.113 66.2607 117.113 67.5791C117.113 68.874 116.691 69.9668 115.848 70.8574C115.004 71.7422 113.964 72.1846 112.728 72.1846C111.989 72.1846 111.312 72.0146 110.697 71.6748C110.088 71.335 109.59 70.8604 109.203 70.251L109.212 75.2344C109.212 75.375 109.145 75.4453 109.01 75.4453H108.096C107.949 75.4453 107.876 75.375 107.876 75.2344V63.3252C107.876 63.1787 107.946 63.1055 108.087 63.1055H108.623C108.74 63.1055 108.813 63.1641 108.843 63.2812L109.106 65.0391C109.481 64.3828 109.985 63.8701 110.618 63.501C111.257 63.1318 111.963 62.9473 112.736 62.9473ZM112.499 70.875C113.401 70.875 114.172 70.5557 114.811 69.917C115.449 69.2783 115.769 68.499 115.769 67.5791C115.769 66.6475 115.452 65.8623 114.819 65.2236C114.187 64.5791 113.419 64.2568 112.517 64.2568C111.591 64.2568 110.8 64.5791 110.144 65.2236C109.499 65.8682 109.177 66.6533 109.177 67.5791C109.177 68.4932 109.499 69.2725 110.144 69.917C110.782 70.5557 111.567 70.875 112.499 70.875ZM118.59 67.5703C118.59 66.7207 118.795 65.9414 119.205 65.2324C119.615 64.5293 120.181 63.9727 120.901 63.5625C121.61 63.1523 122.398 62.9473 123.266 62.9473C124.121 62.9473 124.903 63.1523 125.612 63.5625C126.315 63.9609 126.875 64.5176 127.291 65.2324C127.701 65.9414 127.906 66.7207 127.906 67.5703C127.906 68.1973 127.786 68.7979 127.546 69.3721C127.312 69.9463 126.983 70.4385 126.562 70.8486C126.146 71.2646 125.647 71.5928 125.067 71.833C124.493 72.0674 123.893 72.1846 123.266 72.1846C122.398 72.1846 121.61 71.9824 120.901 71.5781C120.175 71.1562 119.609 70.5967 119.205 69.8994C118.795 69.1904 118.59 68.4141 118.59 67.5703ZM120.893 65.1973C120.26 65.8418 119.943 66.6328 119.943 67.5703C119.943 68.5078 120.26 69.2988 120.893 69.9434C121.531 70.582 122.319 70.9014 123.257 70.9014C124.188 70.9014 124.971 70.582 125.604 69.9434C126.236 69.2988 126.553 68.5078 126.553 67.5703C126.553 66.6328 126.236 65.8418 125.604 65.1973C124.971 64.5527 124.188 64.2305 123.257 64.2305C122.325 64.2305 121.537 64.5527 120.893 65.1973ZM135.104 66.9639C135.649 67.0986 136.086 67.377 136.414 67.7988C136.748 68.2148 136.915 68.7041 136.915 69.2666C136.915 70.0693 136.634 70.7256 136.071 71.2354C135.515 71.7451 134.794 72 133.909 72H130.183C130.065 72 130.007 71.9414 130.007 71.8242V63.3076C130.007 63.1904 130.065 63.1318 130.183 63.1318H133.646C134.39 63.1318 135.005 63.3369 135.491 63.7471C135.989 64.1514 136.238 64.6553 136.238 65.2588C136.238 65.6514 136.136 66 135.931 66.3047C135.726 66.6094 135.45 66.8291 135.104 66.9639ZM133.716 64.3184H131.316V66.5859H133.698C134.073 66.5859 134.384 66.4775 134.63 66.2607C134.876 66.0439 134.999 65.7656 134.999 65.4258C134.999 65.0977 134.879 64.8311 134.639 64.626C134.398 64.4209 134.091 64.3184 133.716 64.3184ZM131.316 70.8662H133.936C134.422 70.8662 134.82 70.7197 135.131 70.4268C135.447 70.1396 135.605 69.7617 135.605 69.293C135.605 68.8242 135.444 68.4375 135.122 68.1328C134.8 67.8281 134.393 67.6758 133.9 67.6758H131.316V70.8662ZM146.618 63.123H147.146C147.292 63.123 147.365 63.1963 147.365 63.3428V71.7979C147.365 71.9443 147.292 72.0176 147.146 72.0176H146.618C146.507 72.0176 146.431 71.9619 146.39 71.8506L146.135 70.1279C145.76 70.7666 145.256 71.2676 144.623 71.6309C143.99 71.9941 143.296 72.1758 142.54 72.1758C141.749 72.1875 141.011 71.9883 140.325 71.5781C139.646 71.168 139.109 70.6055 138.717 69.8906C138.324 69.1758 138.137 68.4023 138.154 67.5703C138.154 66.252 138.573 65.1475 139.411 64.2568C140.255 63.3721 141.295 62.9297 142.531 62.9297C143.299 62.9297 143.996 63.1113 144.623 63.4746C145.256 63.8379 145.76 64.3447 146.135 64.9951L146.39 63.29C146.425 63.1787 146.501 63.123 146.618 63.123ZM142.769 70.8662C143.7 70.8662 144.485 70.5469 145.124 69.9082C145.769 69.2637 146.091 68.4814 146.091 67.5615C146.091 66.6299 145.766 65.8447 145.115 65.2061C144.477 64.5674 143.691 64.248 142.76 64.248C141.852 64.248 141.081 64.5674 140.448 65.2061C139.815 65.8447 139.499 66.6299 139.499 67.5615C139.499 68.4873 139.818 69.2695 140.457 69.9082C141.096 70.5469 141.866 70.8662 142.769 70.8662ZM149.07 64.0547V63.3604C149.07 63.208 149.149 63.1318 149.308 63.1318H155.829C155.981 63.1318 156.058 63.208 156.058 63.3604V64.0547C156.058 64.207 155.981 64.2832 155.829 64.2832H153.228V71.7979C153.228 71.9443 153.154 72.0176 153.008 72.0176H152.111C151.965 72.0176 151.892 71.9443 151.892 71.7979V64.2832H149.308C149.149 64.2832 149.07 64.207 149.07 64.0547ZM159.099 66.3223L160.54 66.3135C161.595 66.3076 162.436 66.5596 163.062 67.0693C163.689 67.5791 164.003 68.2793 164.003 69.1699C164.003 70.0664 163.684 70.7637 163.045 71.2617C162.406 71.7598 161.571 72.0088 160.54 72.0088H157.93C157.818 72.0088 157.763 71.9502 157.763 71.833V63.3164C157.763 63.1934 157.818 63.1318 157.93 63.1318H158.914C159.037 63.1318 159.099 63.1934 159.099 63.3164V66.3223ZM159.099 70.9365H160.461C161.176 70.9365 161.738 70.7842 162.148 70.4795C162.564 70.1748 162.772 69.7383 162.772 69.1699C162.772 68.6074 162.562 68.1709 162.14 67.8604C161.712 67.5498 161.152 67.3945 160.461 67.3945H159.099V70.9365ZM170.111 72.1846C169.273 72.1846 168.497 71.9766 167.782 71.5605C167.079 71.1504 166.52 70.5879 166.104 69.873C165.693 69.1641 165.488 68.3936 165.488 67.5615C165.488 66.7178 165.693 65.9473 166.104 65.25C166.514 64.541 167.07 63.9844 167.773 63.5801C168.482 63.1699 169.256 62.9648 170.094 62.9648C170.662 62.9648 171.23 63.0762 171.799 63.2988C172.373 63.5215 172.854 63.8057 173.24 64.1514C173.352 64.2451 173.363 64.3477 173.275 64.459L172.818 65.1621C172.783 65.209 172.733 65.2383 172.669 65.25C172.61 65.2559 172.552 65.2383 172.493 65.1973C171.79 64.582 170.996 64.2744 170.111 64.2744C169.197 64.2744 168.43 64.5938 167.809 65.2324C167.182 65.8711 166.868 66.6475 166.868 67.5615C166.868 68.4697 167.185 69.249 167.817 69.8994C168.45 70.5439 169.221 70.8662 170.129 70.8662C171.049 70.8662 171.837 70.5645 172.493 69.9609C172.61 69.8613 172.713 69.8701 172.801 69.9873L173.275 70.6641C173.311 70.7051 173.325 70.7607 173.319 70.8311C173.313 70.8955 173.284 70.9482 173.231 70.9893C172.821 71.3525 172.335 71.6455 171.772 71.8682C171.216 72.0791 170.662 72.1846 170.111 72.1846ZM181.44 63.1318H181.695C181.754 63.1318 181.804 63.1553 181.845 63.2021C181.892 63.2432 181.915 63.293 181.915 63.3516V71.7627C181.915 71.833 181.892 71.8916 181.845 71.9385C181.798 71.9854 181.742 72.0088 181.678 72.0088H180.816C180.746 72.0088 180.688 71.9854 180.641 71.9385C180.6 71.8916 180.579 71.833 180.579 71.7627V69.8818H178.549C178.262 69.8818 177.957 69.8496 177.635 69.7852L176.694 71.8066C176.63 71.9414 176.533 72.0088 176.404 72.0088H175.464C175.376 72.0088 175.317 71.9824 175.288 71.9297C175.259 71.877 175.265 71.8096 175.306 71.7275L176.475 69.3193C175.994 69.0205 175.619 68.6309 175.35 68.1504C175.08 67.6641 174.945 67.125 174.945 66.5332C174.945 65.5488 175.279 64.7344 175.947 64.0898C176.609 63.4512 177.474 63.1318 178.54 63.1318H181.44ZM178.61 68.8008H180.579V64.292H178.61C177.931 64.292 177.374 64.5059 176.94 64.9336C176.501 65.3555 176.281 65.8916 176.281 66.542C176.281 67.1924 176.501 67.7344 176.94 68.168C177.38 68.5898 177.937 68.8008 178.61 68.8008Z" fill="white"/>
<defs>
<linearGradient id="paint0_linear_96_184" x1="2.44241e-07" y1="11.5652" x2="141.653" y2="22.6756" gradientUnits="userSpaceOnUse">
<stop stop-color="#B852FF"/>
<stop offset="1" stop-color="#5578E3"/>
</linearGradient>
</defs>
</svg>
