<svg width="31" height="31" viewBox="0 0 31 31" fill="none" xmlns="http://www.w3.org/2000/svg">
<path fill-rule="evenodd" clip-rule="evenodd" d="M8.2615 0H22.737C28.0085 0 30.9845 2.98995 31 8.2615V22.7385C31 28.0085 28.0085 31 22.737 31H8.2615C2.98995 31 0 28.0085 0 22.7385V8.2615C0 2.98995 2.98995 0 8.2615 0ZM15.576 24.583C16.244 24.583 16.8005 24.087 16.8625 23.4205V7.626C16.9245 7.1455 16.6935 6.66345 16.275 6.4015C15.8395 6.138 15.3125 6.138 14.8955 6.4015C14.4755 6.66345 14.2445 7.1455 14.2895 7.626V23.4205C14.3685 24.087 14.925 24.583 15.576 24.583ZM22.7075 24.583C23.3585 24.583 23.915 24.087 23.994 23.4205V18.3365C24.039 17.8389 23.808 17.3755 23.388 17.112C22.971 16.8485 22.444 16.8485 22.01 17.112C21.59 17.3755 21.359 17.8389 21.421 18.3365V23.4205C21.483 24.087 22.0395 24.583 22.7075 24.583ZM9.63945 23.4208C9.57745 24.0873 9.021 24.5833 8.35295 24.5833C7.68645 24.5833 7.12845 24.0873 7.068 23.4208V12.7103C7.0215 12.2283 7.25245 11.7493 7.6725 11.4858C8.08945 11.2223 8.618 11.2223 9.0365 11.4858C9.45345 11.7493 9.6875 12.2283 9.63945 12.7103V23.4208Z" fill="url(#paint0_linear_93_61)"/>
<defs>
<linearGradient id="paint0_linear_93_61" x1="-3.16448e-08" y1="19.296" x2="31.1511" y2="20.8458" gradientUnits="userSpaceOnUse">
<stop stop-color="#9E8DFE"/>
<stop offset="1" stop-color="#5578E3"/>
</linearGradient>
</defs>
</svg>
