<svg width="2453" height="206" viewBox="0 0 2453 206" fill="none" xmlns="http://www.w3.org/2000/svg">
<path d="M-0.000162721 71.4944V67.2952C-0.000162721 66.3186 0.504395 65.8303 1.51351 65.8303H676.698C677.642 65.8303 678.114 66.3186 678.114 67.2952V71.4944C678.114 72.5361 677.642 73.0569 676.698 73.0569H655.702V138.535C655.702 139.577 655.198 140.098 654.188 140.098H649.061C648.052 140.098 647.548 139.577 647.548 138.535V73.0569H1.51351C0.504395 73.0569 -0.000162721 72.5361 -0.000162721 71.4944Z" fill="white"/>
<path d="M734.217 117.246L744.618 138.242C744.878 138.73 744.895 139.17 744.667 139.561C744.471 139.919 744.113 140.098 743.592 140.098H737.684C736.936 140.098 736.366 139.674 735.975 138.828L726.942 120.127C724.273 120.778 721.555 121.104 718.788 121.104H699.94V138.535C699.94 139.577 699.436 140.098 698.427 140.098H693.348C692.307 140.098 691.786 139.577 691.786 138.535V67.2952C691.786 66.286 692.307 65.7815 693.348 65.7815H718.788C724.191 65.7164 729.107 66.9045 733.534 69.3459C737.994 71.7548 741.477 75.1077 743.983 79.4046C746.49 83.7015 747.694 88.454 747.596 93.6623C747.596 98.773 746.408 103.396 744.032 107.53C741.656 111.599 738.384 114.838 734.217 117.246ZM699.94 114.17H718.299C724.484 114.17 729.546 112.25 733.485 108.409C737.456 104.535 739.442 99.603 739.442 93.6135C739.442 87.6564 737.424 82.7574 733.387 78.9163C729.318 75.01 724.289 73.0569 718.299 73.0569H699.94V114.17Z" fill="white"/>
<path d="M792.518 66.6116L823.671 138.242C823.931 138.763 823.947 139.219 823.72 139.609C823.492 139.967 823.069 140.146 822.45 140.146H816.688C815.94 140.146 815.403 139.707 815.077 138.828L811.122 129.355H769.862L765.956 138.779C765.63 139.658 765.077 140.098 764.296 140.098H758.632C757.981 140.098 757.541 139.935 757.313 139.609C757.085 139.251 757.102 138.779 757.362 138.193L788.514 66.5627C788.905 65.6513 789.507 65.1956 790.321 65.1956H790.712C791.526 65.1956 792.128 65.6676 792.518 66.6116ZM790.516 79.7463L772.841 122.178H808.143L790.516 79.7463Z" fill="white"/>
<path d="M838.368 65.8303H885.586C886.692 65.8303 887.246 66.3186 887.246 67.2952V72.0804C887.246 73.0895 886.692 73.594 885.586 73.594H845.009V106.895H878.261C879.531 106.895 880.165 107.416 880.165 108.457V112.901C880.165 113.91 879.531 114.414 878.261 114.414H845.009V138.438C845.009 139.479 844.52 140 843.544 140H838.368C837.326 140 836.806 139.479 836.806 138.438V67.344C836.806 66.3349 837.326 65.8303 838.368 65.8303Z" fill="white"/>
<path d="M910.586 66.9045V138.877C910.586 139.691 910.163 140.098 909.316 140.098H903.603C902.822 140.098 902.431 139.691 902.431 138.877V66.9045C902.431 66.0907 902.822 65.6838 903.603 65.6838H909.316C910.163 65.6838 910.586 66.0907 910.586 66.9045Z" fill="white"/>
<path d="M1471.16 121.701C1471.55 121.375 1471.97 121.212 1472.43 121.212C1472.88 121.212 1473.24 121.375 1473.5 121.701L1476.53 126.339C1476.72 126.6 1476.76 126.941 1476.63 127.365C1476.5 127.788 1476.22 128.146 1475.8 128.439C1472.7 131.043 1469.14 133.045 1465.1 134.445C1461 135.877 1456.92 136.593 1452.85 136.593C1446.22 136.593 1014.97 138.257 952.895 136.435C947.916 136.289 943.216 134.944 939.432 131.704C936.297 129.018 933.648 125.859 931.484 122.227C928.067 116.368 926.357 109.955 926.357 102.989C926.357 95.99 928.067 89.577 931.484 83.7502C933.593 80.1904 936.163 77.0862 939.194 74.4376C943.105 71.0208 948.011 69.5739 953.201 69.3766C1016.49 66.9706 1446.25 67.4212 1452.85 67.4212C1456.85 67.4212 1460.95 68.1374 1465.15 69.5697C1469.28 70.9694 1472.9 72.9714 1475.99 75.5755C1476.9 76.2917 1477.11 77.0241 1476.63 77.7728L1473.55 82.3626C1473.06 83.0788 1472.3 83.0788 1471.25 82.3626C1466.14 77.8379 1460.01 75.5755 1452.85 75.5755C1447.63 75.5755 1020.55 75.0766 957.378 76.6318C952.095 76.7618 947.088 78.0633 943.324 81.7734C941.493 83.579 939.907 85.6214 938.565 87.9006C935.863 92.523 934.512 97.5525 934.512 102.989C934.512 108.457 935.879 113.487 938.614 118.077C939.62 119.765 940.756 121.322 942.022 122.746C946.393 127.663 952.704 129.131 959.282 129.223C1028.48 130.191 1447.74 128.439 1452.85 128.439C1456.1 128.439 1459.34 127.853 1462.56 126.681C1465.79 125.509 1468.65 123.849 1471.16 121.701Z" fill="white"/>
<path d="M1227.59 53.0324L1227.59 53.045L1227.58 53.0576L1194.41 105.757L1186.69 118.018H1201.18H1299.28C1309.37 118.018 1318.71 112.777 1324.08 104.328L1324.09 104.312L1324.1 104.296L1357.28 51.5971L1364.99 39.3354H1350.51H1252.4C1242.32 39.3354 1232.97 44.5578 1227.59 53.0324Z" fill="#B852FF" stroke="#151515" stroke-width="16"/>
<path d="M1132.16 132.692L1132.15 132.713L1132.14 132.735L1098.98 185.447L1091.26 197.707H1105.75H1203.84C1213.94 197.707 1223.28 192.468 1228.66 184.017L1228.67 184.001L1228.68 183.985L1261.85 131.286L1269.57 119.024H1255.08H1156.97C1146.89 119.024 1137.55 124.246 1132.16 132.692Z" fill="#36CB61" stroke="#151515" stroke-width="16"/>
<path d="M1245.54 20.2616L1253.26 8H1238.77H1140.74C1130.67 8 1121.31 13.2158 1115.93 21.6776L1115.92 21.6934L1115.91 21.7092L1082.73 74.4084L1075.02 86.67H1089.51H1187.61C1197.68 86.67 1207.05 81.459 1212.38 72.9512C1212.38 72.9481 1212.38 72.9449 1212.38 72.9417L1245.54 20.2616Z" fill="#009ACB" stroke="#151515" stroke-width="16"/>
<path fill-rule="evenodd" clip-rule="evenodd" d="M1524.43 66.7578L1555.58 138.389C1555.84 138.91 1555.86 139.365 1555.63 139.756C1555.4 140.114 1554.98 140.293 1554.36 140.293H1548.6C1547.85 140.293 1547.32 139.854 1546.99 138.975L1543.03 129.502H1501.77L1497.87 138.926C1497.54 139.805 1496.99 140.244 1496.21 140.244H1490.54C1489.89 140.244 1489.45 140.081 1489.23 139.756C1489 139.398 1489.01 138.926 1489.27 138.34L1520.43 66.709C1520.82 65.7975 1521.42 65.3418 1522.23 65.3418H1522.62C1523.44 65.3418 1524.04 65.8138 1524.43 66.7578ZM1522.43 79.8926L1504.75 122.324H1540.06L1522.43 79.8926ZM1611.54 74.1309C1605.52 68.6947 1597.87 65.9766 1588.59 65.9766H1570.28C1569.82 65.9766 1569.45 66.123 1569.16 66.416C1568.86 66.6764 1568.72 67.0345 1568.72 67.4902V138.682C1568.72 139.137 1568.85 139.512 1569.11 139.805C1569.4 140.098 1569.79 140.244 1570.28 140.244H1575.36C1575.81 140.244 1576.17 140.098 1576.43 139.805C1576.73 139.512 1576.87 139.137 1576.87 138.682V123.398H1588.59C1594.61 123.496 1600.08 122.324 1605 119.883C1609.91 117.441 1613.77 114.023 1616.57 109.629C1619.37 105.202 1620.72 100.254 1620.62 94.7852C1620.62 86.4193 1617.6 79.5345 1611.54 74.1309ZM1588.05 116.123H1576.87V73.252H1588.05C1595.12 73.252 1600.96 75.2865 1605.58 79.3555C1610.17 83.4245 1612.47 88.5677 1612.47 94.7852C1612.47 101.133 1610.17 106.276 1605.58 110.215C1601.06 114.154 1595.22 116.123 1588.05 116.123ZM1644.26 67.0508V139.023C1644.26 139.837 1643.83 140.244 1642.99 140.244H1637.27C1636.49 140.244 1636.1 139.837 1636.1 139.023V67.0508C1636.1 66.237 1636.49 65.8301 1637.27 65.8301H1642.99C1643.83 65.8301 1644.26 66.237 1644.26 67.0508ZM1657.98 67.4414V71.6406C1657.98 72.6823 1658.48 73.2031 1659.49 73.2031H1680.34V138.682C1680.34 139.723 1680.84 140.244 1681.85 140.244H1686.98C1687.99 140.244 1688.49 139.723 1688.49 138.682V73.2031H1709.49C1710.43 73.2031 1710.91 72.6823 1710.91 71.6406V67.4414C1710.91 66.4648 1710.43 65.9766 1709.49 65.9766H1659.49C1658.48 65.9766 1657.98 66.4648 1657.98 67.4414ZM1742.89 66.7578L1774.04 138.389C1774.3 138.91 1774.32 139.365 1774.09 139.756C1773.86 140.114 1773.44 140.293 1772.82 140.293H1767.06C1766.31 140.293 1765.77 139.854 1765.45 138.975L1761.49 129.502H1720.23L1716.33 138.926C1716 139.805 1715.45 140.244 1714.67 140.244H1709C1708.35 140.244 1707.91 140.081 1707.68 139.756C1707.46 139.398 1707.47 138.926 1707.73 138.34L1738.88 66.709C1739.27 65.7975 1739.88 65.3418 1740.69 65.3418H1741.08C1741.9 65.3418 1742.5 65.8138 1742.89 66.7578ZM1740.89 79.8926L1723.21 122.324H1758.51L1740.89 79.8926ZM2451.28 132.025L1795.33 132.871V67.0508C1795.33 66.237 1794.92 65.8301 1794.11 65.8301H1788.44C1787.6 65.8301 1787.18 66.237 1787.18 67.0508V138.877C1787.18 139.723 1787.6 140.146 1788.44 140.146L2451.23 139.3C2452.08 139.3 2452.5 138.877 2452.5 138.031V133.294C2452.5 132.448 2452.1 132.025 2451.28 132.025Z" fill="white"/>
</svg>
