<svg width="36" height="36" viewBox="0 0 36 36" fill="none" xmlns="http://www.w3.org/2000/svg">
<path fill-rule="evenodd" clip-rule="evenodd" d="M16.004 2.00205V1.99805C16.0271 1.48361 16.2476 0.997877 16.6198 0.641984C16.992 0.286092 17.4871 0.0874672 18.002 0.0874672C18.517 0.0874672 19.0121 0.286092 19.3843 0.641984C19.7565 0.997877 19.977 1.48361 20 1.99805V2.00405C20.001 5.7005 21.4639 9.24656 24.0694 11.8686C26.6749 14.4906 30.2117 15.9758 33.9081 16L34.002 15.998C34.5327 15.998 35.0417 16.2089 35.417 16.5841C35.7922 16.9594 36.003 17.4683 36.003 17.999C36.003 18.5297 35.7922 19.0387 35.417 19.414C35.0417 19.7892 34.5327 20 34.002 20H33.996C32.1581 19.9998 30.3381 20.3618 28.64 21.0653C26.942 21.7688 25.3993 22.8 24.1 24.1C22.8 25.3993 21.7688 26.942 21.0653 28.64C20.3618 30.3381 19.9998 32.1581 20 33.996V33.998C20.0003 34.2607 19.9488 34.5208 19.8486 34.7636C19.7483 35.0063 19.6012 35.2269 19.4157 35.4128C19.2301 35.5987 19.0098 35.7463 18.7673 35.847C18.5247 35.9478 18.2647 35.9998 18.002 36C17.7389 36.0003 17.4783 35.9486 17.2351 35.848C16.992 35.7474 16.7711 35.5997 16.5851 35.4136C16.3991 35.2274 16.2517 35.0063 16.1513 34.7631C16.0509 34.5199 15.9995 34.2592 16 33.996C16.0003 32.1581 15.6383 30.3381 14.9348 28.64C14.2313 26.942 13.2001 25.3993 11.9 24.1C10.6008 22.8 9.05807 21.7688 7.36006 21.0653C5.66204 20.3618 3.84203 19.9998 2.00405 20C1.47361 19.9876 0.967859 19.7649 0.6016 19.381C0.235342 18.9971 0.0365823 18.4835 0.0490475 17.953C0.0615127 17.4226 0.284181 16.9189 0.668068 16.5526C1.05195 16.1863 1.56561 15.9876 2.09605 16C5.77611 15.9761 9.29851 14.503 11.9 11.9C13.2001 10.6008 14.2313 9.05807 14.9348 7.36005C15.6383 5.66204 16.0003 3.84203 16 2.00405L16.004 2.00205ZM8.00405 33.888V34C8.00405 34.5305 7.79333 35.0392 7.41826 35.4143C7.04319 35.7893 6.53448 36 6.00405 36C5.47361 36 4.96491 35.7893 4.58983 35.4143C4.21476 35.0392 4.00405 34.5305 4.00405 34C4.00405 33.7371 3.95218 33.4767 3.85143 33.2338C3.75067 32.9908 3.60299 32.7702 3.41685 32.5844C3.23071 32.3986 3.00976 32.2514 2.76664 32.1511C2.52353 32.0509 2.26303 31.9995 2.00005 32H1.99605C1.46561 31.9995 0.957118 31.7883 0.58242 31.4128C0.207722 31.0374 -0.00248256 30.5285 -0.00195212 29.998C-0.00142169 29.4676 0.209801 28.9591 0.585249 28.5844C0.960696 28.2097 1.46961 27.9995 2.00005 28C2.26303 28.0006 2.52353 27.9492 2.76664 27.849C3.00976 27.7487 3.23071 27.6014 3.41685 27.4157C3.60299 27.2299 3.75067 27.0093 3.85143 26.7663C3.95218 26.5234 4.00405 26.263 4.00405 26C4.00405 25.4696 4.21476 24.9609 4.58983 24.5858C4.96491 24.2108 5.47361 24 6.00405 24C6.53448 24 7.04319 24.2108 7.41826 24.5858C7.79333 24.9609 8.00405 25.4696 8.00405 26V26.112C8.06205 27.164 8.93605 28 10.004 28C10.5345 27.9995 11.0434 28.2097 11.4188 28.5844C11.7943 28.9591 12.0055 29.4676 12.006 29.998C12.0066 30.5285 11.7964 31.0374 11.4217 31.4128C11.047 31.7883 10.5385 31.9995 10.008 32H10.004C8.93605 32 8.06205 32.836 8.00405 33.888ZM31.9981 9.88605L32 9.99805C32 10.5285 31.7893 11.0372 31.4143 11.4123C31.0392 11.7873 30.5305 11.998 30 11.998C29.4696 11.998 28.9609 11.7873 28.5858 11.4123C28.2108 11.0372 28 10.5285 28 9.99805C28 9.73507 27.9482 9.47467 27.8474 9.23176C27.7467 8.98884 27.599 8.76819 27.4128 8.58242C27.2267 8.39665 27.0058 8.24941 26.7626 8.14914C26.5195 8.04886 26.259 7.99752 25.996 7.99805H25.992C25.4616 7.99752 24.9531 7.78629 24.5784 7.41085C24.2037 7.0354 23.9935 6.52648 23.994 5.99605C23.9946 5.46561 24.2058 4.95712 24.5812 4.58242C24.9567 4.20772 25.4656 3.99752 25.996 3.99805C27.102 3.99805 28 3.10205 28 1.99805C28 1.46761 28.2108 0.958906 28.5858 0.583833C28.9609 0.20876 29.4696 -0.00195312 30 -0.00195312C30.5305 -0.00195312 31.0392 0.20876 31.4143 0.583833C31.7893 0.958906 32 1.46761 32 1.99805L31.9981 2.10805C32.056 3.16205 32.932 3.99805 34 3.99805C34.5305 3.99752 35.0394 4.20772 35.4148 4.58242C35.7903 4.95712 36.0015 5.46561 36.002 5.99605C36.0026 6.52648 35.7924 7.0354 35.4177 7.41085C35.043 7.78629 34.5345 7.99752 34.0041 7.99805H34C32.932 7.99805 32.056 8.83205 31.9981 9.88605Z" fill="#FFA100"/>
</svg>
