<svg width="20" height="20" viewBox="0 0 20 20" fill="none" xmlns="http://www.w3.org/2000/svg">
<g id="tabler-icon-eye-off">
<path id="Vector" d="M2.5 2.5L17.5 17.5" stroke="#929292" stroke-width="1.7" stroke-linecap="round" stroke-linejoin="round"/>
<path id="Vector_2" d="M8.81973 8.82227C8.50699 9.13478 8.33121 9.55873 8.33105 10.0008C8.3309 10.443 8.50638 10.867 8.81889 11.1798C9.13141 11.4925 9.55535 11.6683 9.99747 11.6684C10.4396 11.6686 10.8637 11.4931 11.1764 11.1806" stroke="#929292" stroke-width="1.7" stroke-linecap="round" stroke-linejoin="round"/>
<path id="Vector_3" d="M7.80283 4.47121C8.51734 4.26681 9.25715 4.16441 10.0003 4.16704C13.3337 4.16704 16.1112 6.11121 18.3337 10.0004C17.6853 11.1345 16.9903 12.1037 16.2478 12.907M14.4645 14.4579C13.1053 15.3745 11.6187 15.8337 10.0003 15.8337C6.66699 15.8337 3.88949 13.8895 1.66699 10.0004C2.80783 8.00454 4.09449 6.52121 5.52699 5.54954" stroke="#929292" stroke-width="1.7" stroke-linecap="round" stroke-linejoin="round"/>
</g>
</svg>
