<svg width="36" height="36" viewBox="0 0 36 36" fill="none" xmlns="http://www.w3.org/2000/svg">
<g id="main-categories / icon-lake">
<path id="Vector" fill-rule="evenodd" clip-rule="evenodd" d="M8.0397 2.47919C7.75207 2.18113 7.27725 2.17268 6.97919 2.46032C6.68113 2.74795 6.67268 3.22276 6.96032 3.52081C7.2424 3.81311 7.63447 4.26306 8.0898 4.89497C7.1325 5.82729 6.79804 7.28874 7.3602 8.5881L8.7186 11.7279C9.29895 13.0692 10.6593 13.8324 12.0394 13.7164C12.5411 15.544 12.9792 17.6468 13.2975 20.0539L12.0361 18.4322C10.3497 16.2638 7.8267 14.9075 5.08779 14.6968L4.06901 14.6185C2.36364 14.4873 1.80292 16.8547 3.38601 17.5024L4.71139 18.0445C6.16813 18.6405 7.37083 19.7268 8.11147 21.1156L8.40427 21.6645C7.28099 21.1048 5.88221 21.2239 4.85675 22.0875L3.75 23.0195V21.75C3.75 21.3358 3.41421 21 3 21C2.58579 21 2.25 21.3358 2.25 21.75V28.5C2.25 31.3995 4.60051 33.75 7.5 33.75H28.5C31.3995 33.75 33.75 31.3995 33.75 28.5V21.75C33.75 21.3358 33.4142 21 33 21C32.5858 21 32.25 21.3358 32.25 21.75V23.0194L31.1433 22.0875C29.74 20.9057 27.6375 21.118 26.4987 22.5565L26.3182 22.7845C25.709 23.5541 24.5411 23.5541 23.9318 22.7845C22.7219 21.2562 20.4031 21.2562 19.1932 22.7845C19.0147 23.0101 18.7881 23.1695 18.5417 23.2628C19.4963 20.5463 20.7482 17.9429 22.275 15.5001L25.1214 10.9457C25.5812 10.21 24.878 9.29925 24.0499 9.558L20.9942 10.5129C19.2415 11.0606 17.6979 12.131 16.5705 13.5805C15.8237 14.5407 15.2792 15.6421 14.9696 16.8185L14.5652 18.3553C14.2627 16.4677 13.8873 14.7725 13.468 13.2548C14.8744 12.4134 15.4734 10.6395 14.805 9.09465L13.4466 5.95483C12.7611 4.3705 10.9873 3.59275 9.3783 4.11787C8.85285 3.37822 8.38882 2.84102 8.0397 2.47919ZM11.0065 23.356C11.4056 23.3218 11.7937 23.1313 12.0682 22.7845C12.3175 22.4696 12.6137 22.2196 12.9377 22.0345L10.8521 19.3531C9.4251 17.5183 7.29029 16.3707 4.97275 16.1924L3.95396 16.114L5.27934 16.6562C7.0598 17.3846 8.52975 18.7123 9.435 20.4097L11.0065 23.356ZM15.2251 21.7417C15.8247 21.9023 16.3836 22.2499 16.8068 22.7845C16.877 22.8732 16.9546 22.9516 17.038 23.0199C18.04 20.1073 19.3701 17.3177 21.003 14.7051L23.0405 11.445L21.4416 11.9446C19.9808 12.4012 18.6942 13.2933 17.7545 14.5015C17.1321 15.3017 16.6782 16.2198 16.4202 17.2003L15.2251 21.7417ZM8.7369 7.99245C8.33865 7.07208 8.76202 6.00315 9.68242 5.60494C10.6027 5.20674 11.6717 5.63006 12.0699 6.55045L13.4284 9.69022C13.8265 10.6106 13.4033 11.6796 12.4829 12.0778C11.5625 12.476 10.4935 12.0526 10.0953 11.1322L8.7369 7.99245ZM3.75 24.75V28.2695L4.85675 27.3375C6.26007 26.1557 8.36257 26.368 9.5013 27.8065L9.68182 28.0345C10.2911 28.8041 11.459 28.8041 12.0682 28.0345C13.2781 26.5062 15.5969 26.5062 16.8068 28.0345C17.4161 28.8041 18.584 28.8041 19.1932 28.0345C20.4031 26.5062 22.7219 26.5062 23.9318 28.0345C24.5411 28.8041 25.709 28.8041 26.3182 28.0345L26.4987 27.8065C27.6375 26.368 29.74 26.1557 31.1433 27.3375L32.25 28.2694V24.75C32.0793 24.7501 31.9077 24.6922 31.7669 24.5737L30.1771 23.2348C29.421 22.5982 28.2883 22.7125 27.6748 23.4875L27.4943 23.7155C26.2844 25.2438 23.9656 25.2438 22.7557 23.7155C22.1465 22.9459 20.9786 22.9459 20.3693 23.7155C19.1594 25.2438 16.8406 25.2438 15.6307 23.7155C15.0215 22.9459 13.8536 22.9459 13.2443 23.7155C12.0344 25.2438 9.71557 25.2438 8.50575 23.7155L8.32522 23.4875C7.71172 22.7125 6.579 22.5982 5.82295 23.2348L4.23312 24.5737C4.09234 24.6922 3.92069 24.7501 3.75 24.75ZM7.5 32.25C5.94024 32.25 4.6029 31.2977 4.03763 29.9428C4.10679 29.9141 4.17279 29.8744 4.23312 29.8237L5.82295 28.4848C6.579 27.8482 7.71172 27.9625 8.32522 28.7375L8.50575 28.9655C9.71557 30.4938 12.0344 30.4938 13.2443 28.9655C13.8536 28.1959 15.0215 28.1959 15.6307 28.9655C16.8406 30.4938 19.1594 30.4938 20.3693 28.9655C20.9786 28.1959 22.1465 28.1959 22.7557 28.9655C23.9656 30.4938 26.2844 30.4938 27.4943 28.9655L27.6748 28.7375C28.2883 27.9625 29.421 27.8482 30.1771 28.4848L31.7669 29.8237C31.8272 29.8744 31.8932 29.9141 31.9624 29.9428C31.3971 31.2977 30.0598 32.25 28.5 32.25H7.5Z" fill="#6B6B6B"/>
<path id="Vector_2" fill-rule="evenodd" clip-rule="evenodd" d="M30 9C31.6568 9 33 7.65683 33 6C33 4.34314 31.6568 3 30 3C28.3432 3 27 4.34314 27 6C27 7.65683 28.3432 9 30 9ZM30 7.5C30.8284 7.5 31.5 6.82843 31.5 6C31.5 5.17157 30.8284 4.5 30 4.5C29.1716 4.5 28.5 5.17157 28.5 6C28.5 6.82843 29.1716 7.5 30 7.5Z" fill="#6B6B6B"/>
</g>
</svg>
