<svg width="36" height="36" viewBox="0 0 36 36" fill="none" xmlns="http://www.w3.org/2000/svg">
<g id="main-categories / icon-pool">
<path id="Vector" fill-rule="evenodd" clip-rule="evenodd" d="M23.25 1.5C20.7647 1.5 18.75 3.51472 18.75 6V8.25C18.75 8.66423 19.0858 9 19.5 9C19.9142 9 20.25 8.66423 20.25 8.25V6C20.25 4.34315 21.5932 3 23.25 3C24.9068 3 26.25 4.34315 26.25 6V12.75H15.75V6C15.75 3.51472 13.7353 1.5 11.25 1.5C8.76473 1.5 6.75 3.51472 6.75 6V8.25C6.75 8.66423 7.08579 9 7.5 9C7.91423 9 8.25 8.66423 8.25 8.25V6C8.25 4.34315 9.59318 3 11.25 3C12.9068 3 14.25 4.34315 14.25 6V19.394C13.4317 19.4444 12.6303 19.8245 12.0683 20.5345C11.459 21.3041 10.2911 21.3041 9.68183 20.5345L9.5013 20.3065C8.36258 18.8681 6.26007 18.6557 4.85675 19.8375L3.26692 21.1763C2.95008 21.4431 2.90952 21.9163 3.17633 22.2331C3.44315 22.55 3.91628 22.5905 4.23312 22.3237L5.82296 20.9849C6.579 20.3482 7.71173 20.4626 8.32523 21.2375L8.50575 21.4655C9.71558 22.9938 12.0344 22.9938 13.2443 21.4655C13.8536 20.6959 15.0215 20.6959 15.6308 21.4655C16.8406 22.9938 19.1594 22.9938 20.3693 21.4655C20.9786 20.6959 22.1465 20.6959 22.7558 21.4655C23.9656 22.9938 26.2844 22.9938 27.4943 21.4655L27.6748 21.2375C28.2883 20.4626 29.421 20.3482 30.1771 20.9849L31.7669 22.3237C32.0837 22.5905 32.5569 22.55 32.8237 22.2331C33.0905 21.9163 33.0499 21.4431 32.7332 21.1763L31.1433 19.8375C30.1642 19.013 28.8449 18.8672 27.75 19.3427V6C27.75 3.51472 25.7353 1.5 23.25 1.5ZM15.75 14.25V19.6862C16.1471 19.8771 16.5103 20.1599 16.8068 20.5345C17.4161 21.3041 18.584 21.3041 19.1933 20.5345C20.4031 19.0062 22.7219 19.0062 23.9318 20.5345C24.5191 21.2763 25.6252 21.3031 26.25 20.615V14.25H15.75Z" fill="#6B6B6B"/>
<path id="Vector_2" d="M27.6748 27.2376C28.2883 26.4626 29.421 26.3482 30.1771 26.9849L31.7669 28.3237C32.0837 28.5905 32.5569 28.55 32.8237 28.2331C33.0905 27.9163 33.0499 27.4431 32.7332 27.1764L31.1433 25.8375C29.74 24.6558 27.6375 24.8681 26.4987 26.3065L26.3183 26.5345C25.709 27.3042 24.5411 27.3042 23.9318 26.5345C22.7219 25.0062 20.4031 25.0062 19.1933 26.5345C18.584 27.3042 17.4161 27.3042 16.8068 26.5345C15.5969 25.0062 13.2781 25.0062 12.0683 26.5345C11.459 27.3042 10.2911 27.3042 9.68183 26.5345L9.5013 26.3065C8.36258 24.8681 6.26007 24.6558 4.85675 25.8375L3.26692 27.1764C2.95008 27.4431 2.90952 27.9163 3.17633 28.2331C3.44315 28.55 3.91628 28.5905 4.23312 28.3237L5.82296 26.9849C6.579 26.3482 7.71173 26.4626 8.32523 27.2376L8.50575 27.4656C9.71558 28.9938 12.0344 28.9938 13.2443 27.4656C13.8536 26.6959 15.0215 26.6959 15.6308 27.4656C16.8406 28.9938 19.1594 28.9938 20.3693 27.4656C20.9786 26.6959 22.1465 26.6959 22.7558 27.4656C23.9656 28.9938 26.2844 28.9938 27.4943 27.4656L27.6748 27.2376Z" fill="#6B6B6B"/>
<path id="Vector_3" d="M30.1771 32.9849C29.421 32.3482 28.2883 32.4626 27.6748 33.2376L27.4943 33.4656C26.2844 34.9938 23.9656 34.9938 22.7558 33.4656C22.1465 32.6959 20.9786 32.6959 20.3693 33.4656C19.1594 34.9938 16.8406 34.9938 15.6308 33.4656C15.0215 32.6959 13.8536 32.6959 13.2443 33.4656C12.0344 34.9938 9.71558 34.9938 8.50575 33.4656L8.32523 33.2376C7.71173 32.4626 6.579 32.3482 5.82296 32.9849L4.23312 34.3237C3.91628 34.5905 3.44315 34.55 3.17633 34.2331C2.90952 33.9163 2.95008 33.4431 3.26692 33.1764L4.85675 31.8375C6.26007 30.6558 8.36258 30.8681 9.5013 32.3065L9.68183 32.5345C10.2911 33.3042 11.459 33.3042 12.0683 32.5345C13.2781 31.0062 15.5969 31.0062 16.8068 32.5345C17.4161 33.3042 18.584 33.3042 19.1933 32.5345C20.4031 31.0062 22.7219 31.0062 23.9318 32.5345C24.5411 33.3042 25.709 33.3042 26.3183 32.5345L26.4987 32.3065C27.6375 30.8681 29.74 30.6558 31.1433 31.8375L32.7332 33.1764C33.0499 33.4431 33.0905 33.9163 32.8237 34.2331C32.5569 34.55 32.0837 34.5905 31.7669 34.3237L30.1771 32.9849Z" fill="#6B6B6B"/>
</g>
</svg>
