<svg width="36" height="36" viewBox="0 0 36 36" fill="none" xmlns="http://www.w3.org/2000/svg">
<g id="main-categories / icon-forest">
<path id="Vector" d="M20.2274 2.36394C20.3056 2.31496 20.3935 2.28 20.4875 2.26257C20.5332 2.254 20.5791 2.24982 20.6245 2.24982C20.6704 2.24977 20.7166 2.25395 20.7626 2.26259C20.8565 2.27999 20.9442 2.31489 21.0224 2.36376C21.0298 2.36842 21.0371 2.37321 21.0444 2.37812C21.1331 2.43779 21.2097 2.51686 21.2672 2.61234C21.29 2.64996 21.3095 2.68974 21.3254 2.73131C21.3749 2.85194 21.422 2.96941 21.4679 3.0837C21.723 3.71918 21.9386 4.25629 22.2769 4.68639C22.6239 5.12769 23.1026 5.45001 24 5.45001C24.4142 5.45001 24.75 5.7858 24.75 6.20002C24.75 6.61423 24.4142 6.95002 24 6.95002C22.8197 6.95002 21.9825 6.54669 21.375 5.92923V7.05304C21.4067 7.13131 21.4376 7.20818 21.4679 7.28367C21.723 7.91917 21.9386 8.45625 22.2769 8.88637C22.6239 9.32767 23.1026 9.65002 24 9.65002C24.4142 9.65002 24.75 9.9858 24.75 10.4C24.75 10.8142 24.4142 11.15 24 11.15C22.8197 11.15 21.9825 10.7467 21.375 10.1292V15C21.375 15.4142 21.0392 15.75 20.625 15.75C20.2108 15.75 19.875 15.4142 19.875 15V10.1292C19.2675 10.7467 18.4303 11.15 17.25 11.15C16.8358 11.15 16.5 10.8142 16.5 10.4C16.5 9.9858 16.8358 9.65002 17.25 9.65002C18.1475 9.65002 18.6261 9.32767 18.9732 8.88637C19.3114 8.45625 19.5268 7.91955 19.782 7.28408L19.7826 7.28246L19.7837 7.27998C19.8135 7.20568 19.8439 7.13003 19.875 7.05304V5.92923C19.2675 6.54669 18.4303 6.95002 17.25 6.95002C16.8358 6.95002 16.5 6.61423 16.5 6.20002C16.5 5.7858 16.8358 5.45001 17.25 5.45001C18.1475 5.45001 18.6261 5.12769 18.9732 4.68639C19.3114 4.25629 19.5268 3.71958 19.782 3.0841C19.8278 2.96984 19.8751 2.85199 19.9246 2.73139C19.9405 2.68969 19.9602 2.64978 19.983 2.61205C19.9911 2.59867 19.9996 2.58557 20.0085 2.57275C20.0654 2.49051 20.1392 2.41895 20.2274 2.36394Z" fill="#6B6B6B"/>
<path id="Vector_2" d="M9.12908 9.76113C9.22455 9.77763 9.3138 9.8122 9.39315 9.86118C9.40425 9.86808 9.4152 9.8752 9.42592 9.88263C9.55297 9.97045 9.65168 10.0965 9.70522 10.2442C9.79012 10.4627 9.87248 10.6794 9.95377 10.8936C10.406 12.0843 10.8281 13.1955 11.4899 14.083C12.2205 15.0629 13.2365 15.75 15 15.75C15.4142 15.75 15.75 16.0858 15.75 16.5C15.75 16.9143 15.4142 17.25 15 17.25C12.7302 17.25 11.281 16.3122 10.2873 14.9796C10.0919 14.7175 9.91395 14.4393 9.75 14.1511V17.1099C9.81922 17.2893 9.88695 17.4675 9.95393 17.644C10.4062 18.8347 10.8281 19.9455 11.4899 20.833C12.2205 21.8129 13.2365 22.5 15 22.5C15.4142 22.5 15.75 22.8358 15.75 23.25C15.75 23.6643 15.4142 24 15 24C12.7302 24 11.281 23.0622 10.2873 21.7296C10.0919 21.4675 9.91395 21.1893 9.75 20.9011V33C9.75 33.4143 9.41423 33.75 9 33.75C8.58577 33.75 8.25 33.4143 8.25 33V20.9011C8.08612 21.1893 7.90815 21.4675 7.7127 21.7296C6.71906 23.0622 5.26981 24 3 24C2.58578 24 2.25 23.6643 2.25 23.25C2.25 22.8358 2.58578 22.5 3 22.5C4.76353 22.5 5.77955 21.8129 6.5102 20.833C7.172 19.9455 7.59375 18.835 8.046 17.6442C8.11297 17.4678 8.18078 17.2893 8.25 17.1099V14.1511C8.08612 14.4393 7.90815 14.7175 7.7127 14.9796C6.71906 16.3122 5.26981 17.25 3 17.25C2.58578 17.25 2.25 16.9143 2.25 16.5C2.25 16.0858 2.58578 15.75 3 15.75C4.76353 15.75 5.77955 15.0629 6.5102 14.083C7.172 13.1955 7.59375 12.085 8.046 10.8942C8.12737 10.68 8.20988 10.4628 8.29478 10.2442C8.31052 10.2007 8.33025 10.1592 8.35335 10.1199C8.39003 10.0574 8.4348 10.0017 8.48588 9.95373C8.52247 9.9193 8.5629 9.88818 8.60685 9.86125C8.68657 9.81205 8.77612 9.7774 8.87197 9.7609C8.91488 9.7534 8.95785 9.7498 9.00045 9.74988C9.04312 9.74988 9.08617 9.75355 9.12908 9.76113Z" fill="#6B6B6B"/>
<path id="Vector_3" fill-rule="evenodd" clip-rule="evenodd" d="M20.25 33.75C19.4216 33.75 18.75 33.0784 18.75 32.25V23.9582C18.75 23.5756 18.8962 23.2076 19.1585 22.9293L25.1585 16.5645C25.7507 15.9364 26.7494 15.9364 27.3415 16.5645L32.25 21.7714V16.875C32.25 16.4608 32.5858 16.125 33 16.125C33.4142 16.125 33.75 16.4608 33.75 16.875V32.25C33.75 33.0784 33.0785 33.75 32.25 33.75H20.25ZM20.25 32.25V24H32.25V32.25H29.25V27.75C29.25 27.3358 28.9142 27 28.5 27H24C23.5858 27 23.25 27.3358 23.25 27.75V32.25H20.25ZM27.75 32.25V28.5H24.75V32.25H27.75ZM26.25 17.5934L21.6247 22.5H30.8754L26.25 17.5934Z" fill="#6B6B6B"/>
</g>
</svg>
