<svg width="36" height="36" viewBox="0 0 36 36" fill="none" xmlns="http://www.w3.org/2000/svg">
<g id="main-categories / icon-fireplace">
<path id="Vector" fill-rule="evenodd" clip-rule="evenodd" d="M18.6035 15.1541C19.8304 17.0271 22.5 21.2984 22.5 23C22.5 25.2092 20.4853 27 18 27C15.5147 27 13.5 25.2092 13.5 23C13.5 21.2984 16.1696 17.0271 17.3965 15.1541C17.6845 14.7142 18.3155 14.7142 18.6035 15.1541ZM20.6723 21.8801C20.9315 22.5235 21 22.8817 21 23C21 23.6069 20.7097 24.229 20.1926 24.7008C20.2301 24.5559 20.25 24.405 20.25 24.25C20.25 23.5262 19.2839 21.7114 18.6178 20.5462C18.3409 20.0618 17.6591 20.0618 17.3822 20.5462C16.7162 21.7114 15.75 23.5262 15.75 24.25C15.75 24.405 15.7699 24.5559 15.8074 24.7008C15.2903 24.229 15 23.6069 15 23C15 22.8817 15.0685 22.5235 15.3277 21.8801C15.5675 21.2846 15.9104 20.588 16.307 19.856C16.8516 18.851 17.4701 17.8295 18 16.9892C18.5299 17.8295 19.1484 18.851 19.693 19.856C20.0896 20.588 20.4325 21.2846 20.6723 21.8801ZM19.125 24.25C19.125 24.2536 19.1248 24.2522 19.1236 24.2455C19.119 24.2195 19.1003 24.1125 19.0262 23.8996C18.9431 23.6609 18.8194 23.369 18.6659 23.0429C18.4662 22.6189 18.2305 22.1673 18 21.7458C17.7695 22.1673 17.5338 22.6189 17.3341 23.0429C17.1806 23.369 17.0569 23.6609 16.9738 23.8996C16.8997 24.1125 16.881 24.2195 16.8764 24.2455C16.8752 24.2522 16.875 24.2536 16.875 24.25C16.875 24.6124 17.2504 25.125 18 25.125C18.7495 25.125 19.125 24.6124 19.125 24.25Z" fill="#6B6B6B"/>
<path id="Vector_2" fill-rule="evenodd" clip-rule="evenodd" d="M2.25 3.75C2.25 2.92157 2.92157 2.25 3.75 2.25H32.25C33.0784 2.25 33.75 2.92157 33.75 3.75V6.75C33.75 7.57845 33.0784 8.25 32.25 8.25V27.75C33.0784 27.75 33.75 28.4216 33.75 29.25V32.25C33.75 33.0784 33.0784 33.75 32.25 33.75H3.75C2.92157 33.75 2.25 33.0784 2.25 32.25V29.25C2.25 28.4216 2.92157 27.75 3.75 27.75V8.25C2.92157 8.25 2.25 7.57845 2.25 6.75V3.75ZM5.25 8.25H30.75V27.75H27.75V20.25C27.75 14.8652 23.3848 10.5 18 10.5C12.6152 10.5 8.25 14.8652 8.25 20.25V27.75H5.25V8.25ZM26.25 27.75V20.25C26.25 15.6937 22.5563 12 18 12C13.4437 12 9.75 15.6937 9.75 20.25V27.75H26.25ZM32.25 3.75H3.75V6.75H32.25V3.75ZM32.25 32.25V29.25H3.75V32.25H32.25Z" fill="#6B6B6B"/>
</g>
</svg>
