<svg width="36" height="36" viewBox="0 0 36 36" fill="none" xmlns="http://www.w3.org/2000/svg">
<g id="main-categories / icon-mountains">
<path id="Vector" fill-rule="evenodd" clip-rule="evenodd" d="M28.5 10.5C30.1568 10.5 31.5 9.15683 31.5 7.5C31.5 5.84314 30.1568 4.5 28.5 4.5C26.8432 4.5 25.5 5.84314 25.5 7.5C25.5 9.15683 26.8432 10.5 28.5 10.5ZM28.5 9C29.3284 9 30 8.32845 30 7.5C30 6.67157 29.3284 6 28.5 6C27.6716 6 27 6.67157 27 7.5C27 8.32845 27.6716 9 28.5 9Z" fill="#6B6B6B"/>
<path id="Vector_2" fill-rule="evenodd" clip-rule="evenodd" d="M21.7643 18.6325L16.3824 5.85065C15.8671 4.62677 14.1329 4.62676 13.6175 5.85065L2.74706 31.6679C2.33076 32.6567 3.05675 33.75 4.12951 33.75H25.8704C25.8732 33.75 25.8761 33.75 25.8789 33.75H31.8684C32.9422 33.75 33.6682 32.6546 33.2498 31.6655L26.1315 14.8404C25.6151 13.6197 23.885 13.6197 23.3686 14.8404L21.7643 18.6325ZM10.9217 16.1186L4.12951 32.25H16.1301C16.1303 32.0571 16.1683 31.8593 16.2503 31.6655L20.9486 20.5606L19.0783 16.1186C16.5233 17.4438 13.4766 17.4438 10.9217 16.1186ZM18.4939 14.7308C16.3149 15.9064 13.685 15.9064 11.5061 14.7308L14.9999 6.43273L18.4939 14.7308ZM17.6318 32.25L21.5909 22.8921C23.6073 23.7542 25.8928 23.7542 27.9092 22.8921L31.8684 32.25H17.6318ZM27.3247 21.5106C25.6817 22.2148 23.8184 22.2147 22.1753 21.5106L24.7501 15.4249L27.3247 21.5106Z" fill="#6B6B6B"/>
</g>
</svg>
