<svg width="36" height="36" viewBox="0 0 36 36" fill="none" xmlns="http://www.w3.org/2000/svg">
<g id="main-categories / icon-landscape">
<path id="Vector" fill-rule="evenodd" clip-rule="evenodd" d="M29.25 11.25C29.25 12.9068 27.9068 14.25 26.25 14.25C24.5932 14.25 23.25 12.9068 23.25 11.25C23.25 9.59317 24.5932 8.25 26.25 8.25C27.9068 8.25 29.25 9.59317 29.25 11.25ZM27.75 11.25C27.75 12.0784 27.0784 12.75 26.25 12.75C25.4216 12.75 24.75 12.0784 24.75 11.25C24.75 10.4216 25.4216 9.75 26.25 9.75C27.0784 9.75 27.75 10.4216 27.75 11.25Z" fill="#6B6B6B"/>
<path id="Vector_2" fill-rule="evenodd" clip-rule="evenodd" d="M3.75 2.25C2.92157 2.25 2.25 2.92157 2.25 3.75V17.9248C2.25 17.9472 2.25088 17.9693 2.25263 17.9912C2.25088 18.0128 2.25 18.0347 2.25 18.0569V32.25C2.25 33.0784 2.92157 33.75 3.75 33.75H9.37875C9.99802 33.75 10.5 33.248 10.5 32.6287V32.25H19.3101H19.3175H30.9324H30.9398H32.25C33.0784 32.25 33.75 31.5784 33.75 30.75V5.25C33.75 4.42157 33.0784 3.75 32.25 3.75H12.75V3.23364C12.75 2.69039 12.3096 2.25 11.7664 2.25H3.75ZM11.25 3.75H3.75V17.2163C5.58203 17.0327 7.2718 16.1075 8.4141 14.6388L8.78295 14.1646C10.382 12.1088 11.25 9.5787 11.25 6.97434V3.75ZM12.75 5.25H32.25V30.0329C32.2411 30.0166 32.2319 30.0004 32.2223 29.9842L26.4148 20.2033C25.8335 19.2243 24.4165 19.2243 23.8352 20.2033L22.5124 22.4312L18.5414 15.7112C17.9608 14.7286 16.5392 14.7286 15.9587 15.7112L10.241 25.3873C9.98752 23.9036 9.5499 22.4531 8.93535 21.0704C8.37038 19.7991 7.42463 18.7751 6.26746 18.1085C7.5621 17.5662 8.71425 16.6961 9.59812 15.5597L9.96705 15.0854C11.7707 12.7664 12.75 9.9123 12.75 6.97434V5.25ZM17.25 16.4742L21.6391 23.902L18.0278 29.9842C17.8813 30.2309 17.8148 30.4939 17.8153 30.7499L10.5 30.75V28.4433C10.5 28.2656 10.4974 28.0879 10.4922 27.9106L17.25 16.4742ZM30.9324 30.75L25.125 20.969L19.3176 30.7499L30.9324 30.75ZM9 32.25H3.75V18.7988C5.41657 19.0349 6.86799 20.1122 7.56465 21.6796C8.511 23.8089 9 26.1131 9 28.4433V32.25Z" fill="#6B6B6B"/>
</g>
</svg>
