<svg width="36" height="36" viewBox="0 0 36 36" fill="none" xmlns="http://www.w3.org/2000/svg">
<g id="main-categories / icon-river">
<path id="Vector" fill-rule="evenodd" clip-rule="evenodd" d="M10.8415 2.72102C10.2494 2.09291 9.25065 2.09291 8.65852 2.72102L2.65852 9.08578C2.39614 9.36411 2.25 9.73221 2.25 10.1147V19.9066H33C33.4142 19.9066 33.75 19.5708 33.75 19.1566C33.75 18.7423 33.4142 18.4066 33 18.4066H30.75V12.75H33C33.4142 12.75 33.75 12.4142 33.75 12C33.75 11.5858 33.4142 11.25 33 11.25H30.75V10.5C30.75 10.0858 30.4142 9.74998 30 9.74998C29.5858 9.74998 29.25 10.0858 29.25 10.5V11.25H26.25V10.5C26.25 10.0858 25.9142 9.74998 25.5 9.74998C25.0858 9.74998 24.75 10.0858 24.75 10.5V11.25H21.75V10.5C21.75 10.0858 21.4142 9.74998 21 9.74998C20.5858 9.74998 20.25 10.0858 20.25 10.5V11.25H17.25V10.1147C17.25 9.73221 17.1039 9.36411 16.8415 9.08578L10.8415 2.72102ZM17.25 12.75V18.4066H20.25V12.75H17.25ZM21.75 18.4066H24.75V12.75H21.75V18.4066ZM26.25 18.4066H29.25V12.75H26.25V18.4066ZM12.75 18.4066H15.75V10.1566H3.75V18.4066H6.75V13.9066C6.75 13.4923 7.08579 13.1566 7.5 13.1566H12C12.4142 13.1566 12.75 13.4923 12.75 13.9066V18.4066ZM11.25 18.4066H8.25V14.6566H11.25V18.4066ZM5.12458 8.65656H14.3754L9.75 3.74994L5.12458 8.65656Z" fill="#6B6B6B"/>
<path id="Vector_2" fill-rule="evenodd" clip-rule="evenodd" d="M28.5 8.25C30.1568 8.25 31.5 6.90686 31.5 5.25C31.5 3.59314 30.1568 2.25 28.5 2.25C26.8432 2.25 25.5 3.59314 25.5 5.25C25.5 6.90686 26.8432 8.25 28.5 8.25ZM28.5 6.75C29.3284 6.75 30 6.07843 30 5.25C30 4.42157 29.3284 3.75 28.5 3.75C27.6716 3.75 27 4.42157 27 5.25C27 6.07843 27.6716 6.75 28.5 6.75Z" fill="#6B6B6B"/>
<path id="Vector_3" d="M30.838 23.9809C30.0145 23.3221 28.8153 23.4432 28.1402 24.2533L27.9512 24.4802C26.6755 26.0109 24.3245 26.0109 23.0488 24.4802C22.3729 23.669 21.1271 23.669 20.4512 24.4802C19.1755 26.0109 16.8245 26.0109 15.5488 24.4802C14.8729 23.669 13.6271 23.669 12.9512 24.4802C11.6755 26.0109 9.32452 26.0109 8.04885 24.4802L7.85985 24.2533C7.18472 23.4432 5.98555 23.3221 5.16208 23.9809L3.46855 25.3357C3.1451 25.5944 2.67313 25.542 2.41438 25.2185C2.15562 24.8951 2.20806 24.4232 2.5315 24.1643L4.22503 22.8095C5.68627 21.6406 7.81417 21.8554 9.01215 23.293L9.20122 23.5198C9.87712 24.331 11.1229 24.331 11.7988 23.5198C13.0745 21.9891 15.4255 21.9891 16.7012 23.5198C17.3771 24.331 18.6229 24.331 19.2988 23.5198C20.5745 21.9891 22.9255 21.9891 24.2012 23.5198C24.8771 24.331 26.1229 24.331 26.7989 23.5198L26.9879 23.293C28.1859 21.8554 30.3138 21.6406 31.775 22.8095L33.4685 24.1643C33.792 24.4232 33.8444 24.8951 33.5857 25.2185C33.3269 25.542 32.855 25.5944 32.5315 25.3357L30.838 23.9809Z" fill="#6B6B6B"/>
<path id="Vector_4" d="M28.1402 30.2533C28.8153 29.4432 30.0145 29.3221 30.838 29.9809L32.5315 31.3357C32.855 31.5944 33.3269 31.542 33.5857 31.2185C33.8444 30.8951 33.792 30.4232 33.4685 30.1643L31.775 28.8095C30.3138 27.6406 28.1859 27.8554 26.9879 29.293L26.7989 29.5198C26.1229 30.331 24.8771 30.331 24.2012 29.5198C22.9255 27.9891 20.5745 27.9891 19.2988 29.5198C18.6229 30.331 17.3771 30.331 16.7012 29.5198C15.4255 27.9891 13.0745 27.9891 11.7988 29.5198C11.1229 30.331 9.87712 30.331 9.20122 29.5198L9.01215 29.293C7.81417 27.8554 5.68627 27.6406 4.22503 28.8095L2.5315 30.1643C2.20806 30.4232 2.15562 30.8951 2.41438 31.2185C2.67313 31.542 3.1451 31.5944 3.46855 31.3357L5.16208 29.9809C5.98555 29.3221 7.18472 29.4432 7.85985 30.2533L8.04885 30.4802C9.32452 32.0109 11.6755 32.0109 12.9512 30.4802C13.6271 29.669 14.8729 29.669 15.5488 30.4802C16.8245 32.0109 19.1755 32.0109 20.4512 30.4802C21.1271 29.669 22.3729 29.669 23.0488 30.4802C24.3245 32.0109 26.6755 32.0109 27.9512 30.4802L28.1402 30.2533Z" fill="#6B6B6B"/>
</g>
</svg>
