<svg width="36" height="36" viewBox="0 0 36 36" fill="none" xmlns="http://www.w3.org/2000/svg">
<g id="main-categories / icon-bath">
<path id="Vector" d="M12.5856 6.46849C12.8443 6.14504 12.7919 5.67307 12.4684 5.41432C12.145 5.15556 11.6731 5.208 11.4142 5.53144L11.2462 5.74162C10.2484 6.98885 10.2484 8.76111 11.2462 10.0083L11.2723 10.0409C11.3982 10.1983 11.5396 10.3426 11.6944 10.4717C12.4147 11.0719 12.4147 12.178 11.6944 12.7783L11.5198 12.9238C11.2016 13.189 11.1586 13.6619 11.4238 13.9801C11.689 14.2983 12.1618 14.3413 12.4801 14.0761L12.6547 13.9306C14.0946 12.7307 14.0946 10.5193 12.6547 9.31933C12.5773 9.25483 12.5065 9.18261 12.4435 9.10386L12.4174 9.07123C11.8579 8.37186 11.8579 7.37806 12.4174 6.67867L12.5856 6.46849Z" fill="#6B6B6B"/>
<path id="Vector_2" fill-rule="evenodd" clip-rule="evenodd" d="M28.5 8.25C28.5 9.90683 27.1568 11.25 25.5 11.25C23.8432 11.25 22.5 9.90683 22.5 8.25C22.5 6.59314 23.8432 5.25 25.5 5.25C27.1568 5.25 28.5 6.59314 28.5 8.25ZM27 8.25C27 9.07845 26.3284 9.75 25.5 9.75C24.6716 9.75 24 9.07845 24 8.25C24 7.42157 24.6716 6.75 25.5 6.75C26.3284 6.75 27 7.42157 27 8.25Z" fill="#6B6B6B"/>
<path id="Vector_3" d="M27.872 24.287C27.4574 25.288 26.8497 26.1974 26.0836 26.9636C25.3175 27.7296 24.4081 28.3373 23.4071 28.7519C22.4062 29.1665 21.3334 29.3799 20.25 29.3799C19.8358 29.3799 19.5 29.0441 19.5 28.6299C19.5 28.2157 19.8358 27.8799 20.25 27.8799C21.1364 27.8799 22.0141 27.7053 22.8331 27.3661C23.6521 27.0269 24.3961 26.5297 25.023 25.9028C25.6498 25.2761 26.1469 24.532 26.4862 23.713C26.6447 23.3303 27.0834 23.1486 27.4661 23.3071C27.8488 23.4656 28.0305 23.9044 27.872 24.287Z" fill="#6B6B6B"/>
<path id="Vector_4" fill-rule="evenodd" clip-rule="evenodd" d="M33 18H30V16.5C30 14.0147 27.9853 12 25.5 12C23.0147 12 21 14.0147 21 16.5V18H3C2.58578 18 2.24813 18.336 2.26785 18.7497C2.35421 20.5619 2.75316 22.3476 3.4489 24.0273C4.1446 25.7069 5.12509 27.2516 6.34538 28.594L2.46967 32.4697C2.17678 32.7626 2.17678 33.2375 2.46967 33.5303C2.76257 33.8233 3.23743 33.8233 3.53033 33.5303L7.40604 29.6546C8.74852 30.875 10.2931 31.8554 11.9727 32.5511C13.8836 33.3426 15.9317 33.75 18 33.75C20.0683 33.75 22.1164 33.3426 24.0272 32.5511C25.7069 31.8554 27.2515 30.875 28.594 29.6546L32.4697 33.5303C32.7626 33.8233 33.2374 33.8233 33.5303 33.5303C33.8232 33.2375 33.8232 32.7626 33.5303 32.4697L29.6546 28.594C30.8749 27.2516 31.8554 25.7069 32.5511 24.0273C33.2468 22.3476 33.6458 20.5619 33.7322 18.7497C33.7519 18.336 33.4142 18 33 18ZM32.1708 19.5H3.82916C3.97276 20.8566 4.31069 22.1882 4.83471 23.4533C5.55084 25.1822 6.60049 26.753 7.92375 28.0763C9.24697 29.3995 10.8179 30.4492 12.5468 31.1653C14.2757 31.8815 16.1287 32.25 18 32.25C19.8713 32.25 21.7243 31.8815 23.4533 31.1653C25.1821 30.4492 26.753 29.3995 28.0763 28.0763C29.3995 26.753 30.4492 25.1822 31.1653 23.4533C31.6893 22.1882 32.0273 20.8566 32.1708 19.5ZM28.5 16.5V18H22.5V16.5C22.5 14.8432 23.8432 13.5 25.5 13.5C27.1568 13.5 28.5 14.8432 28.5 16.5Z" fill="#6B6B6B"/>
<path id="Vector_5" d="M7.96845 6.91432C8.29192 7.17307 8.34435 7.64503 8.0856 7.96851L7.91745 8.17866C7.35792 8.87803 7.35792 9.87186 7.91745 10.5712L7.94355 10.6039C8.00655 10.6826 8.07727 10.7548 8.15475 10.8193C9.5946 12.0193 9.5946 14.2307 8.15475 15.4306L7.98007 15.5761C7.66185 15.8413 7.18894 15.7983 6.92377 15.4801C6.6586 15.1619 6.70159 14.689 7.0198 14.4238L7.19447 14.2783C7.91467 13.678 7.91467 12.5719 7.19447 11.9717C7.03962 11.8426 6.89816 11.6983 6.77224 11.5409L6.74614 11.5083C5.74836 10.2611 5.74836 8.48886 6.74614 7.24162L6.91428 7.03144C7.17304 6.708 7.64497 6.65556 7.96845 6.91432Z" fill="#6B6B6B"/>
<path id="Vector_6" d="M17.0856 7.96851C17.3443 7.64503 17.2919 7.17307 16.9684 6.91432C16.645 6.65556 16.1731 6.708 15.9142 7.03144L15.7462 7.24162C14.7484 8.48886 14.7484 10.2611 15.7462 11.5083L15.7723 11.5409C15.8982 11.6983 16.0396 11.8426 16.1944 11.9717C16.9147 12.5719 16.9147 13.678 16.1944 14.2783L16.0198 14.4238C15.7016 14.689 15.6586 15.1619 15.9238 15.4801C16.189 15.7983 16.6618 15.8413 16.9801 15.5761L17.1547 15.4306C18.5946 14.2307 18.5946 12.0193 17.1547 10.8193C17.0773 10.7548 17.0065 10.6826 16.9435 10.6039L16.9174 10.5712C16.3579 9.87186 16.3579 8.87803 16.9174 8.17866L17.0856 7.96851Z" fill="#6B6B6B"/>
</g>
</svg>
