<svg width="36" height="36" viewBox="0 0 36 36" fill="none" xmlns="http://www.w3.org/2000/svg">
<g id="main-categories / icon-village">
<path id="Vector" fill-rule="evenodd" clip-rule="evenodd" d="M24.7799 3.07235C25.3727 2.43918 26.3773 2.43918 26.9701 3.07235L31.0951 7.47874C31.3552 7.75668 31.5 8.12313 31.5 8.50383V13.5H33C33.4142 13.5 33.75 13.8358 33.75 14.25C33.75 14.6643 33.4142 15 33 15H17.25V18.75H33C33.4142 18.75 33.75 19.0858 33.75 19.5C33.75 19.9143 33.4142 20.25 33 20.25H17.25V21.4065C17.25 21.4372 17.2491 21.4677 17.2473 21.4978C17.4785 21.5533 17.7098 21.611 17.941 21.6709C20.1059 22.2314 22.2849 22.9911 24.3389 24H33C33.4142 24 33.75 24.3358 33.75 24.75C33.75 25.1643 33.4142 25.5 33 25.5H26.9954C29.741 27.2788 32.1018 29.6154 33.6669 32.6568C33.8564 33.0252 33.7115 33.4774 33.3432 33.6669C32.9749 33.8565 32.5226 33.7116 32.3331 33.3432C29.4758 27.7906 23.6222 24.6913 17.5651 23.123C14.1616 22.2417 10.748 21.8586 7.86773 21.7839C13.9616 23.4351 20.0959 26.6891 23.1669 32.6569C23.3564 33.0252 23.2115 33.4775 22.8432 33.667C22.4749 33.8565 22.0226 33.7116 21.8331 33.3433C18.9758 27.7906 13.1221 24.6914 7.06505 23.1231C5.44276 22.703 3.8181 22.3961 2.25 22.1818V13.1148C2.25 12.7322 2.39614 12.3642 2.65852 12.0858L8.65852 5.72102C9.25065 5.09291 10.2494 5.09291 10.8415 5.72102L16.8415 12.0858C17.1039 12.3642 17.25 12.7322 17.25 13.1148V13.5H20.25V8.50383C20.25 8.12313 20.3948 7.75668 20.6549 7.47874L24.7799 3.07235ZM30 13.5V9.00003H21.75V13.5H30ZM25.875 4.09748L29.0603 7.50003H22.6898L25.875 4.09748ZM6.75 20.2701C5.65 20.2717 4.63954 20.3176 3.75 20.3972V13.1566H15.75V21.1674C14.7374 20.9631 13.733 20.7983 12.75 20.6684V16.9066C12.75 16.4924 12.4142 16.1566 12 16.1566H7.5C7.08579 16.1566 6.75 16.4924 6.75 16.9066V20.2701ZM11.25 17.6566V20.4949C10.211 20.3917 9.20543 20.3269 8.25 20.2947V17.6566H11.25ZM9.75 6.74994L14.3755 11.6566H5.12453L9.75 6.74994Z" fill="#6B6B6B"/>
<path id="Vector_2" d="M11.3331 33.3432C9.3942 29.5754 6.07562 26.9372 2.25 25.1405V23.4931C6.54992 25.3894 10.4248 28.2999 12.6669 32.6569C12.8564 33.0252 12.7114 33.4774 12.3432 33.6669C11.9749 33.8565 11.5226 33.7116 11.3331 33.3432Z" fill="#6B6B6B"/>
</g>
</svg>
