<svg width="36" height="36" viewBox="0 0 36 36" fill="none" xmlns="http://www.w3.org/2000/svg">
<g id="main-categories / icon-log-cabin">
<path id="Vector" fill-rule="evenodd" clip-rule="evenodd" d="M30.75 2.25C31.1642 2.25 31.5 2.58579 31.5 3V14.0725L32.0048 14.5242C33.035 14.9993 33.75 16.0412 33.75 17.25C33.75 18.146 33.3572 18.9503 32.7344 19.5C33.3572 20.0497 33.75 20.854 33.75 21.75C33.75 22.646 33.3572 23.4503 32.7344 24C33.3572 24.5497 33.75 25.354 33.75 26.25C33.75 27.146 33.3572 27.9503 32.7344 28.5C33.3572 29.0497 33.75 29.854 33.75 30.75C33.75 32.4068 32.4068 33.75 30.75 33.75H5.25C3.59314 33.75 2.25 32.4068 2.25 30.75C2.25 29.854 2.64282 29.0497 3.26563 28.5C2.64282 27.9503 2.25 27.146 2.25 26.25C2.25 25.354 2.64282 24.5497 3.26563 24C2.64282 23.4503 2.25 22.646 2.25 21.75C2.25 20.854 2.64282 20.0497 3.26563 19.5C2.64282 18.9503 2.25 18.146 2.25 17.25C2.25 16.0412 2.96502 14.9993 3.99522 14.5242L16.9998 2.88854C17.5693 2.37902 18.4307 2.37902 19.0002 2.88854L30 12.7304V3C30 2.58579 30.3358 2.25 30.75 2.25ZM7.84867 32.25H13.5V29.25H7.84867C8.1039 29.6912 8.25 30.2036 8.25 30.75C8.25 31.2964 8.1039 31.8088 7.84867 32.25ZM15 32.25H21V23.25H15V32.25ZM22.5 32.25H28.1513C27.8961 31.8088 27.75 31.2964 27.75 30.75C27.75 30.2036 27.8961 29.6912 28.1513 29.25H22.5V32.25ZM30.75 32.25C31.5784 32.25 32.25 31.5784 32.25 30.75C32.25 29.9216 31.5784 29.25 30.75 29.25C29.9216 29.25 29.25 29.9216 29.25 30.75C29.25 31.5784 29.9216 32.25 30.75 32.25ZM7.84867 27.75H13.5V24.75H7.84867C8.1039 25.1912 8.25 25.7036 8.25 26.25C8.25 26.7964 8.1039 27.3088 7.84867 27.75ZM5.25 27.75C4.42157 27.75 3.75 27.0784 3.75 26.25C3.75 25.4216 4.42157 24.75 5.25 24.75C6.07843 24.75 6.75 25.4216 6.75 26.25C6.75 27.0784 6.07843 27.75 5.25 27.75ZM5.25 29.25C4.42157 29.25 3.75 29.9216 3.75 30.75C3.75 31.5784 4.42157 32.25 5.25 32.25C6.07843 32.25 6.75 31.5784 6.75 30.75C6.75 29.9216 6.07843 29.25 5.25 29.25ZM22.5 27.75H28.1513C27.8961 27.3088 27.75 26.7964 27.75 26.25C27.75 25.7036 27.8961 25.1912 28.1513 24.75H22.5V27.75ZM30.75 27.75C29.9216 27.75 29.25 27.0784 29.25 26.25C29.25 25.4216 29.9216 24.75 30.75 24.75C31.5784 24.75 32.25 25.4216 32.25 26.25C32.25 27.0784 31.5784 27.75 30.75 27.75ZM29.25 21.75C29.25 22.5784 29.9216 23.25 30.75 23.25C31.5784 23.25 32.25 22.5784 32.25 21.75C32.25 20.9216 31.5784 20.25 30.75 20.25C29.9216 20.25 29.25 20.9216 29.25 21.75ZM22.5 23.25H28.1513C27.8961 22.8088 27.75 22.2964 27.75 21.75C27.75 21.2036 27.8961 20.6912 28.1513 20.25H7.84867C8.1039 20.6912 8.25 21.2036 8.25 21.75C8.25 22.2964 8.1039 22.8088 7.84867 23.25H13.5C13.5 22.4216 14.1715 21.75 15 21.75H21C21.8284 21.75 22.5 22.4216 22.5 23.25ZM6.75 21.75C6.75 22.5784 6.07843 23.25 5.25 23.25C4.42157 23.25 3.75 22.5784 3.75 21.75C3.75 20.9216 4.42157 20.25 5.25 20.25C6.07843 20.25 6.75 20.9216 6.75 21.75ZM7.84867 18.75H28.1513C27.8961 18.3088 27.75 17.7964 27.75 17.25C27.75 16.7036 27.8961 16.1912 28.1513 15.75H7.84867C8.1039 16.1912 8.25 16.7036 8.25 17.25C8.25 17.7964 8.1039 18.3088 7.84867 18.75ZM6.55127 14.25L18 4.00639L29.4487 14.25H6.55127ZM30.75 15.75C29.9216 15.75 29.25 16.4215 29.25 17.25C29.25 18.0785 29.9216 18.75 30.75 18.75C31.5784 18.75 32.25 18.0785 32.25 17.25C32.25 16.4215 31.5784 15.75 30.75 15.75ZM5.25 18.75C6.07843 18.75 6.75 18.0785 6.75 17.25C6.75 16.4215 6.07843 15.75 5.25 15.75C4.42157 15.75 3.75 16.4215 3.75 17.25C3.75 18.0785 4.42157 18.75 5.25 18.75Z" fill="#6B6B6B"/>
</g>
</svg>
