<svg width="182" height="54" viewBox="0 0 182 54" fill="none" xmlns="http://www.w3.org/2000/svg">
<g clip-path="url(#clip0_6008_184)">
<path d="M175.525 54H6.37539C2.86077 54 0 51.1272 0 47.6104V6.3801C0 2.862 2.86077 0 6.37539 0H175.525C179.038 0 182 2.862 182 6.3801V47.6104C182 51.1272 179.038 54 175.525 54Z" fill="#A6A6A6"/>
<path d="M180.695 47.6118C180.695 50.4684 178.384 52.7823 175.526 52.7823H6.37549C3.51877 52.7823 1.19995 50.4684 1.19995 47.6118V6.37879C1.19995 3.52354 3.51877 1.20154 6.37549 1.20154H175.525C178.384 1.20154 180.694 3.52354 180.694 6.37879L180.695 47.6118Z" fill="black"/>
<path d="M40.617 26.7084C40.5779 22.3573 44.1747 20.2405 44.3392 20.142C42.3022 17.1679 39.1448 16.7616 38.0353 16.7292C35.3835 16.4497 32.8112 18.3181 31.4604 18.3181C30.0826 18.3181 28.0024 16.7562 25.7604 16.8021C22.8754 16.8466 20.1764 18.5193 18.6961 21.1167C15.6412 26.4127 17.9196 34.1955 20.8464 38.4763C22.3105 40.5729 24.0213 42.9138 26.2606 42.8314C28.4513 42.741 29.2696 41.4328 31.9133 41.4328C34.5328 41.4328 35.3012 42.8314 37.585 42.7788C39.9362 42.741 41.4164 40.6728 42.8293 38.5573C44.5212 36.1543 45.2007 33.7878 45.2277 33.6663C45.1724 33.6474 40.6615 31.9234 40.617 26.7084Z" fill="white"/>
<path d="M36.303 13.9131C37.4812 12.4375 38.2874 10.4301 38.0636 8.39294C36.3582 8.46854 34.2255 9.57419 32.9973 11.0173C31.9107 12.289 30.94 14.3734 31.1908 16.3336C33.1065 16.4767 35.0734 15.3657 36.303 13.9131Z" fill="white"/>
<path d="M72.3215 42.5305H69.2598L67.5828 37.2533H61.7534L60.1558 42.5305H57.175L62.9505 24.5647H66.5177L72.3215 42.5305ZM67.0772 35.0393L65.5605 30.3481C65.4001 29.8688 65.0995 28.7402 64.6559 26.9636H64.602C64.4254 27.7277 64.1409 28.8563 63.75 30.3481L62.2603 35.0393H67.0772Z" fill="white"/>
<path d="M87.1741 35.8939C87.1741 38.0971 86.5795 39.8386 85.3905 41.117C84.3254 42.2551 83.0029 42.8234 81.4242 42.8234C79.7201 42.8234 78.496 42.2105 77.7505 40.9847H77.6966V47.809H74.8223V33.8405C74.8223 32.4554 74.7859 31.0339 74.7158 29.5759H77.2436L77.404 31.6292H77.458C78.4165 30.0821 79.8711 29.3099 81.8233 29.3099C83.3494 29.3099 84.6234 29.9134 85.6426 31.1216C86.6645 32.3312 87.1741 33.9215 87.1741 35.8939ZM84.2459 35.9992C84.2459 34.7383 83.9628 33.6988 83.3939 32.8807C82.7724 32.0275 81.9378 31.6009 80.8917 31.6009C80.1826 31.6009 79.5381 31.8385 78.9625 32.3069C78.3855 32.7794 78.008 33.3964 77.8314 34.1605C77.7424 34.5169 77.6979 34.8085 77.6979 35.038V37.198C77.6979 38.1403 77.9864 38.9354 78.5634 39.5848C79.1404 40.2341 79.89 40.5581 80.8121 40.5581C81.8947 40.5581 82.7373 40.1396 83.3399 39.3053C83.9439 38.4697 84.2459 37.3681 84.2459 35.9992Z" fill="white"/>
<path d="M102.054 35.8939C102.054 38.0971 101.459 39.8386 100.269 41.117C99.2049 42.2551 97.8824 42.8234 96.3037 42.8234C94.5997 42.8234 93.3755 42.2105 92.6314 40.9847H92.5774V47.809H89.7032V33.8405C89.7032 32.4554 89.6668 31.0339 89.5967 29.5759H92.1245L92.2849 31.6292H92.3388C93.296 30.0821 94.7507 29.3099 96.7041 29.3099C98.2289 29.3099 99.5029 29.9134 100.525 31.1216C101.543 32.3312 102.054 33.9215 102.054 35.8939ZM99.1254 35.9992C99.1254 34.7383 98.8409 33.6988 98.272 32.8807C97.6505 32.0275 96.8187 31.6009 95.7712 31.6009C95.0607 31.6009 94.4177 31.8385 93.8407 32.3069C93.2636 32.7794 92.8875 33.3964 92.7109 34.1605C92.6233 34.5169 92.5774 34.8085 92.5774 35.038V37.198C92.5774 38.1403 92.8659 38.9354 93.4402 39.5848C94.0173 40.2328 94.7668 40.5581 95.6917 40.5581C96.7742 40.5581 97.6168 40.1396 98.2194 39.3053C98.8234 38.4697 99.1254 37.3681 99.1254 35.9992Z" fill="white"/>
<path d="M118.69 37.4922C118.69 39.0204 118.16 40.2638 117.096 41.2236C115.927 42.2726 114.3 42.7964 112.209 42.7964C110.279 42.7964 108.731 42.4238 107.559 41.6772L108.225 39.2783C109.487 40.0424 110.872 40.4258 112.38 40.4258C113.463 40.4258 114.305 40.1801 114.911 39.6914C115.513 39.2027 115.814 38.5466 115.814 37.7285C115.814 36.9995 115.566 36.3852 115.069 35.8871C114.574 35.3889 113.747 34.9259 112.593 34.4979C109.452 33.3248 107.883 31.6062 107.883 29.3463C107.883 27.8694 108.433 26.6585 109.534 25.7162C110.632 24.7725 112.096 24.3014 113.927 24.3014C115.559 24.3014 116.915 24.5862 117.998 25.1546L117.279 27.5009C116.268 26.9501 115.125 26.6747 113.846 26.6747C112.835 26.6747 112.045 26.9244 111.478 27.4212C111 27.8654 110.76 28.4067 110.76 29.048C110.76 29.7581 111.034 30.3453 111.584 30.807C112.062 31.2336 112.932 31.6953 114.194 32.1935C115.737 32.8158 116.871 33.5435 117.6 34.3778C118.327 35.2094 118.69 36.2502 118.69 37.4922Z" fill="white"/>
<path d="M128.193 31.7359H125.025V38.0255C125.025 39.6253 125.583 40.4245 126.702 40.4245C127.215 40.4245 127.641 40.3799 127.978 40.2908L128.058 42.4765C127.492 42.6884 126.746 42.7951 125.823 42.7951C124.688 42.7951 123.801 42.4481 123.16 41.7556C122.522 41.0617 122.202 39.898 122.202 38.2631V31.7332H120.314V29.5732H122.202V27.2012L125.025 26.348V29.5732H128.193V31.7359Z" fill="white"/>
<path d="M142.487 35.9465C142.487 37.9378 141.918 39.5726 140.783 40.8511C139.593 42.1673 138.013 42.8234 136.043 42.8234C134.145 42.8234 132.634 42.193 131.506 40.9321C130.379 39.6712 129.816 38.0795 129.816 36.1612C129.816 34.1537 130.396 32.5094 131.559 31.231C132.72 29.9512 134.286 29.3113 136.256 29.3113C138.154 29.3113 139.682 29.9417 140.834 31.204C141.937 32.4284 142.487 34.0093 142.487 35.9465ZM139.505 36.0397C139.505 34.8449 139.25 33.8203 138.734 32.9657C138.131 31.9316 137.27 31.4159 136.154 31.4159C134.998 31.4159 134.121 31.933 133.518 32.9657C133.002 33.8216 132.747 34.8625 132.747 36.0937C132.747 37.2884 133.002 38.3131 133.518 39.1663C134.139 40.2004 135.008 40.7161 136.128 40.7161C137.225 40.7161 138.087 40.1896 138.708 39.1393C139.238 38.2685 139.505 37.2331 139.505 36.0397Z" fill="white"/>
<path d="M151.83 32.1071C151.545 32.0545 151.242 32.0275 150.924 32.0275C149.913 32.0275 149.131 32.4095 148.581 33.175C148.102 33.85 147.862 34.7032 147.862 35.7332V42.5305H144.989L145.016 33.6556C145.016 32.1625 144.98 30.803 144.908 29.5772H147.412L147.517 32.0558H147.597C147.9 31.204 148.379 30.5182 149.034 30.0038C149.674 29.5408 150.366 29.3099 151.111 29.3099C151.377 29.3099 151.617 29.3288 151.83 29.3626V32.1071Z" fill="white"/>
<path d="M164.685 35.4403C164.685 35.956 164.651 36.3907 164.579 36.7457H155.957C155.99 38.0255 156.407 39.0043 157.208 39.6793C157.934 40.2827 158.874 40.5851 160.028 40.5851C161.305 40.5851 162.47 40.3813 163.517 39.9722L163.967 41.9702C162.743 42.5048 161.298 42.7708 159.63 42.7708C157.624 42.7708 156.05 42.1795 154.904 40.9982C153.76 39.817 153.188 38.2307 153.188 36.2408C153.188 34.2874 153.72 32.6606 154.786 31.3633C155.903 29.9782 157.411 29.2856 159.309 29.2856C161.174 29.2856 162.585 29.9782 163.544 31.3633C164.303 32.4635 164.685 33.8243 164.685 35.4403ZM161.944 34.6937C161.963 33.8405 161.775 33.1034 161.386 32.4811C160.888 31.6805 160.124 31.2809 159.095 31.2809C158.155 31.2809 157.391 31.6711 156.807 32.4541C156.329 33.0764 156.044 33.823 155.957 34.6924L161.944 34.6937Z" fill="white"/>
<path d="M66.1268 13.5121C66.1268 15.1011 65.6509 16.2972 64.7004 17.1004C63.8201 17.8416 62.569 18.2128 60.9485 18.2128C60.1451 18.2128 59.4575 18.1777 58.8818 18.1075V9.42567C59.6328 9.30416 60.4416 9.24207 61.3152 9.24207C62.8589 9.24207 64.0223 9.57822 64.8069 10.2505C65.6859 11.0106 66.1268 12.0973 66.1268 13.5121ZM64.6371 13.5513C64.6371 12.5212 64.3648 11.7315 63.8201 11.1807C63.2755 10.6312 62.48 10.3558 61.4325 10.3558C60.9876 10.3558 60.6088 10.3855 60.2947 10.4476V17.0478C60.4686 17.0748 60.7868 17.0869 61.2492 17.0869C62.3304 17.0869 63.1649 16.7859 63.7527 16.1838C64.3405 15.5817 64.6371 14.7042 64.6371 13.5513Z" fill="white"/>
<path d="M74.0257 14.8999C74.0257 15.8786 73.7466 16.6805 73.1885 17.3096C72.6034 17.9563 71.8282 18.2789 70.8602 18.2789C69.9273 18.2789 69.1845 17.9698 68.6304 17.3488C68.0776 16.7291 67.8013 15.9475 67.8013 15.0052C67.8013 14.0197 68.0857 13.211 68.6573 12.5833C69.229 11.9555 69.9974 11.641 70.9654 11.641C71.8983 11.641 72.6479 11.9501 73.2154 12.5698C73.7547 13.1719 74.0257 13.9495 74.0257 14.8999ZM72.5602 14.9458C72.5602 14.3585 72.4335 13.855 72.1814 13.4351C71.8848 12.9275 71.4628 12.6737 70.9141 12.6737C70.3466 12.6737 69.9152 12.9275 69.6186 13.4351C69.3651 13.855 69.2397 14.3666 69.2397 14.9714C69.2397 15.5587 69.3665 16.0622 69.6186 16.4821C69.9246 16.9897 70.3506 17.2435 70.9007 17.2435C71.4399 17.2435 71.8632 16.9856 72.1679 16.4686C72.4295 16.0406 72.5602 15.533 72.5602 14.9458Z" fill="white"/>
<path d="M84.6165 11.7706L82.628 18.1345H81.3338L80.5101 15.3711C80.3011 14.6812 80.1313 13.9954 79.9991 13.315H79.9735C79.8508 14.0143 79.681 14.6988 79.4626 15.3711L78.5876 18.1345H77.2786L75.4087 11.7706H76.8606L77.5792 14.796C77.7531 15.5115 77.896 16.1932 78.0106 16.8385H78.0362C78.1414 16.3066 78.3153 15.6289 78.5607 14.8095L79.4626 11.772H80.6139L81.4781 14.7447C81.687 15.4696 81.8569 16.1676 81.9877 16.8399H82.0268C82.1225 16.1851 82.2667 15.4872 82.4582 14.7447L83.2293 11.772H84.6165V11.7706Z" fill="white"/>
<path d="M91.9411 18.1345H90.5283V14.4895C90.5283 13.3663 90.1023 12.8047 89.2475 12.8047C88.8283 12.8047 88.4899 12.9586 88.227 13.2678C87.9668 13.5769 87.8347 13.9414 87.8347 14.3586V18.1332H86.4218V13.5891C86.4218 13.0302 86.4043 12.424 86.3706 11.7679H87.6122L87.6783 12.7629H87.7174C87.8819 12.4537 88.1272 12.1986 88.4494 11.9947C88.8323 11.7571 89.261 11.637 89.7302 11.637C90.3234 11.637 90.8168 11.8287 91.2091 12.2134C91.6971 12.6846 91.9411 13.3879 91.9411 14.3221V18.1345Z" fill="white"/>
<path d="M95.8373 18.1345H94.4258V8.85059H95.8373V18.1345Z" fill="white"/>
<path d="M104.155 14.8999C104.155 15.8786 103.876 16.6805 103.318 17.3096C102.733 17.9563 101.956 18.2789 100.99 18.2789C100.056 18.2789 99.3128 17.9698 98.76 17.3488C98.2073 16.7291 97.9309 15.9475 97.9309 15.0052C97.9309 14.0197 98.2154 13.211 98.787 12.5833C99.3586 11.9555 100.127 11.641 101.094 11.641C102.028 11.641 102.776 11.9501 103.345 12.5698C103.884 13.1719 104.155 13.9495 104.155 14.8999ZM102.689 14.9458C102.689 14.3585 102.562 13.855 102.31 13.4351C102.014 12.9275 101.591 12.6737 101.044 12.6737C100.475 12.6737 100.043 12.9275 99.7482 13.4351C99.4948 13.855 99.3694 14.3666 99.3694 14.9714C99.3694 15.5587 99.4961 16.0622 99.7482 16.4821C100.054 16.9897 100.48 17.2435 101.03 17.2435C101.57 17.2435 101.992 16.9856 102.296 16.4686C102.559 16.0406 102.689 15.533 102.689 14.9458Z" fill="white"/>
<path d="M110.993 18.1345H109.725L109.619 17.4014H109.58C109.146 17.986 108.527 18.2789 107.724 18.2789C107.124 18.2789 106.639 18.0859 106.273 17.7025C105.942 17.3542 105.776 16.9208 105.776 16.4065C105.776 15.6289 106.099 15.0362 106.751 14.6258C107.4 14.2154 108.314 14.0143 109.491 14.0237V13.9049C109.491 13.0666 109.052 12.6481 108.172 12.6481C107.545 12.6481 106.992 12.806 106.515 13.1192L106.228 12.1904C106.818 11.8246 107.547 11.641 108.407 11.641C110.068 11.641 110.902 12.5185 110.902 14.2735V16.6171C110.902 17.2529 110.933 17.7592 110.993 18.1345ZM109.526 15.9475V14.966C107.968 14.939 107.189 15.367 107.189 16.2485C107.189 16.5806 107.278 16.829 107.46 16.9951C107.642 17.1611 107.874 17.2435 108.15 17.2435C108.46 17.2435 108.75 17.1449 109.014 16.9492C109.28 16.7521 109.443 16.5023 109.504 16.1959C109.518 16.127 109.526 16.0433 109.526 15.9475Z" fill="white"/>
<path d="M119.022 18.1345H117.768L117.702 17.1126H117.663C117.262 17.8902 116.58 18.279 115.621 18.279C114.856 18.279 114.218 17.9779 113.712 17.3758C113.207 16.7737 112.955 15.9921 112.955 15.0322C112.955 14.0022 113.229 13.1679 113.779 12.5307C114.311 11.9367 114.964 11.6397 115.74 11.6397C116.593 11.6397 117.191 11.9272 117.53 12.5037H117.557V8.85059H118.972V16.42C118.972 17.0397 118.988 17.6107 119.022 18.1345ZM117.557 15.4507V14.3896C117.557 14.206 117.544 14.0575 117.518 13.9441C117.439 13.6039 117.268 13.3177 117.007 13.0869C116.744 12.856 116.428 12.7399 116.062 12.7399C115.535 12.7399 115.123 12.9492 114.819 13.369C114.519 13.7889 114.366 14.3248 114.366 14.9796C114.366 15.6087 114.511 16.119 114.8 16.5118C115.106 16.9303 115.519 17.1396 116.035 17.1396C116.499 17.1396 116.87 16.9654 117.152 16.6158C117.424 16.2931 117.557 15.9043 117.557 15.4507Z" fill="white"/>
<path d="M131.105 14.8999C131.105 15.8786 130.826 16.6805 130.268 17.3096C129.682 17.9563 128.909 18.2789 127.939 18.2789C127.008 18.2789 126.265 17.9698 125.709 17.3488C125.157 16.7291 124.88 15.9475 124.88 15.0052C124.88 14.0197 125.165 13.211 125.736 12.5833C126.308 11.9555 127.077 11.641 128.046 11.641C128.977 11.641 129.728 11.9501 130.295 12.5698C130.834 13.1719 131.105 13.9495 131.105 14.8999ZM129.641 14.9458C129.641 14.3585 129.514 13.855 129.262 13.4351C128.964 12.9275 128.543 12.6737 127.993 12.6737C127.427 12.6737 126.996 12.9275 126.698 13.4351C126.444 13.855 126.319 14.3666 126.319 14.9714C126.319 15.5587 126.446 16.0622 126.698 16.4821C127.004 16.9897 127.43 17.2435 127.98 17.2435C128.519 17.2435 128.944 16.9856 129.248 16.4686C129.509 16.0406 129.641 15.533 129.641 14.9458Z" fill="white"/>
<path d="M138.702 18.1345H137.29V14.4895C137.29 13.3663 136.864 12.8047 136.008 12.8047C135.589 12.8047 135.25 12.9586 134.989 13.2678C134.727 13.5769 134.596 13.9414 134.596 14.3586V18.1332H133.182V13.5891C133.182 13.0302 133.166 12.424 133.132 11.7679H134.373L134.439 12.7629H134.478C134.644 12.4537 134.889 12.1986 135.21 11.9947C135.594 11.7571 136.021 11.637 136.492 11.637C137.084 11.637 137.577 11.8287 137.969 12.2134C138.459 12.6846 138.702 13.3879 138.702 14.3221V18.1345Z" fill="white"/>
<path d="M148.21 12.8304H146.654V15.9219C146.654 16.7076 146.931 17.1005 147.478 17.1005C147.732 17.1005 147.942 17.0789 148.108 17.0343L148.144 18.1076C147.865 18.2129 147.498 18.2655 147.047 18.2655C146.489 18.2655 146.054 18.0954 145.74 17.7552C145.425 17.415 145.268 16.8426 145.268 16.0394V12.8304H144.34V11.7707H145.268V10.6043L146.653 10.1858V11.7693H148.209L148.21 12.8304Z" fill="white"/>
<path d="M155.69 18.1345H154.276V14.5165C154.276 13.3758 153.85 12.8047 152.996 12.8047C152.341 12.8047 151.893 13.1355 151.648 13.797C151.606 13.936 151.582 14.1061 151.582 14.3059V18.1332H150.17V8.85059H151.582V12.6859H151.609C152.054 11.988 152.691 11.6397 153.518 11.6397C154.103 11.6397 154.587 11.8314 154.971 12.2161C155.45 12.6954 155.69 13.4082 155.69 14.3505V18.1345Z" fill="white"/>
<path d="M163.405 14.6516C163.405 14.9054 163.386 15.1187 163.353 15.2928H159.115C159.134 15.9219 159.337 16.4012 159.729 16.7333C160.087 17.0303 160.55 17.1788 161.116 17.1788C161.743 17.1788 162.315 17.0789 162.83 16.8777L163.051 17.8605C162.448 18.1224 161.739 18.2534 160.918 18.2534C159.934 18.2534 159.159 17.9631 158.598 17.3826C158.034 16.8021 157.755 16.0232 157.755 15.0458C157.755 14.0859 158.015 13.2867 158.54 12.6495C159.087 11.9691 159.827 11.6289 160.762 11.6289C161.676 11.6289 162.37 11.9691 162.839 12.6495C163.218 13.1895 163.405 13.8578 163.405 14.6516ZM162.057 14.2857C162.068 13.8659 161.975 13.5041 161.783 13.199C161.538 12.8061 161.165 12.609 160.659 12.609C160.198 12.609 159.822 12.8007 159.535 13.1855C159.3 13.4919 159.161 13.8578 159.115 14.2857H162.057Z" fill="white"/>
</g>
<defs>
<clipPath id="clip0_6008_184">
<rect width="182" height="54" fill="white"/>
</clipPath>
</defs>
</svg>
