<svg width="26" height="20" viewBox="0 0 26 20" fill="none" xmlns="http://www.w3.org/2000/svg">
<path d="M11.1515 0L7.15152 14.1176L5.81818 8.82353C7.55556 8.82353 8.9697 9.31373 10.0606 10.2941C11.1515 11.2745 11.697 12.6274 11.697 14.3529C11.697 16.0392 11.1313 17.4118 10 18.4706C8.90909 19.4902 7.53535 20 5.87879 20C4.18182 20 2.76768 19.4902 1.63636 18.4706C0.545455 17.4118 0 16.0392 0 14.3529C0 13.8431 0.040404 13.3529 0.121212 12.8824C0.20202 12.3726 0.363636 11.7843 0.606061 11.1176C0.848485 10.451 1.19192 9.56863 1.63636 8.47059L5.15152 0H11.1515ZM25.4545 0L21.4545 14.1176L20.1212 8.82353C21.8586 8.82353 23.2727 9.31373 24.3636 10.2941C25.4545 11.2745 26 12.6274 26 14.3529C26 16.0392 25.4343 17.4118 24.303 18.4706C23.2121 19.4902 21.8384 20 20.1818 20C18.4848 20 17.0707 19.4902 15.9394 18.4706C14.8485 17.4118 14.303 16.0392 14.303 14.3529C14.303 13.8431 14.3434 13.3529 14.4242 12.8824C14.5051 12.3726 14.6667 11.7843 14.9091 11.1176C15.1515 10.451 15.4949 9.56863 15.9394 8.47059L19.4545 0H25.4545Z" fill="white"/>
</svg>
