<svg width="32" height="32" viewBox="0 0 32 32" fill="none" xmlns="http://www.w3.org/2000/svg">
<path d="M14.3341 22.4805V25.1872C14.3341 27.4805 12.2008 29.3338 9.57414 29.3338C6.94747 29.3338 4.80078 27.4805 4.80078 25.1872V22.4805C4.80078 24.7738 6.93414 26.4005 9.57414 26.4005C12.2008 26.4005 14.3341 24.7605 14.3341 22.4805Z" stroke="#1E1E1E" stroke-width="1.5" stroke-linecap="round" stroke-linejoin="round"/>
<path d="M14.3318 18.813C14.3318 19.4797 14.1451 20.093 13.8251 20.6263C13.0384 21.9196 11.4251 22.733 9.55843 22.733C7.69176 22.733 6.07841 21.9063 5.29175 20.6263C4.97175 20.093 4.78516 19.4797 4.78516 18.813C4.78516 17.6663 5.31846 16.6397 6.17179 15.893C7.03846 15.133 8.22508 14.6797 9.54508 14.6797C10.8651 14.6797 12.0518 15.1463 12.9185 15.893C13.7985 16.6263 14.3318 17.6663 14.3318 18.813Z" stroke="#1E1E1E" stroke-width="1.5" stroke-linecap="round" stroke-linejoin="round"/>
<path d="M14.3341 18.8127V22.4793C14.3341 24.7727 12.2008 26.3993 9.57414 26.3993C6.94747 26.3993 4.80078 24.7593 4.80078 22.4793V18.8127C4.80078 16.5193 6.93414 14.666 9.57414 14.666C10.8941 14.666 12.0808 15.1326 12.9475 15.8793C13.8008 16.626 14.3341 17.666 14.3341 18.8127Z" stroke="#1E1E1E" stroke-width="1.5" stroke-linecap="round" stroke-linejoin="round"/>
<path d="M29.3349 14.6275V17.3743C29.3349 18.1076 28.7483 18.7075 28.0016 18.7342H25.3882C23.9482 18.7342 22.6283 17.6809 22.5083 16.2409C22.4283 15.4009 22.7482 14.6142 23.3082 14.0675C23.8016 13.5609 24.4816 13.2676 25.2282 13.2676H28.0016C28.7483 13.2942 29.3349 13.8942 29.3349 14.6275Z" stroke="#1E1E1E" stroke-width="1.5" stroke-linecap="round" stroke-linejoin="round"/>
<path d="M2.66797 13.9993V11.3327C2.66797 7.70602 4.85464 5.17268 8.25464 4.74601C8.60131 4.69268 8.9613 4.66602 9.33464 4.66602H21.3346C21.6813 4.66602 22.0146 4.67933 22.3346 4.73267C25.7746 5.13267 28.0013 7.67935 28.0013 11.3327V13.266H25.2279C24.4813 13.266 23.8013 13.5593 23.3079 14.066C22.7479 14.6127 22.428 15.3993 22.508 16.2393C22.628 17.6793 23.9479 18.7327 25.3879 18.7327H28.0013V20.666C28.0013 24.666 25.3346 27.3327 21.3346 27.3327H18.0013" stroke="#1E1E1E" stroke-width="1.5" stroke-linecap="round" stroke-linejoin="round"/>
</svg>
