<svg width="36" height="36" viewBox="0 0 36 36" fill="none" xmlns="http://www.w3.org/2000/svg">
<path d="M22.5 3V18C22.5 19.65 21.15 21 19.5 21H3V11.43C4.095 12.735 5.77504 13.545 7.63504 13.5C9.15004 13.47 10.515 12.885 11.535 11.91C12 11.52 12.39 11.025 12.69 10.485C13.23 9.56999 13.53 8.48996 13.5 7.36496C13.455 5.60996 12.675 4.065 11.46 3H22.5Z" stroke="#1E1E1E" stroke-width="1.5" stroke-linecap="round" stroke-linejoin="round"/>
<path d="M33 21V25.5C33 27.99 30.99 30 28.5 30H27C27 28.35 25.65 27 24 27C22.35 27 21 28.35 21 30H15C15 28.35 13.65 27 12 27C10.35 27 9 28.35 9 30H7.5C5.01 30 3 27.99 3 25.5V21H19.5C21.15 21 22.5 19.65 22.5 18V7.5H25.26C26.34 7.5 27.33 8.08501 27.87 9.01501L30.435 13.5H28.5C27.675 13.5 27 14.175 27 15V19.5C27 20.325 27.675 21 28.5 21H33Z" stroke="#1E1E1E" stroke-width="1.5" stroke-linecap="round" stroke-linejoin="round"/>
<path d="M12 33C13.6569 33 15 31.6569 15 30C15 28.3431 13.6569 27 12 27C10.3431 27 9 28.3431 9 30C9 31.6569 10.3431 33 12 33Z" stroke="#1E1E1E" stroke-width="1.5" stroke-linecap="round" stroke-linejoin="round"/>
<path d="M24 33C25.6569 33 27 31.6569 27 30C27 28.3431 25.6569 27 24 27C22.3431 27 21 28.3431 21 30C21 31.6569 22.3431 33 24 33Z" stroke="#1E1E1E" stroke-width="1.5" stroke-linecap="round" stroke-linejoin="round"/>
<path d="M33 18V21H28.5C27.675 21 27 20.325 27 19.5V15C27 14.175 27.675 13.5 28.5 13.5H30.435L33 18Z" stroke="#1E1E1E" stroke-width="1.5" stroke-linecap="round" stroke-linejoin="round"/>
<path d="M13.5017 7.36413C13.5317 8.48913 13.2318 9.56916 12.6918 10.4842C12.3918 11.0242 12.0017 11.5192 11.5367 11.9092C10.5167 12.8842 9.15176 13.4692 7.63676 13.4992C5.77676 13.5442 4.09672 12.7342 3.00172 11.4292C2.79172 11.2042 2.61173 10.9492 2.44673 10.6942C1.86173 9.80918 1.53172 8.75922 1.50172 7.63422C1.45672 5.74422 2.29671 4.01916 3.64671 2.89416C4.66671 2.05416 5.95668 1.52918 7.36668 1.49918C8.94168 1.46918 10.3817 2.03918 11.4617 2.99918C12.6767 4.06418 13.4567 5.60913 13.5017 7.36413Z" stroke="#1E1E1E" stroke-width="1.5" stroke-miterlimit="10" stroke-linecap="round" stroke-linejoin="round"/>
<path d="M5.16016 7.54321L6.67517 8.98315L9.81012 5.95312" stroke="#1E1E1E" stroke-width="1.5" stroke-linecap="round" stroke-linejoin="round"/>
</svg>
