<svg width="36" height="36" viewBox="0 0 36 36" fill="none" xmlns="http://www.w3.org/2000/svg">
<path d="M25.5 27.6446H19.5L12.825 32.0846C11.835 32.7446 10.5 32.0396 10.5 30.8396V27.6446C6 27.6446 3 24.6446 3 20.1446V11.1445C3 6.64453 6 3.64453 10.5 3.64453H25.5C30 3.64453 33 6.64453 33 11.1445V20.1446C33 24.6446 30 27.6446 25.5 27.6446Z" stroke="#1E1E1E" stroke-width="1.5" stroke-miterlimit="10" stroke-linecap="round" stroke-linejoin="round"/>
<path d="M18.0017 17.0391V16.7241C18.0017 15.7041 18.6317 15.1641 19.2617 14.7291C19.8767 14.3091 20.4916 13.7691 20.4916 12.7791C20.4916 11.3991 19.3817 10.2891 18.0017 10.2891C16.6217 10.2891 15.5117 11.3991 15.5117 12.7791" stroke="#1E1E1E" stroke-width="1.5" stroke-linecap="round" stroke-linejoin="round"/>
<path d="M17.9932 20.625H18.0067" stroke="#1E1E1E" stroke-width="1.5" stroke-linecap="round" stroke-linejoin="round"/>
</svg>
