<svg width="28" height="32" viewBox="0 0 28 32" fill="none" xmlns="http://www.w3.org/2000/svg">
<path d="M14.9503 29.3331H5.45083C4.14211 29.3331 3.07031 28.0931 3.07031 26.5731V6.78648C3.07031 3.29315 5.27031 1.70648 7.96672 3.26648L12.976 6.17315C14.059 6.79981 14.9503 8.46648 14.9503 9.87981V29.3331Z" stroke="#1E1E1E" stroke-width="1.5" stroke-linecap="round" stroke-linejoin="round"/>
<path d="M25.6333 20.0792V25.1192C25.6333 27.9992 24.5051 29.3326 22.0682 29.3326H14.9492V13.8926L15.4795 14.0259L20.5564 15.3726L22.8467 15.9726C24.3359 16.3592 25.5543 17.2659 25.622 19.8259C25.6333 19.9059 25.6333 19.9859 25.6333 20.0792Z" stroke="#1E1E1E" stroke-width="1.5" stroke-linecap="round" stroke-linejoin="round"/>
<path d="M7.05469 12H10.9696" stroke="#1E1E1E" stroke-width="1.5" stroke-linecap="round" stroke-linejoin="round"/>
<path d="M7.05469 17.334H10.9696" stroke="#1E1E1E" stroke-width="1.5" stroke-linecap="round" stroke-linejoin="round"/>
<path d="M20.5574 15.374V19.6673C20.5574 21.3207 19.4179 22.6673 18.0189 22.6673C16.62 22.6673 15.4805 21.3207 15.4805 19.6673V14.0273L20.5574 15.374Z" stroke="#1E1E1E" stroke-width="1.5" stroke-linecap="round" stroke-linejoin="round"/>
<path d="M25.6242 19.8264C25.5565 21.3997 24.4509 22.6664 23.0971 22.6664C21.6981 22.6664 20.5586 21.3197 20.5586 19.6664V15.373L22.8489 15.973C24.3381 16.3597 25.5565 17.2664 25.6242 19.8264Z" stroke="#1E1E1E" stroke-width="1.5" stroke-linecap="round" stroke-linejoin="round"/>
</svg>
