<svg width="44" height="44" viewBox="0 0 44 44" fill="none" xmlns="http://www.w3.org/2000/svg">
<rect x="0.5" y="0.5" width="43" height="43" rx="21.5" fill="#EB5F01" stroke="#EB5F01"/>
<path d="M21.8582 21.6341C23.1818 21.6341 24.3277 21.1594 25.2643 20.2228C26.2006 19.2864 26.6754 18.1406 26.6754 16.8169C26.6754 15.4936 26.2007 14.3477 25.2641 13.411C24.3275 12.4747 23.1816 12 21.8582 12C20.5345 12 19.3887 12.4747 18.4523 13.4111C17.5159 14.3476 17.041 15.4935 17.041 16.8169C17.041 18.1406 17.5159 19.2865 18.4523 20.2229C19.389 21.1592 20.535 21.6341 21.8582 21.6341ZM19.2812 14.2398C19.9997 13.5213 20.8426 13.172 21.8582 13.172C22.8737 13.172 23.7167 13.5213 24.4354 14.2398C25.154 14.9585 25.5034 15.8016 25.5034 16.8169C25.5034 17.8325 25.154 18.6754 24.4354 19.3941C23.7167 20.1128 22.8737 20.4621 21.8582 20.4621C20.8429 20.4621 20 20.1126 19.2812 19.3941C18.5625 18.6756 18.213 17.8325 18.213 16.8169C18.213 15.8016 18.5625 14.9585 19.2812 14.2398Z" fill="white"/>
<path d="M30.2863 27.3784C30.2593 26.9887 30.2047 26.5636 30.1242 26.1146C30.0431 25.6624 29.9385 25.2348 29.8134 24.844C29.684 24.4401 29.5084 24.0413 29.291 23.6591C29.0656 23.2623 28.8007 22.9169 28.5034 22.6326C28.1926 22.3352 27.8121 22.0961 27.372 21.9217C26.9335 21.7482 26.4475 21.6603 25.9276 21.6603C25.7234 21.6603 25.526 21.7441 25.1447 21.9923C24.91 22.1454 24.6355 22.3224 24.3291 22.5182C24.0671 22.6851 23.7122 22.8415 23.2738 22.9831C22.8461 23.1215 22.4118 23.1917 21.9831 23.1917C21.5546 23.1917 21.1203 23.1215 20.6923 22.9831C20.2544 22.8416 19.8993 22.6852 19.6378 22.5183C19.3343 22.3244 19.0596 22.1474 18.8214 21.9922C18.4404 21.7439 18.243 21.6602 18.0388 21.6602C17.5188 21.6602 17.033 21.7482 16.5946 21.9218C16.1548 22.0959 15.7741 22.3351 15.463 22.6327C15.1657 22.9172 14.9008 23.2625 14.6756 23.6591C14.4585 24.0413 14.2827 24.44 14.1533 24.8442C14.0284 25.235 13.9238 25.6624 13.8427 26.1146C13.7621 26.5629 13.7076 26.9882 13.6806 27.3788C13.6541 27.7608 13.6406 28.1583 13.6406 28.5599C13.6406 29.6039 13.9725 30.449 14.627 31.0724C15.2733 31.6875 16.1284 31.9993 17.1686 31.9993H26.7987C27.8386 31.9993 28.6937 31.6875 29.3402 31.0724C29.9948 30.4495 30.3267 29.604 30.3267 28.5597C30.3266 28.1567 30.313 27.7592 30.2863 27.3784ZM28.5321 30.2232C28.105 30.6297 27.538 30.8273 26.7986 30.8273H17.1686C16.429 30.8273 15.862 30.6297 15.4351 30.2234C15.0162 29.8247 14.8127 29.2804 14.8127 28.5599C14.8127 28.1851 14.825 27.8151 14.8497 27.4599C14.8738 27.1113 14.9231 26.7285 14.9962 26.3217C15.0684 25.9199 15.1602 25.5429 15.2695 25.2016C15.3743 24.8743 15.5173 24.5502 15.6946 24.238C15.8638 23.9404 16.0585 23.6851 16.2734 23.4795C16.4743 23.287 16.7276 23.1296 17.0261 23.0115C17.3021 22.9022 17.6123 22.8424 17.9491 22.8334C17.9901 22.8552 18.0632 22.8969 18.1816 22.9741C18.4226 23.1311 18.7003 23.3102 19.0073 23.5063C19.3534 23.727 19.7992 23.9262 20.3319 24.0982C20.8765 24.2743 21.4319 24.3637 21.9832 24.3637C22.5345 24.3637 23.0901 24.2743 23.6344 24.0984C24.1675 23.9261 24.6132 23.727 24.9597 23.506C25.2739 23.3052 25.5439 23.1313 25.7848 22.9741C25.9032 22.897 25.9763 22.8552 26.0173 22.8334C26.3542 22.8424 26.6645 22.9022 26.9406 23.0115C27.239 23.1296 27.4922 23.2872 27.6932 23.4795C27.9081 23.685 28.1028 23.9403 28.272 24.2381C28.4494 24.5502 28.5926 24.8744 28.6972 25.2014C28.8066 25.5432 28.8987 25.9201 28.9707 26.3216C29.0436 26.7291 29.093 27.1121 29.1172 27.46V27.4603C29.142 27.8142 29.1545 28.184 29.1547 28.5599C29.1545 29.2805 28.951 29.8247 28.5321 30.2232Z" fill="white"/>
</svg>
