<svg width="32" height="32" viewBox="0 0 32 32" fill="none" xmlns="http://www.w3.org/2000/svg">
<rect width="32" height="32" rx="16" fill="#F1F0F0"/>
<g clip-path="url(#clip0_1_121576)">
<path d="M15.896 15.7332C16.8586 15.7332 17.692 15.3879 18.3731 14.7068C19.0541 14.0257 19.3994 13.1924 19.3994 12.2298C19.3994 11.2674 19.0542 10.434 18.373 9.75273C17.6919 9.0718 16.8585 8.72656 15.896 8.72656C14.9333 8.72656 14.1 9.0718 13.419 9.75284C12.7379 10.4339 12.3926 11.2673 12.3926 12.2298C12.3926 13.1924 12.7379 14.0258 13.419 14.7069C14.1002 15.3878 14.9336 15.7332 15.896 15.7332ZM14.0218 10.3555C14.5443 9.83296 15.1574 9.57894 15.896 9.57894C16.6345 9.57894 17.2476 9.83296 17.7703 10.3555C18.2929 10.8782 18.547 11.4913 18.547 12.2298C18.547 12.9684 18.2929 13.5814 17.7703 14.1041C17.2476 14.6268 16.6345 14.8808 15.896 14.8808C15.1576 14.8808 14.5446 14.6267 14.0218 14.1041C13.4991 13.5815 13.245 12.9684 13.245 12.2298C13.245 11.4913 13.4991 10.8782 14.0218 10.3555Z" fill="#1F1F1F"/>
<path d="M22.0259 19.9107C22.0062 19.6272 21.9665 19.3181 21.908 18.9916C21.849 18.6627 21.7729 18.3517 21.682 18.0675C21.5878 17.7738 21.4601 17.4837 21.302 17.2057C21.1381 16.9172 20.9454 16.6659 20.7292 16.4592C20.5032 16.2429 20.2264 16.069 19.9064 15.9422C19.5874 15.816 19.234 15.7521 18.8559 15.7521C18.7074 15.7521 18.5638 15.813 18.2865 15.9935C18.1158 16.1048 17.9162 16.2336 17.6934 16.376C17.5028 16.4974 17.2447 16.6111 16.9259 16.7141C16.6148 16.8147 16.299 16.8658 15.9871 16.8658C15.6755 16.8658 15.3597 16.8147 15.0484 16.7141C14.7299 16.6112 14.4717 16.4975 14.2815 16.3761C14.0608 16.235 13.861 16.1063 13.6878 15.9934C13.4107 15.8129 13.2671 15.752 13.1186 15.752C12.7404 15.752 12.3871 15.816 12.0682 15.9423C11.7484 16.0689 11.4715 16.2428 11.2453 16.4593C11.0291 16.6661 10.8364 16.9173 10.6727 17.2057C10.5147 17.4837 10.3869 17.7737 10.2928 18.0676C10.2019 18.3518 10.1259 18.6627 10.0669 18.9916C10.0083 19.3176 9.96864 19.6269 9.949 19.911C9.92969 20.1888 9.91992 20.4778 9.91992 20.7699C9.91992 21.5292 10.1613 22.1439 10.6373 22.5972C11.1073 23.0445 11.7292 23.2714 12.4857 23.2714H19.4895C20.2457 23.2714 20.8676 23.0445 21.3378 22.5972C21.8139 22.1442 22.0553 21.5293 22.0553 20.7698C22.0552 20.4767 22.0453 20.1876 22.0259 19.9107ZM20.7501 21.9796C20.4395 22.2753 20.0271 22.419 19.4893 22.419H12.4857C11.9478 22.419 11.5355 22.2753 11.225 21.9797C10.9203 21.6898 10.7723 21.2939 10.7723 20.7699C10.7723 20.4974 10.7813 20.2283 10.7993 19.9699C10.8168 19.7165 10.8526 19.438 10.9058 19.1422C10.9583 18.85 11.0251 18.5758 11.1046 18.3275C11.1808 18.0895 11.2848 17.8538 11.4137 17.6267C11.5368 17.4103 11.6784 17.2247 11.8347 17.0751C11.9808 16.9351 12.165 16.8206 12.3821 16.7347C12.5828 16.6553 12.8084 16.6118 13.0534 16.6052C13.0832 16.6211 13.1364 16.6514 13.2225 16.7075C13.3977 16.8217 13.5997 16.952 13.823 17.0946C14.0746 17.2551 14.3989 17.4 14.7863 17.5251C15.1824 17.6531 15.5863 17.7182 15.9873 17.7182C16.3882 17.7182 16.7923 17.6531 17.1881 17.5252C17.5758 17.3999 17.9 17.2551 18.152 17.0944C18.3805 16.9484 18.5768 16.8218 18.752 16.7075C18.8382 16.6515 18.8913 16.6211 18.9212 16.6052C19.1662 16.6118 19.3918 16.6553 19.5927 16.7347C19.8096 16.8206 19.9938 16.9353 20.14 17.0751C20.2962 17.2246 20.4378 17.4102 20.5609 17.6268C20.69 17.8538 20.7941 18.0896 20.8702 18.3274C20.9498 18.576 21.0167 18.8501 21.069 19.1421C21.1221 19.4385 21.158 19.717 21.1756 19.97V19.9703C21.1937 20.2276 21.2028 20.4966 21.2029 20.7699C21.2028 21.294 21.0547 21.6898 20.7501 21.9796Z" fill="#1F1F1F"/>
</g>
<defs>
<clipPath id="clip0_1_121576">
<rect width="14.5455" height="14.5455" fill="white" transform="translate(8.72656 8.72656)"/>
</clipPath>
</defs>
</svg>
