<svg width="32" height="30" viewBox="0 0 32 30" fill="none" xmlns="http://www.w3.org/2000/svg">
<path d="M6.26172 7.65625H27.2561C27.6815 7.65627 28.1022 7.74542 28.491 7.91797C28.8799 8.09051 29.2282 8.34262 29.5137 8.65803C29.7991 8.97345 30.0153 9.34518 30.1483 9.74926C30.2812 10.1533 30.3281 10.5808 30.2858 11.0041L29.3723 20.1387C29.2972 20.89 28.9455 21.5866 28.3857 22.0933C27.8259 22.6 27.0977 22.8806 26.3426 22.8806H11.8034C11.0992 22.8809 10.4167 22.6371 9.87209 22.1907C9.32747 21.7444 8.95438 21.123 8.81637 20.4325L6.26172 7.65625Z" stroke="#1E1E1E" stroke-width="2" stroke-linejoin="round"/>
<path d="M6.26262 7.65615L5.02945 2.71889C4.94697 2.38967 4.75686 2.09744 4.4893 1.88864C4.22174 1.67983 3.89208 1.56642 3.55268 1.56641H1.69531M10.8299 28.9703H13.8748M23.0094 28.9703H26.0543" stroke="#1E1E1E" stroke-width="2" stroke-linecap="round" stroke-linejoin="round"/>
</svg>
