<svg width="203" height="203" viewBox="0 0 203 203" fill="none" xmlns="http://www.w3.org/2000/svg">
<path fill-rule="evenodd" clip-rule="evenodd" d="M164.938 112.973H38.0625V171.69C38.0625 174.491 39.899 176.962 42.5824 177.768C55.3302 181.59 91.1787 192.346 99.6762 194.896C100.866 195.251 102.134 195.251 103.324 194.896C111.821 192.346 147.67 181.59 160.418 177.768C163.101 176.962 164.938 174.491 164.938 171.69C164.938 156.986 164.938 112.973 164.938 112.973Z" fill="#FCB789"/>
<path fill-rule="evenodd" clip-rule="evenodd" d="M164.938 112.973H101.5C101.5 112.973 100.885 195.162 101.5 195.162C102.115 195.162 102.728 195.073 103.324 194.896C111.821 192.346 147.67 181.59 160.418 177.768C163.101 176.962 164.938 174.491 164.938 171.69C164.938 156.986 164.938 112.973 164.938 112.973Z" fill="#EB5F01"/>
<path fill-rule="evenodd" clip-rule="evenodd" d="M101.5 133.555L38.0626 112.973C38.0626 112.973 26.9389 129.466 21.9654 136.838C21.4071 137.666 21.2707 138.703 21.5943 139.645C21.921 140.587 22.6664 141.32 23.6147 141.631C35.6647 145.545 71.3356 157.135 80.6926 160.173C82.0343 160.611 83.5061 160.107 84.2991 158.936C88.5525 152.659 101.5 133.555 101.5 133.555Z" fill="#FFDBC4"/>
<path fill-rule="evenodd" clip-rule="evenodd" d="M164.938 112.973L101.5 133.555C101.5 133.555 114.448 152.659 118.701 158.936C119.494 160.107 120.966 160.611 122.308 160.173C131.665 157.135 167.335 145.545 179.385 141.631C180.334 141.32 181.079 140.587 181.406 139.645C181.729 138.703 181.593 137.666 181.035 136.838C176.061 129.466 164.938 112.973 164.938 112.973Z" fill="#FFDBC4"/>
<path fill-rule="evenodd" clip-rule="evenodd" d="M86.1448 69.7366C85.3518 68.5725 83.8832 68.0682 82.5415 68.5059C73.1908 71.5414 37.5104 83.1346 25.4604 87.0518C24.5121 87.3595 23.7635 88.0922 23.44 89.0343C23.1164 89.9763 23.2528 91.0167 23.8111 91.8414C28.3913 98.6355 38.0623 112.972 38.0623 112.972L101.5 92.3203C101.5 92.3203 90.1064 75.5633 86.1448 69.7366Z" fill="#FCB789"/>
<path fill-rule="evenodd" clip-rule="evenodd" d="M179.189 91.8414C179.747 91.0167 179.883 89.9763 179.56 89.0343C179.236 88.0922 178.488 87.3595 177.539 87.0518C165.489 83.1346 129.809 71.5414 120.458 68.5059C119.117 68.0682 117.648 68.5725 116.855 69.7366C112.893 75.5633 101.5 92.3203 101.5 92.3203L164.938 112.972C164.938 112.972 174.609 98.6355 179.189 91.8414Z" fill="#FFDBC4"/>
<path fill-rule="evenodd" clip-rule="evenodd" d="M164.938 112.972L101.5 92.3203L38.0625 112.972L101.5 133.555L164.938 112.972Z" fill="#FCB789"/>
<path fill-rule="evenodd" clip-rule="evenodd" d="M101.5 133.555V92.3203L38.0625 112.972L101.5 133.555Z" fill="#EB5F01"/>
<path fill-rule="evenodd" clip-rule="evenodd" d="M88.7551 101.431C87.4356 100.568 86.2461 99.6452 85.1899 98.6777C83.9021 97.4946 81.8943 97.5803 80.708 98.8712C79.5249 100.159 79.6105 102.167 80.9015 103.35C82.1988 104.543 83.661 105.678 85.285 106.741C86.7504 107.699 88.717 107.286 89.6749 105.821C90.6328 104.355 90.2205 102.389 88.7551 101.431Z" fill="#EB5F01"/>
<path fill-rule="evenodd" clip-rule="evenodd" d="M78.8712 91.6869C77.9291 90.4086 77.133 89.124 76.4796 87.8394C75.6866 86.2789 73.774 85.6572 72.2134 86.4501C70.6529 87.2431 70.0312 89.1557 70.8242 90.7163C71.6298 92.2959 72.6067 93.8787 73.7645 95.4487C74.8017 96.857 76.7873 97.1584 78.1988 96.1212C79.6071 95.0808 79.9084 93.0952 78.8712 91.6869Z" fill="#EB5F01"/>
<path fill-rule="evenodd" clip-rule="evenodd" d="M74.2343 78.7432C74.266 77.4649 74.4532 76.2247 74.7957 75.0353C75.2778 73.3542 74.3041 71.5938 72.6198 71.1116C70.9387 70.6295 69.1783 71.6033 68.6962 73.2875C68.2109 74.9877 67.9381 76.7607 67.8905 78.5846C67.8493 80.3355 69.2323 81.7913 70.9831 81.8326C72.734 81.877 74.1899 80.4941 74.2343 78.7432Z" fill="#EB5F01"/>
<path fill-rule="evenodd" clip-rule="evenodd" d="M79.1124 68.1496C79.9276 67.3946 80.8411 66.6968 81.8403 66.0656C83.3215 65.1299 83.7656 63.1697 82.8331 61.6916C81.8974 60.2103 79.9371 59.7663 78.4559 60.6988C77.1142 61.5457 75.8962 62.4814 74.8019 63.4964C73.5173 64.6859 73.4411 66.6937 74.6306 67.9783C75.82 69.2629 77.8278 69.339 79.1124 68.1496Z" fill="#EB5F01"/>
<path fill-rule="evenodd" clip-rule="evenodd" d="M90.9093 62.677C92.5047 62.382 94.1953 62.1917 95.9779 62.1188C97.7288 62.0426 99.0863 60.5614 99.0134 58.8137C98.9404 57.066 97.4592 55.7052 95.7083 55.7782C93.6149 55.867 91.6293 56.0922 89.7547 56.4379C88.0355 56.7583 86.8937 58.414 87.214 60.1332C87.5312 61.8555 89.1869 62.9942 90.9093 62.677Z" fill="#EB5F01"/>
<path fill-rule="evenodd" clip-rule="evenodd" d="M107.441 62.4893C110.146 62.5211 112.665 62.4259 115.002 62.2197C116.747 62.0643 118.038 60.5228 117.883 58.7782C117.727 57.0369 116.186 55.7459 114.441 55.9014C112.3 56.0885 109.994 56.1773 107.514 56.1456C105.763 56.1266 104.326 57.5317 104.307 59.2794C104.285 61.0303 105.69 62.4703 107.441 62.4893Z" fill="#EB5F01"/>
<path fill-rule="evenodd" clip-rule="evenodd" d="M125.429 60.2754C128.569 59.3143 131.22 58.0836 133.441 56.6721C134.916 55.7301 135.353 53.7699 134.411 52.2918C133.472 50.8169 131.509 50.3791 130.031 51.3212C128.245 52.4567 126.104 53.4337 123.573 54.2076C121.901 54.7214 120.956 56.4945 121.47 58.1693C121.981 59.844 123.757 60.7861 125.429 60.2754Z" fill="#EB5F01"/>
<path fill-rule="evenodd" clip-rule="evenodd" d="M141.573 47.7944C143.07 44.6987 143.644 41.4253 143.498 38.2693C143.416 36.5184 141.928 35.1672 140.18 35.2497C138.433 35.3321 137.078 36.8166 137.161 38.5643C137.262 40.7085 136.875 42.932 135.86 45.0349C135.099 46.6113 135.759 48.5113 137.335 49.2725C138.912 50.0338 140.812 49.3709 141.573 47.7944Z" fill="#EB5F01"/>
<path fill-rule="evenodd" clip-rule="evenodd" d="M139.553 27.0539C137.241 23.9296 134.104 21.7537 130.684 21.0527C128.968 20.7038 127.29 21.8076 126.938 23.5236C126.589 25.2395 127.696 26.9175 129.409 27.2695C131.382 27.6724 133.12 29.0268 134.456 30.8316C135.499 32.2367 137.488 32.5317 138.893 31.4913C140.301 30.4478 140.596 28.459 139.553 27.0539Z" fill="#EB5F01"/>
<path fill-rule="evenodd" clip-rule="evenodd" d="M98.1162 21.6671C101.548 2.23298 131.291 3.48904 113.976 21.6671H98.1162Z" fill="#FCB789"/>
<path fill-rule="evenodd" clip-rule="evenodd" d="M98.1162 26.5898C101.548 46.0207 131.291 44.7679 113.976 26.5898H98.1162Z" fill="#FCB789"/>
<path fill-rule="evenodd" clip-rule="evenodd" d="M97.8301 27.332H119.069C120.82 27.332 122.241 25.911 122.241 24.1602C122.241 22.4093 120.82 20.9883 119.069 20.9883H97.8301C96.0824 20.9883 94.6582 22.4093 94.6582 24.1602C94.6582 25.911 96.0824 27.332 97.8301 27.332Z" fill="#EB5F01"/>
</svg>
