<svg width="17" height="16" viewBox="0 0 17 16" fill="none" xmlns="http://www.w3.org/2000/svg">
<g id="Logos / Messaging-Video-meetings / messaging-whatsapp">
<path id="Shape" d="M8.99903 1.00005C9.27517 1.00103 9.49983 0.777979 9.50082 0.501839C9.50181 0.225698 9.27875 0.00104055 9.00261 5.21541e-05L8.99903 1.00005ZM1.49415 7.94005L0.994158 7.93738L0.994155 7.93911L1.49415 7.94005ZM2.92082 12.3L3.39459 12.4599C3.44672 12.3053 3.42021 12.1351 3.32355 12.0037L2.92082 12.3ZM1.98749 15.0667L1.51372 14.9069C1.4535 15.0854 1.49873 15.2826 1.63072 15.417C1.76271 15.5514 1.95906 15.6003 2.13863 15.5433L1.98749 15.0667ZM4.86749 14.1534L5.14193 13.7354C5.01612 13.6528 4.8598 13.6313 4.71634 13.6768L4.86749 14.1534ZM16.4942 7.94005L16.9942 7.94415L16.9941 7.93738L16.4942 7.94005ZM8.99992 4.97699e-05C8.72378 0.000545919 8.50033 0.224805 8.50082 0.500947C8.50132 0.777089 8.72558 1.00054 9.00172 1.00005L8.99992 4.97699e-05ZM9.00261 5.21541e-05C4.6009 -0.0157031 1.01767 3.5357 0.994161 7.93738L1.99415 7.94272C2.01471 4.09263 5.14891 0.986265 8.99903 1.00005L9.00261 5.21541e-05ZM0.994155 7.93911C0.990996 9.61456 1.52512 11.2469 2.51809 12.5964L3.32355 12.0037C2.45733 10.8265 1.9914 9.40256 1.99415 7.94099L0.994155 7.93911ZM2.44705 12.1402L1.51372 14.9069L2.46125 15.2265L3.39459 12.4599L2.44705 12.1402ZM2.13863 15.5433L5.01863 14.63L4.71634 13.6768L1.83634 14.5901L2.13863 15.5433ZM4.59305 14.5713C7.04311 16.1801 10.1764 16.3216 12.7615 14.9401L12.2901 14.0582C10.0279 15.2671 7.28598 15.1433 5.14193 13.7354L4.59305 14.5713ZM12.7615 14.9401C15.3465 13.5586 16.9701 10.8751 16.9941 7.94415L15.9942 7.93595C15.9732 10.5008 14.5523 12.8492 12.2901 14.0582L12.7615 14.9401ZM16.9941 7.93738C16.9706 3.54126 13.3961 -0.0078494 8.99992 4.97699e-05L9.00172 1.00005C12.847 0.993139 15.9736 4.0975 15.9942 7.94272L16.9941 7.93738Z" fill="black"/>
<path id="Path" fill-rule="evenodd" clip-rule="evenodd" d="M13.0461 9.77342C12.9994 9.69342 12.8661 9.64009 12.6728 9.54676C12.4794 9.45342 11.5128 8.98009 11.3394 8.91342C11.1661 8.84676 11.0261 8.81342 10.8994 9.01342C10.7728 9.21342 10.5661 9.50009 10.4528 9.62676C10.3394 9.75342 10.2261 9.77342 10.0261 9.67342C8.88527 9.17629 7.92266 8.34389 7.26609 7.28676C7.15276 7.09342 7.26609 6.98676 7.35276 6.89342C7.67942 6.56676 7.68609 6.61342 7.76609 6.45342C7.8242 6.34754 7.8242 6.21931 7.76609 6.11342C7.66609 6.00009 7.29942 5.05342 7.13276 4.66676C6.96609 4.28009 6.12609 4.20676 5.79942 4.56676C2.33276 8.22009 10.7794 14.4801 12.9394 10.6668C13.1197 10.4097 13.1598 10.0795 13.0461 9.78676" fill="black"/>
</g>
</svg>
