<svg width="16" height="16" viewBox="0 0 16 16" fill="none" xmlns="http://www.w3.org/2000/svg">
<g id="Logos / Social-Medias / social-media-twitter">
<g id="Group">
<g id="Regular">
<path id="Shape" fill-rule="evenodd" clip-rule="evenodd" d="M15.4527 4.47337L14.0527 3.87337L14.7861 2.27337L13.0794 2.84004C12.5358 2.33333 11.8225 2.048 11.0794 2.04004C9.42407 2.04371 8.08307 3.38471 8.0794 5.04004V5.70671C5.7194 6.19337 3.6594 4.90671 1.74607 2.70671C1.41273 4.48448 1.74607 5.81782 2.74607 6.70671L0.552734 6.37337C0.727617 7.83069 1.92084 8.95372 3.38607 9.04004L1.55273 9.70671C2.2194 11.04 3.43273 11.2467 5.05273 11.3734C3.72861 12.2765 2.15512 12.7427 0.552734 12.7067C9.0594 16.4867 14.0527 10.9334 14.0527 6.04004V5.48671L15.4527 4.47337Z" fill="black"/>
</g>
</g>
</g>
</svg>
