<svg width="35" height="35" viewBox="0 0 35 35" fill="none" xmlns="http://www.w3.org/2000/svg">
<g id="viber (1) 1" clip-path="url(#clip0_1_109578)">
<g id="Layer 2">
<g id="Color Icon">
<g id="09.Viber">
<path id="Background" d="M32.2368 0H2.76316C1.23711 0 0 1.23711 0 2.76316V32.2368C0 33.7629 1.23711 35 2.76316 35H32.2368C33.7629 35 35 33.7629 35 32.2368V2.76316C35 1.23711 33.7629 0 32.2368 0Z" fill="#665CAC"/>
<path id="Icon" d="M19.3425 8.28906H15.6583C13.9484 8.28906 12.3084 8.96834 11.0993 10.1775C9.89021 11.3866 9.21094 13.0265 9.21094 14.7364V17.4996C9.21042 18.7201 9.55637 19.9157 10.2086 20.9474C10.8607 21.9791 11.7924 22.8045 12.8951 23.3275V26.4062C12.8962 26.4662 12.9149 26.5247 12.9487 26.5743C12.9825 26.6239 13.0301 26.6626 13.0856 26.6856C13.1411 26.7086 13.2021 26.7149 13.2611 26.7037C13.3201 26.6925 13.3746 26.6643 13.4178 26.6226L16.0935 23.947H19.3425C21.0525 23.947 22.6924 23.2677 23.9015 22.0586C25.1106 20.8494 25.7899 19.2095 25.7899 17.4996V14.7364C25.7899 13.0265 25.1106 11.3866 23.9015 10.1775C22.6924 8.96834 21.0525 8.28906 19.3425 8.28906ZM21.7557 20.3733L20.8346 21.2943C19.8537 22.2545 17.2932 21.1585 15.0366 18.8535C12.78 16.5486 11.7899 13.9627 12.734 13.0025L13.655 12.0815C13.8355 11.9195 14.0702 11.831 14.3128 11.8335C14.5554 11.8361 14.7882 11.9295 14.9652 12.0953L16.31 13.4769C16.4168 13.5871 16.4938 13.7227 16.5338 13.8708C16.5737 14.019 16.5754 14.1749 16.5386 14.3239C16.5017 14.4729 16.4276 14.61 16.3232 14.7225C16.2187 14.8349 16.0874 14.919 15.9415 14.9667C15.7253 15.033 15.543 15.1801 15.4324 15.3773C15.3217 15.5746 15.2913 15.8068 15.3475 16.0259C15.5777 17.0483 16.8764 18.3285 17.8435 18.5795C18.0615 18.6315 18.291 18.6021 18.489 18.497C18.6869 18.3919 18.8398 18.2182 18.9188 18.0085C18.9699 17.8622 19.0578 17.7315 19.174 17.6291C19.2902 17.5266 19.4308 17.4557 19.5823 17.4234C19.7338 17.391 19.8911 17.3981 20.0391 17.4441C20.187 17.4902 20.3206 17.5735 20.4271 17.6861L21.7695 19.0677C21.9307 19.2477 22.0187 19.4815 22.0162 19.7232C22.0136 19.9648 21.9207 20.1967 21.7557 20.3733ZM18.3386 12.6641C18.247 12.6636 18.1555 12.669 18.0646 12.6802C18.0245 12.6846 17.984 12.681 17.9453 12.6697C17.9066 12.6585 17.8705 12.6397 17.839 12.6144C17.8076 12.5892 17.7815 12.558 17.7621 12.5227C17.7427 12.4873 17.7305 12.4485 17.7261 12.4085C17.7217 12.3684 17.7252 12.3279 17.7365 12.2892C17.7478 12.2505 17.7666 12.2144 17.7918 12.183C17.8171 12.1515 17.8482 12.1254 17.8836 12.106C17.9189 12.0866 17.9577 12.0744 17.9978 12.07C18.1109 12.057 18.2247 12.0508 18.3386 12.0516C19.1535 12.051 19.9352 12.3739 20.5121 12.9495C21.0889 13.525 21.4137 14.3061 21.4149 15.121C21.4156 15.2348 21.4095 15.3486 21.3965 15.4618C21.3921 15.5018 21.3798 15.5406 21.3605 15.576C21.3411 15.6113 21.3149 15.6425 21.2835 15.6677C21.2521 15.6929 21.216 15.7117 21.1773 15.723C21.1386 15.7343 21.098 15.7379 21.058 15.7335C21.0179 15.7291 20.9791 15.7169 20.9438 15.6975C20.9084 15.6781 20.8772 15.6519 20.852 15.6205C20.8268 15.5891 20.808 15.553 20.7967 15.5143C20.7854 15.4756 20.7819 15.435 20.7863 15.395C20.7963 15.304 20.8017 15.2125 20.8024 15.121C20.8012 14.4685 20.541 13.8433 20.079 13.3826C19.617 12.9219 18.991 12.6635 18.3386 12.6641ZM20.1807 15.121C20.174 15.1979 20.1387 15.2695 20.0818 15.3217C20.0249 15.3739 19.9505 15.4029 19.8733 15.4029C19.7961 15.4029 19.7216 15.3739 19.6647 15.3217C19.6078 15.2695 19.5725 15.1979 19.5659 15.121C19.5659 14.7955 19.4366 14.4833 19.2064 14.2531C18.9762 14.023 18.6641 13.8937 18.3386 13.8937C18.296 13.8974 18.2531 13.8922 18.2126 13.8784C18.1721 13.8646 18.1349 13.8426 18.1034 13.8137C18.0719 13.7848 18.0467 13.7496 18.0295 13.7105C18.0123 13.6713 18.0034 13.629 18.0034 13.5863C18.0034 13.5435 18.0123 13.5012 18.0295 13.4621C18.0467 13.4229 18.0719 13.3878 18.1034 13.3589C18.1349 13.33 18.1721 13.3079 18.2126 13.2942C18.2531 13.2804 18.296 13.2752 18.3386 13.2789C18.8271 13.2789 19.2957 13.4729 19.6411 13.8184C19.9866 14.1639 20.1807 14.6324 20.1807 15.121ZM22.5225 16.118C22.5156 16.1599 22.5003 16.1999 22.4773 16.2355C22.4543 16.2712 22.4243 16.3017 22.389 16.3252C22.3537 16.3488 22.3139 16.3647 22.2722 16.3722C22.2304 16.3797 22.1876 16.3784 22.1463 16.3686C22.1051 16.3588 22.0663 16.3405 22.0324 16.315C21.9985 16.2895 21.9702 16.2573 21.9494 16.2204C21.9285 16.1835 21.9154 16.1427 21.911 16.1005C21.9066 16.0583 21.911 16.0157 21.9238 15.9752C21.9903 15.6969 22.0235 15.4117 22.0228 15.1256C22.0228 14.1485 21.6346 13.2114 20.9437 12.5204C20.2528 11.8295 19.3157 11.4414 18.3386 11.4414C18.2442 11.4414 18.1475 11.4414 18.053 11.4414C18.0128 11.4444 17.9724 11.4395 17.9341 11.4269C17.8958 11.4143 17.8603 11.3942 17.8297 11.3679C17.768 11.3148 17.7299 11.2394 17.7238 11.1581C17.7177 11.0769 17.7441 10.9966 17.7972 10.9348C17.8503 10.8731 17.9258 10.835 18.007 10.8289C18.1175 10.8197 18.228 10.815 18.3386 10.815C19.4794 10.8169 20.5728 11.2713 21.3789 12.0787C22.1849 12.886 22.6376 13.9802 22.6376 15.121C22.6377 15.4566 22.5991 15.7912 22.5225 16.118Z" fill="white"/>
</g>
</g>
</g>
</g>
<defs>
<clipPath id="clip0_1_109578">
<rect width="35" height="35" fill="white"/>
</clipPath>
</defs>
</svg>
