<svg width="16" height="16" viewBox="0 0 16 16" fill="none" xmlns="http://www.w3.org/2000/svg">
<g id="Logos / Professional-Networks / professional-network-linkedin">
<g id="Group">
<g id="Regular">
<path id="Shape" fill-rule="evenodd" clip-rule="evenodd" d="M3.77931 15.0866H0.539307V5.79997H3.77931V15.0866ZM10.5059 8.82663C9.71801 8.82663 9.07927 9.46537 9.07927 10.2533V15.0866H5.67261V5.79996H9.07927V6.85996C9.87775 6.184 10.8865 5.80689 11.9326 5.79329C14.0459 5.79329 15.5126 7.35996 15.5126 10.3333V15.0866H11.9326V10.2533C11.9344 9.87376 11.7849 9.50917 11.5171 9.24018C11.2494 8.97118 10.8855 8.81996 10.5059 8.81996V8.82663ZM3.83919 2.58659C3.83919 3.50706 3.093 4.25325 2.17253 4.25325C1.25205 4.25325 0.505859 3.50706 0.505859 2.58659C0.505859 1.66611 1.25205 0.919922 2.17253 0.919922C3.08779 0.927244 3.82589 1.6713 3.82586 2.58659H3.83919Z" fill="black"/>
</g>
</g>
</g>
</svg>
