<svg width="18" height="16" viewBox="0 0 18 16" fill="none" xmlns="http://www.w3.org/2000/svg">
<g id="Interface-Essential / Link/Unlink / hyperlink-3">
<g id="Group">
<g id="hyperlink-3">
<path id="Shape" d="M7.24268 12.3335L6.62135 12.9549C5.44977 14.1264 3.55026 14.1264 2.37868 12.9549C1.2071 11.7833 1.2071 9.88378 2.37868 8.7122L5.56068 5.52953C6.6671 4.42061 8.44044 4.34963 9.63195 5.36655C10.8235 6.38348 11.032 8.14596 10.1107 9.41286" stroke="black" stroke-width="1.5" stroke-linecap="round" stroke-linejoin="round"/>
<path id="Shape_2" d="M10.8789 3.71169L11.3789 3.21169C12.5505 2.04011 14.45 2.04011 15.6216 3.21169C16.7931 4.38327 16.7931 6.28278 15.6216 7.45436L12.4396 10.6364C11.3329 11.7448 9.55981 11.8154 8.3686 10.7984C7.17739 9.78136 6.96903 8.01911 7.89022 6.75236" stroke="black" stroke-width="1.5" stroke-linecap="round" stroke-linejoin="round"/>
</g>
</g>
</g>
</svg>
