<svg width="35" height="35" viewBox="0 0 35 35" fill="none" xmlns="http://www.w3.org/2000/svg">
<g id="facebook (2) 1" clip-path="url(#clip0_1_109566)">
<g id="Layer 2">
<g id="Color Icon">
<g id="01. Facebook">
<path id="Background" d="M32.2368 0H2.76316C1.23711 0 0 1.23711 0 2.76316V32.2368C0 33.7629 1.23711 35 2.76316 35H32.2368C33.7629 35 35 33.7629 35 32.2368V2.76316C35 1.23711 33.7629 0 32.2368 0Z" fill="#4A6EA9"/>
<path id="Icon" d="M15.3004 18.6902H13.0116C12.6524 18.6902 12.5234 18.5589 12.5234 18.1974C12.5234 17.2656 12.5234 16.3346 12.5234 15.4043C12.5234 15.0451 12.6593 14.9093 13.0139 14.9093H15.3004V12.8945C15.2733 11.9894 15.4904 11.0938 15.929 10.3017C16.385 9.50201 17.1156 8.89492 17.9853 8.59314C18.5497 8.38778 19.1462 8.28485 19.7468 8.28919H22.0103C22.3349 8.28919 22.4708 8.43196 22.4708 8.74972V11.377C22.4708 11.7063 22.3326 11.8375 22.0103 11.8375C21.3909 11.8375 20.7715 11.8375 20.1544 11.8629C19.5372 11.8882 19.2011 12.1691 19.2011 12.8139C19.1872 13.5047 19.2011 14.1816 19.2011 14.8862H21.8606C22.2382 14.8862 22.3672 15.0152 22.3672 15.3951C22.3672 16.3162 22.3672 17.2418 22.3672 18.1721C22.3672 18.5474 22.2474 18.6649 21.8675 18.6672H19.1873V26.1599C19.1873 26.5606 19.0629 26.6872 18.6669 26.6872H15.784C15.4363 26.6872 15.3004 26.5514 15.3004 26.2037V18.6902Z" fill="white"/>
</g>
</g>
</g>
</g>
<defs>
<clipPath id="clip0_1_109566">
<rect width="35" height="35" fill="white"/>
</clipPath>
</defs>
</svg>
