<svg width="35" height="35" viewBox="0 0 35 35" fill="none" xmlns="http://www.w3.org/2000/svg">
<g id="twitter (2) 1" clip-path="url(#clip0_1_109572)">
<g id="Layer 2">
<g id="Color Icon">
<g id="04.Twitter">
<path id="Background" d="M32.2368 0H2.76316C1.23711 0 0 1.23711 0 2.76316V32.2368C0 33.7629 1.23711 35 2.76316 35H32.2368C33.7629 35 35 33.7629 35 32.2368V2.76316C35 1.23711 33.7629 0 32.2368 0Z" fill="#03A9F4"/>
<path id="Icon" d="M28.8367 10.4694C27.984 10.8418 27.0821 11.0892 26.1587 11.2039C27.1321 10.6267 27.8597 9.7123 28.2035 8.63417C27.2924 9.17491 26.2956 9.55574 25.2561 9.76016C24.6191 9.07892 23.7918 8.60514 22.8819 8.40043C21.972 8.19571 21.0216 8.26955 20.1542 8.61233C19.2868 8.9551 18.5427 9.55096 18.0185 10.3224C17.4944 11.0938 17.2145 12.0051 17.2153 12.9378C17.212 13.2938 17.2483 13.649 17.3235 13.997C15.4744 13.9062 13.6653 13.4263 12.0143 12.5887C10.3634 11.7511 8.90763 10.5746 7.74227 9.13615C7.14326 10.1595 6.95768 11.3729 7.22346 12.5285C7.48924 13.684 8.18632 14.6945 9.1722 15.3532C8.43634 15.3334 7.71605 15.1368 7.0722 14.7799V14.8306C7.07428 15.9032 7.44555 16.9424 8.12361 17.7735C8.80167 18.6046 9.74519 19.177 10.7956 19.3944C10.3981 19.4988 9.98844 19.5499 9.57747 19.5463C9.28155 19.5518 8.98589 19.5256 8.69556 19.4681C8.99648 20.3905 9.57583 21.1971 10.3539 21.7769C11.132 22.3566 12.0706 22.6811 13.0406 22.7055C11.3968 23.9904 9.3704 24.6883 7.28405 24.6881C6.9123 24.6913 6.54076 24.6697 6.17188 24.6236C8.29921 25.9952 10.7789 26.7199 13.31 26.7098C21.8643 26.7098 26.541 19.6246 26.541 13.4835C26.541 13.2786 26.541 13.0806 26.5248 12.8825C27.4356 12.2252 28.219 11.4075 28.8367 10.4694Z" fill="white"/>
</g>
</g>
</g>
</g>
<defs>
<clipPath id="clip0_1_109572">
<rect width="35" height="35" fill="white"/>
</clipPath>
</defs>
</svg>
