<svg width="20" height="20" viewBox="0 0 20 20" fill="none" xmlns="http://www.w3.org/2000/svg">
<path d="M15.5576 1.66602H13.9742C12.1576 1.66602 11.1992 2.62435 11.1992 4.44102V6.02435C11.1992 7.84102 12.1576 8.79935 13.9742 8.79935H15.5576C17.3742 8.79935 18.3326 7.84102 18.3326 6.02435V4.44102C18.3326 2.62435 17.3742 1.66602 15.5576 1.66602Z" fill="white"/>
<path d="M6.03464 11.1914H4.4513C2.6263 11.1914 1.66797 12.1497 1.66797 13.9664V15.5497C1.66797 17.3747 2.6263 18.3331 4.44297 18.3331H6.0263C7.84297 18.3331 8.8013 17.3747 8.8013 15.5581V13.9747C8.80964 12.1497 7.8513 11.1914 6.03464 11.1914Z" fill="white"/>
<path d="M5.24297 8.81602C7.21739 8.81602 8.81797 7.21543 8.81797 5.24102C8.81797 3.2666 7.21739 1.66602 5.24297 1.66602C3.26855 1.66602 1.66797 3.2666 1.66797 5.24102C1.66797 7.21543 3.26855 8.81602 5.24297 8.81602Z" fill="white"/>
<path d="M14.7586 18.3336C16.733 18.3336 18.3336 16.733 18.3336 14.7586C18.3336 12.7842 16.733 11.1836 14.7586 11.1836C12.7842 11.1836 11.1836 12.7842 11.1836 14.7586C11.1836 16.733 12.7842 18.3336 14.7586 18.3336Z" fill="white"/>
</svg>
