<svg width="16" height="16" viewBox="0 0 16 16" fill="none" xmlns="http://www.w3.org/2000/svg">
<g clip-path="url(#clip0_116_27348)">
<path d="M8 0C5.87827 0 3.84344 0.842855 2.34315 2.34315C0.842855 3.84344 0 5.87827 0 8C0 10.1217 0.842855 12.1566 2.34315 13.6569C3.84344 15.1571 5.87827 16 8 16C10.1217 16 12.1566 15.1571 13.6569 13.6569C15.1571 12.1566 16 10.1217 16 8C16 5.87827 15.1571 3.84344 13.6569 2.34315C12.1566 0.842855 10.1217 0 8 0ZM10.8333 0.746667C11.0467 0.746667 11.2667 0.766667 11.4067 0.813333C9.96 1.11333 8.80667 2.46 8.81333 4C8.81333 4.03333 8.81333 4.07333 8.82 4.11333C11.2467 4.70667 12.3333 6.16667 12.3333 8.18667C12.36 10.2067 10.76 12.4267 8.06 12.4333C5.88 12.44 3.60667 10.5733 3.59333 7.58C3.58667 5.6 4.66667 3.69333 6.02667 2.56667C7.36 1.46 9.18 0.753333 10.8333 0.746667Z" fill="#858585"/>
</g>
<defs>
<clipPath id="clip0_116_27348">
<rect width="16" height="16" fill="white"/>
</clipPath>
</defs>
</svg>
