<svg width="38" height="38" viewBox="0 0 38 38" fill="none" xmlns="http://www.w3.org/2000/svg">
<g id="icon">
<g id="Group 63">
<rect id="Rectangle" x="0.5" y="0.5" width="37" height="37" rx="18.5" fill="white" stroke="#F4F4F4"/>
<g id="Group">
<path id="Vector" d="M25.6485 11H24.112V12.5366C24.112 12.8439 23.8559 13.0487 23.5998 13.0487C23.3437 13.0487 23.0876 12.8439 23.0876 12.5366V11H14.8926V12.5366C14.8926 12.8439 14.6365 13.0487 14.3804 13.0487C14.1243 13.0487 13.8682 12.8439 13.8682 12.5366V11H12.3317C11.5634 11 11 11.6658 11 12.5366V14.3804H27.39V12.5366C27.39 11.6658 26.468 11 25.6485 11ZM11 15.456V24.829C11 25.751 11.5634 26.3656 12.3829 26.3656H25.6998C26.5192 26.3656 27.4412 25.6997 27.4412 24.829V15.456H11ZM15.5585 24.0607H14.3292C14.1243 24.0607 13.9195 23.9071 13.9195 23.651V22.3705C13.9195 22.1657 14.0731 21.9608 14.3292 21.9608H15.6097C15.8146 21.9608 16.0194 22.1144 16.0194 22.3705V23.651C15.9682 23.9071 15.8146 24.0607 15.5585 24.0607ZM15.5585 19.4511H14.3292C14.1243 19.4511 13.9195 19.2974 13.9195 19.0413V17.7609C13.9195 17.556 14.0731 17.3511 14.3292 17.3511H15.6097C15.8146 17.3511 16.0194 17.5048 16.0194 17.7609V19.0413C15.9682 19.2974 15.8146 19.4511 15.5585 19.4511ZM19.656 24.0607H18.3755C18.1706 24.0607 17.9657 23.9071 17.9657 23.651V22.3705C17.9657 22.1657 18.1194 21.9608 18.3755 21.9608H19.656C19.8608 21.9608 20.0657 22.1144 20.0657 22.3705V23.651C20.0657 23.9071 19.912 24.0607 19.656 24.0607ZM19.656 19.4511H18.3755C18.1706 19.4511 17.9657 19.2974 17.9657 19.0413V17.7609C17.9657 17.556 18.1194 17.3511 18.3755 17.3511H19.656C19.8608 17.3511 20.0657 17.5048 20.0657 17.7609V19.0413C20.0657 19.2974 19.912 19.4511 19.656 19.4511ZM23.7534 24.0607H22.473C22.2681 24.0607 22.0632 23.9071 22.0632 23.651V22.3705C22.0632 22.1657 22.2169 21.9608 22.473 21.9608H23.7534C23.9583 21.9608 24.1632 22.1144 24.1632 22.3705V23.651C24.1632 23.9071 24.0095 24.0607 23.7534 24.0607ZM23.7534 19.4511H22.473C22.2681 19.4511 22.0632 19.2974 22.0632 19.0413V17.7609C22.0632 17.556 22.2169 17.3511 22.473 17.3511H23.7534C23.9583 17.3511 24.1632 17.5048 24.1632 17.7609V19.0413C24.1632 19.2974 24.0095 19.4511 23.7534 19.4511Z" fill="#D7D7D7"/>
</g>
</g>
</g>
</svg>
