<svg width="38" height="38" viewBox="0 0 38 38" fill="none" xmlns="http://www.w3.org/2000/svg">
<g id="icon">
<g id="Group 63">
<rect id="Rectangle" x="0.5" y="0.5" width="37" height="37" rx="18.5" fill="white" stroke="#F4F4F4"/>
<path id="Vector" d="M24.3273 14.374C23.8808 13.4539 23.2201 12.6659 22.406 12.0825C21.5918 11.499 20.6504 11.1388 19.6683 11.0349C19.224 10.9884 18.7763 10.9884 18.332 11.0349C17.3499 11.1389 16.4085 11.4991 15.5944 12.0825C14.7802 12.6659 14.1194 13.4537 13.6727 14.3737C13.1107 15.5474 12.8936 16.8688 13.0488 18.1712C13.204 19.4737 13.7245 20.699 14.5448 21.6929L18.5451 26.7754C18.6003 26.8456 18.6698 26.9022 18.7484 26.941C18.8271 26.9799 18.913 27 19 27C19.087 27 19.1729 26.9799 19.2516 26.941C19.3302 26.9022 19.3997 26.8456 19.4549 26.7754L23.4552 21.6929C24.2755 20.6991 24.796 19.4738 24.9512 18.1714C25.1064 16.869 24.8893 15.5477 24.3273 14.374ZM19 19.6151C18.5341 19.6151 18.0787 19.4707 17.6913 19.2002C17.304 18.9297 17.0021 18.5453 16.8238 18.0955C16.6455 17.6457 16.5988 17.1507 16.6897 16.6732C16.7806 16.1957 17.005 15.7571 17.3344 15.4129C17.6638 15.0686 18.0835 14.8342 18.5405 14.7392C18.9974 14.6442 19.471 14.6929 19.9014 14.8793C20.3319 15.0656 20.6997 15.3811 20.9586 15.7859C21.2174 16.1907 21.3556 16.6666 21.3556 17.1535C21.3548 17.8061 21.1064 18.4318 20.6648 18.8932C20.2232 19.3547 19.6245 19.6143 19 19.6151Z" fill="#D7D7D7"/>
</g>
</g>
</svg>
