<svg width="23" height="23" viewBox="0 0 23 23" fill="none" xmlns="http://www.w3.org/2000/svg">
<g id="money (2) (1)" clip-path="url(#clip0_1_112328)">
<g id="Group">
<path id="Vector" d="M10.1504 10.1523C10.5225 10.1523 10.8242 9.85066 10.8242 9.47852C10.8242 9.10637 10.5225 8.80469 10.1504 8.80469C9.77825 8.80469 9.47656 9.10637 9.47656 9.47852C9.47656 9.85066 9.77825 10.1523 10.1504 10.1523Z" fill="#EB5F01"/>
<path id="Vector_2" d="M10.4866 14.1065C10.509 14.094 12.7147 12.8477 14.8691 12.8477C17.0137 12.8477 19.2749 14.094 19.2972 14.1071L20.3047 14.6803V5.04468L19.9651 4.85057C19.8625 4.792 17.3776 3.41406 14.8691 3.41406C12.3607 3.41406 9.92073 4.792 9.81808 4.85057C9.79571 4.86306 7.58995 6.10938 5.43555 6.10938C3.29102 6.10938 1.02983 4.86306 1.00746 4.8499L0 4.27674V13.9123L0.339564 14.1065C0.442211 14.165 2.92711 15.543 5.43555 15.543C7.94398 15.543 10.384 14.165 10.4866 14.1065ZM17.0598 7.75972L16.7215 9.06393C15.8194 8.83034 15.0218 8.75927 14.2605 8.83559L14.1302 7.4945C15.0495 7.40506 16.0056 7.48601 17.0598 7.75972ZM10.1523 7.45703C11.267 7.45703 12.1738 8.36382 12.1738 9.47852C12.1738 10.5932 11.267 11.5 10.1523 11.5C9.03765 11.5 8.13086 10.5932 8.13086 9.47852C8.13086 8.36382 9.03765 7.45703 10.1523 7.45703ZM3.58319 9.8931C4.48469 10.1261 5.28025 10.1952 6.04424 10.1214L6.17451 11.4625C5.92973 11.4862 5.6823 11.5 5.43555 11.5C4.75516 11.5 4.01813 11.398 3.24493 11.1973L3.58319 9.8931Z" fill="#EB5F01"/>
<path id="Vector_3" d="M21.6543 8.40234V16.9969L18.6326 15.2781C18.097 14.9774 16.3365 14.195 14.8711 14.195C13.1036 14.195 11.1683 15.2703 11.1492 15.2808C10.8669 15.442 8.24732 16.8903 5.4375 16.8903C4.48695 16.8903 3.56655 16.719 2.74219 16.4931V17.955L3.08175 18.1491C3.1844 18.2077 5.62438 19.5856 8.13281 19.5856C10.6413 19.5856 13.0812 18.2077 13.1839 18.1491C13.2062 18.1366 15.412 16.8903 17.5664 16.8903C19.7109 16.8903 21.9721 18.1366 21.9945 18.1498L23.002 18.723V9.08736C22.6863 8.90843 22.3816 8.71729 21.6543 8.40234Z" fill="#EB5F01"/>
</g>
</g>
<defs>
<clipPath id="clip0_1_112328">
<rect width="23" height="23" fill="white"/>
</clipPath>
</defs>
</svg>
