<svg width="20" height="20" viewBox="0 0 20 20" fill="none" xmlns="http://www.w3.org/2000/svg">
<g id="credit-card (4) 1">
<g id="Group">
<g id="Group_2">
<path id="Vector" d="M8.75 6.25V5H1.25C0.56125 5 0 5.56125 0 6.25V8.75H9.01375C8.84 7.98625 8.75 7.16375 8.75 6.25Z" fill="black"/>
</g>
</g>
<g id="Group_3">
<g id="Group_4">
<path id="Vector_2" d="M19.9487 11.25C19.0962 12.5638 17.7962 13.6812 15.9338 14.7512C15.6475 14.915 15.325 15 15 15C14.675 15 14.3525 14.915 14.07 14.7537C12.2075 13.6812 10.9075 12.5625 10.0538 11.25H0V17.5C0 18.19 0.56125 18.75 1.25 18.75H18.75C19.44 18.75 20 18.19 20 17.5V11.25H19.9487ZM5.625 15H3.125C2.78 15 2.5 14.72 2.5 14.375C2.5 14.03 2.78 13.75 3.125 13.75H5.625C5.97 13.75 6.25 14.03 6.25 14.375C6.25 14.72 5.97 15 5.625 15Z" fill="black"/>
</g>
</g>
<g id="Group_5">
<g id="Group_6">
<path id="Vector_3" d="M19.6212 3.17562L15.2462 1.30062C15.0875 1.23312 14.9113 1.23312 14.7525 1.30062L10.3775 3.17562C10.1488 3.27312 10 3.49937 10 3.74937V6.24937C10 9.68812 11.2713 11.6981 14.6888 13.6669C14.785 13.7219 14.8925 13.7494 15 13.7494C15.1075 13.7494 15.215 13.7219 15.3112 13.6669C18.7287 11.7031 20 9.69312 20 6.24937V3.74937C20 3.49937 19.8512 3.27312 19.6212 3.17562ZM17.3637 6.01562L14.8637 9.14062C14.7437 9.28812 14.5637 9.37437 14.375 9.37437C14.3663 9.37437 14.3563 9.37437 14.3488 9.37437C14.15 9.36562 13.9662 9.26312 13.855 9.09687L12.605 7.22187C12.4137 6.93437 12.4912 6.54688 12.7787 6.35562C13.0637 6.16563 13.4525 6.24062 13.645 6.52937L14.4212 7.69312L16.3863 5.23562C16.6025 4.96687 16.9963 4.92437 17.265 5.13812C17.535 5.35187 17.5775 5.74562 17.3637 6.01562Z" fill="black"/>
</g>
</g>
</g>
</svg>
