<svg width="25" height="25" viewBox="0 0 25 25" fill="none" xmlns="http://www.w3.org/2000/svg">
<g id="pickup-truck">
<g id="Group">
<g id="Group_2">
<path id="Vector" d="M24.8779 13.8702L24.5834 13.5757V10.8315C24.5834 10.6015 24.3967 10.4148 24.1667 10.4148H17.0834V7.09065C17.0834 6.86233 16.8963 6.67566 16.6679 6.674C9.55542 6.62068 8.08252 7.56023 5.59917 10.464C4.78374 10.5361 4.0271 10.6894 3.35791 10.909C2.25625 11.2702 1.25 11.6648 0.61084 12.9144V12.9149C0.51294 13.1244 0.44707 13.342 0.42583 13.567L0.12251 13.8703C0.04375 13.9482 0 14.0544 0 14.1648V14.9982C0 15.1086 0.04375 15.2148 0.12207 15.2928L0.41665 15.5873V16.2482C0.41665 16.4782 0.60332 16.6648 0.833301 16.6648H2.5C2.73125 16.6648 2.91626 16.4748 2.91665 16.2436C2.91665 16.2415 2.91709 16.2394 2.91709 16.2369C2.92334 14.6315 4.22627 13.3315 5.83335 13.3315C7.44419 13.3315 8.75 14.6373 8.75 16.2481C8.72002 16.5011 8.91958 16.6648 9.16665 16.6648H16.25C16.4813 16.6648 16.6663 16.4748 16.6667 16.2435C16.6667 16.2414 16.667 16.2394 16.667 16.2368C16.6733 14.6314 17.9762 13.3314 19.5833 13.3314C21.1941 13.3314 22.5 14.6372 22.5 16.2481C22.47 16.501 22.6695 16.6647 22.9166 16.6647H24.1666C24.277 16.6647 24.3833 16.621 24.4612 16.5427L24.8778 16.126C24.9562 16.0477 24.9999 15.9418 24.9999 15.831V14.1643C25 14.0544 24.9563 13.9482 24.8779 13.8702ZM12.0834 10.2065C12.0834 10.3215 11.99 10.4149 11.875 10.4149H7.22456C7.03999 10.4149 6.94829 10.1936 7.07539 10.0599C8.28247 8.7928 9.43833 8.06448 11.8425 7.73074C11.9679 7.71326 12.0833 7.81155 12.0833 7.93782V10.2065H12.0834ZM16.25 10.2065C16.25 10.3215 16.1567 10.4149 16.0417 10.4149H13.125C13.01 10.4149 12.9167 10.3216 12.9167 10.2065V7.80779C12.9167 7.69861 12.9983 7.60735 13.1071 7.59944C13.9462 7.53738 14.9154 7.50818 16.0379 7.50569C16.1533 7.50525 16.25 7.599 16.25 7.71443V10.2065H16.25Z" fill="#EB5F01"/>
</g>
</g>
<g id="Group_3">
<g id="Group_4">
<path id="Vector_2" d="M19.5833 14.1641C18.4346 14.1641 17.5 15.0986 17.5 16.2474C17.5 17.3961 18.4346 18.3308 19.5833 18.3308C20.7321 18.3308 21.6667 17.3962 21.6667 16.2474C21.6667 15.0987 20.7321 14.1641 19.5833 14.1641ZM19.5833 17.4974C18.8942 17.4974 18.3334 16.9366 18.3334 16.2474C18.3334 15.5583 18.8942 14.9974 19.5833 14.9974C20.2725 14.9974 20.8333 15.5583 20.8333 16.2474C20.8333 16.9366 20.2725 17.4974 19.5833 17.4974Z" fill="#EB5F01"/>
</g>
</g>
<g id="Group_5">
<g id="Group_6">
<path id="Vector_3" d="M5.83335 14.1641C4.68462 14.1641 3.75 15.0986 3.75 16.2474C3.75 17.3961 4.68457 18.3308 5.83335 18.3308C6.98213 18.3308 7.9167 17.3962 7.9167 16.2474C7.91665 15.0987 6.98208 14.1641 5.83335 14.1641ZM5.83335 17.4974C5.14419 17.4974 4.58335 16.9366 4.58335 16.2474C4.58335 15.5583 5.14419 14.9974 5.83335 14.9974C6.52251 14.9974 7.08335 15.5583 7.08335 16.2474C7.08335 16.9366 6.52251 17.4974 5.83335 17.4974Z" fill="#EB5F01"/>
</g>
</g>
</g>
</svg>
