<svg width="32" height="32" viewBox="0 0 32 32" fill="none" xmlns="http://www.w3.org/2000/svg">
<g id="courier (4)" clip-path="url(#clip0_1_112157)">
<g id="Group">
<path id="Vector" fill-rule="evenodd" clip-rule="evenodd" d="M25.2629 0H20.2002C18.6499 0 17.3877 1.26221 17.3877 2.8125V4.49951H15.9502C15.4324 4.49951 15.0127 4.91944 15.0127 5.43701C15.0127 5.95484 15.4324 6.37451 15.9502 6.37451H17.408C17.6465 9.11744 19.9495 11.2498 22.7314 11.2498C25.6826 11.2498 28.0754 8.85694 28.0754 5.90576C28.0754 4.87573 28.0754 3.84351 28.0754 2.8125C28.0754 1.26221 26.8132 0 25.2629 0Z" fill="black"/>
<path id="Vector_2" fill-rule="evenodd" clip-rule="evenodd" d="M20.5486 13.5997C19.8645 13.9085 19.2568 14.356 18.7627 14.9056L13.7226 20.0662H6.6875C5.13867 20.0662 3.875 21.3302 3.875 22.879C3.875 24.4276 5.13891 25.6915 6.6875 25.6915H14.5627C15.4267 25.6915 16.2832 25.4744 16.9265 24.8265L17.7646 23.9827V31.066C17.7646 31.5201 18.0871 31.9176 18.5156 32.004L27.1408 32.0035C27.6579 32.003 28.0771 31.5833 28.0771 31.066V18.4725C28.0771 14.6226 24.0781 12.0067 20.5486 13.5997Z" fill="black"/>
<path id="Vector_3" fill-rule="evenodd" clip-rule="evenodd" d="M6.45019 18.1875H13.2004C13.7183 18.1875 14.1379 17.7678 14.1379 17.25V10.5625C14.1379 10.0447 13.7183 9.625 13.2004 9.625H10.7629V11.2354C10.7629 11.7532 10.343 12.1729 9.82543 12.1729C9.30761 12.1729 8.88794 11.7532 8.88794 11.2354V9.625H6.45019C5.93262 9.625 5.5127 10.0447 5.5127 10.5625V17.25C5.5127 17.7678 5.93262 18.1875 6.45019 18.1875Z" fill="black"/>
</g>
</g>
<defs>
<clipPath id="clip0_1_112157">
<rect width="32" height="32" fill="white"/>
</clipPath>
</defs>
</svg>
