<svg width="72" height="72" viewBox="0 0 72 72" fill="none" xmlns="http://www.w3.org/2000/svg">
<path d="M36 55.5C28.98 55.5 23.25 49.77 23.25 42.75C23.25 41.52 24.27 40.5 25.5 40.5C26.73 40.5 27.75 41.52 27.75 42.75C27.75 47.31 31.44 51 36 51C40.56 51 44.25 47.31 44.25 42.75C44.25 41.52 45.27 40.5 46.5 40.5C47.73 40.5 48.75 41.52 48.75 42.75C48.75 49.77 43.02 55.5 36 55.5Z" fill="#A2A2A2"/>
<path d="M15.5696 19.1403C14.9996 19.1403 14.3996 18.9003 13.9796 18.4803C13.1096 17.6103 13.1096 16.1703 13.9796 15.3003L24.8696 4.41031C25.7396 3.54031 27.1797 3.54031 28.0497 4.41031C28.9197 5.28031 28.9197 6.72031 28.0497 7.59031L17.1596 18.4803C16.7096 18.9003 16.1396 19.1403 15.5696 19.1403Z" fill="#A2A2A2"/>
<path d="M56.4304 19.1403C55.8604 19.1403 55.2904 18.9303 54.8404 18.4803L43.9504 7.59031C43.0804 6.72031 43.0804 5.28031 43.9504 4.41031C44.8204 3.54031 46.2604 3.54031 47.1304 4.41031L58.0204 15.3003C58.8904 16.1703 58.8904 17.6103 58.0204 18.4803C57.6004 18.9003 57.0004 19.1403 56.4304 19.1403Z" fill="#A2A2A2"/>
<path d="M60.63 31.8008C60.42 31.8008 60.21 31.8008 60 31.8008H59.31H12C9.9 31.8308 7.5 31.8308 5.76 30.0908C4.38 28.7408 3.75 26.6408 3.75 23.5508C3.75 15.3008 9.78 15.3008 12.66 15.3008H59.34C62.22 15.3008 68.25 15.3008 68.25 23.5508C68.25 26.6708 67.62 28.7408 66.24 30.0908C64.68 31.6508 62.58 31.8008 60.63 31.8008ZM12.66 27.3008H60.03C61.38 27.3308 62.64 27.3308 63.06 26.9108C63.27 26.7008 63.72 25.9808 63.72 23.5508C63.72 20.1608 62.88 19.8008 59.31 19.8008H12.66C9.09 19.8008 8.25 20.1608 8.25 23.5508C8.25 25.9808 8.73 26.7008 8.91 26.9108C9.33 27.3008 10.62 27.3008 11.94 27.3008H12.66Z" fill="#A2A2A2"/>
<path d="M44.6702 68.2483H26.5802C15.8402 68.2483 13.4402 61.8583 12.5102 56.3083L8.28024 30.3583C8.07024 29.1283 8.91024 27.9883 10.1402 27.7783C11.3402 27.5683 12.5102 28.4083 12.7202 29.6383L16.9502 55.5583C17.8202 60.8683 19.6202 63.7483 26.5802 63.7483H44.6702C52.3802 63.7483 53.2502 61.0483 54.2402 55.8283L59.2802 29.5783C59.5202 28.3483 60.6902 27.5383 61.9202 27.8083C63.1502 28.0483 63.9302 29.2183 63.6902 30.4483L58.6502 56.6983C57.4802 62.7883 55.5302 68.2483 44.6702 68.2483Z" fill="#A2A2A2"/>
</svg>
