<svg width="30" height="30" viewBox="0 0 30 30" fill="none" xmlns="http://www.w3.org/2000/svg">
<g id="facebook 1" clip-path="url(#clip0_1_117230)">
<g id="Layer 2">
<g id="01.facebook">
<path id="background" d="M15 30C23.2843 30 30 23.2843 30 15C30 6.71573 23.2843 0 15 0C6.71573 0 0 6.71573 0 15C0 23.2843 6.71573 30 15 30Z" fill="white"/>
<path id="icon" d="M19.7541 13.2239L19.4524 15.8369C19.4399 15.9562 19.384 16.0666 19.2954 16.1474C19.2068 16.2282 19.0916 16.2736 18.9717 16.275H16.2444L16.2308 24.0222C16.2317 24.114 16.1965 24.2024 16.1327 24.2685C16.0689 24.3345 15.9817 24.3728 15.8899 24.375H13.1268C13.0809 24.375 13.0354 24.3658 12.9931 24.3478C12.9509 24.3298 12.9127 24.3035 12.8808 24.2704C12.849 24.2373 12.8242 24.1981 12.8078 24.1551C12.7915 24.1122 12.7841 24.0664 12.7859 24.0205V16.275H10.7405C10.6762 16.2743 10.6127 16.261 10.5536 16.2358C10.4945 16.2106 10.441 16.174 10.396 16.1281C10.3511 16.0822 10.3156 16.0279 10.2916 15.9683C10.2677 15.9087 10.2557 15.8449 10.2564 15.7807L10.2461 13.1676C10.2452 13.1031 10.257 13.0391 10.2809 12.9792C10.3047 12.9193 10.3401 12.8647 10.3851 12.8185C10.43 12.7723 10.4837 12.7353 10.5429 12.7099C10.6021 12.6844 10.6658 12.6708 10.7302 12.6699H12.7859V10.1472C12.7859 7.21875 14.5246 5.625 17.0746 5.625H19.1643C19.2289 5.62567 19.2928 5.63908 19.3522 5.66448C19.4116 5.68988 19.4654 5.72675 19.5106 5.77299C19.5557 5.81924 19.5913 5.87393 19.6152 5.93395C19.6392 5.99396 19.651 6.05812 19.6501 6.12273V8.32159C19.651 8.3862 19.6392 8.45035 19.6152 8.51037C19.5913 8.57038 19.5557 8.62508 19.5106 8.67132C19.4654 8.71757 19.4116 8.75444 19.3522 8.77984C19.2928 8.80524 19.2289 8.81865 19.1643 8.81932H17.8825C16.4967 8.81932 16.2274 9.50114 16.2274 10.4864V12.6699H19.2734C19.3427 12.6708 19.411 12.6863 19.4738 12.7154C19.5367 12.7446 19.5926 12.7867 19.638 12.839C19.6834 12.8914 19.7173 12.9527 19.7373 13.019C19.7573 13.0854 19.763 13.1552 19.7541 13.2239Z" fill="#0064D3"/>
</g>
</g>
</g>
<defs>
<clipPath id="clip0_1_117230">
<rect width="30" height="30" fill="white"/>
</clipPath>
</defs>
</svg>
