<svg width="20" height="20" viewBox="0 0 20 20" fill="none" xmlns="http://www.w3.org/2000/svg">
<g id="Left icon" clip-path="url(#clip0_24_18982)">
<path id="Vector" d="M15.0252 13.8469L18.5943 17.4152L17.4152 18.5943L13.8469 15.0252C12.5191 16.0895 10.8677 16.6684 9.16602 16.666C5.02602 16.666 1.66602 13.306 1.66602 9.16602C1.66602 5.02602 5.02602 1.66602 9.16602 1.66602C13.306 1.66602 16.666 5.02602 16.666 9.16602C16.6684 10.8677 16.0895 12.5191 15.0252 13.8469ZM13.3535 13.2285C14.4111 12.1409 15.0017 10.683 14.9993 9.16602C14.9993 5.94268 12.3885 3.33268 9.16602 3.33268C5.94268 3.33268 3.33268 5.94268 3.33268 9.16602C3.33268 12.3885 5.94268 14.9993 9.16602 14.9993C10.683 15.0017 12.1409 14.4111 13.2285 13.3535L13.3535 13.2285Z" fill="#878199"/>
</g>
<defs>
<clipPath id="clip0_24_18982">
<rect width="20" height="20" fill="white"/>
</clipPath>
</defs>
</svg>
