<svg width="12" height="16" viewBox="0 0 12 16" fill="none" xmlns="http://www.w3.org/2000/svg">
<path d="M5.99861 8.62808C7.09809 8.62808 7.9894 7.73677 7.9894 6.63728C7.9894 5.53779 7.09809 4.64648 5.99861 4.64648C4.89912 4.64648 4.00781 5.53779 4.00781 6.63728C4.00781 7.73677 4.89912 8.62808 5.99861 8.62808Z" stroke="#858585" stroke-width="0.853811" stroke-linecap="round" stroke-linejoin="round"/>
<path d="M6.0002 1.32812C4.59222 1.32813 3.24191 1.88744 2.24631 2.88303C1.25072 3.87862 0.691406 5.22894 0.691406 6.63691C0.691406 7.89244 0.958173 8.71398 1.6868 9.62311L6.0002 14.6001L10.3136 9.62311C11.0422 8.71398 11.309 7.89244 11.309 6.63691C11.309 5.22894 10.7497 3.87862 9.75408 2.88303C8.75849 1.88744 7.40817 1.32813 6.0002 1.32812V1.32812Z" stroke="#858585" stroke-width="0.853811" stroke-linecap="round" stroke-linejoin="round"/>
</svg>
