<svg width="32" height="32" viewBox="0 0 32 32" fill="none" xmlns="http://www.w3.org/2000/svg">
<rect width="32" height="32" rx="16" fill="#F3F3F3"/>
<g clip-path="url(#clip0_1_80496)">
<path d="M16 24C18.1217 24 20.1566 23.1571 21.6569 21.6569C23.1571 20.1566 24 18.1217 24 16C24 13.8783 23.1571 11.8434 21.6569 10.3431C20.1566 8.84285 18.1217 8 16 8C13.8783 8 11.8434 8.84285 10.3431 10.3431C8.84285 11.8434 8 13.8783 8 16C8 18.1217 8.84285 20.1566 10.3431 21.6569C11.8434 23.1571 13.8783 24 16 24ZM16 26C10.477 26 6 21.523 6 16C6 10.477 10.477 6 16 6C21.523 6 26 10.477 26 16C26 21.523 21.523 26 16 26ZM12.89 17.17L10.392 16.391C9.852 16.226 9.849 15.854 10.513 15.587L20.246 11.827C20.811 11.597 21.131 11.888 20.948 12.617L19.291 20.437C19.175 20.994 18.84 21.127 18.375 20.87L15.824 18.982L14.635 20.13C14.513 20.248 14.414 20.349 14.226 20.374C14.039 20.4 13.885 20.344 13.772 20.034L12.902 17.163L12.89 17.17Z" fill="#858585"/>
</g>
<defs>
<clipPath id="clip0_1_80496">
<rect width="24" height="24" fill="white" transform="translate(4 4)"/>
</clipPath>
</defs>
</svg>
