<svg width="40" height="40" viewBox="0 0 40 40" fill="none" xmlns="http://www.w3.org/2000/svg">
<rect width="40" height="40" rx="20" fill="#F3F3F3"/>
<g clip-path="url(#clip0_1_80554)">
<path d="M19.9998 16.6665C19.1157 16.6665 18.2679 17.0176 17.6428 17.6428C17.0176 18.2679 16.6665 19.1157 16.6665 19.9998C16.6665 20.8838 17.0176 21.7317 17.6428 22.3568C18.2679 22.9819 19.1157 23.3331 19.9998 23.3331C20.8838 23.3331 21.7317 22.9819 22.3568 22.3568C22.9819 21.7317 23.3331 20.8838 23.3331 19.9998C23.3331 19.1157 22.9819 18.2679 22.3568 17.6428C21.7317 17.0176 20.8838 16.6665 19.9998 16.6665ZM19.9998 14.4442C21.4732 14.4442 22.8863 15.0295 23.9282 16.0714C24.97 17.1133 25.5553 18.5264 25.5553 19.9998C25.5553 21.4732 24.97 22.8863 23.9282 23.9282C22.8863 24.97 21.4732 25.5553 19.9998 25.5553C18.5264 25.5553 17.1133 24.97 16.0714 23.9282C15.0295 22.8863 14.4442 21.4732 14.4442 19.9998C14.4442 18.5264 15.0295 17.1133 16.0714 16.0714C17.1133 15.0295 18.5264 14.4442 19.9998 14.4442ZM27.222 14.1665C27.222 14.5348 27.0757 14.8881 26.8152 15.1485C26.5547 15.409 26.2015 15.5553 25.8331 15.5553C25.4648 15.5553 25.1115 15.409 24.851 15.1485C24.5906 14.8881 24.4442 14.5348 24.4442 14.1665C24.4442 13.7981 24.5906 13.4448 24.851 13.1844C25.1115 12.9239 25.4648 12.7776 25.8331 12.7776C26.2015 12.7776 26.5547 12.9239 26.8152 13.1844C27.0757 13.4448 27.222 13.7981 27.222 14.1665ZM19.9998 11.1109C17.2509 11.1109 16.802 11.1187 15.5231 11.1753C14.652 11.2164 14.0676 11.3331 13.5253 11.5442C13.0431 11.7309 12.6953 11.9542 12.3253 12.3253C11.9776 12.6613 11.7102 13.0715 11.5431 13.5253C11.332 14.0698 11.2153 14.6531 11.1753 15.5231C11.1176 16.7498 11.1109 17.1787 11.1109 19.9998C11.1109 22.7487 11.1187 23.1976 11.1753 24.4764C11.2164 25.3464 11.3331 25.932 11.5431 26.4731C11.732 26.9565 11.9542 27.3042 12.3231 27.6731C12.6976 28.0465 13.0453 28.2698 13.5231 28.4542C14.072 28.6665 14.6565 28.7842 15.5231 28.8242C16.7498 28.882 17.1787 28.8887 19.9998 28.8887C22.7487 28.8887 23.1976 28.8809 24.4764 28.8242C25.3453 28.7831 25.9309 28.6665 26.4731 28.4565C26.9542 28.2687 27.3042 28.0453 27.6731 27.6765C28.0476 27.302 28.2709 26.9542 28.4553 26.4765C28.6665 25.9287 28.7842 25.3431 28.8242 24.4764C28.882 23.2498 28.8887 22.8209 28.8887 19.9998C28.8887 17.2509 28.8809 16.802 28.8242 15.5231C28.7831 14.6542 28.6665 14.0676 28.4553 13.5253C28.2879 13.072 28.021 12.662 27.6742 12.3253C27.3384 11.9774 26.9281 11.71 26.4742 11.5431C25.9298 11.332 25.3453 11.2153 24.4764 11.1753C23.2498 11.1176 22.8209 11.1109 19.9998 11.1109ZM19.9998 8.88867C23.0187 8.88867 23.3953 8.89978 24.5798 8.95534C25.7631 9.01089 26.5687 9.19645 27.2776 9.47201C28.0109 9.75423 28.6287 10.1364 29.2465 10.7531C29.8114 11.3086 30.2486 11.9804 30.5276 12.722C30.802 13.4298 30.9887 14.2364 31.0442 15.4198C31.0965 16.6042 31.1109 16.9809 31.1109 19.9998C31.1109 23.0187 31.0998 23.3953 31.0442 24.5798C30.9887 25.7631 30.802 26.5687 30.5276 27.2776C30.2494 28.0195 29.8121 28.6916 29.2465 29.2465C28.6909 29.8113 28.019 30.2484 27.2776 30.5276C26.5698 30.802 25.7631 30.9887 24.5798 31.0442C23.3953 31.0965 23.0187 31.1109 19.9998 31.1109C16.9809 31.1109 16.6042 31.0998 15.4198 31.0442C14.2364 30.9887 13.4309 30.802 12.722 30.5276C11.9801 30.2492 11.3081 29.8119 10.7531 29.2465C10.188 28.6911 9.75082 28.0192 9.47201 27.2776C9.19645 26.5698 9.01089 25.7631 8.95534 24.5798C8.90312 23.3953 8.88867 23.0187 8.88867 19.9998C8.88867 16.9809 8.89978 16.6042 8.95534 15.4198C9.01089 14.2353 9.19645 13.4309 9.47201 12.722C9.75005 11.98 10.1873 11.3079 10.7531 10.7531C11.3083 10.1878 11.9803 9.75059 12.722 9.47201C13.4309 9.19645 14.2353 9.01089 15.4198 8.95534C16.6042 8.90312 16.9809 8.88867 19.9998 8.88867Z" fill="#858585"/>
</g>
<defs>
<clipPath id="clip0_1_80554">
<rect width="26.6667" height="26.6667" fill="white" transform="translate(6.66602 6.66602)"/>
</clipPath>
</defs>
</svg>
