<svg width="32" height="32" viewBox="0 0 32 32" fill="none" xmlns="http://www.w3.org/2000/svg">
<rect width="32" height="32" rx="16" fill="#F3F3F3"/>
<g clip-path="url(#clip0_1_80487)">
<path d="M15.7562 6.61567C15.1746 6.619 14.5912 6.654 14.0029 6.72567C12.8779 6.864 11.7629 7.094 10.6929 7.58567C8.99122 8.36733 7.78456 9.694 7.43456 11.6223C7.28622 12.4357 7.16622 13.2607 7.09789 14.0907C6.96622 15.7023 7.04789 17.319 7.50456 18.9073C7.86456 20.159 8.52789 21.284 9.68956 22.014C10.1812 22.3223 10.8296 22.4723 11.1679 22.629C11.2629 22.674 11.2862 22.7007 11.2912 22.7073C11.2962 22.7123 11.3096 22.724 11.3079 22.824C11.2962 23.844 11.3079 25.8173 11.3079 25.8173L11.3096 26.2423H12.0712L12.1946 26.1223C12.1946 26.1223 14.1296 24.2607 14.8296 23.494C14.9562 23.3573 15.0212 23.2807 15.0346 23.2723C15.0462 23.264 15.0262 23.259 15.1562 23.2557C16.0746 23.2373 16.9912 23.2023 17.9079 23.1523C19.1162 23.0857 20.3479 22.9707 21.5329 22.4757C22.5646 22.044 23.4262 21.339 23.9479 20.2823C24.4812 19.199 24.7662 18.0507 24.8729 16.8623C25.0496 14.884 24.9879 12.9023 24.4412 10.949C24.1196 9.804 23.4729 8.83567 22.4812 8.15233C21.2946 7.33567 19.9562 7.029 18.6462 6.834C17.8812 6.72067 17.1112 6.64567 16.3379 6.62233C16.1446 6.61733 15.9512 6.614 15.7562 6.61567ZM16.3146 7.47567C17.0496 7.49567 17.7846 7.56733 18.5212 7.67733C19.7846 7.86567 20.9762 8.15233 21.9979 8.85567C22.8262 9.42567 23.3429 10.1957 23.6196 11.1773C24.1296 13.004 24.1946 14.8757 24.0229 16.7873C23.9246 17.889 23.6629 18.9273 23.1812 19.9057C22.7562 20.769 22.0929 21.3173 21.2029 21.689C20.1696 22.1207 19.0462 22.2357 17.8629 22.3007C16.9562 22.3507 16.0479 22.384 15.1396 22.4023C14.9112 22.4073 14.6879 22.4673 14.5296 22.584C14.3712 22.7007 14.2996 22.809 14.2012 22.9157C13.7012 23.4623 12.7046 24.424 12.1612 24.9507C12.1579 24.314 12.1529 23.544 12.1612 22.834C12.1646 22.6157 12.1146 22.3923 11.9896 22.2157C11.8646 22.039 11.6929 21.9323 11.5279 21.8557C11.0462 21.6323 10.4162 21.4623 10.1429 21.2907C9.18789 20.6907 8.64622 19.7907 8.32456 18.6707C7.90289 17.2057 7.82289 15.6973 7.94789 14.1623C8.01456 13.3657 8.12956 12.5673 8.27456 11.7757C8.57789 10.1073 9.53122 9.05733 11.0479 8.36067C12.0062 7.92067 13.0296 7.704 14.1079 7.57233C14.8429 7.48233 15.5779 7.454 16.3146 7.47567ZM16.4946 9.60233C16.1429 9.60233 15.8012 9.64233 15.4696 9.71567C15.2412 9.769 15.0962 9.99733 15.1479 10.2273C15.1996 10.4573 15.4296 10.6007 15.6596 10.549C15.9279 10.4873 16.2079 10.4557 16.4946 10.4557C18.5779 10.4557 20.2579 12.1357 20.2579 14.2173C20.2579 14.5057 20.2262 14.7857 20.1646 15.0557C20.1129 15.284 20.2562 15.514 20.4862 15.5657C20.7162 15.6173 20.9446 15.4723 20.9962 15.2423C21.0712 14.9123 21.1112 14.5707 21.1112 14.2173C21.1112 11.674 19.0396 9.60233 16.4946 9.60233ZM12.2379 10.4573C12.1679 10.454 12.0962 10.459 12.0212 10.4757C11.2462 10.6473 10.4762 11.209 10.4546 12.2123C10.4762 12.3523 10.4746 12.5023 10.5262 12.629C10.7796 13.249 10.9996 13.889 11.3162 14.4757C12.8579 17.3257 15.1896 19.3073 18.1612 20.5657C18.5162 20.7157 18.8829 20.7473 19.2412 20.5973C19.7346 20.3923 20.1529 20.0757 20.4312 19.6207C20.8129 18.9957 20.8179 18.5623 20.1896 18.1007C19.7779 17.7973 19.3729 17.4857 18.9562 17.189C18.3212 16.739 17.6346 16.6607 17.1612 17.4507C17.1362 17.4907 17.0996 17.524 17.0679 17.5573C16.8246 17.8157 16.5262 17.879 16.2096 17.749C15.0079 17.254 14.0796 16.4557 13.5196 15.2673C13.1896 14.569 13.2796 14.219 13.8962 13.754C13.9579 13.709 14.0162 13.6607 14.0729 13.609C14.3429 13.3623 14.4146 13.069 14.2546 12.7373C13.8929 11.9807 13.4112 11.3057 12.8012 10.724C12.6362 10.5673 12.4479 10.469 12.2379 10.4573ZM16.4879 10.8823C16.2996 10.8823 16.1129 10.8973 15.9296 10.929C15.7746 10.949 15.6429 11.0523 15.5862 11.1973C15.5296 11.344 15.5579 11.509 15.6579 11.629C15.7596 11.7473 15.9196 11.8023 16.0729 11.769C16.2062 11.7473 16.3462 11.7357 16.4879 11.7357C17.8746 11.7357 18.9879 12.849 18.9879 14.2357C18.9879 14.3773 18.9762 14.5173 18.9546 14.6507C18.9212 14.804 18.9762 14.964 19.0946 15.0657C19.2146 15.1657 19.3796 15.194 19.5262 15.1373C19.6712 15.0807 19.7746 14.949 19.7946 14.794C19.8262 14.6107 19.8412 14.424 19.8412 14.2357C19.8412 12.389 18.3346 10.8823 16.4879 10.8823ZM16.4279 12.1623C16.2746 12.1607 16.1312 12.2407 16.0529 12.374C15.9762 12.5073 15.9762 12.6707 16.0529 12.804C16.1312 12.9373 16.2746 13.0173 16.4279 13.0157C17.1396 13.0157 17.7079 13.584 17.7079 14.2957C17.7062 14.449 17.7862 14.5923 17.9196 14.6707C18.0529 14.7473 18.2162 14.7473 18.3496 14.6707C18.4829 14.5923 18.5629 14.449 18.5612 14.2957C18.5612 13.1223 17.6012 12.1623 16.4279 12.1623Z" fill="#858585"/>
</g>
<defs>
<clipPath id="clip0_1_80487">
<rect width="21.3333" height="21.3333" fill="white" transform="translate(5.33398 5.33398)"/>
</clipPath>
</defs>
</svg>
