<svg width="16" height="16" viewBox="0 0 16 16" fill="none" xmlns="http://www.w3.org/2000/svg">
<rect width="16" height="16" rx="8" fill="#EB5F01"/>
<path d="M7.91356 11.072C7.5349 11.072 7.1749 11.016 6.83356 10.904C6.49223 10.7867 6.2069 10.624 5.97756 10.416L6.26556 9.776C6.51623 9.97867 6.7749 10.128 7.04156 10.224C7.30823 10.32 7.5909 10.368 7.88956 10.368C8.27356 10.368 8.56423 10.2853 8.76156 10.12C8.96423 9.95467 9.06556 9.71733 9.06556 9.408C9.06556 9.09867 8.96423 8.86933 8.76156 8.72C8.56423 8.57067 8.27623 8.496 7.89756 8.496H7.02556V7.8H7.81756C8.15356 7.8 8.41756 7.71467 8.60956 7.544C8.8069 7.37333 8.90556 7.13867 8.90556 6.84C8.90556 6.568 8.8149 6.36 8.63356 6.216C8.45223 6.06667 8.19356 5.992 7.85756 5.992C7.2869 5.992 6.78823 6.19733 6.36156 6.608L6.07356 5.976C6.29223 5.75733 6.56423 5.58933 6.88956 5.472C7.22023 5.34933 7.56423 5.288 7.92156 5.288C8.4869 5.288 8.9269 5.41867 9.24156 5.68C9.55623 5.936 9.71356 6.29333 9.71356 6.752C9.71356 7.06133 9.63356 7.33333 9.47356 7.568C9.3189 7.80267 9.1029 7.97333 8.82556 8.08C9.16156 8.16533 9.42023 8.33067 9.60156 8.576C9.7829 8.816 9.87356 9.112 9.87356 9.464C9.87356 9.96 9.69756 10.352 9.34556 10.64C8.9989 10.928 8.52156 11.072 7.91356 11.072Z" fill="white"/>
</svg>
