<svg width="32" height="32" viewBox="0 0 32 32" fill="none" xmlns="http://www.w3.org/2000/svg">
<rect width="32" height="32" rx="16" fill="#F3F3F3"/>
<path d="M11.7807 21.7727L12.4242 22.1487C13.5095 22.7816 14.7439 23.1139 16.0002 23.1113C17.4067 23.1113 18.7815 22.6943 19.9509 21.9129C21.1204 21.1315 22.0318 20.0209 22.57 18.7215C23.1083 17.4221 23.2491 15.9923 22.9747 14.6129C22.7003 13.2335 22.0231 11.9664 21.0285 10.9719C20.034 9.9774 18.767 9.30013 17.3875 9.02574C16.0081 8.75136 14.5783 8.89218 13.2789 9.43041C11.9795 9.96863 10.8689 10.8801 10.0876 12.0495C9.30618 13.2189 8.88912 14.5938 8.88912 16.0002C8.88912 17.2767 9.22423 18.5007 9.85267 19.5771L10.2278 20.2207L9.64734 22.3549L11.7807 21.7727ZM7.1149 24.8891L8.31667 20.4731C7.5248 19.1156 7.10876 17.5718 7.11134 16.0002C7.11134 11.0909 11.0909 7.11133 16.0002 7.11133C20.9096 7.11133 24.8891 11.0909 24.8891 16.0002C24.8891 20.9095 20.9096 24.8891 16.0002 24.8891C14.4294 24.8916 12.8861 24.4759 11.5291 23.6847L7.1149 24.8891ZM12.7922 11.8296C12.9113 11.8207 13.0313 11.8207 13.1505 11.826C13.1985 11.8295 13.2465 11.8349 13.2945 11.8402C13.4358 11.8562 13.5913 11.9424 13.6438 12.0615C13.9087 12.6624 14.1665 13.2678 14.4153 13.8749C14.4705 14.01 14.4376 14.1833 14.3327 14.3522C14.2605 14.4664 14.1825 14.5768 14.0989 14.6829C13.9985 14.8118 13.7825 15.0482 13.7825 15.0482C13.7825 15.0482 13.6945 15.1531 13.7282 15.2838C13.7407 15.3336 13.7816 15.4056 13.8189 15.466L13.8713 15.5504C14.0989 15.93 14.4047 16.3149 14.778 16.6776C14.8847 16.7807 14.9887 16.8864 15.1007 16.9851C15.5167 17.3522 15.9878 17.6518 16.4962 17.874L16.5007 17.8758C16.5762 17.9087 16.6145 17.9264 16.7247 17.9735C16.7798 17.9967 16.8367 18.0171 16.8945 18.0322C16.9542 18.0474 17.017 18.0446 17.0751 18.024C17.1332 18.0034 17.1839 17.9661 17.2207 17.9167C17.8642 17.1371 17.9229 17.0864 17.9282 17.0864V17.0882C17.9729 17.0465 18.0261 17.0149 18.084 16.9954C18.142 16.9759 18.2034 16.9691 18.2642 16.9753C18.3176 16.9789 18.3718 16.9887 18.4216 17.0109C18.8936 17.2269 19.666 17.5638 19.666 17.5638L20.1833 17.7958C20.2704 17.8376 20.3496 17.9362 20.3522 18.0313C20.3558 18.0909 20.3611 18.1869 20.3407 18.3629C20.3122 18.5931 20.2429 18.8695 20.1736 19.0144C20.1261 19.1133 20.0631 19.2039 19.9869 19.2829C19.8972 19.3771 19.799 19.4628 19.6936 19.5389C19.6571 19.5663 19.62 19.593 19.5825 19.6189C19.4719 19.689 19.3583 19.7543 19.242 19.8144C19.0131 19.936 18.7604 20.0058 18.5016 20.0189C18.3371 20.0278 18.1727 20.0402 18.0073 20.0313C18.0002 20.0313 17.5024 19.954 17.5024 19.954C16.2387 19.6216 15.0699 18.9989 14.0891 18.1353C13.8882 17.9584 13.7025 17.7682 13.5122 17.5789C12.7211 16.7922 12.1238 15.9433 11.7611 15.1416C11.5755 14.748 11.4752 14.3197 11.4669 13.8847C11.4632 13.345 11.6396 12.8195 11.9682 12.3913C12.0331 12.3078 12.0945 12.2207 12.2002 12.1202C12.3131 12.0136 12.3842 11.9567 12.4616 11.9176C12.5644 11.866 12.6766 11.8358 12.7913 11.8287L12.7922 11.8296Z" fill="#858585"/>
</svg>
