<svg width="68" height="21" viewBox="0 0 68 21" fill="none" xmlns="http://www.w3.org/2000/svg">
<g clip-path="url(#clip0_1_80625)">
<path d="M7.85646 4.30484V0.714097C7.85633 0.31959 7.53645 -0.000125522 7.14194 3.69697e-08C6.93963 4.18901e-05 6.74685 0.0859244 6.61141 0.236219L0.18282 7.37916C-0.0522693 7.64099 -0.0616862 8.035 0.160679 8.30775L6.58931 16.165C6.83909 16.4703 7.2891 16.5153 7.59446 16.2655C7.75986 16.1302 7.856 15.9279 7.85646 15.7142V12.1549C13.4994 12.3385 17.0208 14.7507 18.608 19.5122C18.7054 19.8035 18.978 19.9999 19.2852 20C19.3237 20.0001 19.3622 19.997 19.4002 19.9907C19.7457 19.9343 19.9995 19.6358 19.9995 19.2857C19.9994 10.8742 14.9358 4.69483 7.85646 4.30484Z" fill="#EB5F01"/>
</g>
<path d="M30.131 15V5.835H31.197V9.891H36.696V5.835H37.762V15H36.696V10.814H31.197V15H30.131ZM41.9316 15.117C41.4983 15.117 41.1083 15.0347 40.7616 14.87C40.4236 14.6967 40.155 14.4627 39.9556 14.168C39.7563 13.8733 39.6566 13.544 39.6566 13.18C39.6566 12.7207 39.7736 12.3567 40.0076 12.088C40.2503 11.8193 40.6446 11.6287 41.1906 11.516C41.7453 11.3947 42.4993 11.334 43.4526 11.334H43.8686V10.931C43.8686 10.3937 43.756 10.008 43.5306 9.774C43.314 9.53133 42.963 9.41 42.4776 9.41C42.0963 9.41 41.728 9.46633 41.3726 9.579C41.0173 9.683 40.6533 9.85633 40.2806 10.099L39.9166 9.332C40.246 9.098 40.6446 8.91167 41.1126 8.773C41.5893 8.63433 42.0443 8.565 42.4776 8.565C43.2923 8.565 43.8946 8.76433 44.2846 9.163C44.6833 9.56167 44.8826 10.1813 44.8826 11.022V15H43.8946V13.908C43.73 14.2807 43.4743 14.5753 43.1276 14.792C42.7896 15.0087 42.391 15.117 41.9316 15.117ZM42.1006 14.324C42.6206 14.324 43.0453 14.1463 43.3746 13.791C43.704 13.427 43.8686 12.9677 43.8686 12.413V12.023H43.4656C42.7636 12.023 42.209 12.0577 41.8016 12.127C41.403 12.1877 41.1213 12.3003 40.9566 12.465C40.8006 12.621 40.7226 12.8377 40.7226 13.115C40.7226 13.4703 40.844 13.7607 41.0866 13.986C41.338 14.2113 41.676 14.324 42.1006 14.324ZM49.0305 15.117C48.4845 15.117 47.9688 15.0477 47.4835 14.909C47.0068 14.7617 46.6211 14.558 46.3265 14.298L46.6645 13.557C46.9678 13.7997 47.3231 13.986 47.7305 14.116C48.1378 14.2373 48.5625 14.298 49.0045 14.298C49.6285 14.298 50.0748 14.207 50.3435 14.025C50.6208 13.843 50.7595 13.5743 50.7595 13.219C50.7595 12.5343 50.3218 12.192 49.4465 12.192H47.9515V11.399H49.3165C49.6891 11.399 49.9838 11.3123 50.2005 11.139C50.4258 10.9657 50.5385 10.723 50.5385 10.411C50.5385 10.099 50.4171 9.852 50.1745 9.67C49.9318 9.47933 49.5418 9.384 49.0045 9.384C48.1638 9.384 47.4185 9.61367 46.7685 10.073L46.4305 9.332C47.1411 8.82067 48.0425 8.565 49.1345 8.565C49.9405 8.565 50.5428 8.721 50.9415 9.033C51.3401 9.345 51.5395 9.78267 51.5395 10.346C51.5395 10.6667 51.4441 10.9527 51.2535 11.204C51.0715 11.4467 50.8201 11.6243 50.4995 11.737C50.8895 11.8323 51.1971 12.0143 51.4225 12.283C51.6478 12.543 51.7605 12.868 51.7605 13.258C51.7605 13.8213 51.5308 14.272 51.0715 14.61C50.6121 14.948 49.9318 15.117 49.0305 15.117ZM55.4014 15.117C54.968 15.117 54.578 15.0347 54.2314 14.87C53.8934 14.6967 53.6247 14.4627 53.4254 14.168C53.226 13.8733 53.1264 13.544 53.1264 13.18C53.1264 12.7207 53.2434 12.3567 53.4774 12.088C53.72 11.8193 54.1144 11.6287 54.6604 11.516C55.215 11.3947 55.969 11.334 56.9224 11.334H57.3384V10.931C57.3384 10.3937 57.2257 10.008 57.0004 9.774C56.7837 9.53133 56.4327 9.41 55.9474 9.41C55.566 9.41 55.1977 9.46633 54.8424 9.579C54.487 9.683 54.123 9.85633 53.7504 10.099L53.3864 9.332C53.7157 9.098 54.1144 8.91167 54.5824 8.773C55.059 8.63433 55.514 8.565 55.9474 8.565C56.762 8.565 57.3644 8.76433 57.7544 9.163C58.153 9.56167 58.3524 10.1813 58.3524 11.022V15H57.3644V13.908C57.1997 14.2807 56.944 14.5753 56.5974 14.792C56.2594 15.0087 55.8607 15.117 55.4014 15.117ZM55.5704 14.324C56.0904 14.324 56.515 14.1463 56.8444 13.791C57.1737 13.427 57.3384 12.9677 57.3384 12.413V12.023H56.9354C56.2334 12.023 55.6787 12.0577 55.2714 12.127C54.8727 12.1877 54.591 12.3003 54.4264 12.465C54.2704 12.621 54.1924 12.8377 54.1924 13.115C54.1924 13.4703 54.3137 13.7607 54.5564 13.986C54.8077 14.2113 55.1457 14.324 55.5704 14.324ZM59.7182 16.69V14.155H60.3812C60.6845 13.713 60.9012 13.206 61.0312 12.634C61.1612 12.0533 61.2262 11.3557 61.2262 10.541V8.682H65.6982V14.155H66.6992V16.69H65.7892V15H60.6152V16.69H59.7182ZM61.3952 14.155H64.6972V9.514H62.1622V10.723C62.1622 11.373 62.0972 12.0013 61.9672 12.608C61.8372 13.2147 61.6465 13.7303 61.3952 14.155Z" fill="#484848"/>
<defs>
<clipPath id="clip0_1_80625">
<rect width="20" height="20" fill="white"/>
</clipPath>
</defs>
</svg>
