<svg width="40" height="40" viewBox="0 0 40 40" fill="none" xmlns="http://www.w3.org/2000/svg">
<rect width="40" height="40" rx="20" fill="#F3F3F3"/>
<path d="M31.2576 14.2236C30.9613 13.1866 30.2206 12.4458 29.1835 12.1495C27.4058 11.7051 19.8502 11.7051 19.8502 11.7051C19.8502 11.7051 12.4428 11.7051 10.5169 12.1495C9.47983 12.4458 8.73907 13.1866 8.44278 14.2236C8.14648 16.1495 8.14648 20.0014 8.14648 20.0014C8.14648 20.0014 8.14649 23.8532 8.59093 25.7792C8.88723 26.8162 9.62796 27.5569 10.665 27.8532C12.4428 28.2977 19.9983 28.2977 19.9983 28.2977C19.9983 28.2977 27.4057 28.2977 29.3316 27.8532C30.3687 27.5569 31.1095 26.8162 31.4058 25.7792C31.8502 23.8532 31.8502 20.0014 31.8502 20.0014C31.8502 20.0014 31.8502 16.1495 31.2576 14.2236ZM17.628 23.5569V16.4458L23.8502 20.0014L17.628 23.5569Z" fill="#858585"/>
</svg>
