<svg width="24" height="24" viewBox="0 0 24 24" fill="none" xmlns="http://www.w3.org/2000/svg">
<path d="M23.8995 14.6511L19.856 7.91131L23.4849 6.9033C23.8591 6.79937 24.0781 6.4118 23.9742 6.03764C23.8702 5.66348 23.4826 5.44438 23.1085 5.54835L18.5977 6.80134C18.5974 6.80143 18.597 6.80153 18.5967 6.80162L12.7031 8.43871V0.703136C12.7031 0.314817 12.3883 0 12 0C11.6117 0 11.2969 0.314817 11.2969 0.703136V8.82933L5.04175 10.5668C5.04142 10.5669 5.04109 10.567 5.04077 10.5671L0.515136 11.8242C0.140934 11.9281 -0.0780652 12.3157 0.0258095 12.6898C0.112294 13.001 0.394902 13.2049 0.70287 13.2049C0.765167 13.2049 0.828542 13.1966 0.891448 13.1791L3.71266 12.3954L0.100481 18.4166C0.0349501 18.5259 0.000262727 18.6509 0.000262727 18.7783C0.000262727 21.6576 2.34274 24 5.22198 24C8.10132 24 10.4438 21.6576 10.4438 18.7783C10.4438 18.6509 10.4091 18.5259 10.3435 18.4166L6.30001 11.6768L17.2686 8.63001L13.6564 14.6511C13.5909 14.7603 13.5562 14.8854 13.5562 15.0128C13.5562 17.8921 15.8987 20.2345 18.7779 20.2345C20.1727 20.2345 21.484 19.6914 22.4703 18.7051C23.4566 17.7187 23.9997 16.4075 23.9996 15.0127C23.9997 14.8853 23.9651 14.7603 23.8995 14.6511ZM5.22198 22.5938C3.35838 22.5938 1.80326 21.2504 1.47218 19.4814H8.97179C8.64076 21.2504 7.08564 22.5938 5.22198 22.5938ZM8.49891 18.0751H1.94515L5.22198 12.6132L8.49891 18.0751ZM18.7779 8.8477L22.0549 14.3096H15.501L18.7779 8.8477ZM18.778 18.8283C16.9144 18.8283 15.3592 17.4849 15.0281 15.7159H22.5279C22.1967 17.4849 20.6417 18.8283 18.778 18.8283Z" fill="#1F1F1F"/>
</svg>
