<svg width="16" height="15" viewBox="0 0 16 15" fill="none" xmlns="http://www.w3.org/2000/svg">
<g clip-path="url(#clip0_1_130575)">
<path d="M7.64058 1.26396C7.24795 1.26621 6.8542 1.28984 6.45708 1.33821C5.6977 1.43159 4.94508 1.58684 4.22283 1.91871C3.0742 2.44634 2.2597 3.34184 2.02345 4.64346C1.92333 5.19246 1.84233 5.74934 1.7962 6.30959C1.70733 7.39747 1.76245 8.48872 2.0707 9.56084C2.3137 10.4057 2.76145 11.1651 3.54558 11.6578C3.87745 11.866 4.31508 11.9672 4.54345 12.073C4.60758 12.1033 4.62333 12.1213 4.6267 12.1258C4.63008 12.1292 4.63908 12.1371 4.63795 12.2046C4.63008 12.8931 4.63795 14.2251 4.63795 14.2251L4.63908 14.512H5.1532L5.23645 14.431C5.23645 14.431 6.54258 13.1743 7.01508 12.6568C7.10058 12.5646 7.14445 12.5128 7.15345 12.5072C7.16133 12.5016 7.14783 12.4982 7.23558 12.496C7.85545 12.4836 8.4742 12.46 9.09295 12.4262C9.90858 12.3812 10.74 12.3036 11.5398 11.9695C12.2362 11.6781 12.8178 11.2022 13.17 10.489C13.53 9.75772 13.7223 8.98259 13.7943 8.18047C13.9136 6.84509 13.872 5.50746 13.503 4.18896C13.2858 3.41609 12.8493 2.76246 12.18 2.30121C11.379 1.74996 10.4756 1.54296 9.59133 1.41134C9.07495 1.33484 8.5552 1.28421 8.0332 1.26846C7.9027 1.26509 7.7722 1.26284 7.64058 1.26396ZM8.01745 1.84446C8.51358 1.85796 9.0097 1.90634 9.50695 1.98059C10.3597 2.10771 11.1641 2.30121 11.8537 2.77596C12.4128 3.16071 12.7616 3.68046 12.9483 4.34309C13.2926 5.57609 13.3365 6.83946 13.2206 8.12984C13.1542 8.87347 12.9776 9.57434 12.6525 10.2347C12.3656 10.8175 11.9178 11.1876 11.3171 11.4385C10.6196 11.7298 9.86133 11.8075 9.06258 11.8513C8.45058 11.8851 7.83745 11.9076 7.22433 11.92C7.0702 11.9233 6.91945 11.9638 6.81258 12.0426C6.7057 12.1213 6.65733 12.1945 6.59095 12.2665C6.25345 12.6355 5.5807 13.2846 5.21395 13.6401C5.2117 13.2103 5.20833 12.6906 5.21395 12.2113C5.2162 12.064 5.18245 11.9132 5.09808 11.794C5.0137 11.6747 4.89783 11.6027 4.78645 11.551C4.46133 11.4002 4.03608 11.2855 3.85158 11.1696C3.20695 10.7646 2.84133 10.1571 2.6242 9.40109C2.33958 8.41222 2.28558 7.39409 2.36995 6.35796C2.41495 5.82022 2.49258 5.28134 2.59045 4.74696C2.7952 3.62084 3.4387 2.91209 4.46245 2.44184C5.10933 2.14484 5.80008 1.99859 6.52795 1.90971C7.02408 1.84896 7.5202 1.82984 8.01745 1.84446ZM8.13895 3.27996C7.90158 3.27996 7.67095 3.30696 7.44708 3.35646C7.29295 3.39246 7.19508 3.54659 7.22995 3.70184C7.26483 3.85709 7.42008 3.95384 7.57533 3.91896C7.75645 3.87734 7.94545 3.85596 8.13895 3.85596C9.5452 3.85596 10.6792 4.98996 10.6792 6.39509C10.6792 6.58972 10.6578 6.77872 10.6162 6.96097C10.5813 7.11509 10.6781 7.27034 10.8333 7.30521C10.9886 7.34009 11.1427 7.24222 11.1776 7.08697C11.2282 6.86422 11.2552 6.63359 11.2552 6.39509C11.2552 4.67834 9.85683 3.27996 8.13895 3.27996ZM5.2657 3.85709C5.21845 3.85484 5.17008 3.85821 5.11945 3.86946C4.59633 3.98534 4.07658 4.36446 4.06195 5.04171C4.07658 5.13621 4.07545 5.23746 4.11033 5.32296C4.28133 5.74146 4.42983 6.17346 4.64358 6.56947C5.6842 8.49322 7.25808 9.83084 9.26395 10.6802C9.50358 10.7815 9.75108 10.8028 9.99295 10.7016C10.326 10.5632 10.6083 10.3495 10.7962 10.0423C11.0538 9.62047 11.0572 9.32796 10.6331 9.01634C10.3552 8.81159 10.0818 8.60122 9.80058 8.40097C9.37195 8.09722 8.90845 8.04434 8.58895 8.57759C8.57208 8.60459 8.54733 8.62709 8.52595 8.64959C8.3617 8.82397 8.16033 8.86672 7.94658 8.77896C7.13545 8.44484 6.50883 7.90596 6.13083 7.10384C5.90808 6.63246 5.96883 6.39621 6.38508 6.08234C6.4267 6.05196 6.46608 6.01934 6.50433 5.98447C6.68658 5.81797 6.73495 5.61996 6.62695 5.39609C6.38283 4.88534 6.0577 4.42971 5.64595 4.03709C5.53458 3.93134 5.40745 3.86496 5.2657 3.85709ZM8.13445 4.14396C8.00733 4.14396 7.88133 4.15409 7.75758 4.17546C7.65295 4.18896 7.56408 4.25871 7.52583 4.35659C7.48758 4.45559 7.5067 4.56696 7.5742 4.64796C7.64283 4.72784 7.75083 4.76496 7.85433 4.74246C7.94433 4.72784 8.03883 4.71996 8.13445 4.71996C9.07045 4.71996 9.82195 5.47147 9.82195 6.40746C9.82195 6.50309 9.81408 6.59759 9.79945 6.68759C9.77695 6.79109 9.81408 6.89909 9.89395 6.96771C9.97495 7.03521 10.0863 7.05434 10.1853 7.01609C10.2832 6.97784 10.353 6.88897 10.3665 6.78434C10.3878 6.66059 10.398 6.53459 10.398 6.40746C10.398 5.16096 9.38095 4.14396 8.13445 4.14396ZM8.09395 5.00796C7.99045 5.00684 7.8937 5.06084 7.84083 5.15084C7.78908 5.24084 7.78908 5.35109 7.84083 5.44109C7.8937 5.53109 7.99045 5.58509 8.09395 5.58396C8.57433 5.58396 8.95795 5.96759 8.95795 6.44797C8.95683 6.55147 9.01083 6.64822 9.10083 6.70109C9.19083 6.75284 9.30108 6.75284 9.39108 6.70109C9.48108 6.64822 9.53508 6.55147 9.53395 6.44797C9.53395 5.65596 8.88595 5.00796 8.09395 5.00796Z" fill="#292929"/>
</g>
<defs>
<clipPath id="clip0_1_130575">
<rect width="14.4" height="14.4" fill="white" transform="translate(0.605469 0.400391)"/>
</clipPath>
</defs>
</svg>
