<svg width="20" height="20" viewBox="0 0 20 20" fill="none" xmlns="http://www.w3.org/2000/svg">
<path d="M4.87695 5.60938H15.9266C16.1505 5.60938 16.3719 5.65631 16.5766 5.74712C16.7812 5.83793 16.9646 5.97062 17.1148 6.13663C17.265 6.30264 17.3788 6.49829 17.4488 6.71096C17.5188 6.92363 17.5435 7.14861 17.5212 7.37139L17.0404 12.1791C17.0009 12.5745 16.8158 12.9412 16.5212 13.2078C16.2265 13.4745 15.8433 13.6222 15.4459 13.6222H7.79362C7.423 13.6223 7.06379 13.494 6.77715 13.2591C6.4905 13.0242 6.29415 12.6972 6.2215 12.3337L4.87695 5.60938Z" stroke="#858585" stroke-linejoin="round"/>
<path d="M4.8765 5.60943L4.22746 3.01087C4.18406 2.83759 4.084 2.68379 3.94318 2.57389C3.80235 2.46399 3.62885 2.4043 3.45022 2.4043H2.47266M7.28035 16.8274H8.88291M13.6906 16.8274H15.2932" stroke="#858585" stroke-linecap="round" stroke-linejoin="round"/>
</svg>
