<svg width="20" height="20" viewBox="0 0 20 20" fill="none" xmlns="http://www.w3.org/2000/svg">
<path d="M5.83398 5.94263V5.94263C5.83398 4.11804 5.83398 3.20574 6.34602 2.63564C6.45714 2.51192 6.58326 2.40253 6.72145 2.31003C7.35824 1.88377 8.26136 2.01278 10.0676 2.27082L12.3492 2.59676C14.8053 2.94763 16.0334 3.12307 16.767 3.96896C17.5007 4.81486 17.5007 6.05539 17.5007 8.53646V11.4622C17.5007 13.9433 17.5007 15.1838 16.767 16.0297C16.0334 16.8756 14.8053 17.0511 12.3492 17.4019L9.90435 17.7512C8.25277 17.9871 7.42698 18.1051 6.82526 17.7536C6.61072 17.6283 6.42141 17.4641 6.26702 17.2695C5.83398 16.7235 5.83398 15.8893 5.83398 14.221V14.221" stroke="#858585"/>
<path d="M13.334 10.0007L13.7244 9.6883L13.9743 10.0007L13.7244 10.313L13.334 10.0007ZM3.33398 10.5007C3.05784 10.5007 2.83398 10.2768 2.83398 10.0007C2.83398 9.72451 3.05784 9.50065 3.33398 9.50065V10.5007ZM10.3911 5.52164L13.7244 9.6883L12.9435 10.313L9.61022 6.14633L10.3911 5.52164ZM13.7244 10.313L10.3911 14.4797L9.61022 13.855L12.9435 9.6883L13.7244 10.313ZM13.334 10.5007H3.33398V9.50065H13.334V10.5007Z" fill="#858585"/>
</svg>
