<svg width="6" height="10" viewBox="0 0 6 10" fill="none" xmlns="http://www.w3.org/2000/svg">
<path d="M0.666266 0.972808C0.536389 0.969951 0.408848 1.0076 0.301375 1.08058C0.193903 1.15356 0.111839 1.25826 0.0665936 1.38004C0.0213479 1.50181 0.0151685 1.63464 0.0489143 1.76009C0.0826601 1.88554 0.154654 1.99731 0.254888 2.07995L4.07936 5.35631L0.254888 8.63152C0.185551 8.68248 0.127484 8.74717 0.0843212 8.82162C0.0411589 8.89606 0.0138319 8.97863 0.00405103 9.06412C-0.0057298 9.14961 0.00224656 9.23619 0.0274805 9.31845C0.0527144 9.40072 0.0946621 9.47691 0.150697 9.54222C0.206732 9.60752 0.275647 9.66049 0.353126 9.69793C0.430605 9.73536 0.51498 9.75639 0.600965 9.75971C0.686951 9.76302 0.772695 9.7486 0.852828 9.71725C0.932961 9.68589 1.00576 9.63833 1.06666 9.57754L5.44533 5.83116C5.51409 5.77248 5.56931 5.69964 5.60717 5.61756C5.64503 5.53547 5.66464 5.44613 5.66464 5.35573C5.66464 5.26534 5.64503 5.17599 5.60717 5.09391C5.56931 5.01182 5.51409 4.93891 5.44533 4.88023L1.06666 1.13025C0.956046 1.032 0.814171 0.976144 0.666266 0.972663V0.972808Z" fill="#EB5F01"/>
</svg>
