<svg width="21" height="21" viewBox="0 0 21 21" fill="none" xmlns="http://www.w3.org/2000/svg">
<path d="M10.5 20.9977C10.201 20.9977 9.91278 20.8894 9.68816 20.6927C8.83981 19.9509 8.0219 19.2537 7.30029 18.6388L7.2966 18.6356C5.18094 16.8327 3.35398 15.2757 2.08282 13.742C0.661856 12.0273 0 10.4016 0 8.62557C0 6.90003 0.591681 5.30811 1.66594 4.14285C2.75301 2.96381 4.24463 2.31445 5.86651 2.31445C7.07871 2.31445 8.18885 2.69769 9.16601 3.45344C9.65916 3.83492 10.1062 4.30179 10.5 4.84637C10.894 4.30179 11.3408 3.83492 11.8341 3.45344C12.8113 2.69769 13.9214 2.31445 15.1336 2.31445C16.7553 2.31445 18.2471 2.96381 19.3342 4.14285C20.4084 5.30811 21 6.90003 21 8.62557C21 10.4016 20.3383 12.0273 18.9173 13.7418C17.6461 15.2757 15.8193 16.8325 13.704 18.6353C12.9811 19.2512 12.1619 19.9494 11.3116 20.693C11.0872 20.8894 10.7988 20.9977 10.5 20.9977ZM5.86651 3.5446C4.5923 3.5446 3.42175 4.05313 2.5702 4.97662C1.70599 5.91406 1.22999 7.20989 1.22999 8.62557C1.22999 10.1193 1.78514 11.4552 3.02986 12.957C4.23293 14.4088 6.0224 15.9337 8.09432 17.6995L8.09817 17.7027C8.82251 18.32 9.64362 19.0198 10.4982 19.7671C11.3579 19.0184 12.1803 18.3174 12.9061 17.6992C14.9779 15.9334 16.7672 14.4088 17.9703 12.957C19.2148 11.4552 19.77 10.1193 19.77 8.62557C19.77 7.20989 19.294 5.91406 18.4298 4.97662C17.5784 4.05313 16.4077 3.5446 15.1336 3.5446C14.2002 3.5446 13.3432 3.84132 12.5865 4.42644C11.9121 4.94811 11.4424 5.60756 11.167 6.06899C11.0253 6.30627 10.776 6.4479 10.5 6.4479C10.2239 6.4479 9.97463 6.30627 9.833 6.06899C9.55774 5.60756 9.08799 4.94811 8.41347 4.42644C7.65677 3.84132 6.79977 3.5446 5.86651 3.5446Z" fill="#9D9D9D"/>
</svg>
