<svg width="6" height="9" viewBox="0 0 6 9" fill="none" xmlns="http://www.w3.org/2000/svg">
<path d="M0.666266 0.000151315C0.536389 -0.00270525 0.408848 0.0349444 0.301375 0.107924C0.193903 0.180904 0.111839 0.285606 0.0665936 0.407381C0.0213479 0.529156 0.0151685 0.661983 0.0489143 0.787433C0.0826601 0.912882 0.154654 1.02465 0.254888 1.10729L4.07936 4.38365L0.254888 7.65886C0.185551 7.70982 0.127484 7.77452 0.0843212 7.84896C0.0411589 7.9234 0.0138319 8.00597 0.00405103 8.09147C-0.0057298 8.17696 0.00224656 8.26353 0.0274805 8.3458C0.0527144 8.42806 0.0946621 8.50426 0.150697 8.56956C0.206732 8.63486 0.275647 8.68783 0.353126 8.72527C0.430605 8.76271 0.51498 8.78373 0.600965 8.78705C0.686951 8.79037 0.772695 8.77595 0.852828 8.74459C0.932961 8.71324 1.00576 8.66567 1.06666 8.60488L5.44533 4.8585C5.51409 4.79982 5.56931 4.72699 5.60717 4.6449C5.64503 4.56282 5.66464 4.47347 5.66464 4.38308C5.66464 4.29268 5.64503 4.20333 5.60717 4.12125C5.56931 4.03916 5.51409 3.96626 5.44533 3.90758L1.06666 0.157593C0.956046 0.0593446 0.814171 0.00348794 0.666266 7.13768e-06V0.000151315Z" fill="white"/>
</svg>
