<svg width="16" height="16" viewBox="0 0 16 16" fill="none" xmlns="http://www.w3.org/2000/svg">
<g id="Trash_duotone_line">
<path id="Vector 8" d="M6.66602 10L6.66602 8" stroke="#EB5F01" stroke-width="1.2" stroke-linecap="round"/>
<path id="Vector 9" d="M9.33398 10L9.33398 8" stroke="#EB5F01" stroke-width="1.2" stroke-linecap="round"/>
<path id="Rectangle 41" d="M2 4.66699H14C12.8954 4.66699 12 5.56242 12 6.66699V9.33366C12 11.2193 12 12.1621 11.4142 12.7479C10.8284 13.3337 9.88562 13.3337 8 13.3337C6.11438 13.3337 5.17157 13.3337 4.58579 12.7479C4 12.1621 4 11.2193 4 9.33366V6.66699C4 5.56242 3.10457 4.66699 2 4.66699Z" fill="white" fill-opacity="0.24" stroke="#EB5F01" stroke-width="1.2" stroke-linecap="round"/>
<path id="Ellipse 45" d="M6.71275 2.24706C6.78872 2.17618 6.95611 2.11355 7.18897 2.06888C7.42183 2.02421 7.70714 2 8.00065 2C8.29416 2 8.57947 2.02421 8.81233 2.06888C9.04519 2.11355 9.21259 2.17618 9.28855 2.24706" stroke="#EB5F01" stroke-width="1.2" stroke-linecap="round"/>
</g>
</svg>
