<svg width="17" height="17" viewBox="0 0 17 17" fill="none" xmlns="http://www.w3.org/2000/svg">
<g id="_x32_7-Setting">
<g id="Group">
<path id="Vector" d="M3.18054 4.76284V0.822581C3.18054 0.368448 2.81236 0 2.35796 0C1.90356 0 1.53538 0.368448 1.53538 0.822581V4.76287C0.641235 5.09822 0 5.95474 0 6.96462C0 7.97451 0.641235 8.83099 1.53538 9.16634V16.1774C1.53538 16.6316 1.90356 17 2.35796 17C2.81236 17 3.18054 16.6316 3.18054 16.1774V9.16637C4.07478 8.83103 4.71618 7.97454 4.71618 6.96462C4.71618 5.95471 4.07478 5.09819 3.18054 4.76284Z" fill="white"/>
<path id="Vector_2" d="M9.32116 8.3456V0.822581C9.32116 0.368448 8.95298 0 8.49858 0C8.04418 0 7.676 0.368448 7.676 0.822581V8.3456C6.78186 8.68094 6.14062 9.53746 6.14062 10.5473C6.14062 11.5572 6.78186 12.4137 7.676 12.7491V16.1774C7.676 16.6316 8.04418 17 8.49858 17C8.95298 17 9.32116 16.6316 9.32116 16.1774V12.7491C10.2154 12.4138 10.8565 11.5573 10.8565 10.5473C10.8565 9.53743 10.2154 8.68091 9.32116 8.3456Z" fill="white"/>
<path id="Vector_3" d="M15.4621 4.76287V0.822581C15.4621 0.368448 15.0939 0 14.6395 0C14.1851 0 13.8169 0.368448 13.8169 0.822581V4.76284C12.9227 5.09819 12.2812 5.95471 12.2812 6.96462C12.2812 7.97454 12.9227 8.83103 13.8169 9.16637V16.1774C13.8169 16.6316 14.1851 17 14.6395 17C15.0939 17 15.4621 16.6316 15.4621 16.1774V9.16637C16.3563 8.83106 16.9974 7.97454 16.9974 6.96462C16.9974 5.95471 16.3563 5.09819 15.4621 4.76287Z" fill="white"/>
</g>
</g>
</svg>
