<svg width="47" height="47" viewBox="0 0 47 47" fill="none" xmlns="http://www.w3.org/2000/svg">
<path id="Vector" d="M38.5863 40.9897C34.3524 44.6585 28.9357 46.6745 23.3333 46.6667C10.4463 46.6667 0 36.2203 0 23.3333C0 10.4463 10.4463 0 23.3333 0C36.2203 0 46.6667 10.4463 46.6667 23.3333C46.6667 28.3173 45.1033 32.9373 42.4433 36.7267L35 23.3333H42C41.9996 19.0311 40.5132 14.8611 37.7922 11.5287C35.0712 8.19634 31.2827 5.90612 27.0674 5.0455C22.8522 4.18489 18.4691 4.80671 14.6596 6.80579C10.8501 8.80486 7.84799 12.0585 6.16122 16.0162C4.47446 19.9739 4.20655 24.3928 5.40281 28.5253C6.59908 32.6578 9.18608 36.2503 12.7262 38.695C16.2663 41.1396 20.5422 42.2865 24.8305 41.9414C29.1188 41.5963 33.1563 39.7806 36.26 36.8013L38.5863 40.9897Z" fill="#FF6F42"/>
</svg>
