<svg width="15" height="15" viewBox="0 0 15 15" fill="none" xmlns="http://www.w3.org/2000/svg">
<g id="next (3) 2">
<g id="layer1">
<path id="path9429" d="M3.10171 9.66577C3.09886 9.79564 3.13651 9.92318 3.20949 10.0307C3.28247 10.1381 3.38717 10.2202 3.50894 10.2654C3.63072 10.3107 3.76355 10.3169 3.889 10.2831C4.01444 10.2494 4.12621 10.1774 4.20885 10.0771L7.48522 6.25267L10.7604 10.0771C10.8114 10.1465 10.8761 10.2045 10.9505 10.2477C11.025 10.2909 11.1075 10.3182 11.193 10.328C11.2785 10.3378 11.3651 10.3298 11.4474 10.3046C11.5296 10.2793 11.6058 10.2374 11.6711 10.1813C11.7364 10.1253 11.7894 10.0564 11.8268 9.97891C11.8643 9.90143 11.8853 9.81705 11.8886 9.73107C11.8919 9.64508 11.8775 9.55934 11.8462 9.4792C11.8148 9.39907 11.7672 9.32627 11.7064 9.26537L7.96006 4.8867C7.90138 4.81794 7.82855 4.76272 7.74646 4.72486C7.66438 4.687 7.57503 4.66739 7.48464 4.66739C7.39424 4.66739 7.3049 4.687 7.22281 4.72486C7.14073 4.76272 7.06782 4.81794 7.00914 4.8867L3.25916 9.26537C3.16091 9.37599 3.10505 9.51786 3.10157 9.66577L3.10171 9.66577Z" fill="#EB5F01"/>
</g>
</g>
</svg>
