<svg width="20" height="20" viewBox="0 0 20 20" fill="none" xmlns="http://www.w3.org/2000/svg">
<g id="download (1) 1">
<g id="Group">
<path id="Vector" d="M8.57637 13.5788L6.66554 15.4895V2.5013C6.66554 2.28029 6.57774 2.06833 6.42146 1.91205C6.26518 1.75577 6.05322 1.66797 5.83221 1.66797C5.61119 1.66797 5.39923 1.75577 5.24295 1.91205C5.08667 2.06833 4.99887 2.28029 4.99887 2.5013V15.4895L3.08804 13.5788C2.93087 13.427 2.72037 13.343 2.50187 13.3449C2.28338 13.3468 2.07437 13.4344 1.91986 13.5889C1.76535 13.7435 1.67771 13.9525 1.67581 14.171C1.67391 14.3895 1.75791 14.6 1.90971 14.7571L5.24304 18.0905C5.39946 18.2464 5.61134 18.334 5.83225 18.334C6.05315 18.334 6.26504 18.2464 6.42146 18.0905L9.75479 14.7571C9.90714 14.6001 9.9916 14.3894 9.98993 14.1706C9.98825 13.9517 9.90059 13.7424 9.74585 13.5876C9.59112 13.4329 9.38174 13.3453 9.16292 13.3436C8.94411 13.342 8.73343 13.4264 8.57637 13.5788Z" fill="#1E1E1E"/>
<path id="Vector_2" d="M9.16536 5.0026H17.4987C17.7197 5.0026 17.9317 4.91481 18.0879 4.75853C18.2442 4.60225 18.332 4.39028 18.332 4.16927C18.332 3.94826 18.2442 3.7363 18.0879 3.58002C17.9317 3.42374 17.7197 3.33594 17.4987 3.33594H9.16536C8.94435 3.33594 8.73239 3.42374 8.57611 3.58002C8.41983 3.7363 8.33203 3.94826 8.33203 4.16927C8.33203 4.39028 8.41983 4.60225 8.57611 4.75853C8.73239 4.91481 8.94435 5.0026 9.16536 5.0026Z" fill="#1E1E1E"/>
<path id="Vector_3" d="M17.4987 6.66797H9.16536C8.94435 6.66797 8.73239 6.75577 8.57611 6.91205C8.41983 7.06833 8.33203 7.28029 8.33203 7.5013C8.33203 7.72232 8.41983 7.93428 8.57611 8.09056C8.73239 8.24684 8.94435 8.33463 9.16536 8.33463H17.4987C17.7197 8.33463 17.9317 8.24684 18.0879 8.09056C18.2442 7.93428 18.332 7.72232 18.332 7.5013C18.332 7.28029 18.2442 7.06833 18.0879 6.91205C17.9317 6.75577 17.7197 6.66797 17.4987 6.66797Z" fill="#1E1E1E"/>
<path id="Vector_4" d="M14.9987 10H9.16536C8.94435 10 8.73239 10.0878 8.57611 10.2441C8.41983 10.4004 8.33203 10.6123 8.33203 10.8333C8.33203 11.0543 8.41983 11.2663 8.57611 11.4226C8.73239 11.5789 8.94435 11.6667 9.16536 11.6667H14.9987C15.2197 11.6667 15.4317 11.5789 15.5879 11.4226C15.7442 11.2663 15.832 11.0543 15.832 10.8333C15.832 10.6123 15.7442 10.4004 15.5879 10.2441C15.4317 10.0878 15.2197 10 14.9987 10Z" fill="#1E1E1E"/>
</g>
</g>
</svg>
