<svg width="16" height="17" viewBox="0 0 16 17" fill="none" xmlns="http://www.w3.org/2000/svg">
<path d="M7.79096 0.0804439C7.30018 0.0832566 6.80799 0.112788 6.31158 0.173257C5.36236 0.289975 4.42158 0.484038 3.51877 0.898882C2.08299 1.55841 1.06486 2.67779 0.769551 4.30482C0.644395 4.99107 0.543145 5.68716 0.485489 6.38748C0.374395 7.74732 0.443301 9.11138 0.828614 10.4515C1.13236 11.5076 1.69205 12.4569 2.67221 13.0728C3.08705 13.3329 3.63408 13.4595 3.91955 13.5917C3.99971 13.6297 4.0194 13.6522 4.02361 13.6578C4.02783 13.662 4.03908 13.6719 4.03768 13.7562C4.02783 14.6168 4.03768 16.2819 4.03768 16.2819L4.03908 16.6404H4.68174L4.7858 16.5392C4.7858 16.5392 6.41846 14.9684 7.00908 14.3215C7.11596 14.2062 7.1708 14.1415 7.18205 14.1345C7.1919 14.1275 7.17502 14.1233 7.28471 14.1204C8.05955 14.105 8.83299 14.0754 9.60643 14.0333C10.626 13.977 11.6652 13.88 12.665 13.4623C13.5355 13.0981 14.2625 12.5033 14.7027 11.6117C15.1527 10.6976 15.3931 9.72873 15.4831 8.72607C15.6322 7.05685 15.5802 5.38482 15.1189 3.73669C14.8475 2.7706 14.3019 1.95357 13.4652 1.37701C12.4639 0.687944 11.3347 0.429194 10.2294 0.264663C9.58393 0.169038 8.93424 0.105757 8.28174 0.0860689C8.11861 0.0818501 7.95549 0.0790377 7.79096 0.0804439ZM8.26205 0.806069C8.88221 0.822944 9.50236 0.883413 10.1239 0.976225C11.1899 1.13513 12.1953 1.37701 13.0574 1.97044C13.7563 2.45138 14.1922 3.10107 14.4256 3.92935C14.856 5.4706 14.9108 7.04982 14.766 8.66279C14.683 9.59232 14.4622 10.4684 14.0558 11.2939C13.6972 12.0223 13.1375 12.485 12.3866 12.7986C11.5147 13.1628 10.5669 13.2598 9.56846 13.3147C8.80346 13.3568 8.03705 13.385 7.27065 13.4004C7.07799 13.4047 6.88955 13.4553 6.75596 13.5537C6.62236 13.6522 6.56189 13.7436 6.47893 13.8336C6.05705 14.2948 5.21611 15.1062 4.75768 15.5506C4.75486 15.0134 4.75065 14.3637 4.75768 13.7647C4.76049 13.5804 4.7183 13.392 4.61283 13.2429C4.50736 13.0939 4.36252 13.0039 4.2233 12.9392C3.8169 12.7508 3.28533 12.6073 3.05471 12.4625C2.24893 11.9562 1.7919 11.1969 1.52049 10.2519C1.16471 9.01576 1.09721 7.7431 1.20268 6.44794C1.25893 5.77576 1.35596 5.10216 1.4783 4.43419C1.73424 3.02654 2.53861 2.1406 3.8183 1.55279C4.62689 1.18154 5.49033 0.998725 6.40018 0.887632C7.02033 0.811694 7.64049 0.787788 8.26205 0.806069ZM8.41393 2.60044C8.11721 2.60044 7.82893 2.63419 7.54908 2.69607C7.35643 2.74107 7.23408 2.93372 7.27768 3.12779C7.32127 3.32185 7.51533 3.44279 7.70939 3.39919C7.9358 3.34716 8.17205 3.32044 8.41393 3.32044C10.1717 3.32044 11.5892 4.73794 11.5892 6.49435C11.5892 6.73763 11.5625 6.97388 11.5105 7.20169C11.4669 7.39435 11.5878 7.58841 11.7819 7.63201C11.976 7.6756 12.1686 7.55326 12.2122 7.35919C12.2755 7.08076 12.3092 6.79248 12.3092 6.49435C12.3092 4.34841 10.5613 2.60044 8.41393 2.60044ZM4.82236 3.32185C4.7633 3.31904 4.70283 3.32326 4.63955 3.33732C3.98565 3.48216 3.33596 3.95607 3.31768 4.80263C3.33596 4.92076 3.33455 5.04732 3.37814 5.15419C3.5919 5.67732 3.77752 6.21732 4.04471 6.71232C5.34549 9.11701 7.31283 10.789 9.82018 11.8508C10.1197 11.9773 10.4291 12.004 10.7314 11.8775C11.1477 11.7045 11.5006 11.4373 11.7355 11.0534C12.0575 10.5261 12.0617 10.1604 11.5316 9.77091C11.1842 9.51498 10.8425 9.25201 10.491 9.00169C9.95518 8.62201 9.3758 8.55591 8.97643 9.22248C8.95533 9.25623 8.92439 9.28435 8.89768 9.31248C8.69236 9.53044 8.44065 9.58388 8.17346 9.47419C7.15955 9.05654 6.37627 8.38294 5.90377 7.38029C5.62533 6.79107 5.70127 6.49576 6.22158 6.10341C6.27361 6.06544 6.32283 6.02466 6.37065 5.98107C6.59846 5.77294 6.65893 5.52544 6.52393 5.2456C6.21877 4.60716 5.81236 4.03763 5.29768 3.54685C5.15846 3.41466 4.99955 3.33169 4.82236 3.32185ZM8.4083 3.68044C8.24939 3.68044 8.0919 3.6931 7.93721 3.71982C7.80643 3.73669 7.69533 3.82388 7.64752 3.94623C7.59971 4.06998 7.62361 4.20919 7.70799 4.31044C7.79377 4.41029 7.92877 4.45669 8.05815 4.42857C8.17064 4.41029 8.28877 4.40044 8.4083 4.40044C9.5783 4.40044 10.5177 5.33982 10.5177 6.50982C10.5177 6.62935 10.5078 6.74748 10.4896 6.85998C10.4614 6.98935 10.5078 7.12435 10.6077 7.21013C10.7089 7.29451 10.8481 7.31841 10.9719 7.2706C11.0942 7.22279 11.1814 7.11169 11.1983 6.98091C11.225 6.82623 11.2377 6.66873 11.2377 6.50982C11.2377 4.95169 9.96643 3.68044 8.4083 3.68044ZM8.35768 4.76044C8.2283 4.75904 8.10736 4.82654 8.04127 4.93904C7.97658 5.05154 7.97658 5.18935 8.04127 5.30185C8.10736 5.41435 8.2283 5.48185 8.35768 5.48044C8.95815 5.48044 9.43768 5.95998 9.43768 6.56044C9.43627 6.68982 9.50377 6.81076 9.61627 6.87685C9.72877 6.94154 9.86658 6.94154 9.97908 6.87685C10.0916 6.81076 10.1591 6.68982 10.1577 6.56044C10.1577 5.57044 9.34768 4.76044 8.35768 4.76044Z" fill="#292929"/>
</svg>
