<svg width="18" height="18" viewBox="0 0 18 18" fill="none" xmlns="http://www.w3.org/2000/svg">
<path d="M9.39767 14.8008L9.63276 15.2421H9.63276L9.39767 14.8008ZM8.60232 14.8008L8.36724 15.2421H8.36724L8.60232 14.8008ZM13.75 8.25C13.75 9.90262 12.9318 11.2595 11.9229 12.3053C10.9139 13.3514 9.75162 14.0458 9.16259 14.3596L9.63276 15.2421C10.2677 14.9039 11.5315 14.1516 12.6427 12.9996C13.7541 11.8474 14.75 10.2548 14.75 8.25H13.75ZM9 3.5C11.6234 3.5 13.75 5.62665 13.75 8.25H14.75C14.75 5.07436 12.1756 2.5 9 2.5V3.5ZM4.25 8.25C4.25 5.62665 6.37665 3.5 9 3.5V2.5C5.82436 2.5 3.25 5.07436 3.25 8.25H4.25ZM8.83741 14.3596C8.24838 14.0458 7.08606 13.3514 6.07705 12.3053C5.06823 11.2595 4.25 9.90262 4.25 8.25H3.25C3.25 10.2548 4.24595 11.8474 5.35731 12.9996C6.46847 14.1516 7.73231 14.9039 8.36724 15.2421L8.83741 14.3596ZM9.16259 14.3596C9.05813 14.4152 8.94187 14.4152 8.83741 14.3596L8.36724 15.2421C8.76559 15.4543 9.2344 15.4543 9.63276 15.2421L9.16259 14.3596ZM10.75 8.25C10.75 9.2165 9.9665 10 9 10V11C10.5188 11 11.75 9.76878 11.75 8.25H10.75ZM9 6.5C9.9665 6.5 10.75 7.2835 10.75 8.25H11.75C11.75 6.73122 10.5188 5.5 9 5.5V6.5ZM7.25 8.25C7.25 7.2835 8.0335 6.5 9 6.5V5.5C7.48122 5.5 6.25 6.73122 6.25 8.25H7.25ZM9 10C8.0335 10 7.25 9.2165 7.25 8.25H6.25C6.25 9.76878 7.48122 11 9 11V10Z" fill="#858585"/>
</svg>
