<svg width="28" height="28" viewBox="0 0 28 28" fill="none" xmlns="http://www.w3.org/2000/svg">
<g id="visa 1" clip-path="url(#clip0_1_98116)">
<path id="Vector" d="M10.2676 18.0234L11.6898 10.0234H13.912L12.5342 18.0234H10.2676Z" fill="#3C58BF"/>
<path id="Vector_2" d="M10.2676 18.0234L12.0898 10.0234H13.912L12.5342 18.0234H10.2676Z" fill="#293688"/>
<path id="Vector_3" d="M20.5773 10.1134C20.1329 9.93559 19.4218 9.75781 18.5329 9.75781C16.3107 9.75781 14.7107 10.8689 14.7107 12.4689C14.7107 13.6689 15.8218 14.2911 16.7107 14.6911C17.5996 15.0911 17.8662 15.3578 17.8662 15.7134C17.8662 16.2467 17.1551 16.5134 16.5329 16.5134C15.644 16.5134 15.1551 16.38 14.3996 16.0689L14.0885 15.9356L13.7773 17.7578C14.3107 17.98 15.2885 18.2023 16.3107 18.2023C18.6662 18.2023 20.2218 17.0911 20.2218 15.4023C20.2218 14.4689 19.644 13.7578 18.3107 13.18C17.5107 12.78 17.0218 12.5578 17.0218 12.1578C17.0218 11.8023 17.4218 11.4467 18.3107 11.4467C19.0662 11.4467 19.5996 11.58 19.9996 11.7578L20.2218 11.8467L20.5773 10.1134Z" fill="#3C58BF"/>
<path id="Vector_4" d="M20.5773 10.1134C20.1329 9.93559 19.4218 9.75781 18.5329 9.75781C16.3107 9.75781 15.1107 10.8689 15.1107 12.4689C15.1107 13.6689 15.8218 14.2911 16.7107 14.6911C17.5996 15.0911 17.8662 15.3578 17.8662 15.7134C17.8662 16.2467 17.1551 16.5134 16.5329 16.5134C15.644 16.5134 15.1551 16.38 14.3996 16.0689L14.0885 15.9356L13.7773 17.7578C14.3107 17.98 15.2885 18.2023 16.3107 18.2023C18.6662 18.2023 20.2218 17.0911 20.2218 15.4023C20.2218 14.4689 19.644 13.7578 18.3107 13.18C17.5107 12.78 17.0218 12.5578 17.0218 12.1578C17.0218 11.8023 17.4218 11.4467 18.3107 11.4467C19.0662 11.4467 19.5996 11.58 19.9996 11.7578L20.2218 11.8467L20.5773 10.1134Z" fill="#293688"/>
<path id="Vector_5" d="M24.399 10.0234C23.8657 10.0234 23.4657 10.0679 23.2435 10.6012L19.9102 18.0234H22.3102L22.7546 16.6901H25.599L25.8657 18.0234H27.999L26.1324 10.0234H24.399ZM23.3768 15.3568C23.5102 14.9568 24.2657 13.0012 24.2657 13.0012C24.2657 13.0012 24.4435 12.5123 24.5768 12.2012L24.7102 12.9568C24.7102 12.9568 25.1546 14.9568 25.2435 15.4012H23.3768V15.3568Z" fill="#3C58BF"/>
<path id="Vector_6" d="M24.9324 10.0234C24.399 10.0234 23.999 10.0679 23.7768 10.6012L19.9102 18.0234H22.3102L22.7546 16.6901H25.599L25.8657 18.0234H27.999L26.1324 10.0234H24.9324ZM23.3768 15.3568C23.5546 14.9123 24.2657 13.0012 24.2657 13.0012C24.2657 13.0012 24.4435 12.5123 24.5768 12.2012L24.7102 12.9568C24.7102 12.9568 25.1546 14.9568 25.2435 15.4012H23.3768V15.3568Z" fill="#293688"/>
<path id="Vector_7" d="M6.17708 15.622L5.95486 14.4664C5.55486 13.1331 4.26597 11.6664 2.84375 10.9553L4.84375 18.0664H7.24375L10.8438 10.0664H8.44375L6.17708 15.622Z" fill="#3C58BF"/>
<path id="Vector_8" d="M6.17708 15.622L5.95486 14.4664C5.55486 13.1331 4.26597 11.6664 2.84375 10.9553L4.84375 18.0664H7.24375L10.8438 10.0664H8.88819L6.17708 15.622Z" fill="#293688"/>
<path id="Vector_9" d="M0 10.0234L0.4 10.1123C3.24444 10.779 5.2 12.4679 5.95555 14.4679L5.15556 10.6901C5.02222 10.1568 4.62222 10.0234 4.13333 10.0234H0Z" fill="#FFBC00"/>
<path id="Vector_10" d="M0 10.0234C2.84444 10.6901 5.2 12.4234 5.95555 14.4234L5.2 11.2679C5.06667 10.7345 4.62222 10.4234 4.13333 10.4234L0 10.0234Z" fill="#F7981D"/>
<path id="Vector_11" d="M0 10.0234C2.84444 10.6901 5.2 12.4234 5.95555 14.4234L5.42222 12.6901C5.28889 12.1568 5.11111 11.6234 4.48889 11.4012L0 10.0234Z" fill="#ED7C00"/>
<g id="Group">
<path id="Vector_12" d="M8.39978 15.3546L6.88867 13.8435L6.17756 15.5324L5.99978 14.4213C5.59978 13.0879 4.31089 11.6213 2.88867 10.9102L4.88867 18.0213H7.28867L8.39978 15.3546Z" fill="#051244"/>
<path id="Vector_13" d="M12.5323 18.022L10.6212 16.0664L10.2656 18.022H12.5323Z" fill="#051244"/>
<path id="Vector_14" d="M17.644 15.2656C17.8218 15.4434 17.9107 15.5767 17.8662 15.7545C17.8662 16.2878 17.1551 16.5545 16.5329 16.5545C15.644 16.5545 15.1551 16.4212 14.3996 16.1101L14.0885 15.9767L13.7773 17.799C14.3107 18.0212 15.2885 18.2434 16.3107 18.2434C17.7329 18.2434 18.8885 17.8434 19.5551 17.1323L17.644 15.2656Z" fill="#051244"/>
<path id="Vector_15" d="M20.2227 18.0214H22.3115L22.756 16.6881H25.6004L25.8671 18.0214H28.0004L27.2449 14.777L24.5782 12.1992L24.7115 12.9103C24.7115 12.9103 25.156 14.9103 25.2449 15.3548H23.3782C23.556 14.9103 24.2671 12.9992 24.2671 12.9992C24.2671 12.9992 24.4449 12.5103 24.5782 12.1992" fill="#051244"/>
</g>
</g>
<defs>
<clipPath id="clip0_1_98116">
<rect width="28" height="28" fill="white"/>
</clipPath>
</defs>
</svg>
