<svg width="20" height="20" viewBox="0 0 20 20" fill="none" xmlns="http://www.w3.org/2000/svg">
<g id="courier (4)" clip-path="url(#clip0_1_98061)">
<g id="Group">
<path id="Vector" fill-rule="evenodd" clip-rule="evenodd" d="M15.7892 0H12.625C11.6561 0 10.8672 0.78888 10.8672 1.75781V2.8122H9.96875C9.64511 2.8122 9.38281 3.07465 9.38281 3.39813C9.38281 3.72177 9.64511 3.98407 9.96875 3.98407H10.8799C11.0289 5.6984 12.4683 7.0311 14.207 7.0311C16.0515 7.0311 17.547 5.53559 17.547 3.6911C17.547 3.04733 17.547 2.40219 17.547 1.75781C17.547 0.78888 16.7581 0 15.7892 0Z" fill="#1E1E1E"/>
<path id="Vector_2" fill-rule="evenodd" clip-rule="evenodd" d="M12.8429 8.49981C12.4153 8.69284 12.0355 8.97253 11.7267 9.316L8.57665 12.5414H4.17969C3.21167 12.5414 2.42188 13.3314 2.42188 14.2994C2.42188 15.2672 3.21182 16.0572 4.17969 16.0572H9.10171C9.64172 16.0572 10.177 15.9215 10.5791 15.5166L11.1029 14.9892V19.4162C11.1029 19.7001 11.3045 19.9485 11.5723 20.0025L16.963 20.0022C17.2862 20.0019 17.5482 19.7396 17.5482 19.4162V11.5453C17.5482 9.13916 15.0488 7.50418 12.8429 8.49981Z" fill="#1E1E1E"/>
<path id="Vector_3" fill-rule="evenodd" clip-rule="evenodd" d="M4.03125 11.3672H8.25015C8.57379 11.3672 8.83608 11.1049 8.83608 10.7812V6.60156C8.83608 6.27792 8.57379 6.01562 8.25015 6.01562H6.72671V7.02209C6.72671 7.34573 6.46426 7.60803 6.14077 7.60803C5.81714 7.60803 5.55484 7.34573 5.55484 7.02209V6.01562H4.03125C3.70776 6.01562 3.44531 6.27792 3.44531 6.60156V10.7812C3.44531 11.1049 3.70776 11.3672 4.03125 11.3672Z" fill="#1E1E1E"/>
</g>
</g>
<defs>
<clipPath id="clip0_1_98061">
<rect width="20" height="20" fill="white"/>
</clipPath>
</defs>
</svg>
