<svg width="18" height="18" viewBox="0 0 18 18" fill="none" xmlns="http://www.w3.org/2000/svg">
<g id="fluent:payment-32-regular">
<path id="Vector" d="M1.125 5.34375C1.125 4.67242 1.39168 4.02859 1.86639 3.55389C2.34109 3.07918 2.98492 2.8125 3.65625 2.8125H14.3438C15.0151 2.8125 15.6589 3.07918 16.1336 3.55389C16.6083 4.02859 16.875 4.67242 16.875 5.34375V12.6562C16.875 13.3276 16.6083 13.9714 16.1336 14.4461C15.6589 14.9208 15.0151 15.1875 14.3438 15.1875H3.65625C2.98492 15.1875 2.34109 14.9208 1.86639 14.4461C1.39168 13.9714 1.125 13.3276 1.125 12.6562V5.34375ZM3.65625 3.9375C3.28329 3.9375 2.9256 4.08566 2.66188 4.34938C2.39816 4.6131 2.25 4.97079 2.25 5.34375V6.1875H15.75V5.34375C15.75 4.97079 15.6018 4.6131 15.3381 4.34938C15.0744 4.08566 14.7167 3.9375 14.3438 3.9375H3.65625ZM2.25 12.6562C2.25 13.0292 2.39816 13.3869 2.66188 13.6506C2.9256 13.9143 3.28329 14.0625 3.65625 14.0625H14.3438C14.7167 14.0625 15.0744 13.9143 15.3381 13.6506C15.6018 13.3869 15.75 13.0292 15.75 12.6562V7.3125H2.25V12.6562ZM11.8125 10.6875H13.5C13.6492 10.6875 13.7923 10.7468 13.8977 10.8523C14.0032 10.9577 14.0625 11.1008 14.0625 11.25C14.0625 11.3992 14.0032 11.5423 13.8977 11.6477C13.7923 11.7532 13.6492 11.8125 13.5 11.8125H11.8125C11.6633 11.8125 11.5202 11.7532 11.4148 11.6477C11.3093 11.5423 11.25 11.3992 11.25 11.25C11.25 11.1008 11.3093 10.9577 11.4148 10.8523C11.5202 10.7468 11.6633 10.6875 11.8125 10.6875Z" fill="#777777"/>
</g>
</svg>
