<svg width="22" height="21" viewBox="0 0 22 21" fill="none" xmlns="http://www.w3.org/2000/svg">
<path d="M21.2703 8.21184L21.2705 8.21238C21.3469 8.44801 21.276 8.70494 21.0895 8.86817L21.0891 8.86852L16.5075 12.8858L16.2837 13.082L16.3496 13.3724L17.7005 19.3232C17.7553 19.5652 17.6615 19.8147 17.4607 19.9603L17.4607 19.9603C17.2603 20.1055 16.9952 20.1166 16.7851 19.9902L16.7839 19.9895L11.5575 16.8647L11.3009 16.7113L11.0444 16.8646L5.81604 19.9894L5.81581 19.9896C5.7165 20.049 5.60828 20.0779 5.50039 20.0779C5.37476 20.0779 5.24901 20.0389 5.13951 19.9598C4.93976 19.8154 4.84545 19.5665 4.90031 19.3232C4.90032 19.3231 4.90034 19.3231 4.90036 19.323L6.25123 13.3724L6.31714 13.0821L6.09332 12.8858L1.51179 8.86775L1.51084 8.86693C1.3256 8.7053 1.2546 8.4483 1.33123 8.21265C1.40779 7.97721 1.61518 7.81133 1.8614 7.78847C1.86148 7.78846 1.86156 7.78846 1.86165 7.78845L7.92297 7.23816L8.22025 7.21117L8.33754 6.93668L10.734 1.32841C10.7341 1.32827 10.7342 1.32813 10.7342 1.32799C10.8326 1.09906 11.0548 0.953125 11.3009 0.953125C11.5472 0.953125 11.7694 1.09922 11.8677 1.32727C11.8678 1.32746 11.8678 1.32765 11.8679 1.32784L14.2642 6.93665L14.3815 7.21117L14.6788 7.23816L20.74 7.78852L20.7403 7.78855C20.9867 7.81075 21.1944 7.97708 21.2703 8.21184Z" stroke="#FFC107"/>
</svg>
