<svg width="30" height="30" viewBox="0 0 30 30" fill="none" xmlns="http://www.w3.org/2000/svg">
<path d="M29.8744 18.3138L24.8201 9.88914L29.3561 8.62912C29.8238 8.49922 30.0976 8.01475 29.9677 7.54705C29.8378 7.07935 29.3532 6.80548 28.8856 6.93544L23.2471 8.50168C23.2467 8.50179 23.2463 8.50191 23.2459 8.50203L15.8789 10.5484V0.87892C15.8789 0.393522 15.4854 0 15 0C14.5146 0 14.1211 0.393522 14.1211 0.87892V11.0367L6.30219 13.2085C6.30178 13.2086 6.30137 13.2088 6.30096 13.2088L0.643921 14.7802C0.176168 14.9101 -0.0975815 15.3946 0.0322619 15.8623C0.140367 16.2513 0.493628 16.5062 0.878588 16.5062C0.956459 16.5062 1.03568 16.4957 1.11431 16.4739L4.64083 15.4943L0.125602 23.0207C0.0436877 23.1573 0.000328409 23.3136 0.000328409 23.4729C0.000328409 27.072 2.92843 30 6.52748 30C10.1267 30 13.0547 27.072 13.0547 23.4729C13.0547 23.3136 13.0114 23.1573 12.9294 23.0207L7.87502 14.596L21.5857 10.7875L17.0705 18.3138C16.9886 18.4504 16.9452 18.6067 16.9452 18.766C16.9452 22.3651 19.8733 25.2931 23.4724 25.2931C25.2159 25.2931 26.855 24.6142 28.0879 23.3813C29.3207 22.1484 29.9997 20.5094 29.9996 18.7659C29.9997 18.6067 29.9564 18.4503 29.8744 18.3138ZM6.52748 28.2422C4.19797 28.2422 2.25407 26.563 1.84023 24.3518H11.2147C10.8009 26.563 8.85705 28.2422 6.52748 28.2422ZM10.6236 22.5939H2.43144L6.52748 15.7665L10.6236 22.5939ZM23.4724 11.0596L27.5686 17.887H19.3763L23.4724 11.0596ZM23.4725 23.5354C21.143 23.5354 19.1991 21.8562 18.7851 19.6449H28.1598C27.7459 21.8562 25.8021 23.5354 23.4725 23.5354Z" fill="#1F1F1F"/>
</svg>
