<svg width="15" height="15" viewBox="0 0 15 15" fill="none" xmlns="http://www.w3.org/2000/svg">
<path d="M14.4142 13.261L11.7717 10.6185C12.5726 9.57009 13.0118 8.29843 13.012 6.95656C13.012 5.33946 12.3822 3.81904 11.2385 2.6756C10.0951 1.53215 8.57487 0.902344 6.95758 0.902344C5.34048 0.902344 3.82007 1.53215 2.67662 2.6756C0.316126 5.03629 0.316126 8.87722 2.67662 11.2375C3.82007 12.3812 5.34048 13.011 6.95758 13.011C8.29946 13.0108 9.57111 12.5716 10.6195 11.7707L13.262 14.4132C13.421 14.5724 13.6297 14.6519 13.8381 14.6519C14.0466 14.6519 14.2553 14.5724 14.4142 14.4132C14.7325 14.0951 14.7325 13.5791 14.4142 13.261ZM3.82882 10.0853C2.1037 8.3602 2.1039 5.55311 3.82882 3.8278C4.66452 2.99229 5.77574 2.53197 6.95758 2.53197C8.13962 2.53197 9.25064 2.99229 10.0863 3.8278C10.922 4.6635 11.3824 5.77472 11.3824 6.95656C11.3824 8.13859 10.922 9.24961 10.0863 10.0853C9.25064 10.921 8.13962 11.3813 6.95758 11.3813C5.77574 11.3813 4.66452 10.921 3.82882 10.0853Z" fill="#1E1E1E"/>
</svg>
