<svg width="22" height="22" viewBox="0 0 22 22" fill="none" xmlns="http://www.w3.org/2000/svg">
<path d="M17.1875 8.9375H8.25C8.06766 8.9375 7.8928 9.00993 7.76386 9.13886C7.63493 9.2678 7.5625 9.44266 7.5625 9.625C7.5625 9.80734 7.63493 9.9822 7.76386 10.1111C7.8928 10.2401 8.06766 10.3125 8.25 10.3125H17.1875C17.3698 10.3125 17.5447 10.2401 17.6736 10.1111C17.8026 9.9822 17.875 9.80734 17.875 9.625C17.875 9.44266 17.8026 9.2678 17.6736 9.13886C17.5447 9.00993 17.3698 8.9375 17.1875 8.9375Z" fill="#1F1F1F"/>
<path d="M20.5425 6.25625C20.3492 6.02002 20.1058 5.82965 19.83 5.69887C19.5542 5.56809 19.2528 5.50017 18.9475 5.5H5.37625L5.01875 3.71937C4.92505 3.25224 4.67252 2.83196 4.30406 2.52992C3.9356 2.22788 3.47393 2.06272 2.9975 2.0625H1.375C1.19266 2.0625 1.0178 2.13493 0.888864 2.26386C0.759933 2.3928 0.6875 2.56766 0.6875 2.75C0.6875 2.93234 0.759933 3.1072 0.888864 3.23614C1.0178 3.36507 1.19266 3.4375 1.375 3.4375H2.9975C3.15834 3.43426 3.31522 3.48752 3.44084 3.58801C3.56646 3.68851 3.65286 3.82987 3.685 3.9875L5.98125 15.5306C6.07495 15.9978 6.32748 16.418 6.69594 16.7201C7.0644 17.0221 7.52607 17.1873 8.0025 17.1875H18.5625C18.7448 17.1875 18.9197 17.1151 19.0486 16.9861C19.1776 16.8572 19.25 16.6823 19.25 16.5C19.25 16.3177 19.1776 16.1428 19.0486 16.0139C18.9197 15.8849 18.7448 15.8125 18.5625 15.8125H8.0025C7.84166 15.8157 7.68478 15.7625 7.55916 15.662C7.43354 15.5615 7.34714 15.4201 7.315 15.2625L7.02625 13.75H18.1225C18.5989 13.7498 19.0606 13.5846 19.4291 13.2826C19.7975 12.9805 20.05 12.5603 20.1437 12.0931L20.9687 7.96813C21.0287 7.66902 21.0216 7.36033 20.9479 7.06431C20.8742 6.76829 20.7357 6.49231 20.5425 6.25625ZM18.7962 11.825C18.7641 11.9826 18.6777 12.124 18.5521 12.2245C18.4265 12.325 18.2696 12.3782 18.1087 12.375H6.75125L5.65125 6.875H18.9475C19.049 6.87567 19.1492 6.89883 19.2407 6.94281C19.3322 6.9868 19.4129 7.05051 19.4769 7.12937C19.5417 7.20787 19.5882 7.29977 19.6132 7.39846C19.6382 7.49714 19.6409 7.60013 19.6212 7.7L18.7962 11.825Z" fill="#1F1F1F"/>
<path d="M17.1875 19.25C17.5672 19.25 17.875 18.9422 17.875 18.5625C17.875 18.1828 17.5672 17.875 17.1875 17.875C16.8078 17.875 16.5 18.1828 16.5 18.5625C16.5 18.9422 16.8078 19.25 17.1875 19.25Z" fill="#1F1F1F"/>
<path d="M8.9375 19.25C9.3172 19.25 9.625 18.9422 9.625 18.5625C9.625 18.1828 9.3172 17.875 8.9375 17.875C8.5578 17.875 8.25 18.1828 8.25 18.5625C8.25 18.9422 8.5578 19.25 8.9375 19.25Z" fill="#1F1F1F"/>
</svg>
