<svg width="16" height="16" viewBox="0 0 16 16" fill="none" xmlns="http://www.w3.org/2000/svg">
<path d="M8 14C9.5913 14 11.1174 13.3679 12.2426 12.2426C13.3679 11.1174 14 9.5913 14 8C14 6.4087 13.3679 4.88258 12.2426 3.75736C11.1174 2.63214 9.5913 2 8 2C6.4087 2 4.88258 2.63214 3.75736 3.75736C2.63214 4.88258 2 6.4087 2 8C2 9.5913 2.63214 11.1174 3.75736 12.2426C4.88258 13.3679 6.4087 14 8 14ZM8 15.5C3.85775 15.5 0.5 12.1422 0.5 8C0.5 3.85775 3.85775 0.5 8 0.5C12.1422 0.5 15.5 3.85775 15.5 8C15.5 12.1422 12.1422 15.5 8 15.5ZM5.6675 8.8775L3.794 8.29325C3.389 8.1695 3.38675 7.8905 3.88475 7.69025L11.1845 4.87025C11.6082 4.69775 11.8482 4.916 11.711 5.46275L10.4682 11.3277C10.3812 11.7455 10.13 11.8453 9.78125 11.6525L7.868 10.2365L6.97625 11.0975C6.88475 11.186 6.8105 11.2617 6.6695 11.2805C6.52925 11.3 6.41375 11.258 6.329 11.0255L5.6765 8.87225L5.6675 8.8775Z" fill="#292929"/>
</svg>
