<svg width="18" height="18" viewBox="0 0 18 18" fill="none" xmlns="http://www.w3.org/2000/svg">
<path d="M8.7934 1.07849C8.30262 1.0813 7.81043 1.11083 7.31402 1.1713C6.36481 1.28802 5.42402 1.48208 4.52121 1.89693C3.08543 2.55646 2.06731 3.67583 1.77199 5.30287C1.64684 5.98912 1.54559 6.68521 1.48793 7.38552C1.37684 8.74537 1.44574 10.1094 1.83106 11.4496C2.13481 12.5057 2.69449 13.4549 3.67465 14.0708C4.08949 14.331 4.63652 14.4576 4.92199 14.5897C5.00215 14.6277 5.02184 14.6502 5.02606 14.6558C5.03027 14.6601 5.04152 14.6699 5.04012 14.7543C5.03027 15.6149 5.04012 17.2799 5.04012 17.2799L5.04152 17.6385H5.68418L5.78824 17.5372C5.78824 17.5372 7.4209 15.9665 8.01152 15.3196C8.1184 15.2043 8.17324 15.1396 8.18449 15.1326C8.19434 15.1255 8.17746 15.1213 8.28715 15.1185C9.06199 15.103 9.83543 15.0735 10.6089 15.0313C11.6284 14.9751 12.6676 14.878 13.6675 14.4604C14.5379 14.0961 15.265 13.5013 15.7051 12.6097C16.1551 11.6957 16.3956 10.7268 16.4856 9.72412C16.6346 8.0549 16.5826 6.38287 16.1214 4.73474C15.85 3.76865 15.3043 2.95162 14.4676 2.37505C13.4664 1.68599 12.3371 1.42724 11.2318 1.26271C10.5864 1.16708 9.93668 1.1038 9.28418 1.08412C9.12106 1.0799 8.95793 1.07708 8.7934 1.07849ZM9.26449 1.80412C9.88465 1.82099 10.5048 1.88146 11.1264 1.97427C12.1923 2.13318 13.1978 2.37505 14.0598 2.96849C14.7587 3.44943 15.1946 4.09912 15.4281 4.9274C15.8584 6.46865 15.9132 8.04787 15.7684 9.66084C15.6854 10.5904 15.4646 11.4665 15.0582 12.2919C14.6996 13.0204 14.14 13.483 13.389 13.7966C12.5171 14.1608 11.5693 14.2579 10.5709 14.3127C9.8059 14.3549 9.03949 14.383 8.27309 14.3985C8.08043 14.4027 7.89199 14.4533 7.7584 14.5518C7.62481 14.6502 7.56434 14.7416 7.48137 14.8316C7.05949 15.2929 6.21856 16.1043 5.76012 16.5486C5.75731 16.0115 5.75309 15.3618 5.76012 14.7627C5.76293 14.5785 5.72074 14.3901 5.61527 14.241C5.50981 14.0919 5.36496 14.0019 5.22574 13.9372C4.81934 13.7488 4.28777 13.6054 4.05715 13.4605C3.25137 12.9543 2.79434 12.1949 2.52293 11.2499C2.16715 10.0138 2.09965 8.74115 2.20512 7.44599C2.26137 6.7738 2.3584 6.10021 2.48074 5.43224C2.73668 4.02458 3.54106 3.13865 4.82074 2.55083C5.62934 2.17958 6.49277 1.99677 7.40262 1.88568C8.02277 1.80974 8.64293 1.78583 9.26449 1.80412ZM9.41637 3.59849C9.11965 3.59849 8.83137 3.63224 8.55152 3.69412C8.35887 3.73912 8.23652 3.93177 8.28012 4.12583C8.32371 4.3199 8.51777 4.44083 8.71184 4.39724C8.93824 4.34521 9.17449 4.31849 9.41637 4.31849C11.1742 4.31849 12.5917 5.73599 12.5917 7.4924C12.5917 7.73568 12.565 7.97193 12.5129 8.19974C12.4693 8.3924 12.5903 8.58646 12.7843 8.63005C12.9784 8.67365 13.1711 8.5513 13.2146 8.35724C13.2779 8.0788 13.3117 7.79052 13.3117 7.4924C13.3117 5.34646 11.5637 3.59849 9.41637 3.59849ZM5.82481 4.3199C5.76574 4.31708 5.70527 4.3213 5.64199 4.33537C4.98809 4.48021 4.3384 4.95412 4.32012 5.80068C4.3384 5.9188 4.33699 6.04537 4.38059 6.15224C4.59434 6.67537 4.77996 7.21537 5.04715 7.71037C6.34793 10.1151 8.31527 11.7871 10.8226 12.8488C11.1221 12.9754 11.4315 13.0021 11.7339 12.8755C12.1501 12.7026 12.5031 12.4354 12.7379 12.0515C13.06 11.5241 13.0642 11.1585 12.534 10.769C12.1867 10.513 11.845 10.2501 11.4934 9.99974C10.9576 9.62005 10.3782 9.55396 9.97887 10.2205C9.95777 10.2543 9.92684 10.2824 9.90012 10.3105C9.69481 10.5285 9.44309 10.5819 9.1759 10.4722C8.16199 10.0546 7.37871 9.38099 6.90621 8.37833C6.62777 7.78912 6.70371 7.4938 7.22402 7.10146C7.27606 7.06349 7.32527 7.02271 7.37309 6.97912C7.6009 6.77099 7.66137 6.52349 7.52637 6.24365C7.22121 5.60521 6.81481 5.03568 6.30012 4.5449C6.1609 4.41271 6.00199 4.32974 5.82481 4.3199ZM9.41074 4.67849C9.25184 4.67849 9.09434 4.69115 8.93965 4.71787C8.80887 4.73474 8.69777 4.82193 8.64996 4.94427C8.60215 5.06802 8.62606 5.20724 8.71043 5.30849C8.79621 5.40833 8.93121 5.45474 9.06059 5.42662C9.17309 5.40833 9.29121 5.39849 9.41074 5.39849C10.5807 5.39849 11.5201 6.33787 11.5201 7.50787C11.5201 7.6274 11.5103 7.74552 11.492 7.85802C11.4639 7.9874 11.5103 8.1224 11.6101 8.20818C11.7114 8.29255 11.8506 8.31646 11.9743 8.26865C12.0967 8.22084 12.1839 8.10974 12.2007 7.97896C12.2275 7.82427 12.2401 7.66677 12.2401 7.50787C12.2401 5.94974 10.9689 4.67849 9.41074 4.67849ZM9.36012 5.75849C9.23074 5.75708 9.10981 5.82458 9.04371 5.93708C8.97902 6.04958 8.97902 6.1874 9.04371 6.2999C9.10981 6.4124 9.23074 6.4799 9.36012 6.47849C9.96059 6.47849 10.4401 6.95802 10.4401 7.55849C10.4387 7.68787 10.5062 7.8088 10.6187 7.8749C10.7312 7.93959 10.869 7.93959 10.9815 7.8749C11.094 7.8088 11.1615 7.68787 11.1601 7.55849C11.1601 6.56849 10.3501 5.75849 9.36012 5.75849Z" fill="#292929"/>
</svg>
