<svg width="15" height="15" viewBox="0 0 15 15" fill="none" xmlns="http://www.w3.org/2000/svg">
<g clip-path="url(#clip0_1_130577)">
<path d="M7.40625 12.3996C8.67929 12.3996 9.90019 11.8939 10.8004 10.9937C11.7005 10.0935 12.2062 8.87265 12.2062 7.59961C12.2062 6.32657 11.7005 5.10567 10.8004 4.2055C9.90019 3.30532 8.67929 2.79961 7.40625 2.79961C6.13321 2.79961 4.91231 3.30532 4.01214 4.2055C3.11196 5.10567 2.60625 6.32657 2.60625 7.59961C2.60625 8.87265 3.11196 10.0935 4.01214 10.9937C4.91231 11.8939 6.13321 12.3996 7.40625 12.3996ZM7.40625 13.5996C4.09245 13.5996 1.40625 10.9134 1.40625 7.59961C1.40625 4.28581 4.09245 1.59961 7.40625 1.59961C10.72 1.59961 13.4062 4.28581 13.4062 7.59961C13.4062 10.9134 10.72 13.5996 7.40625 13.5996ZM5.54025 8.30161L4.04145 7.83421C3.71745 7.73521 3.71565 7.51201 4.11405 7.35181L9.95385 5.09581C10.2928 4.95781 10.4848 5.13241 10.375 5.56981L9.38085 10.2618C9.31125 10.596 9.11025 10.6758 8.83125 10.5216L7.30065 9.38881L6.58725 10.0776C6.51405 10.1484 6.45465 10.209 6.34185 10.224C6.22965 10.2396 6.13725 10.206 6.06945 10.02L5.54745 8.29741L5.54025 8.30161Z" fill="#292929"/>
</g>
<defs>
<clipPath id="clip0_1_130577">
<rect width="14.4" height="14.4" fill="white" transform="translate(0.207031 0.400391)"/>
</clipPath>
</defs>
</svg>
