<svg width="18" height="18" viewBox="0 0 18 18" fill="none" xmlns="http://www.w3.org/2000/svg">
<g clip-path="url(#clip0_116_27359)">
<path d="M9 15C10.5913 15 12.1174 14.3679 13.2426 13.2426C14.3679 12.1174 15 10.5913 15 9C15 7.4087 14.3679 5.88258 13.2426 4.75736C12.1174 3.63214 10.5913 3 9 3C7.4087 3 5.88258 3.63214 4.75736 4.75736C3.63214 5.88258 3 7.4087 3 9C3 10.5913 3.63214 12.1174 4.75736 13.2426C5.88258 14.3679 7.4087 15 9 15ZM9 16.5C4.85775 16.5 1.5 13.1422 1.5 9C1.5 4.85775 4.85775 1.5 9 1.5C13.1422 1.5 16.5 4.85775 16.5 9C16.5 13.1422 13.1422 16.5 9 16.5ZM6.6675 9.8775L4.794 9.29325C4.389 9.1695 4.38675 8.8905 4.88475 8.69025L12.1845 5.87025C12.6082 5.69775 12.8482 5.916 12.711 6.46275L11.4682 12.3277C11.3812 12.7455 11.13 12.8453 10.7812 12.6525L8.868 11.2365L7.97625 12.0975C7.88475 12.186 7.8105 12.2617 7.6695 12.2805C7.52925 12.3 7.41375 12.258 7.329 12.0255L6.6765 9.87225L6.6675 9.8775Z" fill="#292929"/>
</g>
<defs>
<clipPath id="clip0_116_27359">
<rect width="18" height="18" fill="white"/>
</clipPath>
</defs>
</svg>
