<svg width="16" height="15" viewBox="0 0 16 15" fill="none" xmlns="http://www.w3.org/2000/svg">
<g clip-path="url(#clip0_1_130580)">
<path d="M5.15571 11.496L5.59011 11.7498C6.32268 12.1771 7.15587 12.4013 8.00391 12.3996C8.95326 12.3996 9.88129 12.1181 10.6707 11.5907C11.46 11.0632 12.0752 10.3136 12.4385 9.43649C12.8018 8.5594 12.8969 7.59428 12.7117 6.66318C12.5265 5.73207 12.0693 4.87679 11.398 4.2055C10.7267 3.5342 9.87146 3.07705 8.94035 2.89184C8.00924 2.70663 7.04412 2.80169 6.16703 3.16499C5.28995 3.52829 4.54029 4.14352 4.01286 4.93287C3.48543 5.72223 3.20391 6.65026 3.20391 7.59961C3.20391 8.46121 3.43011 9.28741 3.85431 10.014L4.10751 10.4484L3.71571 11.889L5.15571 11.496ZM2.00631 13.5996L2.81751 10.6188C2.283 9.70252 2.00217 8.6604 2.00391 7.59961C2.00391 4.28581 4.69011 1.59961 8.00391 1.59961C11.3177 1.59961 14.0039 4.28581 14.0039 7.59961C14.0039 10.9134 11.3177 13.5996 8.00391 13.5996C6.94358 13.6013 5.90191 13.3207 4.98591 12.7866L2.00631 13.5996ZM5.83851 4.78441C5.91891 4.77841 5.99991 4.77841 6.08031 4.78201C6.11271 4.78441 6.14511 4.78801 6.17751 4.79161C6.27291 4.80241 6.37791 4.86061 6.41331 4.94101C6.59211 5.34661 6.76611 5.75521 6.93411 6.16501C6.97131 6.25621 6.94911 6.37321 6.87831 6.48721C6.82962 6.5643 6.77695 6.6388 6.72051 6.71041C6.65271 6.79741 6.50691 6.95701 6.50691 6.95701C6.50691 6.95701 6.44751 7.02781 6.47031 7.11601C6.47871 7.14961 6.50631 7.19821 6.53151 7.23901L6.56691 7.29601C6.72051 7.55221 6.92691 7.81201 7.17891 8.05681C7.25091 8.12641 7.32111 8.19781 7.39671 8.26441C7.67751 8.51221 7.99551 8.71441 8.33871 8.86441L8.34171 8.86561C8.39271 8.88781 8.41851 8.89981 8.49291 8.93161C8.53011 8.94721 8.56851 8.96101 8.60751 8.97121C8.64782 8.98147 8.69026 8.97954 8.72946 8.96565C8.76866 8.95177 8.80286 8.92655 8.82771 8.89321C9.26211 8.36701 9.30171 8.33281 9.30531 8.33281V8.33401C9.33549 8.30586 9.37135 8.2845 9.41046 8.27135C9.44958 8.25821 9.49106 8.25359 9.53211 8.25781C9.56811 8.26021 9.60471 8.26681 9.63831 8.28181C9.95691 8.42761 10.4783 8.65501 10.4783 8.65501L10.8275 8.81161C10.8863 8.83981 10.9397 8.90641 10.9415 8.97061C10.9439 9.01081 10.9475 9.07561 10.9337 9.19441C10.9145 9.34981 10.8677 9.53641 10.8209 9.63421C10.7889 9.70095 10.7463 9.76213 10.6949 9.81541C10.6344 9.87898 10.5681 9.93682 10.4969 9.98821C10.4723 10.0067 10.4473 10.0247 10.4219 10.0422C10.3473 10.0896 10.2706 10.1336 10.1921 10.1742C10.0376 10.2563 9.86701 10.3034 9.69231 10.3122C9.58131 10.3182 9.47031 10.3266 9.35871 10.3206C9.35391 10.3206 9.01791 10.2684 9.01791 10.2684C8.16487 10.044 7.37595 9.62369 6.71391 9.04081C6.57831 8.92141 6.45291 8.79301 6.32451 8.66521C5.79051 8.13421 5.38731 7.56121 5.14251 7.02001C5.01722 6.75438 4.94953 6.46525 4.94391 6.17161C4.94144 5.80732 5.06052 5.45261 5.28231 5.16361C5.32611 5.10721 5.36751 5.04841 5.43891 4.98061C5.51511 4.90861 5.56311 4.87021 5.61531 4.84381C5.68472 4.80903 5.76043 4.78862 5.83791 4.78381L5.83851 4.78441Z" fill="#292929"/>
</g>
<defs>
<clipPath id="clip0_1_130580">
<rect width="14.4" height="14.4" fill="white" transform="translate(0.804688 0.400391)"/>
</clipPath>
</defs>
</svg>
