<svg width="22" height="16" viewBox="0 0 22 16" fill="none" xmlns="http://www.w3.org/2000/svg">
<path d="M21.132 2.80182C20.8654 1.86849 20.1987 1.20182 19.2654 0.935156C17.6654 0.535156 10.8654 0.535156 10.8654 0.535156C10.8654 0.535156 4.19871 0.535156 2.46537 0.935156C1.53204 1.20182 0.86536 1.86849 0.598694 2.80182C0.332027 4.53516 0.332031 8.00182 0.332031 8.00182C0.332031 8.00182 0.332035 11.4685 0.732035 13.2018C0.998702 14.1352 1.66536 14.8018 2.59869 15.0685C4.19869 15.4685 10.9987 15.4685 10.9987 15.4685C10.9987 15.4685 17.6653 15.4685 19.3987 15.0685C20.332 14.8018 20.9987 14.1352 21.2654 13.2018C21.6654 11.4685 21.6654 8.00182 21.6654 8.00182C21.6654 8.00182 21.6654 4.53516 21.132 2.80182ZM8.86536 11.2018V4.80182L14.4654 8.00182L8.86536 11.2018Z" fill="#858585"/>
</svg>
