<svg width="32" height="32" viewBox="0 0 32 32" fill="none" xmlns="http://www.w3.org/2000/svg">
<g filter="url(#filter0_d_195_83715)">
<path d="M15.9993 2.66602C23.3633 2.66602 29.3327 8.63535 29.3327 15.9993C29.3327 23.3633 23.3633 29.3327 15.9993 29.3327C8.63535 29.3327 2.66602 23.3633 2.66602 15.9993C2.66602 8.63535 8.63535 2.66602 15.9993 2.66602ZM15.9993 5.33268C13.1704 5.33268 10.4573 6.45649 8.45688 8.45688C6.45649 10.4573 5.33268 13.1704 5.33268 15.9993C5.33268 18.8283 6.45649 21.5414 8.45688 23.5418C10.4573 25.5422 13.1704 26.666 15.9993 26.666C18.8283 26.666 21.5414 25.5422 23.5418 23.5418C25.5422 21.5414 26.666 18.8283 26.666 15.9993C26.666 13.1704 25.5422 10.4573 23.5418 8.45688C21.5414 6.45649 18.8283 5.33268 15.9993 5.33268ZM13.1713 11.2847L15.9993 14.114L18.8274 11.2847C18.9512 11.1608 19.0983 11.0625 19.2602 10.9955C19.422 10.9284 19.5955 10.8939 19.7707 10.8939C19.9459 10.8939 20.1194 10.9284 20.2812 10.9955C20.4431 11.0625 20.5901 11.1608 20.714 11.2847C20.8379 11.4086 20.9362 11.5556 21.0032 11.7175C21.0703 11.8793 21.1048 12.0528 21.1048 12.228C21.1048 12.4032 21.0703 12.5767 21.0032 12.7385C20.9362 12.9004 20.8379 13.0475 20.714 13.1713L17.8847 15.998L20.714 18.8274C20.9642 19.0775 21.1048 19.4169 21.1048 19.7707C21.1048 20.1245 20.9642 20.4638 20.714 20.714C20.4638 20.9642 20.1245 21.1048 19.7707 21.1048C19.4169 21.1048 19.0775 20.9642 18.8274 20.714L15.9993 17.8847L13.1713 20.714C12.9212 20.9642 12.5818 21.1048 12.228 21.1048C11.8742 21.1048 11.5349 20.9642 11.2847 20.714C11.0345 20.4638 10.8939 20.1245 10.8939 19.7707C10.8939 19.4169 11.0345 19.0775 11.2847 18.8274L14.114 15.9993L11.286 13.1713C11.0358 12.9213 10.8952 12.5822 10.8951 12.2285C10.895 11.8748 11.0353 11.5355 11.2853 11.2853C11.5354 11.0352 11.8745 10.8945 12.2282 10.8944C12.5819 10.8943 12.9212 11.0347 13.1713 11.2847Z" fill="#B4B4B4"/>
</g>
<defs>
<filter id="filter0_d_195_83715" x="0.666016" y="1.66602" width="30.6667" height="30.6667" filterUnits="userSpaceOnUse" color-interpolation-filters="sRGB">
<feFlood flood-opacity="0" result="BackgroundImageFix"/>
<feColorMatrix in="SourceAlpha" type="matrix" values="0 0 0 0 0 0 0 0 0 0 0 0 0 0 0 0 0 0 127 0" result="hardAlpha"/>
<feOffset dy="1"/>
<feGaussianBlur stdDeviation="1"/>
<feComposite in2="hardAlpha" operator="out"/>
<feColorMatrix type="matrix" values="0 0 0 0 0.992157 0 0 0 0 0.0588235 0 0 0 0 0.0588235 0 0 0 0.25 0"/>
<feBlend mode="normal" in2="BackgroundImageFix" result="effect1_dropShadow_195_83715"/>
<feBlend mode="normal" in="SourceGraphic" in2="effect1_dropShadow_195_83715" result="shape"/>
</filter>
</defs>
</svg>
