<svg width="23" height="24" viewBox="0 0 23 24" fill="none" xmlns="http://www.w3.org/2000/svg">
<g id="Frame" clip-path="url(#clip0_0_11287)">
<g id="Group">
<path id="Vector" d="M11.5 23.5C17.8513 23.5 23 18.3513 23 12C23 5.64873 17.8513 0.5 11.5 0.5C5.14873 0.5 0 5.64873 0 12C0 18.3513 5.14873 23.5 11.5 23.5Z" fill="#F0F0F0"/>
<g id="Group_2">
<path id="Vector_2" d="M2.37758 4.99888C1.47425 6.17418 0.7931 7.52879 0.396484 9.00039H6.37909L2.37758 4.99888ZM22.6042 9.00039C22.2075 7.52884 21.5263 6.17422 20.6231 4.99893L16.6216 9.00039H22.6042ZM0.396484 15.0004C0.793145 16.4719 1.47429 17.8266 2.37758 19.0018L6.37896 15.0004H0.396484ZM18.5018 2.87763C17.3265 1.9743 15.9719 1.29314 14.5003 0.896484V6.87905L18.5018 2.87763ZM4.49888 21.123C5.67418 22.0263 7.0288 22.7075 8.50035 23.1042V17.1216L4.49888 21.123ZM8.5003 0.896484C7.02875 1.29314 5.67413 1.97429 4.49888 2.87758L8.5003 6.879V0.896484ZM14.5003 23.1042C15.9719 22.7075 17.3265 22.0263 18.5018 21.1231L14.5003 17.1216V23.1042ZM16.6216 15.0004L20.6231 19.0018C21.5263 17.8266 22.2075 16.4719 22.6042 15.0004H16.6216Z" fill="#0052B4"/>
</g>
<g id="Group_3">
<path id="Vector_3" d="M22.9027 10.5H13V0.597346C12.5026 0.532542 12.0016 0.500025 11.5 0.5C10.9915 0.5 10.491 0.533422 10 0.597346V10.5H0.0973457C0.0325416 10.9974 2.49858e-05 11.4984 0 12C0 12.5085 0.0334219 13.009 0.0973457 13.5H9.99997V23.4027C10.9958 23.5324 12.0042 23.5324 13 23.4027V13.5H22.9027C22.9675 13.0026 23 12.5016 23 12C23 11.4916 22.9666 10.991 22.9027 10.5Z" fill="#D80027"/>
<path id="Vector_4" d="M14.4991 15.0001L19.6308 20.1318C19.8667 19.8956 20.0923 19.6493 20.3068 19.3935L15.9134 15.0001H14.4991V15.0001ZM8.49909 15.0001H8.499L3.36735 20.1317C3.60354 20.3677 3.84987 20.5932 4.10564 20.8077L8.49909 16.4142V15.0001ZM8.49909 9.00011V9.00002L3.36739 3.86828C3.13148 4.10447 2.90594 4.3508 2.69141 4.60657L7.0849 9.00006H8.49909V9.00011ZM14.4991 9.00011L19.6309 3.86832C19.3947 3.63241 19.1483 3.40689 18.8926 3.19238L14.4991 7.58588V9.00011Z" fill="#D80027"/>
</g>
</g>
</g>
<defs>
<clipPath id="clip0_0_11287">
<rect width="23" height="23" fill="white" transform="translate(0 0.5)"/>
</clipPath>
</defs>
</svg>
