<svg width="82" height="81" viewBox="0 0 82 81" fill="none" xmlns="http://www.w3.org/2000/svg">
<path d="M75.6434 38.125C75.6434 57.1227 60.1545 72.5283 41.0419 72.5283C21.9294 72.5283 6.44043 57.1227 6.44043 38.125C6.44043 19.1272 21.9294 3.72168 41.0419 3.72168C60.1545 3.72168 75.6434 19.1272 75.6434 38.125Z" stroke="url(#paint0_linear_0_6028)"/>
<path d="M41.0796 69.803C41.2707 69.8057 41.4619 69.8069 41.653 69.8065L41.6402 63.5065C41.4836 63.5068 41.3269 63.5058 41.1703 63.5036L41.0796 69.803Z" fill="#F2B43A"/>
<path d="M44.7511 69.664C44.9415 69.6469 45.1317 69.6282 45.3217 69.6079L44.6467 63.3437C44.491 63.3603 44.3351 63.3757 44.1791 63.3897L44.7511 69.664Z" fill="#F2B43A"/>
<path d="M48.3879 69.1442C48.5754 69.1074 48.7626 69.069 48.9495 69.0291L47.6196 62.8694C47.4665 62.9021 47.3131 62.9335 47.1594 62.9637L48.3879 69.1442Z" fill="#F2B43A"/>
<path d="M52.5337 68.0642C52.7153 68.0049 52.8965 67.9442 53.0771 67.8819L51.0022 61.9293C50.8542 61.9803 50.7058 62.0301 50.5569 62.0787L52.5337 68.0642Z" fill="#F2B43A"/>
<path d="M55.9597 66.7443C56.1341 66.6664 56.3078 66.5872 56.4809 66.5065L53.7916 60.8021C53.6498 60.8682 53.5074 60.9332 53.3645 60.997L55.9597 66.7443Z" fill="#F2B43A"/>
<path d="M58.6959 65.3771C58.8628 65.2844 59.0289 65.1904 59.1942 65.095L56.0152 59.6454C55.8797 59.7236 55.7436 59.8006 55.6068 59.8766L58.6959 65.3771Z" fill="#F2B43A"/>
<path d="M37.4136 69.5596C37.6034 69.5822 37.7934 69.6032 37.9835 69.6227L38.6331 63.3558C38.4772 63.3399 38.3216 63.3226 38.166 63.3041L37.4136 69.5596Z" fill="#F2B43A"/>
<path d="M34.3919 69.0665C34.5789 69.1054 34.7664 69.1428 34.9541 69.1787L36.1504 62.992C35.9966 62.9626 35.843 62.9319 35.6897 62.9L34.3919 69.0665Z" fill="#F2B43A"/>
<path d="M30.8399 68.132C31.0219 68.1902 31.2044 68.2469 31.3873 68.3021L33.2274 62.2736C33.0775 62.2283 32.928 62.1819 32.7789 62.1342L30.8399 68.132Z" fill="#F2B43A"/>
<path d="M27.9683 67.0746C28.1445 67.1483 28.3213 67.2206 28.4986 67.2915L30.8602 61.4454C30.7148 61.3873 30.5699 61.3281 30.4256 61.2677L27.9683 67.0746Z" fill="#F2B43A"/>
<path d="M22.5569 64.2352C22.7175 64.3382 22.879 64.4399 23.0413 64.5403L26.3879 59.1908C26.2549 59.1086 26.1226 59.0252 25.9909 58.9408L22.5569 64.2352Z" fill="#F2B43A"/>
<path d="M20.8677 59.333C20.9929 59.4566 21.1192 59.5792 21.2464 59.7007L23.5021 57.3654C23.3876 57.2561 23.2741 57.1459 23.1614 57.0347L20.8677 59.333Z" fill="#F2B43A"/>
<path d="M19.3189 57.6943C19.4352 57.8262 19.5526 57.9573 19.671 58.0873L22.085 55.9142C21.9785 55.7972 21.8729 55.6793 21.7683 55.5606L19.3189 57.6943Z" fill="#F2B43A"/>
<path d="M17.5508 55.5013C17.6551 55.6429 17.7605 55.7836 17.8671 55.9234L20.4624 53.9677C20.3665 53.8419 20.2717 53.7154 20.1779 53.5881L17.5508 55.5013Z" fill="#F2B43A"/>
<path d="M15.9817 53.1635C16.0731 53.3135 16.1658 53.4628 16.2597 53.6114L19.0165 51.888C18.9321 51.7544 18.8487 51.6201 18.7664 51.4852L15.9817 53.1635Z" fill="#F2B43A"/>
<path d="M14.8777 51.2008C14.9584 51.3568 15.0403 51.5122 15.1236 51.6669L17.9946 50.139C17.9197 49.9999 17.846 49.8601 17.7734 49.7198L14.8777 51.2008Z" fill="#F2B43A"/>
<path d="M13.6956 48.6477C13.7623 48.8101 13.8304 48.972 13.8998 49.1333L16.8938 47.86C16.8314 47.7149 16.7701 47.5693 16.7101 47.4232L13.6956 48.6477Z" fill="#F2B43A"/>
<path d="M12.7418 46.0018C12.7941 46.1694 12.8477 46.3366 12.9026 46.5033L15.9969 45.4943C15.9474 45.3444 15.8992 45.194 15.8522 45.0433L12.7418 46.0018Z" fill="#F2B43A"/>
<path d="M12.0236 43.2834C12.0609 43.4549 12.0997 43.626 12.1399 43.7969L15.3107 43.0599C15.2746 42.9062 15.2397 42.7523 15.2062 42.598L12.0236 43.2834Z" fill="#F2B43A"/>
<path d="M11.5464 40.513C11.5685 40.6871 11.5921 40.861 11.6172 41.0346L14.8406 40.5753C14.8181 40.4191 14.7968 40.2627 14.7769 40.1061L11.5464 40.513Z" fill="#F2B43A"/>
<path d="M11.3138 37.7119C11.3206 37.8872 11.3289 38.0624 11.3386 38.2376L14.59 38.0594C14.5813 37.9018 14.5738 37.7442 14.5677 37.5865L11.3138 37.7119Z" fill="#F2B43A"/>
<path d="M11.3276 34.9012C11.319 35.0765 11.3119 35.2518 11.3063 35.4271L14.5609 35.5313C14.566 35.3736 14.5724 35.2159 14.5801 35.0583L11.3276 34.9012Z" fill="#F2B43A"/>
<path d="M11.5877 32.1024C11.5638 32.2763 11.5414 32.4503 11.5204 32.6245L14.7535 33.0104C14.7724 32.8537 14.7926 32.6971 14.8141 32.5408L11.5877 32.1024Z" fill="#F2B43A"/>
<path d="M12.0922 29.3369C12.0532 29.508 12.0155 29.6794 11.9793 29.8511L15.1663 30.5157C15.1989 30.3612 15.2327 30.207 15.2678 30.0531L12.0922 29.3369Z" fill="#F2B43A"/>
<path d="M61.1143 59.6391C60.989 59.7554 60.8628 59.8707 60.7355 59.985L58.4799 57.7881C58.5943 57.6853 58.7079 57.5816 58.8205 57.477L61.1143 59.6391Z" fill="#F2B43A"/>
<path d="M62.663 58.0975C62.5467 58.2216 62.4294 58.3449 62.311 58.4672L59.897 56.4229C60.0035 56.3128 60.109 56.202 60.2136 56.0903L62.663 58.0975Z" fill="#F2B43A"/>
<path d="M64.4311 56.0345C64.3268 56.1677 64.2214 56.3 64.1149 56.4315L61.5196 54.5918C61.6154 54.4735 61.7102 54.3544 61.804 54.2346L64.4311 56.0345Z" fill="#F2B43A"/>
<path d="M66.0003 53.8352C65.9088 53.9764 65.8161 54.1168 65.7222 54.2565L62.9654 52.6354C63.0499 52.5097 63.1332 52.3833 63.2155 52.2564L66.0003 53.8352Z" fill="#F2B43A"/>
<path d="M67.1043 51.9889C67.0236 52.1356 66.9416 52.2818 66.8583 52.4273L63.9873 50.99C64.0622 50.8591 64.136 50.7276 64.2086 50.5956L67.1043 51.9889Z" fill="#F2B43A"/>
<path d="M68.2863 49.5871C68.2196 49.7398 68.1516 49.8921 68.0822 50.0439L65.0882 48.8461C65.1506 48.7096 65.2118 48.5726 65.2718 48.4352L68.2863 49.5871Z" fill="#F2B43A"/>
<path d="M69.2401 47.098C69.1879 47.2557 69.1343 47.4129 69.0793 47.5697L65.9851 46.6206C66.0345 46.4795 66.0827 46.3381 66.1297 46.1963L69.2401 47.098Z" fill="#F2B43A"/>
<path d="M69.9583 44.5407C69.921 44.702 69.8822 44.863 69.8421 45.0237L66.6712 44.3304C66.7073 44.1859 66.7422 44.041 66.7758 43.8959L69.9583 44.5407Z" fill="#F2B43A"/>
<path d="M70.4356 41.9345C70.4134 42.0982 70.3898 42.2618 70.3648 42.4252L67.1414 41.9931C67.1639 41.8461 67.1851 41.699 67.205 41.5517L70.4356 41.9345Z" fill="#F2B43A"/>
<path d="M70.6682 39.2993C70.6613 39.4643 70.653 39.6291 70.6433 39.7939L67.3919 39.6262C67.4007 39.478 67.4081 39.3297 67.4143 39.1814L70.6682 39.2993Z" fill="#F2B43A"/>
<path d="M70.6543 36.6553C70.6629 36.8201 70.67 36.985 70.6757 37.15L67.421 37.248C67.4159 37.0996 67.4095 36.9513 67.4018 36.803L70.6543 36.6553Z" fill="#F2B43A"/>
<path d="M70.3942 34.0224C70.4181 34.1859 70.4405 34.3496 70.4616 34.5135L67.2284 34.8765C67.2095 34.7291 67.1893 34.5818 67.1678 34.4347L70.3942 34.0224Z" fill="#F2B43A"/>
<path d="M69.8897 31.4207C69.9288 31.5816 69.9664 31.7429 70.0026 31.9044L66.8156 32.5296C66.783 32.3843 66.7492 32.2393 66.7141 32.0945L69.8897 31.4207Z" fill="#F2B43A"/>
<path d="M12.3178 23.1516C12.2213 23.3157 12.1262 23.4805 12.0324 23.6462L17.2476 26.5656C17.3254 26.4282 17.4043 26.2915 17.4843 26.1554L12.3178 23.1516Z" fill="#F2B43A"/>
<path d="M13.9773 20.5926C13.8668 20.7477 13.7576 20.9037 13.6497 21.0605L18.5891 24.4208C18.6786 24.2907 18.7692 24.1613 18.8609 24.0326L13.9773 20.5926Z" fill="#F2B43A"/>
<path d="M15.8548 18.1871C15.7311 18.332 15.6086 18.4779 15.4874 18.6249L20.1134 22.4004C20.214 22.2785 20.3156 22.1575 20.4182 22.0373L15.8548 18.1871Z" fill="#F2B43A"/>
<path d="M17.9359 15.9535C17.8 16.0871 17.6652 16.2219 17.5315 16.3577L21.8091 20.5198C21.92 20.4071 22.0318 20.2954 22.1445 20.1845L17.9359 15.9535Z" fill="#F2B43A"/>
<path d="M20.2049 13.9087C20.0578 14.0301 19.9117 14.1526 19.7667 14.2764L23.6631 18.7933C23.7835 18.6907 23.9047 18.589 24.0267 18.4884L20.2049 13.9087Z" fill="#F2B43A"/>
<path d="M23.1513 11.7261C22.9923 11.8315 22.8341 11.9382 22.6768 12.0462L26.0771 16.9434C26.2076 16.8538 26.3388 16.7653 26.4707 16.6779L23.1513 11.7261Z" fill="#F2B43A"/>
<path d="M25.771 10.1494C25.6033 10.2406 25.4364 10.3332 25.2702 10.4272L28.2283 15.6004C28.3662 15.5225 28.5047 15.4457 28.6437 15.37L25.771 10.1494Z" fill="#F2B43A"/>
<path d="M28.519 8.80572C28.3439 8.88207 28.1695 8.95984 27.9958 9.03903L30.4892 14.449C30.6333 14.3833 30.778 14.3188 30.9232 14.2554L28.519 8.80572Z" fill="#F2B43A"/>
<path d="M31.3742 7.70532C31.1931 7.76621 31.0126 7.82858 30.8325 7.8924L32.8423 13.4978C32.9916 13.4449 33.1414 13.3932 33.2916 13.3427L31.3742 7.70532Z" fill="#F2B43A"/>
<path d="M34.3151 6.85655C34.1294 6.90152 33.944 6.94799 33.759 6.99597L35.2698 12.7543C35.4232 12.7145 35.577 12.6759 35.731 12.6386L34.3151 6.85655Z" fill="#F2B43A"/>
<path d="M37.3191 6.26588C37.1302 6.29458 36.9414 6.32482 36.753 6.35658L37.7533 12.2239C37.9096 12.1975 38.0661 12.1724 38.2229 12.1486L37.3191 6.26588Z" fill="#F2B43A"/>
<path d="M63.4598 16.4465C63.3207 16.3161 63.1805 16.1869 63.0393 16.0588L59.0054 20.4548C59.1226 20.5611 59.2388 20.6683 59.3542 20.7765L63.4598 16.4465Z" fill="#F2B43A"/>
<path d="M65.5941 18.63C65.467 18.488 65.3387 18.3471 65.2092 18.2073L60.8054 22.237C60.9127 22.353 61.0192 22.4699 61.1246 22.5877L65.5941 18.63Z" fill="#F2B43A"/>
<path d="M67.8906 21.4818C67.7791 21.3274 67.6663 21.1739 67.5523 21.0214L62.7489 24.5713C62.8435 24.6979 62.9371 24.8252 63.0296 24.9532L67.8906 21.4818Z" fill="#F2B43A"/>
<path d="M69.8747 24.5567C69.7801 24.3915 69.6841 24.2272 69.5867 24.0636L64.4365 27.0949C64.5172 27.2305 64.5969 27.3669 64.6754 27.5038L69.8747 24.5567Z" fill="#F2B43A"/>
<mask id="path-54-inside-1_0_6028" fill="white">
<path d="M16.9805 59.104C13.1059 54.8839 10.4545 49.7425 9.29691 44.2043C8.1393 38.6661 8.51681 32.9292 10.391 27.5787L11.001 27.7797C9.16354 33.0256 8.79341 38.6503 9.92838 44.0802C11.0634 49.51 13.6628 54.5508 17.4617 58.6884L16.9805 59.104Z"/>
</mask>
<path d="M16.9805 59.104C13.1059 54.8839 10.4545 49.7425 9.29691 44.2043C8.1393 38.6661 8.51681 32.9292 10.391 27.5787L11.001 27.7797C9.16354 33.0256 8.79341 38.6503 9.92838 44.0802C11.0634 49.51 13.6628 54.5508 17.4617 58.6884L16.9805 59.104Z" stroke="#E9AD44" stroke-width="4" mask="url(#path-54-inside-1_0_6028)"/>
<mask id="path-55-inside-2_0_6028" fill="white">
<path d="M60.669 63.656C66.0886 59.5861 70.0643 53.9778 72.0421 47.6126C74.02 41.2475 73.9014 34.4424 71.703 28.1457L71.0927 28.3462C73.2481 34.5197 73.3644 41.1916 71.4252 47.4323C69.4861 53.673 65.5881 59.1715 60.2745 63.1619L60.669 63.656Z"/>
</mask>
<path d="M60.669 63.656C66.0886 59.5861 70.0643 53.9778 72.0421 47.6126C74.02 41.2475 73.9014 34.4424 71.703 28.1457L71.0927 28.3462C73.2481 34.5197 73.3644 41.1916 71.4252 47.4323C69.4861 53.673 65.5881 59.1715 60.2745 63.1619L60.669 63.656Z" stroke="#E9AD44" stroke-width="4" mask="url(#path-55-inside-2_0_6028)"/>
<path d="M41.2658 12.1452L43.0137 6.3877L44.1883 6.74026L45.8252 11.0996L46.9014 7.55462L48.1587 7.93201L46.4108 13.6895L45.3272 13.3643L43.6343 8.86246L42.5231 12.5226L41.2658 12.1452Z" fill="#FDFDB2"/>
<path d="M48.8096 14.7487L51.1963 9.22266L52.4189 9.74475L50.5096 14.1656L53.2804 15.3488L52.8031 16.454L48.8096 14.7487Z" fill="#FDFDB2"/>
<path d="M55.2585 17.6523L57.8627 13.6177L56.3138 12.6293L56.9766 11.6025L61.194 14.2941L60.5313 15.3209L58.9825 14.3324L56.3783 18.367L55.2585 17.6523Z" fill="#FDFDB2"/>
<path fill-rule="evenodd" clip-rule="evenodd" d="M37.839 18.7939L38.6526 19.5002L24.1092 36.065L41.626 56.3858L40.8059 57.0847L22.6812 36.0585L37.839 18.7939Z" fill="#FDC95B"/>
<path fill-rule="evenodd" clip-rule="evenodd" d="M43.9227 18.7939L43.1091 19.5002L57.6525 36.065L40.1358 56.1983L40.9458 57.2722L59.0806 36.0585L43.9227 18.7939Z" fill="#FDC95B"/>
<path d="M31.4954 27.2021C29.3353 31.9275 25.2851 34.9883 23.9351 36.0622C27.4452 38.4786 30.4153 42.7744 31.4954 44.9223V27.2021Z" fill="#FDC95B"/>
<path d="M50.3962 27.2021C52.5563 31.9275 56.6065 34.9883 57.9565 36.0622C54.4464 38.4786 51.4763 42.7744 50.3962 44.9223V27.2021Z" fill="#FDC95B"/>
<path d="M30.4154 35.5254L26.0952 36.0624L30.4154 36.3309V35.5254Z" fill="#734E12"/>
<path d="M51.4762 35.5254L55.7964 36.0624L51.4762 36.3309V35.5254Z" fill="#734E12"/>
<path d="M32.0352 42.2373L41.087 57.2726L49.3159 42.2373H32.0352Z" fill="url(#paint1_linear_0_6028)"/>
<path d="M40.2705 50.2921L40.8105 54.5879L41.0805 50.2921L40.2705 50.2921Z" fill="#734E12"/>
<g filter="url(#filter0_d_0_6028)">
<path d="M33.4014 45.6424C32.8491 45.6424 32.4014 45.1947 32.4014 44.6424V26.7744C32.4014 26.2221 32.8491 25.7744 33.4014 25.7744H35.8444C36.1604 25.7744 36.4577 25.9237 36.6464 26.177L43.6572 35.5885C44.2323 36.3605 45.4592 35.9537 45.4592 34.9911V26.7744C45.4592 26.2221 45.9069 25.7744 46.4592 25.7744H48.6821C49.2344 25.7744 49.6821 26.2221 49.6821 26.7744V44.6424C49.6821 45.1947 49.2344 45.6424 48.6821 45.6424H46.5443C46.2286 45.6424 45.9314 45.4933 45.7427 45.2402L38.426 35.4282C37.8507 34.6566 36.6243 35.0635 36.6243 36.0259V44.6424C36.6243 45.1947 36.1766 45.6424 35.6243 45.6424H33.4014Z" fill="#FDC95B"/>
</g>
<defs>
<filter id="filter0_d_0_6028" x="16.4014" y="9.77441" width="49.2808" height="51.8682" filterUnits="userSpaceOnUse" color-interpolation-filters="sRGB">
<feFlood flood-opacity="0" result="BackgroundImageFix"/>
<feColorMatrix in="SourceAlpha" type="matrix" values="0 0 0 0 0 0 0 0 0 0 0 0 0 0 0 0 0 0 127 0" result="hardAlpha"/>
<feOffset/>
<feGaussianBlur stdDeviation="8"/>
<feComposite in2="hardAlpha" operator="out"/>
<feColorMatrix type="matrix" values="0 0 0 0 0 0 0 0 0 0 0 0 0 0 0 0 0 0 1 0"/>
<feBlend mode="normal" in2="BackgroundImageFix" result="effect1_dropShadow_0_6028"/>
<feBlend mode="normal" in="SourceGraphic" in2="effect1_dropShadow_0_6028" result="shape"/>
</filter>
<linearGradient id="paint0_linear_0_6028" x1="76.1434" y1="38.125" x2="5.94043" y2="38.125" gradientUnits="userSpaceOnUse">
<stop stop-color="#F4C169"/>
<stop offset="1" stop-color="#E0DE9F"/>
</linearGradient>
<linearGradient id="paint1_linear_0_6028" x1="40.6755" y1="42.2373" x2="40.6755" y2="57.2726" gradientUnits="userSpaceOnUse">
<stop stop-color="#080808" stop-opacity="0"/>
<stop offset="0.317933" stop-color="#AC7728"/>
<stop offset="0.728012" stop-color="#FDC95B"/>
<stop offset="1" stop-color="#FDC95B"/>
</linearGradient>
</defs>
</svg>
