<svg width="360" height="118" viewBox="0 0 360 118" fill="none" xmlns="http://www.w3.org/2000/svg">
<path d="M0 0H360V59.4187C360 73.941 354.547 87.934 344.721 98.6273C332.881 111.512 315.852 118.357 298.387 117.25L270.158 115.461C260.204 114.83 250.556 111.771 242.057 106.552L222.065 94.277C208.175 85.7478 190.156 88.5018 179.447 100.79C171.999 109.337 160.722 113.518 149.503 111.892L146.962 111.523C137.953 110.218 129.71 105.729 123.726 98.869L118.554 92.9395C114.571 88.3738 109.595 84.7808 104.009 82.4358L96.6798 79.3594C82.5486 73.4278 66.2089 78.8662 58.4511 92.0833C46.5008 112.443 16.9715 112.172 5.39751 91.5956L0 82V0Z" fill="#F9ECBD"/>
</svg>
