<svg width="48" height="49" viewBox="0 0 48 49" fill="none" xmlns="http://www.w3.org/2000/svg">
<path d="M0 8.86923C0 4.45096 3.58172 0.869232 8 0.869232H23.9999H29.9998L47.9997 15.0121V18.8692V24.8692V40.8692C47.9997 45.2875 44.418 48.8692 39.9997 48.8692H8C3.58172 48.8692 0 45.2875 0 40.8692V8.86923Z" fill="#00733B"/>
<path d="M29.9977 0.869232H34.2857H38.8571H29.9977L47.9999 15.0121H29.9974L29.9977 0.869232Z" fill="#4D9D76"/>
<path d="M8.29395 37.0121L11.4248 32.0697V32.015L8.31445 27.1478H10.7412L12.833 30.7025H12.8877L15 27.1478H17.3037L14.0771 32.056V32.1039L17.2627 37.0121H14.9111L12.751 33.56H12.6963L10.5225 37.0121H8.29395ZM24.9359 35.3031V37.0121H18.558V27.1478H20.6224V35.3031H24.9359ZM25.9304 34.2025H27.9196C28.0154 35.016 28.863 35.5492 29.9568 35.5492C31.0573 35.5492 31.8093 35.0228 31.8093 34.2982C31.8093 33.6557 31.3376 33.3002 30.1482 33.0336L28.863 32.7533C27.0446 32.3637 26.1491 31.4408 26.1491 29.9984C26.1491 28.1801 27.7214 26.9769 29.9226 26.9769C32.2195 26.9769 33.6618 28.1596 33.696 29.9437H31.7614C31.6931 29.1098 30.9616 28.6039 29.9294 28.6039C28.9109 28.6039 28.2273 29.0892 28.2273 29.8207C28.2273 30.4291 28.7058 30.7709 29.8405 31.0307L31.0368 31.2836C33.0124 31.7074 33.8738 32.5551 33.8738 34.059C33.8738 35.973 32.322 37.183 29.8747 37.183C27.5027 37.183 25.9919 36.0551 25.9304 34.2025Z" fill="white"/>
</svg>
