<svg width="48" height="49" viewBox="0 0 48 49" fill="none" xmlns="http://www.w3.org/2000/svg">
<path d="M0 8.86926C0 4.45099 3.58172 0.869263 8 0.869263H23.9999H29.9998L47.9997 15.0121V18.8693V24.8693V40.8693C47.9997 45.2875 44.418 48.8693 39.9997 48.8693H8C3.58172 48.8693 0 45.2875 0 40.8693V8.86926Z" fill="#E03303"/>
<path d="M29.9977 0.869263H34.2857H38.8571H29.9977L47.9999 15.0121H29.9974L29.9977 0.869263Z" fill="#E9714F"/>
<path d="M8.82031 27.1479H12.833C14.8564 27.1479 16.251 28.4946 16.251 30.5248C16.251 32.5483 14.8086 33.9018 12.7305 33.9018H10.8848V37.0121H8.82031V27.1479ZM10.8848 28.7817V32.2885H12.2793C13.4619 32.2885 14.1523 31.6596 14.1523 30.5317C14.1523 29.4106 13.4688 28.7817 12.2861 28.7817H10.8848ZM17.6146 27.1479H21.6273C23.6507 27.1479 25.0453 28.4946 25.0453 30.5248C25.0453 32.5483 23.6029 33.9018 21.5248 33.9018H19.6791V37.0121H17.6146V27.1479ZM19.6791 28.7817V32.2885H21.0736C22.2562 32.2885 22.9466 31.6596 22.9466 30.5317C22.9466 29.4106 22.263 28.7817 21.0804 28.7817H19.6791ZM30.8318 37.0121H28.7673V28.85H25.9167V27.1479H33.6892V28.85H30.8318V37.0121Z" fill="white"/>
</svg>
