<svg width="48" height="48" viewBox="0 0 48 48" fill="none" xmlns="http://www.w3.org/2000/svg">
<rect width="48" height="48" rx="8" fill="#009AE0"/>
<path d="M8.5336 26.0188L0 34.2857V42.4286L0.0335092 42.5793C0.546547 44.888 2.20272 46.775 4.42532 47.5832C5.18355 47.8589 5.98415 48 6.79096 48H41.5015C41.8333 48 42.1647 47.9746 42.4927 47.9242C45.4715 47.4659 47.7497 45.0034 48 42V34.7143L39.8344 28.5196C37.3279 26.6182 33.8499 26.6629 31.3932 28.6283C28.8383 30.6722 25.1963 30.63 22.6894 28.5275L19.2409 25.6352C16.1005 23.0013 11.4774 23.1669 8.5336 26.0188Z" fill="#00CF66"/>
<circle cx="32.1427" cy="15" r="5.57143" fill="#FAC100"/>
</svg>
