<svg width="30" height="38" viewBox="0 0 30 38" fill="none" xmlns="http://www.w3.org/2000/svg">
<path d="M0.973719 17.162C0.740385 17.4407 0.783719 17.8511 1.04372 18.1299C1.07747 18.1632 1.11247 18.1965 1.14997 18.229C1.42916 18.4749 1.74309 18.6782 2.08164 18.8324C2.10497 18.8436 2.13539 18.8524 2.15997 18.8632C2.52955 19.0278 2.96122 19.164 3.44039 19.2803C3.51372 19.2982 3.57914 19.3182 3.65497 19.3353C4.15664 19.4457 4.71872 19.5282 5.32955 19.589C5.44955 19.6011 5.57789 19.6099 5.70164 19.6199C6.34997 19.672 7.0358 19.707 7.79747 19.707C8.17664 19.707 8.55455 19.7065 8.92872 19.6999C9.04414 19.6974 9.15747 19.6899 9.27289 19.6865C9.53872 19.6782 9.80455 19.669 10.0683 19.6499C10.2083 19.6399 10.3483 19.6195 10.4883 19.6057C10.724 19.5832 10.9589 19.5539 11.1929 19.5178C11.3466 19.4928 11.4996 19.454 11.6537 19.4211C11.8746 19.376 12.0936 19.3225 12.3104 19.2607C12.47 19.2136 12.6287 19.1524 12.7887 19.0945C13.0038 19.0178 13.2155 18.932 13.4233 18.8374C13.5854 18.762 13.7475 18.6728 13.9096 18.5836C14.1183 18.4695 14.3258 18.3453 14.5333 18.2057C14.9234 17.938 15.2944 17.6435 15.6437 17.3245C15.8071 17.174 15.9716 17.0161 16.1358 16.8461C16.215 16.7649 16.2933 16.667 16.3712 16.5815C13.1454 15.6215 9.14289 15.4878 5.92164 15.4878C3.66539 15.487 1.86205 16.0982 0.973719 17.162Z" fill="white"/>
<path d="M17.5575 15.1861C18.2316 14.3486 18.9966 13.4019 19.9075 11.8715C21.3291 9.48525 24.6554 3.899 23.4329 1.74609C23.132 1.2165 22.5137 0.883171 21.5995 0.743171C21.243 0.692931 20.8834 0.667315 20.5233 0.666504C13.9362 0.666504 1.1183 9.63942 0.390381 15.7853C1.62913 14.6844 3.53205 14.0553 5.9208 14.0553C9.44038 14.0553 13.8512 14.2423 17.3641 15.4286L17.5575 15.1861Z" fill="white"/>
<path d="M29.6096 14.2791C29.6096 9.60491 28.1542 4.69033 25.0625 2.24658C25.4392 4.67158 23.7738 8.18158 21.1392 12.6045C20.1746 14.2232 19.3771 15.2124 18.6725 16.0845L18.1921 16.6887C14.6992 21.1391 11.19 21.1391 7.79751 21.1391C6.96001 21.1391 6.20668 21.0966 5.4896 21.0353C5.30983 21.0202 5.13024 21.0032 4.95085 20.9841C4.28835 20.9087 3.66793 20.812 3.11626 20.6791C3.00876 20.6532 2.91918 20.6182 2.81668 20.5903C2.38693 20.4751 1.96689 20.3263 1.56043 20.1453C1.4496 20.0953 1.33168 20.0478 1.22793 19.9937C1.20585 19.9832 1.18001 19.9737 1.15918 19.9628C2.60418 22.6078 6.0121 23.8049 11.8933 23.8049C23.6475 23.8049 29.6096 20.5999 29.6096 14.2791ZM14.0846 25.1962L13.4104 37.2541L14.8404 37.3332L15.525 25.1145C15.05 25.1453 14.58 25.1782 14.0846 25.1962ZM19.1063 24.7316L27.3446 34.6907L28.45 33.7766L20.725 24.4391C20.188 24.5505 19.6483 24.6481 19.1063 24.7316ZM8.92293 25.1274L3.16876 34.4945L4.39085 35.2457L10.5508 25.2162C10.0076 25.1995 9.46479 25.1699 8.92293 25.1274Z" fill="white"/>
</svg>
