<svg width="162" height="193" viewBox="0 0 162 193" fill="none" xmlns="http://www.w3.org/2000/svg">
<g clip-path="url(#clip0_191_1398)">
<path d="M93.2223 13.2865C102.766 26.4493 113.957 38.2686 124.068 50.9663C123.196 53.3178 121.865 51.7887 120.947 51.1699C118.507 49.521 116.883 47.0438 114.965 44.864C119.105 50.1658 122.834 55.777 127.292 60.8433C128.538 62.2606 129.95 63.8136 128.896 66.0174C126.69 67.4826 128.424 68.6863 129.27 69.7822C136.436 79.0684 139.781 90.1851 143.103 101.04C144.871 106.817 144.557 113.78 140.543 119.455C139.113 121.477 138.611 123.465 139.075 125.994C139.677 129.268 138.867 132.025 134.558 131.131C132.272 130.655 130.702 131.69 129.416 133.143C120.105 143.663 107.291 146.092 94.4882 146.579C85.8867 146.906 80.0491 151.15 73.6855 155.386C61.1643 168.281 45.6572 172.485 28.9583 167.353C12.0913 162.169 4.33978 148.058 0.995989 131.588C-1.55785 119.004 1.02599 106.931 6.00568 95.2833C9.97943 98.6948 5.80569 101.883 5.7517 105.186C2.96587 112.914 3.12986 120.958 4.0078 128.859C5.55971 142.83 16.1391 151.941 33.42 154.083C48.955 156.009 62.8482 152.374 73.4815 139.988C82.6269 130.47 86.3207 118.756 87.2587 105.933C87.3007 103.907 87.5726 101.929 88.5506 100.112C89.9165 97.7785 90.1385 95.1655 90.3525 92.5525C90.3465 92.0236 90.3825 91.4986 90.4265 90.9716C90.6605 84.5299 90.8224 78.0823 92.6883 71.8263C93.5683 57.1664 94.8862 42.5324 94.3102 27.8286C94.1802 24.525 93.5023 21.3291 92.5323 18.1572C92.0424 16.5542 90.3185 14.5121 93.2223 13.2865Z" fill="#173D9A"/>
<path d="M73.6875 155.382C78.2772 149.402 83.7109 145.675 91.8484 145.329C105.354 144.757 118.625 142.754 128.726 132.057C130.266 130.426 131.99 125.501 135.876 130.192C136.61 131.079 138.361 128.482 137.472 126.378C136.628 124.388 136.45 122.501 137.698 120.886C144.079 112.626 143.349 103.813 139.589 94.96C135.896 86.2646 133.864 76.7449 127.124 69.4788C126.05 68.321 125.856 66.3508 125.238 64.714C126.966 64.2469 127.448 65.7819 128.536 66.0195C138.953 76.0522 146.101 88.1291 151.209 101.565C155.142 111.913 156.058 122.3 152.693 132.941C152.061 134.939 151.185 136.826 150.209 138.602C157.716 123.994 155.642 109.388 149.551 95.0498C145.205 84.8174 138.415 75.8945 132.834 66.3209C131.75 64.4604 128.548 62.7238 131.712 60.017C144.621 75.7328 156.846 91.9458 160.88 112.45C164.098 128.801 160.394 143.796 149.359 156.586C136.638 171.326 112.909 173.322 95.6541 161.209C93.1203 159.43 90.7784 157.38 88.2646 155.39C89.6845 173.649 100.082 183.043 127.406 190.595C120.443 192.739 113.723 192.405 107.015 192.477C100.424 192.549 93.6423 192.665 87.2886 192.026C71.4676 190.437 55.7966 194.807 40.0996 192.1C39.8336 192.054 39.6336 191.629 38.8436 190.782C41.6795 190.03 44.1773 189.369 46.6771 188.706C51.4768 188.559 56.1846 188.109 61.0943 188.584C70.8717 189.531 77.6512 183.031 78.6732 173.192C78.8552 171.449 79.0632 169.709 78.9292 167.952C77.6172 163.552 76.2373 159.181 74.3414 154.989C74.1655 155.193 73.9475 155.324 73.6855 155.39L73.6875 155.382Z" fill="#1E2084"/>
<path d="M93.2223 13.2865C93.6223 18.9097 96.3701 24.0419 96.1341 29.8867C95.5501 44.2851 96.3441 58.7553 93.4923 73.014C92.1663 73.5909 91.3064 72.8443 90.4885 71.972C89.1525 70.0696 89.4645 67.9337 89.5665 65.7998C90.1585 53.4375 87.1767 41.5922 84.0608 29.8068C82.9549 25.6248 80.1231 22.3072 76.9273 19.3589C75.0954 17.6701 72.8375 16.3307 71.9036 13.8354C71.3016 13.8055 72.3196 11.458 70.8077 12.9591C69.2018 14.5521 68.5698 17.3587 65.44 16.7578C65.346 16.7399 65.252 16.4983 65.24 16.3546C65.224 16.177 65.294 15.9913 65.328 15.8097C68.4518 11.5937 71.3696 7.20216 74.7534 3.20582C78.3532 -1.04403 81.793 -1.01209 85.6607 2.98624C88.6346 6.06235 91.1844 9.50175 93.2243 13.2885L93.2223 13.2865Z" fill="#2461BD"/>
<path d="M65.328 15.8077C69.7837 16.0373 68.9998 10.0707 72.9475 9.61957C73.8655 10.8133 71.9196 11.9032 72.5435 13.1688C72.5015 13.4502 72.4595 13.7337 72.4195 14.0151C70.6876 19.1114 67.1399 22.968 63.7921 27.0262C51.5448 41.8737 37.7837 55.5415 28.0283 72.3453C23.0186 80.9748 18.6829 89.8677 17.5429 99.9724C17.3709 101.495 17.2749 103.156 15.3631 103.705C13.0212 102.941 11.4253 102.735 9.8554 105.691C8.70147 107.867 6.08963 106.42 4.59772 104.548C4.30174 101.344 8.10151 98.7607 6.00764 95.2833C12.7012 79.4078 22.8126 65.8158 34.2419 53.1002C39.7996 47.996 44.8092 42.4207 48.931 36.0808C54.3967 29.3218 59.8623 22.5648 65.328 15.8057V15.8077Z" fill="#5D87D6"/>
<path d="M131.714 60.0129C130.228 61.9013 132.18 62.7257 132.932 63.9174C139.435 74.2217 146.685 84.1267 151.469 95.3951C156.85 108.065 158.454 121.074 153.259 134.328C152.277 136.834 151.155 139.183 148.355 141.624C149.951 135.468 153.101 130.789 153.372 124.976C154.156 108.193 147.473 94.1575 138.729 80.5795C135.512 75.5811 130.958 71.5448 128.536 66.0194C124.8 58.5497 118.629 52.8526 113.977 46.0517C113.279 45.0316 110.707 44.293 112.665 42.5883C114.353 41.1211 115.431 42.9596 116.373 44.1274C118.561 46.8382 120.017 50.3454 124.066 50.9663C127.02 53.6431 129.568 56.6593 131.712 60.0149L131.714 60.0129Z" fill="#393AC6"/>
<path d="M80.471 167.828C80.2751 175.414 80.619 183.355 72.1556 187.259C67.3378 189.481 62.4801 191.778 56.7345 189.407C53.6667 188.141 49.8969 191.439 46.6771 188.698C59.6103 183.51 69.4377 175.088 74.7094 161.916C78.0952 162.463 77.2312 167.136 80.471 167.826V167.828Z" fill="#2851BE"/>
<path d="M80.4711 167.828C78.7492 167.581 75.0314 170.663 76.3533 165.245C76.5773 164.323 75.2974 163.035 74.7114 161.916C74.5894 159.604 74.4675 157.294 74.3455 154.983C78.1512 158.426 79.0932 163.231 80.4711 167.828Z" fill="#173D9A"/>
<path d="M48.929 36.0808C45.7512 43.2311 40.7775 48.8364 34.2399 53.1002C38.6976 47.0498 43.6293 41.4066 48.929 36.0808Z" fill="#375693"/>
<path d="M89.9924 99.9124C88.6485 101.661 88.6565 103.691 88.7765 105.743C84.9907 118.467 74.7174 123.158 63.1601 125.755C48.895 128.961 35.8318 125.348 23.7385 117.577C21.0627 115.856 18.8408 113.754 17.7809 110.65C19.0808 99.1099 22.4146 88.3925 30.5161 79.6293C33.2299 79.2959 33.5039 81.0446 32.9719 82.911C32.018 86.2526 32.456 89.8876 30.6841 93.1254C32.9599 89.4026 33.5439 84.1187 39.9975 84.9531C41.9014 85.1986 42.5334 82.5118 42.6453 80.9348C42.8913 77.4355 44.8172 74.8904 46.5131 72.0858C48.549 68.7202 50.5049 66.0833 55.2086 67.0774C57.4084 67.5425 59.3743 66.4326 60.6662 63.7996C62.1841 60.7056 65.7759 60.9591 67.6278 63.7777C69.0437 65.9322 71.2289 67.0108 74.1834 67.0135C75.4873 67.0135 76.3933 67.9657 78.2732 71.3092C80.871 65.9815 85.6787 67.1392 91.1824 74.4213C91.1964 80.1723 90.7704 85.9132 91.0584 91.6602L91.0484 91.6942C90.3824 94.395 89.9624 97.1257 89.9904 99.9144L89.9924 99.9124Z" fill="#6DAFF7"/>
<path d="M4.59569 104.548C8.07747 106.618 9.78137 103.705 11.5853 101.817C14.8591 98.3914 14.6231 101.501 15.081 103.5C16.017 104.304 16.509 105.41 16.479 106.552C16.291 113.824 17.3709 121.042 17.3449 128.22C17.3449 128.332 17.3649 128.53 17.3329 128.719C17.2369 129.268 17.1449 129.144 17.5049 128.663C19.6648 125.777 23.9385 125.817 27.0103 129.476C29.3302 132.241 31.17 133.267 34.1459 130.845C35.9438 129.382 36.7017 131.193 37.9836 131.953C40.9234 133.698 43.4373 137.023 47.701 134.979C49.3289 134.199 50.8148 135.111 51.4868 136.734C52.1168 138.261 53.1547 137.946 54.3346 137.814C60.1003 137.169 60.1023 137.187 61.3202 143.022C62.7061 140.89 67.0518 141.187 66.1279 137.063C65.9619 136.319 67.1618 135.826 67.9058 136.217C70.3296 137.49 73.6774 137.405 74.7634 140.71C63.3861 154.63 48.277 157.8 31.422 155.382C22.8626 154.155 14.7671 151.396 9.15141 144.285C-0.521997 132.037 0.667929 118.417 4.59369 104.548H4.59569Z" fill="#216AC5"/>
<path d="M74.7654 140.712C72.1396 139.527 69.5118 138.341 66.8539 137.141C66.098 139.281 68.9758 139.932 68.3678 141.974C68.0498 143.036 67.9419 143.724 66.6579 143.591C62.9142 143.203 62.9122 143.221 60.5183 145.936C58.9324 143.519 59.6304 140.684 58.9784 137.249C57.1085 139.716 54.5627 138.534 52.6408 139.86C52.1748 140.181 50.6029 139.864 50.5929 139.754C49.959 131.973 41.3555 140.76 39.9956 134.662C36.4218 135.965 37.4257 131.997 35.8098 131.045C33.862 134.203 28.5623 134.34 26.7704 131.069C25.2265 128.252 21.7087 127.496 20.0488 127.633C16.683 127.913 19.9828 132.46 17.449 134.44C15.4211 133.406 16.343 131.556 16.311 130.003C17.131 126.997 16.503 124.004 16.395 120.984C16.2671 117.377 14.6931 113.279 18.5809 110.434C24.4285 118.142 32.824 121.587 41.7795 123.761C56.3226 127.29 69.6997 124.942 81.567 115.295C84.8368 112.636 85.5428 108.288 88.7766 105.743C88.1326 119.006 84.1529 130.939 74.7634 140.712H74.7654Z" fill="#4181CF"/>
<path d="M91.0604 91.6583C88.7465 85.556 90.5144 79.2161 89.9624 73.01C90.1124 72.3074 90.5364 71.8862 91.2543 71.7744C92.0003 72.1876 92.7463 72.6008 93.4922 73.016C91.7943 79.1163 93.0342 85.5959 91.0604 91.6603V91.6583Z" fill="#4181CF"/>
<path d="M89.9924 99.9125C88.0645 96.8803 89.2984 94.2534 91.0503 91.6923C91.8023 94.5747 91.6163 97.3354 89.9924 99.9125Z" fill="#4181CF"/>
<path d="M91.2543 71.7744L89.9624 73.01C87.9386 71.3312 83.1029 74.4053 83.1668 69.0336C83.1668 68.9119 81.7149 68.5865 80.983 68.6803C79.4691 68.8779 80.465 69.6485 80.733 70.2553C81.8249 72.7266 79.7791 73.5929 78.2792 73.9023C75.4153 74.4932 76.7373 71.962 76.5293 70.7763C76.2273 69.0516 75.4613 67.4666 73.7454 68.0116C71.6956 68.6624 74.3934 70.1874 73.5594 71.6446C71.0516 70.6545 70.3316 65.9775 66.2259 67.8898C65.356 68.2951 64.154 66.5025 65.5119 65.5184C67.5158 64.0652 66.4819 63.5601 65.048 62.9573C63.6501 62.3684 62.2201 62.3325 61.5002 63.8476C59.5743 67.9078 57.0845 70.0597 53.8707 68.6284C50.7589 67.2431 50.2149 68.9877 48.953 70.6705C45.8132 74.8525 44.4652 79.823 42.6494 84.5898C42.3914 85.2665 42.2134 85.9752 41.9974 86.6698C32.768 83.7814 34.2099 94.2194 28.7882 97.0579C29.4682 91.1293 32.14 85.7795 31.2761 80.0226C29.8021 77.6252 31.68 75.9444 32.67 74.1938C42.2794 57.2003 53.4427 41.2309 65.016 25.535C67.7818 21.7822 70.4956 17.9995 72.2655 13.6438C72.2655 13.6438 72.5395 13.1667 72.5415 13.1667C77.3652 18.3588 83.7648 22.3911 85.7067 29.7569C88.9405 42.0234 91.5863 54.4177 90.9524 67.2171C90.8744 68.8041 91.1824 70.2573 91.2524 71.7744H91.2543Z" fill="#5A9EEC"/>
<path d="M72.2676 13.6458C70.7637 21.3351 65.538 26.9962 61.2682 33.0786C50.5829 48.2994 39.8056 63.4384 31.2781 80.0246C24.3085 89.0233 20.9707 99.5332 18.5829 110.434C15.899 116.734 18.3889 123.633 16.313 130.003C15.4731 121.188 14.7891 112.365 15.0851 103.5C17.4609 86.5481 25.0865 71.8522 35.3678 58.5497C43.5493 47.966 52.3088 37.8035 61.2102 27.8087C65.226 23.2993 68.4198 18.235 72.2696 13.6458H72.2676Z" fill="#BFD4F5"/>
<path d="M59.2664 185.928C64.87 180.312 70.1977 175.096 73.8275 168.483C72.2856 177.476 66.2599 184.76 59.2664 185.928Z" fill="#87BBE4"/>
<path d="M35.7058 84.0828C35.4758 81.1065 36.8237 79.9647 38.8956 79.5355C39.2136 79.4697 40.0975 80.31 40.0335 80.5017C39.4116 82.3641 38.2836 83.7554 35.7058 84.0808V84.0828Z" fill="#6DAFF7"/>
</g>
<defs>
<clipPath id="clip0_191_1398">
<rect width="162" height="193" fill="white"/>
</clipPath>
</defs>
</svg>
