<svg width="151" height="186" viewBox="0 0 151 186" fill="none" xmlns="http://www.w3.org/2000/svg">
<g clip-path="url(#clip0_191_1417)">
<path d="M48.4993 26.3854C52.648 21.1606 56.7968 15.9374 60.9455 10.7126C66.9252 5.36295 76.1081 5.52279 82.1837 10.9291C85.3268 13.7263 87.3588 17.0696 89.5808 20.438C97.2279 32.0314 104.102 44.0078 111.968 55.4914C115.554 60.7295 115.738 66.99 116.859 72.7692C117.705 77.1332 119.737 81.4556 119.163 86.2475C121.256 86.091 121.171 82.7526 123.709 83.7433C125.587 84.4759 125.743 86.3141 126.493 87.7577C129.429 93.407 131.83 99.1597 130.86 105.553C130.546 107.63 130.499 109.874 127.574 110.645C124.818 110.603 124.606 108.702 124.137 106.969C122.978 102.668 123.354 98.3388 124.324 93.4337C120.85 95.5582 119.045 97.9142 117.575 100.625C114.791 105.758 111.043 110.334 106.586 114.438C105.653 115.297 104.995 116.779 103.082 116.103C98.3332 108.89 98.9949 100.775 98.4422 92.9392C97.6452 81.6238 97.8294 70.2567 94.457 59.1628C93.3479 55.5147 91.9042 52.0665 89.359 48.0005C89.3627 55.1318 89.4229 61.4788 89.3326 67.8258C89.3007 70.037 89.8665 72.4329 87.7028 74.2444C84.5335 73.705 85.3117 71.3257 85.4057 69.6973C85.776 63.2787 84.3267 57.2097 82.1423 51.1308C80.4712 46.4787 77.3037 42.5576 74.9652 38.2502C73.1455 34.8986 68.8201 33.1686 64.7597 33.7181C60.25 34.3291 56.9359 33.112 53.6594 30.8692C52.9638 29.8569 52.7721 29.777 52.3285 30.2765C49.3283 33.6482 46.2435 36.9582 43.1963 40.2965C42.2 41.3888 41.1736 42.6276 39.1942 42.0964C37.9685 39.5739 40.5476 38.3218 41.6586 36.6618C43.9482 33.2419 47.4278 30.448 48.4955 26.3837L48.4993 26.3854Z" fill="#065C47"/>
<path d="M147.958 136.557C147.182 138.364 146.558 140.234 145.609 141.965C134.476 162.237 109.46 166.198 89.216 150.89C87.1464 149.325 85.3098 147.517 83.3642 145.82C78.6289 144.949 73.7583 146.518 69.0437 145.187C68.2655 144.967 67.4966 145.3 67.0831 145.8C64.0396 149.468 59.0788 150.066 54.8605 151.802C42.262 156.99 22.4976 152.099 14.5516 141.849C13.0177 139.871 11.3672 137.793 12.3203 135.112C14.7283 133.409 16.3186 135.322 17.9165 136.291C22.0953 138.825 26.1501 141.496 30.812 143.349C37.944 146.185 38.9347 145.747 39.2204 139.313C43.7828 136.321 45.8411 140.017 48.533 142.032C50.1102 143.697 51.7889 142.845 53.507 142.232C58.6709 140.39 63.0603 137.438 67.5305 134.604C68.5719 133.943 69.461 133.094 70.5589 132.503C71.9781 131.741 73.4594 130.915 75.1212 131.965C76.5761 132.884 76.1945 134.173 75.9802 135.502C75.2283 140.167 75.6325 140.482 80.9392 140.094C88.1069 139.571 95.0754 138.292 101.777 135.94C102.587 135.377 104.093 136.396 104.527 134.583C104.894 133.053 106.599 132.082 108.448 131.499C114.498 129.588 118.62 126.424 119.93 120.29C120.487 117.68 122.37 115.001 123.474 112.283C124.329 110.179 126.235 110.578 128.072 110.881C129.865 115.878 127.559 120.29 125.527 124.731C124.523 126.925 121.382 129.216 123.04 131.274C124.966 133.665 128.025 130.955 130.531 130.525C137.05 129.405 139.819 126.036 140.302 119.897C141.264 107.691 136.738 96.4923 132.168 85.3434C127.965 75.0853 122.532 65.3583 115.387 56.3822C112.232 52.4195 110.623 47.6242 107.68 43.4934C106.997 42.536 106.484 41.0957 107.642 40.3465C109.153 39.3675 110.464 40.5796 111.321 41.5736C115.214 46.0958 118.737 50.8494 122.043 55.7212C128.94 65.8794 136.337 76.056 140.133 87.3298C143.646 97.7644 146.55 108.647 146.53 120.36C147.455 117.636 146.133 114.776 149.423 112.858C150.889 119.504 149.737 125.682 148.453 131.801C148.114 133.411 147.735 134.936 147.958 136.557Z" fill="#065C47"/>
<path d="M147.96 136.558C146.308 132.655 148.43 128.942 148.959 125.202C149.483 121.488 149.167 117.901 148.348 114.248C148.348 116.642 148.366 119.035 148.338 121.429C148.327 122.415 148.246 123.554 146.806 123.62C145.344 123.687 145.05 122.571 145.139 121.584C146.092 110.785 140.977 100.751 140.046 90.1653C139.779 87.1367 137.386 84.2296 135.845 81.3158C128.26 66.9767 119.509 53.252 107.915 40.9626C110.9 46.0775 113.315 51.5404 116.975 56.2441C129.643 72.5262 137.509 90.555 141.336 109.811C142.646 116.401 144.366 124.266 136.785 129.786C132.683 132.771 127.23 132.382 122.534 133.952C121.068 134.441 120.073 132.598 120.679 130.788C121.419 128.575 122.662 126.626 123.921 124.646C126.564 120.494 127.645 115.996 127.463 111.248C127.076 111.036 126.944 110.821 127.068 110.603C127.192 110.384 127.318 110.274 127.446 110.274C131.333 105.537 129.909 100.398 128.425 95.4817C127.275 91.6622 125.179 88.0674 123.506 84.3794C121.38 84.8473 122.209 86.3691 121.594 87.2516C120.69 88.5503 119.5 89.1364 117.928 88.3688C116.537 87.6878 116.449 86.6855 117.427 85.5283C119.808 82.7061 115.891 80.8596 115.941 78.4503C116.216 65.2068 109.665 54.1578 102.499 43.0439C96.9196 34.3908 91.1711 25.7977 85.9941 16.9099C81.8811 9.84854 72.232 3.88447 60.9493 10.7127C70.886 -3.15852 77.9391 -3.62805 88.6597 9.70702C107.12 32.6742 125.811 55.5481 140.054 80.9079C147.554 94.2629 152.038 108.292 150.801 123.381C150.434 127.84 149.524 132.268 147.964 136.558H147.96Z" fill="#084236"/>
<path d="M12.8335 134.753C14.8712 144.728 24.0805 147.994 33.0058 151.188C41.4782 154.22 49.7212 153.381 57.9942 149.496C64.4476 146.466 71.0251 142.701 79.1158 144.383C80.631 144.698 82.5033 144.022 83.3623 145.82C81.2551 148.669 83.3905 151.32 84.1105 153.9C86.0768 160.942 90.9662 166.656 95.7052 172.397C92.7238 175.026 87.0223 174.834 85.3907 171.466C82.0389 164.548 75.8562 159.768 70.4179 154.398C69.4461 153.437 68.0794 152.738 68.8013 151.158C68.9291 149.39 69.0569 147.622 69.2675 144.724C63.0227 151.198 55.8324 154.933 48.1421 157.99C38.946 157.612 30.2275 155.793 22.9845 150.479C14.5084 144.258 4.75407 138.875 2.50205 128.148C2.07345 126.106 1.28581 124.05 2.69943 122.05C8.23925 124.927 10.965 129.571 12.8354 134.749L12.8335 134.753Z" fill="#133833"/>
<path d="M68.8013 151.16C74.5235 156.095 79.9467 161.268 84.6726 166.984C86.4735 169.162 85.8644 172.928 90.6617 173.166C92.5753 173.261 94.1506 173.388 95.7034 172.397L95.6131 172.457C98.3689 175.222 95.1563 176.345 93.472 177.109C90.9493 178.254 88.9699 179.21 89.7519 182.104C90.3196 184.198 88.0657 184.513 86.9115 185.519C72.4707 186.373 58.0431 186.003 43.623 185.116C44.4784 182.805 46.7811 183.259 48.6722 183.16C51.5954 183.005 54.5335 183.118 57.466 183.086C66.5474 182.99 72.0759 177.966 71.9406 169.921C71.8917 166.999 71.0289 164.2 70.5326 161.32C67.0437 161.401 66.9685 166.033 63.1938 164.886C65.788 160.544 67.2166 155.828 68.7994 151.161L68.8013 151.16Z" fill="#096C4C"/>
<path d="M3.0942 121.826C3.37994 128.953 5.32367 135.206 11.8541 140.284C17.7455 144.866 23.5842 149.338 30.0733 153.306C34.1262 155.785 38.008 154.44 41.8823 154.981C46.1458 155.577 42.6531 156.831 42.6023 157.783C44.4464 158.561 46.4146 155.905 48.1421 157.991C32.613 163.442 16.9936 158.99 8.34641 146.233C-2.39486 130.387 -1.63729 113.65 4.25781 96.6539C4.92139 96.3692 5.42706 96.5141 5.77858 97.0868C6.6245 98.8717 5.8425 100.587 5.51541 102.332C4.53038 107.588 2.91938 112.798 4.16946 118.219C4.46271 119.495 4.29165 120.82 3.09608 121.826H3.0942Z" fill="#113334"/>
<path d="M63.1956 164.884C66.2221 164.102 66.6545 161.348 68.3275 159.541C69.4742 158.303 70.5156 157.771 71.7413 159.348C76.8224 165.877 73.0252 179.721 65.1525 183.448C61.3835 185.231 57.2892 184.212 53.3529 184.541C50.1177 184.813 46.7942 183.914 43.6249 185.116C40.5156 185.552 37.6733 184.49 34.4965 183.764C46.954 180.754 56.182 174.118 63.1937 164.884H63.1956Z" fill="#0DBE8F"/>
<path d="M86.9133 185.517C87.0788 183.854 89.6616 182.931 88.1559 180.555C86.9848 178.706 88.2555 176.844 91.1335 176.614C93.9833 176.386 95.9252 175.369 95.615 172.457C103.012 177.36 110.441 182.214 119.912 183.824C108.905 185.937 97.8971 185.53 86.9133 185.517Z" fill="#133833"/>
<path d="M5.25595 96.6921C4.92322 96.6738 4.59237 96.6605 4.25964 96.6538C7.48541 85.092 13.779 74.734 20.4261 64.5291C28.9999 51.3655 38.3445 38.6382 48.5011 26.3854C49.7794 30.5362 45.7434 32.6059 43.8147 35.4414C42.3485 37.5976 40.0626 39.3158 39.3615 41.9033C40.2393 43.5466 38.9648 44.7238 38.0681 45.8377C29.6917 56.2407 22.5766 67.3113 15.8412 78.5851C12.8184 83.1256 11.1774 88.2105 8.6133 92.9275C7.82378 94.3811 7.97228 96.5606 5.25783 96.6921H5.25595Z" fill="#274132"/>
<path d="M53.1593 30.3082C58.1032 33.6899 64.3762 31.3655 69.7167 33.3852C74.7622 35.2933 77.6909 37.924 78.8771 43.0506C79.3884 45.2634 82.2645 47.6044 83.4432 50.3833C86.7272 58.1222 86.9622 66.1093 86.8155 74.1796C89.3364 78.467 87.3851 82.5146 85.9753 86.5872C81.9431 87.4913 82.7288 84.3844 82.1837 82.7328C81.4487 80.5066 81.1404 78.6568 77.7642 78.0358C74.1381 77.3698 73.6888 73.765 71.8785 70.9844C70.1435 72.1566 68.2561 73.144 65.7917 72.6744C63.7164 72.2798 61.2895 72.8393 61.0301 69.8705C60.906 68.4503 59.6315 69.5076 58.9266 69.6458C56.7968 70.0654 54.5259 71.2625 52.5239 70.37C49.0538 68.8249 48.7173 75.0004 45.3299 72.453C41.4011 69.4959 41.2732 74.0164 39.2261 74.6957C35.5172 75.9279 32.2388 74.4543 28.9642 73.139C27.9397 71.3391 28.7311 69.6275 29.3853 67.9608C34.2841 55.4799 41.2789 43.9313 49.4429 32.9173C50.3246 31.7285 51.2607 30.4364 53.1593 30.3099V30.3082Z" fill="#05946B"/>
<path d="M84.5692 86.9419C86.1839 82.8077 86.4979 78.4936 86.8137 74.1813C88.9266 70.6581 87.5919 66.8802 87.7367 63.2322C87.9829 57.035 87.8043 50.8262 87.8043 43.8698C91.5095 47.1931 93.425 50.8012 94.5078 54.3094C96.4139 60.4816 98.4009 66.6554 98.9404 73.1873C99.9762 85.7181 99.1133 98.3839 102.11 110.785C102.567 112.675 102.796 114.603 104.311 116.135C106.93 118.64 106.659 121.817 106.905 124.876C102.281 128.775 96.2278 128.447 90.5282 129.21C84.0485 120.084 80.1704 110.302 80.9073 99.3512C82.4713 95.2953 80.5295 90.4234 84.5692 86.9419Z" fill="#064A30"/>
<path d="M53.1593 30.3081C42.918 43.5999 33.9758 57.4528 29.4304 73.2138C29.8608 74.699 29.3909 76.0993 28.8439 77.4679C25.0166 87.0434 22.1273 96.8786 18.4842 106.502C17.8714 108.122 17.9184 110.575 14.6776 110.212C12.4349 108.272 11.9462 105.665 11.6717 103.147C10.7431 94.6125 11.5101 86.2125 14.9746 78.1139C21.3152 65.1002 30.6278 53.6549 39.3577 41.9016C43.4312 37.7957 47.4766 33.6698 51.5934 29.6005C52.7796 28.4267 54.3041 27.1796 53.1574 30.3065L53.1593 30.3081Z" fill="#3DE4C9"/>
<path d="M106.497 124.892C104.899 122.143 105.189 119.023 104.311 116.134C106.759 111.051 112.347 107.908 114.733 102.749C116.678 98.5436 119.739 94.9405 123.844 91.6804C124.871 93.4254 125.957 94.6774 125.198 97.6079C124.147 101.664 123.6 106.504 127.442 110.275C127.444 110.6 127.45 110.925 127.459 111.249C125.826 111.059 125.113 111.522 124.438 113.074C123.401 115.46 124.386 118.75 120.836 120.125C123.617 124.191 119.034 125.299 117.126 127.548C114.934 130.134 112.503 131.567 108.531 132.448C105.821 133.049 105.685 136.89 102.159 136.622C100.021 136.496 99.4461 134.794 98.3257 133.634C98.6359 131.832 100.247 130.72 101.817 130.405C105.362 129.694 106.311 127.641 106.497 124.894V124.892Z" fill="#05745A"/>
<path d="M98.8201 133.649C100.715 133.952 100.959 135.705 102.159 136.621C94.8725 140.397 86.684 140.843 78.5914 141.428C73.6004 141.789 72.559 140.374 73.9689 136.021C74.3279 134.913 76.5593 133.895 74.7885 132.733C72.8692 131.471 71.4988 133.246 70.1905 134.228C64.6093 138.419 58.451 141.742 51.7476 144.346C49.2361 145.322 47.9372 145.219 48.159 142.462C48.4974 139.486 50.3716 137.039 51.7401 134.425C52.821 132.357 53.5635 130.211 54.0297 127.986C55.3606 121.632 54.6801 121.035 47.5105 122.087C46.0781 122.297 44.6438 122.565 43.1681 122.37C42.6361 122.2 42.2583 121.889 42.0477 121.421C42.606 114.788 44.7753 108.394 45.8017 101.829C45.9784 100.705 46.3769 99.4744 47.8977 99.273C49.661 99.0382 50.5313 100.269 51.193 101.414C53.5315 105.46 55.4753 109.689 56.9622 114.012C58.0262 117.104 59.2913 116.727 61.8723 115.502C68.6359 112.293 74.217 108.043 78.4353 102.338C79.3358 101.121 79.8734 99.1714 82.3529 99.5743C81.2419 109.886 86.4979 118.802 90.3628 128.013C90.547 128.451 91.5508 128.619 92.173 128.912C94.8461 129.987 95.3368 133.464 98.8219 133.647L98.8201 133.649Z" fill="#058764"/>
<path d="M14.9746 78.1156C14.0704 87.3847 11.1436 96.5955 13.9257 105.973C14.3411 107.376 14.8017 108.768 15.2416 110.165C20.3772 117.005 28.0149 119.706 36.8538 120.498C38.7938 120.673 40.8823 120.553 42.5083 121.845L42.7188 122.025C43.3561 122.695 43.5102 123.509 43.1963 124.273C41.1661 129.211 40.2713 134.366 39.3859 139.526C40.1472 141.592 42.1586 144.078 39.9762 145.727C37.8163 147.357 34.8593 146.068 32.2031 145.214C24.9245 142.873 19.3283 138.178 12.8354 134.753C9.58707 130.445 6.34063 126.136 3.09606 121.827C0.919236 113.252 3.17126 104.977 5.25597 96.6921C7.78433 91.3841 10.3409 86.0843 12.8204 80.758C13.3147 79.6957 13.7133 78.6517 14.9765 78.1173L14.9746 78.1156Z" fill="#058764"/>
<path d="M39.3859 139.526C36.8688 133.151 40.9029 127.753 42.7188 122.024C44.4257 120.846 46.5367 121.143 48.4654 120.767C56.5618 119.193 56.7742 119.201 55.776 126.349C54.9489 132.28 52.413 137.728 48.159 142.462C44.8994 142.268 43.6117 137.455 39.3859 139.526Z" fill="#065639"/>
<path d="M64.3555 172.557C61.2144 179.483 54.8437 182.136 46.9221 182.738C53.4977 180.304 58.8909 176.383 64.3555 172.557Z" fill="#30EDD0"/>
<path d="M42.5083 121.845C34.489 122.142 26.8964 120.893 20.1498 116.819C17.518 115.229 15.3995 113.237 15.2416 110.165C20.1611 99.5609 22.7082 88.2738 27.2386 77.5611C27.8645 76.0809 27.9134 74.351 29.4304 73.2155C31.4287 73.317 33.7127 72.9141 35.3575 73.6417C37.7768 74.714 38.869 74.8272 39.525 72.2298C40.0683 70.0752 43.0967 70.7063 44.6532 69.2278C45.3882 68.5284 45.4972 71.4872 46.8526 73.1638C47.7925 69.4692 49.2982 67.4712 53.5522 69.5191C55.011 70.2218 57.0167 68.3969 59.0902 68.5301C60.2481 68.6034 60.4455 65.8977 62.4701 67.1232C64.8462 68.5618 61.2238 69.8938 62.2765 71.3839C66.2297 71.2341 70.6304 72.5961 73.435 67.5877C72.8974 73.1372 75.7529 76.3473 80.6122 76.5438C82.3021 76.6121 82.1217 77.5878 82.3529 78.4769C83.0879 81.3007 83.8304 84.1213 84.5711 86.9435C83.8323 91.1559 83.0935 95.3668 82.3529 99.5792C76.9033 107.218 70.3277 113.72 60.72 117.503C58.0055 118.572 57.0882 118.314 56.1689 115.833C54.1406 110.354 51.7871 104.964 48.1102 98.7567C45.8111 107.212 45.2735 114.761 42.5083 121.85V121.845Z" fill="#04B786"/>
<path d="M98.82 133.649C94.3047 134.601 93.5039 131.464 92.173 128.913C96.4289 126.125 102.061 127.177 106.499 124.892C107.813 127.693 110.338 130.763 103.636 130.782C102.029 130.787 100.425 132.643 98.8219 133.649H98.82Z" fill="#065C47"/>
</g>
<defs>
<clipPath id="clip0_191_1417">
<rect width="151" height="186" fill="white"/>
</clipPath>
</defs>
</svg>
