<svg width="525" height="537" viewBox="0 0 525 537" fill="none" xmlns="http://www.w3.org/2000/svg">
<g clip-path="url(#clip0_191_1295)">
<path d="M5.67798 224.593C11.691 180.151 29.9457 140.572 57.4863 106.003C90.4476 64.6209 130.046 30.9595 181.772 14.4224C184.664 13.5004 187.808 13.3673 190.833 12.8673C194.408 18.8032 193.715 25.097 192.393 31.4504C179.904 42.5653 162.856 44.9048 149.178 54.1986C133.374 64.9375 118.039 76.19 103.084 88.016C99.2377 91.0574 96.0476 94.7777 94.0463 99.3695C93.0319 101.085 91.765 102.585 90.3008 103.925C58.8633 132.531 43.0183 169.913 30.9326 209.382C29.5051 214.047 28.8258 218.96 25.3235 222.74C19.0259 225.969 13.0221 232.451 5.67798 224.593Z" fill="#F2BD33"/>
<path d="M191.003 30.9458C190.75 24.9181 188.125 18.9179 190.837 12.8673C227.384 -0.692653 264.908 -2.75693 303.175 3.05515C319.915 5.60109 335.999 10.6242 352.211 15.2114C373.091 26.1612 395.188 34.9642 413.819 49.9141C416.05 58.3272 428.553 65.7678 416.252 75.5754C405.061 75.6166 399.319 65.3457 390.001 61.8044C332.891 23.7437 270.847 15.5463 204.837 31.0926C200.27 32.166 195.565 35.1156 191.003 30.9504V30.9458Z" fill="#F58C21"/>
<path d="M5.67793 224.593C12.5126 228.919 17.603 220.96 23.974 222.006C30.9876 230.74 25.7182 240.364 24.5386 248.883C18.4475 292.838 29.0001 333.518 46.2038 373.221C48.8339 379.29 53.1394 384.744 53.1027 391.808C50.7204 399.588 45.6943 404.281 37.4138 405.134C33.1588 398.561 28.9083 391.992 24.6533 385.418C14.3073 358.271 5.42547 330.765 1.81308 301.746C-1.42293 275.75 -0.436062 250.071 5.67793 224.593Z" fill="#F3752A"/>
<path d="M37.4138 405.134C42.0819 401.423 46.7546 397.717 51.4228 394.005C58.6062 394.382 60.1944 400.818 63.3157 405.331C88.2765 441.452 120.205 469.416 159.955 488.292C164.504 490.453 168.823 492.692 170.366 497.99C170.531 503.889 166.106 505.063 161.823 505.362C157.908 505.632 155.618 507.66 153.424 510.33C152.212 510.683 151.124 510.44 150.137 509.674C104.259 487.054 67.6349 454.099 40.0577 411.079C38.901 409.272 38.2813 407.121 37.4138 405.13V405.134Z" fill="#EF441C"/>
<path d="M472.632 106.824C475.069 111.315 477.506 115.806 479.944 120.297C474.224 122.095 468.978 124.407 467.908 131.297C464.879 131.921 462.584 130.407 461.051 128.223C449.544 111.815 434.823 98.3557 420.947 84.1076C418.519 81.6121 415.884 78.9928 416.876 74.8872C416.513 69.6852 423.812 63.052 413.387 59.5015C411.322 58.795 412.203 53.1573 413.819 49.9141C437.426 64.7493 454.859 85.9609 472.632 106.824Z" fill="#E95B1C"/>
<path d="M150.132 509.674C151.321 509.527 152.515 509.38 153.704 509.233C155.641 507.816 157.931 507.435 160.047 508.178C179.344 514.949 198.663 521.623 218.488 526.724C219.778 527.055 220.453 528.44 221.063 529.637C220.792 530.293 220.521 530.949 220.246 531.61C199.269 531.229 180.578 522.376 161.291 515.738C157.573 513.72 153.85 511.697 150.132 509.674Z" fill="#A56538"/>
<path d="M90.0942 101.053C90.3191 100.425 90.7506 100.021 91.3886 99.842C100.752 85.8554 114.734 76.8689 127.926 67.3136C159.758 44.258 195.496 30.0833 234.269 23.8951C241.512 22.7391 249.329 21.34 256.393 25.6704C258.243 32.0834 261.543 37.7578 264.784 43.5745C270.484 53.7995 267.932 58.5932 256.067 58.9143C238.069 59.4052 220.861 63.4695 203.726 68.2724C163.912 79.3506 134.384 105.145 107.39 134.884C89.1624 154.963 77.141 178.638 65.7484 202.79C55.9486 200.179 54.4935 197.156 56.6554 186.142C57.5459 181.592 64.4265 174.399 52.2398 173.995C49.9172 173.917 50.39 170.353 50.849 168.252C51.8909 163.481 52.3362 158.665 52.4326 153.793C61.6127 133.811 74.4466 116.434 90.0942 101.062V101.053Z" fill="#E6842D"/>
<path d="M90.0941 101.053C78.3665 119.223 62.1589 134.435 54.2823 155.151C50.6745 170.385 44.253 184.693 39.5298 199.565C32.1443 222.809 27.7975 246.832 28.3208 270.888C29.5142 325.472 44.6615 376.019 79.996 418.836C106.586 451.057 138.607 476.43 178.293 491.132C209.202 505.224 241.787 507.164 275.276 506.747C323.55 506.142 365.412 489.453 403.051 460.723C431.142 439.282 453.757 412.891 470.704 381.776C473.472 376.693 475.501 371.115 480.127 367.23C481.339 366.427 482.647 366.23 484.047 366.62C489.427 374.248 483.744 380.097 480.673 386.189C467.018 413.272 447.368 435.704 425.593 456.47C380.954 496.095 329.577 518.899 269.121 518.697C254.878 518.651 240.589 519.807 226.387 517.683C211.277 514.577 196.336 510.839 181.827 505.522C177.292 503.862 172.468 502.761 169.337 498.586C163.655 490.88 154.098 489.76 146.437 485.54C106.453 463.517 75.9567 431.919 51.4273 394.019C40.1357 369.776 29.45 345.339 24.0704 318.916C17.9426 288.824 17.5387 258.782 23.8455 228.68C24.2953 226.543 23.9556 224.244 23.9786 222.015C33.8335 183.954 47.8929 147.811 73.143 116.998C78.036 111.026 81.7264 103.461 90.0987 101.062L90.0941 101.053Z" fill="#8F270F"/>
<path d="M255.502 25.9548C214.325 26.6796 177.241 39.4047 142.329 61.2539C124.042 72.6991 108.069 86.5894 91.3885 99.8374C91.8613 91.7684 98.3104 87.4197 103.47 83.2682C130.161 61.7814 158.124 42.1983 191.003 30.9503C235.972 17.5417 281.312 15.2664 326.612 28.4182C350.462 35.3449 373.954 43.8039 393.127 60.7263C392.021 61.8089 390.699 62.4053 389.156 62.5291C374.789 58.8501 362.626 50.0884 348.906 44.9461C323.702 35.5009 297.768 29.5696 270.668 29.6521C265.348 29.6705 259.872 29.9778 255.502 25.9502V25.9548Z" fill="#863117"/>
<path d="M389.831 61.0337C390.928 60.9327 392.025 60.8318 393.122 60.7263C402.78 62.5291 407.893 71.9514 416.876 74.8872C434.479 92.9794 452.78 110.439 467.592 131.04C477.915 140.104 484.433 151.114 485.057 165.137C484.139 166.16 482.987 166.642 481.615 166.578C475.363 163.729 473.334 157.376 470.502 152.082C459.481 131.513 445.509 113.356 428.236 97.7043C418.446 87.9793 407.824 79.2773 396.45 71.456C392.852 68.9834 388.656 66.6485 389.836 61.0337H389.831Z" fill="#A73C18"/>
<path d="M226.544 514.49C274.381 518.142 321.182 515.077 365.118 493.26C386.816 482.485 406.562 468.829 424.955 453.14C426.644 452.397 428.411 452.47 430.206 452.525C435.034 452.686 441.24 451.191 443.453 456.406C445.509 461.264 439.427 463.604 436.714 466.847C433.286 470.948 429.049 474.274 425.074 477.833C394.05 504.096 358.821 521.495 318.579 528.394C315.61 528.904 312.764 530.133 309.858 531.027C283.566 534.596 257.27 537.895 230.845 532.463C220.852 528.748 219.658 523.789 226.548 514.49H226.544Z" fill="#F3B422"/>
<path d="M425.069 477.838C428.673 469.42 437.701 465.581 442.204 457.626C437.435 452.163 429.228 459.906 424.955 453.145C444.49 432.896 463.534 412.277 476.561 386.95C479.82 380.62 484.043 374.716 484.525 367.275C484.222 358.151 488.656 350.197 491.185 341.839C498.277 318.398 503.082 294.732 502.008 270.089C501.779 264.81 501.623 259.433 503.523 254.295C511.845 244.474 513.3 244.497 521.539 254.539C525.969 275.695 520.63 296.494 519.18 317.439C513.764 358.06 497.79 394.446 473.605 427.13C459.646 445.993 445.601 465.117 425.06 477.843L425.069 477.838Z" fill="#EF6623"/>
<path d="M519.083 254.172C514.792 249.002 510.509 246.8 506.272 254.227C501.797 251.396 502.353 246.685 501.861 242.387C499.433 221.249 494.242 200.822 486.765 180.899C484.984 176.151 481.642 171.348 483.978 165.706C480.99 152.986 472.756 142.738 467.596 131.04C466.614 121.627 470.038 117.26 479.935 120.297C498.758 146.788 509.729 176.527 516.435 208.042C518.849 220.024 520.35 232.13 521.466 244.286C521.787 247.795 522.003 251.392 519.088 254.172H519.083Z" fill="#EE9333"/>
<path d="M519.083 254.172C520.759 238.653 516.022 223.497 516.43 208.042C526.841 244.259 527.777 280.718 519.189 317.426C517.073 301.379 522.407 285.723 521.741 269.727C521.521 264.383 521.814 259.043 519.079 254.172H519.083Z" fill="#B1563B"/>
<path d="M226.02 530.408C253.914 536.583 281.895 531.569 309.849 531.027C286.306 538.748 262.13 537.587 238.065 535.243C232.221 534.674 225.502 536 220.255 531.605L220.645 531.06C222.266 529.44 224.125 529.743 226.02 530.408Z" fill="#A56538"/>
<path d="M226.02 530.408C224.23 530.624 222.435 530.844 220.645 531.059C197.92 525.041 175.575 517.866 153.704 509.238C150.564 504.068 153.043 501.508 158.041 502.027C162.608 502.499 166.625 503.283 169.337 498.582C188.405 503.884 207.476 509.192 226.544 514.495C226.947 519.816 222.491 524.981 226.02 530.408Z" fill="#F08E25"/>
<path d="M177.072 493.747C151.748 486.182 130.735 471.315 110.612 454.833C71.3116 422.635 45.2123 381.67 33.1175 332.72C17.9289 271.232 24.2402 211.597 54.2778 155.142C58.1747 161.004 53.1394 166.491 53.4056 172.261C57.1144 173.037 58.721 165.779 62.237 169.504C64.5595 171.963 63.3019 176.041 62.136 179.445C59.3268 187.647 55.283 196.037 64.2107 203.244C67.8874 206.73 66.0238 210.707 65.0507 214.483C47.7736 281.305 59.8868 342.495 100.289 398.253C110.795 412.749 122.294 426.327 137.317 436.442C148.173 444.085 159.111 451.585 172.33 454.714C181.313 453.438 186.738 460.567 193.674 464.003C198.085 466.191 196.915 469.806 193.275 472.297C188.657 475.462 186.247 478.187 188.024 485.086C189.281 489.953 185.288 496.536 177.067 493.751L177.072 493.747Z" fill="#F36C26"/>
<path d="M389.831 61.0337C402.348 73.7451 419.258 81.3599 430.265 95.8236C425.34 102.755 421.732 96.6539 418.349 94.2272C409.022 87.5344 401.306 78.2314 387.816 77.603C384.906 84.8279 387.426 91.1721 393.76 96.4704C398.552 100.48 403.156 104.691 407.581 109.081C409.871 111.356 411.464 114.347 408.65 117.297C406.42 119.632 403.551 118.824 401.311 117.274C395.426 113.209 389.156 109.829 382.923 106.37C381.867 105.672 380.931 104.828 380.068 103.906C372.926 94.4795 364.136 88.4335 351.587 90.0574C332.317 84.36 313.838 76.2176 293.908 72.6028C268.001 67.9055 242.292 69.5248 216.597 73.8414C212.264 73.4973 207.857 74.6029 203.566 73.8093C197.254 72.6441 198.819 69.3826 201.863 65.9788C219.287 58.6759 237.482 55.1895 256.338 55.4372C264.132 55.5382 267.248 54.6803 262.199 45.9141C258.835 40.0745 251.849 34.4872 255.507 25.9594C304.07 23.1658 348.309 36.9276 389.836 61.0383L389.831 61.0337Z" fill="#E95B1C"/>
<path d="M201.854 65.9787C200.656 77.3964 209.886 67.7999 212.613 71.3137C213.586 77.4607 208.174 76.7083 204.989 78.3001C191.026 85.2957 176.218 90.5436 162.824 98.7227C158.578 101.319 154.525 103.993 152.763 108.98C151.707 110.654 150.33 111.998 148.599 112.971C146.157 114.076 142.752 112.751 140.994 114.668C124.612 132.558 101.386 145.16 96.3413 171.871C95.7033 175.619 95.0285 179.362 94.4226 183.124C86.6929 198.418 80.8681 214.483 75.204 230.621C73.4322 234.992 71.463 239.3 71.3758 244.158C70.926 252.117 71.3299 260.066 71.1922 268.021C70.4257 284.461 72.2571 300.673 75.4151 316.76C76.7095 330.995 80.7763 344.261 88.8641 356.229C91.843 360.642 94.0508 365.459 92.9309 371.074C89.8004 375.528 88.5978 372.468 85.9264 369.344C98.2186 391.854 115.555 408.946 132.543 426.318C135.334 429.172 139.167 431.194 140.599 435.107C141.554 437.713 141.517 440.562 137.23 440.034C105.301 418.566 84.9717 387.744 70.444 353.307C49.8116 304.393 48.15 254.02 64.2061 203.244C65.9182 185.821 76.3377 171.844 85.4398 158.486C112.329 119.044 145.515 85.97 191.668 68.8458C194.964 67.6209 198.448 66.9191 201.844 65.9741L201.854 65.9787Z" fill="#AD3415"/>
<path d="M381.831 103.989C391.745 104.691 398.204 112.269 407.15 115.852C404.175 108.402 397.529 104.415 391.699 99.5575C383.419 92.6583 379.981 84.0892 385.305 73.8229C386.559 71.41 387.187 70.5384 392.122 72.3871C406.695 77.8506 414.65 93.0803 430.265 95.8235C453.808 114.365 467.808 139.893 481.445 165.683C494.664 189.555 500.411 215.794 502.541 242.419C505.474 279.126 502.642 315.641 490.152 350.789C488.087 356.596 486.705 362.885 481.78 367.298C454.143 426.483 411.18 471.062 350.398 495.017C293.288 517.527 234.668 518.536 177.072 493.747C180.95 490.526 189.974 491.306 182.543 480.953C177.898 474.485 190.08 472.888 194.427 467.356C186.417 466.122 182.341 456.934 173.161 458.503C169.842 454.998 159.643 456.452 164.757 446.865C169.948 444.796 174.391 447.42 178.802 449.365C207.665 462.108 237.22 471.402 269.397 468.494C272.504 468.214 275.644 468.778 278.453 470.37C282.24 473.907 279.275 475.783 276.378 476.719C272.293 478.04 268.295 479.485 264.439 481.343C259.656 481.444 254.874 481.356 250.137 481.714C269.869 480.278 289.373 477.287 308.573 472.425C324.184 463.484 342.319 461.035 358.247 452.392C373.041 444.365 385.673 434.043 397.905 422.947C402.913 418.401 407.857 413.956 414.058 411.139C419.864 407.694 424.266 402.854 427.837 397.189C428.484 396.125 429.228 395.143 430.004 394.18C437.036 386.721 441.364 377.496 446.615 368.858C461.248 345.142 467.899 318.82 469.336 291.521C470.429 270.778 470.676 249.892 469.933 228.373C468.23 233.254 470.878 237.286 470.562 241.437C470.286 245.08 470.254 249.231 465.737 249.777C461.097 250.341 460.023 246.231 459.334 242.699C458.655 239.203 458.407 235.625 457.177 232.249C452.509 209.615 443.618 188.477 434.057 167.591C422.343 149.146 409.321 131.884 391.686 118.471C386.976 114.893 380.848 111.695 381.831 103.989Z" fill="#E98232"/>
<path d="M481.784 367.298C507.677 300.049 507.48 232.845 481.449 165.683C482.294 165.669 483.134 165.679 483.978 165.701C497.271 193.734 504.689 223.249 506.272 254.227C506.644 287.136 503.615 319.531 492.387 350.812C490.303 356.624 488.931 362.629 484.525 367.275C483.611 367.285 482.698 367.294 481.784 367.303V367.298Z" fill="#9D3215"/>
<path d="M164.063 447.401C163.696 453.874 171.1 453.993 173.152 458.498C159.524 455.576 147.98 448.576 137.234 440.03C142.164 435.121 136.146 434.465 134.154 432.502C115.955 414.547 97.2639 397.019 85.5041 373.753C84.9304 372.615 84.5815 371.367 83.8976 369.569C87.7441 368.454 89.144 372.344 91.7879 372.858C97.7321 375.578 100.28 382.436 106.49 384.836C126.847 399.776 142.954 419.3 161.759 435.915C162.439 439.754 163.632 443.502 164.068 447.401H164.063Z" fill="#C55C1E"/>
<path d="M381.831 103.989C399.149 121.182 418.854 136.159 431.693 157.509C433.272 160.137 434.571 162.935 435.998 165.656C432.859 170.091 428.682 171.426 423.532 169.83C424.638 162.665 419.327 158.587 415.774 153.605C402.734 135.32 388.078 118.81 367.317 108.902C350.687 96.0483 330.371 90.8234 311.74 82.1259C308.614 80.6672 305.897 84.1673 302.789 82.814C278.999 73.0707 254.516 73.1119 229.72 77.635C227.448 78.0479 225.607 79.2222 224.446 81.3002C223.565 83.0067 222.422 84.4884 220.815 85.5802C213.921 82.2452 207.949 83.5709 201.101 87.1765C185.522 95.3832 168.585 101.214 156.481 114.975C152.253 115.673 150.325 113.764 150.403 109.599C151.308 94.5299 165.491 93.8877 174.584 88.5665C186.532 81.5755 199.871 76.9561 212.613 71.3137C258.665 60.4694 302.996 66.598 346.12 84.7866C348.975 85.993 351.968 86.8875 354.891 87.9243C366.091 89.5711 374.482 95.929 381.867 103.98H381.831V103.989Z" fill="#834829"/>
<path d="M381.867 103.984C372.875 98.631 363.883 93.2776 354.891 87.9243C366.105 85.493 376.529 91.695 381.867 103.984Z" fill="#E98232"/>
<path d="M150.403 109.599C152.129 111.379 153.86 113.163 155.585 114.943C166.565 119.549 167.983 131.595 174.68 139.554C178.963 144.641 181.703 150.848 185.315 156.444C194.835 174.193 207.752 189.688 218.644 206.524C221.774 211.363 225.584 215.891 226.208 221.974C226.433 224.648 226.144 227.249 225.139 229.754C220.021 240.648 211.066 235.557 203.185 235.024C185.361 228.763 169.512 219.175 155.466 206.57C156.15 199.771 161.502 197.322 166.689 197.693C175.093 198.299 175.984 192.28 178.283 187.193C181.542 179.991 174.845 179.179 171.15 176.743C165.055 172.725 162.044 165.624 155.792 161.848C153.433 160.422 150.692 159.105 148.439 161.426C146.249 163.679 147.342 166.426 148.861 168.798C150.564 171.459 153.212 173.312 155.03 175.867C157.683 179.601 158.785 183.514 153.671 185.867C147.938 188.509 148.145 194.748 144.891 198.831C134.884 200.978 128.44 193.698 121.018 189.45C112.269 184.441 102.873 180.133 96.4973 171.761C97.576 161.403 105.746 155.256 111.319 147.733C121.564 133.893 133.186 121.214 147.948 111.865C148.765 111.108 149.582 110.347 150.394 109.59L150.403 109.599Z" fill="#E8C82E"/>
<path d="M72.583 318.476C67.5844 301.889 66.4415 284.902 67.3687 267.704C80.5193 266.984 93.7249 267.589 106.839 265.993C110.029 265.608 113.003 266.158 115.34 268.622C117.984 271.979 115.018 275.181 114.867 278.796C119.255 276.645 115.5 270.594 120.081 268.929C126.778 267.415 133.379 268.787 139.741 270.31C161.8 275.599 184.159 275.677 206.609 275.002C209.574 278.48 207.766 281.819 206.347 285.182C203.042 290.072 197.709 291.324 192.513 292.608C157.738 301.196 123.216 310.788 88.2398 318.554C83.076 319.701 77.779 321.522 72.5784 318.471L72.583 318.476Z" fill="#E9BE37"/>
<path d="M115.987 270.86C105.599 266.947 95.0606 270.645 84.7972 271.287C78.036 271.709 72.863 270.47 67.3687 267.709C66.368 258.878 66.5011 250.084 68.1857 241.336C76.1816 235.859 84.889 239.538 92.7748 240.625C124.566 245.011 156.416 248.97 188.18 253.525C193.913 254.346 199.572 255.699 204.883 258.213C210.579 263.475 212.167 269.245 207.045 275.828C186.468 282.071 165.959 278.223 145.469 275.328C136.362 274.044 127.32 272.342 118.245 270.833C117.502 271.635 116.753 271.686 115.987 270.86Z" fill="#FAE7A4"/>
<path d="M72.7942 230.442C76.4846 213.203 83.1999 197.129 91.6869 181.748C101.904 177.656 105.521 186.963 111.512 191.464C120.145 202.244 133.755 205.611 144.367 213.437C148.324 216.354 152.772 218.446 157.004 220.932C162.732 226.584 166.583 233.777 172.505 239.327C174.905 241.575 177.797 244.873 173.207 248.204C159.744 251.447 146.929 246.589 133.884 244.951C116.744 242.795 99.5911 241.291 82.3232 240.758C76.3193 240.575 68.5162 240.726 72.7896 230.451L72.7942 230.442Z" fill="#9F4284"/>
<path d="M72.583 318.476C111.635 308.788 150.706 299.154 189.731 289.342C194.812 288.062 199.664 285.856 204.621 284.081C212.08 281.324 211.621 286.361 211.516 291.063C207.082 299.012 198.154 299.164 191.2 302.765C166.771 308.233 143.114 316.536 118.833 322.522C116.625 322.779 114.481 323.407 112.338 323.999C84.5998 331.664 82.0294 338.38 97.0757 363.271C99.7196 367.642 102.042 369.899 107.628 366.716C121.867 358.606 135.394 349.358 149.885 341.628C170.049 330.871 190.085 319.738 206.535 303.375C209.404 300.522 212.911 300.655 216.344 302.719C221.393 308.664 220.104 313.692 214.155 318.068C180.197 339.137 146.336 360.367 113.164 382.67C110.566 384.414 107.94 386.07 104.695 386.29C96.9471 385.115 94.8587 378.505 91.7833 372.854C90.4338 360.927 80.9737 352.761 77.3796 341.77C74.8734 334.11 71.8532 326.729 72.5876 318.476H72.583Z" fill="#794143"/>
<path d="M109.552 192.303C103.034 189.73 99.816 181.587 91.6823 181.748C90.9846 177.752 92.6233 174.28 94.161 170.789C95.1662 169.88 96.2632 169.706 97.4612 170.385C112.884 180.982 128.463 191.321 145.607 199.037C151.06 197.854 153.915 201.212 156.398 205.207C171.747 215.776 187.757 225.226 204.373 233.662C210.001 235.4 218.07 235.703 216.941 243.827C215.986 250.69 216.069 260.291 204.759 260.374C159.23 254.029 113.701 247.685 68.1765 241.336C69.3837 237.556 69.0945 233.153 72.7895 230.437C72.8997 233.543 72.6105 237.625 76.7324 237.685C89.3781 237.868 102.074 238.162 114.674 238.428C122.564 238.598 131.029 240.91 139.263 241.896C151.069 243.304 162.604 247.139 174.703 245.928C183.539 242.213 190.7 248.043 199.568 250.364C189.41 238.722 176.502 232.364 164.688 224.565C147.792 211.276 127.623 203.579 109.552 192.308V192.303Z" fill="#5F4548"/>
<path d="M97.4613 170.385C96.3597 170.523 95.2626 170.656 94.161 170.793C93.0043 162.844 96.8875 155.431 101.074 150.412C112.067 137.242 125.153 125.843 137.037 113.384C140.709 109.53 144.23 111.608 147.957 111.879C130.492 130.834 112.393 149.247 97.4613 170.39V170.385Z" fill="#BC7126"/>
<path d="M422.026 168.234C426.685 167.376 431.339 166.513 435.998 165.656C447.529 185.803 455.768 207.166 459.991 230.029C458.246 232.208 456.355 234.199 453.606 235.121C451.605 235.891 449.525 236.323 447.409 236.653C410.45 245.506 373.151 252.773 336.049 260.956C331.689 261.92 327.305 263.089 322.922 260.988C315.779 253.58 314.223 244.529 315.238 234.74C320.434 225.299 329.49 219.923 338.491 215.57C362.121 204.134 382.652 187.84 405.157 174.693C410.881 172.816 414.117 164.399 422.026 168.234Z" fill="#6C3844"/>
<path d="M164.063 447.401C157.022 445.874 158.642 441.819 161.167 437.502C161.575 437.039 161.989 436.575 162.397 436.112C164.256 435.383 166.042 435.575 167.781 436.502C175.35 440.589 182.506 445.695 191.604 445.924C214.641 452.103 214.944 452.158 219.585 428.557C222.44 414.029 229.706 401.006 232.745 386.533C234.255 379.34 235.751 372.454 232.781 365.555C231.207 361.895 231.244 358.95 233.374 355.541C236.256 350.931 233.006 348.105 229.642 345.555C228.678 344.766 227.884 343.83 227.214 342.789C225.281 338.99 225.878 334.398 223.386 330.77C221.348 327.54 218.97 324.458 219.002 320.361C219.153 318.572 219.039 316.751 219.319 314.999C219.847 311.678 217.377 306.989 221.678 305.393C225.24 304.072 228.334 307.306 231.019 309.636C235.517 313.54 240.686 316.054 246.336 317.733C251.38 319.233 255.401 321.719 255.594 327.733C253.024 347.789 248.103 367.514 246.038 388.088C251.468 388.189 251.348 384.528 251.743 381.845C253.428 370.445 255.512 359.11 257.224 347.715C257.871 343.417 257.807 338.655 262.86 336.495C264.384 336.302 265.761 336.642 267.023 337.509C268.442 339.44 268.878 341.623 268.837 343.949C265.903 358.725 268.02 373.179 271.586 387.551C274.634 399.831 272.793 402.304 259.789 403.226C254.901 403.57 249.976 403.299 245.138 404.042C237.835 406.474 239.189 413.428 238.097 418.625C235.356 431.676 232.846 444.823 232.713 458.25C235.54 466.851 243.082 464.874 249.287 465.438C268.29 467.163 287.055 463.237 305.989 462.796C308.288 463.764 309.753 465.374 309.95 467.957C300.715 475.196 290.786 477.925 279.619 472.645C238.487 476.182 200.614 464.81 164.063 447.406V447.401Z" fill="#7F4539"/>
<path d="M279.623 472.645C289.818 471.673 300.118 471.264 309.693 466.994C312.566 462.379 317.611 461.489 322.183 460.273C339.882 455.558 355.823 447.089 371.457 437.91C394.279 421.667 412.465 401.052 428.062 377.987C441.621 356.523 451.031 333.293 457.705 308.875C460.652 296.164 461.06 283.2 462.01 270.282C462.304 266.31 463.098 261.282 468.368 261.658C473.541 262.025 471.962 267.076 471.907 270.31C471.347 304.618 466.476 337.944 448.763 368.207C442.622 377.744 437.522 387.973 430.252 396.799L430.334 396.694C426.685 403.001 420.034 406.882 416.743 413.478C405.63 417.167 399.053 426.727 391.034 434.135C368.414 455.025 339.891 463.7 312.135 474.141C297.281 479.003 281.978 480.127 266.477 479.673C265.247 477.076 264.632 474.934 268.827 474.732C272.495 474.553 276.498 475.737 279.628 472.65L279.623 472.645Z" fill="#E8A843"/>
<path d="M446.257 369.138C465.026 336.467 469.373 300.852 468.404 264.172C463.442 279.438 466.688 296.09 460.087 311.136C455.938 312.178 451.494 315.329 448.313 309.471C459.302 287.682 458.132 264.764 454.505 241.653C454.014 238.511 453.941 235.446 454.473 232.341C456.314 231.575 458.15 230.804 459.991 230.038C463.754 235.295 461.606 242.181 465.012 249.869C470.626 240.694 465.613 231.845 469.836 221.685C477.662 273.255 475.317 320.788 453.312 366.097C451.995 368.812 449.337 370.876 447.304 373.243C445.353 372.285 445.004 370.918 446.262 369.142L446.257 369.138Z" fill="#AA601C"/>
<path d="M266.473 479.668C281.689 477.824 296.91 475.985 312.13 474.136C290.438 483.407 267.657 483.026 244.693 479.668H266.473Z" fill="#B05312"/>
<path d="M446.257 369.138C446.601 370.505 446.946 371.867 447.294 373.234C442.879 382.005 439.276 391.359 430.247 396.795C435.585 387.574 440.919 378.358 446.257 369.138Z" fill="#9B4A13"/>
<path d="M215.862 474.774C222.697 475.934 229.532 477.095 238.909 478.687C228.806 481.338 221.742 479.87 215.862 474.774Z" fill="#B05312"/>
<path d="M416.738 413.474C418.074 405.295 424.344 401.107 430.33 396.689C428.769 404.685 422.402 408.799 416.738 413.474Z" fill="#9B4A13"/>
<path d="M220.806 321.398C222.637 324.283 224.469 327.169 226.305 330.054C226.351 333.573 226.516 336.88 224.726 340.362C210.488 368.101 193.275 394.102 177.783 421.098C173.946 427.786 169.039 433.451 162.002 436.988C162.002 436.988 161.176 437.488 161.172 437.493C140.438 422.52 124.231 402.57 104.691 386.28C124.979 368.248 148.856 355.486 171.628 341.137C185.091 332.655 197.608 322.591 212.268 316.04C215.734 316.834 218.961 318.008 220.806 321.389V321.398Z" fill="#ECC832"/>
<path d="M182.644 157.66C173.625 143.426 164.61 129.187 155.59 114.948C156.857 102.906 168.465 101.062 175.878 95.8786C185.591 89.0894 197.213 85.0297 208.027 79.8185C213.728 77.0708 218.291 76.9698 219.264 84.837C226.406 88.8738 223.9 96.8465 226.603 102.695C235.871 136.637 243.05 171.059 250.228 205.496C250.297 210.106 249.847 214.689 244.248 215.675C239.212 216.565 235.967 213.271 233.562 209.423C228.421 201.198 224.281 192.477 221.348 183.229C220.696 181.174 220.402 179.023 220.021 176.885C217.974 165.435 210.959 160.337 198.976 161.591C192.178 165.899 187.505 161.389 182.639 157.665L182.644 157.66Z" fill="#26802D"/>
<path d="M303.827 82.0296C306.466 79.7635 309.583 76.7955 312.929 78.5662C331.533 88.4151 353.014 92.5482 369.382 106.819C370.039 109.42 369.061 111.728 368.115 114.049C361.712 125.292 355.658 136.742 348.709 147.687C345.202 152.238 342.54 157.587 336.93 160.165C327.369 162.481 329.178 156.431 330.137 150.981C332.221 143.623 336.508 137.288 339.965 130.581C343.678 123.375 341.355 119.131 334.883 115.324C313.094 102.503 304.098 107.085 301.688 132.499C301.224 137.398 301.1 142.265 301.816 147.146C302.023 151.696 303.276 156.22 302.206 160.807C296.088 174.137 294.192 188.913 287.94 202.216C285.88 206.606 284.884 211.505 281.381 215.18C278.512 217.721 275.391 219.217 271.508 217.574C269.089 215.616 267.831 213.056 267.593 209.973C276.764 174.27 285.297 138.412 292.15 102.172C292.544 97.2914 293.696 92.6216 296.129 88.3233C297.993 85.3829 300.242 82.8874 303.822 82.0342L303.827 82.0296Z" fill="#885D73"/>
<path d="M298.883 87.8004C297.828 92.3372 296.767 96.8694 295.712 101.406C294.27 103.723 292.563 106.305 289.79 106.425C267.689 107.383 245.482 110.673 223.633 104.127C219.746 98.2456 220.889 91.2317 219.268 84.837C219.736 83.1351 220.209 81.4378 220.682 79.7406C243.38 74.2634 266.165 74.4652 288.996 78.7818C294.068 79.7406 298.346 81.7773 298.888 87.7958L298.883 87.8004Z" fill="#F1DC55"/>
<path d="M366.739 112.09C367.615 110.333 368.487 108.572 369.373 106.815C391.029 117.136 406.87 133.27 418.726 154.036C421.521 158.931 430.733 161.022 422.031 168.234C415.733 169.142 413.121 176.771 406.356 176.816C404.956 175.468 404.015 173.316 405.249 172.11C415.751 161.899 408.279 154.779 401.127 147.802C391.658 138.563 383.414 127.884 371.145 121.87C368.354 119.21 367.06 115.865 366.739 112.085V112.09Z" fill="#C9902C"/>
<path d="M298.883 87.8005C290.438 79.7727 279.316 80.5021 269.185 80.0984C254.708 79.5204 240.029 77.9516 225.584 81.5113C224.18 81.8554 222.325 80.3783 220.682 79.7452C221.49 76.1626 224.207 74.7589 227.402 74.1579C251.927 69.5294 276.236 70.534 300.334 77.0296C303.028 77.7543 303.487 79.8003 303.827 82.0389C303.037 84.6903 301.44 86.6537 298.888 87.8005H298.883Z" fill="#CCA82D"/>
<path d="M220.806 321.398C217.96 319.614 215.119 317.834 212.268 316.049C219.287 312.935 217.221 308.003 214.876 303.022C211.644 299.971 208.004 297.109 209.73 291.792C210.529 287.562 209.817 284.338 204.617 284.085C205.425 281.333 206.232 278.581 207.04 275.828C206.32 270.672 208.486 265.085 204.754 260.378C217.184 247.603 217.111 242.731 204.373 233.662C209.854 228.281 218.584 239.139 223.298 229.891C234.25 228.575 233.479 235.497 231.776 242.447C230.601 247.227 226.351 250.603 224.804 255.571C226.479 252.126 228.623 249.708 232.717 250.341C233.957 250.809 234.879 251.626 235.448 252.832C235.71 266.213 231.303 280.475 242.838 291.714C252.207 299.907 261.727 307.613 275.483 302.494C278.081 300.077 280.968 298.031 283.502 295.549C298.511 280.81 299.856 272.021 290.084 251.837C289.152 249.314 287.702 247.011 286.912 244.447C285.329 239.318 287.913 235.864 291.769 233.052C295.739 230.157 299.434 231.538 302.78 234.217C310.051 240.043 315.61 247.231 314.99 256.929C313.292 283.374 307.37 307.604 279.004 318.724C275.708 320.017 272.784 322.229 270.149 324.674C268.8 326.068 267.239 327.164 265.435 327.88C261.341 329.82 257.279 330.94 253.584 327.041C252.969 322.417 249.457 322.063 245.822 321.504C236.132 320.013 229.848 312.788 222.894 306.742C217.754 311.517 226.521 317.329 220.82 321.398H220.806Z" fill="#E59E3B"/>
<path d="M156.398 205.212C152.795 203.147 149.192 201.083 145.597 199.028C141.058 189.266 145.758 184.427 154.925 181.844C154.319 176.124 148.228 175.202 145.671 171.307C142.885 167.064 140.824 162.371 144.624 157.747C148.521 153.004 152.836 155.967 156.637 158.091C166.482 163.591 170.288 176.087 182.874 179.606C185.733 180.404 178.238 192.037 177.278 199.221C176.842 202.487 173.739 204.248 171.43 202.409C164.945 197.239 161.236 203.592 156.398 205.207V205.212Z" fill="#D99D0F"/>
<path d="M182.644 157.66C187.317 157.178 191.774 164.018 196.612 158.077C198.842 160.302 200.233 163.073 201.716 165.793C211.268 178.651 221.458 191.078 228.164 205.803C230.583 211.111 232.506 216.529 232.676 222.451C232.515 223.873 231.836 224.974 230.652 225.772C226.227 226.946 224.409 224.428 223.45 220.694C211.92 198.34 193.587 180.385 182.639 157.655L182.644 157.66Z" fill="#4A5C3E"/>
<path d="M223.454 220.698C225.731 222.446 227.925 224.396 231.138 223.909C240.071 229.185 249.361 228.455 257.82 223.703C265.252 219.529 271.288 220.707 277.572 225.212C280.996 232.345 276.617 234.905 270.82 236.029C264.765 237.203 259.009 239.277 253.152 241.025C246.093 243.52 238.694 245.373 233.493 251.401C229.054 251.199 227.627 256.002 224.473 257.181C217.386 248.199 242.265 238.492 223.298 229.887C223.349 226.822 223.404 223.758 223.454 220.694V220.698Z" fill="#E9BD5F"/>
<path d="M96.7819 286.452C91.4896 286.581 91.5722 282.902 91.5538 279.204C91.5355 275.36 93.5138 273.424 97.2088 273.406C103.057 273.379 103.052 278.159 103.263 281.902C103.497 286.053 100.151 286.631 96.7865 286.448L96.7819 286.452Z" fill="#D74117"/>
<path d="M115.987 270.86C116.74 270.773 117.488 270.764 118.241 270.833C118.488 271.204 118.768 271.553 118.98 271.943C121.775 277.071 122.849 282.094 116.919 285.76C114.982 286.957 112.104 286.659 111.186 284.301C108.987 278.659 110.525 273.966 115.987 270.86Z" fill="#CE3B10"/>
<path d="M166.537 222.308C181.561 230.91 196.57 239.52 208.817 256.993C195.221 252.584 184.967 249.259 174.708 245.928C167.529 238.905 159.9 232.249 155.93 222.648C159.299 217.35 163.063 224.327 166.537 222.304V222.308Z" fill="#A0818A"/>
<path d="M166.537 222.308C163.141 226.749 159.404 220.703 155.93 222.648C139.451 217.726 127.448 204.597 111.635 198.354C110.35 197.844 110.226 194.39 109.556 192.308C130.739 198.147 149.196 209.166 166.537 222.308Z" fill="#D9B4A8"/>
<path d="M209.73 291.792C211.474 295.521 215.426 298.242 214.88 303.022C207.77 303.806 201.211 310.173 199.035 313.604C191.448 325.586 178.325 329.999 168.112 335.408C150.706 344.633 135.251 357.752 116.12 363.757C115.312 364.009 114.674 364.766 113.926 365.243C109.593 368 107.178 375.716 101.432 373.661C94.2757 371.101 92.5865 362.766 90.3787 356.22C81.5015 329.894 81.7218 329.811 108.574 321.595C111.13 320.816 113.724 320.16 116.299 319.449C119.163 321.609 122.353 321.045 125.231 319.939C146.786 311.669 169.76 308.136 191.351 300.026C196.327 294.719 203.841 295.063 209.735 291.796L209.73 291.792Z" fill="#AA3C84"/>
<path d="M191.347 300.021C177.769 309.049 161.488 310.297 146.52 315.283C138.203 318.054 129.39 319.375 121.55 323.628C116.46 326.389 118.002 320.889 116.294 319.444C136.156 313.898 156.021 308.361 175.874 302.792C180.946 301.37 185.894 299.315 191.347 300.017V300.021Z" fill="#D099A8"/>
<path d="M371.338 119.801C391.112 127.485 402.335 144.444 414.879 159.958C417.486 163.183 415.334 165.55 413.236 168.004C410.817 170.835 405.676 171.578 406.351 176.816C386.499 191.597 365.628 204.661 343.609 216.056C334.282 220.882 326.057 227.832 317.335 233.818C315.242 236.057 313.76 241.226 309.707 236.992C304.694 231.749 296.965 228.203 297.038 219.244C307.94 197.189 319.713 175.693 337.16 157.917C340.162 154.128 343.168 150.339 346.17 146.55C348.924 144.536 351.665 141.917 354.579 146.334C356.92 149.88 359.619 153.206 361.409 157.105C362.341 172.124 362.396 172.174 372.058 166.968C377.502 156.279 378.071 145.545 373.279 134.393C371.333 129.861 367.078 125.297 371.333 119.806L371.338 119.801Z" fill="#E8BC2D"/>
<path d="M403.546 194.932C409.518 184.22 419.465 178.872 429.866 174.527C436.967 188.165 441.314 202.115 446.041 215.941C448.534 223.235 446.647 226.208 438.872 227.529C418.487 230.997 398.098 234.653 377.993 239.437C365.49 242.415 353.615 247.97 341.218 251.516C337.601 252.552 331.725 257.635 329.596 251.965C327.406 246.139 328.076 238.639 336.233 235.612C342.921 236.364 347.529 232.332 352.601 228.928C360.501 223.625 367.638 216.267 378.641 218.093C382.762 218.776 384.695 215.221 387.302 212.905C390.547 210.019 390.928 201.501 399.016 206.588C399.392 206.826 400.081 198.244 403.542 194.927L403.546 194.932Z" fill="#AB3679"/>
<path d="M322.912 259.548C361.506 251.447 400.095 243.332 438.693 235.258C442.14 234.538 445.637 234.056 449.112 233.465C455.906 255.589 456.144 277.484 446.845 299.035C440.061 303.976 435.429 303.366 434.419 294.017C433.855 288.783 433.102 283.572 433.442 278.255C433.731 273.691 433.529 269.167 427.245 268.759C414.93 263.777 404.951 267.897 396.152 276.714C380.738 272.984 365.054 274.929 349.498 274.379C340.212 274.048 330.711 275.108 321.985 270.567C319.759 266.677 319.589 262.965 322.912 259.548Z" fill="#EFD993"/>
<path d="M322.912 259.548C323.078 263.071 323.238 266.594 323.404 270.117C326.139 273.126 325.767 276.686 325.24 280.282C321.448 297.214 311.446 309.526 296.386 317.637C291.686 320.169 287.927 323.903 283.24 326.362C277.186 328.123 271.246 328.912 265.954 324.311C269.727 317.536 276.695 315.793 283.167 313.003C304.483 303.811 319.947 262.608 308.123 245.341C304.933 240.685 302.083 231.758 293.554 235.327C282.731 239.859 294.073 246.181 293.233 251.69C284.769 249.089 279.899 260.098 271.412 257.452C269.447 254.195 272.412 250.617 271.256 247.603C263.273 245.025 257.114 258.63 249.283 249.314C246.373 245.85 244.248 241.401 250.623 238.575C257.752 237.194 263.737 232.428 271.586 232.634C277.783 232.795 278.894 229.043 274.616 224.318C271.113 222.694 268.502 220.795 272.302 216.9C274.831 215.955 277.356 215.01 279.885 214.065C285.875 213.799 287.417 208.868 289.827 204.748C291.92 201.17 293.036 196.051 299.172 197.918C304.079 205.326 295.441 212.707 299.117 220.12C300.999 227.107 308.348 229.51 311.896 235.378C314.159 239.112 313.668 231.011 316.831 232.653C317.12 232.804 317.166 233.419 317.322 233.823C319.181 242.405 321.04 250.984 322.899 259.557L322.912 259.548Z" fill="#A82F15"/>
<path d="M443.797 300.09C452.669 278.447 448.433 255.759 449.108 233.465C450.898 233.093 452.683 232.717 454.473 232.336C462.01 259.057 466.614 285.585 449.245 310.65C441.97 316.779 435.135 313.123 428.282 309.737C424.248 303.031 427.755 300.654 433.914 301.177C437.44 301.476 440.767 303.205 443.801 300.09H443.797Z" fill="#CD9A25"/>
<path d="M403.546 194.932C403.487 199.39 403.413 203.854 403.377 208.313C403.349 211.629 402.638 215.414 399.021 215.528C392.948 215.721 397.088 210.097 394.766 206.606C389.785 214.744 387.252 224.735 373.206 221.13C367.785 219.74 358.908 227.414 353.212 232.689C347.538 237.942 342.7 239.194 336.237 235.612C357.095 219.437 381.431 209.015 403.546 194.927V194.932Z" fill="#BB96AA"/>
<path d="M241.512 400.093H271.485C265.151 380.432 260.267 362.161 266.321 343.055C273.73 343.614 273.418 350.004 274.262 354.656C275.602 362.064 277.893 369.367 278.43 376.803C278.861 382.776 283.438 382.354 286.591 384.377C287.633 386.294 288.046 388.34 288.074 390.501C288.014 406.432 290.387 422.052 293.729 437.562C297.672 455.847 295.762 458.626 277.287 459.847C263.42 460.76 249.352 466.517 235.678 458.759C232.391 453.906 233.153 448.658 233.883 443.277C235.843 428.777 238.464 414.396 241.512 400.093Z" fill="#E5C414"/>
<path d="M228.871 342.894C236.322 345.799 238.403 351.33 235.113 359.486C233.507 363.468 238.781 363.945 238.918 367.638C239.497 383.143 234.337 397.85 228.848 411.299C224.506 421.937 222.096 432.639 220.228 443.387C218.079 455.736 216.262 457.929 204.318 453.246C199.852 451.493 195.418 449.658 190.97 447.865C184.228 443.961 184.347 438.718 186.504 431.828C190.846 417.983 199.815 406.965 207.302 395.033C216.202 380.845 219.897 364.771 224.391 348.981C225.153 346.302 225.905 343.857 228.866 342.908L228.871 342.894Z" fill="#B13A72"/>
<path d="M285.306 388.524C285.108 386.923 284.911 385.322 284.718 383.716C276.732 376.767 277.002 366.546 274.579 357.482C272.678 350.376 271.655 343.064 266.005 337.646C265.086 337.605 264.168 337.564 263.255 337.518C260.377 334.132 261.024 330.908 263.705 327.775C264.458 326.619 265.21 325.462 265.963 324.307C272.44 324.151 278.921 323.995 285.398 323.839C285.981 323.976 286.563 324.118 287.156 324.238C293.146 328.623 301.853 322.027 307.178 329.164C307.669 330.389 307.701 331.628 307.357 332.898C305.296 336.509 301.807 338.224 298.227 339.821C283.497 343.66 283.984 343.523 288.179 358.294C296.359 387.093 307.315 415.001 315.114 443.897C316.661 449.626 319.272 449.755 323.812 448.117C334.332 444.319 344.986 440.901 355.759 437.91C360.606 436.984 363.03 431.887 367.822 430.855C371.15 431.516 373.252 433.676 374.808 436.525C375.147 437.819 374.831 438.952 373.949 439.942C354.336 453.241 332.992 462.425 309.698 466.994C308.6 465.911 307.499 464.828 306.402 463.746C297.552 449.874 298.02 433.057 291.975 418.203C288.184 408.891 285.815 398.808 285.31 388.533L285.306 388.524Z" fill="#683332"/>
<path d="M285.306 388.524C294.647 412.951 303.326 437.562 306.397 463.741C283.75 471.819 260.272 469.498 237 468.902C231.905 468.773 227.866 465.434 228.742 459.113C230.936 456.369 233.493 456.168 236.348 458.021C252.9 460.452 269.117 455.59 285.567 455.736C291.172 455.787 294.119 453.957 291.727 447.622C286.109 432.75 288.533 416.382 283.364 401.441C281.68 396.579 284.98 392.868 285.31 388.528L285.306 388.524Z" fill="#C29323"/>
<path d="M228.871 342.894C224.662 365.303 217.855 386.877 204.465 405.51C197.397 415.35 193.091 426.341 187.689 436.887C185.554 441.057 189.896 444.167 190.975 447.856C181.138 448.126 172.188 446.475 166.96 436.773C173.156 423.749 181.414 411.722 189.557 400.148C201.601 383.033 210.946 364.762 220.145 346.247C222.151 342.211 222.784 336.449 228.701 342.802L228.871 342.899V342.894Z" fill="#644470"/>
<path d="M263.7 327.779C263.549 331.027 263.402 334.275 263.251 337.522C259.188 352.949 256.416 368.661 255.998 384.556C255.787 392.561 252.491 394.62 245.597 394.175C236.642 393.597 241.998 387.203 242.499 384.464C245.996 365.294 247.369 345.688 253.57 327.041C257.109 325.077 260.386 326.678 263.7 327.779Z" fill="#EDE78B"/>
<path d="M228.705 342.798C222.032 340.211 222.495 346.614 221.536 349.381C212.099 376.574 192.705 397.955 179.004 422.639C176.057 427.947 171.031 432.098 166.964 436.777C165.307 436.851 163.65 436.924 161.998 436.997C186.803 403.364 206.15 366.464 226.305 330.054C230.454 333.678 228.178 338.504 228.705 342.802V342.798Z" fill="#947765"/>
<path d="M236.348 458.016C233.81 458.379 231.276 458.741 228.738 459.103C229.477 439.855 234.255 421.208 237.344 402.308C237.702 400.125 239.625 399.9 241.512 400.088C245.179 419.878 234.879 438.419 236.348 458.012V458.016Z" fill="#DCD679"/>
<path d="M266 337.651C274.138 340.371 274.762 348.151 276.842 354.578C279.935 364.138 282.139 373.991 284.718 383.721C283.295 385.739 281.524 389.62 280.509 389.432C277.356 388.845 276.667 385.909 275.91 382.514C272.968 369.312 273.509 355.22 266.326 343.055C266.22 341.252 266.11 339.454 266.005 337.651H266Z" fill="#C29323"/>
<path d="M427.741 307.691C434.92 308.581 441.745 312.04 449.241 310.655C452.775 312.678 456.594 308.196 460.087 311.132C454.221 336.059 444.66 359.408 430.353 380.73C427.888 381.849 425.528 381.244 423.174 380.34C414.581 377.028 407.388 371.115 399.039 367.349C389.873 363.289 380.454 359.55 375.446 349.871C374.858 343.348 377.163 339.848 384.314 341.44C387.284 342.637 389.583 344.844 392.163 346.633C400.572 351.614 409.289 356.064 417.532 361.321C423.206 364.94 427.172 364.335 430.196 357.794C434.107 349.335 438.601 341.165 441.722 332.334C445.706 321.049 445.1 319.71 432.703 318.499C424.326 317.682 415.848 318.109 407.462 316.971C401.977 316.76 396.758 315.462 391.755 313.256C369.832 301.742 346.276 297.063 321.719 296.517C320.714 292.021 320.351 287.709 324.909 284.718C330.752 282.681 336.283 284.819 341.851 286.067C364.324 291.113 387.082 294.783 409.514 300.008C415.93 301.503 422.37 303.466 427.745 307.691H427.741Z" fill="#63383B"/>
<path d="M424.854 378.143C426.685 379.005 428.516 379.867 430.352 380.73C414.742 403.501 396.427 423.699 373.945 439.938C373.94 438.819 373.936 437.699 373.927 436.58C372.788 431.791 375.969 428.791 379.012 426.419C395.766 413.359 409.325 397.455 421.429 380.17C422.173 379.106 423.6 378.643 424.854 378.143Z" fill="#896519"/>
<path d="M180.927 369.528C176.659 368.372 172.904 366.808 170.705 363.188C168.369 359.339 168.75 355.426 172.046 352.197C177.774 346.582 183.732 341.155 192.283 340.541C194.835 340.357 196.777 342.399 196.217 344.821C194.193 353.559 189.938 361.298 184.296 368.23C183.599 369.087 181.942 369.165 180.923 369.532L180.927 369.528Z" fill="#E3580C"/>
<path d="M223.633 104.127C242.531 104.044 261.424 103.916 280.321 103.911C285.618 103.911 290.947 104.461 295.716 101.402C289.836 135.242 281.689 168.582 273.482 201.904C272.756 204.845 270.668 207.45 269.218 210.207C268.015 213.808 264.834 214.129 261.795 214.707C255.131 215.226 249.627 213.712 247.529 206.395C239.566 172.307 231.602 138.215 223.638 104.127H223.633Z" fill="#DEB615"/>
<path d="M247.525 206.395C250.825 211.203 255.695 211.799 260.942 211.391C253.455 221.68 242.407 222.478 231.097 222.588C225.52 200.134 210.331 183.317 197.387 165.183C204.575 161.477 208.179 167.192 211.91 171.225C215.55 175.156 218.672 179.514 223.633 181.963C228.302 191.257 232.928 200.574 237.665 209.831C239.116 212.666 241.181 215.299 244.826 214.244C249.026 213.024 246.777 209.092 247.52 206.4L247.525 206.395Z" fill="#E9BD5F"/>
<path d="M181.997 118.099C186.78 117.306 191.237 117.645 194.491 115.829C204.153 110.439 208.785 115.925 211.327 123.595C212.883 128.292 218.704 135.169 211.681 138.536C206.756 140.898 198.916 139.646 196.405 132.049C194.142 125.196 187.041 123.893 181.997 118.099Z" fill="#90BE43"/>
<path d="M223.633 181.959C218.46 184.711 214.958 184.147 212.521 177.963C209.891 171.289 204.787 166.683 197.397 165.192C197.13 162.812 196.873 160.44 196.616 158.073C213.235 156.486 222.241 164.448 223.633 181.959Z" fill="#DCA027"/>
<path d="M298.879 147.316C295.22 133.614 300.292 121.132 304.726 108.723C306.562 103.581 311.102 101.461 316.748 103.654C317.579 103.98 318.377 104.393 319.208 104.727C339.649 113.021 344.905 127.081 334.975 146.907C334.195 148.472 333.951 150.302 333.456 152.004C328.457 160.334 323.417 157.6 318.336 152.105C312.511 147.811 304.997 150.362 298.883 147.316H298.879Z" fill="#A63272"/>
<path d="M371.338 119.801C371.269 124.957 374.275 129.008 376.57 133.164C383.056 144.93 378.654 157.054 378.058 169.009C377.98 170.564 375.184 169.968 373.867 168.5C369.593 164.518 364.37 161.711 360.257 157.532C352.895 157.293 355.635 144.114 346.179 146.545C353.028 135.059 359.881 123.577 366.738 112.085C369.46 113.948 371.044 116.489 371.342 119.792L371.338 119.801Z" fill="#F0D855"/>
<path d="M320.7 149.605C324.239 154.169 328.329 155.83 333.451 152.004C331.845 155.752 329.325 160.073 337.16 157.917C324.487 178.647 311.809 199.377 299.131 220.111C293.876 219.024 293.779 216.061 295.335 211.583C296.988 206.822 299.361 202.046 298.378 196.688C296.276 194.464 296.396 191.895 297.213 189.22C305.787 176.468 309.542 160.844 320.7 149.614V149.605Z" fill="#7E4242"/>
<path d="M231.097 222.588C241.044 218.854 250.995 215.125 260.942 211.391C263.696 210.996 266.454 210.606 269.208 210.212C271.894 211.675 271.871 214.395 272.311 216.895C270.833 220.07 273.261 222.029 274.625 224.313C264.549 220.377 256.953 228.442 248.25 230.556C239.442 232.694 235.104 230.662 231.134 223.914C231.134 223.909 231.097 222.588 231.097 222.588Z" fill="#F4E2C4"/>
<path d="M298.759 190.707C298.631 192.702 298.507 194.698 298.378 196.684C293.394 200.308 293.357 206.574 290.566 211.377C287.863 216.028 285.113 219.735 279.899 214.056C285.393 197.771 292.788 182.096 295.992 165.082C296.584 161.931 297.704 160.284 300.811 159.995C307.907 164.591 306.746 170.656 304.391 177.385C302.785 181.973 300.733 186.303 298.759 190.702V190.707Z" fill="#EDD5BC"/>
<path d="M298.759 190.707C299.379 180.468 306.36 170.651 300.816 160C298.736 155.99 298.314 151.724 298.874 147.311C306.599 143.825 313.773 145.513 320.7 149.6C315.316 164.33 308.059 178.064 298.759 190.707Z" fill="#E7AD63"/>
<path d="M250.637 238.575C249.967 250.112 250.743 250.745 259.978 246.529C261.97 245.621 264.334 245.392 266.151 244.254C269.153 242.378 272.187 239.066 275.492 242.497C278.499 245.621 275.428 249.121 274.257 252.351C273.656 254.011 273.05 255.676 272.444 257.337C273.991 268.057 272.132 279.259 280.583 288.737C285.03 293.728 277.535 299.063 276.699 304.572C276.08 307.733 273.096 309.751 270.999 309.159C260.423 306.159 250.063 302.407 240.915 296.044C240.897 296.035 241.296 295.278 241.608 294.989C241.92 294.696 242.37 294.544 242.76 294.333C244.169 286.989 244.206 279.484 245.528 272.117C247.199 262.837 244.417 255.58 234.829 252.149C234.36 251.947 233.92 251.699 233.498 251.406C235.49 242.167 243.729 241.263 250.632 238.575H250.637Z" fill="#D68F33"/>
<path d="M276.699 304.572C273.422 302.934 273.817 300.448 275.639 298.191C279.073 293.943 279.307 292.411 274.845 286.906C268.731 279.356 266.982 267.723 272.44 257.337C279.532 256.025 283.025 241.497 293.242 251.695C306.774 270.888 300.141 287.865 276.699 304.577V304.572Z" fill="#800711"/>
<path d="M234.829 252.149C240.314 246.915 244.454 250.823 246.157 255.259C251.27 268.608 250.775 281.911 242.76 294.338C226.452 282.842 229.467 267.718 234.833 252.153L234.829 252.149Z" fill="#4B2319"/>
<path d="M360.253 157.536C367.849 157.403 372.747 160.605 373.862 168.504C370.544 170.784 371.521 179.651 364.136 175.482C356.558 171.206 356.19 164.683 360.253 157.536Z" fill="#CD6729"/>
<path d="M348.149 189.083C344.995 188.597 341.617 187.84 342.191 183.775C342.677 180.321 344.302 176.789 348.612 176.693C352.073 176.619 354.41 178.743 354.768 182.248C355.245 186.931 351.357 187.73 348.144 189.078L348.149 189.083Z" fill="#C8381B"/>
<path d="M427.741 307.691C396.638 301.141 365.536 294.595 334.438 288.039C331.399 287.397 328.375 286.691 325.341 286.017C323.151 285.154 321.416 283.984 322.114 281.191C322.545 277.503 322.972 273.81 323.404 270.122C345.707 270.291 368.01 270.498 390.309 270.59C393.999 270.603 395.183 274.071 397.868 275.402C401.866 273.489 405.635 275.819 409.514 275.989C417.808 276.356 423.807 272.608 427.516 265.195C436.981 264.397 440.065 269.388 437.224 277.507C434.672 284.796 439.946 291.26 438.068 298.43C437.573 300.329 441.704 299.801 443.797 300.099C443.2 306.155 439.661 305.838 435.374 304.017C431.454 302.352 428.461 302.705 427.741 307.701V307.691Z" fill="#DCC140"/>
<path d="M427.516 265.19C426.685 280.168 416.688 283.613 397.868 275.402C398.736 262.507 408.449 262.534 417.34 263.112C420.488 263.319 424.027 264.81 427.511 265.19H427.516Z" fill="#E15F28"/>
<path d="M322.109 281.191C323.188 282.801 324.266 284.406 325.341 286.016C321.154 289.085 323.661 293.751 322.573 297.558C323.482 300.558 324.051 304.861 321.99 306.155C314.214 311.049 324.693 312.701 323.33 316.178C318.749 320.173 316.44 326.829 309.454 328.027C301.793 324.302 293.297 325.563 285.274 323.999C285.274 323.999 285.384 323.848 285.388 323.848C285.668 319.907 287.697 317.719 291.466 316.228C307.637 309.843 316.569 296.957 322.105 281.191H322.109Z" fill="#CA662C"/>
<path d="M309.289 326.793C315.527 325.93 313.172 313.834 322.352 316.82C343.412 321.655 359.504 334.894 375.57 348.192C382.951 355.037 391.098 360.766 400.223 365.064C407.517 372.487 412.359 379.923 399.952 387.033C399.213 387.455 398.148 387.395 398.382 388.565C402.252 407.712 385.315 412.836 375.331 422.552C371.687 426.098 368.68 422.965 366.426 420.281C362.933 416.121 359.11 412.602 353.799 410.988C340.589 395.905 329.265 379.735 324.528 359.812C332.657 350.587 334.062 360.395 337.344 363.587C336.577 361.092 332.978 357.693 336.348 354.408C338.606 352.211 341.268 354.615 343.435 356.119C345.537 357.573 347.763 360.229 350.109 357.05C352.275 354.115 351.077 351.11 348.58 348.706C345.225 345.481 341.429 343.422 336.55 344.38C331.904 345.293 327.741 345.11 326.396 341.619C329.412 346.238 332.363 352.848 325.368 359.151C314.65 353.261 308.711 344.151 307.109 332.119C307.067 331.224 306.902 330.352 306.622 329.504C306.012 327.128 306.599 325.926 309.289 326.788V326.793Z" fill="#EEC93F"/>
<path d="M358.059 439.777C345.133 444.429 332.161 448.956 319.305 453.791C315.105 455.369 312.956 455.411 312.038 450.085C306.691 419.025 293.196 390.409 284.764 360.266C283.002 353.954 281.606 347.536 279.853 340.385C286.384 339.114 292.687 337.889 298.989 336.66C306.429 337.238 310.638 339.958 312.066 348.546C313.907 359.615 321.063 368.881 327.241 378.156C337.656 393.79 347.052 410.07 357.512 425.676C360.354 429.915 364.255 434.855 358.049 439.777H358.059Z" fill="#AA3E81"/>
<path d="M355.484 410.148C366.582 406.35 365.788 420.112 371.682 421.933C377.309 422.309 366.862 412.85 378.347 415.24C386.072 416.846 390.767 404.653 395.945 398.07C399.512 393.538 396.574 388.354 390.983 384.216C398.024 387.184 401.577 384.996 404.354 379.23C408.169 371.308 401.146 372.51 397.864 369.936C394.99 367.684 400.113 367.115 400.218 365.069C408.43 369.427 416.637 373.785 424.853 378.143C415.513 397.152 401.173 411.905 385.067 425.236C381.004 428.598 377.622 432.782 373.931 436.585C371.989 435.057 370.048 433.534 368.106 432.011C360.771 426.529 353.744 420.864 355.488 410.148H355.484Z" fill="#CAA220"/>
<path d="M355.484 410.148C359.688 417.433 363.897 424.722 368.102 432.006C364.645 434.465 363.737 440.204 358.059 439.777C360.551 434.851 357.439 431.479 355.025 427.667C341.057 405.634 327.08 383.606 313.535 361.317C310.68 356.624 306.287 352.023 307.953 345.477C309.973 337.527 299.081 342.568 298.989 336.669C301.702 335.146 304.405 333.632 307.109 332.123C313.246 341.16 319.387 350.202 325.524 359.239L325.414 359.142C333.396 377.344 344.16 393.909 355.488 410.144L355.484 410.148Z" fill="#694E57"/>
<path d="M309.289 326.793C308.399 327.696 307.513 328.605 306.622 329.508C303.23 330.077 299.976 325.949 296.648 328.843C289.304 335.242 288.234 327.54 285.278 323.999C293.926 319.398 301.78 321.627 309.289 326.793Z" fill="#A82F15"/>
<path d="M375.565 348.192C357.829 337.733 340.088 327.274 322.352 316.815C312.617 310.279 320.934 303.953 322.577 297.553C326.474 292.53 331.79 290.076 337.642 292.411C355.718 299.613 376.8 297.544 392.985 310.43C379.242 317.452 376.526 327.963 384.837 341.963C384.979 342.206 384.58 342.77 384.433 343.183C379.38 341.146 378.292 346.119 375.565 348.192Z" fill="#9C3974"/>
<path d="M408.811 313.682C419.763 314.517 430.71 315.554 441.676 316.123C448.681 316.485 450.466 320.068 448.02 325.825C442.314 339.261 436.099 352.482 430.297 365.881C428.209 370.707 425.331 370.087 421.801 367.931C411.175 361.445 400.535 354.972 389.905 348.495C399.016 338.412 407.737 328.123 408.811 313.682Z" fill="#9C3974"/>
<path d="M408.811 313.682C413.209 326.187 404.712 341.834 389.905 348.495C388.082 346.725 386.256 344.949 384.433 343.179C380.871 337.532 371.416 338.091 370.883 328.683C370.08 314.559 373.536 311.201 392.98 310.425C398.259 311.508 403.533 312.595 408.807 313.678L408.811 313.682Z" fill="#CD3A87"/>
<path d="M266 106.301C280.271 106.356 280.532 106.539 273.606 118.755C271.412 122.627 269.204 124.522 274.987 127.471C281.955 131.022 276.635 136.944 275.423 141.412C274.069 146.407 254.598 150.279 250.407 146.013C245.51 141.027 245.799 134.884 251.537 129.88C253.542 128.132 255.112 126.829 253.896 123.333C247.979 106.292 248.149 106.232 265.995 106.306L266 106.301Z" fill="#C0431B"/>
<path d="M325.524 359.243C331.064 349.101 321.131 341.082 321.205 331.568C327.053 330.288 325.304 335.22 326.594 337.321C328.237 339.99 330.33 344.527 333.144 342.027C342.425 333.788 346.239 343.651 352.004 346.789C359.927 351.105 356.025 356.417 352.307 360.748C347.244 366.647 344.463 361.665 341.612 357.766C340.639 356.431 339.304 355.138 337.013 356.073C336.449 361.918 343.77 365.252 342.351 371.399C333.401 371.592 336.958 355.096 325.409 359.151L325.524 359.248V359.243Z" fill="#C66C13"/>
</g>
<defs>
<clipPath id="clip0_191_1295">
<rect width="525" height="537" fill="white"/>
</clipPath>
</defs>
</svg>
