<svg width="48" height="48" viewBox="0 0 48 48" fill="none" xmlns="http://www.w3.org/2000/svg">
<path fill-rule="evenodd" clip-rule="evenodd" d="M22.004 8.002V7.998C22.027 7.48356 22.2476 6.99783 22.6197 6.64194C22.9919 6.28605 23.487 6.08742 24.002 6.08742C24.5169 6.08742 25.012 6.28605 25.3842 6.64194C25.7564 6.99783 25.977 7.48356 26 7.998V8.004C26.001 11.7005 27.4638 15.2465 30.0693 17.8685C32.6749 20.4905 36.2116 21.9757 39.908 22L40.002 21.998C40.5327 21.998 41.0416 22.2088 41.4169 22.5841C41.7922 22.9593 42.003 23.4683 42.003 23.999C42.003 24.5297 41.7922 25.0387 41.4169 25.4139C41.0416 25.7892 40.5327 26 40.002 26H39.996C38.158 25.9997 36.338 26.3617 34.64 27.0652C32.942 27.7687 31.3992 28.8 30.1 30.1C28.7999 31.3993 27.7687 32.942 27.0652 34.64C26.3617 36.338 25.9997 38.158 26 39.996V39.998C26.0002 40.2606 25.9488 40.5208 25.8485 40.7635C25.7482 41.0063 25.6011 41.2269 25.4156 41.4128C25.2301 41.5987 25.0098 41.7462 24.7672 41.847C24.5247 41.9477 24.2646 41.9997 24.002 42C23.7388 42.0003 23.4782 41.9486 23.2351 41.848C22.9919 41.7473 22.771 41.5997 22.5851 41.4135C22.3991 41.2273 22.2517 41.0063 22.1513 40.7631C22.0509 40.5198 21.9995 40.2591 22 39.996C22.0002 38.158 21.6383 36.338 20.9348 34.64C20.2313 32.942 19.2 31.3993 17.9 30.1C16.6007 28.8 15.058 27.7687 13.36 27.0652C11.662 26.3617 9.84197 25.9997 8.00399 26C7.47355 25.9875 6.9678 25.7649 6.60154 25.381C6.23528 24.9971 6.03652 24.4834 6.04899 23.953C6.06145 23.4226 6.28412 22.9188 6.66801 22.5526C7.05189 22.1863 7.56555 21.9875 8.09599 22C11.776 21.976 15.2985 20.503 17.9 17.9C19.2 16.6007 20.2313 15.058 20.9348 13.36C21.6383 11.662 22.0002 9.84198 22 8.004L22.004 8.002ZM14.004 39.888V40C14.004 40.5304 13.7933 41.0391 13.4182 41.4142C13.0431 41.7893 12.5344 42 12.004 42C11.4736 42 10.9648 41.7893 10.5898 41.4142C10.2147 41.0391 10.004 40.5304 10.004 40C10.004 39.737 9.95212 39.4766 9.85136 39.2337C9.7506 38.9908 9.60293 38.7701 9.41679 38.5844C9.23065 38.3986 9.00969 38.2514 8.76658 38.1511C8.52347 38.0508 8.26297 37.9995 7.99999 38H7.99599C7.46555 37.9995 6.95706 37.7882 6.58236 37.4128C6.20766 37.0374 5.99746 36.5284 5.99799 35.998C5.99852 35.4676 6.20974 34.9591 6.58519 34.5844C6.96064 34.2097 7.46955 33.9995 7.99999 34C8.26297 34.0005 8.52347 33.9492 8.76658 33.8489C9.00969 33.7486 9.23065 33.6014 9.41679 33.4156C9.60293 33.2299 9.7506 33.0092 9.85136 32.7663C9.95212 32.5234 10.004 32.263 10.004 32C10.004 31.4696 10.2147 30.9609 10.5898 30.5858C10.9648 30.2107 11.4736 30 12.004 30C12.5344 30 13.0431 30.2107 13.4182 30.5858C13.7933 30.9609 14.004 31.4696 14.004 32V32.112C14.062 33.164 14.936 34 16.004 34C16.5344 33.9995 17.0433 34.2097 17.4188 34.5844C17.7942 34.9591 18.0055 35.4676 18.006 35.998C18.0065 36.5284 17.7963 37.0374 17.4216 37.4128C17.0469 37.7882 16.5384 37.9995 16.008 38H16.004C14.936 38 14.062 38.836 14.004 39.888ZM37.998 15.886L38 15.998C38 16.5284 37.7893 17.0371 37.4142 17.4122C37.0391 17.7873 36.5304 17.998 36 17.998C35.4696 17.998 34.9608 17.7873 34.5858 17.4122C34.2107 17.0371 34 16.5284 34 15.998C34 15.735 33.9481 15.4746 33.8474 15.2317C33.7466 14.9888 33.5989 14.7681 33.4128 14.5824C33.2266 14.3966 33.0057 14.2494 32.7626 14.1491C32.5195 14.0488 32.259 13.9975 31.996 13.998H31.992C31.4616 13.9975 30.9531 13.7862 30.5784 13.4108C30.2037 13.0354 29.9935 12.5264 29.994 11.996C29.9945 11.4656 30.2057 10.9571 30.5812 10.5824C30.9566 10.2077 31.4656 9.99747 31.996 9.998C33.102 9.998 34 9.102 34 7.998C34 7.46757 34.2107 6.95886 34.5858 6.58379C34.9608 6.20871 35.4696 5.998 36 5.998C36.5304 5.998 37.0391 6.20871 37.4142 6.58379C37.7893 6.95886 38 7.46757 38 7.998L37.998 8.108C38.056 9.162 38.932 9.998 40 9.998C40.5304 9.99747 41.0393 10.2077 41.4148 10.5824C41.7902 10.9571 42.0015 11.4656 42.002 11.996C42.0025 12.5264 41.7923 13.0354 41.4176 13.4108C41.0429 13.7862 40.5344 13.9975 40.004 13.998H40C38.932 13.998 38.056 14.832 37.998 15.886Z" fill="#FFA100"/>
</svg>
