<svg width="52" height="52" viewBox="0 0 52 52" fill="none" xmlns="http://www.w3.org/2000/svg">
<g id="Frame" clip-path="url(#clip0_284_3173)">
<g id="Group">
<path id="Vector" d="M25.9845 41.9475C16.8761 41.9475 9.47363 34.545 9.47363 25.4366C9.47363 16.3282 16.8761 8.92578 25.9845 8.92578C35.0928 8.92578 42.5258 16.3282 42.5258 25.4366C42.5258 34.545 35.0928 41.9475 25.9845 41.9475ZM25.9845 10.1443C17.5463 10.1443 10.6921 16.9984 10.6921 25.4366C10.6921 33.8748 17.5463 40.7289 25.9845 40.7289C34.4227 40.7289 41.3073 33.8748 41.3073 25.4366C41.3073 16.9984 34.4227 10.1443 25.9845 10.1443Z" fill="#7090E3"/>
<path id="Vector_2" d="M31.8335 15.9324C31.3461 15.9324 31.072 15.445 31.2852 15.0185L33.4176 11.363C33.8136 10.6623 34.8798 11.2716 34.4838 11.9722L32.3514 15.6277C32.26 15.841 32.0468 15.9324 31.8335 15.9324ZM36.0983 20.2276C35.4891 20.2276 35.2454 19.4051 35.7937 19.07L39.4797 16.9681C40.1499 16.5721 40.7896 17.6078 40.089 18.0038C39.5406 18.3389 36.4639 20.2276 36.0983 20.2276ZM39.7843 33.9968C39.4188 33.9968 36.342 32.1386 35.7937 31.8035C35.0931 31.4075 35.7023 30.3413 36.403 30.7373L40.089 32.8697C40.6068 33.1743 40.3936 33.9968 39.7843 33.9968ZM33.9659 39.8457C33.7527 39.8457 33.5395 39.7238 33.4176 39.541L31.3157 35.855C30.8892 35.1544 31.9554 34.5451 32.3514 35.2458L34.4838 38.9318C34.7275 39.3278 34.4229 39.8457 33.9659 39.8457ZM18.0339 39.8457C17.5769 39.8457 17.2723 39.3278 17.516 38.9318L19.618 35.2458C20.0444 34.5451 21.0802 35.1544 20.6842 35.855L18.5518 39.541C18.4604 39.7238 18.2471 39.8457 18.0339 39.8457ZM12.2155 33.9968C11.6062 33.9968 11.3625 33.1743 11.9109 32.8697L15.5664 30.7373C16.267 30.3413 16.8763 31.4075 16.1757 31.8035C15.6273 32.1386 12.581 33.9968 12.2155 33.9968ZM15.9015 20.2276C15.5359 20.2276 12.4592 18.3389 11.9109 18.0038C11.2102 17.6078 11.8195 16.5416 12.5201 16.9681L16.2061 19.07C16.724 19.4051 16.5107 20.2276 15.9015 20.2276ZM20.1663 15.9324C19.953 15.9324 19.7398 15.841 19.618 15.6277L17.516 11.9722C17.12 11.2716 18.1557 10.6623 18.5822 11.363L20.6842 15.0185C20.9279 15.445 20.6232 15.9324 20.1663 15.9324ZM25.9847 10.1444C25.6496 10.1444 25.3754 9.87028 25.3754 9.53519V6.27567C25.3754 5.48363 26.5939 5.48363 26.5939 6.27567V9.53519C26.5939 9.87028 26.3198 10.1444 25.9847 10.1444Z" fill="#7090E3"/>
<path id="Vector_3" d="M25.9844 6.88477C24.3394 6.88477 22.999 5.54441 22.999 3.89942C22.999 2.25443 24.3394 0.914062 25.9844 0.914062C27.6294 0.914062 28.9697 2.25443 28.9697 3.89942C28.9697 5.54441 27.6294 6.88477 25.9844 6.88477ZM25.9844 2.13257C23.6692 2.13257 23.6692 5.66626 25.9844 5.66626C28.33 5.66626 28.33 2.13257 25.9844 2.13257ZM37.9563 15.5667C37.4079 15.5667 37.1338 14.8965 37.5298 14.5309L40.1496 11.8807C40.6979 11.3323 41.5813 12.1853 41.0025 12.7641L38.3827 15.3839C38.2609 15.5057 38.1086 15.5667 37.9563 15.5667Z" fill="#7090E3"/>
<path id="Vector_4" d="M42.2517 13.6173C39.6015 13.6173 38.2611 10.4187 40.1498 8.53004C41.3074 7.37245 43.1961 7.34199 44.3841 8.53004C46.2424 10.4187 44.902 13.6173 42.2517 13.6173ZM42.2517 8.86513C39.9366 8.86513 39.9366 12.4293 42.2517 12.4293C44.5974 12.4293 44.5974 8.86513 42.2517 8.86513ZM46.6079 27.5084H41.8557C41.0332 27.5084 41.0332 26.2899 41.8557 26.2899H46.6079C47.4304 26.2899 47.4304 27.5084 46.6079 27.5084Z" fill="#7090E3"/>
<path id="Vector_5" d="M48.9842 29.8838C47.3392 29.8838 45.9989 28.5434 45.9989 26.8984C45.9989 25.2534 47.3392 23.9131 48.9842 23.9131C50.6597 23.9131 52 25.2534 52 26.8984C52 28.5434 50.6597 29.8838 48.9842 29.8838ZM48.9842 25.1316C46.669 25.1316 46.669 28.6653 48.9842 28.6653C51.3298 28.6653 51.3298 25.1316 48.9842 25.1316ZM40.1805 41.7034C40.0281 41.7034 39.8758 41.6424 39.754 41.551L36.068 37.8346C35.4892 37.2558 36.3421 36.4028 36.9209 36.9816L40.6374 40.6676C41.003 41.0636 40.7288 41.7034 40.1805 41.7034Z" fill="#7090E3"/>
<path id="Vector_6" d="M41.8868 45.7857C39.2366 45.7857 37.8962 42.5567 39.7544 40.668C40.9425 39.5104 42.8312 39.5104 43.9887 40.668C45.847 42.5567 44.5371 45.7857 41.8868 45.7857ZM41.8868 41.0335C40.3027 41.0335 39.5107 42.9222 40.6378 44.0494C42.2828 45.6944 44.7808 43.1659 43.1358 41.521C42.7702 41.1859 42.3133 41.0335 41.8868 41.0335ZM25.9852 46.3036C25.6501 46.3036 25.376 46.0294 25.376 45.6944V41.3382C25.376 40.5461 26.5945 40.5461 26.5945 41.3382V45.6944C26.5945 46.0294 26.3203 46.3036 25.9852 46.3036Z" fill="#7090E3"/>
<path id="Vector_7" d="M25.9844 51.0863C24.3394 51.0863 22.9991 49.746 22.9991 48.0705C22.9991 46.4255 24.3394 45.0851 25.9844 45.0851C27.6294 45.0851 28.9698 46.4255 28.9698 48.0705C28.9698 49.746 27.6294 51.0863 25.9844 51.0863ZM25.9844 46.3037C23.6692 46.3037 23.6692 49.8678 25.9844 49.8678C28.33 49.8678 28.33 46.3037 25.9844 46.3037ZM11.4232 42.0998C10.8749 42.0998 10.6007 41.4296 10.9663 41.0641L15.0787 36.982C15.6271 36.4033 16.5105 37.2562 15.9317 37.835L11.8497 41.917C11.7278 42.0389 11.5755 42.0998 11.4232 42.0998Z" fill="#7090E3"/>
<path id="Vector_8" d="M9.71778 46.1518C7.06752 46.1518 5.75762 42.9532 7.61585 41.0645C8.77344 39.9069 10.6621 39.9069 11.8502 41.0645C13.7084 42.9227 12.3985 46.1518 9.71778 46.1518ZM8.46881 44.4154C10.1138 46.0604 12.6422 43.5624 10.9668 41.9175C9.35223 40.2725 6.82382 42.7704 8.46881 44.4154ZM10.1443 27.5086H5.3616C4.56957 27.5086 4.56957 26.29 5.3616 26.29H10.1443C10.9668 26.29 10.9668 27.5086 10.1443 27.5086Z" fill="#7090E3"/>
<path id="Vector_9" d="M2.98535 29.884C1.34036 29.884 0 28.5436 0 26.8987C0 25.2537 1.34036 23.9133 2.98535 23.9133C4.63035 23.9133 5.97071 25.2537 5.97071 26.8987C5.97071 28.5436 4.63035 29.884 2.98535 29.884ZM2.98535 25.1318C0.670182 25.1318 0.670182 28.6655 2.98535 28.6655C5.33099 28.6655 5.33099 25.1318 2.98535 25.1318ZM14.0434 15.5665C13.891 15.5665 13.7083 15.5056 13.6169 15.3837L10.9666 12.7639C10.4183 12.1851 11.2712 11.3322 11.85 11.8805L14.4698 14.5308C14.8354 14.8963 14.5917 15.5665 14.0434 15.5665Z" fill="#7090E3"/>
<path id="Vector_10" d="M9.71719 13.6166C8.92516 13.6166 8.19405 13.312 7.61526 12.7637C6.45767 11.5756 6.45767 9.68691 7.61526 8.52932C8.77285 7.37174 10.6615 7.37174 11.8496 8.52932C13.7078 10.418 12.3675 13.6166 9.71719 13.6166ZM8.46822 9.38228C6.82323 11.0577 9.35164 13.5252 10.9662 11.8802C12.6416 10.2352 10.1132 7.73729 8.46822 9.38228ZM25.9843 37.7127C19.2216 37.7127 13.7078 32.1989 13.7078 25.4362C13.7078 18.6734 19.2216 13.1597 25.9843 13.1597C32.7775 13.1597 38.2608 18.6734 38.2608 25.4362C38.2608 32.2294 32.7775 37.7127 25.9843 37.7127ZM25.9843 14.3782C19.8918 14.3782 14.9263 19.3436 14.9263 25.4362C14.9263 31.5592 19.8918 36.4942 25.9843 36.4942C32.1074 36.4942 37.0423 31.5592 37.0423 25.4362C37.0423 19.3436 32.1074 14.3782 25.9843 14.3782Z" fill="#7090E3"/>
<path id="Vector_11" d="M22.7557 31.6209C22.4206 31.6209 22.1465 31.3468 22.1465 31.0117V19.4358C22.1465 18.6438 23.365 18.6438 23.365 19.4358V31.0117C23.365 31.3468 23.0908 31.6209 22.7557 31.6209Z" fill="#7090E3"/>
<path id="Vector_12" d="M26.2285 26.0459H22.7557C22.4206 26.0459 22.1465 25.7717 22.1465 25.4366V19.4354C22.1465 19.1003 22.4206 18.8262 22.7557 18.8262H26.2285C28.2086 18.8262 29.8536 20.4712 29.8536 22.4512C29.8536 24.4313 28.2086 26.0459 26.2285 26.0459ZM23.365 24.8273H26.2285C29.3662 24.8273 29.3662 20.0447 26.2285 20.0447H23.365V24.8273Z" fill="#7090E3"/>
<path id="Vector_13" d="M26.2285 32.0469H22.7557C22.4206 32.0469 22.1465 31.7727 22.1465 31.4376V25.4365C22.1465 25.1014 22.4206 24.8272 22.7557 24.8272H26.2285C28.2086 24.8272 29.8536 26.4417 29.8536 28.4523C29.8536 30.4324 28.2086 32.0469 26.2285 32.0469ZM23.365 30.8284H26.2285C29.3662 30.8284 29.3662 26.0457 26.2285 26.0457H23.365V30.8284ZM25.4669 20.0445C24.614 20.0445 24.8577 18.826 24.8577 17.6989C24.8577 16.8764 26.0762 16.8764 26.0762 17.6989C26.0762 18.826 26.2894 20.0445 25.4669 20.0445ZM23.7001 20.0445C22.8471 20.0445 23.0908 18.826 23.0908 17.6989C23.0908 16.8764 24.3093 16.8764 24.3093 17.6989C24.3093 18.826 24.553 20.0445 23.7001 20.0445Z" fill="#7090E3"/>
<path id="Vector_14" d="M25.4669 33.8139C24.614 33.8139 24.8577 32.5649 24.8577 31.4378C24.8577 30.6457 26.0762 30.6457 26.0762 31.4378C26.0762 32.5649 26.2894 33.8139 25.4669 33.8139ZM23.7001 33.8139C22.8471 33.8139 23.0908 32.5649 23.0908 31.4378C23.0908 30.6457 24.3093 30.6457 24.3093 31.4378C24.3093 32.5649 24.553 33.8139 23.7001 33.8139Z" fill="#7090E3"/>
</g>
</g>
<defs>
<clipPath id="clip0_284_3173">
<rect width="52" height="52" fill="white"/>
</clipPath>
</defs>
</svg>
