<svg width="26" height="25" viewBox="0 0 26 25" fill="none" xmlns="http://www.w3.org/2000/svg">
<g id="Frame">
<g id="Group">
<path id="Arrow Outline" d="M15.7406 6.51567H6.71011L7.62573 5.15395C7.74774 4.97392 7.81841 4.76407 7.83019 4.54691C7.84196 4.32976 7.79438 4.11349 7.69256 3.92133C7.59073 3.72916 7.43851 3.56835 7.25221 3.45614C7.06591 3.34393 6.85258 3.28457 6.63511 3.28442H6.63276C6.43709 3.28445 6.24393 3.32849 6.06758 3.41329C5.89124 3.49808 5.73622 3.62145 5.61401 3.77427L2.79605 7.29692C2.70729 7.40777 2.65894 7.54555 2.65894 7.68755C2.65894 7.82955 2.70729 7.96732 2.79605 8.07817L5.61401 11.6C5.73622 11.7529 5.89124 11.8762 6.06758 11.961C6.24393 12.0458 6.43709 12.0899 6.63276 12.0899H6.63511C6.85258 12.0897 7.06591 12.0304 7.25221 11.9182C7.43851 11.806 7.59073 11.6452 7.69256 11.453C7.79438 11.2608 7.84196 11.0446 7.83019 10.8274C7.81841 10.6102 7.74774 10.4004 7.62573 10.2204L6.71089 8.85864H15.7414C16.4316 8.85864 17.1151 8.9946 17.7528 9.25875C18.3906 9.5229 18.97 9.91007 19.4581 10.3982C19.9462 10.8862 20.3333 11.4657 20.5975 12.1034C20.8617 12.7411 20.9976 13.4246 20.9976 14.1149C20.9976 14.8052 20.8617 15.4887 20.5975 16.1264C20.3333 16.7641 19.9462 17.3435 19.4581 17.8316C18.97 18.3197 18.3906 18.7069 17.7528 18.971C17.1151 19.2352 16.4316 19.3711 15.7414 19.3711H13.1851C12.8743 19.3711 12.5762 19.4946 12.3565 19.7144C12.1367 19.9341 12.0132 20.2322 12.0132 20.543C12.0132 20.8538 12.1367 21.1519 12.3565 21.3717C12.5762 21.5914 12.8743 21.7149 13.1851 21.7149H15.7414C17.757 21.7149 19.6901 20.9142 21.1154 19.4889C22.5406 18.0636 23.3414 16.1305 23.3414 14.1149C23.3414 12.0992 22.5406 10.1662 21.1154 8.74088C19.6901 7.3156 17.757 6.51489 15.7414 6.51489L15.7406 6.51567Z" fill="white"/>
</g>
</g>
</svg>
