<svg width="26" height="25" viewBox="0 0 26 25" fill="none" xmlns="http://www.w3.org/2000/svg">
<g id="Frame" clip-path="url(#clip0_274_1818)">
<g id="Group">
<path id="Vector" d="M20.8122 25H5.18717C4.49676 24.9992 3.83486 24.7245 3.34666 24.2363C2.85847 23.7481 2.58383 23.0862 2.58301 22.3958V2.60417C2.58301 1.16875 3.75176 0 5.18717 0H20.8122C22.2476 0 23.4163 1.16875 23.4163 2.60417V22.3958C23.4163 23.8312 22.2476 25 20.8122 25ZM5.18717 1.04167C4.32572 1.04167 3.62467 1.74271 3.62467 2.60417V22.3958C3.62467 23.2573 4.32572 23.9583 5.18717 23.9583H20.8122C21.6736 23.9583 22.3747 23.2573 22.3747 22.3958V2.60417C22.3747 1.74271 21.6736 1.04167 20.8122 1.04167H5.18717Z" fill="white"/>
<path id="Vector_2" d="M18.7288 8.33333H7.27051C6.40905 8.33333 5.70801 7.63229 5.70801 6.77083V4.6875C5.70801 3.82604 6.40905 3.125 7.27051 3.125H18.7288C19.5903 3.125 20.2913 3.82604 20.2913 4.6875V6.77083C20.2913 7.63229 19.5903 8.33333 18.7288 8.33333ZM7.27051 4.16667C7.13237 4.16667 6.9999 4.22154 6.90222 4.31922C6.80455 4.41689 6.74967 4.54937 6.74967 4.6875V6.77083C6.74967 6.90897 6.80455 7.04144 6.90222 7.13912C6.9999 7.23679 7.13237 7.29167 7.27051 7.29167H18.7288C18.867 7.29167 18.9995 7.23679 19.0971 7.13912C19.1948 7.04144 19.2497 6.90897 19.2497 6.77083V4.6875C19.2497 4.54937 19.1948 4.41689 19.0971 4.31922C18.9995 4.22154 18.867 4.16667 18.7288 4.16667H7.27051ZM8.83301 14.5833C8.69487 14.5833 8.5624 14.5285 8.46472 14.4308C8.36705 14.3331 8.31217 14.2006 8.31217 14.0625V10.9375C8.31217 10.7994 8.36705 10.6669 8.46472 10.5692C8.5624 10.4715 8.69487 10.4167 8.83301 10.4167C8.97114 10.4167 9.10362 10.4715 9.20129 10.5692C9.29897 10.6669 9.35384 10.7994 9.35384 10.9375V14.0625C9.35384 14.2006 9.29897 14.3331 9.20129 14.4308C9.10362 14.5285 8.97114 14.5833 8.83301 14.5833Z" fill="white"/>
<path id="Vector_3" d="M10.3958 13.0212H7.27083C7.1327 13.0212 7.00022 12.9663 6.90255 12.8686C6.80487 12.7709 6.75 12.6385 6.75 12.5003C6.75 12.3622 6.80487 12.2297 6.90255 12.132C7.00022 12.0344 7.1327 11.9795 7.27083 11.9795H10.3958C10.534 11.9795 10.6664 12.0344 10.7641 12.132C10.8618 12.2297 10.9167 12.3622 10.9167 12.5003C10.9167 12.6385 10.8618 12.7709 10.7641 12.8686C10.6664 12.9663 10.534 13.0212 10.3958 13.0212ZM18.7292 13.0212H15.6042C15.466 13.0212 15.3336 12.9663 15.2359 12.8686C15.1382 12.7709 15.0833 12.6385 15.0833 12.5003C15.0833 12.3622 15.1382 12.2297 15.2359 12.132C15.3336 12.0344 15.466 11.9795 15.6042 11.9795H18.7292C18.8673 11.9795 18.9998 12.0344 19.0975 12.132C19.1951 12.2297 19.25 12.3622 19.25 12.5003C19.25 12.6385 19.1951 12.7709 19.0975 12.8686C18.9998 12.9663 18.8673 13.0212 18.7292 13.0212ZM18.7292 17.7087H15.6042C15.466 17.7087 15.3336 17.6538 15.2359 17.5561C15.1382 17.4584 15.0833 17.326 15.0833 17.1878C15.0833 17.0497 15.1382 16.9172 15.2359 16.8195C15.3336 16.7219 15.466 16.667 15.6042 16.667H18.7292C18.8673 16.667 18.9998 16.7219 19.0975 16.8195C19.1951 16.9172 19.25 17.0497 19.25 17.1878C19.25 17.326 19.1951 17.4584 19.0975 17.5561C18.9998 17.6538 18.8673 17.7087 18.7292 17.7087ZM18.7292 20.8337H15.6042C15.466 20.8337 15.3336 20.7788 15.2359 20.6811C15.1382 20.5834 15.0833 20.451 15.0833 20.3128C15.0833 20.1747 15.1382 20.0422 15.2359 19.9445C15.3336 19.8469 15.466 19.792 15.6042 19.792H18.7292C18.8673 19.792 18.9998 19.8469 19.0975 19.9445C19.1951 20.0422 19.25 20.1747 19.25 20.3128C19.25 20.451 19.1951 20.5834 19.0975 20.6811C18.9998 20.7788 18.8673 20.8337 18.7292 20.8337ZM7.27083 20.8337C7.1679 20.8336 7.06728 20.8031 6.98168 20.746C6.89609 20.6888 6.82935 20.6075 6.78989 20.5125C6.75044 20.4174 6.74004 20.3128 6.76 20.2118C6.77997 20.1108 6.82941 20.018 6.90208 19.9451L10.0271 16.8201C10.1253 16.7252 10.2569 16.6727 10.3934 16.6739C10.53 16.6751 10.6606 16.7299 10.7572 16.8265C10.8538 16.923 10.9085 17.0537 10.9097 17.1902C10.9109 17.3268 10.8584 17.4583 10.7635 17.5566L7.63854 20.6816C7.59028 20.7299 7.53295 20.7682 7.46985 20.7943C7.40675 20.8204 7.33912 20.8338 7.27083 20.8337Z" fill="white"/>
<path id="Vector_4" d="M10.3958 20.8336C10.2576 20.8336 10.1251 20.7789 10.0271 20.6815L6.90206 17.5565C6.80719 17.4583 6.75469 17.3267 6.75588 17.1901C6.75707 17.0536 6.81184 16.9229 6.90841 16.8264C7.00497 16.7298 7.13561 16.675 7.27217 16.6738C7.40873 16.6727 7.54029 16.7252 7.63852 16.82L10.7635 19.945C10.8361 20.0179 10.8856 20.1106 10.9056 20.2114C10.9256 20.3123 10.9152 20.4169 10.8759 20.5119C10.8366 20.6069 10.77 20.6882 10.6846 20.7454C10.5991 20.8027 10.4987 20.8333 10.3958 20.8336Z" fill="white"/>
</g>
</g>
<defs>
<clipPath id="clip0_274_1818">
<rect width="25" height="25" fill="white" transform="translate(0.5)"/>
</clipPath>
</defs>
</svg>
