<svg width="2463" height="1172" viewBox="0 0 2463 1172" fill="none" xmlns="http://www.w3.org/2000/svg">
<g opacity="0.15" filter="url(#filter0_f_0_8161)">
<ellipse cx="1957" cy="620.5" rx="232" ry="277.5" fill="#EEA32D"/>
</g>
<g opacity="0.15" filter="url(#filter1_f_0_8161)">
<circle cx="551.5" cy="551.5" r="277.5" fill="#665BA7"/>
</g>
<g opacity="0.6" clip-path="url(#clip0_0_8161)">
<path d="M408.065 494.75L497.675 493.836L493.878 514.792L554.624 529.915L467.008 537.428L472.98 513.933L408.065 494.75Z" fill="url(#paint0_linear_0_8161)"/>
<path d="M664.727 341.212L687.243 406.914L670.903 409.232L674.584 457.607L647.702 394.982L666.44 393.65L664.727 341.212Z" fill="url(#paint1_linear_0_8161)"/>
<path d="M522.971 394.15L568.309 418.952L560.492 428.422L586.786 453.157L540.597 432.233L550.217 422.1L522.971 394.15Z" fill="url(#paint2_linear_0_8161)"/>
</g>
<defs>
<filter id="filter0_f_0_8161" x="1451" y="69" width="1012" height="1103" filterUnits="userSpaceOnUse" color-interpolation-filters="sRGB">
<feFlood flood-opacity="0" result="BackgroundImageFix"/>
<feBlend mode="normal" in="SourceGraphic" in2="BackgroundImageFix" result="shape"/>
<feGaussianBlur stdDeviation="137" result="effect1_foregroundBlur_0_8161"/>
</filter>
<filter id="filter1_f_0_8161" x="0" y="0" width="1103" height="1103" filterUnits="userSpaceOnUse" color-interpolation-filters="sRGB">
<feFlood flood-opacity="0" result="BackgroundImageFix"/>
<feBlend mode="normal" in="SourceGraphic" in2="BackgroundImageFix" result="shape"/>
<feGaussianBlur stdDeviation="137" result="effect1_foregroundBlur_0_8161"/>
</filter>
<linearGradient id="paint0_linear_0_8161" x1="424.786" y1="471.582" x2="537.838" y2="553.173" gradientUnits="userSpaceOnUse">
<stop stop-color="#1C222E"/>
<stop offset="1" stop-color="#46587B"/>
</linearGradient>
<linearGradient id="paint1_linear_0_8161" x1="638.797" y1="377.139" x2="700.513" y2="421.68" gradientUnits="userSpaceOnUse">
<stop stop-color="#1C222E"/>
<stop offset="1" stop-color="#46587B"/>
</linearGradient>
<linearGradient id="paint2_linear_0_8161" x1="518.832" y1="399.885" x2="588.793" y2="450.377" gradientUnits="userSpaceOnUse">
<stop stop-color="#1C222E"/>
<stop offset="1" stop-color="#46587B"/>
</linearGradient>
<clipPath id="clip0_0_8161">
<rect width="274.815" height="194.376" fill="white" transform="matrix(-0.585223 0.810872 0.810872 0.585223 568.828 272)"/>
</clipPath>
</defs>
</svg>
