<svg width="52" height="52" viewBox="0 0 52 52" fill="none" xmlns="http://www.w3.org/2000/svg">
<g id="Frame" clip-path="url(#clip0_0_8640)">
<g id="Group">
<path id="Vector" d="M45.5796 16.9971H41.8313V9.62071C41.8313 8.35758 41.3289 7.18027 40.5069 6.31952L38.0848 3.78513C36.0294 1.66735 35.77 1.06905 34.5458 0.474805C33.977 0.190938 33.2276 0 32.472 0H14.7806C12.1451 0 10.0019 2.14429 10.0019 4.77872V30.549H8.99407C7.47368 30.549 6.23715 31.7855 6.23715 33.3059C6.23715 34.0625 6.54347 34.7477 7.03767 35.2459C6.54347 35.7442 6.23715 36.4294 6.23715 37.186C6.23715 37.4699 6.27697 37.6384 6.29129 37.7313C0.308646 38.3398 -2.07462 45.7448 2.30384 49.7638C3.62618 50.9779 5.38139 51.6661 7.28467 51.5885C7.91365 51.5885 20.8631 51.5834 20.8794 51.5834C22.3988 51.5834 23.6363 50.3469 23.6363 48.8265C23.6363 48.0698 23.33 47.3847 22.8358 46.8864C23.3005 46.4177 23.5986 45.7857 23.6323 45.0832H24.6667V45.6356C24.6667 49.1451 27.5216 52 31.0311 52H45.5796C49.0891 52 51.944 49.1451 51.944 45.6356V23.3615C51.9441 19.852 49.0891 16.9971 45.5796 16.9971ZM39.0764 7.18849C39.0764 7.18849 39.0774 7.18849 39.0784 7.19052H39.0794C39.0804 7.19255 39.0825 7.19459 39.0835 7.1956L39.0845 7.19662C39.0865 7.19966 39.0886 7.20169 39.0906 7.20271C39.0916 7.20373 39.0926 7.20474 39.0936 7.20677C39.0947 7.20779 39.0957 7.20779 39.0957 7.2088C39.0967 7.20982 39.0977 7.20982 39.0987 7.21185C39.1007 7.21287 39.1018 7.2149 39.1028 7.21591H35.0092V2.88864C36.3654 4.32144 37.7212 5.75472 39.0764 7.18849ZM8.99407 32.1827H20.8795C21.4983 32.1827 22.0027 32.6872 22.0027 33.3059C22.0027 33.9257 21.4982 34.4291 20.8795 34.4291H8.99407C8.37525 34.4291 7.87089 33.9257 7.87089 33.3059C7.87079 32.6871 8.37525 32.1827 8.99407 32.1827ZM8.99407 36.0628H20.8795C21.4983 36.0628 22.0027 36.5673 22.0027 37.186C22.0027 37.8058 21.4982 38.3092 20.8795 38.3092H12.6699C12.336 38.1562 11.99 38.0312 11.6355 37.9354C11.1025 37.7902 10.554 37.7096 10.0018 37.6954C9.84147 37.6912 9.68108 37.6926 9.52087 37.6995H7.99642C7.91357 37.541 7.87046 37.3647 7.87079 37.1859C7.87079 36.5673 8.37525 36.0628 8.99407 36.0628ZM22.0027 41.0662C22.0027 41.686 21.4982 42.1894 20.8795 42.1894H16.3081C15.9954 41.358 15.5245 40.5951 14.9215 39.943H20.8795C21.4982 39.943 22.0027 40.4474 22.0027 41.0662ZM5.01993 39.5999C4.51136 40.0829 4.07772 40.639 3.73333 41.25H2.78169C3.40356 40.4791 4.17655 39.9307 5.01993 39.5999ZM1.91272 42.7816H3.10233C3.07582 42.8959 2.94094 43.336 2.8797 44.0059H1.62276C1.67108 43.5878 1.76841 43.1769 1.91272 42.7816ZM2.04445 46.8303C1.8626 46.4172 1.73362 45.9829 1.66054 45.5376H2.90834C3.13198 46.8058 3.14417 46.5872 3.20033 46.8303H2.04445ZM3.06353 48.3618C3.56484 48.3608 3.85592 48.3639 3.92427 48.3598C4.23345 48.8472 4.60256 49.2938 5.02297 49.6892C4.28268 49.3983 3.62415 48.9541 3.06353 48.3618ZM10.0335 50.0579C7.04478 50.1866 4.51445 47.8718 4.3878 44.8759C4.18254 40.1064 9.87918 37.3597 13.4663 40.6526C17.0025 43.8987 14.85 49.8598 10.0335 50.0579ZM20.8795 49.9497H14.2864C15.0194 49.3292 15.6169 48.5646 16.0416 47.7033H20.8795C21.4983 47.7033 22.0027 48.2078 22.0027 48.8265C22.0027 49.4462 21.4982 49.9497 20.8795 49.9497ZM21.9936 45.0832C21.9261 45.6386 21.4523 46.0696 20.8795 46.0696H16.6053C16.7588 45.331 16.7922 44.5724 16.7043 43.8232H20.8795C21.5677 43.8231 22.0813 44.4389 21.9936 45.0832ZM24.6667 43.4494H23.1922C23.0893 43.2896 22.9698 43.141 22.8358 43.0062C23.9028 41.93 23.9038 40.2023 22.8358 39.1261C23.33 38.6279 23.6363 37.9427 23.6363 37.1861C23.6363 36.4295 23.33 35.7443 22.8358 35.246C24.5532 33.5143 23.326 30.5491 20.8794 30.5491H11.6355V4.77872C11.6355 3.04495 13.0466 1.63373 14.7805 1.63373H33.3756V8.03288C33.3755 8.14017 33.3966 8.24641 33.4377 8.34553C33.4787 8.44466 33.5389 8.53472 33.6147 8.61058C33.6906 8.68645 33.7807 8.74661 33.8798 8.78765C33.9789 8.82869 34.0852 8.84979 34.1924 8.84975H40.1004C40.271 9.51143 40.1657 9.29287 40.1974 16.997H31.0311C27.5216 16.997 24.6667 19.8519 24.6667 23.3614V43.4494ZM50.4125 45.6356C50.4125 48.3006 48.2447 50.4684 45.5796 50.4684H31.0312C28.3672 50.4684 26.1983 48.3007 26.1983 45.6356V23.3615C26.1983 20.6965 28.3671 18.5287 31.0312 18.5287H45.5797C48.2447 18.5287 50.4126 20.6964 50.4126 23.3615V45.6356H50.4125Z" fill="#7090E3"/>
<path id="Vector_2" d="M45.5252 20.2653H31.0849C29.665 20.2653 28.5139 21.4164 28.5139 22.8364V25.6393C28.5139 27.0592 29.665 28.2104 31.0849 28.2104H33.8633C34.0663 28.2104 34.2611 28.1297 34.4047 27.9861C34.5484 27.8424 34.629 27.6477 34.629 27.4446C34.629 27.2415 34.5484 27.0467 34.4047 26.9031C34.2611 26.7595 34.0663 26.6788 33.8633 26.6788H31.0849C30.5132 26.6788 30.0454 26.211 30.0454 25.6393V22.8364C30.0454 22.2647 30.5132 21.7969 31.0849 21.7969H45.5252C46.099 21.7969 46.5647 22.2636 46.5647 22.8364V25.6393C46.5647 26.2121 46.099 26.6788 45.5252 26.6788H37.1656C36.9625 26.6788 36.7677 26.7595 36.6241 26.9031C36.4805 27.0467 36.3998 27.2415 36.3998 27.4446C36.3998 27.6477 36.4805 27.8424 36.6241 27.9861C36.7677 28.1297 36.9625 28.2104 37.1656 28.2104H45.5252C46.9435 28.2104 48.0962 27.0565 48.0962 25.6393V22.8364C48.0962 21.4192 46.9434 20.2653 45.5252 20.2653ZM32.734 36.4026H30.1169C29.2336 36.4026 28.5139 37.1214 28.5139 38.0056V40.6217C28.5139 41.506 29.2337 42.2248 30.1169 42.2248H32.734C33.6183 42.2248 34.337 41.5059 34.337 40.6217V38.0056C34.337 37.1214 33.6182 36.4026 32.734 36.4026ZM32.8054 40.6217C32.8053 40.6406 32.7978 40.6588 32.7844 40.6722C32.771 40.6856 32.7528 40.6931 32.7339 40.6932H30.1168C30.0979 40.6931 30.0797 40.6856 30.0663 40.6722C30.0529 40.6588 30.0454 40.6406 30.0453 40.6217V38.0056C30.0453 37.9658 30.078 37.9341 30.1168 37.9341H32.7339C32.7727 37.9341 32.8054 37.9658 32.8054 38.0056V40.6217ZM46.5758 29.5613H43.9598C43.0755 29.5613 42.3567 30.2802 42.3567 31.1644V33.7804C42.3567 34.6647 43.0756 35.3835 43.9598 35.3835H46.5758C47.4601 35.3835 48.1789 34.6646 48.1789 33.7804V31.1644C48.1789 30.2802 47.46 29.5613 46.5758 29.5613ZM46.6473 33.7804C46.6474 33.7898 46.6456 33.7992 46.642 33.8079C46.6384 33.8166 46.6332 33.8245 46.6265 33.8311C46.6199 33.8378 46.612 33.843 46.6033 33.8466C46.5946 33.8502 46.5852 33.852 46.5758 33.8519H43.9598C43.9408 33.8519 43.9227 33.8443 43.9093 33.8309C43.8959 33.8175 43.8883 33.7994 43.8883 33.7804C43.92 31.192 43.8219 31.0929 43.9598 31.0929H46.5758C46.5852 31.0928 46.5946 31.0947 46.6033 31.0982C46.612 31.1018 46.6199 31.1071 46.6265 31.1137C46.6332 31.1204 46.6384 31.1283 46.642 31.137C46.6456 31.1457 46.6474 31.155 46.6473 31.1644V33.7804ZM32.734 29.5613H30.1169C29.2336 29.5613 28.5139 30.2802 28.5139 31.1644V33.7804C28.5139 34.6647 29.2337 35.3835 30.1169 35.3835H32.734C33.6183 35.3835 34.337 34.6646 34.337 33.7804V31.1644C34.337 30.2802 33.6182 29.5613 32.734 29.5613ZM32.8054 33.7804C32.8053 33.7994 32.7978 33.8175 32.7844 33.8309C32.771 33.8443 32.7528 33.8519 32.7339 33.8519H30.1168C30.0979 33.8519 30.0797 33.8443 30.0663 33.8309C30.0529 33.8175 30.0454 33.7994 30.0453 33.7804V31.1644C30.0453 31.1246 30.078 31.0929 30.1168 31.0929H32.7339C32.7727 31.0929 32.8054 31.1246 32.8054 31.1644V33.7804ZM33.9337 43.4491C33.6396 43.1183 33.2108 42.909 32.734 42.909H30.1169C29.8902 42.9089 29.6661 42.9569 29.4594 43.0501C29.2528 43.1432 29.0683 43.2792 28.9182 43.4491C28.3617 44.073 28.5506 44.7531 28.5139 45.0828V47.1281C28.5139 48.0124 29.2337 48.7312 30.1169 48.7312H32.734C33.6183 48.7312 34.337 48.0123 34.337 47.1281V45.0828C34.3003 44.7603 34.4872 44.073 33.9337 43.4491ZM32.734 47.1996C30.1486 47.1679 30.0454 47.266 30.0454 47.1281C30.0454 44.3579 30.0147 44.4406 30.1169 44.4406H32.734C32.8596 44.4406 32.782 44.6151 32.8055 45.0828C32.8054 45.0829 32.8718 47.1996 32.734 47.1996ZM46.1694 36.4026H44.3661C43.2583 36.4026 42.3566 37.3043 42.3566 38.4121V46.5369C42.3566 47.7469 43.341 48.7313 44.55 48.7313H45.9856C47.1957 48.7313 48.179 47.7469 48.179 46.5369V38.4121C48.1789 37.3043 47.2783 36.4026 46.1694 36.4026ZM45.9856 47.1996H44.55C44.1855 47.1996 43.8883 46.9024 43.8883 46.5369V38.4121C43.8884 38.2854 43.9388 38.1639 44.0284 38.0744C44.118 37.9848 44.2394 37.9344 44.3661 37.9343H46.1694C46.2961 37.9344 46.4175 37.9848 46.5071 38.0744C46.5967 38.1639 46.6471 38.2854 46.6472 38.4121V46.5369C46.6473 46.9024 46.3512 47.1996 45.9856 47.1996ZM19.7683 22.2448C18.8345 21.9017 18.16 21.6539 18.16 20.7888C18.16 20.0003 18.6836 19.6006 19.7162 19.6006C20.8124 19.6006 21.1075 20.0831 21.4936 20.0831C21.9139 20.0831 22.1464 19.6372 22.1464 19.3287C22.1464 18.6907 21.1057 18.3743 20.1754 18.2908V17.7156C20.1752 17.5232 20.0986 17.3388 19.9626 17.2027C19.8265 17.0667 19.6421 16.9901 19.4497 16.9899C19.2573 16.9901 19.0729 17.0667 18.9368 17.2027C18.8008 17.3388 18.7243 17.5232 18.724 17.7156V18.3826C17.452 18.6846 16.753 19.5632 16.753 20.865C16.753 22.6475 18.0652 23.1406 19.1198 23.537C20.1523 23.9249 20.968 24.2314 20.968 25.4103C20.968 26.384 20.4273 26.8776 19.3608 26.8776C17.8 26.8776 17.7854 25.8238 17.19 25.8238C16.8214 25.8238 16.5244 26.2366 16.5244 26.5782C16.5244 27.1817 17.4231 27.9749 18.724 28.1808V28.7366C18.724 29.1368 19.0495 29.4623 19.4497 29.4623C19.8499 29.4623 20.1754 29.1368 20.1754 28.7366V28.1659C21.5747 27.9025 22.375 26.875 22.375 25.334C22.3749 23.2025 20.9297 22.6715 19.7683 22.2448ZM40.725 43.3583C40.4271 43.07 40.0286 42.9088 39.614 42.909H36.997C36.5201 42.909 36.0912 43.1183 35.7972 43.4491C35.2428 44.074 35.4307 44.7531 35.3939 45.0828V47.1281C35.3939 48.0124 36.1128 48.7312 36.997 48.7312H39.614C40.4973 48.7312 41.2161 48.0123 41.2161 47.1281V44.511C41.2161 44.0588 41.0272 43.6493 40.725 43.3583ZM39.614 47.1996C37.0286 47.1679 36.9255 47.266 36.9255 47.1281V44.511C36.9255 44.4722 36.9582 44.4406 36.997 44.4406H39.614C39.6528 44.4406 39.6845 44.4722 39.6845 44.511C39.6538 47.1026 39.7498 47.1996 39.614 47.1996ZM39.614 29.5613H36.997C36.1127 29.5613 35.3939 30.2802 35.3939 31.1644V33.7804C35.3939 34.6647 36.1128 35.3835 36.997 35.3835H39.614C39.8203 35.3835 40.0163 35.3447 40.1971 35.2732C40.7934 35.0394 41.2162 34.4584 41.2162 33.7803V31.1643C41.2161 30.277 40.4931 29.5613 39.614 29.5613ZM39.614 33.8519H36.997C36.978 33.8519 36.9599 33.8443 36.9465 33.8309C36.9331 33.8175 36.9255 33.7994 36.9255 33.7804V31.1644C36.9255 31.0266 37.0204 31.1236 39.614 31.0929C39.6528 31.0929 39.6845 31.1246 39.6845 31.1644V33.7804C39.6846 33.7898 39.6828 33.799 39.6793 33.8077C39.6758 33.8163 39.6707 33.8242 39.6641 33.8308C39.6576 33.8375 39.6498 33.8428 39.6412 33.8464C39.6326 33.85 39.6234 33.8519 39.614 33.8519ZM40.1971 36.5129C40.0115 36.4396 39.8136 36.4022 39.614 36.4026H36.997C36.1127 36.4026 35.3939 37.1214 35.3939 38.0056V40.6217C35.3939 41.506 36.1128 42.2248 36.997 42.2248H39.614C40.4973 42.2248 41.2161 41.5059 41.2161 40.6217V38.0056C41.2161 37.3277 40.7934 36.7467 40.1971 36.5129ZM39.6845 40.6217C39.6846 40.631 39.6828 40.6403 39.6793 40.6489C39.6758 40.6576 39.6707 40.6654 39.6641 40.6721C39.6576 40.6787 39.6498 40.684 39.6412 40.6876C39.6326 40.6912 39.6234 40.6931 39.614 40.6932H36.997C36.978 40.6931 36.9599 40.6856 36.9465 40.6722C36.9331 40.6588 36.9255 40.6406 36.9255 40.6217V38.0056C36.9255 37.9658 36.9582 37.9341 36.997 37.9341H39.614C39.6528 37.9341 39.6845 37.9658 39.6845 38.0056V40.6217ZM35.1937 10.4648H33.27C33.067 10.4649 32.8722 10.5456 32.7286 10.6892C32.585 10.8328 32.5043 11.0276 32.5042 11.2306C32.5042 11.3312 32.524 11.4308 32.5624 11.5237C32.6009 11.6167 32.6573 11.7011 32.7284 11.7722C32.7995 11.8434 32.884 11.8998 32.9769 11.9382C33.0698 11.9767 33.1694 11.9965 33.27 11.9964H35.1937C35.2943 11.9965 35.3939 11.9767 35.4868 11.9382C35.5798 11.8998 35.6642 11.8434 35.7353 11.7722C35.8064 11.7011 35.8629 11.6167 35.9013 11.5237C35.9398 11.4308 35.9596 11.3312 35.9595 11.2306C35.9594 11.0275 35.8787 10.8328 35.7351 10.6892C35.5916 10.5456 35.3968 10.4649 35.1937 10.4648ZM30.2067 10.4648H16.6263C16.4232 10.4649 16.2285 10.5456 16.0849 10.6892C15.9413 10.8328 15.8606 11.0276 15.8605 11.2306C15.8604 11.3312 15.8802 11.4308 15.9187 11.5237C15.9571 11.6167 16.0135 11.7011 16.0847 11.7722C16.1558 11.8434 16.2402 11.8998 16.3332 11.9382C16.4261 11.9767 16.5257 11.9965 16.6263 11.9964H30.2068C30.3074 11.9965 30.407 11.9767 30.4999 11.9382C30.5928 11.8998 30.6773 11.8434 30.7484 11.7722C30.8195 11.7011 30.8759 11.6167 30.9144 11.5237C30.9529 11.4308 30.9726 11.3312 30.9726 11.2306C30.9725 11.0275 30.8918 10.8328 30.7482 10.6892C30.6045 10.5456 30.4098 10.4649 30.2067 10.4648ZM19.0605 14.2664H16.6263C16.4232 14.2665 16.2285 14.3472 16.0849 14.4908C15.9413 14.6344 15.8606 14.8291 15.8605 15.0322C15.8606 15.2353 15.9413 15.43 16.0849 15.5736C16.2285 15.7172 16.4232 15.7979 16.6263 15.798H19.0605C19.2636 15.7979 19.4583 15.7172 19.6019 15.5736C19.7455 15.43 19.8262 15.2353 19.8263 15.0322C19.8262 14.8291 19.7455 14.6344 19.6019 14.4908C19.4583 14.3472 19.2636 14.2665 19.0605 14.2664ZM35.1937 14.2664H22.1237C21.9207 14.2665 21.7259 14.3472 21.5823 14.4908C21.4387 14.6344 21.358 14.8291 21.358 15.0322C21.358 15.2353 21.4387 15.43 21.5823 15.5736C21.7259 15.7172 21.9207 15.7979 22.1237 15.798H35.1937C35.3968 15.7979 35.5915 15.7172 35.7351 15.5736C35.8787 15.43 35.9594 15.2353 35.9595 15.0322C35.9594 14.8291 35.8787 14.6344 35.7351 14.4908C35.5916 14.3472 35.3968 14.2665 35.1937 14.2664ZM9.36688 43.18C9.36688 42.9875 9.43777 42.9322 9.50409 42.8955C9.70986 42.7816 10.1819 42.7481 10.6144 42.9705C10.7292 43.0295 10.8594 43.0965 11.0289 43.0965C11.7842 43.0965 12.3816 41.693 10.5773 41.3827V41.3345C10.5773 40.9066 10.2291 40.5584 9.80127 40.5584C9.37338 40.5584 9.02523 40.9066 9.02523 41.3345V41.4817C8.2692 41.7559 7.84152 42.3794 7.84152 43.2258C7.84152 44.5318 8.79041 44.8884 9.48348 45.1487C10.1443 45.3971 10.3729 45.5057 10.3729 45.9552C10.3729 46.2363 10.2972 46.4964 9.74784 46.4964C8.94733 46.4964 9.0432 45.8636 8.44409 45.8636C8.02067 45.8636 7.7041 46.2824 7.7041 46.6568C7.7041 47.1874 8.25579 47.691 9.02523 47.8951V47.9532C9.02523 48.3811 9.37338 48.7292 9.80127 48.7292C10.2291 48.7292 10.5773 48.3812 10.5773 47.9532V47.8748C11.4099 47.6072 11.8983 46.8902 11.8983 45.9095C11.8983 43.5824 9.36688 43.9319 9.36688 43.18Z" fill="#7090E3"/>
</g>
</g>
<defs>
<clipPath id="clip0_0_8640">
<rect width="52" height="52" fill="white"/>
</clipPath>
</defs>
</svg>
