<svg width="52" height="52" viewBox="0 0 52 52" fill="none" xmlns="http://www.w3.org/2000/svg">
<g id="Frame" clip-path="url(#clip0_274_1271)">
<g id="Group">
<path id="Vector" d="M30.1483 30.3594V32.7645C30.1488 33.1934 30.3194 33.6046 30.6227 33.9078C30.9259 34.2111 31.3371 34.3817 31.766 34.3822H33.3029C33.269 34.5125 33.2516 34.6466 33.2511 34.7812V37.1858C33.2516 37.3205 33.269 37.4545 33.3029 37.5849H31.766C31.3371 37.5854 30.9259 37.756 30.6227 38.0593C30.3194 38.3626 30.1488 38.7737 30.1483 39.2026V41.6072C30.1488 42.0361 30.3194 42.4473 30.6227 42.7506C30.9259 43.0538 31.3371 43.2244 31.766 43.2249H33.3029C33.269 43.3553 33.2516 43.4893 33.2511 43.624V46.0286C33.2515 46.4575 33.4221 46.8686 33.7254 47.1719C34.0287 47.4752 34.4398 47.6458 34.8687 47.6463H50.3822C50.8111 47.6459 51.2223 47.4753 51.5256 47.172C51.8289 46.8687 51.9995 46.4575 52 46.0286V43.6235C51.9995 43.1945 51.8289 42.7833 51.5256 42.48C51.2223 42.1768 50.8111 42.0061 50.3822 42.0057H48.8455C48.8793 41.8754 48.8967 41.7413 48.8973 41.6067V39.2021C48.8967 39.0675 48.8793 38.9334 48.8455 38.8031H50.3822C50.8111 38.8026 51.2223 38.632 51.5256 38.3287C51.8289 38.0254 51.9995 37.6142 52 37.1853V34.7807C51.9995 34.3518 51.8289 33.9406 51.5256 33.6373C51.2223 33.334 50.8111 33.1634 50.3822 33.1629H48.8455C48.8793 33.0326 48.8967 32.8986 48.8973 32.764V30.3594C48.8968 29.9305 48.7262 29.5193 48.4229 29.216C48.1196 28.9127 47.7084 28.7422 47.2795 28.7417H31.766C31.3371 28.7422 30.9259 28.9128 30.6227 29.2161C30.3194 29.5193 30.1488 29.9305 30.1483 30.3594ZM50.7812 43.6235V46.0286C50.7799 46.134 50.7374 46.2346 50.6628 46.3092C50.5883 46.3837 50.4876 46.4262 50.3822 46.4276H34.8687C34.7634 46.4261 34.6629 46.3835 34.5885 46.309C34.5141 46.2345 34.4717 46.1339 34.4703 46.0286V43.6235C34.4717 43.5181 34.5141 43.4174 34.5886 43.3428C34.6632 43.2683 34.7639 43.2258 34.8693 43.2244H50.3822C50.4876 43.2258 50.5883 43.2683 50.6629 43.3428C50.7374 43.4173 50.7799 43.5181 50.7812 43.6235ZM47.6785 39.2021V41.6067C47.6771 41.7121 47.6346 41.8128 47.5601 41.8873C47.4856 41.9618 47.3849 42.0043 47.2795 42.0057H31.766C31.6606 42.0043 31.56 41.9618 31.4855 41.8873C31.4109 41.8128 31.3685 41.7121 31.3671 41.6067V39.2021C31.3684 39.0967 31.4109 38.9961 31.4854 38.9215C31.5599 38.847 31.6606 38.8045 31.766 38.8031H47.2795C47.3849 38.8045 47.4856 38.8469 47.5601 38.9215C47.6347 38.996 47.6771 39.0967 47.6785 39.2021ZM50.7812 34.7807V37.1853C50.7799 37.2907 50.7374 37.3914 50.6629 37.466C50.5883 37.5405 50.4876 37.583 50.3822 37.5843H34.8687C34.7633 37.583 34.6627 37.5405 34.5881 37.466C34.5136 37.3914 34.4711 37.2907 34.4698 37.1853V34.7807C34.4712 34.6753 34.5136 34.5746 34.5882 34.5001C34.6627 34.4256 34.7634 34.3831 34.8687 34.3817H50.3822C50.4876 34.3831 50.5883 34.4256 50.6628 34.5001C50.7374 34.5746 50.7799 34.6753 50.7812 34.7807ZM47.6785 30.3594V32.7645C47.6771 32.8699 47.6347 32.9706 47.5601 33.0451C47.4856 33.1196 47.3849 33.1621 47.2795 33.1634H31.766C31.6606 33.1621 31.5599 33.1196 31.4854 33.0451C31.4109 32.9706 31.3684 32.8699 31.3671 32.7645V30.3594C31.3685 30.254 31.4109 30.1534 31.4855 30.0788C31.56 30.0043 31.6606 29.9618 31.766 29.9605H47.2795C47.3849 29.9618 47.4856 30.0043 47.5601 30.0788C47.6346 30.1533 47.6771 30.254 47.6785 30.3594ZM19.9977 35.3573C19.9977 35.5189 20.0619 35.6739 20.1761 35.7882C20.2904 35.9025 20.4454 35.9667 20.607 35.9667C20.7686 35.9667 20.9236 35.9025 21.0379 35.7882C21.1522 35.6739 21.2164 35.5189 21.2164 35.3573C21.2164 33.7469 19.7818 32.4082 17.9123 32.1658V31.5127C17.9123 31.3511 17.8481 31.1961 17.7338 31.0818C17.6195 30.9676 17.4645 30.9034 17.3029 30.9034C17.1413 30.9034 16.9863 30.9676 16.872 31.0818C16.7577 31.1961 16.6935 31.3511 16.6935 31.5127V32.1603C14.5489 32.3981 13.4303 33.8855 13.4303 35.3573C13.4303 36.829 14.5489 38.3165 16.6935 38.5544V42.5601C15.5004 42.3532 14.6082 41.5534 14.6082 40.6004C14.6082 40.4388 14.544 40.2838 14.4298 40.1696C14.3155 40.0553 14.1605 39.9911 13.9989 39.9911C13.8373 39.9911 13.6823 40.0553 13.568 40.1696C13.4537 40.2838 13.3895 40.4388 13.3895 40.6004C13.3895 42.2108 14.8241 43.5496 16.6935 43.7919V44.445C16.6935 44.6066 16.7577 44.7616 16.872 44.8759C16.9863 44.9902 17.1413 45.0544 17.3029 45.0544C17.4645 45.0544 17.6195 44.9902 17.7338 44.8759C17.8481 44.7616 17.9123 44.6066 17.9123 44.445V43.7974C20.0569 43.5597 21.1755 42.0722 21.1755 40.6003C21.1755 39.1285 20.0569 37.6411 17.9123 37.4034V33.3977C19.105 33.6045 19.9977 34.4043 19.9977 35.3573ZM14.6491 35.3573C14.6491 34.5037 15.2939 33.5931 16.6935 33.3881V37.3266C15.2935 37.1215 14.6487 36.2109 14.6487 35.3573H14.6491ZM19.9567 40.6003C19.9567 41.4541 19.312 42.3647 17.9123 42.5696V38.6312C19.3116 38.8362 19.9563 39.7467 19.9563 40.6003H19.9567ZM17.3029 26.8661C15.105 26.8661 12.9564 27.5178 11.1289 28.7388C9.30132 29.9598 7.8769 31.6954 7.03574 33.726C6.19458 35.7566 5.97446 37.991 6.40321 40.1467C6.83196 42.3024 7.89033 44.2825 9.44447 45.8367C10.9986 47.3909 12.9787 48.4493 15.1344 48.8781C17.2901 49.3069 19.5245 49.0869 21.5551 48.2458C23.5858 47.4047 25.3213 45.9803 26.5424 44.1528C27.7635 42.3253 28.4153 40.1767 28.4153 37.9788C28.4119 35.0326 27.24 32.2079 25.1567 30.1246C23.0734 28.0413 20.2487 26.8695 17.3025 26.8661H17.3029ZM17.3029 47.8728C15.346 47.8728 13.4331 47.2926 11.8061 46.2054C10.179 45.1182 8.91087 43.573 8.16202 41.7651C7.41317 39.9572 7.21723 37.9678 7.59899 36.0486C7.98076 34.1293 8.92307 32.3664 10.3068 30.9827C11.6905 29.599 13.4534 28.6567 15.3727 28.2749C17.2919 27.8931 19.2813 28.0891 21.0892 28.8379C22.8971 29.5868 24.4423 30.8549 25.5295 32.482C26.6166 34.1091 27.1969 36.022 27.1969 37.9788C27.194 40.602 26.1506 43.117 24.2956 44.9718C22.4407 46.8267 19.9257 47.87 17.3025 47.8728H17.3029ZM33.2549 17.5403C33.2549 17.3787 33.1907 17.2237 33.0764 17.1094C32.9622 16.9951 32.8072 16.9309 32.6455 16.9309C32.4839 16.9309 32.3289 16.9951 32.2146 17.1094C32.1004 17.2237 32.0362 17.3787 32.0362 17.5403C32.0362 19.1508 33.4708 20.4894 35.3403 20.7319V21.3849C35.3403 21.5465 35.4045 21.7015 35.5188 21.8158C35.6331 21.9301 35.7881 21.9943 35.9497 21.9943C36.1113 21.9943 36.2663 21.9301 36.3806 21.8158C36.4948 21.7015 36.559 21.5465 36.559 21.3849V20.7374C38.7036 20.4996 39.8223 19.0121 39.8223 17.5403C39.8223 16.0684 38.7036 14.5811 36.559 14.3433V10.338C37.7522 10.5448 38.6443 11.3446 38.6443 12.2981C38.6443 12.4597 38.7085 12.6147 38.8228 12.729C38.9371 12.8433 39.0921 12.9075 39.2537 12.9075C39.4153 12.9075 39.5703 12.8433 39.6846 12.729C39.7989 12.6147 39.8631 12.4597 39.8631 12.2981C39.8631 10.6877 38.4285 9.34896 36.559 9.10653V8.45307C36.559 8.29146 36.4948 8.13646 36.3806 8.02218C36.2663 7.9079 36.1113 7.8437 35.9497 7.8437C35.7881 7.8437 35.6331 7.9079 35.5188 8.02218C35.4045 8.13646 35.3403 8.29146 35.3403 8.45307V9.10043C33.1957 9.33829 32.0771 10.8257 32.0771 12.2975C32.0771 13.7694 33.1957 15.2567 35.3403 15.4946V19.5004C34.147 19.2936 33.2549 18.4937 33.2549 17.5403ZM38.6035 17.5403C38.6035 18.3939 37.9587 19.3045 36.559 19.5096V15.5715C37.9587 15.7764 38.6039 16.6872 38.6039 17.5403H38.6035ZM33.2958 12.2972C33.2958 11.4436 33.9407 10.533 35.3403 10.3279V14.2664C33.9407 14.0619 33.2958 13.1513 33.2958 12.2976V12.2972ZM35.9496 26.0315C38.1475 26.0315 40.2961 25.3798 42.1236 24.1587C43.9511 22.9376 45.3754 21.202 46.2165 19.1714C47.0576 17.1408 47.2777 14.9064 46.8489 12.7507C46.4201 10.595 45.3617 8.61487 43.8075 7.06073C42.2533 5.50659 40.2731 4.44822 38.1175 4.01947C35.9618 3.59072 33.7273 3.81084 31.6967 4.652C29.6662 5.49316 27.9306 6.91757 26.7096 8.74511C25.4885 10.5727 24.8368 12.7212 24.8369 14.9192C24.8402 17.8654 26.0121 20.69 28.0954 22.7733C30.1787 24.8567 33.0033 26.0286 35.9496 26.0319V26.0315ZM35.9496 5.02473C37.9064 5.02471 39.8193 5.60497 41.4464 6.69212C43.0735 7.77928 44.3417 9.32451 45.0905 11.1324C45.8394 12.9403 46.0353 14.9297 45.6536 16.8489C45.2718 18.7682 44.3295 20.5311 42.9458 21.9148C41.5621 23.2985 39.7992 24.2409 37.8799 24.6226C35.9607 25.0044 33.9713 24.8085 32.1634 24.0596C30.3555 23.3108 28.8103 22.0426 27.7231 20.4156C26.6359 18.7885 26.0557 16.8756 26.0557 14.9187C26.0587 12.2957 27.1021 9.78094 28.9569 7.92619C30.8117 6.07143 33.3265 5.02812 35.9496 5.02514V5.02473ZM8.41811 16.6436C8.41811 16.482 8.35391 16.327 8.23963 16.2127C8.12535 16.0984 7.97035 16.0342 7.80873 16.0342C7.64712 16.0342 7.49212 16.0984 7.37784 16.2127C7.26356 16.327 7.19936 16.482 7.19936 16.6436C7.19936 18.254 8.63393 19.5928 10.5034 19.8351V20.4881C10.5034 20.6497 10.5676 20.8047 10.6819 20.919C10.7962 21.0333 10.9511 21.0975 11.1128 21.0975C11.2744 21.0975 11.4294 21.0333 11.5437 20.919C11.6579 20.8047 11.7221 20.6497 11.7221 20.4881V19.8407C13.8667 19.6028 14.9853 18.1153 14.9853 16.6436C14.9853 15.1718 13.8667 13.6844 11.7221 13.4465V9.44087C12.9153 9.64765 13.8074 10.4475 13.8074 11.401C13.8074 11.5626 13.8716 11.7176 13.9859 11.8319C14.1002 11.9462 14.2552 12.0104 14.4168 12.0104C14.5784 12.0104 14.7334 11.9462 14.8477 11.8319C14.962 11.7176 15.0262 11.5626 15.0262 11.401C15.0262 9.79055 13.5916 8.45186 11.7221 8.20943V7.55597C11.7221 7.39436 11.6579 7.23936 11.5437 7.12508C11.4294 7.0108 11.2744 6.9466 11.1128 6.9466C10.9511 6.9466 10.7962 7.0108 10.6819 7.12508C10.5676 7.23936 10.5034 7.39436 10.5034 7.55597V8.20343C8.35859 8.44129 7.24019 9.92868 7.24019 11.4005C7.24019 12.8724 8.3588 14.3597 10.5034 14.5975V18.6032C9.31023 18.3963 8.41811 17.5965 8.41811 16.6436ZM13.7666 16.6436C13.7666 17.4972 13.1218 18.4078 11.7221 18.6128V14.6743C13.1219 14.8793 13.7666 15.7899 13.7666 16.6436ZM8.45894 11.4005C8.45894 10.5469 9.10376 9.63628 10.5034 9.43122V13.3697C9.10376 13.1647 8.45894 12.2542 8.45894 11.4005ZM11.1128 25.1347C13.3107 25.1347 15.4592 24.483 17.2867 23.2619C19.1142 22.0408 20.5385 20.3052 21.3796 18.2746C22.2207 16.244 22.4408 14.0096 22.012 11.8539C21.5832 9.69825 20.5248 7.71815 18.9706 6.164C17.4165 4.60986 15.4364 3.55148 13.2807 3.1227C11.125 2.69392 8.89061 2.91401 6.86002 3.75512C4.82943 4.59624 3.09386 6.0206 1.87279 7.8481C0.651715 9.6756 -2.00867e-05 11.8242 4.64318e-10 14.0221C0.0033333 16.9683 1.17521 19.7929 3.25854 21.8762C5.34187 23.9596 8.16651 25.1314 11.1128 25.1347ZM11.1128 4.12804C13.0696 4.12804 14.9825 4.70831 16.6096 5.79548C18.2366 6.88265 19.5048 8.42788 20.2536 10.2358C21.0025 12.0437 21.1984 14.033 20.8167 15.9523C20.4349 17.8715 19.4926 19.6345 18.1089 21.0182C16.7252 22.4019 14.9622 23.3442 13.043 23.726C11.1237 24.1077 9.13439 23.9118 7.32649 23.1629C5.5186 22.4141 3.97336 21.1459 2.88619 19.5189C1.79902 17.8918 1.21875 15.9789 1.21875 14.0221C1.22168 11.3989 2.26502 8.88402 4.11988 7.02916C5.97473 5.17431 8.48961 4.13097 11.1128 4.12804Z" fill="#7090E3"/>
</g>
</g>
<defs>
<clipPath id="clip0_274_1271">
<rect width="52" height="52" fill="white"/>
</clipPath>
</defs>
</svg>
