<svg width="797" height="1072" viewBox="0 0 797 1072" fill="none" xmlns="http://www.w3.org/2000/svg">
<g opacity="0.2" filter="url(#filter0_d_0_7370)">
<path d="M611.652 132.388C611.881 132.388 611.881 132.388 612.11 132.159L673.043 97.1025C673.272 96.8734 673.501 96.4151 673.272 95.9568C673.043 95.7277 672.585 95.4986 672.127 95.7277L611.193 130.784C610.735 131.014 610.735 131.472 610.964 131.93C610.964 132.388 611.423 132.388 611.652 132.388Z" fill="#374B7C"/>
<path d="M675.793 102.143C678.77 100.31 679.916 96.4151 678.083 93.2073C676.251 90.2286 672.356 89.0829 669.149 90.916C666.171 92.749 665.026 96.6442 666.859 99.852C668.691 102.831 672.586 103.747 675.793 102.143Z" fill="#374B7C"/>
<path d="M614.859 137.2C611.881 139.033 607.758 137.887 605.925 134.909C604.093 131.93 605.238 127.806 608.216 125.973C611.194 124.14 615.317 125.285 617.15 128.264C618.983 131.472 618.066 135.367 614.859 137.2Z" fill="#374B7C"/>
<path d="M611.652 132.388C611.882 132.388 612.34 132.159 612.34 131.93C612.569 131.472 612.34 131.014 612.111 130.784L551.177 95.7277C550.719 95.4986 550.261 95.7277 550.032 95.9568C549.803 96.4151 550.032 96.8734 550.261 97.1025L611.194 132.388C611.423 132.388 611.423 132.388 611.652 132.388Z" fill="#374B7C"/>
<path d="M608.445 137.2C611.423 139.033 615.547 137.887 617.379 134.909C619.212 131.93 618.066 127.806 615.088 125.973C612.11 124.14 607.987 125.285 606.155 128.264C604.322 131.472 605.238 135.367 608.445 137.2Z" fill="#374B7C"/>
<path d="M547.512 102.143C544.534 100.31 543.388 96.4151 545.221 93.2073C547.054 90.2286 550.948 89.0829 554.155 90.916C557.133 92.749 558.278 96.6442 556.446 99.852C554.613 102.831 550.719 103.747 547.512 102.143Z" fill="#374B7C"/>
<path d="M489.786 132.388C490.015 132.388 490.015 132.388 490.244 132.159L551.177 97.1024C551.635 96.8733 551.635 96.415 551.406 95.9568C551.177 95.4985 550.719 95.4985 550.261 95.7277L489.327 130.784C488.869 131.014 488.869 131.472 489.098 131.93C489.327 132.388 489.556 132.388 489.786 132.388Z" fill="#374B7C"/>
<path d="M553.926 102.143C556.904 100.31 558.05 96.4151 556.217 93.2073C554.384 90.2286 550.49 89.0829 547.283 90.916C544.076 92.749 543.16 96.6442 544.992 99.852C547.054 102.831 550.948 103.747 553.926 102.143Z" fill="#374B7C"/>
<path d="M493.222 137.2C490.244 139.033 486.121 137.887 484.288 134.909C482.456 131.93 483.601 127.806 486.579 125.973C489.557 124.14 493.68 125.285 495.513 128.264C497.346 131.472 496.2 135.367 493.222 137.2Z" fill="#374B7C"/>
<path d="M489.785 132.388C490.014 132.388 490.472 132.159 490.472 131.93C490.702 131.472 490.473 131.014 490.243 130.784L429.31 95.7277C428.852 95.4986 428.394 95.7277 428.165 95.9568C427.936 96.4151 428.165 96.8734 428.394 97.1025L489.556 132.388H489.785Z" fill="#374B7C"/>
<path d="M486.578 137.2C489.556 139.033 493.679 137.887 495.512 134.909C497.345 131.93 496.199 127.806 493.221 125.973C490.243 124.14 486.12 125.285 484.287 128.264C482.455 131.472 483.6 135.367 486.578 137.2Z" fill="#374B7C"/>
<path d="M425.874 102.143C422.896 100.31 421.751 96.4151 423.583 93.2073C425.416 90.2286 429.31 89.0829 432.517 90.916C435.495 92.749 436.64 96.6442 434.808 99.852C432.746 102.831 428.852 103.747 425.874 102.143Z" fill="#374B7C"/>
<path d="M368.148 132.388C368.377 132.388 368.377 132.388 368.606 132.159L429.539 97.1024C429.998 96.8733 429.998 96.415 429.768 95.9568C429.539 95.4985 429.081 95.4985 428.623 95.7277L367.69 130.784C367.232 131.014 367.232 131.472 367.461 131.93C367.461 132.388 367.919 132.388 368.148 132.388Z" fill="#374B7C"/>
<path d="M432.289 102.143C435.267 100.31 436.412 96.4151 434.579 93.2073C432.747 90.2286 428.853 89.0829 425.646 90.916C422.438 92.749 421.522 96.6442 423.355 99.852C425.187 102.831 429.082 103.747 432.289 102.143Z" fill="#374B7C"/>
<path d="M371.355 137.2C368.377 139.033 364.254 137.887 362.421 134.909C360.589 131.93 361.734 127.806 364.712 125.973C367.69 124.14 371.813 125.285 373.646 128.264C375.478 131.472 374.333 135.367 371.355 137.2Z" fill="#374B7C"/>
<path d="M368.148 132.388C368.377 132.388 368.835 132.159 368.835 131.93C369.064 131.472 368.835 131.014 368.606 130.784L307.672 95.7277C307.214 95.4986 306.756 95.7277 306.527 95.9568C306.298 96.4151 306.527 96.8734 306.756 97.1025L367.689 132.159C367.919 132.388 367.919 132.388 368.148 132.388Z" fill="#374B7C"/>
<path d="M364.94 137.2C367.918 139.033 372.042 137.887 373.874 134.909C375.707 131.93 374.562 127.806 371.584 125.973C368.606 124.14 364.482 125.285 362.65 128.264C360.817 131.472 361.733 135.367 364.94 137.2Z" fill="#374B7C"/>
<path d="M304.007 102.143C301.029 100.31 299.884 96.4151 301.716 93.2073C303.549 90.2286 307.443 89.0829 310.65 90.916C313.628 92.749 314.773 96.6442 312.941 99.852C311.108 102.831 306.985 103.747 304.007 102.143Z" fill="#374B7C"/>
<path d="M611.652 202.731C612.11 202.731 612.568 202.273 612.568 201.815V131.472C612.568 131.014 612.11 130.556 611.652 130.556C611.194 130.556 610.736 131.014 610.736 131.472V201.815C610.736 202.502 611.194 202.731 611.652 202.731Z" fill="#374B7C"/>
<path d="M605.238 202.043C605.238 205.709 608.216 208.459 611.652 208.459C615.318 208.459 618.066 205.48 618.066 202.043C618.066 198.377 615.088 195.628 611.652 195.628C607.987 195.398 605.238 198.377 605.238 202.043Z" fill="#374B7C"/>
<path d="M605.238 131.701C605.238 128.035 608.216 125.285 611.652 125.285C615.318 125.285 618.066 128.264 618.066 131.701C618.066 135.367 615.088 138.116 611.652 138.116C607.987 138.116 605.238 135.138 605.238 131.701Z" fill="#374B7C"/>
<path d="M611.653 132.388C611.882 132.388 611.882 132.388 612.111 132.159L673.044 97.1025C673.273 96.8734 673.502 96.4151 673.273 95.9568C673.044 95.7277 672.586 95.4986 672.128 95.7277L611.194 130.784C610.736 131.014 610.736 131.472 610.965 131.93C610.965 132.388 611.424 132.388 611.653 132.388Z" fill="#374B7C"/>
<path d="M608.445 125.972C605.467 127.805 604.322 131.701 606.155 134.908C607.987 137.887 611.881 139.033 615.088 137.2C618.066 135.367 619.212 131.471 617.379 128.264C615.547 125.056 611.423 124.139 608.445 125.972Z" fill="#374B7C"/>
<path d="M669.379 90.916C672.357 89.0829 676.48 90.2286 678.313 93.2073C680.145 96.1859 679 100.31 676.022 102.143C673.044 103.976 668.921 102.831 667.088 99.852C665.256 96.6442 666.172 92.749 669.379 90.916Z" fill="#374B7C"/>
<path d="M611.652 202.731C612.11 202.731 612.568 202.272 612.568 201.814V131.701C612.568 131.242 612.11 130.784 611.652 130.784C611.194 130.784 610.736 131.242 610.736 131.701V202.043C610.736 202.502 611.194 202.731 611.652 202.731Z" fill="#374B7C"/>
<path d="M611.652 208.459C608.11 208.459 605.238 205.587 605.238 202.044C605.238 198.5 608.11 195.628 611.652 195.628C615.195 195.628 618.066 198.5 618.066 202.044C618.066 205.587 615.195 208.459 611.652 208.459Z" fill="#374B7C"/>
<path d="M605.238 131.701C605.238 128.035 608.216 125.285 611.652 125.285C615.088 125.285 618.066 128.264 618.066 131.701C618.066 135.367 615.088 138.116 611.652 138.116C608.216 138.116 605.238 135.138 605.238 131.701Z" fill="#374B7C"/>
<path d="M550.719 238.017C550.948 238.017 550.948 238.017 551.177 237.788L612.111 202.731C612.569 202.502 612.569 202.044 612.34 201.586C612.111 201.127 611.653 201.127 611.194 201.357L550.261 236.413C549.803 236.642 549.803 237.101 550.032 237.559C550.261 237.788 550.49 238.017 550.719 238.017Z" fill="#374B7C"/>
<path d="M614.86 207.543C617.838 205.71 618.983 201.814 617.151 198.607C615.318 195.628 611.424 194.482 608.217 196.315C605.239 198.148 604.093 202.044 605.926 205.251C607.759 208.23 611.882 209.376 614.86 207.543Z" fill="#374B7C"/>
<path d="M553.927 242.599C550.949 244.432 546.825 243.287 544.993 240.308C543.16 237.329 544.306 233.205 547.284 231.372C550.261 229.539 554.385 230.685 556.217 233.663C558.05 236.871 557.134 240.995 553.927 242.599Z" fill="#374B7C"/>
<path d="M550.719 238.017C550.948 238.017 551.406 237.788 551.406 237.559C551.635 237.101 551.406 236.643 551.177 236.413L490.244 201.357C489.785 201.127 489.327 201.357 489.098 201.586C488.869 201.815 489.098 202.502 489.327 202.731L550.261 237.788C550.49 238.017 550.719 238.017 550.719 238.017Z" fill="#374B7C"/>
<path d="M547.512 242.599C550.49 244.432 554.613 243.287 556.446 240.308C558.278 237.329 557.133 233.205 554.155 231.372C551.177 229.539 547.054 230.685 545.221 233.663C543.388 236.871 544.534 240.995 547.512 242.599Z" fill="#374B7C"/>
<path d="M486.578 207.543C483.6 205.71 482.455 201.814 484.287 198.607C486.12 195.628 490.014 194.482 493.221 196.315C496.199 198.148 497.345 202.044 495.512 205.251C493.679 208.23 489.785 209.376 486.578 207.543Z" fill="#374B7C"/>
<path d="M489.785 202.731C490.243 202.731 490.701 202.273 490.701 201.815V131.472C490.701 131.014 490.243 130.556 489.785 130.556C489.327 130.556 488.869 131.014 488.869 131.472V201.815C489.098 202.502 489.327 202.731 489.785 202.731Z" fill="#374B7C"/>
<path d="M483.371 202.043C483.371 205.709 486.349 208.459 489.785 208.459C493.45 208.459 496.199 205.48 496.199 202.043C496.199 198.377 493.221 195.628 489.785 195.628C486.349 195.398 483.371 198.377 483.371 202.043Z" fill="#374B7C"/>
<path d="M483.371 131.701C483.371 128.035 486.349 125.285 489.785 125.285C493.45 125.285 496.199 128.264 496.199 131.701C496.199 135.367 493.221 138.116 489.785 138.116C486.349 138.116 483.371 135.138 483.371 131.701Z" fill="#374B7C"/>
<path d="M489.786 132.388C490.015 132.388 490.015 132.388 490.244 132.159L551.177 97.1024C551.635 96.8733 551.635 96.415 551.406 95.9568C551.177 95.4985 550.719 95.4985 550.261 95.7277L489.327 130.784C488.869 131.014 488.869 131.472 489.098 131.93C489.327 132.388 489.556 132.388 489.786 132.388Z" fill="#374B7C"/>
<path d="M486.578 125.972C483.6 127.805 482.455 131.701 484.287 134.908C486.12 137.887 490.014 139.033 493.221 137.2C496.199 135.367 497.345 131.471 495.512 128.264C493.679 125.056 489.785 124.139 486.578 125.972Z" fill="#374B7C"/>
<path d="M547.512 90.916C550.49 89.0829 554.613 90.2286 556.446 93.2073C558.278 96.1859 557.133 100.31 554.155 102.143C551.177 103.976 547.054 102.831 545.221 99.852C543.388 96.6442 544.534 92.749 547.512 90.916Z" fill="#374B7C"/>
<path d="M611.652 132.388C611.882 132.388 612.34 132.159 612.34 131.93C612.569 131.472 612.34 131.014 612.111 130.784L551.177 95.7277C550.719 95.4986 550.261 95.7277 550.032 95.9568C549.803 96.4151 550.032 96.8734 550.261 97.1025L611.194 132.388C611.423 132.388 611.423 132.388 611.652 132.388Z" fill="#374B7C"/>
<path d="M553.927 90.916C550.949 89.0829 546.825 90.2286 544.993 93.2073C543.16 96.1859 544.306 100.31 547.284 102.143C550.261 103.976 554.385 102.831 556.217 99.852C558.05 96.6442 557.134 92.749 553.927 90.916Z" fill="#374B7C"/>
<path d="M614.86 125.973C617.838 127.806 618.983 131.701 617.151 134.909C615.318 137.887 611.424 139.033 608.217 137.2C605.239 135.367 604.093 131.472 605.926 128.264C607.759 125.285 611.882 124.14 614.86 125.973Z" fill="#374B7C"/>
<path d="M489.785 202.731C490.243 202.731 490.701 202.272 490.701 201.814V131.701C490.701 131.242 490.243 130.784 489.785 130.784C489.327 130.784 488.869 131.242 488.869 131.701V202.043C489.098 202.502 489.327 202.731 489.785 202.731Z" fill="#374B7C"/>
<path d="M483.371 202.043C483.371 205.709 486.349 208.459 489.785 208.459C493.45 208.459 496.199 205.48 496.199 202.043C496.199 198.377 493.221 195.628 489.785 195.628C486.349 195.398 483.371 198.377 483.371 202.043Z" fill="#374B7C"/>
<path d="M483.371 131.701C483.371 128.035 486.349 125.285 489.785 125.285C493.45 125.285 496.199 128.264 496.199 131.701C496.199 135.367 493.221 138.116 489.785 138.116C486.349 138.116 483.371 135.138 483.371 131.701Z" fill="#374B7C"/>
<path d="M429.081 238.017C429.31 238.017 429.31 238.017 429.539 237.788L490.244 202.731C490.702 202.502 490.702 202.044 490.473 201.586C490.244 201.127 489.785 201.127 489.327 201.357L428.394 236.413C427.936 236.642 427.936 237.101 428.165 237.559C428.394 237.788 428.623 238.017 429.081 238.017Z" fill="#374B7C"/>
<path d="M493.221 207.543C496.199 205.71 497.345 201.814 495.512 198.607C493.679 195.628 489.785 194.482 486.578 196.315C483.6 198.148 482.455 202.044 484.287 205.251C486.12 208.23 490.014 209.376 493.221 207.543Z" fill="#374B7C"/>
<path d="M432.288 242.599C429.31 244.432 425.186 243.287 423.354 240.308C421.521 237.329 422.667 233.205 425.645 231.372C428.622 229.539 432.746 230.685 434.578 233.663C436.411 236.871 435.266 240.995 432.288 242.599Z" fill="#374B7C"/>
<path d="M429.081 238.017C429.31 238.017 429.768 237.788 429.768 237.559C429.997 237.101 429.768 236.643 429.539 236.413L368.606 201.357C368.148 201.127 367.69 201.357 367.461 201.586C367.231 202.044 367.461 202.502 367.69 202.731L428.623 237.788C428.623 238.017 428.852 238.017 429.081 238.017Z" fill="#374B7C"/>
<path d="M425.874 242.599C428.852 244.432 432.975 243.287 434.808 240.308C436.64 237.329 435.495 233.205 432.517 231.372C429.539 229.539 425.416 230.685 423.583 233.663C421.522 236.871 422.667 240.995 425.874 242.599Z" fill="#374B7C"/>
<path d="M364.94 207.543C361.962 205.71 360.817 201.814 362.65 198.607C364.482 195.628 368.377 194.482 371.584 196.315C374.562 198.148 375.707 202.044 373.874 205.251C371.813 208.23 367.918 209.376 364.94 207.543Z" fill="#374B7C"/>
<path d="M368.147 202.731C368.605 202.731 369.063 202.273 369.063 201.815V131.472C369.063 131.014 368.605 130.556 368.147 130.556C367.689 130.556 367.231 131.014 367.231 131.472V201.815C367.231 202.502 367.689 202.731 368.147 202.731Z" fill="#374B7C"/>
<path d="M361.733 202.044C361.733 205.71 364.711 208.459 368.147 208.459C371.813 208.459 374.562 205.48 374.562 202.044C374.562 198.377 371.584 195.628 368.147 195.628C364.711 195.628 361.733 198.377 361.733 202.044Z" fill="#374B7C"/>
<path d="M361.733 131.701C361.733 128.035 364.711 125.285 368.147 125.285C371.813 125.285 374.562 128.264 374.562 131.701C374.562 135.367 371.584 138.116 368.147 138.116C364.482 138.116 361.733 135.138 361.733 131.701Z" fill="#374B7C"/>
<path d="M368.147 132.388C368.376 132.388 368.376 132.388 368.606 132.159L429.31 97.1024C429.768 96.8733 429.768 96.415 429.539 95.9568C429.31 95.4985 428.852 95.4985 428.394 95.7277L367.46 130.784C367.002 131.014 367.002 131.472 367.231 131.93C367.46 132.388 367.918 132.388 368.147 132.388Z" fill="#374B7C"/>
<path d="M364.94 125.972C361.962 127.805 360.817 131.701 362.65 134.908C364.482 137.887 368.377 139.033 371.584 137.2C374.562 135.367 375.707 131.471 373.874 128.264C372.042 125.056 367.918 124.139 364.94 125.972Z" fill="#374B7C"/>
<path d="M425.874 90.916C428.852 89.0829 432.975 90.2286 434.808 93.2073C436.64 96.1859 435.495 100.31 432.517 102.143C429.539 103.976 425.416 102.831 423.583 99.852C421.522 96.6442 422.667 92.749 425.874 90.916Z" fill="#374B7C"/>
<path d="M489.785 132.388C490.014 132.388 490.472 132.159 490.472 131.93C490.702 131.472 490.473 131.014 490.243 130.784L429.31 95.7277C428.852 95.4986 428.394 95.7277 428.165 95.9568C427.936 96.4151 428.165 96.8734 428.394 97.1025L489.556 132.388H489.785Z" fill="#374B7C"/>
<path d="M432.288 90.916C429.31 89.0829 425.186 90.2286 423.354 93.2073C421.521 96.1859 422.667 100.31 425.645 102.143C428.622 103.976 432.746 102.831 434.578 99.852C436.411 96.6442 435.266 92.749 432.288 90.916Z" fill="#374B7C"/>
<path d="M493.221 125.973C496.199 127.806 497.345 131.701 495.512 134.909C493.679 137.887 489.785 139.033 486.578 137.2C483.6 135.367 482.455 131.472 484.287 128.264C486.12 125.285 490.014 124.14 493.221 125.973Z" fill="#374B7C"/>
<path d="M368.147 202.731C368.605 202.731 369.063 202.272 369.063 201.814V131.701C369.063 131.242 368.605 130.784 368.147 130.784C367.689 130.784 367.231 131.242 367.231 131.701V202.043C367.231 202.502 367.689 202.731 368.147 202.731Z" fill="#374B7C"/>
<path d="M368.147 208.459C364.605 208.459 361.733 205.587 361.733 202.044C361.733 198.5 364.605 195.628 368.147 195.628C371.69 195.628 374.562 198.5 374.562 202.044C374.562 205.587 371.69 208.459 368.147 208.459Z" fill="#374B7C"/>
<path d="M361.733 131.701C361.733 128.035 364.711 125.285 368.147 125.285C371.584 125.285 374.562 128.264 374.562 131.701C374.562 135.367 371.584 138.116 368.147 138.116C364.711 138.116 361.733 135.138 361.733 131.701Z" fill="#374B7C"/>
<path d="M307.214 238.017C307.443 238.017 307.443 238.017 307.672 237.788L368.606 202.731C369.064 202.502 369.064 202.044 368.835 201.586C368.606 201.127 368.148 201.127 367.69 201.357L306.756 236.413C306.298 236.642 306.298 237.101 306.527 237.559C306.527 237.788 306.985 238.017 307.214 238.017Z" fill="#374B7C"/>
<path d="M371.355 207.543C374.333 205.71 375.478 201.814 373.646 198.607C371.813 195.628 367.919 194.482 364.712 196.315C361.734 198.148 360.589 202.044 362.421 205.251C364.254 208.23 368.148 209.376 371.355 207.543Z" fill="#374B7C"/>
<path d="M310.422 242.599C307.444 244.432 303.32 243.287 301.488 240.308C299.655 237.329 300.801 233.205 303.779 231.372C306.757 229.539 310.88 230.685 312.712 233.663C314.545 236.871 313.629 240.995 310.422 242.599Z" fill="#374B7C"/>
<path d="M307.215 238.016C307.444 238.016 307.902 237.787 307.902 237.558C308.131 237.1 307.902 236.642 307.673 236.412L246.74 201.356C246.282 201.127 245.823 201.356 245.594 201.585C245.365 202.043 245.594 202.501 245.823 202.73L306.757 237.787C306.986 238.016 306.986 238.016 307.215 238.016Z" fill="#374B7C"/>
<path d="M304.008 242.599C306.986 244.432 311.109 243.287 312.942 240.308C314.774 237.329 313.629 233.205 310.651 231.372C307.673 229.539 303.55 230.685 301.717 233.663C299.885 236.871 300.801 240.995 304.008 242.599Z" fill="#374B7C"/>
<path d="M243.074 207.542C240.096 205.709 238.951 201.814 240.783 198.606C242.616 195.399 246.51 194.482 249.717 196.315C252.695 198.148 253.841 202.043 252.008 205.251C250.175 208.23 246.281 209.375 243.074 207.542Z" fill="#374B7C"/>
<path d="M368.148 132.388C368.377 132.388 368.835 132.159 368.835 131.93C369.064 131.472 368.835 131.014 368.606 130.784L307.672 95.7277C307.214 95.4986 306.756 95.7277 306.527 95.9568C306.298 96.4151 306.527 96.8734 306.756 97.1025L367.689 132.159C367.919 132.388 367.919 132.388 368.148 132.388Z" fill="#374B7C"/>
<path d="M310.422 90.916C307.444 89.0829 303.32 90.2286 301.488 93.2073C299.655 96.1859 300.801 100.31 303.779 102.143C306.757 103.976 310.88 102.831 312.712 99.852C314.545 96.6442 313.629 92.749 310.422 90.916Z" fill="#374B7C"/>
<path d="M371.355 125.973C374.333 127.806 375.478 131.701 373.646 134.909C371.813 137.887 367.919 139.033 364.712 137.2C361.734 135.367 360.589 131.472 362.421 128.264C364.254 125.285 368.148 124.14 371.355 125.973Z" fill="#374B7C"/>
<path d="M185.347 238.017C185.576 238.017 185.576 238.017 185.805 237.788L246.739 202.731C247.197 202.502 247.197 202.044 246.968 201.586C246.739 201.127 246.28 201.127 245.822 201.357L184.889 236.413C184.431 236.642 184.431 237.101 184.66 237.559C184.889 237.788 185.118 238.017 185.347 238.017Z" fill="#374B7C"/>
<path d="M249.488 207.543C252.466 205.71 253.611 201.814 251.779 198.607C249.946 195.628 246.052 194.482 242.845 196.315C239.867 198.148 238.721 202.044 240.554 205.251C242.616 208.23 246.51 209.376 249.488 207.543Z" fill="#374B7C"/>
<path d="M188.784 242.599C185.806 244.432 181.682 243.287 179.85 240.308C178.017 237.329 179.163 233.205 182.141 231.372C185.119 229.539 189.242 230.685 191.074 233.663C192.907 236.871 191.762 240.995 188.784 242.599Z" fill="#374B7C"/>
<path d="M550.718 308.359C551.177 308.359 551.635 307.901 551.635 307.443V237.1C551.635 236.642 551.177 236.184 550.718 236.184C550.26 236.184 549.802 236.642 549.802 237.1V307.443C549.802 307.901 550.26 308.359 550.718 308.359Z" fill="#374B7C"/>
<path d="M544.305 307.443C544.305 311.109 547.283 313.859 550.719 313.859C554.384 313.859 557.133 310.88 557.133 307.443C557.133 303.777 554.155 301.027 550.719 301.027C547.283 301.027 544.305 303.777 544.305 307.443Z" fill="#374B7C"/>
<path d="M544.305 237.1C544.305 233.434 547.283 230.685 550.719 230.685C554.384 230.685 557.133 233.663 557.133 237.1C557.133 240.766 554.155 243.516 550.719 243.516C547.283 243.516 544.305 240.766 544.305 237.1Z" fill="#374B7C"/>
<path d="M550.719 238.017C550.948 238.017 550.948 238.017 551.177 237.788L612.111 202.731C612.569 202.502 612.569 202.044 612.34 201.586C612.111 201.127 611.653 201.127 611.194 201.357L550.261 236.413C549.803 236.642 549.803 237.101 550.032 237.559C550.261 237.788 550.49 238.017 550.719 238.017Z" fill="#374B7C"/>
<path d="M547.512 231.601C544.534 233.434 543.388 237.329 545.221 240.537C547.054 243.516 550.948 244.662 554.155 242.829C557.133 240.996 558.278 237.1 556.446 233.893C554.613 230.685 550.719 229.768 547.512 231.601Z" fill="#374B7C"/>
<path d="M608.445 196.315C611.423 194.482 615.547 195.628 617.379 198.607C619.212 201.585 618.066 205.71 615.088 207.543C612.11 209.376 607.987 208.23 606.155 205.251C604.322 202.044 605.238 198.148 608.445 196.315Z" fill="#374B7C"/>
<path d="M550.718 308.359C551.177 308.359 551.635 307.901 551.635 307.443V237.1C551.635 236.642 551.177 236.184 550.718 236.184C550.26 236.184 549.802 236.642 549.802 237.1V307.443C549.802 307.901 550.26 308.359 550.718 308.359Z" fill="#374B7C"/>
<path d="M544.305 307.443C544.305 311.109 547.283 313.859 550.719 313.859C554.384 313.859 557.133 310.88 557.133 307.443C557.133 303.777 554.155 301.027 550.719 301.027C547.283 301.027 544.305 303.777 544.305 307.443Z" fill="#374B7C"/>
<path d="M544.305 237.1C544.305 233.434 547.283 230.685 550.719 230.685C554.384 230.685 557.133 233.663 557.133 237.1C557.133 240.766 554.155 243.516 550.719 243.516C547.283 243.516 544.305 240.766 544.305 237.1Z" fill="#374B7C"/>
<path d="M489.786 343.417C490.015 343.417 490.015 343.417 490.244 343.188L551.177 308.131C551.635 307.902 551.635 307.443 551.406 306.985C551.177 306.527 550.719 306.527 550.261 306.756L489.327 341.813C488.869 342.042 488.869 342.5 489.098 342.958C489.327 343.417 489.556 343.417 489.786 343.417Z" fill="#374B7C"/>
<path d="M553.926 312.942C556.904 311.109 558.05 307.214 556.217 304.006C554.384 301.027 550.49 299.882 547.283 301.715C544.305 303.548 543.16 307.443 544.992 310.651C547.054 313.859 550.948 314.775 553.926 312.942Z" fill="#374B7C"/>
<path d="M493.222 348.228C490.244 350.061 486.121 348.916 484.288 345.937C482.456 342.958 483.601 338.834 486.579 337.001C489.557 335.168 493.68 336.314 495.513 339.292C497.346 342.5 496.2 346.395 493.222 348.228Z" fill="#374B7C"/>
<path d="M489.785 343.417C490.014 343.417 490.472 343.188 490.472 342.958C490.702 342.5 490.473 342.042 490.243 341.813L429.31 306.756C428.852 306.527 428.394 306.756 428.165 306.985C427.936 307.443 428.165 307.902 428.394 308.131L489.327 343.188C489.556 343.417 489.785 343.417 489.785 343.417Z" fill="#374B7C"/>
<path d="M486.578 348.228C489.556 350.061 493.679 348.916 495.512 345.937C497.345 342.958 496.199 338.834 493.221 337.001C490.243 335.168 486.12 336.314 484.287 339.292C482.455 342.5 483.6 346.395 486.578 348.228Z" fill="#374B7C"/>
<path d="M425.874 312.942C422.896 311.109 421.751 307.214 423.583 304.006C425.416 301.027 429.31 299.882 432.517 301.715C435.495 303.548 436.64 307.443 434.808 310.651C432.746 313.859 428.852 314.775 425.874 312.942Z" fill="#374B7C"/>
<path d="M429.082 308.359C429.54 308.359 429.998 307.901 429.998 307.443V237.1C429.998 236.642 429.54 236.184 429.082 236.184C428.624 236.184 428.165 236.642 428.165 237.1V307.443C428.165 307.901 428.624 308.359 429.082 308.359Z" fill="#374B7C"/>
<path d="M422.438 307.443C422.438 311.109 425.416 313.859 428.853 313.859C432.518 313.859 435.267 310.88 435.267 307.443C435.267 303.777 432.289 301.027 428.853 301.027C425.416 301.027 422.438 303.777 422.438 307.443Z" fill="#374B7C"/>
<path d="M422.438 237.1C422.438 233.434 425.416 230.685 428.853 230.685C432.518 230.685 435.267 233.663 435.267 237.1C435.267 240.766 432.289 243.516 428.853 243.516C425.416 243.516 422.438 240.766 422.438 237.1Z" fill="#374B7C"/>
<path d="M429.081 238.017C429.31 238.017 429.31 238.017 429.539 237.788L490.244 202.731C490.702 202.502 490.702 202.044 490.473 201.586C490.244 201.127 489.785 201.127 489.327 201.357L428.394 236.413C427.936 236.642 427.936 237.101 428.165 237.559C428.394 237.788 428.623 238.017 429.081 238.017Z" fill="#374B7C"/>
<path d="M425.874 231.601C422.896 233.434 421.751 237.329 423.583 240.537C425.416 243.516 429.31 244.662 432.517 242.829C435.495 240.996 436.64 237.1 434.808 233.893C432.746 230.685 428.852 229.768 425.874 231.601Z" fill="#374B7C"/>
<path d="M486.578 196.315C489.556 194.482 493.679 195.628 495.512 198.607C497.345 201.585 496.199 205.71 493.221 207.543C490.243 209.376 486.12 208.23 484.287 205.251C482.455 202.044 483.6 198.148 486.578 196.315Z" fill="#374B7C"/>
<path d="M550.719 238.017C550.948 238.017 551.406 237.788 551.406 237.559C551.635 237.101 551.406 236.643 551.177 236.413L490.244 201.357C489.785 201.127 489.327 201.357 489.098 201.586C488.869 202.044 489.098 202.502 489.327 202.731L550.261 237.788C550.49 238.017 550.719 238.017 550.719 238.017Z" fill="#374B7C"/>
<path d="M493.222 196.315C490.244 194.482 486.121 195.628 484.288 198.607C482.456 201.585 483.601 205.71 486.579 207.543C489.557 209.376 493.68 208.23 495.513 205.251C497.346 202.044 496.2 198.148 493.222 196.315Z" fill="#374B7C"/>
<path d="M553.926 231.601C556.904 233.434 558.05 237.329 556.217 240.537C554.384 243.516 550.49 244.662 547.283 242.829C544.305 240.996 543.16 237.1 544.992 233.893C547.054 230.685 550.948 229.768 553.926 231.601Z" fill="#374B7C"/>
<path d="M429.082 308.359C429.54 308.359 429.998 307.901 429.998 307.443V237.1C429.998 236.642 429.54 236.184 429.082 236.184C428.624 236.184 428.165 236.642 428.165 237.1V307.443C428.165 307.901 428.624 308.359 429.082 308.359Z" fill="#374B7C"/>
<path d="M422.438 307.443C422.438 311.109 425.416 313.859 428.853 313.859C432.518 313.859 435.267 310.88 435.267 307.443C435.267 303.777 432.289 301.027 428.853 301.027C425.416 301.027 422.438 303.777 422.438 307.443Z" fill="#374B7C"/>
<path d="M422.438 237.1C422.438 233.434 425.416 230.685 428.853 230.685C432.518 230.685 435.267 233.663 435.267 237.1C435.267 240.766 432.289 243.516 428.853 243.516C425.416 243.516 422.438 240.766 422.438 237.1Z" fill="#374B7C"/>
<path d="M368.148 343.417C368.377 343.417 368.377 343.417 368.606 343.188L429.539 308.131C429.998 307.902 429.998 307.443 429.768 306.985C429.539 306.527 429.081 306.527 428.623 306.756L367.69 341.813C367.232 342.042 367.232 342.5 367.461 342.958C367.461 343.417 367.919 343.417 368.148 343.417Z" fill="#374B7C"/>
<path d="M432.289 312.942C435.267 311.109 436.412 307.214 434.579 304.006C432.747 301.027 428.853 299.882 425.646 301.715C422.668 303.548 421.522 307.443 423.355 310.651C425.187 313.859 429.082 314.775 432.289 312.942Z" fill="#374B7C"/>
<path d="M371.355 348.228C368.377 350.061 364.254 348.916 362.421 345.937C360.589 342.958 361.734 338.834 364.712 337.001C367.69 335.168 371.813 336.314 373.646 339.292C375.478 342.5 374.333 346.395 371.355 348.228Z" fill="#374B7C"/>
<path d="M368.148 343.417C368.377 343.417 368.835 343.188 368.835 342.958C369.064 342.5 368.835 342.042 368.606 341.813L307.672 306.756C307.214 306.527 306.756 306.756 306.527 306.985C306.298 307.443 306.527 307.902 306.756 308.131L367.689 343.188C367.919 343.417 367.919 343.417 368.148 343.417Z" fill="#374B7C"/>
<path d="M364.94 348.228C367.918 350.061 372.042 348.916 373.874 345.937C375.707 342.958 374.562 338.834 371.584 337.001C368.606 335.168 364.482 336.314 362.65 339.292C360.817 342.5 361.733 346.395 364.94 348.228Z" fill="#374B7C"/>
<path d="M304.007 312.942C301.029 311.109 299.884 307.214 301.716 304.006C303.549 301.027 307.443 299.882 310.65 301.715C313.628 303.548 314.773 307.443 312.941 310.651C311.108 313.859 306.985 314.775 304.007 312.942Z" fill="#374B7C"/>
<path d="M307.215 308.359C307.673 308.359 308.131 307.901 308.131 307.443V237.1C308.131 236.642 307.673 236.184 307.215 236.184C306.756 236.184 306.298 236.642 306.298 237.1V307.443C306.298 307.901 306.756 308.359 307.215 308.359Z" fill="#374B7C"/>
<path d="M300.801 307.443C300.801 311.109 303.779 313.859 307.215 313.859C310.88 313.859 313.629 310.88 313.629 307.443C313.629 303.777 310.651 301.027 307.215 301.027C303.779 301.027 300.801 303.777 300.801 307.443Z" fill="#374B7C"/>
<path d="M300.801 237.1C300.801 233.434 303.779 230.685 307.215 230.685C310.651 230.685 313.629 233.663 313.629 237.1C313.629 240.766 310.651 243.516 307.215 243.516C303.55 243.516 300.801 240.766 300.801 237.1Z" fill="#374B7C"/>
<path d="M307.214 238.017C307.443 238.017 307.443 238.017 307.672 237.788L368.606 202.731C369.064 202.502 369.064 202.044 368.835 201.586C368.606 201.127 368.148 201.127 367.69 201.357L306.756 236.413C306.298 236.642 306.298 237.101 306.527 237.559C306.756 237.788 306.985 238.017 307.214 238.017Z" fill="#374B7C"/>
<path d="M304.007 231.601C301.029 233.434 299.884 237.329 301.716 240.537C303.549 243.516 307.443 244.662 310.65 242.829C313.628 240.996 314.773 237.1 312.941 233.893C311.108 230.685 306.985 229.768 304.007 231.601Z" fill="#374B7C"/>
<path d="M364.94 196.315C367.918 194.482 372.042 195.628 373.874 198.607C375.707 201.585 374.562 205.71 371.584 207.543C368.606 209.376 364.482 208.23 362.65 205.251C360.817 202.044 361.733 198.148 364.94 196.315Z" fill="#374B7C"/>
<path d="M429.081 238.017C429.31 238.017 429.768 237.788 429.768 237.559C429.997 237.101 429.768 236.643 429.539 236.413L368.606 201.357C368.148 201.127 367.69 201.357 367.461 201.586C367.231 202.044 367.461 202.502 367.69 202.731L428.623 237.788C428.623 238.017 428.852 238.017 429.081 238.017Z" fill="#374B7C"/>
<path d="M371.355 196.315C368.377 194.482 364.254 195.628 362.421 198.607C360.589 201.585 361.734 205.71 364.712 207.543C367.69 209.376 371.813 208.23 373.646 205.251C375.478 202.044 374.333 198.148 371.355 196.315Z" fill="#374B7C"/>
<path d="M432.289 231.601C435.267 233.434 436.412 237.329 434.579 240.537C432.747 243.516 428.853 244.662 425.646 242.829C422.668 240.996 421.522 237.1 423.355 233.893C425.187 230.685 429.082 229.768 432.289 231.601Z" fill="#374B7C"/>
<path d="M307.215 308.359C307.673 308.359 308.131 307.901 308.131 307.443V237.1C308.131 236.642 307.673 236.184 307.215 236.184C306.756 236.184 306.298 236.642 306.298 237.1V307.443C306.298 307.901 306.756 308.359 307.215 308.359Z" fill="#374B7C"/>
<path d="M300.801 307.443C300.801 311.109 303.779 313.859 307.215 313.859C310.88 313.859 313.629 310.88 313.629 307.443C313.629 303.777 310.651 301.027 307.215 301.027C303.779 301.027 300.801 303.777 300.801 307.443Z" fill="#374B7C"/>
<path d="M300.801 237.1C300.801 233.434 303.779 230.685 307.215 230.685C310.88 230.685 313.629 233.663 313.629 237.1C313.629 240.766 310.651 243.516 307.215 243.516C303.779 243.516 300.801 240.766 300.801 237.1Z" fill="#374B7C"/>
<path d="M246.281 343.417C246.51 343.417 246.51 343.417 246.739 343.188L307.672 308.131C308.13 307.902 308.13 307.443 307.901 306.985C307.672 306.527 307.214 306.527 306.756 306.756L245.822 341.813C245.364 342.042 245.364 342.5 245.593 342.958C245.822 343.417 246.052 343.417 246.281 343.417Z" fill="#374B7C"/>
<path d="M310.421 312.942C313.399 311.109 314.545 307.214 312.712 304.006C310.88 301.027 306.985 299.882 303.778 301.715C300.8 303.548 299.655 307.443 301.488 310.651C303.32 313.859 307.444 314.775 310.421 312.942Z" fill="#374B7C"/>
<path d="M249.488 348.228C246.51 350.061 242.387 348.916 240.554 345.937C238.722 342.958 239.867 338.834 242.845 337.001C245.823 335.168 249.946 336.314 251.779 339.292C253.611 342.5 252.695 346.395 249.488 348.228Z" fill="#374B7C"/>
<path d="M246.281 343.417C246.51 343.417 246.969 343.188 246.969 342.958C247.198 342.5 246.969 342.042 246.74 341.813L185.806 306.756C185.348 306.527 184.89 306.756 184.661 306.985C184.432 307.443 184.661 307.902 184.89 308.131L245.823 343.188C246.052 343.417 246.281 343.417 246.281 343.417Z" fill="#374B7C"/>
<path d="M243.074 348.228C246.052 350.061 250.175 348.916 252.008 345.937C253.841 342.958 252.695 338.834 249.717 337.001C246.739 335.168 242.616 336.314 240.783 339.292C238.951 342.5 240.096 346.395 243.074 348.228Z" fill="#374B7C"/>
<path d="M182.141 312.942C179.163 311.109 178.017 307.214 179.85 304.006C181.682 301.027 185.577 299.882 188.784 301.715C191.762 303.548 192.907 307.443 191.074 310.651C189.242 313.859 185.348 314.775 182.141 312.942Z" fill="#374B7C"/>
<path d="M185.347 308.359C185.806 308.359 186.264 307.901 186.264 307.443V237.1C186.264 236.642 185.806 236.184 185.347 236.184C184.889 236.184 184.431 236.642 184.431 237.1V307.443C184.66 307.901 184.889 308.359 185.347 308.359Z" fill="#374B7C"/>
<path d="M178.934 307.443C178.934 311.109 181.912 313.859 185.348 313.859C189.013 313.859 191.762 310.88 191.762 307.443C191.762 303.777 188.784 301.027 185.348 301.027C181.912 301.027 178.934 303.777 178.934 307.443Z" fill="#374B7C"/>
<path d="M178.934 237.1C178.934 233.434 181.912 230.685 185.348 230.685C189.013 230.685 191.762 233.663 191.762 237.1C191.762 240.766 188.784 243.516 185.348 243.516C181.912 243.516 178.934 240.766 178.934 237.1Z" fill="#374B7C"/>
<path d="M185.577 238.017C185.806 238.017 185.806 238.017 186.035 237.788L246.968 202.731C247.426 202.502 247.426 202.044 247.197 201.586C246.968 201.127 246.51 201.127 246.052 201.357L185.118 236.413C184.66 236.642 184.66 237.101 184.889 237.559C184.889 237.788 185.118 238.017 185.577 238.017Z" fill="#374B7C"/>
<path d="M182.141 231.601C179.163 233.434 178.017 237.329 179.85 240.537C181.682 243.516 185.577 244.662 188.784 242.829C191.762 240.996 192.907 237.1 191.074 233.893C189.242 230.685 185.348 229.768 182.141 231.601Z" fill="#374B7C"/>
<path d="M243.074 196.315C246.052 194.482 250.175 195.628 252.008 198.607C253.841 201.585 252.695 205.71 249.717 207.543C246.739 209.376 242.616 208.23 240.783 205.251C238.951 202.044 240.096 198.148 243.074 196.315Z" fill="#374B7C"/>
<path d="M307.214 238.017C307.443 238.017 307.901 237.788 307.901 237.559C308.13 237.101 307.901 236.643 307.672 236.413L246.739 201.357C246.281 201.127 245.822 201.357 245.593 201.586C245.364 201.815 245.593 202.502 245.822 202.731L306.756 237.788C306.985 238.017 306.985 238.017 307.214 238.017Z" fill="#374B7C"/>
<path d="M249.488 196.315C246.51 194.482 242.387 195.628 240.554 198.607C238.722 201.585 239.867 205.71 242.845 207.543C245.823 209.376 249.946 208.23 251.779 205.251C253.611 202.044 252.695 198.148 249.488 196.315Z" fill="#374B7C"/>
<path d="M310.421 231.601C313.399 233.434 314.545 237.329 312.712 240.537C310.88 243.516 306.985 244.662 303.778 242.829C300.8 240.996 299.655 237.1 301.488 233.893C303.32 230.685 307.444 229.768 310.421 231.601Z" fill="#374B7C"/>
<path d="M489.786 343.417C490.015 343.417 490.015 343.417 490.244 343.188L551.177 308.131C551.635 307.902 551.635 307.443 551.406 306.985C551.177 306.527 550.719 306.527 550.261 306.756L489.327 341.813C488.869 342.042 488.869 342.5 489.098 342.958C489.327 343.417 489.556 343.417 489.786 343.417Z" fill="#374B7C"/>
<path d="M486.578 337.001C483.6 338.834 482.455 342.729 484.287 345.937C486.12 348.916 490.014 350.061 493.221 348.228C496.199 346.395 497.345 342.5 495.512 339.292C493.679 336.314 489.785 335.168 486.578 337.001Z" fill="#374B7C"/>
<path d="M547.512 301.944C550.49 300.111 554.613 301.257 556.446 304.236C558.278 307.214 557.133 311.339 554.155 313.172C551.177 315.005 547.054 313.859 545.221 310.88C543.388 307.673 544.534 303.548 547.512 301.944Z" fill="#374B7C"/>
<path d="M429.081 449.046C429.31 449.046 429.768 448.817 429.768 448.587C429.997 448.129 429.768 447.671 429.539 447.442L368.606 412.385C368.148 412.156 367.69 412.385 367.461 412.614C367.231 413.072 367.461 413.531 367.69 413.76L428.623 448.817C428.623 448.817 428.852 449.046 429.081 449.046Z" fill="#374B7C"/>
<path d="M425.874 453.628C428.852 455.461 432.975 454.315 434.808 451.336C436.64 448.358 435.495 444.233 432.517 442.4C429.539 440.567 425.416 441.713 423.583 444.692C421.522 447.899 422.667 451.795 425.874 453.628Z" fill="#374B7C"/>
<path d="M364.94 418.571C361.962 416.738 360.817 412.843 362.65 409.635C364.482 406.656 368.377 405.511 371.584 407.344C374.562 409.177 375.707 413.072 373.874 416.28C371.813 419.258 367.918 420.404 364.94 418.571Z" fill="#374B7C"/>
<path d="M368.147 413.759C368.605 413.759 369.063 413.3 369.063 412.842V342.5C369.063 342.041 368.605 341.583 368.147 341.583C367.689 341.583 367.231 342.041 367.231 342.5V412.842C367.231 413.3 367.689 413.759 368.147 413.759Z" fill="#374B7C"/>
<path d="M361.733 412.842C361.733 416.508 364.711 419.258 368.147 419.258C371.813 419.258 374.562 416.279 374.562 412.842C374.562 409.176 371.584 406.427 368.147 406.427C364.482 406.427 361.733 409.405 361.733 412.842Z" fill="#374B7C"/>
<path d="M361.733 342.5C361.733 338.834 364.711 336.084 368.147 336.084C371.813 336.084 374.562 339.063 374.562 342.5C374.562 345.937 371.584 348.915 368.147 348.915C364.482 349.144 361.733 346.166 361.733 342.5Z" fill="#374B7C"/>
<path d="M368.147 343.417C368.376 343.417 368.376 343.417 368.606 343.188L429.31 308.131C429.768 307.902 429.768 307.443 429.539 306.985C429.31 306.527 428.852 306.527 428.394 306.756L367.46 341.813C367.002 342.042 367.002 342.5 367.231 342.958C367.46 343.417 367.918 343.417 368.147 343.417Z" fill="#374B7C"/>
<path d="M364.94 337.001C361.962 338.834 360.817 342.729 362.65 345.937C364.482 348.916 368.377 350.061 371.584 348.228C374.562 346.395 375.707 342.5 373.874 339.292C371.813 336.314 367.918 335.168 364.94 337.001Z" fill="#374B7C"/>
<path d="M425.874 301.944C428.852 300.111 432.975 301.257 434.808 304.236C436.64 307.214 435.495 311.339 432.517 313.172C429.539 315.005 425.416 313.859 423.583 310.88C421.522 307.673 422.667 303.548 425.874 301.944Z" fill="#374B7C"/>
<path d="M489.785 343.417C490.014 343.417 490.472 343.188 490.472 342.958C490.702 342.5 490.473 342.042 490.243 341.813L429.31 306.756C428.852 306.527 428.394 306.756 428.165 306.985C427.936 307.443 428.165 307.902 428.394 308.131L489.327 343.188C489.556 343.417 489.785 343.417 489.785 343.417Z" fill="#374B7C"/>
<path d="M432.288 301.944C429.31 300.111 425.186 301.257 423.354 304.236C421.521 307.214 422.667 311.339 425.645 313.172C428.622 315.005 432.746 313.859 434.578 310.88C436.411 307.673 435.266 303.548 432.288 301.944Z" fill="#374B7C"/>
<path d="M493.221 337.001C496.199 338.834 497.345 342.729 495.512 345.937C493.679 348.916 489.785 350.061 486.578 348.228C483.6 346.395 482.455 342.5 484.287 339.292C486.12 336.314 490.014 335.168 493.221 337.001Z" fill="#374B7C"/>
<path d="M368.147 413.759C368.605 413.759 369.063 413.3 369.063 412.842V342.5C369.063 342.041 368.605 341.583 368.147 341.583C367.689 341.583 367.231 342.041 367.231 342.5V412.842C367.231 413.3 367.689 413.759 368.147 413.759Z" fill="#374B7C"/>
<path d="M361.733 412.842C361.733 416.508 364.711 419.258 368.147 419.258C371.584 419.258 374.562 416.279 374.562 412.842C374.562 409.176 371.584 406.427 368.147 406.427C364.711 406.427 361.733 409.405 361.733 412.842Z" fill="#374B7C"/>
<path d="M361.733 342.5C361.733 338.834 364.711 336.084 368.147 336.084C371.584 336.084 374.562 339.063 374.562 342.5C374.562 346.166 371.584 348.915 368.147 348.915C364.711 348.915 361.733 346.166 361.733 342.5Z" fill="#374B7C"/>
<path d="M307.214 449.046C307.443 449.046 307.443 449.046 307.672 448.816L368.606 413.76C369.064 413.531 369.064 413.072 368.835 412.614C368.606 412.156 368.148 412.156 367.69 412.385L306.756 447.442C306.298 447.671 306.298 448.129 306.527 448.587C306.527 448.816 306.985 449.046 307.214 449.046Z" fill="#374B7C"/>
<path d="M371.355 418.571C374.333 416.738 375.478 412.843 373.646 409.635C371.813 406.656 367.919 405.511 364.712 407.344C361.734 409.177 360.589 413.072 362.421 416.28C364.254 419.258 368.148 420.404 371.355 418.571Z" fill="#374B7C"/>
<path d="M310.422 453.628C307.444 455.461 303.32 454.315 301.488 451.336C299.655 448.358 300.801 444.233 303.779 442.4C306.757 440.567 310.88 441.713 312.712 444.692C314.545 447.899 313.629 451.795 310.422 453.628Z" fill="#374B7C"/>
<path d="M307.215 449.046C307.444 449.046 307.902 448.817 307.902 448.587C308.131 448.129 307.902 447.671 307.673 447.442L246.74 412.385C246.282 412.156 245.823 412.385 245.594 412.614C245.365 413.072 245.594 413.531 245.823 413.76L306.757 448.817C306.986 448.817 306.986 449.046 307.215 449.046Z" fill="#374B7C"/>
<path d="M304.008 453.628C306.986 455.461 311.109 454.315 312.942 451.336C314.774 448.358 313.629 444.233 310.651 442.4C307.673 440.567 303.55 441.713 301.717 444.692C299.885 447.899 300.801 451.795 304.008 453.628Z" fill="#374B7C"/>
<path d="M243.074 418.571C240.096 416.738 238.951 412.843 240.783 409.635C242.616 406.656 246.51 405.511 249.717 407.344C252.695 409.177 253.841 413.072 252.008 416.28C250.175 419.258 246.281 420.404 243.074 418.571Z" fill="#374B7C"/>
<path d="M246.281 413.759C246.739 413.759 247.197 413.3 247.197 412.842V342.5C247.197 342.041 246.739 341.583 246.281 341.583C245.823 341.583 245.365 342.041 245.365 342.5V412.842C245.365 413.3 245.823 413.759 246.281 413.759Z" fill="#374B7C"/>
<path d="M239.867 412.842C239.867 416.508 242.845 419.258 246.281 419.258C249.946 419.258 252.695 416.279 252.695 412.842C252.695 409.176 249.717 406.427 246.281 406.427C242.845 406.427 239.867 409.405 239.867 412.842Z" fill="#374B7C"/>
<path d="M239.867 342.5C239.867 338.834 242.845 336.084 246.281 336.084C249.717 336.084 252.695 339.063 252.695 342.5C252.695 346.166 249.717 348.915 246.281 348.915C242.845 348.915 239.867 346.166 239.867 342.5Z" fill="#374B7C"/>
<path d="M246.282 343.417C246.511 343.417 246.511 343.417 246.74 343.188L307.673 308.131C308.131 307.902 308.131 307.443 307.902 306.985C307.673 306.527 307.215 306.527 306.757 306.756L245.823 341.813C245.365 342.042 245.365 342.5 245.594 342.958C245.823 343.417 246.053 343.417 246.282 343.417Z" fill="#374B7C"/>
<path d="M243.074 337.001C240.096 338.834 238.951 342.729 240.783 345.937C242.616 348.916 246.51 350.061 249.717 348.228C252.695 346.395 253.841 342.5 252.008 339.292C250.175 336.314 246.281 335.168 243.074 337.001Z" fill="#374B7C"/>
<path d="M304.008 301.944C306.986 300.111 311.109 301.257 312.942 304.236C314.774 307.214 313.629 311.339 310.651 313.172C307.673 315.005 303.55 313.859 301.717 310.88C299.885 307.673 300.801 303.548 304.008 301.944Z" fill="#374B7C"/>
<path d="M368.148 343.417C368.377 343.417 368.835 343.188 368.835 342.958C369.064 342.5 368.835 342.042 368.606 341.813L307.672 306.756C307.214 306.527 306.756 306.756 306.527 306.985C306.298 307.443 306.527 307.902 306.756 308.131L367.689 343.188C367.919 343.417 367.919 343.417 368.148 343.417Z" fill="#374B7C"/>
<path d="M310.422 301.944C307.444 300.111 303.32 301.257 301.488 304.236C299.655 307.214 300.801 311.339 303.779 313.172C306.757 315.005 310.88 313.859 312.712 310.88C314.545 307.673 313.629 303.548 310.422 301.944Z" fill="#374B7C"/>
<path d="M371.355 337.001C374.333 338.834 375.478 342.729 373.646 345.937C371.813 348.916 367.919 350.061 364.712 348.228C361.734 346.395 360.589 342.5 362.421 339.292C364.254 336.314 368.148 335.168 371.355 337.001Z" fill="#374B7C"/>
<path d="M246.281 413.759C246.739 413.759 247.197 413.3 247.197 412.842V342.5C247.197 342.041 246.739 341.583 246.281 341.583C245.823 341.583 245.365 342.041 245.365 342.5V412.842C245.594 413.3 245.823 413.759 246.281 413.759Z" fill="#374B7C"/>
<path d="M239.867 412.842C239.867 416.508 242.845 419.258 246.281 419.258C249.946 419.258 252.695 416.279 252.695 412.842C252.695 409.176 249.717 406.427 246.281 406.427C242.845 406.427 239.867 409.405 239.867 412.842Z" fill="#374B7C"/>
<path d="M239.867 342.5C239.867 338.834 242.845 336.084 246.281 336.084C249.946 336.084 252.695 339.063 252.695 342.5C252.695 346.166 249.717 348.915 246.281 348.915C242.845 349.144 239.867 346.166 239.867 342.5Z" fill="#374B7C"/>
<path d="M185.347 449.046C185.576 449.046 185.576 449.046 185.805 448.816L246.739 413.76C247.197 413.531 247.197 413.072 246.968 412.614C246.739 412.156 246.28 412.156 245.822 412.385L184.889 447.442C184.431 447.671 184.431 448.129 184.66 448.587C184.889 448.816 185.118 449.046 185.347 449.046Z" fill="#374B7C"/>
<path d="M249.488 418.571C252.466 416.738 253.611 412.843 251.779 409.635C249.946 406.656 246.052 405.511 242.845 407.344C239.867 409.177 238.721 413.072 240.554 416.28C242.616 419.258 246.51 420.404 249.488 418.571Z" fill="#374B7C"/>
<path d="M188.784 453.628C185.806 455.461 181.682 454.315 179.85 451.336C178.017 448.358 179.163 444.233 182.141 442.4C185.119 440.567 189.242 441.713 191.074 444.692C192.907 447.899 191.762 451.795 188.784 453.628Z" fill="#374B7C"/>
<path d="M185.348 449.046C185.577 449.046 186.035 448.817 186.035 448.587C186.264 448.129 186.035 447.671 185.806 447.442L124.872 412.385C124.414 412.156 123.956 412.385 123.727 412.614C123.498 413.072 123.727 413.531 123.956 413.76L184.89 448.817C185.119 448.817 185.348 449.046 185.348 449.046Z" fill="#374B7C"/>
<path d="M182.141 453.628C185.119 455.461 189.242 454.315 191.074 451.336C192.907 448.358 191.762 444.233 188.784 442.4C185.806 440.567 181.682 441.713 179.85 444.692C178.017 447.899 179.163 451.795 182.141 453.628Z" fill="#374B7C"/>
<path d="M121.437 418.571C118.459 416.738 117.313 412.843 119.146 409.635C120.978 406.656 124.873 405.511 128.08 407.344C131.058 409.177 132.203 413.072 130.37 416.28C128.309 419.258 124.415 420.404 121.437 418.571Z" fill="#374B7C"/>
<path d="M124.643 413.759C125.101 413.759 125.56 413.3 125.56 412.842V342.5C125.56 342.041 125.101 341.583 124.643 341.583C124.185 341.583 123.727 342.041 123.727 342.5V412.842C123.727 413.3 124.185 413.759 124.643 413.759Z" fill="#374B7C"/>
<path d="M118 412.842C118 416.508 120.978 419.258 124.414 419.258C128.079 419.258 130.828 416.279 130.828 412.842C130.828 409.176 127.85 406.427 124.414 406.427C120.978 406.427 118 409.405 118 412.842Z" fill="#374B7C"/>
<path d="M118 342.5C118 338.834 120.978 336.084 124.414 336.084C128.079 336.084 130.828 339.063 130.828 342.5C130.828 345.937 127.85 348.915 124.414 348.915C120.978 349.144 118 346.166 118 342.5Z" fill="#374B7C"/>
<path d="M124.643 343.417C124.872 343.417 124.872 343.417 125.101 343.188L186.035 308.131C186.493 307.902 186.493 307.443 186.264 306.985C186.035 306.527 185.576 306.527 185.118 306.756L124.185 341.813C123.727 342.042 123.727 342.5 123.956 342.958C123.956 343.417 124.185 343.417 124.643 343.417Z" fill="#374B7C"/>
<path d="M121.437 337.001C118.459 338.834 117.313 342.729 119.146 345.937C120.978 348.916 124.873 350.061 128.08 348.228C131.058 346.395 132.203 342.5 130.37 339.292C128.309 336.314 124.415 335.168 121.437 337.001Z" fill="#374B7C"/>
<path d="M182.141 301.944C185.119 300.111 189.242 301.257 191.074 304.236C192.907 307.214 191.762 311.339 188.784 313.172C185.806 315.005 181.682 313.859 179.85 310.88C178.017 307.673 179.163 303.548 182.141 301.944Z" fill="#374B7C"/>
<path d="M246.28 343.417C246.509 343.417 246.968 343.188 246.968 342.958C247.197 342.5 246.968 342.042 246.739 341.813L185.805 306.756C185.347 306.527 184.889 306.756 184.66 306.985C184.431 307.443 184.66 307.902 184.889 308.131L245.822 343.188C246.051 343.417 246.28 343.417 246.28 343.417Z" fill="#374B7C"/>
<path d="M188.784 301.944C185.806 300.111 181.682 301.257 179.85 304.236C178.017 307.214 179.163 311.339 182.141 313.172C185.119 315.005 189.242 313.859 191.074 310.88C192.907 307.673 191.762 303.548 188.784 301.944Z" fill="#374B7C"/>
<path d="M249.488 337.001C252.466 338.834 253.611 342.729 251.779 345.937C249.946 348.916 246.052 350.061 242.845 348.228C239.867 346.395 238.721 342.5 240.554 339.292C242.616 336.314 246.51 335.168 249.488 337.001Z" fill="#374B7C"/>
<path d="M368.148 554.445C368.377 554.445 368.835 554.216 368.835 553.987C369.064 553.529 368.835 553.07 368.606 552.841L307.672 517.784C307.214 517.555 306.756 517.784 306.527 518.014C306.298 518.472 306.527 518.93 306.756 519.159L367.689 554.216C367.919 554.445 367.919 554.445 368.148 554.445Z" fill="#374B7C"/>
<path d="M364.94 559.257C367.918 561.09 372.042 559.944 373.874 556.965C375.707 553.987 374.562 549.862 371.584 548.029C368.606 546.196 364.482 547.342 362.65 550.321C360.817 553.528 361.733 557.424 364.94 559.257Z" fill="#374B7C"/>
<path d="M304.007 523.97C301.029 522.137 299.884 518.242 301.716 515.034C303.549 512.056 307.443 510.91 310.65 512.743C313.628 514.576 314.773 518.471 312.941 521.679C311.108 524.658 306.985 525.803 304.007 523.97Z" fill="#374B7C"/>
<path d="M307.215 519.388C307.673 519.388 308.131 518.929 308.131 518.471V448.128C308.131 447.67 307.673 447.212 307.215 447.212C306.756 447.212 306.298 447.67 306.298 448.128V518.471C306.298 518.929 306.756 519.388 307.215 519.388Z" fill="#374B7C"/>
<path d="M300.801 518.471C300.801 522.137 303.779 524.887 307.215 524.887C310.88 524.887 313.629 521.908 313.629 518.471C313.629 514.805 310.651 512.056 307.215 512.056C303.779 512.056 300.801 514.805 300.801 518.471Z" fill="#374B7C"/>
<path d="M300.801 448.129C300.801 444.462 303.779 441.713 307.215 441.713C310.88 441.713 313.629 444.692 313.629 448.129C313.629 451.795 310.651 454.544 307.215 454.544C303.779 454.544 300.801 451.565 300.801 448.129Z" fill="#374B7C"/>
<path d="M307.214 449.046C307.443 449.046 307.443 449.046 307.672 448.816L368.606 413.76C369.064 413.531 369.064 413.072 368.835 412.614C368.606 412.156 368.148 412.156 367.69 412.385L306.756 447.442C306.298 447.671 306.298 448.129 306.527 448.587C306.756 448.816 306.985 449.046 307.214 449.046Z" fill="#374B7C"/>
<path d="M304.007 442.4C301.029 444.233 299.884 448.128 301.716 451.336C303.549 454.315 307.443 455.46 310.65 453.627C313.628 451.794 314.773 447.899 312.941 444.691C311.108 441.713 306.985 440.796 304.007 442.4Z" fill="#374B7C"/>
<path d="M364.94 407.344C367.918 405.511 372.042 406.656 373.874 409.635C375.707 412.614 374.562 416.738 371.584 418.571C368.606 420.404 364.482 419.258 362.65 416.28C360.817 413.072 361.733 409.177 364.94 407.344Z" fill="#374B7C"/>
<path d="M429.081 449.046C429.31 449.046 429.768 448.817 429.768 448.587C429.997 448.129 429.768 447.671 429.539 447.442L368.606 412.385C368.148 412.156 367.69 412.385 367.461 412.614C367.231 413.072 367.461 413.531 367.69 413.76L428.623 448.817C428.623 448.817 428.852 449.046 429.081 449.046Z" fill="#374B7C"/>
<path d="M371.355 407.344C368.377 405.511 364.254 406.656 362.421 409.635C360.589 412.614 361.734 416.738 364.712 418.571C367.69 420.404 371.813 419.258 373.646 416.28C375.478 413.072 374.333 409.177 371.355 407.344Z" fill="#374B7C"/>
<path d="M432.289 442.4C435.267 444.233 436.412 448.128 434.579 451.336C432.747 454.315 428.853 455.46 425.646 453.627C422.668 451.794 421.522 447.899 423.355 444.691C425.187 441.713 429.082 440.796 432.289 442.4Z" fill="#374B7C"/>
<path d="M307.215 519.388C307.673 519.388 308.131 518.929 308.131 518.471V448.128C308.131 447.67 307.673 447.212 307.215 447.212C306.756 447.212 306.298 447.67 306.298 448.128V518.471C306.298 518.929 306.756 519.388 307.215 519.388Z" fill="#374B7C"/>
<path d="M300.801 518.471C300.801 522.137 303.779 524.887 307.215 524.887C310.88 524.887 313.629 521.908 313.629 518.471C313.629 515.034 310.651 512.056 307.215 512.056C303.779 512.056 300.801 514.805 300.801 518.471Z" fill="#374B7C"/>
<path d="M300.801 448.129C300.801 444.462 303.779 441.713 307.215 441.713C310.88 441.713 313.629 444.692 313.629 448.129C313.629 451.795 310.651 454.544 307.215 454.544C303.779 454.544 300.801 451.565 300.801 448.129Z" fill="#374B7C"/>
<path d="M246.281 554.445C246.51 554.445 246.51 554.445 246.739 554.216L307.672 519.159C308.13 518.93 308.13 518.472 307.901 518.013C307.672 517.555 307.214 517.555 306.756 517.784L245.822 552.841C245.364 553.07 245.364 553.528 245.593 553.987C245.822 554.216 246.052 554.445 246.281 554.445Z" fill="#374B7C"/>
<path d="M310.421 523.97C313.399 522.137 314.545 518.242 312.712 515.034C310.88 512.056 306.985 510.91 303.778 512.743C300.8 514.576 299.655 518.471 301.488 521.679C303.32 524.658 307.444 525.803 310.421 523.97Z" fill="#374B7C"/>
<path d="M249.488 559.257C246.51 561.09 242.387 559.944 240.554 556.965C238.722 553.987 239.867 549.862 242.845 548.029C245.823 546.196 249.946 547.342 251.779 550.321C253.611 553.528 252.695 557.424 249.488 559.257Z" fill="#374B7C"/>
<path d="M246.281 554.445C246.51 554.445 246.969 554.216 246.969 553.987C247.198 553.529 246.969 553.07 246.74 552.841L185.806 517.784C185.348 517.555 184.89 517.784 184.661 518.014C184.432 518.472 184.661 518.93 184.89 519.159L245.823 554.216C246.052 554.445 246.281 554.445 246.281 554.445Z" fill="#374B7C"/>
<path d="M243.074 559.257C246.052 561.09 250.175 559.944 252.008 556.965C253.841 553.987 252.695 549.862 249.717 548.029C246.739 546.196 242.616 547.342 240.783 550.321C238.951 553.528 240.096 557.424 243.074 559.257Z" fill="#374B7C"/>
<path d="M182.141 523.97C179.163 522.137 178.017 518.242 179.85 515.034C181.682 512.056 185.577 510.91 188.784 512.743C191.762 514.576 192.907 518.471 191.074 521.679C189.242 524.887 185.348 525.803 182.141 523.97Z" fill="#374B7C"/>
<path d="M185.347 519.388C185.806 519.388 186.264 518.929 186.264 518.471V448.128C186.264 447.67 185.806 447.212 185.347 447.212C184.889 447.212 184.431 447.67 184.431 448.128V518.471C184.66 518.929 184.889 519.388 185.347 519.388Z" fill="#374B7C"/>
<path d="M178.934 518.471C178.934 522.137 181.912 524.887 185.348 524.887C189.013 524.887 191.762 521.908 191.762 518.471C191.762 514.805 188.784 512.056 185.348 512.056C181.912 512.056 178.934 514.805 178.934 518.471Z" fill="#374B7C"/>
<path d="M178.934 448.129C178.934 444.462 181.912 441.713 185.348 441.713C189.013 441.713 191.762 444.692 191.762 448.129C191.762 451.795 188.784 454.544 185.348 454.544C181.912 454.544 178.934 451.565 178.934 448.129Z" fill="#374B7C"/>
<path d="M185.577 449.046C185.806 449.046 185.806 449.046 186.035 448.816L246.968 413.76C247.426 413.531 247.426 413.072 247.197 412.614C246.968 412.156 246.51 412.156 246.052 412.385L185.118 447.442C184.66 447.671 184.66 448.129 184.889 448.587C184.889 448.816 185.118 449.046 185.577 449.046Z" fill="#374B7C"/>
<path d="M182.141 442.4C179.163 444.233 178.017 448.128 179.85 451.336C181.682 454.315 185.577 455.46 188.784 453.627C191.762 451.794 192.907 447.899 191.074 444.691C189.242 441.713 185.348 440.796 182.141 442.4Z" fill="#374B7C"/>
<path d="M243.074 407.344C246.052 405.511 250.175 406.656 252.008 409.635C253.841 412.614 252.695 416.738 249.717 418.571C246.739 420.404 242.616 419.258 240.783 416.28C238.951 413.072 240.096 409.177 243.074 407.344Z" fill="#374B7C"/>
<path d="M307.214 449.046C307.443 449.046 307.901 448.817 307.901 448.587C308.13 448.129 307.901 447.671 307.672 447.442L246.739 412.385C246.281 412.156 245.822 412.385 245.593 412.614C245.364 413.072 245.593 413.531 245.822 413.76L306.756 448.817C306.985 448.817 306.985 449.046 307.214 449.046Z" fill="#374B7C"/>
<path d="M249.488 407.344C246.51 405.511 242.387 406.656 240.554 409.635C238.722 412.614 239.867 416.738 242.845 418.571C245.823 420.404 249.946 419.258 251.779 416.28C253.611 413.072 252.695 409.177 249.488 407.344Z" fill="#374B7C"/>
<path d="M310.421 442.4C313.399 444.233 314.545 448.128 312.712 451.336C310.88 454.315 306.985 455.46 303.778 453.627C300.8 451.794 299.655 447.899 301.488 444.691C303.32 441.713 307.444 440.796 310.421 442.4Z" fill="#374B7C"/>
<path d="M368.147 624.787C368.605 624.787 369.063 624.329 369.063 623.871V553.528C369.063 553.07 368.605 552.611 368.147 552.611C367.689 552.611 367.231 553.07 367.231 553.528V623.871C367.231 624.329 367.689 624.787 368.147 624.787Z" fill="#374B7C"/>
<path d="M361.733 623.871C361.733 627.537 364.711 630.286 368.147 630.286C371.813 630.286 374.562 627.308 374.562 623.871C374.562 620.205 371.584 617.455 368.147 617.455C364.711 617.455 361.733 620.434 361.733 623.871Z" fill="#374B7C"/>
<path d="M361.733 553.528C361.733 549.862 364.711 547.112 368.147 547.112C371.813 547.112 374.562 550.091 374.562 553.528C374.562 557.194 371.584 559.944 368.147 559.944C364.482 559.944 361.733 557.194 361.733 553.528Z" fill="#374B7C"/>
<path d="M368.147 624.787C368.605 624.787 369.063 624.329 369.063 623.871V553.528C369.063 553.07 368.605 552.611 368.147 552.611C367.689 552.611 367.231 553.07 367.231 553.528V623.871C367.231 624.329 367.689 624.787 368.147 624.787Z" fill="#374B7C"/>
<path d="M361.733 623.871C361.733 627.537 364.711 630.286 368.147 630.286C371.584 630.286 374.562 627.308 374.562 623.871C374.562 620.205 371.584 617.455 368.147 617.455C364.711 617.455 361.733 620.434 361.733 623.871Z" fill="#374B7C"/>
<path d="M361.733 553.528C361.733 549.862 364.711 547.112 368.147 547.112C371.584 547.112 374.562 550.091 374.562 553.528C374.562 557.194 371.584 559.944 368.147 559.944C364.711 559.944 361.733 557.194 361.733 553.528Z" fill="#374B7C"/>
<path d="M307.214 659.843C307.443 659.843 307.443 659.843 307.672 659.614L368.606 624.558C369.064 624.328 369.064 623.87 368.835 623.412C368.606 622.954 368.148 622.954 367.69 623.183L306.756 658.24C306.298 658.469 306.298 658.927 306.527 659.385C306.527 659.843 306.985 659.843 307.214 659.843Z" fill="#374B7C"/>
<path d="M371.355 629.598C374.333 627.765 375.478 623.87 373.646 620.662C371.813 617.684 367.919 616.538 364.712 618.371C361.734 620.204 360.589 624.099 362.421 627.307C364.254 630.286 368.148 631.202 371.355 629.598Z" fill="#374B7C"/>
<path d="M310.422 664.655C307.444 666.488 303.32 665.342 301.488 662.364C299.655 659.385 300.801 655.261 303.779 653.428C306.757 651.595 310.88 652.74 312.712 655.719C314.545 658.927 313.629 662.822 310.422 664.655Z" fill="#374B7C"/>
<path d="M307.215 659.843C307.444 659.843 307.902 659.614 307.902 659.385C308.131 658.927 307.902 658.469 307.673 658.24L246.74 623.183C246.282 622.954 245.823 623.183 245.594 623.412C245.365 623.87 245.594 624.328 245.823 624.558L306.757 659.614C306.986 659.843 306.986 659.843 307.215 659.843Z" fill="#374B7C"/>
<path d="M304.008 664.655C306.986 666.488 311.109 665.342 312.942 662.364C314.774 659.385 313.629 655.261 310.651 653.428C307.673 651.595 303.55 652.74 301.717 655.719C299.885 658.927 300.801 662.822 304.008 664.655Z" fill="#374B7C"/>
<path d="M243.074 629.598C240.096 627.765 238.951 623.87 240.783 620.662C242.616 617.684 246.51 616.538 249.717 618.371C252.695 620.204 253.841 624.099 252.008 627.307C250.175 630.286 246.281 631.202 243.074 629.598Z" fill="#374B7C"/>
<path d="M246.281 624.787C246.739 624.787 247.197 624.329 247.197 623.871V553.528C247.197 553.07 246.739 552.611 246.281 552.611C245.823 552.611 245.365 553.07 245.365 553.528V623.871C245.365 624.329 245.823 624.787 246.281 624.787Z" fill="#374B7C"/>
<path d="M239.867 623.871C239.867 627.537 242.845 630.286 246.281 630.286C249.717 630.286 252.695 627.308 252.695 623.871C252.695 620.205 249.717 617.455 246.281 617.455C242.845 617.455 239.867 620.434 239.867 623.871Z" fill="#374B7C"/>
<path d="M239.867 553.528C239.867 549.862 242.845 547.112 246.281 547.112C249.717 547.112 252.695 550.091 252.695 553.528C252.695 557.194 249.717 559.944 246.281 559.944C242.845 559.944 239.867 557.194 239.867 553.528Z" fill="#374B7C"/>
<path d="M246.282 554.445C246.511 554.445 246.511 554.445 246.74 554.216L307.673 519.159C308.131 518.93 308.131 518.472 307.902 518.013C307.673 517.555 307.215 517.555 306.757 517.784L245.823 552.841C245.365 553.07 245.365 553.528 245.594 553.987C245.823 554.216 246.053 554.445 246.282 554.445Z" fill="#374B7C"/>
<path d="M243.074 548.029C240.096 549.862 238.951 553.757 240.783 556.965C242.616 559.944 246.51 561.09 249.717 559.257C252.695 557.424 253.841 553.528 252.008 550.321C250.175 547.342 246.281 546.196 243.074 548.029Z" fill="#374B7C"/>
<path d="M304.008 512.743C306.986 510.91 311.109 512.056 312.942 515.034C314.774 518.013 313.629 522.137 310.651 523.97C307.673 525.803 303.55 524.658 301.717 521.679C299.885 518.7 300.801 514.576 304.008 512.743Z" fill="#374B7C"/>
<path d="M368.148 554.445C368.377 554.445 368.835 554.216 368.835 553.987C369.064 553.529 368.835 553.07 368.606 552.841L307.672 517.784C307.214 517.555 306.756 517.784 306.527 518.014C306.298 518.472 306.527 518.93 306.756 519.159L367.689 554.216C367.919 554.445 367.919 554.445 368.148 554.445Z" fill="#374B7C"/>
<path d="M310.422 512.743C307.444 510.91 303.32 512.056 301.488 515.034C299.655 518.013 300.801 522.137 303.779 523.97C306.757 525.803 310.88 524.658 312.712 521.679C314.545 518.471 313.629 514.576 310.422 512.743Z" fill="#374B7C"/>
<path d="M371.355 548.029C374.333 549.862 375.478 553.757 373.646 556.965C371.813 559.944 367.919 561.09 364.712 559.257C361.734 557.424 360.589 553.528 362.421 550.321C364.254 547.342 368.148 546.196 371.355 548.029Z" fill="#374B7C"/>
<path d="M246.281 624.787C246.739 624.787 247.197 624.329 247.197 623.871V553.528C247.197 553.07 246.739 552.611 246.281 552.611C245.823 552.611 245.365 553.07 245.365 553.528V623.871C245.594 624.329 245.823 624.787 246.281 624.787Z" fill="#374B7C"/>
<path d="M239.867 623.871C239.867 627.537 242.845 630.286 246.281 630.286C249.946 630.286 252.695 627.308 252.695 623.871C252.695 620.205 249.717 617.455 246.281 617.455C242.845 617.455 239.867 620.434 239.867 623.871Z" fill="#374B7C"/>
<path d="M239.867 553.528C239.867 549.862 242.845 547.112 246.281 547.112C249.946 547.112 252.695 550.091 252.695 553.528C252.695 557.194 249.717 559.944 246.281 559.944C242.845 559.944 239.867 557.194 239.867 553.528Z" fill="#374B7C"/>
<path d="M185.347 659.843C185.576 659.843 185.576 659.843 185.805 659.614L246.739 624.558C247.197 624.328 247.197 623.87 246.968 623.412C246.739 622.954 246.28 622.954 245.822 623.183L184.889 658.24C184.431 658.469 184.431 658.927 184.66 659.385C184.889 659.843 185.118 659.843 185.347 659.843Z" fill="#374B7C"/>
<path d="M249.488 629.598C252.466 627.765 253.611 623.87 251.779 620.662C249.946 617.684 246.052 616.538 242.845 618.371C239.867 620.204 238.721 624.099 240.554 627.307C242.616 630.286 246.51 631.202 249.488 629.598Z" fill="#374B7C"/>
<path d="M188.784 664.655C185.806 666.488 181.682 665.342 179.85 662.364C178.017 659.385 179.163 655.261 182.141 653.428C185.119 651.595 189.242 652.74 191.074 655.719C192.907 658.927 191.762 662.822 188.784 664.655Z" fill="#374B7C"/>
<path d="M124.643 624.787C125.101 624.787 125.56 624.329 125.56 623.871V553.528C125.56 553.07 125.101 552.611 124.643 552.611C124.185 552.611 123.727 553.07 123.727 553.528V623.871C123.727 624.329 124.185 624.787 124.643 624.787Z" fill="#374B7C"/>
<path d="M118 623.871C118 627.537 120.978 630.286 124.414 630.286C128.079 630.286 130.828 627.308 130.828 623.871C130.828 620.205 127.85 617.455 124.414 617.455C120.978 617.455 118 620.434 118 623.871Z" fill="#374B7C"/>
<path d="M118 553.528C118 549.862 120.978 547.112 124.414 547.112C128.079 547.112 130.828 550.091 130.828 553.528C130.828 557.194 127.85 559.944 124.414 559.944C120.978 559.944 118 557.194 118 553.528Z" fill="#374B7C"/>
<path d="M124.643 554.445C124.872 554.445 124.872 554.445 125.101 554.216L186.035 519.159C186.493 518.93 186.493 518.472 186.264 518.013C186.035 517.555 185.576 517.555 185.118 517.784L124.185 552.841C123.727 553.07 123.727 553.528 123.956 553.987C123.956 554.216 124.185 554.445 124.643 554.445Z" fill="#374B7C"/>
<path d="M121.437 548.029C118.459 549.862 117.313 553.757 119.146 556.965C120.978 559.944 124.873 561.09 128.08 559.257C131.058 557.424 132.203 553.528 130.37 550.321C128.309 547.342 124.415 546.196 121.437 548.029Z" fill="#374B7C"/>
<path d="M182.141 512.743C185.119 510.91 189.242 512.056 191.074 515.034C192.907 518.013 191.762 522.137 188.784 523.97C185.806 525.803 181.682 524.658 179.85 521.679C178.017 518.471 179.163 514.576 182.141 512.743Z" fill="#374B7C"/>
<path d="M307.215 730.185C307.673 730.185 308.131 729.727 308.131 729.269V658.926C308.131 658.468 307.673 658.01 307.215 658.01C306.756 658.01 306.298 658.468 306.298 658.926V729.269C306.298 729.956 306.756 730.185 307.215 730.185Z" fill="#374B7C"/>
<path d="M300.801 729.498C300.801 733.164 303.779 735.914 307.215 735.914C310.88 735.914 313.629 732.935 313.629 729.498C313.629 725.832 310.651 723.083 307.215 723.083C303.55 722.854 300.801 725.832 300.801 729.498Z" fill="#374B7C"/>
<path d="M300.801 659.156C300.801 655.49 303.779 652.74 307.215 652.74C310.88 652.74 313.629 655.719 313.629 659.156C313.629 662.593 310.651 665.571 307.215 665.571C303.779 665.571 300.801 662.593 300.801 659.156Z" fill="#374B7C"/>
<path d="M307.214 659.843C307.443 659.843 307.443 659.843 307.672 659.614L368.606 624.558C369.064 624.328 369.064 623.87 368.835 623.412C368.606 622.954 368.148 622.954 367.69 623.183L306.756 658.239C306.298 658.469 306.298 658.927 306.527 659.385C306.756 659.843 306.985 659.843 307.214 659.843Z" fill="#374B7C"/>
<path d="M304.007 653.428C301.029 655.261 299.884 659.156 301.716 662.364C303.549 665.342 307.443 666.488 310.65 664.655C313.628 662.822 314.773 658.927 312.941 655.719C311.108 652.74 306.985 651.595 304.007 653.428Z" fill="#374B7C"/>
<path d="M364.241 628.957C361.439 626.789 360.925 622.76 363.092 619.957C365.259 617.154 369.288 616.64 372.09 618.807C374.892 620.975 375.406 625.004 373.239 627.807C371.072 630.61 367.043 631.125 364.241 628.957Z" fill="#374B7C"/>
<path d="M307.215 730.185C307.673 730.185 308.131 729.727 308.131 729.269V658.926C308.131 658.468 307.673 658.01 307.215 658.01C306.756 658.01 306.298 658.468 306.298 658.926V729.269C306.298 729.956 306.756 730.185 307.215 730.185Z" fill="#374B7C"/>
<path d="M300.801 729.498C300.801 733.164 303.779 735.914 307.215 735.914C310.88 735.914 313.629 732.935 313.629 729.498C313.629 725.832 310.651 723.083 307.215 723.083C303.779 722.854 300.801 725.832 300.801 729.498Z" fill="#374B7C"/>
<path d="M300.801 659.156C300.801 655.49 303.779 652.74 307.215 652.74C310.88 652.74 313.629 655.719 313.629 659.156C313.629 662.822 310.651 665.571 307.215 665.571C303.779 665.571 300.801 662.593 300.801 659.156Z" fill="#374B7C"/>
<path d="M246.281 765.472C246.51 765.472 246.51 765.472 246.739 765.243L307.672 730.186C308.13 729.957 308.13 729.499 307.901 729.041C307.672 728.583 307.214 728.583 306.756 728.812L245.822 763.868C245.364 764.098 245.364 764.556 245.593 765.014C245.822 765.243 246.052 765.472 246.281 765.472Z" fill="#374B7C"/>
<path d="M310.421 734.998C313.399 733.165 314.545 729.27 312.712 726.062C310.88 723.083 306.985 721.937 303.778 723.77C300.8 725.603 299.655 729.499 301.488 732.706C303.32 735.685 307.444 736.831 310.421 734.998Z" fill="#374B7C"/>
<path d="M249.488 770.054C246.51 771.887 242.387 770.742 240.554 767.763C238.722 764.784 239.867 760.66 242.845 758.827C245.823 756.994 249.946 758.14 251.779 761.118C253.611 764.326 252.695 768.451 249.488 770.054Z" fill="#374B7C"/>
<path d="M246.281 765.471C246.51 765.471 246.969 765.242 246.969 765.013C247.198 764.555 246.969 764.097 246.74 763.868L185.806 728.811C185.348 728.582 184.89 728.811 184.661 729.04C184.432 729.498 184.661 729.956 184.89 730.186L245.823 765.242C246.052 765.472 246.281 765.471 246.281 765.471Z" fill="#374B7C"/>
<path d="M243.074 770.054C246.052 771.887 250.175 770.742 252.008 767.763C253.841 764.784 252.695 760.66 249.717 758.827C246.739 756.994 242.616 758.14 240.783 761.118C238.951 764.326 240.096 768.451 243.074 770.054Z" fill="#374B7C"/>
<path d="M182.141 734.998C179.163 733.165 178.017 729.27 179.85 726.062C181.682 723.083 185.577 721.937 188.784 723.77C191.762 725.603 192.907 729.499 191.074 732.707C189.242 735.914 185.348 736.831 182.141 734.998Z" fill="#374B7C"/>
<path d="M185.347 730.185C185.806 730.185 186.264 729.727 186.264 729.269V658.926C186.264 658.468 185.806 658.01 185.347 658.01C184.889 658.01 184.431 658.468 184.431 658.926V729.269C184.66 729.956 184.889 730.185 185.347 730.185Z" fill="#374B7C"/>
<path d="M178.934 729.498C178.934 733.164 181.912 735.914 185.348 735.914C189.013 735.914 191.762 732.935 191.762 729.498C191.762 725.832 188.784 723.083 185.348 723.083C181.912 722.854 178.934 725.832 178.934 729.498Z" fill="#374B7C"/>
<path d="M178.934 659.156C178.934 655.49 181.912 652.74 185.348 652.74C189.013 652.74 191.762 655.719 191.762 659.156C191.762 662.822 188.784 665.571 185.348 665.571C181.912 665.571 178.934 662.593 178.934 659.156Z" fill="#374B7C"/>
<path d="M185.577 659.843C185.806 659.843 185.806 659.843 186.035 659.614L246.968 624.558C247.426 624.328 247.426 623.87 247.197 623.412C246.968 622.954 246.51 622.954 246.052 623.183L185.118 658.24C184.66 658.469 184.66 658.927 184.889 659.385C184.889 659.843 185.118 659.843 185.577 659.843Z" fill="#374B7C"/>
<path d="M182.141 653.428C179.163 655.261 178.017 659.156 179.85 662.364C181.682 665.342 185.577 666.488 188.784 664.655C191.762 662.822 192.907 658.927 191.074 655.719C189.242 652.74 185.348 651.595 182.141 653.428Z" fill="#374B7C"/>
<path d="M243.074 618.371C246.052 616.538 250.175 617.684 252.008 620.662C253.841 623.641 252.695 627.765 249.717 629.598C246.739 631.431 242.616 630.286 240.783 627.307C238.951 624.099 240.096 620.204 243.074 618.371Z" fill="#374B7C"/>
<path d="M307.214 659.843C307.443 659.843 307.901 659.614 307.901 659.385C308.13 658.927 307.901 658.469 307.672 658.24L246.739 623.183C246.281 622.954 245.822 623.183 245.593 623.412C245.364 623.87 245.593 624.328 245.822 624.558L306.756 659.614C306.985 659.843 306.985 659.843 307.214 659.843Z" fill="#374B7C"/>
<path d="M249.488 618.371C246.51 616.538 242.387 617.684 240.554 620.662C238.722 623.641 239.867 627.765 242.845 629.598C245.823 631.431 249.946 630.286 251.779 627.307C253.611 624.099 252.695 620.204 249.488 618.371Z" fill="#374B7C"/>
<path d="M310.421 653.428C313.399 655.261 314.545 659.156 312.712 662.364C310.88 665.342 306.985 666.488 303.778 664.655C300.8 662.822 299.655 658.927 301.488 655.719C303.32 652.74 307.444 651.595 310.421 653.428Z" fill="#374B7C"/>
<path d="M246.281 835.815C246.739 835.815 247.197 835.357 247.197 834.899V764.556C247.197 764.098 246.739 763.64 246.281 763.64C245.823 763.64 245.365 764.098 245.365 764.556V834.899C245.365 835.357 245.823 835.815 246.281 835.815Z" fill="#374B7C"/>
<path d="M239.867 834.899C239.867 838.565 242.845 841.315 246.281 841.315C249.946 841.315 252.695 838.336 252.695 834.899C252.695 831.233 249.717 828.483 246.281 828.483C242.845 828.483 239.867 831.233 239.867 834.899Z" fill="#374B7C"/>
<path d="M239.867 764.556C239.867 760.89 242.845 758.141 246.281 758.141C249.946 758.141 252.695 761.119 252.695 764.556C252.695 768.222 249.717 770.972 246.281 770.972C242.845 770.972 239.867 768.222 239.867 764.556Z" fill="#374B7C"/>
<path d="M246.282 765.472C246.511 765.472 246.511 765.472 246.74 765.243L307.673 730.186C308.131 729.957 308.131 729.499 307.902 729.041C307.673 728.583 307.215 728.583 306.757 728.812L245.823 763.868C245.365 764.098 245.365 764.556 245.594 765.014C245.823 765.243 246.053 765.472 246.282 765.472Z" fill="#374B7C"/>
<path d="M243.074 759.056C240.096 760.889 238.951 764.785 240.783 767.992C242.616 770.971 246.51 772.117 249.717 770.284C252.695 768.451 253.841 764.555 252.008 761.348C250.175 758.14 246.281 757.223 243.074 759.056Z" fill="#374B7C"/>
<path d="M304.008 723.77C306.986 721.937 311.109 723.083 312.942 726.062C314.774 729.04 313.629 733.165 310.651 734.998C307.673 736.831 303.55 735.685 301.717 732.706C299.885 729.499 300.801 725.603 304.008 723.77Z" fill="#374B7C"/>
<path d="M246.281 835.815C246.739 835.815 247.197 835.357 247.197 834.899V764.556C247.197 764.098 246.739 763.64 246.281 763.64C245.823 763.64 245.365 764.098 245.365 764.556V834.899C245.594 835.357 245.823 835.815 246.281 835.815Z" fill="#374B7C"/>
<path d="M239.867 834.899C239.867 838.565 242.845 841.315 246.281 841.315C249.946 841.315 252.695 838.336 252.695 834.899C252.695 831.233 249.717 828.483 246.281 828.483C242.845 828.483 239.867 831.233 239.867 834.899Z" fill="#374B7C"/>
<path d="M239.867 764.556C239.867 760.89 242.845 758.141 246.281 758.141C249.946 758.141 252.695 761.119 252.695 764.556C252.695 768.222 249.717 770.972 246.281 770.972C242.845 770.972 239.867 768.222 239.867 764.556Z" fill="#374B7C"/>
<path d="M185.347 870.872C185.576 870.872 185.576 870.872 185.805 870.643L246.739 835.586C247.197 835.357 247.197 834.898 246.968 834.44C246.739 833.982 246.28 833.982 245.822 834.211L184.889 869.268C184.431 869.497 184.431 869.955 184.66 870.414C184.889 870.872 185.118 870.872 185.347 870.872Z" fill="#374B7C"/>
<path d="M249.488 840.397C252.466 838.564 253.611 834.669 251.779 831.461C249.946 828.482 246.052 827.337 242.845 829.17C239.867 831.003 238.721 834.898 240.554 838.106C242.616 841.314 246.51 842.23 249.488 840.397Z" fill="#374B7C"/>
<path d="M188.784 875.683C185.806 877.516 181.682 876.371 179.85 873.392C178.017 870.413 179.163 866.289 182.141 864.456C185.119 862.623 189.242 863.769 191.074 866.747C192.907 869.955 191.762 873.85 188.784 875.683Z" fill="#374B7C"/>
<path d="M185.348 870.871C185.577 870.871 186.035 870.642 186.035 870.413C186.264 869.954 186.035 869.496 185.806 869.267L124.872 834.21C124.414 833.981 123.956 834.21 123.727 834.439C123.498 834.898 123.727 835.356 123.956 835.585L184.89 870.642C185.119 870.871 185.348 870.871 185.348 870.871Z" fill="#374B7C"/>
<path d="M182.141 875.683C185.119 877.516 189.242 876.371 191.074 873.392C192.907 870.413 191.762 866.289 188.784 864.456C185.806 862.623 181.682 863.769 179.85 866.747C178.017 869.955 179.163 873.85 182.141 875.683Z" fill="#374B7C"/>
<path d="M121.437 840.397C118.459 838.564 117.313 834.669 119.146 831.461C120.978 828.482 124.873 827.337 128.08 829.17C131.058 831.003 132.203 834.898 130.37 838.106C128.309 841.314 124.415 842.23 121.437 840.397Z" fill="#374B7C"/>
<path d="M124.643 835.815C125.101 835.815 125.56 835.357 125.56 834.899V764.556C125.56 764.098 125.101 763.64 124.643 763.64C124.185 763.64 123.727 764.098 123.727 764.556V834.899C123.727 835.357 124.185 835.815 124.643 835.815Z" fill="#374B7C"/>
<path d="M118 834.899C118 838.565 120.978 841.315 124.414 841.315C128.079 841.315 130.828 838.336 130.828 834.899C130.828 831.233 127.85 828.483 124.414 828.483C120.978 828.483 118 831.233 118 834.899Z" fill="#374B7C"/>
<path d="M118 764.556C118 760.89 120.978 758.141 124.414 758.141C128.079 758.141 130.828 761.119 130.828 764.556C130.828 768.222 127.85 770.972 124.414 770.972C120.978 770.972 118 768.222 118 764.556Z" fill="#374B7C"/>
<path d="M124.643 765.472C124.872 765.472 124.872 765.472 125.101 765.243L186.035 730.186C186.493 729.957 186.493 729.499 186.264 729.041C186.035 728.583 185.576 728.583 185.118 728.812L124.185 763.868C123.727 764.098 123.727 764.556 123.956 765.014C123.956 765.243 124.185 765.472 124.643 765.472Z" fill="#374B7C"/>
<path d="M121.437 759.056C118.459 760.889 117.313 764.785 119.146 767.992C120.978 770.971 124.873 772.117 128.08 770.284C131.058 768.451 132.203 764.555 130.37 761.348C128.309 758.14 124.415 757.223 121.437 759.056Z" fill="#374B7C"/>
<path d="M182.141 723.77C185.119 721.937 189.242 723.083 191.074 726.062C192.907 729.04 191.762 733.165 188.784 734.998C185.806 736.831 181.682 735.685 179.85 732.706C178.017 729.499 179.163 725.603 182.141 723.77Z" fill="#374B7C"/>
<path d="M246.28 765.471C246.509 765.471 246.968 765.242 246.968 765.013C247.197 764.555 246.968 764.097 246.739 763.868L185.805 728.811C185.347 728.582 184.889 728.811 184.66 729.04C184.431 729.498 184.66 729.956 184.889 730.186L245.822 765.242C246.051 765.472 246.28 765.471 246.28 765.471Z" fill="#374B7C"/>
<path d="M188.784 723.77C185.806 721.937 181.682 723.083 179.85 726.062C178.017 729.04 179.163 733.165 182.141 734.998C185.119 736.831 189.242 735.685 191.074 732.706C192.907 729.728 191.762 725.603 188.784 723.77Z" fill="#374B7C"/>
<path d="M249.488 759.056C252.466 760.889 253.611 764.785 251.779 767.992C249.946 770.971 246.052 772.117 242.845 770.284C239.867 768.451 238.721 764.555 240.554 761.348C242.616 758.14 246.51 757.223 249.488 759.056Z" fill="#374B7C"/>
<path d="M185.347 941.214C185.806 941.214 186.264 940.756 186.264 940.297V869.955C186.264 869.496 185.806 869.038 185.347 869.038C184.889 869.038 184.431 869.496 184.431 869.955V940.297C184.66 940.756 184.889 941.214 185.347 941.214Z" fill="#374B7C"/>
<path d="M178.934 940.297C178.934 943.964 181.912 946.713 185.348 946.713C189.013 946.713 191.762 943.734 191.762 940.297C191.762 936.631 188.784 933.882 185.348 933.882C181.912 933.882 178.934 936.861 178.934 940.297Z" fill="#374B7C"/>
<path d="M178.934 869.955C178.934 866.289 181.912 863.539 185.348 863.539C189.013 863.539 191.762 866.518 191.762 869.955C191.762 873.621 188.784 876.37 185.348 876.37C181.912 876.599 178.934 873.621 178.934 869.955Z" fill="#374B7C"/>
<path d="M185.577 870.872C185.806 870.872 185.806 870.872 186.035 870.643L246.968 835.586C247.426 835.357 247.426 834.898 247.197 834.44C246.968 833.982 246.51 833.982 246.052 834.211L185.118 869.268C184.66 869.497 184.66 869.955 184.889 870.413C184.889 870.872 185.118 870.872 185.577 870.872Z" fill="#374B7C"/>
<path d="M182.141 864.456C179.163 866.289 178.017 870.184 179.85 873.392C181.682 876.371 185.577 877.516 188.784 875.683C191.762 873.85 192.907 869.955 191.074 866.747C189.242 863.769 185.348 862.623 182.141 864.456Z" fill="#374B7C"/>
<path d="M243.074 829.399C246.052 827.566 250.175 828.712 252.008 831.691C253.841 834.669 252.695 838.794 249.717 840.627C246.739 842.46 242.616 841.314 240.783 838.335C238.951 835.128 240.096 831.003 243.074 829.399Z" fill="#374B7C"/>
<path d="M124.643 976.5C124.872 976.5 124.872 976.5 125.101 976.271L186.035 941.214C186.493 940.985 186.493 940.526 186.264 940.068C186.035 939.61 185.576 939.61 185.118 939.839L124.185 974.896C123.727 975.125 123.727 975.583 123.956 976.041C123.956 976.271 124.185 976.5 124.643 976.5Z" fill="#374B7C"/>
<path d="M121.437 969.855C118.459 971.688 117.313 975.583 119.146 978.791C120.978 981.77 124.873 982.916 128.08 981.083C131.058 979.249 132.203 975.354 130.37 972.146C128.309 969.168 124.415 968.251 121.437 969.855Z" fill="#374B7C"/>
<path d="M182.141 934.799C185.119 932.966 189.242 934.111 191.074 937.09C192.907 940.069 191.762 944.193 188.784 946.026C185.806 947.859 181.682 946.714 179.85 943.735C178.017 940.527 179.163 936.632 182.141 934.799Z" fill="#374B7C"/>
</g>
<defs>
<filter id="filter0_d_0_7370" x="-78" y="-78" width="953" height="1228" filterUnits="userSpaceOnUse" color-interpolation-filters="sRGB">
<feFlood flood-opacity="0" result="BackgroundImageFix"/>
<feColorMatrix in="SourceAlpha" type="matrix" values="0 0 0 0 0 0 0 0 0 0 0 0 0 0 0 0 0 0 127 0" result="hardAlpha"/>
<feOffset/>
<feGaussianBlur stdDeviation="39"/>
<feColorMatrix type="matrix" values="0 0 0 0 0.116667 0 0 0 0 0.364 0 0 0 0 1 0 0 0 1 0"/>
<feBlend mode="normal" in2="BackgroundImageFix" result="effect1_dropShadow_0_7370"/>
<feBlend mode="normal" in="SourceGraphic" in2="effect1_dropShadow_0_7370" result="shape"/>
</filter>
</defs>
</svg>
