<svg width="52" height="52" viewBox="0 0 52 52" fill="none" xmlns="http://www.w3.org/2000/svg">
<g id="Frame" clip-path="url(#clip0_284_2772)">
<g id="Group">
<path id="Vector (Stroke)" fill-rule="evenodd" clip-rule="evenodd" d="M37.9676 9.74185C38.8442 9.05764 40.1097 9.21336 40.794 10.0901L51.5734 23.899C52.2576 24.7756 52.1019 26.0411 51.2251 26.7255L45.4781 31.2116C45.1465 31.4704 44.6678 31.4115 44.4089 31.0798C44.1501 30.7482 44.2091 30.2696 44.5407 30.0107L50.2877 25.5246C50.501 25.3581 50.5391 25.0499 50.3725 24.8364C50.3725 24.8364 50.3725 24.8364 50.3725 24.8364L39.5931 11.0276C39.4266 10.8142 39.1185 10.7761 38.9049 10.9428L11.4735 32.3559C11.4132 32.4029 11.3647 32.4635 11.3322 32.5327C11.1534 32.9135 10.6997 33.0772 10.319 32.8984C9.93817 32.7196 9.77446 32.2659 9.95329 31.8851C10.0877 31.5989 10.2878 31.3484 10.5373 31.1541C10.5375 31.154 10.5376 31.1539 10.5378 31.1537L37.9676 9.74185ZM43.2881 31.9547C43.547 32.2863 43.488 32.765 43.1564 33.0239L34.2531 39.9738C35.0793 40.7253 35.3246 41.966 34.7788 42.9961L33.7835 44.8743C33.5865 45.2461 33.1255 45.3877 32.7538 45.1908C32.382 44.9938 32.2404 44.5328 32.4374 44.161L33.4327 42.2827C33.6835 41.8093 33.5073 41.2221 33.0371 40.9651L33.0367 40.9649C33.0261 40.9591 33.0155 40.9535 33.0048 40.9482L27.3676 45.3487C27.0359 45.6075 26.5573 45.5486 26.2984 45.2169C26.0396 44.8853 26.0985 44.4067 26.4301 44.1478L42.219 31.823C42.5506 31.5641 43.0292 31.6231 43.2881 31.9547Z" fill="#7090E3"/>
<path id="Vector (Stroke)_2" fill-rule="evenodd" clip-rule="evenodd" d="M36.7479 15.2284C36.9484 15.2531 37.1309 15.3564 37.2552 15.5157C37.9399 16.3929 39.2062 16.5489 40.0835 15.8641C40.4152 15.6053 40.8938 15.6643 41.1527 15.9959L45.9309 22.117C46.0552 22.2763 46.1111 22.4784 46.0864 22.6789C46.0617 22.8794 45.9584 23.0619 45.7991 23.1862C44.9219 23.8709 44.7659 25.1372 45.4507 26.0145C45.7096 26.3461 45.6506 26.8248 45.319 27.0836L25.5759 42.4951C25.4167 42.6194 25.2146 42.6754 25.0141 42.6507C24.8135 42.626 24.6311 42.5226 24.5068 42.3634C23.822 41.4861 22.5558 41.3301 21.6785 42.0149C21.3469 42.2738 20.8682 42.2148 20.6093 41.8832C20.3505 41.5516 20.4094 41.073 20.741 40.8141C22.0754 39.7724 23.9223 39.8386 25.1742 40.8761L43.8459 26.3009C43.2519 25.0611 43.4346 23.5773 44.3119 22.5188L40.3699 17.4689C39.1302 18.063 37.6463 17.8802 36.5878 17.003L17.9162 31.5782C18.5102 32.8179 18.3275 34.3018 17.4502 35.3603L17.6937 35.6722C17.9525 36.0038 17.8935 36.4825 17.5619 36.7413C17.2303 37.0002 16.7516 36.9412 16.4928 36.6096L15.8312 35.762C15.7069 35.6028 15.6509 35.4007 15.6756 35.2002C15.7004 34.9997 15.8037 34.8172 15.963 34.6929C16.8402 34.0082 16.9962 32.7419 16.3114 31.8646C16.0525 31.533 16.1115 31.0543 16.4431 30.7954L36.1861 15.3839C36.3453 15.2596 36.5474 15.2037 36.7479 15.2284Z" fill="#7090E3"/>
<path id="Vector (Stroke)_3" fill-rule="evenodd" clip-rule="evenodd" d="M12.8072 4.82812C17.0944 2.48295 22.1204 1.81024 26.8739 2.94136C29.9978 3.68473 32.8308 5.13842 35.1949 7.16936C35.1953 7.1697 35.1957 7.17004 35.1961 7.17039L35.2018 7.17528L35.2046 7.1777C35.9998 7.86178 35.9481 9.09281 35.1375 9.72556L33.1224 11.2986C32.5244 11.7652 31.6736 11.7744 31.0694 11.2902C26.6452 7.74416 20.3048 7.10649 15.1522 10.1636C12.5379 11.7147 10.5513 14.0039 9.39962 16.7438L10.1847 16.9442L10.185 16.9443C10.9949 17.1514 11.2654 18.1666 10.6641 18.7488L5.47097 23.7769L5.47088 23.7769C4.74311 24.4814 3.52781 24.17 3.22887 23.2019M3.22887 23.2019L1.09912 16.3055C1.09911 16.3055 1.09912 16.3055 1.09912 16.3055C0.852403 15.5067 1.57613 14.7472 2.38533 14.9535L2.38551 14.9536L3.73974 15.2993C4.2907 13.8147 5.01849 12.4012 5.90771 11.0897C6.14379 10.7415 6.61744 10.6506 6.96564 10.8866C7.31384 11.1227 7.40474 11.5964 7.16866 11.9446C6.27656 13.2604 5.56053 14.6873 5.03882 16.189C4.95166 16.4421 4.77276 16.6534 4.53739 16.7811C4.30128 16.9092 4.02562 16.9438 3.76516 16.8781L2.79378 16.6301L4.60495 22.4948L9.02073 18.2194L8.52232 18.0922C7.89421 17.9319 7.56428 17.2636 7.78724 16.6743L7.7873 16.6742C9.0263 13.4018 11.3169 10.6678 14.3749 8.85343C20.0923 5.46115 27.1204 6.17266 32.022 10.1014C32.0629 10.1341 32.1312 10.1396 32.185 10.0977C32.1851 10.0977 32.1851 10.0976 32.1851 10.0976C32.1851 10.0976 32.1852 10.0976 32.1851 10.0976L34.2 8.52469C34.2687 8.47114 34.262 8.37718 34.2118 8.33321C34.2116 8.333 34.2113 8.3328 34.2111 8.33259L34.2057 8.328L34.2032 8.32588C32.0241 6.4535 29.4104 5.11093 26.5212 4.42341C22.1341 3.37947 17.4943 4.00066 13.5383 6.16466C11.7804 7.12625 10.2375 8.33778 8.93302 9.73374C8.6458 10.0411 8.16378 10.0575 7.85641 9.77024C7.54903 9.48301 7.53269 9.001 7.81991 8.69362C9.2337 7.18064 10.9052 5.86853 12.8072 4.82812M4.68439 22.7521C4.68443 22.7522 4.68446 22.7523 4.6845 22.7524L4.68439 22.7521ZM8.8991 16.6161C8.89929 16.6161 8.89947 16.6162 8.89966 16.6162L8.8991 16.6161ZM30.426 26.6406L30.4265 26.6405L30.4273 26.6402C30.4269 26.6404 30.4264 26.6405 30.426 26.6406ZM30.4318 26.6388C30.8298 26.512 31.0518 26.0878 30.9281 25.688C30.8038 25.2861 30.3772 25.0611 29.9753 25.1854L30.2004 25.9131C29.9753 25.1854 29.9751 25.1855 29.9748 25.1856L29.9743 25.1857L29.9732 25.1861L29.9706 25.1869L29.9647 25.1888C29.9602 25.1902 29.955 25.1919 29.9489 25.1939C29.9368 25.198 29.9214 25.2033 29.9031 25.2099C29.8664 25.2232 29.8178 25.2419 29.7594 25.2668C29.6429 25.3163 29.4859 25.3912 29.3077 25.4977C29.2656 25.5228 29.2222 25.5498 29.1776 25.5788C28.9163 25.2601 28.4468 25.2066 28.1201 25.4617C27.7885 25.7206 27.7295 26.1993 27.9884 26.5309L28.0814 26.6499C27.6623 27.2914 27.7029 28.0385 27.9664 28.6012C28.2294 29.163 28.7996 29.7022 29.5748 29.704C30.1687 29.7053 30.8431 29.5151 31.5697 29.2719C31.8024 29.194 31.9611 29.2242 32.0681 29.2757C32.186 29.3324 32.2974 29.4431 32.371 29.6039C32.5209 29.9314 32.4668 30.3391 32.1295 30.606C31.8811 30.8025 31.7526 30.8883 31.6329 30.9418C31.525 30.9901 31.3828 31.0301 31.0956 31.0541C30.6764 31.0892 30.365 31.4575 30.4001 31.8767C30.4352 32.2959 30.8035 32.6073 31.2227 32.5722C31.6101 32.5398 31.9366 32.4749 32.2551 32.3324C32.3201 32.3033 32.3828 32.2718 32.4437 32.2383L32.5162 32.3312C32.775 32.6628 33.2537 32.7218 33.5853 32.463C33.917 32.2042 33.976 31.7255 33.7172 31.3939L33.5949 31.2372C34.063 30.5261 34.0691 29.6534 33.7562 28.9698C33.5535 28.5269 33.2054 28.1323 32.7287 27.9029C32.2412 27.6683 31.6701 27.6317 31.0861 27.8272C30.3526 28.0727 29.8941 28.1813 29.5783 28.1806C29.5613 28.1805 29.4392 28.1541 29.3461 27.9553C29.2617 27.7751 29.2765 27.5962 29.3667 27.4686C29.5915 27.1506 29.8664 26.9385 30.0891 26.8054C30.1996 26.7394 30.2936 26.6951 30.356 26.6685C30.387 26.6553 30.4097 26.6467 30.4221 26.6423C30.4271 26.6404 30.4305 26.6393 30.4318 26.6388ZM0.490765 30.4398C0.804995 30.1255 1.23118 29.949 1.67558 29.949H6.59222C6.81226 29.949 7.03015 29.9923 7.23343 30.0765C7.43673 30.1607 7.62144 30.2842 7.77703 30.4398C7.93262 30.5953 8.05605 30.7801 8.14025 30.9834C8.22446 31.1866 8.2678 31.4045 8.2678 31.6246V31.8496L12.6199 31.8707C13.437 31.8746 14.2357 32.1139 14.9204 32.56C15.6051 33.0061 16.1467 33.64 16.4804 34.3859C16.7112 34.9016 17.1076 35.3254 17.6068 35.5898L20.599 37.1755C21.8375 37.8318 22.3096 39.3679 21.6532 40.6065C21.4811 40.9313 21.2485 41.2035 20.9764 41.4164L25.1817 43.6448C25.8436 43.9955 26.5896 44.1567 27.3373 44.1106L33.206 43.7485C33.499 43.7304 33.7804 43.6272 34.0157 43.4516L35.0086 42.7103C35.0086 42.7103 35.0086 42.7103 35.0086 42.7103C35.405 42.4142 35.8774 42.2368 36.3708 42.1987C36.8641 42.1607 37.3581 42.2634 37.7953 42.4951C39.4328 43.3628 39.6717 45.6121 38.2529 46.8044C37.0513 47.8142 35.581 48.4513 34.0224 48.6375C34.0224 48.6375 34.0224 48.6375 34.0224 48.6375L26.6261 49.5212C24.7226 49.7486 22.7932 49.4518 21.0461 48.6628L12.5043 44.8054C11.7568 44.4678 10.9535 44.2705 10.1347 44.2231L8.2678 44.1153V44.5736C8.2678 44.5736 8.2678 44.5736 8.2678 44.5736C8.26781 44.7936 8.22449 45.0116 8.14029 45.2149C8.05609 45.4182 7.93267 45.6029 7.77706 45.7585C7.62145 45.9141 7.43672 46.0376 7.23341 46.1218C7.03012 46.206 6.81225 46.2493 6.59222 46.2493C6.59219 46.2493 6.59225 46.2493 6.59222 46.2493H1.67568C1.23129 46.2493 0.805101 46.0727 0.490867 45.7585C0.176635 45.4443 0.000101555 45.0181 0.000101555 44.5737V41.5559C0.000101555 41.1352 0.341135 40.7941 0.76182 40.7941C1.18251 40.7941 1.52354 41.1352 1.52354 41.5559V44.5737C1.52354 44.614 1.53957 44.6527 1.5681 44.6813C1.59663 44.7098 1.63533 44.7258 1.67568 44.7258H6.59222C6.61219 44.7258 6.63205 44.7219 6.6505 44.7143C6.66895 44.7066 6.68571 44.6954 6.69983 44.6813C6.71395 44.6672 6.72515 44.6504 6.73279 44.632C6.74043 44.6135 6.74436 44.5937 6.74436 44.5738V31.6246C6.74436 31.6046 6.74042 31.5848 6.73278 31.5663C6.72513 31.5479 6.71393 31.5311 6.6998 31.517C6.68567 31.5029 6.6689 31.4917 6.65044 31.484C6.63198 31.4764 6.6122 31.4724 6.59222 31.4724H1.67558C1.63523 31.4724 1.59653 31.4885 1.568 31.517C1.53947 31.5455 1.52344 31.5842 1.52344 31.6246V38.6104C1.52344 39.0311 1.1824 39.3722 0.761719 39.3722C0.341033 39.3722 0 39.0311 0 38.6104V31.6246C0 31.1802 0.176533 30.754 0.490765 30.4398ZM8.2678 42.5893L10.2225 42.7022C11.2277 42.7603 12.2137 43.0026 13.1313 43.417L21.6731 47.2744C23.1673 47.9492 24.8175 48.203 26.4454 48.0085L33.8417 47.1248C35.1057 46.9738 36.2982 46.4571 37.2728 45.6381C37.8644 45.1409 37.7648 44.203 37.082 43.8412C36.8997 43.7446 36.6937 43.7018 36.488 43.7177C36.2823 43.7336 36.0854 43.8075 35.92 43.931L34.9272 44.6723C34.9272 44.6723 34.9272 44.6723 34.9272 44.6723C34.4543 45.0253 33.8888 45.2327 33.2998 45.2691L27.4311 45.6311C27.4311 45.6311 27.4311 45.6311 27.4311 45.6311C26.4034 45.6946 25.3782 45.473 24.4684 44.9909L14.6547 39.7906L14.6517 39.789C14.2806 39.5923 14.1387 39.1323 14.3346 38.7607C14.5304 38.3892 14.9901 38.2463 15.3621 38.4413L15.3651 38.4429L18.9433 40.3187C18.9437 40.3189 18.9441 40.3191 18.9445 40.3193C19.4387 40.5749 20.0466 40.3849 20.3071 39.8932C20.5695 39.3981 20.3808 38.784 19.8857 38.5216L16.8936 36.936C16.8936 36.936 16.8936 36.936 16.8936 36.936C16.0942 36.5125 15.4593 35.8339 15.0899 35.0081C14.8757 34.5295 14.5281 34.1227 14.0888 33.8364C13.6494 33.5502 13.1369 33.3966 12.6125 33.3941L8.2678 33.3731V42.5893Z" fill="#7090E3"/>
</g>
</g>
<defs>
<clipPath id="clip0_284_2772">
<rect width="52" height="52" fill="white"/>
</clipPath>
</defs>
</svg>
