<svg width="58" height="58" viewBox="0 0 58 58" fill="none" xmlns="http://www.w3.org/2000/svg">
<g id="Frame">
<rect width="58" height="58" rx="29" fill="#222429"/>
<g id="Group">
<path id="Vector" d="M19.432 16.9639C21.9881 14.4077 25.3867 13 29.0016 13C32.6165 13 36.0152 14.4077 38.5713 16.9639C41.1274 19.5201 42.5352 22.9187 42.5352 26.5335C42.5352 33.8463 35.6207 39.9288 31.906 43.1965C31.3898 43.6506 30.944 44.0427 30.5888 44.3745C30.1438 44.7901 29.5727 44.998 29.0016 44.998C28.4305 44.998 27.8595 44.7901 27.4144 44.3745C27.0593 44.0427 26.6135 43.6506 26.0972 43.1965C22.3825 39.9287 15.4681 33.8463 15.4681 26.5335C15.4681 22.9187 16.8758 19.5201 19.432 16.9639ZM27.3353 41.7892C27.8628 42.2532 28.3184 42.654 28.694 43.0048C28.8665 43.1658 29.1368 43.1659 29.3094 43.0048C29.6849 42.6539 30.1405 42.2531 30.668 41.7891C34.1603 38.7171 40.6609 32.9988 40.6609 26.5336C40.6609 20.1047 35.4306 14.8745 29.0017 14.8745C22.5728 14.8745 17.3426 20.1047 17.3426 26.5336C17.3425 32.9988 23.843 38.7171 27.3353 41.7892Z" fill="#C79B67"/>
<path id="Vector_2" d="M29.0008 20.0586C32.2894 20.0586 34.9648 22.734 34.9648 26.0226C34.9648 29.3112 32.2894 31.9866 29.0008 31.9866C25.7121 31.9866 23.0367 29.3112 23.0367 26.0226C23.0367 22.734 25.7121 20.0586 29.0008 20.0586ZM29.0008 30.1122C31.2558 30.1122 33.0905 28.2775 33.0905 26.0226C33.0905 23.7676 31.2558 21.9329 29.0008 21.9329C26.7457 21.9329 24.9111 23.7676 24.9111 26.0226C24.9111 28.2775 26.7457 30.1122 29.0008 30.1122Z" fill="#C79B67"/>
</g>
</g>
</svg>
