<svg width="58" height="58" viewBox="0 0 58 58" fill="none" xmlns="http://www.w3.org/2000/svg">
<g id="Frame">
<rect width="58" height="58" rx="29" fill="#222429"/>
<g id="Group">
<path id="Vector" d="M20.113 33.942C23.072 37.4791 26.634 40.264 30.6995 42.2346C32.2473 42.9681 34.3174 43.8384 36.6236 43.9876C36.7666 43.9938 36.9034 44 37.0463 44C38.5942 44 39.8375 43.4654 40.8507 42.3651C40.8569 42.3589 40.8694 42.3465 40.8756 42.334C41.2361 41.8989 41.6464 41.5073 42.0753 41.0908C42.3675 40.811 42.6659 40.5189 42.9518 40.2205C44.2759 38.8404 44.2759 37.0874 42.9394 35.7509L39.2034 32.0149C38.5693 31.356 37.8109 31.0079 37.0152 31.0079C36.2196 31.0079 35.4549 31.356 34.8022 32.0087L32.5768 34.2341C32.3716 34.116 32.1603 34.0104 31.9614 33.9109C31.7127 33.7866 31.4827 33.6685 31.2776 33.5379C29.251 32.2511 27.411 30.5727 25.6518 28.4157C24.7629 27.2905 24.1661 26.3456 23.7496 25.3821C24.3339 24.8537 24.881 24.3005 25.4094 23.7596C25.5958 23.5669 25.7886 23.3742 25.9813 23.1815C26.6526 22.5102 27.0132 21.7331 27.0132 20.9436C27.0132 20.1542 26.6588 19.3771 25.9813 18.7058L24.1288 16.8533C23.9112 16.6357 23.7061 16.4244 23.4947 16.2068C23.0845 15.7841 22.6555 15.3489 22.2328 14.9573C21.5925 14.3295 20.8404 14 20.0447 14C19.2552 14 18.4968 14.3295 17.8317 14.9635L15.5067 17.2884C14.6613 18.1339 14.1827 19.1596 14.0832 20.3469C13.9651 21.8326 14.2386 23.4115 14.9473 25.3199C16.0351 28.2727 17.6762 31.0141 20.113 33.942ZM15.6 20.4774C15.6746 19.6506 15.9916 18.9606 16.5884 18.3639L18.9009 16.0514C19.2614 15.7033 19.6593 15.523 20.0447 15.523C20.4239 15.523 20.8093 15.7033 21.1636 16.0638C21.5801 16.4492 21.9717 16.8533 22.3944 17.2822C22.6058 17.4998 22.8234 17.7174 23.0409 17.9412L24.8934 19.7936C25.2788 20.179 25.4777 20.5707 25.4777 20.9561C25.4777 21.3415 25.2788 21.7331 24.8934 22.1185C24.7007 22.3112 24.508 22.5102 24.3153 22.7029C23.7372 23.2872 23.1963 23.8404 22.5996 24.3688L22.5685 24.3999C22.0525 24.9159 22.1334 25.407 22.2577 25.7799C22.2639 25.7986 22.2701 25.811 22.2763 25.8297C22.755 26.9797 23.4201 28.0738 24.4583 29.3792C26.3232 31.6792 28.2875 33.4633 30.4508 34.8371C30.7181 35.0112 31.0041 35.1479 31.2714 35.2847C31.52 35.409 31.75 35.5271 31.9552 35.6577C31.98 35.6701 31.9987 35.6826 32.0235 35.695C32.2287 35.8007 32.4276 35.8504 32.6265 35.8504C33.1238 35.8504 33.4471 35.5334 33.5527 35.4277L35.8777 33.1028C36.2382 32.7422 36.6298 32.5495 37.0152 32.5495C37.4877 32.5495 37.8731 32.8417 38.1155 33.1028L41.864 36.845C42.6099 37.591 42.6037 38.3991 41.8453 39.1886C41.5842 39.4683 41.3107 39.7356 41.0186 40.0153C40.5834 40.438 40.1296 40.8732 39.7193 41.3643C39.0045 42.1351 38.1528 42.4956 37.0525 42.4956C36.9469 42.4956 36.835 42.4894 36.7293 42.4832C34.6903 42.3527 32.7944 41.557 31.3708 40.8794C27.5043 39.0083 24.1101 36.3539 21.2941 32.9847C18.9755 30.1935 17.4152 27.5951 16.3833 24.8102C15.743 23.1007 15.5005 21.7269 15.6 20.4774Z" fill="#C79B67"/>
</g>
</g>
</svg>
