<svg width="1270" height="1333" viewBox="0 0 1270 1333" fill="none" xmlns="http://www.w3.org/2000/svg">
<g opacity="0.7" filter="url(#filter0_f_244_3666)">
<ellipse cx="583.5" cy="666.5" rx="183.5" ry="266.5" fill="#442B85"/>
</g>
<circle opacity="0.05" cx="839" cy="573" r="430.5" stroke="white"/>
<circle opacity="0.1" cx="839" cy="573" r="364.731" stroke="white"/>
<circle opacity="0.1" cx="839" cy="573" r="284.268" stroke="white"/>
<circle opacity="0.1" cx="839.001" cy="573" r="201.007" stroke="white"/>
<circle opacity="0.1" cx="839" cy="573" r="127.541" stroke="white"/>
<path opacity="0.2" d="M524.859 370.38H1160.29L1004.64 539.548H681.918L524.859 370.38Z" fill="url(#paint0_linear_244_3666)"/>
<path opacity="0.6" d="M1036.15 460.378C1052.89 450.713 1058.8 429.125 1046.97 413.836C1024.01 384.152 994.793 359.684 961.238 342.266C917.286 319.451 867.726 309.682 818.403 314.112C769.081 318.542 722.054 336.986 682.871 367.268C643.688 397.55 613.983 438.408 597.261 485.02C580.539 531.632 577.497 582.055 588.495 630.339C599.492 678.624 624.069 722.756 659.328 757.529C694.586 792.302 739.054 816.266 787.487 826.593C824.462 834.477 862.569 834.162 899.165 825.845C918.015 821.561 927.175 801.139 920.396 783.037L852.023 600.448C846.024 584.427 852.485 566.417 867.301 557.863L1036.15 460.378Z" fill="url(#paint1_linear_244_3666)"/>
<circle cx="841.624" cy="572.685" r="186.902" transform="rotate(-30 841.624 572.685)" fill="url(#paint2_linear_244_3666)"/>
<circle cx="837.53" cy="565.591" r="119.31" transform="rotate(-30 837.53 565.591)" fill="#162345"/>
<circle cx="633.008" cy="480.213" r="4.62896" fill="#262B3E"/>
<circle cx="1121.42" cy="807.416" r="7.4163" stroke="#ABD7FF" stroke-width="2"/>
<g clip-path="url(#clip0_244_3666)">
<mask id="mask0_244_3666" style="mask-type:luminance" maskUnits="userSpaceOnUse" x="739" y="375" width="302" height="259">
<path d="M739.877 633.006L1040.1 375.493L766.028 563.817L739.877 633.006Z" fill="white"/>
</mask>
<g mask="url(#mask0_244_3666)">
<path d="M1040.1 375.493H739.877V633.006H1040.1V375.493Z" fill="#751480"/>
<path d="M738.213 599.658V469.457H728.105C748.62 429.446 778.329 393.406 815.036 363.132V373.832H1041.76V634.668H738.213V599.675V599.658Z" fill="#751480"/>
<path d="M738.214 599.658V470.453H730.949C751.314 430.741 780.79 394.967 817.215 364.942V373.832H1041.76V634.667H738.214V599.674V599.658Z" fill="#751480"/>
<path d="M738.214 599.658V471.45H733.809C754.024 432.038 783.267 396.546 819.409 366.754V373.832H1041.76V634.668H738.214V599.675V599.658Z" fill="#761580"/>
<path d="M738.213 599.658V472.447H736.65C756.7 433.35 785.727 398.124 821.603 368.548V373.815H1041.76V634.667H738.213V599.674V599.658Z" fill="#761580"/>
<path d="M738.214 599.658V488.166H732.479C734.69 483.198 737.034 478.296 739.527 473.444C759.427 434.646 788.221 399.703 823.815 370.359V373.832H1041.78V634.668H738.214V599.675V599.658Z" fill="#771680"/>
<path d="M738.213 599.658V503.984H729.252C733.059 493.915 737.431 484.045 742.369 474.425C762.119 435.926 790.68 401.265 825.991 372.154V373.816H1041.78V634.668H738.213V599.675V599.658Z" fill="#771680"/>
<path d="M738.214 599.658V504.748H732.195C735.969 494.746 740.308 484.976 745.213 475.421C764.797 437.238 793.142 402.843 828.17 373.965C832.542 370.359 837.031 366.837 841.619 363.397V373.832H1041.76V634.668H738.214V599.675V599.658Z" fill="#781780"/>
<path d="M738.213 599.658V505.496H735.154C738.895 495.576 743.201 485.872 748.072 476.401C767.506 438.517 795.618 404.405 830.364 375.759C834.703 372.17 839.158 368.681 843.697 365.274V373.832H1041.76V634.667H738.213V599.674V599.658Z" fill="#781780"/>
<path d="M738.214 599.658V536.368H728.738C733.809 515.914 741.29 496.208 750.932 477.415C770.2 439.847 798.097 406 832.56 377.587C836.865 374.031 841.271 370.575 845.793 367.186V373.832H1041.78V634.667H738.214V599.674V599.658Z" fill="#791881"/>
<path d="M738.214 599.658V536.867H731.764C736.801 516.596 744.216 497.022 753.775 478.396C772.893 441.126 800.557 407.562 834.737 379.382C839.01 375.859 843.382 372.42 847.854 369.063V373.816H1041.76V634.668H738.214V599.675V599.658Z" fill="#7A1881"/>
<path d="M727.191 599.658C727.191 514.335 769.136 437.088 836.931 381.176C841.17 377.686 845.509 374.264 849.948 370.94V373.798H1041.76V634.667H738.214V599.674H727.191V599.658Z" fill="#7A1981"/>
<path d="M730.283 599.658C730.283 515.05 771.878 438.435 839.125 382.988C847.537 376.059 856.332 369.462 865.509 363.215V373.832H1041.76V634.668H738.213V599.675H730.283V599.658Z" fill="#7B1981"/>
<path d="M733.375 599.658C733.375 515.748 774.621 439.78 841.303 384.798C849.632 377.919 858.376 371.373 867.47 365.191V373.832H1041.76V634.667H738.213V599.674H733.375V599.658Z" fill="#7C1A81"/>
<path d="M736.484 599.658C736.484 516.446 777.381 441.126 843.514 386.593C851.777 379.78 860.438 373.284 869.465 367.152V373.832H1041.78V634.667H740.69V645.551C739.759 640.566 738.995 635.531 738.363 630.464C737.116 620.328 736.484 610.059 736.484 599.658Z" fill="#7C1B81"/>
<path d="M739.577 599.658C739.577 517.16 780.125 442.472 845.693 388.404C853.889 381.642 862.467 375.211 871.428 369.13V373.832H1041.78V634.668H743.75V645.169C742.836 640.217 742.071 635.233 741.439 630.215C740.209 620.179 739.561 609.977 739.561 599.675L739.577 599.658Z" fill="#7D1B81"/>
<path d="M742.67 599.658C742.67 517.859 782.868 443.818 847.888 390.216C856.017 383.519 864.529 377.139 873.39 371.091V373.816H1041.77V634.668H746.809V644.77C745.895 639.869 745.13 634.917 744.532 629.949C743.302 619.996 742.67 609.894 742.67 599.658Z" fill="#7E1C81"/>
<path d="M745.762 599.658C745.762 518.572 785.628 445.164 850.065 392.009C858.128 385.363 866.557 379.049 875.351 373.051V373.798H1041.76V634.667H749.868V644.388C748.97 639.519 748.206 634.634 747.607 629.699C746.393 619.829 745.762 609.81 745.762 599.674V599.658Z" fill="#7F1D81"/>
<path d="M748.87 599.658C748.87 519.27 788.387 446.493 852.259 393.82C860.239 387.241 868.618 380.96 877.329 375.028C881.685 372.054 886.14 369.179 890.662 366.388V373.832H1041.76V634.667H752.926V644.005C752.029 639.187 751.281 634.335 750.682 629.433C749.485 619.646 748.853 609.71 748.853 599.674L748.87 599.658Z" fill="#7F1D82"/>
<path d="M751.962 599.658C751.962 519.985 791.13 447.839 854.453 395.632C862.367 389.102 870.662 382.887 879.307 377.005C883.63 374.064 888.035 371.206 892.524 368.432V373.815H1041.78V634.667H755.985V643.607C755.104 638.838 754.356 634.019 753.757 629.167C752.56 619.464 751.945 609.627 751.945 599.658H751.962Z" fill="#801E82"/>
<path d="M755.055 599.658C755.055 520.683 793.873 449.185 856.632 397.427C872.325 384.483 889.515 372.785 907.969 362.5V373.832H1041.76V634.668H759.061V643.225C758.18 638.489 757.449 633.72 756.85 628.918C755.67 619.298 755.055 609.544 755.055 599.675V599.658Z" fill="#811F82"/>
<path d="M758.147 599.658C758.147 521.397 796.616 450.531 858.826 399.238C874.37 386.41 891.41 374.812 909.697 364.627V373.832H1041.76V634.668H762.12V642.826C761.255 638.14 760.524 633.405 759.942 628.636C758.762 619.115 758.163 609.445 758.163 599.658H758.147Z" fill="#822082"/>
<path d="M761.256 599.658C761.256 522.095 799.376 451.877 861.021 401.049C876.432 388.338 893.306 376.84 911.427 366.754V373.832H1041.76V634.668H765.179V642.444C764.315 637.792 763.6 633.106 763.018 628.387C761.854 618.949 761.256 609.362 761.256 599.675V599.658Z" fill="#832082"/>
<path d="M764.348 599.658C764.348 522.793 802.119 453.223 863.215 402.844C878.493 390.249 895.217 378.867 913.172 368.864V373.816H1041.78V634.668H768.238V642.045C767.39 637.443 766.675 632.79 766.093 628.121C764.946 618.767 764.348 609.279 764.348 599.658Z" fill="#832182"/>
<path d="M767.439 599.658C767.439 523.507 804.878 454.568 865.392 404.654C880.521 392.175 897.096 380.893 914.884 370.974V373.815H1041.76V634.667H771.296V641.662C770.449 637.093 769.734 632.49 769.168 627.855C768.021 618.583 767.439 609.178 767.439 599.658Z" fill="#842282"/>
<path d="M770.548 599.658C770.548 524.205 807.638 455.897 867.603 406.465C882.598 394.103 899.007 382.921 916.646 373.101V373.815H1041.8V634.667H774.355V641.28C773.524 636.761 772.809 632.191 772.244 627.605C771.113 618.417 770.531 609.095 770.531 599.674L770.548 599.658Z" fill="#852282"/>
<path d="M773.642 599.658C773.642 524.92 810.382 457.244 869.782 408.26C884.628 396.014 900.904 384.931 918.36 375.211C922.732 372.785 927.171 370.426 931.676 368.166V373.815H1041.77V634.668H777.415V640.882C776.584 636.396 775.886 631.893 775.321 627.34C774.207 618.234 773.625 609.013 773.625 599.658H773.642Z" fill="#862382"/>
<path d="M776.732 599.658C776.732 525.618 813.124 458.589 871.959 410.071C886.672 397.941 902.781 386.975 920.087 377.338C928.732 372.519 937.676 368.033 946.903 363.912V373.832H1041.78V634.667H780.473V640.499C779.658 636.063 778.96 631.593 778.412 627.074C777.298 618.068 776.732 608.913 776.732 599.658Z" fill="#872483"/>
<path d="M779.826 599.658C779.826 526.332 815.869 459.935 874.155 411.882C888.718 399.869 904.678 389.002 921.818 379.448C930.38 374.679 939.241 370.226 948.368 366.139V373.832H1041.77V634.667H783.55V640.101C782.735 635.698 782.054 631.278 781.505 626.808C780.408 617.885 779.843 608.83 779.843 599.658H779.826Z" fill="#872583"/>
<path d="M782.934 599.658C782.934 527.03 818.627 461.281 876.348 413.677C890.778 401.78 906.588 391.013 923.545 381.558C932.024 376.839 940.802 372.436 949.846 368.382V373.799H1041.76V634.667H786.608V639.719C785.793 635.365 785.128 630.979 784.579 626.559C783.482 617.719 782.934 608.747 782.934 599.674V599.658Z" fill="#882683"/>
<path d="M786.025 599.658C786.025 527.728 821.386 462.627 878.542 415.488C892.839 403.707 908.483 393.04 925.291 383.685C933.686 378.999 942.381 374.646 951.325 370.642V373.815H1041.76V634.667H789.666V639.336C788.868 635.033 788.203 630.68 787.655 626.31C786.574 617.553 786.025 608.664 786.025 599.674V599.658Z" fill="#892683"/>
<path d="M789.119 599.658C789.119 528.442 824.131 463.973 880.721 417.299C894.869 405.635 910.363 395.084 927.005 385.812C935.317 381.176 943.928 376.856 952.789 372.901V373.832H1041.76V634.667H792.727V638.938C791.929 634.667 791.264 630.364 790.732 626.027C789.668 617.354 789.119 608.564 789.119 599.658Z" fill="#8A2783"/>
<path d="M792.211 599.658C792.211 529.141 826.873 465.303 882.915 419.094C910.928 395.981 944.294 377.288 981.35 364.378V373.832H1041.78V634.668H795.785V638.556C795.004 634.336 794.339 630.065 793.824 625.778C792.76 617.188 792.228 608.481 792.228 599.675L792.211 599.658Z" fill="#8B2883"/>
<path d="M795.32 599.658C795.32 529.855 829.634 466.648 885.11 420.905C912.857 398.025 945.874 379.515 982.548 366.721V373.832H1041.77V634.668H798.845V638.157C798.063 633.97 797.415 629.75 796.9 625.512C795.852 617.022 795.32 608.398 795.32 599.658Z" fill="#8C2983"/>
<path d="M798.412 599.658C798.412 530.553 832.376 467.994 887.304 422.716C914.768 400.069 947.453 381.758 983.761 369.08V373.816H1041.78V634.668H801.903V637.775C801.139 633.638 800.49 629.45 799.975 625.247C798.944 616.839 798.412 608.298 798.412 599.658Z" fill="#8D2A83"/>
<path d="M801.504 599.658C801.504 531.267 835.119 469.34 889.482 424.51C916.663 402.096 949.015 383.968 984.958 371.423V373.799H1041.76V634.668H804.962V637.393C804.197 633.289 803.565 629.168 803.05 624.997C802.019 616.673 801.504 608.215 801.504 599.675V599.658Z" fill="#8E2A84"/>
<path d="M804.596 599.658C804.596 531.965 837.862 470.686 891.659 426.322C918.558 404.139 950.594 386.194 986.154 373.782V373.815H1041.76V634.668H808.037V636.994C807.289 632.94 806.657 628.852 806.142 624.731C805.128 616.49 804.612 608.132 804.612 599.675L804.596 599.658Z" fill="#8F2B84"/>
<path d="M807.705 599.658C807.705 532.663 840.638 472.032 893.871 428.133C920.487 406.183 952.19 388.421 987.385 376.142C996.179 373.068 1005.21 370.343 1014.42 367.983V373.816H1041.78V634.668H811.096V636.612C810.348 632.591 809.733 628.553 809.218 624.466C808.22 616.307 807.705 608.033 807.705 599.658Z" fill="#8F2C84"/>
<path d="M810.797 599.658C810.797 533.378 843.382 473.378 896.049 429.927C922.382 408.21 953.753 390.631 988.565 378.485C1005.97 372.403 1024.26 367.701 1043.21 364.494L1041.76 373.799V634.668H814.155V636.213C813.424 632.242 812.809 628.237 812.31 624.2C811.312 616.124 810.814 607.949 810.814 599.658H810.797Z" fill="#902D84"/>
<path d="M813.889 599.658C813.889 534.075 846.124 474.707 898.242 431.738C924.293 410.254 955.332 392.857 989.778 380.844C1007 374.829 1025.09 370.177 1043.84 367.003L1041.76 373.815V634.668H817.214V635.831C816.482 631.893 815.867 627.938 815.385 623.95C814.404 615.975 813.905 607.866 813.905 599.675L813.889 599.658Z" fill="#912E84"/>
<path d="M816.998 599.658C816.998 534.79 848.884 476.053 900.438 433.549C926.223 412.298 956.912 395.084 990.992 383.203C1008.03 377.255 1025.92 372.652 1044.47 369.512L1041.78 373.815V634.667H820.273V635.448C819.558 631.56 818.943 627.639 818.461 623.684C817.48 615.792 816.998 607.766 816.998 599.658Z" fill="#922F84"/>
<path d="M820.091 599.658C820.091 535.487 851.628 477.398 902.633 435.344C928.135 414.324 958.492 397.31 992.206 385.546C1009.06 379.664 1026.75 375.094 1045.11 372.004L1041.78 373.815V634.667H823.333V635.049C822.618 631.211 822.019 627.323 821.537 623.418C820.573 615.609 820.074 607.683 820.074 599.658H820.091Z" fill="#932F84"/>
<path d="M823.182 599.658C823.182 536.202 854.37 478.745 904.809 437.155C930.029 416.369 960.053 399.537 993.402 387.906C1010.08 382.09 1027.57 377.571 1045.72 374.514H1041.78V634.668H828.851V645.983C825.143 631.029 823.182 615.526 823.182 599.675V599.658Z" fill="#943085"/>
<path d="M826.275 599.658C826.275 536.9 857.131 480.091 907.005 438.966C931.942 418.396 961.634 401.763 994.601 390.265C1011.09 384.516 1028.4 380.047 1046.34 377.022H1041.76V634.668H831.878V645.468C828.204 630.68 826.275 615.36 826.275 599.675V599.658Z" fill="#953185"/>
<path d="M829.383 599.658C829.383 537.614 859.889 481.436 909.198 440.761C933.853 420.423 963.212 403.973 995.813 392.608C1012.12 386.925 1029.23 382.506 1046.97 379.515H1041.78V634.668H834.919V644.953C831.295 630.331 829.383 615.177 829.383 599.675V599.658Z" fill="#963285"/>
<path d="M832.477 599.658C832.477 538.312 862.634 482.765 911.377 442.572C935.749 422.466 964.776 406.199 997.011 394.967C1013.12 389.351 1030.04 384.981 1047.58 382.023H1041.77V634.667H837.946V644.437C834.355 629.982 832.477 614.994 832.477 599.658Z" fill="#973385"/>
<path d="M835.568 599.658C835.568 539.01 865.376 484.111 913.572 444.382C937.661 424.51 966.355 408.426 998.225 397.326C1014.15 391.777 1030.88 387.457 1048.22 384.532H1041.78V634.667H840.988V643.922C837.447 629.633 835.585 614.828 835.585 599.658H835.568Z" fill="#983485"/>
<path d="M838.66 599.658C838.66 539.725 868.119 485.458 915.749 446.178C939.572 426.538 967.917 410.653 999.421 399.67C1015.16 394.17 1031.69 389.917 1048.83 387.025H1041.76V634.668H844.013V643.408C840.506 629.284 838.66 614.646 838.66 599.658Z" fill="#993585"/>
<path d="M841.769 599.658C841.769 540.423 870.878 486.803 917.96 447.989C941.5 428.581 969.513 412.879 1000.63 402.029C1016.2 396.596 1032.52 392.392 1049.46 389.534H1041.76V634.668H847.039V642.893C843.581 628.935 841.752 614.479 841.752 599.658H841.769Z" fill="#9A3585"/>
<path d="M844.861 599.658C844.861 541.137 873.622 488.149 920.138 449.8C943.396 430.625 971.093 415.106 1001.83 404.372C1017.21 399.005 1033.35 394.851 1050.08 392.026H1041.76V634.668H850.081V642.377C846.657 628.586 844.861 614.297 844.861 599.658Z" fill="#9B3685"/>
<path d="M847.953 599.658C847.953 541.835 876.382 489.495 922.332 451.594C945.308 432.652 972.672 417.315 1003.05 406.715C1018.24 401.414 1034.18 397.31 1050.71 394.519H1041.76V634.667H853.107V641.862C849.732 628.237 847.953 614.114 847.953 599.658Z" fill="#9C3786"/>
<path d="M851.045 599.658C851.045 542.549 879.124 490.84 924.51 453.405C947.202 434.695 974.234 419.542 1004.24 409.074C1019.25 403.84 1035 399.769 1051.32 397.027H1041.76V634.667H856.149V641.347C852.807 627.888 851.045 613.947 851.045 599.658Z" fill="#9D3886"/>
<path d="M854.154 599.658C854.154 543.248 881.884 492.17 926.721 455.217C949.131 436.74 975.831 421.769 1005.47 411.434C1020.29 406.267 1035.85 402.245 1051.97 399.537H1041.78V634.668H859.192V640.832C855.883 627.54 854.154 613.765 854.154 599.658Z" fill="#9E3986"/>
<path d="M857.246 599.658C857.246 543.945 884.627 493.516 928.899 457.011C951.026 438.75 977.393 423.995 1006.65 413.777C1021.28 408.676 1036.64 404.704 1052.57 402.029H1041.76V634.668H862.217V640.317C858.958 627.191 857.246 613.582 857.246 599.658Z" fill="#9F3A86"/>
<path d="M860.339 599.658C860.339 544.66 887.371 494.862 931.077 458.822C952.938 440.794 978.956 426.222 1007.85 416.136C1022.3 411.101 1037.46 407.18 1053.19 404.538H1041.75V634.668H865.226V639.802C862.001 626.841 860.322 613.416 860.322 599.658H860.339Z" fill="#A03B86"/>
<path d="M863.447 599.658C863.447 545.357 890.13 496.208 933.288 460.633C954.867 442.837 980.552 428.448 1009.08 418.495C1016.21 416.003 1023.53 413.793 1030.99 411.882C1034.73 410.918 1038.49 410.038 1042.31 409.24H1041.8V634.667H868.318V639.287C865.143 626.492 863.481 613.233 863.481 599.658H863.447Z" fill="#A13C86"/>
<path d="M866.539 599.658C866.539 546.072 892.873 497.553 935.465 462.427C956.761 444.864 982.114 430.658 1010.28 420.838C1017.31 418.379 1024.52 416.202 1031.91 414.308C1035.6 413.361 1039.32 412.497 1043.08 411.699H1041.78V634.667H871.327V638.771C868.185 626.143 866.539 613.05 866.539 599.658Z" fill="#A23D87"/>
<path d="M869.633 599.658C869.633 546.769 895.634 498.899 937.661 464.238C958.675 446.908 983.695 432.884 1011.49 423.197C1018.44 420.771 1025.56 418.628 1032.84 416.75C1036.48 415.82 1040.15 414.956 1043.86 414.175H1041.78V634.667H874.371V638.256C871.279 625.794 869.649 612.884 869.649 599.658H869.633Z" fill="#A33E87"/>
<path d="M872.724 599.658C872.724 547.485 898.376 500.246 939.838 466.05C960.569 448.953 985.256 435.112 1012.67 425.557C1019.52 423.165 1026.55 421.038 1033.72 419.21C1037.31 418.296 1040.93 417.432 1044.59 416.668H1041.75V634.668H877.362V637.742C874.303 625.446 872.707 612.702 872.707 599.658H872.724Z" fill="#A43F87"/>
<path d="M875.832 599.658C875.832 548.182 901.135 501.575 942.048 467.845C962.497 450.98 986.852 437.321 1013.9 427.9C1020.67 425.541 1027.6 423.447 1034.66 421.636C1038.21 420.722 1041.78 419.891 1045.39 419.127H1041.76V634.668H880.42V637.227C877.411 625.097 875.832 612.535 875.832 599.658Z" fill="#A54087"/>
<path d="M878.926 599.658C878.926 548.897 903.879 502.92 944.228 469.656C964.393 453.023 988.416 439.564 1015.1 430.259C1021.77 427.933 1028.6 425.873 1035.58 424.078C1039.07 423.181 1042.6 422.35 1046.15 421.603H1041.76V634.668H883.448V636.711C880.472 624.748 878.926 612.352 878.926 599.658Z" fill="#A64087"/>
<path d="M882.017 599.658C882.017 549.594 906.622 504.266 946.405 471.467C966.305 455.067 989.995 441.791 1016.3 432.619C1022.88 430.326 1029.61 428.282 1036.49 426.521C1039.94 425.64 1043.41 424.826 1046.93 424.078H1041.76V634.667H886.489V636.196C883.563 624.399 882.017 612.169 882.017 599.658Z" fill="#A74187"/>
<path d="M885.109 599.658C885.109 550.292 909.365 505.612 948.599 473.261C968.216 457.094 991.574 444 1017.49 434.961C1023.98 432.702 1030.63 430.691 1037.41 428.946C1040.8 428.082 1044.22 427.268 1047.7 426.537H1041.76V634.651H889.515V635.681C886.622 624.05 885.109 612.003 885.109 599.658Z" fill="#A84287"/>
<path d="M888.219 599.658C888.219 551.007 912.142 506.959 950.794 475.073C970.129 459.138 993.154 446.228 1018.71 437.322C1025.09 435.095 1031.64 433.118 1038.34 431.39C1041.68 430.526 1045.07 429.745 1048.48 429.014H1041.76V634.651H892.558V635.166C889.715 623.702 888.219 611.821 888.219 599.658Z" fill="#A94388"/>
<path d="M891.311 599.658C891.311 551.705 914.884 508.304 952.988 476.884C972.04 461.165 994.733 448.454 1019.92 439.664C1026.22 437.471 1032.67 435.51 1039.27 433.832C1042.56 432.985 1045.9 432.204 1049.26 431.489H1041.78V634.668H897.944V643.059C897.079 640.284 896.298 637.476 895.6 634.651C892.79 623.352 891.327 611.638 891.327 599.658H891.311Z" fill="#AA4488"/>
<path d="M894.402 599.658C894.402 552.419 917.627 509.65 955.166 478.678C973.935 463.192 996.295 450.664 1021.12 442.007C1027.32 439.847 1033.68 437.919 1040.18 436.258C1043.43 435.427 1046.72 434.663 1050.03 433.948H1041.76V634.651H900.936V642.411C900.088 639.686 899.307 636.911 898.625 634.136C895.865 623.003 894.402 611.472 894.402 599.658Z" fill="#AB4588"/>
<path d="M897.494 599.658C897.494 553.117 920.37 510.979 957.36 480.489C975.846 465.236 997.874 452.907 1022.33 444.366C1028.45 442.239 1034.71 440.345 1041.1 438.7C1044.29 437.886 1047.53 437.122 1050.79 436.424H1041.76V634.651H903.928V641.762C903.08 639.071 902.332 636.346 901.65 633.604C898.924 622.638 897.494 611.272 897.494 599.641V599.658Z" fill="#AC4688"/>
<path d="M900.604 599.658C900.604 553.831 923.13 512.325 959.555 482.3C977.775 467.279 999.454 455.133 1023.53 446.726C1029.54 444.632 1035.71 442.754 1042.01 441.143H1041.76V634.651H906.938V641.131C906.106 638.472 905.358 635.797 904.693 633.105C902.017 622.305 900.604 611.106 900.604 599.658Z" fill="#AD4788"/>
<path d="M903.695 599.658C903.695 554.529 925.873 513.671 961.749 484.094C979.687 469.306 1001.03 457.343 1024.74 449.068C1030.67 447.008 1036.74 445.163 1042.94 443.568H1041.76V634.651H909.93V640.499C909.115 637.891 908.383 635.249 907.718 632.59C905.075 621.956 903.695 610.94 903.695 599.658Z" fill="#AE4888"/>
<path d="M906.789 599.657C906.789 555.227 928.617 515.016 963.928 485.905C981.584 471.35 1002.6 459.569 1025.94 451.428C1031.77 449.4 1037.76 447.589 1043.86 446.011H1041.77V634.65H912.924V639.851C912.126 637.276 911.394 634.684 910.746 632.075C908.152 621.607 906.789 610.757 906.789 599.657Z" fill="#AF4988"/>
<path d="M909.897 599.658C909.897 555.942 931.393 516.363 966.122 487.717C983.495 473.394 1004.18 461.797 1027.15 453.788C1032.89 451.777 1038.77 449.999 1044.79 448.471H1041.76V634.668H915.932V639.237C915.151 636.712 914.436 634.153 913.788 631.577C911.227 621.275 909.881 610.608 909.881 599.675L909.897 599.658Z" fill="#B04A89"/>
<path d="M912.988 599.658C912.988 556.64 934.135 517.709 968.315 489.512C985.406 475.421 1005.75 464.006 1028.36 456.13C1034.02 454.153 1039.8 452.409 1045.72 450.896H1041.78V634.651H921.484V645.966C919.638 641.081 918.092 636.113 916.829 631.045C914.318 620.91 912.988 610.409 912.988 599.658Z" fill="#B24B89"/>
<path d="M916.082 599.658C916.082 557.354 936.88 519.055 970.495 491.323C987.302 477.465 1007.32 466.249 1029.55 458.49C1035.1 456.546 1040.8 454.834 1046.62 453.339H1041.76V634.668H924.428V645.219C922.616 640.417 921.086 635.515 919.856 630.53C917.379 620.561 916.082 610.226 916.082 599.658Z" fill="#B34C89"/>
<path d="M919.174 599.658C919.174 558.052 939.622 520.384 972.689 493.134C989.214 479.509 1008.9 468.476 1030.76 460.849C1036.23 458.938 1041.83 457.243 1047.55 455.781H1041.76V634.667H927.386V644.471C925.607 639.752 924.094 634.933 922.881 630.032C920.454 620.228 919.174 610.076 919.174 599.674V599.658Z" fill="#B44D89"/>
<path d="M922.283 599.658C922.283 558.766 942.382 521.729 974.884 494.928C991.143 481.519 1010.48 470.686 1031.97 463.192C1037.34 461.314 1042.85 459.653 1048.48 458.207H1041.78V634.651H930.363V643.69C928.617 639.054 927.138 634.318 925.941 629.5C923.547 619.863 922.3 609.876 922.3 599.658H922.283Z" fill="#B54E89"/>
<path d="M925.374 599.658C925.374 559.464 945.124 523.075 977.077 496.739C993.053 483.563 1012.07 472.912 1033.19 465.551C1038.47 463.707 1043.88 462.078 1049.39 460.649H1041.76V634.651H933.304V642.925C931.592 638.372 930.129 633.72 928.948 628.985C926.604 619.513 925.357 609.694 925.357 599.658H925.374Z" fill="#B64F89"/>
<path d="M928.467 599.658C928.467 560.179 947.884 524.422 979.255 498.551C994.949 485.607 1013.64 475.139 1034.38 467.911C1039.57 466.1 1044.89 464.488 1050.31 463.109H1041.76V634.685H936.264V642.212C934.568 637.742 933.138 633.156 931.991 628.503C929.68 619.199 928.467 609.561 928.467 599.692V599.658Z" fill="#B7508A"/>
<path d="M931.559 599.658C931.559 560.877 950.627 525.768 981.449 500.345C996.86 487.634 1015.21 477.349 1035.58 470.254C1040.67 468.476 1045.89 466.898 1051.22 465.535H1041.76V634.668H939.223V641.43C937.56 637.027 936.164 632.541 935.033 627.972C932.772 618.833 931.575 609.362 931.575 599.675L931.559 599.658Z" fill="#B8518A"/>
<path d="M934.668 599.658C934.668 561.575 953.387 527.113 983.644 502.156C998.773 489.678 1016.79 479.575 1036.79 472.613C1041.8 470.869 1046.92 469.323 1052.15 467.978H1041.76V634.668H942.182V640.666C940.553 636.346 939.173 631.943 938.059 627.456C935.832 618.484 934.668 609.179 934.668 599.675V599.658Z" fill="#B9528A"/>
<path d="M937.76 599.658C937.76 562.289 956.13 528.459 985.822 503.967C1000.67 491.721 1018.36 481.818 1037.99 474.956C1042.89 473.245 1047.93 471.716 1053.07 470.403H1041.76V634.651H945.141V639.902C943.545 635.665 942.182 631.344 941.101 626.925C938.907 618.118 937.76 608.996 937.76 599.658Z" fill="#BA538A"/>
<path d="M940.852 599.658C940.852 562.987 958.873 529.788 988.016 505.762C1002.58 493.749 1019.94 484.028 1039.2 477.299C1041.61 476.452 1044.04 475.671 1046.52 474.923H1041.78V634.651H948.1V639.137C946.537 634.983 945.207 630.73 944.127 626.41C941.982 617.769 940.852 608.813 940.852 599.641V599.658Z" fill="#BB548A"/>
<path d="M943.944 599.658C943.944 563.701 961.616 531.134 990.194 507.573C1004.49 495.792 1021.5 486.255 1040.4 479.658C1042.76 478.827 1045.16 478.063 1047.57 477.332H1041.75V634.651H951.026V638.373C949.48 634.302 948.184 630.131 947.136 625.894C945.025 617.42 943.928 608.647 943.928 599.641L943.944 599.658Z" fill="#BD558A"/>
<path d="M947.054 599.658C947.054 564.399 964.377 532.48 992.406 509.384C1006.42 497.836 1023.1 488.481 1041.62 482.018C1043.93 481.203 1046.27 480.456 1048.65 479.725H1041.76V634.651H954.003V637.608C952.49 633.604 951.227 629.533 950.179 625.379C948.118 617.071 947.037 608.464 947.037 599.641L947.054 599.658Z" fill="#BE568B"/>
<path d="M950.145 599.658C950.145 565.113 967.135 533.826 994.582 511.178C1008.31 499.863 1024.66 490.691 1042.81 484.36H1041.76V634.651H956.961V636.861C955.481 632.939 954.234 628.935 953.22 624.864C951.192 616.722 950.145 608.281 950.145 599.641V599.658Z" fill="#BF578B"/>
<path d="M953.238 599.658C953.238 565.811 969.88 535.172 996.778 512.989C1010.23 501.907 1026.24 492.917 1044.03 486.72H1041.76V634.651H959.921V636.096C958.475 632.258 957.245 628.337 956.264 624.349C954.286 616.373 953.238 608.115 953.238 599.641V599.658Z" fill="#C0588B"/>
<path d="M956.346 599.658C956.346 566.509 972.638 536.517 998.971 514.8C1012.14 503.934 1027.82 495.161 1045.24 489.079H1041.78V634.667H962.896V635.348C961.483 631.593 960.286 627.755 959.305 623.85C957.36 616.041 956.346 607.949 956.346 599.658Z" fill="#C1598B"/>
<path d="M959.439 599.657C959.439 567.223 975.383 537.863 1001.17 516.595C1014.05 505.961 1029.4 497.37 1046.45 491.422H1041.78V634.65H970.644V645.368C963.429 631.311 959.456 615.858 959.456 599.641L959.439 599.657Z" fill="#C25A8B"/>
<path d="M962.531 599.658C962.531 567.922 978.125 539.193 1003.34 518.407C1015.95 508.005 1030.98 499.598 1047.63 493.782H1041.76V634.668H973.487V644.388C966.438 630.647 962.531 615.527 962.531 599.658Z" fill="#C35B8B"/>
<path d="M965.622 599.658C965.622 568.637 980.867 540.539 1005.52 520.218C1017.86 510.049 1032.54 501.824 1048.83 496.142H1041.75V634.668H976.312V643.408C969.413 629.966 965.605 615.194 965.605 599.675L965.622 599.658Z" fill="#C45C8C"/>
<path d="M968.732 599.658C968.732 569.334 983.628 541.885 1007.73 522.012C1019.79 512.076 1034.13 504.034 1050.06 498.484H1041.78V634.651H979.206V642.394C972.473 629.251 968.749 614.812 968.749 599.658H968.732Z" fill="#C65D8C"/>
<path d="M971.823 599.658C971.823 570.049 986.387 543.231 1009.91 523.823C1021.68 514.12 1035.7 506.261 1051.26 500.844H1041.76V634.668H982.031V641.414C975.447 628.586 971.807 614.479 971.807 599.675L971.823 599.658Z" fill="#C75E8C"/>
<path d="M974.916 599.658C974.916 570.747 989.13 544.577 1012.11 525.635C1023.59 516.163 1037.28 508.504 1052.45 503.203H1041.76V634.668H984.891V640.417C978.474 627.888 974.916 614.114 974.916 599.658Z" fill="#C85F8C"/>
<path d="M978.008 599.658C978.008 571.461 991.873 545.923 1014.28 527.429C1019.89 522.81 1026.02 518.623 1032.62 514.951C1035.91 513.123 1039.32 511.412 1042.83 509.833H1041.76V634.651H987.75V639.403C981.482 627.191 978.008 613.748 978.008 599.642V599.658Z" fill="#C9608C"/>
<path d="M981.117 599.658C981.117 572.159 994.633 547.269 1016.49 529.24C1021.96 524.737 1027.95 520.667 1034.37 517.078C1037.57 515.283 1040.9 513.621 1044.32 512.093H1041.78V634.668H990.61V638.423C984.492 626.509 981.117 613.416 981.117 599.658Z" fill="#CA618C"/>
<path d="M984.209 599.658C984.209 572.857 997.376 548.598 1018.67 531.051C1023.99 526.665 1029.83 522.694 1036.09 519.204C1039.22 517.46 1042.46 515.831 1045.8 514.336H1041.78V634.651H993.469V637.426C987.517 625.812 984.226 613.051 984.226 599.658H984.209Z" fill="#CB628D"/>
<path d="M987.301 599.658C987.301 573.571 1000.12 549.944 1020.87 532.846C1026.05 528.576 1031.72 524.704 1037.82 521.315C1040.87 519.62 1044.02 518.041 1047.27 516.579H1041.76V634.651H996.311V636.429C990.509 625.13 987.301 612.702 987.301 599.658Z" fill="#CC638D"/>
<path d="M990.394 599.658C990.394 574.269 1002.88 551.29 1023.04 534.657C1028.08 530.503 1033.62 526.731 1039.54 523.425C1042.5 521.78 1045.57 520.235 1048.73 518.822H1041.75V634.651H999.138V635.432C993.502 624.433 990.377 612.336 990.377 599.658H990.394Z" fill="#CE648D"/>
<path d="M993.502 599.658C993.502 574.984 1005.64 552.636 1025.24 536.468C1030.14 532.431 1035.51 528.775 1041.28 525.552C1044.16 523.94 1047.15 522.445 1050.23 521.082H1041.78V634.668H1006.59V642.261C1004.92 639.736 1003.39 637.127 1002.01 634.452C996.528 623.768 993.502 612.004 993.502 599.658Z" fill="#CF668D"/>
<path d="M996.595 599.658C996.595 575.681 1008.38 553.981 1027.43 538.262C1032.21 534.341 1037.41 530.785 1043.01 527.661H1041.76V634.651H1009.3V641.031C1007.68 638.572 1006.19 636.046 1004.86 633.438C999.537 623.053 996.578 611.638 996.578 599.641L996.595 599.658Z" fill="#D0678D"/>
<path d="M999.688 599.658C999.688 576.396 1011.13 555.327 1029.61 540.073C1034.23 536.268 1039.3 532.812 1044.74 529.788H1041.76V634.667H1012.02V639.835C1010.44 637.442 1009.01 634.983 1007.72 632.474C1002.55 622.388 999.688 611.305 999.688 599.674V599.658Z" fill="#D1688D"/>
<path d="M1002.8 599.658C1002.8 577.094 1013.89 556.673 1031.82 541.885C1036.31 538.196 1041.22 534.839 1046.49 531.915H1041.78V634.667H1019.72V645.351C1016.16 640.998 1013.09 636.362 1010.58 631.477C1005.56 621.707 1002.8 610.957 1002.8 599.674V599.658Z" fill="#D2698E"/>
<path d="M1005.89 599.658C1005.89 577.792 1016.63 558.002 1034 543.679C1038.34 540.09 1043.09 536.85 1048.22 534.009H1041.78V634.651H1022.3V643.906C1018.84 639.702 1015.88 635.199 1013.45 630.464C1008.6 620.993 1005.91 610.575 1005.91 599.658H1005.89Z" fill="#D36A8E"/>
<path d="M1008.98 599.658C1008.98 578.506 1019.37 559.348 1036.19 545.49C1040.4 542.018 1045.01 538.894 1049.94 536.136H1041.76V634.651H1024.84V642.477C1021.5 638.406 1018.62 634.053 1016.28 629.467C1011.57 620.295 1008.98 610.226 1008.98 599.642V599.658Z" fill="#D56B8E"/>
<path d="M1012.07 599.658C1012.07 579.204 1022.13 560.694 1038.37 547.302C1042.43 543.945 1046.88 540.921 1051.66 538.263H1041.75V634.668H1027.4V641.065C1024.18 637.127 1021.4 632.923 1019.12 628.487C1014.58 619.631 1012.07 609.894 1012.07 599.658Z" fill="#D66C8E"/>
<path d="M1015.18 599.658C1015.18 579.919 1024.89 562.04 1040.58 549.096C1044.51 545.856 1048.8 542.932 1053.42 540.373H1041.78V634.668H1029.99V639.636C1026.89 635.831 1024.19 631.76 1022 627.49C1017.61 618.933 1015.18 609.528 1015.18 599.658Z" fill="#D76D8E"/>
<path d="M1018.27 599.658C1018.27 580.616 1027.63 563.386 1042.76 550.907H1041.76V634.651H1032.55V638.19C1029.54 634.518 1026.97 630.597 1024.84 626.476C1020.62 618.235 1018.27 609.162 1018.27 599.642V599.658Z" fill="#D86E8E"/>
<path d="M1021.37 599.658C1021.37 581.33 1030.38 564.731 1044.94 552.718H1041.76V634.667H1035.11V636.777C1032.22 633.238 1029.73 629.466 1027.68 625.495C1023.61 617.553 1021.35 608.813 1021.35 599.658H1021.37Z" fill="#D96F8F"/>
<path d="M1024.46 599.658C1024.46 582.029 1033.12 566.077 1047.13 554.513H1041.76V634.651L1047.13 644.787C1033.12 633.239 1024.46 617.271 1024.46 599.641V599.658Z" fill="#DB708F"/>
<path d="M1027.57 599.658C1027.57 582.743 1035.88 567.407 1049.33 556.324H1041.76V634.651L1049.33 642.976C1035.88 631.893 1027.57 616.557 1027.57 599.642V599.658Z" fill="#DC718F"/>
<path d="M1030.66 599.658C1030.66 583.441 1038.64 568.752 1051.52 558.135H1041.78V634.667L1051.52 641.197C1038.64 630.563 1030.66 615.891 1030.66 599.674V599.658Z" fill="#DD728F"/>
<path d="M1033.75 599.658C1033.75 591.898 1035.66 584.504 1039.11 577.791C1040.83 574.435 1042.95 571.245 1045.39 568.254H1041.77V631.078H1045.39C1042.95 628.088 1040.83 624.897 1039.11 621.541C1035.66 614.828 1033.75 607.434 1033.75 599.674V599.658Z" fill="#DE748F"/>
<path d="M1036.84 599.658C1036.84 592.247 1038.66 585.202 1041.95 578.788H1041.75V620.527H1041.95C1038.66 614.113 1036.84 607.052 1036.84 599.658Z" fill="#DF758F"/>
<path d="M1039.95 599.658C1039.95 592.613 1041.68 585.883 1044.82 579.785H1041.78V619.547H1044.82C1041.68 613.432 1039.95 606.719 1039.95 599.674V599.658Z" fill="#E17690"/>
</g>
<path d="M1040.1 375.493L713.726 533.643L606.496 471.765L1040.1 375.493Z" fill="url(#paint3_linear_244_3666)"/>
<path d="M1040.1 375.493L766.027 563.817L873.257 625.695L1040.1 375.493Z" fill="url(#paint4_linear_244_3666)"/>
<path d="M766.026 563.817L1040.1 375.493L713.725 533.643L739.875 633.006L766.026 563.817Z" fill="url(#paint5_linear_244_3666)"/>
<path d="M708.955 530.885L1040.1 375.493L713.726 533.643L708.955 530.885Z" fill="#FCC29F"/>
<path d="M766.027 563.817L1040.1 375.493L770.317 566.293L766.027 563.817Z" fill="#FBA999"/>
<path opacity="0.4" d="M963.895 628.803L669.238 694.219L738.863 734.396L742.105 736.274L781.023 733.466L799.792 769.556L850.514 798.833L963.895 628.803Z" fill="#16151C"/>
</g>
<path d="M1108.02 302.269C1110.23 304.416 1109.28 308.147 1106.32 308.985L1076.17 317.512C1073.21 318.35 1070.45 315.667 1071.2 312.682L1078.9 282.306C1079.65 279.321 1083.36 278.274 1085.56 280.421L1108.02 302.269Z" fill="#D3DAE8"/>
<mask id="path-134-inside-1_244_3666" fill="white">
<rect x="465.344" y="776" width="16.0435" height="16.0435" rx="2" transform="rotate(45 465.344 776)"/>
</mask>
<rect x="465.344" y="776" width="16.0435" height="16.0435" rx="2" transform="rotate(45 465.344 776)" stroke="#0044F4" stroke-width="10" mask="url(#path-134-inside-1_244_3666)"/>
<defs>
<filter id="filter0_f_244_3666" x="0" y="0" width="1167" height="1333" filterUnits="userSpaceOnUse" color-interpolation-filters="sRGB">
<feFlood flood-opacity="0" result="BackgroundImageFix"/>
<feBlend mode="normal" in="SourceGraphic" in2="BackgroundImageFix" result="shape"/>
<feGaussianBlur stdDeviation="200" result="effect1_foregroundBlur_244_3666"/>
</filter>
<linearGradient id="paint0_linear_244_3666" x1="858.749" y1="539.548" x2="858.749" y2="370.38" gradientUnits="userSpaceOnUse">
<stop stop-color="#3C7EBB"/>
<stop offset="0.194077" stop-color="#3C7EBB" stop-opacity="0.08"/>
<stop offset="0.373796" stop-color="#3C7EBB" stop-opacity="0.22"/>
<stop offset="0.689967" stop-color="#3C7EBB" stop-opacity="0.14"/>
<stop offset="1" stop-color="#3C7EBB" stop-opacity="0"/>
</linearGradient>
<linearGradient id="paint1_linear_244_3666" x1="923.09" y1="332.685" x2="840.086" y2="827.782" gradientUnits="userSpaceOnUse">
<stop stop-color="#445061"/>
<stop offset="0.474289" stop-color="#445061" stop-opacity="0.15"/>
<stop offset="0.799177" stop-color="#445061" stop-opacity="0.04"/>
<stop offset="1" stop-color="#445061" stop-opacity="0"/>
</linearGradient>
<linearGradient id="paint2_linear_244_3666" x1="848.283" y1="385.783" x2="935.297" y2="736.503" gradientUnits="userSpaceOnUse">
<stop stop-color="#ABD7FF"/>
<stop offset="0.619698" stop-color="#ABD7FF" stop-opacity="0.245173"/>
<stop offset="1" stop-color="#ABD7FF" stop-opacity="0"/>
</linearGradient>
<linearGradient id="paint3_linear_244_3666" x1="732.061" y1="367.221" x2="515.898" y2="147.428" gradientUnits="userSpaceOnUse">
<stop stop-color="#FCBA9D"/>
<stop offset="0.56" stop-color="#ED8493"/>
<stop offset="1" stop-color="#E4608D"/>
</linearGradient>
<linearGradient id="paint4_linear_244_3666" x1="888.98" y1="484.364" x2="709.139" y2="384.617" gradientUnits="userSpaceOnUse">
<stop stop-color="#FCBA9D"/>
<stop offset="0.56" stop-color="#ED8493"/>
<stop offset="1" stop-color="#E4608D"/>
</linearGradient>
<linearGradient id="paint5_linear_244_3666" x1="867.999" y1="556.619" x2="687.391" y2="293.08" gradientUnits="userSpaceOnUse">
<stop stop-color="#F88B93"/>
<stop offset="0.21" stop-color="#D76D8E"/>
<stop offset="0.57" stop-color="#A23D86"/>
<stop offset="0.85" stop-color="#811F81"/>
<stop offset="1" stop-color="#751480"/>
</linearGradient>
<clipPath id="clip0_244_3666">
<rect width="446.906" height="447.747" fill="white" transform="translate(599.764 351.086)"/>
</clipPath>
</defs>
</svg>
