<svg width="58" height="58" viewBox="0 0 58 58" fill="none" xmlns="http://www.w3.org/2000/svg">
<g id="Frame">
<rect width="58" height="58" rx="29" fill="#222429"/>
<g id="Group">
<path id="Vector" d="M16.6379 18.4531H41.3634C42.8201 18.4531 44 19.6403 44 21.0897V36.9094C44 38.3674 42.8115 39.546 41.3634 39.546H16.6379C15.1933 39.546 14.0013 38.3724 14.0013 36.9094V21.0897C14.0013 19.6429 15.1765 18.4531 16.6379 18.4531ZM17.0071 20.2109L27.1363 30.2866C27.6343 30.7846 28.2964 31.0588 29.0007 31.0588C29.7049 31.0588 30.367 30.7846 30.8667 30.285L40.9942 20.2109H17.0071ZM42.2423 36.5516V21.4486L34.6466 29.0042L42.2423 36.5516ZM40.993 37.7882L33.4004 30.2438L32.1079 31.5295C31.2779 32.3595 30.1744 32.8166 29.0007 32.8166C27.8269 32.8166 26.7234 32.3595 25.895 31.5312L24.6009 30.2438L17.0083 37.7882H40.993ZM15.759 36.5516L23.3547 29.0042L15.759 21.4486V36.5516Z" fill="#C79B67"/>
</g>
</g>
</svg>
