<svg width="38" height="50" viewBox="0 0 38 50" fill="none" xmlns="http://www.w3.org/2000/svg">
<path d="M8.7588 12.3734L8.74961 12.3735C8.73838 12.3736 8.71933 12.374 8.69296 12.3749C8.64019 12.3766 8.55834 12.3801 8.45159 12.3875C8.23776 12.4022 7.92601 12.4322 7.54942 12.4928C6.79135 12.6148 5.79654 12.8569 4.81433 13.331C3.83524 13.8037 2.8917 14.4953 2.19152 15.5094C1.49687 16.5154 1 17.8985 1 19.8305C1 23.7123 2.73574 28.2037 4.76371 31.8383C4.58298 31.1671 4.49146 30.4467 4.6316 29.7612C4.78919 28.9902 5.22959 28.3246 5.99041 27.883C6.70781 27.4667 7.64196 27.2878 8.75707 27.2876C8.75722 27.2876 8.75737 27.2876 8.75752 27.2876L8.75825 27.2876M8.7588 12.3734L8.75916 28.2876C8.75916 27.2876 8.75869 27.2876 8.75825 27.2876M8.7588 12.3734L8.76611 12.3735C8.77594 12.3736 8.79309 12.374 8.81707 12.3748C8.86507 12.3765 8.94023 12.3799 9.03864 12.3872C9.23581 12.4017 9.52423 12.4312 9.87307 12.4911C10.5754 12.6116 11.4971 12.8509 12.4072 13.3195C13.3128 13.7859 14.1923 14.4712 14.8483 15.4846C15.5012 16.4932 15.9709 17.8852 15.9709 19.8305C15.9709 21.7757 15.5012 23.1678 14.8483 24.1764C14.1923 25.1898 13.3128 25.8751 12.4072 26.3414C11.4971 26.8101 10.5754 27.0493 9.87307 27.1699C9.52423 27.2298 9.23581 27.2593 9.03864 27.2738C8.94023 27.281 8.86507 27.2845 8.81707 27.2861C8.79309 27.287 8.77594 27.2873 8.76611 27.2875L8.75916 27.2876M8.7588 12.3734L8.75916 27.2876M8.75825 27.2876C8.75855 27.2876 8.75886 27.2876 8.75916 27.2876M8.75825 27.2876H8.75916M29.7879 12L29.7787 12.0001C29.7675 12.0003 29.7485 12.0007 29.7221 12.0015C29.6693 12.0032 29.5875 12.0068 29.4807 12.0141C29.2669 12.0289 28.9551 12.0588 28.5785 12.1194C27.8205 12.2414 26.8257 12.4835 25.8435 12.9577C24.8644 13.4304 23.9208 14.122 23.2206 15.136C22.526 16.1421 22.0291 17.5252 22.0291 19.4571C22.0291 23.339 23.7649 27.8304 25.7928 31.465C25.6121 30.7938 25.5206 30.0733 25.6607 29.3878C25.8183 28.6169 26.2587 27.9513 27.0195 27.5097C27.7369 27.0933 28.671 26.9145 29.7861 26.9143C29.7863 26.9143 29.7865 26.9143 29.7866 26.9143L29.7874 26.9143M29.7879 12L29.7883 27.9143C29.7883 26.9143 29.7878 26.9143 29.7874 26.9143M29.7879 12L29.7952 12.0001C29.8051 12.0003 29.8222 12.0007 29.8462 12.0015C29.8942 12.0031 29.9694 12.0066 30.0678 12.0138C30.2649 12.0283 30.5534 12.0579 30.9022 12.1177C31.6045 12.2383 32.5262 12.4775 33.4363 12.9462C34.3419 13.4125 35.2215 14.0979 35.8774 15.1113C36.5303 16.1198 37 17.5119 37 19.4571C37 21.4024 36.5303 22.7945 35.8774 23.803C35.2215 24.8164 34.3419 25.5018 33.4363 25.9681C32.5262 26.4368 31.6045 26.676 30.9022 26.7966C30.5534 26.8564 30.2649 26.886 30.0678 26.9005C29.9694 26.9077 29.8942 26.9112 29.8462 26.9128C29.8222 26.9136 29.8051 26.914 29.7952 26.9142L29.7883 26.9143M29.7879 12L29.7883 26.9143M29.7874 26.9143C29.7877 26.9143 29.788 26.9143 29.7883 26.9143M29.7874 26.9143H29.7883" fill="#231F20" stroke="#231F20" stroke-width="2"/>
</svg>
