<svg width="238" height="195" viewBox="0 0 238 195" fill="none" xmlns="http://www.w3.org/2000/svg">
<path d="M117.285 69.8989C116.677 69.8989 116.097 69.6093 115.727 69.1092L110.817 62.423L102.263 63.5549C101.577 63.6339 100.89 63.3706 100.468 62.8178C100.045 62.265 99.9661 61.528 100.23 60.8962L103.662 52.8938L98.3821 45.9707C97.9597 45.4179 97.8541 44.6809 98.1445 44.0491C98.4085 43.4173 99.0157 42.9698 99.7021 42.8909L108.282 41.9169L111.424 34.2567C111.688 33.5986 112.295 33.1511 112.981 33.0722C113.668 32.9932 114.354 33.2827 114.777 33.8355L119.687 40.5217L128.241 39.3898C128.927 39.3108 129.613 39.5741 130.036 40.1269C130.458 40.6797 130.537 41.4167 130.273 42.0485L126.841 50.0509L132.121 56.974C132.544 57.5268 132.649 58.2639 132.359 58.8956C132.095 59.5274 131.488 59.9749 130.801 60.0539L122.221 61.0278L119.08 68.688C118.816 69.3461 118.209 69.7936 117.522 69.8726C117.443 69.8989 117.364 69.8989 117.285 69.8989ZM111.688 58.4481C112.295 58.4481 112.876 58.7377 113.245 59.2378L116.783 64.0551L119.027 58.5271C119.291 57.869 119.898 57.4215 120.611 57.3425L126.947 56.6055L123.04 51.4987C122.617 50.9459 122.512 50.2088 122.802 49.5771L125.337 43.6806L119.027 44.5229C118.314 44.6019 117.628 44.3123 117.205 43.7595L113.668 38.9423L111.424 44.4703C111.16 45.1284 110.553 45.5759 109.84 45.6548L103.504 46.3919L107.411 51.4987C107.833 52.0515 107.939 52.7885 107.649 53.4203L105.114 59.3168L111.424 58.4745C111.529 58.4481 111.609 58.4481 111.688 58.4481Z" fill="black"/>
<path d="M177.186 155.03C176.552 155.03 175.972 154.714 175.602 154.214L168.052 143.395L154.852 144C154.112 144.026 153.426 143.631 153.056 143C152.713 142.342 152.74 141.552 153.188 140.946L161.214 129.733L157.122 117.203C156.884 116.518 157.069 115.755 157.597 115.255C158.099 114.728 158.864 114.544 159.551 114.781L171.8 118.65L182.624 110.043C183.205 109.569 184.024 109.49 184.684 109.832C185.37 110.174 185.766 110.859 185.766 111.596L185.502 125.389L196.036 132.733C196.643 133.155 196.933 133.865 196.854 134.576C196.748 135.287 196.273 135.892 195.587 136.129L183.126 140.525L179.087 153.713C178.876 154.424 178.268 154.951 177.529 155.056C177.371 155.03 177.265 155.03 177.186 155.03ZM169.028 139.472C169.662 139.472 170.243 139.788 170.612 140.288L176.5 148.712L179.668 138.393C179.852 137.814 180.301 137.34 180.882 137.13L190.729 133.655L182.44 127.89C181.912 127.521 181.595 126.916 181.621 126.258L181.832 115.544L173.437 122.23C172.936 122.625 172.249 122.757 171.642 122.573L162.006 119.519L165.227 129.417C165.412 129.996 165.306 130.628 164.963 131.128L158.68 139.893L168.976 139.42C168.949 139.472 168.976 139.472 169.028 139.472Z" fill="black"/>
<path d="M2.12771 194.436C1.52051 194.436 0.966106 194.173 0.596506 193.673C0.121306 193.041 0.0685051 192.199 0.464505 191.514L73.1173 69.8464C73.4077 69.3463 73.9093 69.0304 74.4637 68.9251C75.0181 68.8198 75.5989 68.9777 76.0477 69.3463C76.1533 69.4516 87.1357 78.7701 100.309 93.9589C112.48 107.963 129.138 129.996 139.276 155.372C139.487 155.872 139.461 156.451 139.197 156.951C138.959 157.451 138.51 157.82 137.982 157.952L2.62931 194.357C2.47091 194.41 2.31251 194.436 2.12771 194.436ZM75.2557 73.8213L6.24611 189.382L134.867 154.793C129.138 141.026 118.103 120.309 97.4317 96.5386C87.4789 85.0878 78.8197 77.0328 75.2557 73.8213Z" fill="black"/>
<path d="M184.816 74.1371C184.684 74.1371 184.525 74.1107 184.393 74.0844C183.707 73.9265 183.153 73.4 182.968 72.7156L178.533 57.1057L166.336 46.3393C165.808 45.8655 165.57 45.1548 165.729 44.4703C165.887 43.7859 166.415 43.2331 167.101 43.0489L182.757 38.6265L193.554 26.465C194.029 25.9385 194.742 25.7016 195.429 25.8595C196.115 26.0175 196.669 26.544 196.854 27.2284L201.289 42.8383L213.486 53.6046C214.014 54.0785 214.252 54.7892 214.093 55.4736C213.935 56.158 213.407 56.7108 212.721 56.8951L197.065 61.3175L186.268 73.479C185.898 73.9265 185.37 74.1371 184.816 74.1371ZM171.563 45.8128L181.516 54.6049C181.806 54.8419 181.991 55.1577 182.097 55.5263L185.713 68.2932L194.531 58.3692C194.769 58.0797 195.085 57.8954 195.455 57.7901L208.259 54.1838L198.306 45.3917C198.016 45.1548 197.831 44.8389 197.725 44.4703L194.109 31.7034L185.291 41.6274C185.053 41.917 184.737 42.1012 184.367 42.2065L171.563 45.8128Z" fill="black"/>
<path d="M132.332 93.4322C133.151 93.011 133.943 92.6162 134.788 92.2476C135.184 92.0634 135.553 91.9054 135.949 91.7212C136.055 91.6685 136.134 91.6422 136.24 91.5896C136.583 91.4316 136.24 91.5896 136.187 91.6159C136.424 91.5106 136.688 91.4053 136.926 91.3C138.616 90.6156 140.305 90.0101 142.048 89.4837C143.79 88.9572 145.532 88.4834 147.301 88.1148C148.172 87.9306 149.017 87.7726 149.888 87.6147C150.337 87.5357 150.786 87.4567 151.235 87.4041C151.446 87.3778 151.657 87.3515 151.868 87.2988C151.974 87.2725 152.106 87.2988 152.185 87.2462C154.218 86.9829 156.277 86.825 158.31 86.7723C159.419 86.746 160.475 85.8247 160.422 84.6665C160.369 83.5609 159.498 82.5342 158.31 82.5606C150.786 82.7975 143.262 84.2979 136.266 87.0619C134.207 87.8779 132.2 88.7729 130.22 89.7732C129.244 90.2734 128.874 91.7475 129.455 92.6425C130.115 93.6955 131.303 93.985 132.332 93.4322Z" fill="black"/>
<path d="M201.527 107.252C203.639 107.331 205.751 107.436 207.863 107.621C208.945 107.726 210.001 107.884 211.084 107.963C210.371 107.884 211.269 107.989 211.427 108.016C211.691 108.042 211.955 108.095 212.219 108.147C212.8 108.226 213.354 108.331 213.908 108.437C216.152 108.858 218.37 109.411 220.535 110.121C221.644 110.49 222.832 110.832 223.888 111.385C223.36 111.122 223.808 111.359 223.914 111.411C224.046 111.464 224.178 111.517 224.31 111.596C224.574 111.727 224.864 111.833 225.128 111.964C225.736 112.254 226.317 112.543 226.897 112.833C229.617 114.228 232.177 115.913 234.606 117.755C235.002 118.071 235.768 118.098 236.243 117.966C236.745 117.834 237.273 117.466 237.51 116.992C237.774 116.492 237.906 115.913 237.721 115.36C237.537 114.807 237.22 114.465 236.744 114.096C232.441 110.78 227.663 108.147 222.515 106.357C218.08 104.804 213.46 103.962 208.813 103.488C206.384 103.251 203.956 103.119 201.501 103.014C200.392 102.961 199.336 104.014 199.388 105.12C199.468 106.305 200.339 107.2 201.527 107.252Z" fill="black"/>
<path d="M146.694 29.1764C150.786 23.043 154.957 16.6726 156.568 9.381C157.043 7.24879 157.28 5.06393 157.254 2.90539C157.228 1.7998 156.304 0.746855 155.142 0.799502C154.007 0.852149 153.004 1.72083 153.03 2.90539C153.056 3.8004 153.03 4.66907 152.951 5.56408C152.924 5.74834 152.924 5.93261 152.898 6.11687C152.898 6.22217 152.872 6.32746 152.872 6.43276C152.977 5.95893 152.898 6.22217 152.872 6.35379C152.792 6.80129 152.74 7.24879 152.634 7.69629C152.291 9.43365 151.789 11.1184 151.182 12.7504C151.024 13.1453 150.865 13.5665 150.707 13.9613C150.68 14.0666 150.575 14.3298 150.733 13.9087C150.707 14.014 150.654 14.1193 150.601 14.1982C150.496 14.4351 150.39 14.6457 150.311 14.8563C149.941 15.646 149.545 16.4357 149.149 17.2254C148.304 18.8049 147.407 20.358 146.456 21.8584C145.374 23.5958 144.239 25.3068 143.104 26.9915C142.496 27.9128 142.892 29.3606 143.869 29.8608C144.872 30.4926 146.034 30.1767 146.694 29.1764Z" fill="black"/>
</svg>
