<svg width="24" height="24" viewBox="0 0 24 24" fill="none" xmlns="http://www.w3.org/2000/svg">
<path d="M18 5.05405H19C20.1 5.05405 21 5.97838 21 7.10811V19.9459C21 21.0757 20.1 22 19 22H5C3.89 22 3 21.0757 3 19.9459L3.01 7.10811C3.01 5.97838 3.89 5.05405 5 5.05405H6V3H8V5.05405H16V3H18V5.05405Z" fill="#231F20"/>
<path d="M6.33325 12H8.99992V14.6667H6.33325V12Z" fill="white"/>
<path d="M10.6666 12H13.3333V14.6667H10.6666V12Z" fill="white"/>
<path d="M15 12H17.6667V14.6667H15V12Z" fill="white"/>
<path d="M6.33325 16.5H8.99992V19.1667H6.33325V16.5Z" fill="white"/>
<path d="M10.6666 16.5H13.3333V19.1667H10.6666V16.5Z" fill="white"/>
<path d="M15 16.5H17.6667V19.1667H15V16.5Z" fill="white"/>
</svg>
