<svg width="24" height="24" viewBox="0 0 24 24" fill="none" xmlns="http://www.w3.org/2000/svg">
<path d="M5 16V20H19V16C19 16 17 13 12 13C7 13 5 16 5 16Z" fill="#231F20"/>
<path d="M0 20H3V16.5C3 14.9 3.66667 14.1667 4 14C1.6 14 0.333333 15.6667 0 16.5V20Z" fill="#231F20"/>
<path d="M24 20H21V16.5C21 14.9 20.3333 14.1667 20 14C22.4 14 23.6667 15.6667 24 16.5V20Z" fill="#231F20"/>
<path d="M16 7C16 9.20914 14.2091 11 12 11C9.79086 11 8 9.20914 8 7C8 4.79086 9.79086 3 12 3C14.2091 3 16 4.79086 16 7Z" fill="#231F20"/>
<path d="M22 9.5C22 10.8807 20.8807 12 19.5 12C18.1193 12 17 10.8807 17 9.5C17 8.11929 18.1193 7 19.5 7C20.8807 7 22 8.11929 22 9.5Z" fill="#231F20"/>
<path d="M7 9.5C7 10.8807 5.88071 12 4.5 12C3.11929 12 2 10.8807 2 9.5C2 8.11929 3.11929 7 4.5 7C5.88071 7 7 8.11929 7 9.5Z" fill="#231F20"/>
</svg>
