<svg width="32" height="32" viewBox="0 0 32 32" fill="none" xmlns="http://www.w3.org/2000/svg">
<path d="M4 16C4 9.37258 9.37258 4 16 4C22.6274 4 28 9.37258 28 16C28 22.6274 22.6274 28 16 28C9.37258 28 4 22.6274 4 16Z" fill="#231F20"/>
<path d="M16.0008 13.5589C17.3478 13.5589 18.44 14.6509 18.44 15.9981C18.44 17.3452 17.3478 18.4374 16.0008 18.4374C14.6535 18.4374 13.5615 17.3452 13.5615 15.9981C13.5615 14.6509 14.6535 13.5589 16.0008 13.5589Z" fill="white"/>
<path fill-rule="evenodd" clip-rule="evenodd" d="M15.3445 9.99914C15.472 9.99894 15.6091 9.99901 15.7571 9.99907L16.001 9.99914C17.9548 9.99914 18.1864 10.0062 18.9579 10.0412C19.6714 10.0738 20.0586 10.1931 20.3166 10.2932C20.6581 10.4259 20.9015 10.5844 21.1575 10.8405C21.4136 11.0966 21.5722 11.3406 21.7051 11.6821C21.8053 11.9397 21.9246 12.3269 21.9571 13.0404C21.9922 13.8118 21.9998 14.0436 21.9998 15.9965C21.9998 17.9494 21.9922 18.1811 21.9571 18.9525C21.9245 19.666 21.8053 20.0532 21.7051 20.3109C21.5725 20.6524 21.4136 20.8955 21.1575 21.1515C20.9014 21.4076 20.6582 21.5662 20.3166 21.6988C20.0589 21.7994 19.6714 21.9183 18.9579 21.951C18.1865 21.986 17.9548 21.9936 16.001 21.9936C14.047 21.9936 13.8154 21.986 13.044 21.951C12.3305 21.918 11.9433 21.7988 11.6852 21.6987C11.3437 21.566 11.0998 21.4075 10.8436 21.1513C10.5875 20.8952 10.429 20.6519 10.296 20.3103C10.1959 20.0526 10.0765 19.6654 10.044 18.9519C10.009 18.1805 10.002 17.9488 10.002 15.9946C10.002 14.0405 10.009 13.81 10.044 13.0386C10.0767 12.3251 10.1959 11.9379 10.296 11.6799C10.4287 11.3384 10.5875 11.0945 10.8436 10.8384C11.0998 10.5823 11.3437 10.4237 11.6852 10.2908C11.9431 10.1902 12.3305 10.0713 13.044 10.0385C13.719 10.008 13.9807 9.99884 15.3445 9.99731V9.99914ZM19.9071 11.2142C19.4223 11.2142 19.029 11.6071 19.029 12.092C19.029 12.5768 19.4223 12.9701 19.9071 12.9701C20.3919 12.9701 20.7852 12.5768 20.7852 12.092C20.7852 11.6072 20.3919 11.2139 19.9071 11.2139V11.2142ZM12.243 15.9981C12.243 13.9229 13.9255 12.2403 16.0008 12.2402C18.0761 12.2402 19.7583 13.9228 19.7583 15.9981C19.7583 18.0735 18.0763 19.7553 16.001 19.7553C13.9256 19.7553 12.243 18.0735 12.243 15.9981Z" fill="white"/>
</svg>
