<svg width="32" height="32" viewBox="0 0 32 32" fill="none" xmlns="http://www.w3.org/2000/svg">
<path d="M4 16C4 9.37258 9.37258 4 16 4C22.6274 4 28 9.37258 28 16C28 22.6274 22.6274 28 16 28C9.37258 28 4 22.6274 4 16Z" fill="#231F20"/>
<path fill-rule="evenodd" clip-rule="evenodd" d="M12.659 11.4113C12.659 12.1959 12.0684 12.8236 11.1202 12.8236H11.1028C10.1898 12.8236 9.59961 12.1959 9.59961 11.4113C9.59961 10.6102 10.2078 9.99997 11.1381 9.99997C12.0684 9.99997 12.6413 10.6102 12.659 11.4113ZM12.4802 13.9389V22.1097H9.76074V13.9389H12.4802ZM22.2874 22.1097L22.2875 17.4248C22.2875 14.9151 20.9459 13.747 19.1564 13.747C17.7125 13.747 17.0661 14.5401 16.7051 15.0964V13.9391H13.9853C14.0212 14.7058 13.9853 22.11 13.9853 22.11H16.7051V17.5467C16.7051 17.3025 16.7228 17.0589 16.7947 16.884C16.9912 16.3962 17.4387 15.8911 18.19 15.8911C19.1745 15.8911 19.568 16.6403 19.568 17.7383V22.1097H22.2874Z" fill="#F3F3F3"/>
</svg>
