<svg width="56" height="56" viewBox="0 0 56 56" fill="none" xmlns="http://www.w3.org/2000/svg">
<path fill-rule="evenodd" clip-rule="evenodd" d="M28 18.6667C22.8453 18.6667 18.6667 22.8454 18.6667 28C18.6667 33.1547 22.8453 37.3333 28 37.3333C30.5839 37.3333 32.918 36.2871 34.6111 34.5882L38.7145 38.6775C35.9789 41.4225 32.1857 43.1264 28 43.1264C19.6459 43.1264 12.8736 36.3541 12.8736 28C12.8736 19.6459 19.6459 12.8736 28 12.8736C36.3541 12.8736 43.1264 19.6459 43.1264 28H37.3333C37.3333 22.8454 33.1547 18.6667 28 18.6667Z" fill="#231F20"/>
<path fill-rule="evenodd" clip-rule="evenodd" d="M12.4441 4.71891C18.0923 0.944911 24.9198 -0.647056 31.6547 0.239612C38.3897 1.12628 44.5726 4.43111 49.0515 9.53837C53.5305 14.6456 56 21.207 56 28V30.8966L16.092 30.8966L16.092 25.1035L50.0172 25.1035C49.4471 20.7697 47.6065 16.6768 44.696 13.358C41.1438 9.30745 36.2401 6.68637 30.8986 5.98315C25.5571 5.27993 20.1421 6.54253 15.6625 9.5357C11.1829 12.5289 7.94422 17.0485 6.54982 22.2525C5.15541 27.4565 5.70041 32.9899 8.08327 37.8219C10.4661 42.6538 14.5243 46.4548 19.5018 48.5165C24.4793 50.5782 30.0365 50.7602 35.1382 49.0284C40.2398 47.2966 44.538 43.7692 47.2317 39.1035L52.2487 42C48.8522 47.883 43.4328 52.3305 37.0003 54.514C30.5678 56.6976 23.5608 56.4682 17.2849 53.8686C11.0089 51.2691 5.89207 46.4766 2.88759 40.3841C-0.116887 34.2916 -0.804058 27.3147 0.954108 20.7531C2.71227 14.1916 6.79586 8.49291 12.4441 4.71891Z" fill="#231F20"/>
</svg>
