<svg width="49" height="48" viewBox="0 0 49 48" fill="none" xmlns="http://www.w3.org/2000/svg">
<path d="M41.1 16V27.4V36.5C41.1 38.7091 39.3091 40.5 37.1 40.5H24.5M41.1 16L44.5 20M41.1 16L37.5 20" stroke="url(#paint0_linear_701_1291)" stroke-width="2"/>
<circle cx="22" cy="40.5" r="2.5" stroke="url(#paint1_linear_701_1291)" stroke-width="2"/>
<path d="M7.9 32L7.9 20.6L7.9 11.5C7.9 9.29086 9.69086 7.5 11.9 7.5L24.5 7.5M7.9 32L4.5 28M7.9 32L11.5 28" stroke="url(#paint2_linear_701_1291)" stroke-width="2"/>
<circle cx="27" cy="7.5" r="2.5" transform="rotate(-180 27 7.5)" stroke="url(#paint3_linear_701_1291)" stroke-width="2"/>
<circle cx="24.5" cy="24" r="3" stroke="url(#paint4_linear_701_1291)" stroke-width="2"/>
<defs>
<linearGradient id="paint0_linear_701_1291" x1="45.6236" y1="34.023" x2="24.1289" y2="30.1911" gradientUnits="userSpaceOnUse">
<stop stop-color="#3300CC"/>
<stop offset="1" stop-color="#E0168F"/>
</linearGradient>
<linearGradient id="paint1_linear_701_1291" x1="18.1067" y1="42.1494" x2="25.5157" y2="40.5314" gradientUnits="userSpaceOnUse">
<stop stop-color="#3300CC"/>
<stop offset="1" stop-color="#E0168F"/>
</linearGradient>
<linearGradient id="paint2_linear_701_1291" x1="3.37641" y1="13.977" x2="24.8711" y2="17.8089" gradientUnits="userSpaceOnUse">
<stop stop-color="#3300CC"/>
<stop offset="1" stop-color="#E0168F"/>
</linearGradient>
<linearGradient id="paint3_linear_701_1291" x1="23.1067" y1="9.14943" x2="30.5157" y2="7.53144" gradientUnits="userSpaceOnUse">
<stop stop-color="#3300CC"/>
<stop offset="1" stop-color="#E0168F"/>
</linearGradient>
<linearGradient id="paint4_linear_701_1291" x1="20.0506" y1="25.8851" x2="28.5179" y2="24.0359" gradientUnits="userSpaceOnUse">
<stop stop-color="#3300CC"/>
<stop offset="1" stop-color="#E0168F"/>
</linearGradient>
</defs>
</svg>
