<svg width="48" height="48" viewBox="0 0 48 48" fill="none" xmlns="http://www.w3.org/2000/svg">
<path fill-rule="evenodd" clip-rule="evenodd" d="M29 2L19 2C17.8954 2 17 2.89543 17 4C17 5.10457 17.8954 6 19 6L29 6C30.1046 6 31 5.10457 31 4C31 2.89543 30.1046 2 29 2ZM32.874 3C32.4299 1.27477 30.8638 0 29 0H19C17.1362 0 15.5701 1.27477 15.126 3L10 3C7.23858 3 5 5.23857 5 8L5 42C5 44.7614 7.23857 47 10 47L38 47C40.7614 47 43 44.7614 43 42L43 8C43 5.23858 40.7614 3 38 3L32.874 3ZM32.874 5C32.4299 6.72523 30.8638 8 29 8L19 8C17.1362 8 15.5701 6.72523 15.126 5L10 5C8.34315 5 7 6.34314 7 8L7 42C7 43.6569 8.34315 45 10 45L38 45C39.6568 45 41 43.6569 41 42L41 8C41 6.34315 39.6569 5 38 5L32.874 5ZM33.6215 11.4813L29.2567 16.331L30.7433 17.669L32.6 15.606V20.4C32.6 22.0569 31.2569 23.4 29.6 23.4H18.4C15.6386 23.4 13.4 25.6386 13.4 28.4V34.1763C12.0059 34.6375 11 35.9513 11 37.5C11 39.433 12.567 41 14.5 41C16.433 41 18 39.433 18 37.5C18 35.8782 16.8969 34.514 15.4 34.1168V28.4C15.4 26.7432 16.7432 25.4 18.4 25.4H29.6C32.3614 25.4 34.6 23.1614 34.6 20.4V15.7205L36.2381 17.6477L37.762 16.3524L33.6215 11.4813ZM22.7 16.5V14.8H24.7V16.5H26.4V18.5H24.7V20.2H22.7V18.5H21V16.5H22.7ZM27.6306 31.7761L23.3077 35.2885L20.3694 32.9011L21.6306 31.3489L23.3077 32.7115L26.3694 30.2239L27.6306 31.7761ZM16 37.5C16 38.3284 15.3284 39 14.5 39C13.6716 39 13 38.3284 13 37.5C13 36.6716 13.6716 36 14.5 36C15.3284 36 16 36.6716 16 37.5Z" fill="url(#paint0_linear_578_2902)"/>
<defs>
<linearGradient id="paint0_linear_578_2902" x1="2.86517" y1="34.5747" x2="43.7292" y2="27.3595" gradientUnits="userSpaceOnUse">
<stop stop-color="#3300CC"/>
<stop offset="1" stop-color="#E0168F"/>
</linearGradient>
</defs>
</svg>
