<svg width="48" height="48" viewBox="0 0 48 48" fill="none" xmlns="http://www.w3.org/2000/svg">
<path fill-rule="evenodd" clip-rule="evenodd" d="M29.96 40.1373C28.0344 44.3387 25.7798 46 24 46C22.2202 46 19.9656 44.3387 18.04 40.1373C17.6019 39.1816 17.2006 38.1315 16.8432 37H31.1568C30.7994 38.1315 30.3981 39.1816 29.96 40.1373ZM31.7208 35H16.2792C15.5386 32.0407 15.0809 28.6455 15.0097 25H32.9903C32.9191 28.6455 32.4614 32.0407 31.7208 35ZM33.2481 37C32.188 40.5827 30.7024 43.51 28.9473 45.4415C34.169 44.2416 38.6811 41.1832 41.7501 37H33.2481ZM43.0568 35H33.7792C34.4935 31.9832 34.9231 28.5935 34.9906 25H45.9777C45.8152 28.6319 44.7721 32.0347 43.0568 35ZM14.2208 35C13.5065 31.9832 13.0769 28.5935 13.0094 25H2.02232C2.1848 28.6319 3.22789 32.0347 4.94321 35H14.2208ZM6.24992 37C9.31887 41.1832 13.831 44.2416 19.0527 45.4415C17.2976 43.51 15.812 40.5827 14.7519 37H6.24992ZM32.9903 23H15.0097C15.0809 19.3545 15.5386 15.9593 16.2792 13H31.7208C32.4614 15.9593 32.9191 19.3545 32.9903 23ZM18.04 7.86275C17.6019 8.8184 17.2006 9.86848 16.8432 11H31.1568C30.7994 9.86848 30.3981 8.8184 29.96 7.86275C28.0344 3.66129 25.7798 2 24 2C22.2202 2 19.9656 3.66129 18.04 7.86275ZM34.9906 23C34.9231 19.4065 34.4935 16.0168 33.7792 13H43.0568C44.7721 15.9653 45.8152 19.3681 45.9777 23H34.9906ZM33.2481 11H41.7501C38.6811 6.81676 34.169 3.75841 28.9473 2.55848C30.7024 4.49003 32.188 7.41725 33.2481 11ZM6.24992 11H14.7519C15.812 7.41725 17.2976 4.49003 19.0527 2.55848C13.831 3.75841 9.31887 6.81676 6.24992 11ZM14.2208 13H4.94321C3.22789 15.9653 2.1848 19.3681 2.02232 23H13.0094C13.0769 19.4065 13.5065 16.0168 14.2208 13ZM48 24C48 10.7452 37.2548 0 24 0C10.7452 0 0 10.7452 0 24C0 37.2548 10.7452 48 24 48C37.2548 48 48 37.2548 48 24Z" fill="url(#paint0_linear_705_849)"/>
<defs>
<linearGradient id="paint0_linear_705_849" x1="-2.69663" y1="35.3104" x2="48.1073" y2="24.2156" gradientUnits="userSpaceOnUse">
<stop stop-color="#3300CC"/>
<stop offset="1" stop-color="#E0168F"/>
</linearGradient>
</defs>
</svg>
