<svg width="49" height="52" viewBox="0 0 49 52" fill="none" xmlns="http://www.w3.org/2000/svg">
<path fill-rule="evenodd" clip-rule="evenodd" d="M13.6068 34.4034L10.9894 36.0425L16.5764 41.6946L18.1967 39.0468L13.6068 34.4034ZM20.508 38.7754L13.875 32.0652L10.0294 34.4736C9.0293 35.0999 8.86799 36.5059 9.69967 37.3473L15.2867 42.9994C16.1184 43.8408 17.5082 43.6776 18.1273 42.6659L20.508 38.7754Z" fill="url(#paint0_linear_701_1246)"/>
<path fill-rule="evenodd" clip-rule="evenodd" d="M5.95241 37.8434C6.30856 38.2037 6.30856 38.7879 5.95241 39.1482L1.80684 43.342C1.45069 43.7023 0.873261 43.7023 0.517112 43.342C0.160962 42.9817 0.160963 42.3976 0.517112 42.0373L4.66268 37.8434C5.01883 37.4831 5.59626 37.4831 5.95241 37.8434Z" fill="url(#paint1_linear_701_1246)"/>
<path fill-rule="evenodd" clip-rule="evenodd" d="M13.6908 46.7903C14.047 47.1506 14.047 47.7348 13.6908 48.0951L10.098 51.7298C9.74185 52.0901 9.16442 52.0901 8.80827 51.7298C8.45212 51.3695 8.45212 50.7853 8.80827 50.425L12.4011 46.7903C12.7572 46.43 13.3347 46.43 13.6908 46.7903Z" fill="url(#paint2_linear_701_1246)"/>
<path fill-rule="evenodd" clip-rule="evenodd" d="M10.6507 41.4781C11.0069 41.8384 11.0069 42.4226 10.6507 42.7829L5.39968 48.0951C5.04353 48.4554 4.4661 48.4554 4.10995 48.0951C3.7538 47.7348 3.7538 47.1506 4.10995 46.7903L9.361 41.4781C9.71714 41.1178 10.2946 41.1178 10.6507 41.4781Z" fill="url(#paint3_linear_701_1246)"/>
<path fill-rule="evenodd" clip-rule="evenodd" d="M46.4868 18.8313L33.5895 5.78371L34.8793 4.47895L47.7766 17.5265L46.4868 18.8313Z" fill="url(#paint4_linear_701_1246)"/>
<path fill-rule="evenodd" clip-rule="evenodd" d="M29.8125 22.6523C31.2371 24.0935 33.5468 24.0935 34.9714 22.6523C36.396 21.2111 36.396 18.8745 34.9714 17.4333C33.5468 15.9921 31.2371 15.9921 29.8125 17.4333C28.3879 18.8745 28.3879 21.2111 29.8125 22.6523ZM28.5227 23.9571C30.6596 26.1189 34.1242 26.1189 36.2611 23.9571C38.398 21.7953 38.398 18.2903 36.2611 16.1285C34.1242 13.9668 30.6596 13.9668 28.5227 16.1285C26.3858 18.2903 26.3858 21.7953 28.5227 23.9571Z" fill="url(#paint5_linear_701_1246)"/>
<path fill-rule="evenodd" clip-rule="evenodd" d="M44.9896 7.67613C44.9156 7.50781 44.7826 7.37323 44.6162 7.29842C38.3167 4.46603 30.9435 5.85101 26.069 10.7823L11.3877 25.6346C10.3193 26.7155 10.3193 28.468 11.3877 29.5489L22.9953 41.2917C24.0638 42.3726 25.7961 42.3726 26.8645 41.2917L41.5458 26.4394C46.4203 21.5081 47.7893 14.049 44.9896 7.67613ZM45.357 5.61225C45.936 5.87259 46.399 6.34096 46.6563 6.92672C49.7626 13.9973 48.2437 22.273 42.8355 27.7442L28.1542 42.5965C26.3735 44.398 23.4863 44.398 21.7056 42.5965L10.098 30.8537C8.31726 29.0522 8.31726 26.1314 10.098 24.3299L24.7793 9.47758C30.1875 4.00638 38.3678 2.46978 45.357 5.61225Z" fill="url(#paint6_linear_701_1246)"/>
<path fill-rule="evenodd" clip-rule="evenodd" d="M33.2415 34.8404L34.5949 36.2096C37.7651 39.4167 37.7651 44.6165 34.5949 47.8236C33.887 48.5397 32.7393 48.5397 32.0314 47.8236L26.2196 41.9441L33.2415 34.8404ZM33.2415 37.4499L28.7991 41.9441L33.3132 46.5107C35.7631 44.0236 35.7604 39.9982 33.3052 37.5144L33.2415 37.4499Z" fill="url(#paint7_linear_701_1246)"/>
<path fill-rule="evenodd" clip-rule="evenodd" d="M17.7647 19.1833L16.4113 17.8142C13.2411 14.6071 8.10128 14.6071 4.93111 17.8142C4.22321 18.5303 4.22321 19.6914 4.93111 20.4076L10.7429 26.287L17.7647 19.1833ZM15.1853 19.1833L10.7429 23.6775L6.22881 19.1109C8.68732 16.6324 12.6664 16.6351 15.1216 19.1189L15.1853 19.1833Z" fill="url(#paint8_linear_701_1246)"/>
<defs>
<linearGradient id="paint0_linear_701_1246" x1="-2.44663" y1="39.3104" x2="48.3573" y2="28.2156" gradientUnits="userSpaceOnUse">
<stop stop-color="#3300CC"/>
<stop offset="1" stop-color="#E0168F"/>
</linearGradient>
<linearGradient id="paint1_linear_701_1246" x1="-2.44663" y1="39.3104" x2="48.3573" y2="28.2156" gradientUnits="userSpaceOnUse">
<stop stop-color="#3300CC"/>
<stop offset="1" stop-color="#E0168F"/>
</linearGradient>
<linearGradient id="paint2_linear_701_1246" x1="-2.44663" y1="39.3104" x2="48.3573" y2="28.2156" gradientUnits="userSpaceOnUse">
<stop stop-color="#3300CC"/>
<stop offset="1" stop-color="#E0168F"/>
</linearGradient>
<linearGradient id="paint3_linear_701_1246" x1="-2.44663" y1="39.3104" x2="48.3573" y2="28.2156" gradientUnits="userSpaceOnUse">
<stop stop-color="#3300CC"/>
<stop offset="1" stop-color="#E0168F"/>
</linearGradient>
<linearGradient id="paint4_linear_701_1246" x1="-2.44663" y1="39.3104" x2="48.3573" y2="28.2156" gradientUnits="userSpaceOnUse">
<stop stop-color="#3300CC"/>
<stop offset="1" stop-color="#E0168F"/>
</linearGradient>
<linearGradient id="paint5_linear_701_1246" x1="-2.44663" y1="39.3104" x2="48.3573" y2="28.2156" gradientUnits="userSpaceOnUse">
<stop stop-color="#3300CC"/>
<stop offset="1" stop-color="#E0168F"/>
</linearGradient>
<linearGradient id="paint6_linear_701_1246" x1="-2.44663" y1="39.3104" x2="48.3573" y2="28.2156" gradientUnits="userSpaceOnUse">
<stop stop-color="#3300CC"/>
<stop offset="1" stop-color="#E0168F"/>
</linearGradient>
<linearGradient id="paint7_linear_701_1246" x1="-2.44663" y1="39.3104" x2="48.3573" y2="28.2156" gradientUnits="userSpaceOnUse">
<stop stop-color="#3300CC"/>
<stop offset="1" stop-color="#E0168F"/>
</linearGradient>
<linearGradient id="paint8_linear_701_1246" x1="-2.44663" y1="39.3104" x2="48.3573" y2="28.2156" gradientUnits="userSpaceOnUse">
<stop stop-color="#3300CC"/>
<stop offset="1" stop-color="#E0168F"/>
</linearGradient>
</defs>
</svg>
