<svg width="49" height="48" viewBox="0 0 49 48" fill="none" xmlns="http://www.w3.org/2000/svg">
<path fill-rule="evenodd" clip-rule="evenodd" d="M25 3C24.4954 3 23.9956 3.01982 23.5013 3.0587L23.3444 1.06485C23.8909 1.02188 24.443 1 25 1C25.557 1 26.1091 1.02188 26.6556 1.06485L26.4987 3.0587C26.0044 3.01982 25.5046 3 25 3ZM20.5464 3.52916C19.5674 3.76628 18.618 4.07986 17.7045 4.46335L16.9304 2.61927C17.9412 2.19492 18.992 1.84783 20.0755 1.58537L20.5464 3.52916ZM32.2955 4.46335C31.382 4.07986 30.4326 3.76628 29.4536 3.52916L29.9245 1.58537C31.008 1.84783 32.0588 2.19492 33.0696 2.61927L32.2955 4.46335ZM37.3654 7.61355C36.6106 6.96036 35.8046 6.36598 34.9544 5.83741L36.0103 4.13888C36.9501 4.72315 37.8406 5.37987 38.6742 6.10124L37.3654 7.61355ZM15.0456 5.83741C14.1954 6.36599 13.3894 6.96036 12.6346 7.61355L11.3258 6.10124C12.1594 5.37987 13.0499 4.72315 13.9897 4.13888L15.0456 5.83741ZM41.2194 12.1772C40.6992 11.3197 40.114 10.5065 39.4707 9.74466L40.9987 8.45427C41.7089 9.29529 42.355 10.1931 42.9294 11.14L41.2194 12.1772ZM10.5293 9.74466C9.886 10.5065 9.30078 11.3197 8.78058 12.1772L7.07059 11.14C7.64498 10.1931 8.29109 9.29529 9.0013 8.45427L10.5293 9.74466ZM43.4827 17.7032C43.2506 16.7211 42.9436 15.7684 42.568 14.8516L44.4188 14.0935C44.8336 15.1063 45.1728 16.1586 45.4291 17.2432L43.4827 17.7032ZM7.43197 14.8516C7.05641 15.7684 6.74937 16.7211 6.51728 17.7032L4.5709 17.2432C4.82722 16.1586 5.16637 15.1063 5.58122 14.0935L7.43197 14.8516ZM6.05735 20.6637C6.01936 21.1587 6 21.6592 6 22.1644C6 22.6484 6.01777 23.128 6.05266 23.6026L4.05804 23.7492C4.01957 23.2259 4 22.6973 4 22.1644C4 21.608 4.02132 21.0565 4.06321 20.5106L6.05735 20.6637ZM44 22.1644C44 21.6592 43.9806 21.1587 43.9426 20.6637L45.9368 20.5106C45.9787 21.0565 46 21.608 46 22.1644C46 22.7211 45.9786 23.273 45.9367 23.8192L43.9426 23.6661C43.9806 23.1707 44 22.6699 44 22.1644ZM6.47558 26.4453C6.68906 27.3892 6.97165 28.3066 7.31768 29.1916L5.45498 29.9199C5.07274 28.9422 4.76061 27.9289 4.52485 26.8864L6.47558 26.4453ZM42.5641 29.4867C42.9408 28.5686 43.2487 27.6146 43.4814 26.6311L45.4277 27.0917C45.1706 28.1779 44.8305 29.2317 44.4145 30.2458L42.5641 29.4867ZM8.56153 31.7811C8.80134 32.1972 9.05625 32.6034 9.3255 32.9989L7.67225 34.1244C7.37498 33.6877 7.09352 33.2393 6.82872 32.7798L8.56153 31.7811ZM40.3827 33.4156C40.6747 33.0101 40.9514 32.5927 41.2118 32.1641L42.921 33.2027C42.6334 33.6759 42.328 34.1368 42.0056 34.5844L40.3827 33.4156Z" fill="url(#paint0_linear_578_2890)"/>
<path fill-rule="evenodd" clip-rule="evenodd" d="M25 16C17.8203 16 12 21.8203 12 29C12 33.2811 14.0684 37.079 17.2647 39.4493L18.4847 40.1253L17.5153 41.8747L16.1828 41.1363L16.1314 41.0986C12.4154 38.3704 10 33.9672 10 29C10 20.7157 16.7157 14 25 14C33.2843 14 40 20.7157 40 29C40 33.9672 37.5846 38.3704 33.8686 41.0986L33.8172 41.1363L32.4847 41.8747L31.5153 40.1253L32.7353 39.4493C35.9316 37.079 38 33.2811 38 29C38 21.8203 32.1797 16 25 16ZM25 42C25.9576 42 26.8899 41.8966 27.7867 41.7008L28.2133 43.6548C27.1772 43.881 26.1019 44 25 44C23.9739 44 22.9709 43.8968 22.0011 43.7L22.3989 41.7399C23.2385 41.9104 24.1083 42 25 42Z" fill="url(#paint1_linear_578_2890)"/>
<path fill-rule="evenodd" clip-rule="evenodd" d="M25 10C17.7908 10 12 15.6575 12 22.5714C12 23.5019 12.1044 24.4076 12.302 25.2787L10.3516 25.7213C10.1212 24.7061 10 23.6519 10 22.5714C10 14.4948 16.7453 8 25 8C33.2547 8 40 14.4948 40 22.5714C40 23.4622 39.9176 24.3352 39.7596 25.1832L37.7934 24.8168C37.9291 24.0889 38 23.3386 38 22.5714C38 15.6575 32.2092 10 25 10Z" fill="url(#paint2_linear_578_2890)"/>
<path fill-rule="evenodd" clip-rule="evenodd" d="M22 25V32.263L22.8359 31.7057C23.8436 31.0339 25.1564 31.0339 26.1641 31.7057L27 32.263V25H22ZM21 23C20.4477 23 20 23.4477 20 24V34.1315C20 34.9302 20.8901 35.4066 21.5547 34.9635L23.9453 33.3698C24.2812 33.1459 24.7188 33.1459 25.0547 33.3698L27.4453 34.9635C28.1099 35.4066 29 34.9302 29 34.1315V24C29 23.4477 28.5523 23 28 23H21Z" fill="url(#paint3_linear_578_2890)"/>
<path fill-rule="evenodd" clip-rule="evenodd" d="M40.8787 35.2929C40.6911 35.1054 40.4368 35 40.1716 35H37.5V33H40.1716C40.9672 33 41.7303 33.3161 42.2929 33.8787L44.4142 36H46V35H48V37V45V47H46V46H30C28.3431 46 27 44.6569 27 43C27 41.3431 28.3431 40 30 40H37.1958L35.652 37.53L37.348 36.47L38.8917 38.94C39.7243 40.2721 38.7666 42 37.1958 42H30C29.4477 42 29 42.4477 29 43C29 43.5523 29.4477 44 30 44H46V38H44H43.5858L43.2929 37.7071L40.8787 35.2929Z" fill="url(#paint4_linear_578_2890)"/>
<path fill-rule="evenodd" clip-rule="evenodd" d="M8.62132 35.2929C8.80886 35.1054 9.06321 35 9.32843 35H12V33H9.32843C8.53278 33 7.76972 33.3161 7.20711 33.8787L5.08579 36H3.5V35H1.5V37V45V47H3.5V46H19.5C21.1569 46 22.5 44.6569 22.5 43C22.5 41.3431 21.1569 40 19.5 40H12.3042L13.848 37.53L12.152 36.47L10.6083 38.94C9.77569 40.2721 10.7334 42 12.3042 42H19.5C20.0523 42 20.5 42.4477 20.5 43C20.5 43.5523 20.0523 44 19.5 44H3.5V38H5.5H5.91421L6.20711 37.7071L8.62132 35.2929Z" fill="url(#paint5_linear_578_2890)"/>
<defs>
<linearGradient id="paint0_linear_578_2890" x1="1.64045" y1="25.7058" x2="44.9813" y2="13.8691" gradientUnits="userSpaceOnUse">
<stop stop-color="#3300CC"/>
<stop offset="1" stop-color="#E0168F"/>
</linearGradient>
<linearGradient id="paint1_linear_578_2890" x1="8.31461" y1="36.069" x2="40.0671" y2="29.1347" gradientUnits="userSpaceOnUse">
<stop stop-color="#3300CC"/>
<stop offset="1" stop-color="#E0168F"/>
</linearGradient>
<linearGradient id="paint2_linear_578_2890" x1="8.31461" y1="21.0363" x2="37.5813" y2="10.2165" gradientUnits="userSpaceOnUse">
<stop stop-color="#3300CC"/>
<stop offset="1" stop-color="#E0168F"/>
</linearGradient>
<linearGradient id="paint3_linear_578_2890" x1="19.4944" y1="31.9255" x2="29.2192" y2="30.3502" gradientUnits="userSpaceOnUse">
<stop stop-color="#3300CC"/>
<stop offset="1" stop-color="#E0168F"/>
</linearGradient>
<linearGradient id="paint4_linear_578_2890" x1="49.1798" y1="43.2989" x2="28.1497" y2="36.4099" gradientUnits="userSpaceOnUse">
<stop stop-color="#3300CC"/>
<stop offset="1" stop-color="#E0168F"/>
</linearGradient>
<linearGradient id="paint5_linear_578_2890" x1="0.320225" y1="43.2989" x2="21.3503" y2="36.4099" gradientUnits="userSpaceOnUse">
<stop stop-color="#3300CC"/>
<stop offset="1" stop-color="#E0168F"/>
</linearGradient>
</defs>
</svg>
