<svg width="48" height="48" viewBox="0 0 48 48" fill="none" xmlns="http://www.w3.org/2000/svg">
<path fill-rule="evenodd" clip-rule="evenodd" d="M25 8V0H23V8H3.75C1.67893 8 0 9.67893 0 11.75C0 13.8211 1.67893 15.5 3.75 15.5H4L4 34C4 36.2091 5.79086 38 8 38L23 38V40.126C21.2748 40.5701 20 42.1362 20 44C20 46.2091 21.7909 48 24 48C26.2091 48 28 46.2091 28 44C28 42.1362 26.7252 40.5701 25 40.126V38L40 38C42.2091 38 44 36.2091 44 34V15.5H44.25C46.3211 15.5 48 13.8211 48 11.75C48 9.67893 46.3211 8 44.25 8H25ZM3.75 10H44.25C45.2165 10 46 10.7835 46 11.75C46 12.7165 45.2165 13.5 44.25 13.5H3.75C2.7835 13.5 2 12.7165 2 11.75C2 10.7835 2.7835 10 3.75 10ZM42 34V15.5L6 15.5L6 34C6 35.1046 6.89543 36 8 36L40 36C41.1046 36 42 35.1046 42 34ZM34 32H14V20H34V32ZM12 34V18H36V34H12ZM26 44C26 45.1046 25.1046 46 24 46C22.8954 46 22 45.1046 22 44C22 42.8954 22.8954 42 24 42C25.1046 42 26 42.8954 26 44Z" fill="url(#paint0_linear_578_2893)"/>
<defs>
<linearGradient id="paint0_linear_578_2893" x1="-2.69663" y1="35.3104" x2="48.1073" y2="24.2156" gradientUnits="userSpaceOnUse">
<stop stop-color="#3300CC"/>
<stop offset="1" stop-color="#E0168F"/>
</linearGradient>
</defs>
</svg>
