<svg width="48" height="48" viewBox="0 0 48 48" fill="none" xmlns="http://www.w3.org/2000/svg">
<path fill-rule="evenodd" clip-rule="evenodd" d="M25.2414 1.99976H24.7586C15.5031 1.99976 8 9.50285 8 18.7584V36.9998H42V18.7584C42 9.50285 34.4969 1.99976 25.2414 1.99976ZM24.7586 -0.000244141C14.3985 -0.000244141 6 8.39828 6 18.7584V38.9998H44V18.7584C44 8.39828 35.6015 -0.000244141 25.2414 -0.000244141H24.7586Z" fill="#231F20"/>
<path fill-rule="evenodd" clip-rule="evenodd" d="M42.4828 38.9998H5.51724C4.67929 38.9998 4 39.6791 4 40.517V44.4825C4 45.3205 4.67929 45.9998 5.51724 45.9998H42.4828C43.3207 45.9998 44 45.3205 44 44.4825V40.517C44 39.6791 43.3207 38.9998 42.4828 38.9998ZM5.51724 36.9998C3.57472 36.9998 2 38.5745 2 40.517V44.4825C2 46.425 3.57472 47.9998 5.51724 47.9998H42.4828C44.4253 47.9998 46 46.425 46 44.4825V40.517C46 38.5745 44.4253 36.9998 42.4828 36.9998H5.51724Z" fill="#231F20"/>
<path fill-rule="evenodd" clip-rule="evenodd" d="M34.4828 31.9998H15.5172C14.6793 31.9998 14 32.6791 14 33.517V36.9998H36V33.517C36 32.6791 35.3207 31.9998 34.4828 31.9998ZM15.5172 29.9998C13.5747 29.9998 12 31.5745 12 33.517V38.9998H38V33.517C38 31.5745 36.4253 29.9998 34.4828 29.9998H15.5172Z" fill="#231F20"/>
<path fill-rule="evenodd" clip-rule="evenodd" d="M24 25.1191C21.9823 25.0218 19.9262 24.6057 18.2765 23.5583C16.2759 22.2881 15 20.1696 15 16.9998V15.9998H16C20.1134 15.9998 22.6736 17.2644 24.1844 19.0277C25.6677 20.759 26 22.8102 26 24.1426V31.9998H24V25.1191ZM22.6656 20.329C23.4179 21.207 23.7728 22.2219 23.9166 23.1117C22.1589 23.0083 20.5557 22.6363 19.3485 21.8698C18.172 21.1228 17.2888 19.9506 17.0589 18.0325C20.0672 18.225 21.7308 19.2379 22.6656 20.329Z" fill="#231F20"/>
<path fill-rule="evenodd" clip-rule="evenodd" d="M26 25.1191C28.0177 25.0218 30.0738 24.6057 31.7235 23.5583C33.7241 22.2881 35 20.1696 35 16.9998V15.9998H34C29.8866 15.9998 27.3264 17.2644 25.8156 19.0277C24.3323 20.759 24 22.8102 24 24.1426V31.9998H26V25.1191ZM27.3344 20.329C26.5821 21.207 26.2272 22.2219 26.0834 23.1117C27.8411 23.0083 29.4443 22.6363 30.6515 21.8698C31.828 21.1228 32.7112 19.9506 32.9411 18.0325C29.9328 18.225 28.2692 19.2379 27.3344 20.329Z" fill="#231F20"/>
</svg>
