<svg width="49" height="52" viewBox="0 0 49 52" fill="none" xmlns="http://www.w3.org/2000/svg">
<g id="Startup incubators">
<g id="Vector">
<path fill-rule="evenodd" clip-rule="evenodd" d="M13.8568 34.4034L11.2394 36.0425L16.8264 41.6946L18.4467 39.0468L13.8568 34.4034ZM20.758 38.7754L14.125 32.0652L10.2794 34.4736C9.2793 35.0999 9.11799 36.5059 9.94967 37.3473L15.5367 42.9994C16.3684 43.8408 17.7582 43.6776 18.3773 42.6659L20.758 38.7754Z" fill="#231F20"/>
<path fill-rule="evenodd" clip-rule="evenodd" d="M6.20241 37.8434C6.55856 38.2037 6.55856 38.7879 6.20241 39.1482L2.05684 43.342C1.70069 43.7023 1.12326 43.7023 0.767112 43.342C0.410962 42.9817 0.410963 42.3976 0.767112 42.0373L4.91268 37.8434C5.26883 37.4831 5.84626 37.4831 6.20241 37.8434Z" fill="#231F20"/>
<path fill-rule="evenodd" clip-rule="evenodd" d="M13.9408 46.7903C14.297 47.1506 14.297 47.7348 13.9408 48.0951L10.348 51.7298C9.99185 52.0901 9.41442 52.0901 9.05827 51.7298C8.70212 51.3695 8.70212 50.7853 9.05827 50.425L12.6511 46.7903C13.0072 46.43 13.5847 46.43 13.9408 46.7903Z" fill="#231F20"/>
<path fill-rule="evenodd" clip-rule="evenodd" d="M10.9007 41.4781C11.2569 41.8384 11.2569 42.4226 10.9007 42.7829L5.64968 48.0951C5.29353 48.4554 4.7161 48.4554 4.35995 48.0951C4.0038 47.7348 4.0038 47.1506 4.35995 46.7903L9.611 41.4781C9.96714 41.1178 10.5446 41.1178 10.9007 41.4781Z" fill="#231F20"/>
<path fill-rule="evenodd" clip-rule="evenodd" d="M46.7368 18.8313L33.8395 5.78371L35.1293 4.47895L48.0266 17.5265L46.7368 18.8313Z" fill="#231F20"/>
<path fill-rule="evenodd" clip-rule="evenodd" d="M30.0625 22.6523C31.4871 24.0935 33.7968 24.0935 35.2214 22.6523C36.646 21.2111 36.646 18.8745 35.2214 17.4333C33.7968 15.9921 31.4871 15.9921 30.0625 17.4333C28.6379 18.8745 28.6379 21.2111 30.0625 22.6523ZM28.7727 23.9571C30.9096 26.1189 34.3742 26.1189 36.5111 23.9571C38.648 21.7953 38.648 18.2903 36.5111 16.1285C34.3742 13.9668 30.9096 13.9668 28.7727 16.1285C26.6358 18.2903 26.6358 21.7953 28.7727 23.9571Z" fill="#231F20"/>
<path fill-rule="evenodd" clip-rule="evenodd" d="M45.2396 7.67613C45.1656 7.50781 45.0326 7.37323 44.8662 7.29842C38.5667 4.46603 31.1935 5.85101 26.319 10.7823L11.6377 25.6346C10.5693 26.7155 10.5693 28.468 11.6377 29.5489L23.2453 41.2917C24.3138 42.3726 26.0461 42.3726 27.1145 41.2917L41.7958 26.4394C46.6703 21.5081 48.0393 14.049 45.2396 7.67613ZM45.607 5.61225C46.186 5.87259 46.649 6.34096 46.9063 6.92672C50.0126 13.9973 48.4937 22.273 43.0855 27.7442L28.4042 42.5965C26.6235 44.398 23.7363 44.398 21.9556 42.5965L10.348 30.8537C8.56726 29.0522 8.56726 26.1314 10.348 24.3299L25.0293 9.47758C30.4375 4.00638 38.6178 2.46978 45.607 5.61225Z" fill="#231F20"/>
<path fill-rule="evenodd" clip-rule="evenodd" d="M33.4915 34.8404L34.8449 36.2096C38.0151 39.4167 38.0151 44.6165 34.8449 47.8236C34.137 48.5397 32.9893 48.5397 32.2814 47.8236L26.4696 41.9441L33.4915 34.8404ZM33.4915 37.4499L29.0491 41.9441L33.5632 46.5107C36.0131 44.0236 36.0104 39.9982 33.5552 37.5144L33.4915 37.4499Z" fill="#231F20"/>
<path fill-rule="evenodd" clip-rule="evenodd" d="M18.0147 19.1833L16.6613 17.8142C13.4911 14.6071 8.35128 14.6071 5.18111 17.8142C4.47321 18.5303 4.47321 19.6914 5.18111 20.4076L10.9929 26.287L18.0147 19.1833ZM15.4353 19.1833L10.9929 23.6775L6.47881 19.1109C8.93732 16.6324 12.9164 16.6351 15.3716 19.1189L15.4353 19.1833Z" fill="#231F20"/>
</g>
</g>
</svg>
