
<svg xmlns="http://www.w3.org/2000/svg" width="681" height="682" viewBox="0 0 681 682" fill="none">
  <path d="M180.397 1.13639C244.397 1.13638 300.58 34.6069 332.396 85.001C336.059 90.8025 344.959 90.8025 348.622 85.001C380.438 34.607 436.621 1.13647 500.621 1.13646C599.825 1.13647 680.247 81.5578 680.247 180.763C680.247 244.763 646.776 300.946 596.382 332.762C590.58 336.424 590.58 345.325 596.382 348.988C646.776 380.803 680.247 436.987 680.247 500.987C680.247 600.191 599.825 680.613 500.621 680.613C436.62 680.613 380.438 647.142 348.622 596.748C344.959 590.947 336.059 590.947 332.396 596.748C300.58 647.142 244.397 680.613 180.397 680.613C81.1923 680.613 0.770919 600.191 0.770922 500.987C0.770928 436.986 34.2417 380.803 84.6359 348.987C90.4375 345.325 90.4375 336.424 84.6359 332.762C34.2418 300.946 0.771103 244.763 0.771102 180.762C0.771101 81.5577 81.1924 1.13639 180.397 1.13639Z" stroke="white"></path>
</svg>
