<svg width="56" height="50" viewBox="0 0 56 50" fill="none" xmlns="http://www.w3.org/2000/svg">
<g id="universities">
<g id="Vector">
<path fill-rule="evenodd" clip-rule="evenodd" d="M53.2383 17.6337L27.8613 2.89038L2.48438 17.6337L27.8613 32.3771L53.2383 17.6337ZM28.866 1.16105C28.2448 0.800158 27.4778 0.800158 26.8566 1.16105L1.47968 15.9044C0.152604 16.6754 0.15261 18.5921 1.47968 19.3631L26.8566 34.1064C27.4778 34.4673 28.2448 34.4673 28.866 34.1064L54.243 19.3631C55.57 18.5921 55.57 16.6754 54.243 15.9044L28.866 1.16105Z" fill="#231F20"/>
<path d="M5.90944 21.4092C5.90944 20.8569 6.35716 20.4092 6.90944 20.4092C7.46173 20.4092 7.90944 20.8569 7.90944 21.4092V33.9546C7.90944 34.5069 7.46173 34.9546 6.90944 34.9546C6.35716 34.9546 5.90944 34.5069 5.90944 33.9546V21.4092Z" fill="#231F20"/>
<path d="M17.7002 12.762C18.1785 12.4858 18.7901 12.6497 19.0662 13.128C19.3424 13.6063 19.1785 14.2179 18.7002 14.494L7.26387 21.0968C6.78558 21.3729 6.17399 21.2091 5.89785 20.7308C5.6217 20.2525 5.78558 19.6409 6.26387 19.3647L17.7002 12.762Z" fill="#231F20"/>
<path fill-rule="evenodd" clip-rule="evenodd" d="M14.1822 24.7728V40.0205C14.1822 41.7579 15.3348 43.4912 17.539 44.8425C19.7266 46.1835 22.812 47.0455 26.2731 47.0455C29.7385 47.0455 33.2116 46.1811 35.7877 44.812C38.4295 43.4081 39.8185 41.6601 39.8185 40.0205V25.6299H41.8185V40.0205C41.8185 42.813 39.5498 45.0775 36.7263 46.5781C33.8372 48.1135 30.0375 49.0455 26.2731 49.0455C22.5042 49.0455 19.0442 48.1111 16.4938 46.5476C13.96 44.9944 12.1822 42.7152 12.1822 40.0205V24.7728H14.1822Z" fill="#231F20"/>
<path fill-rule="evenodd" clip-rule="evenodd" d="M37.4549 28.539V45.2412C37.4549 45.7935 37.0072 46.2412 36.4549 46.2412C35.9026 46.2412 35.4549 45.7935 35.4549 45.2412V28.539H37.4549Z" fill="#231F20"/>
</g>
</g>
</svg>
