<svg width="50" height="49" viewBox="0 0 50 49" fill="none" xmlns="http://www.w3.org/2000/svg">
<g id="Policy makers">
<g id="Vector">
<path fill-rule="evenodd" clip-rule="evenodd" d="M37 39.2141C35.1853 39.2141 33.7143 40.6852 33.7143 42.4998C33.7143 44.3145 35.1853 45.7855 37 45.7855V47.7855C34.0808 47.7855 31.7143 45.419 31.7143 42.4998C31.7143 39.5806 34.0808 37.2141 37 37.2141V39.2141Z" fill="#231F20"/>
<path fill-rule="evenodd" clip-rule="evenodd" d="M5.18367 39.2141C3.44796 39.2141 2 40.6623 2 42.4998C2 44.3373 3.44796 45.7855 5.18367 45.7855H13.551V47.7855H5.18367C2.29823 47.7855 0 45.3962 0 42.4998C0 39.6035 2.29823 37.2141 5.18367 37.2141H36.1429V39.2141H5.18367Z" fill="#231F20"/>
<path fill-rule="evenodd" clip-rule="evenodd" d="M36.1429 13.4998H13.8571V11.4998H36.1429V13.4998Z" fill="#231F20"/>
<path fill-rule="evenodd" clip-rule="evenodd" d="M36.1429 21.2141H13.8571V19.2141H36.1429V21.2141Z" fill="#231F20"/>
<path fill-rule="evenodd" clip-rule="evenodd" d="M36.1429 29.7855H13.8571V27.7855H36.1429V29.7855Z" fill="#231F20"/>
<path fill-rule="evenodd" clip-rule="evenodd" d="M8.57143 5.21411C8.57143 3.00497 10.3623 1.21411 12.5714 1.21411H41.4286V43.7855C41.4286 45.9947 39.6377 47.7855 37.4286 47.7855H9.57143V45.7855H37.4286C38.5331 45.7855 39.4286 44.8901 39.4286 43.7855V3.21411H12.5714C11.4669 3.21411 10.5714 4.10954 10.5714 5.21411V38.5316H8.57143V5.21411Z" fill="#231F20"/>
<path fill-rule="evenodd" clip-rule="evenodd" d="M39.4286 1.21411H44.7143C47.6335 1.21411 50 3.58061 50 6.49983C50 9.41904 47.6335 11.7855 44.7143 11.7855H39.4286V1.21411ZM41.4286 3.21411V9.78554H44.7143C46.5289 9.78554 48 8.31448 48 6.49983C48 4.68518 46.5289 3.21411 44.7143 3.21411H41.4286Z" fill="#231F20"/>
</g>
</g>
</svg>
