<svg width="48" height="48" viewBox="0 0 48 48" fill="none" xmlns="http://www.w3.org/2000/svg">
<g id="Investors">
<g id="Vector">
<path fill-rule="evenodd" clip-rule="evenodd" d="M16.0001 43.0908C22.1254 43.0908 27.091 38.1252 27.091 31.9999C27.091 25.8745 22.1254 20.909 16.0001 20.909C9.87475 20.909 4.90918 25.8745 4.90918 31.9999C4.90918 38.1252 9.87475 43.0908 16.0001 43.0908ZM16.0001 45.0908C23.23 45.0908 29.091 39.2298 29.091 31.9999C29.091 24.77 23.23 18.909 16.0001 18.909C8.77018 18.909 2.90918 24.77 2.90918 31.9999C2.90918 39.2298 8.77018 45.0908 16.0001 45.0908Z" fill="#231F20"/>
<path fill-rule="evenodd" clip-rule="evenodd" d="M4.81827 16.2726C4.81827 15.168 5.7137 14.2726 6.81827 14.2726H11.8573C12.9618 14.2726 13.8573 15.168 13.8573 16.2726V20.1038H11.8573L11.8573 16.2726L6.81827 16.2726V25.2856H4.81827V16.2726Z" fill="#231F20"/>
<path fill-rule="evenodd" clip-rule="evenodd" d="M11.8572 11.1817C11.8572 10.0771 12.7527 9.18171 13.8572 9.18171H18.6365C19.741 9.18171 20.6365 10.0771 20.6365 11.1817V20.2337H18.6365V11.1817L13.8572 11.1817V19.6363H11.8572V11.1817Z" fill="#231F20"/>
<path fill-rule="evenodd" clip-rule="evenodd" d="M18.6365 5.36353C18.6365 4.25896 19.5319 3.36353 20.6365 3.36353H25.1819C26.2865 3.36353 27.1819 4.25896 27.1819 5.36353V25.3246H25.1819V5.36353L20.6365 5.36353V19.6363H18.6365V5.36353Z" fill="#231F20"/>
<path fill-rule="evenodd" clip-rule="evenodd" d="M25.1819 11.1817C25.1819 10.0771 26.0773 9.18171 27.1819 9.18171H36.7779L44.6365 17.0402V40.2726H25.4546V38.2726H42.6365V17.8686L35.9495 11.1817L27.1819 11.1817V19.6363H25.1819V11.1817Z" fill="#231F20"/>
<path fill-rule="evenodd" clip-rule="evenodd" d="M38.1092 25.7272H26.8801V23.7272H38.1092C38.6614 23.7272 39.1092 24.1749 39.1092 24.7272C39.1092 25.2794 38.6614 25.7272 38.1092 25.7272Z" fill="#231F20"/>
<path fill-rule="evenodd" clip-rule="evenodd" d="M38.1092 30.0908H27.7372V28.0908H38.1092C38.6614 28.0908 39.1092 28.5385 39.1092 29.0908C39.1092 29.6431 38.6614 30.0908 38.1092 30.0908Z" fill="#231F20"/>
<path fill-rule="evenodd" clip-rule="evenodd" d="M38.1092 34.4544H27.7372V32.4544H38.1092C38.6614 32.4544 39.1092 32.9022 39.1092 33.4544C39.1092 34.0067 38.6614 34.4544 38.1092 34.4544Z" fill="#231F20"/>
<path fill-rule="evenodd" clip-rule="evenodd" d="M37.3637 10.1817V16.909C37.3637 17.4613 37.8114 17.909 38.3637 17.909H43.6365V19.909H38.3637C36.7069 19.909 35.3637 18.5658 35.3637 16.909V10.1817H37.3637Z" fill="#231F20"/>
<path fill-rule="evenodd" clip-rule="evenodd" d="M15.0001 25.3108C13.3256 25.7526 12.091 27.2775 12.091 29.0908C12.091 31.2497 13.8412 32.9999 16.0001 32.9999C17.0545 32.9999 17.9092 33.8546 17.9092 34.909C17.9092 35.9633 17.0545 36.8181 16.0001 36.8181C14.9457 36.8181 14.091 35.9633 14.091 34.909H12.091C12.091 36.7223 13.3256 38.2472 15.0001 38.689V40.7272H17.0001V38.689C18.6746 38.2472 19.9092 36.7223 19.9092 34.909C19.9092 32.75 18.159 30.9999 16.0001 30.9999C14.9457 30.9999 14.091 30.1452 14.091 29.0908C14.091 28.0364 14.9457 27.1817 16.0001 27.1817C17.0545 27.1817 17.9092 28.0364 17.9092 29.0908H19.9092C19.9092 27.2775 18.6746 25.7526 17.0001 25.3108V23.2726H15.0001V25.3108Z" fill="#231F20"/>
</g>
</g>
</svg>
