<svg width="16" height="16" viewBox="0 0 16 16" fill="none" xmlns="http://www.w3.org/2000/svg">
<g clip-path="url(#clip0_578_2869)">
<path d="M10.9677 5.0335C11.2966 5.3624 11.2966 5.89529 10.9677 6.22432L6.2233 10.9676C6.05878 11.1321 5.84338 11.2143 5.62796 11.2143C5.41254 11.2143 5.19701 11.1321 5.03262 10.9676C4.70372 10.6387 4.70372 10.1058 5.03262 9.77679L9.77699 5.0335C10.1059 4.70461 10.6388 4.70461 10.9678 5.0335H10.9677ZM14.5252 1.47512C12.5618 -0.489543 9.36723 -0.487846 7.40466 1.47512C7.07576 1.80401 7.07576 2.33691 7.40466 2.66594C7.73356 2.99483 8.26645 2.99483 8.59548 2.66594C9.90219 1.36006 12.0276 1.36006 13.3344 2.66594C13.9673 3.29921 14.3159 4.14039 14.3159 5.03603C14.3159 5.9308 13.9673 6.77202 13.3344 7.40526C13.0055 7.73415 13.0055 8.26705 13.3344 8.59608C13.499 8.7606 13.7144 8.84278 13.9298 8.84278C14.1452 8.84278 14.3607 8.7606 14.5251 8.59608C15.4762 7.64547 16 6.38063 16 5.03599C16 3.69136 15.4761 2.42666 14.5251 1.47522L14.5252 1.47512ZM7.40466 13.335C6.09839 14.64 3.97288 14.6417 2.6657 13.335C2.03287 12.7017 1.68424 11.8605 1.68424 10.9649C1.68424 10.0701 2.03288 9.22888 2.6657 8.59564C2.9946 8.26675 2.9946 7.73385 2.6657 7.40482C2.33681 7.07592 1.80391 7.07592 1.47488 7.40482C0.523844 8.35543 0 9.62027 0 10.9649C0 12.3095 0.52388 13.5742 1.47488 14.5257C2.45635 15.5076 3.74587 15.9977 5.03497 15.9977C6.32446 15.9977 7.61384 15.5076 8.5953 14.5257C8.9242 14.1968 8.9242 13.6639 8.5953 13.3349C8.2664 13.006 7.73351 13.006 7.40448 13.3349L7.40466 13.335Z" fill="#231F20"/>
</g>
<defs>
<clipPath id="clip0_578_2869">
<rect width="16" height="15.9955" fill="white" transform="translate(0 0.0022583)"/>
</clipPath>
</defs>
</svg>
