<svg width="32" height="32" viewBox="0 0 32 32" fill="none" xmlns="http://www.w3.org/2000/svg">
<path d="M4 16C4 9.37258 9.37258 4 16 4C22.6274 4 28 9.37258 28 16C28 22.6274 22.6274 28 16 28C9.37258 28 4 22.6274 4 16Z" fill="#231F20"/>
<path d="M16.6406 14.5538L16.6658 14.969L16.2461 14.9181C14.7184 14.7232 13.3838 14.0623 12.2507 12.9522L11.6967 12.4013L11.554 12.8081C11.2518 13.7148 11.4449 14.6724 12.0744 15.3164C12.4102 15.6723 12.3346 15.7232 11.7554 15.5113C11.554 15.4435 11.3777 15.3927 11.3609 15.4181C11.3022 15.4774 11.5036 16.2486 11.6631 16.5536C11.8813 16.9773 12.3262 17.3925 12.8131 17.6383L13.2243 17.8332L12.7375 17.8417C12.2675 17.8417 12.2507 17.8501 12.301 18.0281C12.4689 18.5789 13.132 19.1636 13.8707 19.4178L14.3911 19.5958L13.9378 19.867C13.2663 20.2568 12.4773 20.4771 11.6883 20.494C11.3106 20.5025 11 20.5364 11 20.5618C11 20.6466 12.024 21.1211 12.62 21.3075C14.4079 21.8584 16.5315 21.6211 18.1263 20.6805C19.2595 20.011 20.3926 18.6806 20.9214 17.3925C21.2068 16.7062 21.4922 15.452 21.4922 14.8503C21.4922 14.4605 21.5174 14.4097 21.9874 13.9436C22.2644 13.6725 22.5246 13.3759 22.575 13.2911C22.6589 13.1301 22.6505 13.1301 22.2224 13.2742C21.509 13.5284 21.4083 13.4945 21.7608 13.1132C22.021 12.842 22.3316 12.3505 22.3316 12.2064C22.3316 12.181 22.2057 12.2234 22.063 12.2997C21.9119 12.3844 21.5761 12.5115 21.3243 12.5878L20.8711 12.7318L20.4598 12.4522C20.2331 12.2997 19.9142 12.1302 19.7463 12.0793C19.3182 11.9607 18.6635 11.9776 18.2774 12.1132C17.2282 12.4946 16.5651 13.4775 16.6406 14.5538Z" fill="#F3F3F3"/>
</svg>
