<svg width="128" height="128" viewBox="0 0 128 128" fill="none" xmlns="http://www.w3.org/2000/svg">
<circle cx="64" cy="64" r="64" fill="#7D26FF"/>
<g clip-path="url(#clip0_10012_77)">
<path d="M55.4225 94.0527C55.091 94.0527 54.7731 93.921 54.5386 93.6866C54.3042 93.4521 54.1725 93.1342 54.1725 92.8027V90.6302C54.1725 89.8577 53.9375 89.1152 53.495 88.4777L48.535 81.3952C47.5303 79.9545 46.8755 78.2993 46.6224 76.5612C46.3694 74.8231 46.5253 73.05 47.0775 71.3827L49.5675 63.9127C49.9174 62.8608 50.5898 61.946 51.4891 61.298C52.3884 60.6499 53.469 60.3017 54.5775 60.3027H66.4775C67.1518 60.2957 67.8125 60.4925 68.3732 60.8672C68.9339 61.2418 69.3684 61.777 69.62 62.4027C69.8853 63.0229 69.9568 63.7089 69.8252 64.3706C69.6936 65.0322 69.365 65.6386 68.8825 66.1102C66.6027 68.4019 63.6098 69.848 60.3975 70.2102C63.8451 73.102 66.426 76.8908 67.855 81.1577C67.9346 81.4647 67.8946 81.7905 67.7433 82.0692C67.592 82.348 67.3405 82.559 67.0397 82.6595C66.7389 82.7601 66.4112 82.7428 66.1226 82.6112C65.8341 82.4795 65.6062 82.2433 65.485 81.9502C63.9456 77.3562 60.9253 73.403 56.8975 70.7102L55.975 70.0952C55.7551 69.9444 55.5889 69.7274 55.5005 69.4757C55.4122 69.2241 55.4063 68.9508 55.4838 68.6956C55.5612 68.4404 55.718 68.2165 55.9313 68.0564C56.1446 67.8963 56.4033 67.8083 56.67 67.8052H58.7575C60.3098 67.8098 61.8476 67.5064 63.2818 66.9125C64.716 66.3186 66.018 65.4459 67.1125 64.3452C67.4975 63.9602 67.3775 63.5302 67.3075 63.3602C67.2375 63.1902 67.0175 62.8027 66.475 62.8027H54.575C53.3775 62.8027 52.315 63.5677 51.935 64.7052L49.4475 72.1752C49.019 73.4714 48.8985 74.8496 49.0955 76.2005C49.2925 77.5514 49.8016 78.8378 50.5825 79.9577L55.5425 87.0427C56.2825 88.1027 56.6725 89.3427 56.6725 90.6302V92.8027C56.6725 93.1342 56.5408 93.4521 56.3064 93.6866C56.072 93.921 55.7541 94.0527 55.4225 94.0527Z" fill="white"/>
<path d="M77.0249 68.8252C76.8231 68.826 76.624 68.7778 76.4449 68.6846C76.2658 68.5914 76.1121 68.4561 75.997 68.2902C75.8818 68.1244 75.8087 67.9331 75.784 67.7327C75.7592 67.5324 75.7836 67.329 75.8549 67.1402L84.1549 44.6927C84.2532 44.4409 84.3032 44.1729 84.3024 43.9027C84.3024 42.9002 83.6324 41.9752 82.6374 41.5977C81.3499 41.1377 79.9274 41.7402 79.4724 42.9452L71.7249 63.9352C71.6102 64.2465 71.3766 64.4994 71.0753 64.6384C70.7741 64.7775 70.43 64.7911 70.1187 64.6764C69.8074 64.5617 69.5544 64.328 69.4154 64.0268C69.2764 63.7256 69.2627 63.3815 69.3774 63.0702L77.1274 42.0727C78.0674 39.5877 80.9299 38.3327 83.4974 39.2527C85.4799 39.9977 86.7999 41.8652 86.7999 43.9027C86.7999 44.4752 86.6999 45.0177 86.4949 45.5677L78.1974 68.0127C78.1076 68.2511 77.9473 68.4566 77.7379 68.6017C77.5284 68.7468 77.2798 68.8248 77.0249 68.8252Z" fill="white"/>
<path d="M76.885 80.3025C76.0091 80.302 75.149 80.0691 74.3925 79.6275V79.63C73.2452 78.966 72.4081 77.8739 72.065 76.5935C71.7219 75.313 71.9009 73.9487 72.5625 72.8L76.0925 66.69C76.4196 66.1198 76.8565 65.6201 77.3778 65.2197C77.8992 64.8194 78.4947 64.5263 79.13 64.3575C80.0851 64.1026 81.0944 64.1363 82.0303 64.4545C82.9662 64.7727 83.7869 65.361 84.3887 66.1453C84.9906 66.9295 85.3465 67.8745 85.4117 68.8609C85.4769 69.8473 85.2484 70.8309 84.755 71.6875L81.225 77.7975C80.8986 78.3675 80.4623 78.867 79.9412 79.2669C79.4202 79.6669 78.825 79.9594 78.19 80.1275C77.755 80.245 77.32 80.3025 76.885 80.3025ZM80.4225 66.6875C79.9829 66.6852 79.5507 66.8 79.1702 67.0201C78.7897 67.2403 78.4747 67.5578 78.2575 67.94L74.7275 74.05C74.4828 74.4785 74.37 74.9698 74.4035 75.4621C74.4369 75.9545 74.615 76.426 74.9154 76.8175C75.2159 77.2089 75.6252 77.503 76.0922 77.6627C76.5591 77.8223 77.0628 77.8405 77.54 77.715C77.8577 77.6313 78.1555 77.4852 78.416 77.2852C78.6766 77.0852 78.8947 76.8352 79.0575 76.55L82.5875 70.44C82.806 70.0596 82.9207 69.6286 82.9203 69.19C82.9198 68.7514 82.8042 68.3205 82.585 67.9406C82.3658 67.5607 82.0507 67.245 81.6712 67.0251C81.2917 66.8052 80.8611 66.6888 80.4225 66.6875ZM63.295 62.8025C62.9958 62.8022 62.7066 62.6946 62.4799 62.4991C62.2533 62.3037 62.1043 62.0334 62.06 61.7375L58.785 39.9C58.7005 39.315 58.4071 38.7803 57.9591 38.3948C57.511 38.0092 56.9386 37.7988 56.3475 37.8025C55.9936 37.8018 55.6436 37.8776 55.3216 38.0247C54.9997 38.1718 54.7133 38.3867 54.482 38.6547C54.2508 38.9227 54.0802 39.2375 53.9819 39.5776C53.8836 39.9177 53.86 40.2749 53.9125 40.625L56.98 61.315C57.0045 61.4772 56.9966 61.6427 56.9568 61.8019C56.9171 61.9611 56.8463 62.1108 56.7485 62.2426C56.6507 62.3743 56.5278 62.4854 56.3869 62.5695C56.246 62.6536 56.0899 62.709 55.9275 62.7325C55.7651 62.7573 55.5994 62.7497 55.4399 62.7101C55.2804 62.6705 55.1304 62.5998 54.9984 62.5019C54.8663 62.4041 54.755 62.2811 54.6708 62.14C54.5865 61.999 54.5311 61.8426 54.5075 61.68L51.44 40.9925C51.3364 40.2873 51.3857 39.568 51.5846 38.8835C51.7836 38.199 52.1275 37.5654 52.593 37.0256C53.0586 36.4859 53.6348 36.0526 54.2827 35.7553C54.9305 35.4579 55.6347 35.3035 56.3475 35.3025C58.8225 35.3025 60.8875 37.08 61.255 39.5275L64.53 61.365C64.557 61.5429 64.5453 61.7245 64.4956 61.8975C64.446 62.0704 64.3596 62.2306 64.2423 62.3671C64.1251 62.5035 63.9797 62.6131 63.8162 62.6883C63.6527 62.7634 63.475 62.8024 63.295 62.8025Z" fill="white"/>
<path d="M70.5375 64.7576C70.3601 64.7579 70.1846 64.7204 70.0228 64.6477C69.861 64.5749 69.7165 64.4686 69.599 64.3356C69.4814 64.2027 69.3935 64.0463 69.3411 63.8768C69.2887 63.7073 69.273 63.5286 69.295 63.3526L72.27 39.2551C72.3088 38.8925 72.2673 38.5258 72.1485 38.181C72.0297 37.8362 71.8364 37.5218 71.5825 37.2601C71.2528 36.9189 70.8327 36.6788 70.3715 36.5679C69.9102 36.457 69.4269 36.4799 68.9782 36.6339C68.5295 36.788 68.134 37.0667 67.8381 37.4376C67.5422 37.8084 67.3581 38.2559 67.3075 38.7276L64.54 61.6976C64.5211 61.8608 64.4701 62.0188 64.3898 62.1622C64.3096 62.3057 64.2018 62.4318 64.0726 62.5334C63.9433 62.6349 63.7953 62.7099 63.6369 62.754C63.4786 62.798 63.3131 62.8103 63.15 62.7901C62.987 62.7706 62.8294 62.7191 62.6863 62.6387C62.5431 62.5583 62.4173 62.4504 62.3158 62.3214C62.2144 62.1923 62.1393 62.0445 62.095 61.8864C62.0507 61.7283 62.0379 61.5631 62.0575 61.4001L64.8225 38.4426C64.8949 37.7904 65.095 37.1589 65.4115 36.584C65.7279 36.0092 66.1545 35.5023 66.6669 35.0924C67.1792 34.6824 67.7673 34.3773 68.3975 34.1947C69.0278 34.012 69.6878 33.9552 70.34 34.0276C70.9922 34.1 71.6237 34.3001 72.1985 34.6166C72.7734 34.933 73.2802 35.3596 73.6902 35.8719C74.1002 36.3843 74.4052 36.9724 74.5879 37.6026C74.7706 38.2328 74.8274 38.8929 74.755 39.5451L71.7775 63.6601C71.7398 63.9626 71.593 64.2409 71.3647 64.443C71.1364 64.645 70.8423 64.7569 70.5375 64.7576ZM77.3 94.0501C76.9685 94.0501 76.6505 93.9184 76.4161 93.684C76.1817 93.4495 76.05 93.1316 76.05 92.8001V90.8501C76.05 89.3851 76.5625 87.9651 77.49 86.8501L78.3225 85.8651C79.5543 84.3878 80.4615 82.668 80.9852 80.8172C81.509 78.9665 81.6375 77.0262 81.3625 75.1226L81.1375 73.4951C81.1084 73.3295 81.113 73.1598 81.151 72.996C81.189 72.8323 81.2596 72.6779 81.3587 72.5421C81.4577 72.4063 81.5832 72.2918 81.7275 72.2056C81.8717 72.1194 82.032 72.0632 82.1985 72.0403C82.365 72.0174 82.5345 72.0284 82.6967 72.0725C82.8589 72.1166 83.0105 72.193 83.1425 72.297C83.2745 72.4011 83.3842 72.5307 83.4649 72.6782C83.5457 72.8256 83.5959 72.9878 83.6125 73.1551L83.8375 74.7776C84.1607 77.0289 84.0068 79.323 83.3857 81.511C82.7647 83.699 81.6903 85.7318 80.2325 87.4776L79.4025 88.4576C78.8489 89.1317 78.5474 89.9777 78.55 90.8501V92.7976C78.5503 92.9619 78.5182 93.1247 78.4555 93.2767C78.3929 93.4286 78.3009 93.5667 78.1848 93.6831C78.0686 93.7994 77.9307 93.8917 77.7789 93.9547C77.6271 94.0177 77.4643 94.0501 77.3 94.0501Z" fill="white"/>
</g>
<defs>
<clipPath id="clip0_10012_77">
<rect width="60" height="60" fill="white" transform="translate(34 34)"/>
</clipPath>
</defs>
</svg>
