<svg width="128" height="128" viewBox="0 0 128 128" fill="none" xmlns="http://www.w3.org/2000/svg">
<circle cx="64" cy="64" r="64" fill="#7D26FF"/>
<path d="M78.8051 70.3694L69.7376 69.0532L65.682 60.8369C65.0501 59.5563 62.9501 59.5563 62.3182 60.8369L58.2626 69.0532L49.1951 70.3694C48.8484 70.4195 48.5227 70.5656 48.2548 70.7913C47.9869 71.017 47.7876 71.3132 47.6795 71.6464C47.5713 71.9796 47.5587 72.3364 47.643 72.6764C47.7273 73.0164 47.9051 73.326 48.1564 73.5701L54.7189 79.9638L53.1682 88.9957C53.1099 89.3403 53.149 89.6944 53.281 90.0181C53.4131 90.3417 53.6329 90.622 53.9157 90.8274C54.1985 91.0329 54.5331 91.1553 54.8817 91.1808C55.2303 91.2063 55.5791 91.134 55.8889 90.9719L64.0001 86.7082L72.1114 90.9719C72.421 91.1342 72.7698 91.2067 73.1184 91.1813C73.467 91.1558 73.8016 91.0334 74.0843 90.8279C74.3671 90.6224 74.5867 90.3419 74.7185 90.0182C74.8503 89.6944 74.8889 89.3402 74.8301 88.9957L73.2814 79.9638L79.8439 73.5701C80.0937 73.3254 80.2703 73.0158 80.3537 72.6762C80.4372 72.3366 80.4242 71.9805 80.3163 71.6479C80.2083 71.3152 80.0097 71.0194 79.7427 70.7935C79.4757 70.5676 79.151 70.4208 78.8051 70.3694ZM69.9589 77.9669C69.5164 78.3982 69.3157 79.0169 69.4207 79.6263L70.4932 85.8851L64.872 82.9301C64.6032 82.7885 64.3039 82.7145 64.0001 82.7145C63.6963 82.7145 63.3971 82.7885 63.1282 82.9301L57.507 85.8851L58.5814 79.6263C58.6323 79.3267 58.6098 79.0191 58.5157 78.7301C58.4217 78.4411 58.2589 78.1792 58.0414 77.9669L53.4945 73.5344L59.7776 72.6232C60.0786 72.5793 60.3645 72.4628 60.6105 72.2838C60.8564 72.1048 61.0552 71.8686 61.1895 71.5957L64.0001 65.9032L66.8107 71.5957C67.0845 72.1507 67.6114 72.5332 68.2226 72.6232L74.5039 73.5344L69.9589 77.9669Z" fill="white"/>
<path d="M49.5082 60.7112L50.7363 59.4831V65.7212C50.7363 66.2185 50.9339 66.6954 51.2855 67.047C51.6371 67.3987 52.114 67.5962 52.6113 67.5962C53.1086 67.5962 53.5855 67.3987 53.9371 67.047C54.2888 66.6954 54.4863 66.2185 54.4863 65.7212V59.4831L55.7126 60.7112C56.9144 61.915 58.9713 61.0618 58.9713 59.3612C58.9713 58.855 58.7707 58.3693 58.4126 58.0112L53.9613 53.56C53.7841 53.3826 53.5736 53.242 53.342 53.146C53.1103 53.05 52.862 53.0006 52.6113 53.0006C52.3606 53.0006 52.1123 53.05 51.8807 53.146C51.649 53.242 51.4386 53.3826 51.2613 53.56L46.8063 58.0112C46.4501 58.3693 46.2476 58.855 46.2476 59.3612C46.2476 61.0618 48.3063 61.915 49.5082 60.7112ZM81.1919 54.2593L76.7388 49.8081C76.5616 49.6308 76.3511 49.4901 76.1195 49.3941C75.8878 49.2981 75.6395 49.2487 75.3888 49.2487C75.1381 49.2487 74.8898 49.2981 74.6582 49.3941C74.4265 49.4901 74.2161 49.6308 74.0388 49.8081L69.5876 54.2593C69.2313 54.6175 69.0288 55.1031 69.0288 55.6093C69.0288 57.31 71.0857 58.1612 72.2876 56.9593L73.5138 55.7312V65.7212C73.5138 66.2185 73.7114 66.6954 74.063 67.047C74.4146 67.3987 74.8915 67.5962 75.3888 67.5962C75.8861 67.5962 76.363 67.3987 76.7146 67.047C77.0663 66.6954 77.2638 66.2185 77.2638 65.7212V55.7312L78.4919 56.9593C79.6919 58.1612 81.7507 57.31 81.7507 55.6093C81.7507 55.1031 81.5482 54.6175 81.1919 54.2593ZM60.8988 44.5225L62.1251 43.2943V55.1631C62.1251 55.6604 62.3226 56.1373 62.6742 56.4889C63.0259 56.8405 63.5028 57.0381 64.0001 57.0381C64.4973 57.0381 64.9743 56.8405 65.3259 56.4889C65.6775 56.1373 65.8751 55.6604 65.8751 55.1631V43.2943L67.1013 44.5225C68.3051 45.7262 70.3601 44.875 70.3601 43.1725C70.3601 42.6662 70.1594 42.1806 69.8013 41.8225L65.3501 37.3731C65.1728 37.1958 64.9623 37.0551 64.7307 36.9591C64.4991 36.8631 64.2508 36.8137 64.0001 36.8137C63.7493 36.8137 63.501 36.8631 63.2694 36.9591C63.0378 37.0551 62.8273 37.1958 62.6501 37.3731L58.1988 41.8262C57.8407 42.1825 57.6401 42.67 57.6401 43.1762C57.6401 44.8768 59.6951 45.7262 60.8988 44.5262V44.5225Z" fill="white"/>
</svg>
