<svg width="128" height="128" viewBox="0 0 128 128" fill="none" xmlns="http://www.w3.org/2000/svg">
<circle cx="64" cy="64" r="64" fill="#7D26FF"/>
<g clip-path="url(#clip0_10012_85)">
<path d="M93.9678 71.5495C93.8183 68.1118 93.2205 64.3005 92.3237 60.7133C91.4269 57.2756 90.3059 54.0621 88.9607 51.5959C83.7294 42.4038 78.0498 43.8237 71.2491 45.6173C69.0818 46.1405 66.7651 46.7383 64.3737 46.9625H63.6264C61.2349 46.7383 58.9182 46.1405 56.751 45.6173C49.9503 43.8985 44.2706 42.4038 39.0393 51.6707C37.6941 54.1368 36.4984 57.3503 35.6764 60.788C34.7796 64.3752 34.1817 68.1866 34.0322 71.6243C33.8828 75.4356 34.2564 78.2007 35.0785 80.1438C35.9006 81.9374 37.0963 83.0584 38.6657 83.5068C40.0856 83.8804 41.7297 83.731 43.4486 82.9836C46.3631 81.7879 49.7261 79.247 53.0143 76.183C55.331 73.941 59.6655 72.82 64 72.82C68.3345 72.82 72.669 73.941 74.9857 76.183C78.2739 79.247 81.6369 81.7879 84.5515 82.9836C86.2703 83.6562 87.9145 83.8804 89.3344 83.5068C90.829 83.0584 92.0995 82.0121 92.9215 80.0691C93.7436 78.2007 94.1173 75.4356 93.9678 71.5495ZM90.3806 79.0228C89.9322 80.0691 89.3344 80.6669 88.587 80.8911C87.765 81.1153 86.7187 80.9658 85.523 80.5175C82.9074 79.4712 79.8433 77.1545 76.854 74.3146C74.0142 71.4748 69.0071 70.0549 64 70.0549C58.9929 70.0549 53.9859 71.4748 51.0713 74.1652C48.0072 77.005 44.9432 79.3965 42.4023 80.368C41.2066 80.8164 40.1603 81.0406 39.3383 80.7416C38.5909 80.5174 37.9931 79.9196 37.5447 78.8733C36.9468 77.4534 36.6479 75.1367 36.7974 71.699C36.9468 68.4855 37.4699 64.8236 38.3667 61.3859C39.1888 58.1724 40.2351 55.1831 41.5055 52.9411C45.6158 45.5426 50.3987 46.7383 56.0784 48.233C58.3951 48.8308 60.7865 49.4287 63.4022 49.6529H64.5231C67.2135 49.4287 69.605 48.8308 71.9217 48.233C77.6014 46.813 82.3842 45.5426 86.4945 52.9411C87.765 55.1831 88.8112 58.0977 89.6333 61.3859C90.4554 64.8236 91.0532 68.4108 91.2027 71.699C91.3521 75.1367 91.0532 77.4534 90.3806 79.0228Z" fill="white"/>
<path d="M57.1247 56.9766C56.3773 56.304 55.4805 55.7809 54.4343 55.7062C54.3595 54.7347 53.9111 53.7631 53.2386 53.0905L53.1638 53.0158C52.3418 52.1938 51.2955 51.7454 50.0998 51.7454C48.9041 51.7454 47.7831 52.2685 47.0358 53.0158C46.3632 53.6884 45.84 54.6599 45.7653 55.7062C44.719 55.7809 43.8222 56.2293 43.0749 56.9019L43.0002 56.9766C42.1781 57.7987 41.7297 58.845 41.7297 60.0407C41.7297 61.2364 42.2529 62.3574 43.0002 63.1047C43.7475 63.852 44.6443 64.3004 45.7653 64.3752C45.84 65.4214 46.2884 66.393 47.0358 67.0655C47.8578 67.8876 48.9041 68.336 50.0998 68.336C51.2955 68.336 52.4165 67.8129 53.1638 67.0655C53.8364 66.3182 54.3595 65.4214 54.4343 64.3752C55.4805 64.3004 56.4521 63.852 57.1247 63.1047C57.9467 62.2827 58.3951 61.2364 58.3951 60.0407C58.3951 58.845 57.872 57.724 57.1247 56.9766ZM55.2563 61.1617C54.9574 61.4606 54.5837 61.6101 54.1353 61.6101H53.0891C52.3418 61.6101 51.6692 62.2079 51.6692 63.03V64.0015C51.6692 64.4499 51.5197 64.8236 51.2208 65.1225C50.9218 65.4214 50.5482 65.5709 50.0998 65.5709C49.6514 65.5709 49.2777 65.4214 48.9788 65.1225C48.6799 64.8236 48.5304 64.4499 48.5304 64.0015V62.9553C48.5304 62.2079 47.9325 61.5353 47.1105 61.5353H46.0642C45.6158 61.5353 45.2422 61.3859 44.9432 61.0869C44.719 60.8627 44.4948 60.4891 44.4948 60.0407C44.4948 59.5923 44.6443 59.2186 44.9432 58.9197L45.018 58.845C45.3169 58.6208 45.6906 58.4713 46.0642 58.4713H47.1105C47.8578 58.4713 48.5304 57.8734 48.5304 57.0514V56.0051C48.5304 55.5567 48.6799 55.1831 48.9788 54.8841C49.2777 54.5852 49.6514 54.4357 50.0998 54.4357C50.5482 54.4357 50.9218 54.5852 51.2208 54.8841L51.2955 54.9589C51.5197 55.2578 51.6692 55.6315 51.6692 56.0051V57.0514C51.6692 57.7987 52.267 58.4713 53.0891 58.4713H54.1353C54.5837 58.4713 54.9574 58.6208 55.2563 58.9197C55.5553 59.2186 55.7047 59.5923 55.7047 60.0407C55.7047 60.4891 55.5553 60.8627 55.2563 61.1617Z" fill="white"/>
<path d="M77.0036 57.3504C78.4482 57.3504 79.6192 56.1794 79.6192 54.7348C79.6192 53.2902 78.4482 52.1191 77.0036 52.1191C75.559 52.1191 74.3879 53.2902 74.3879 54.7348C74.3879 56.1794 75.559 57.3504 77.0036 57.3504Z" fill="white"/>
<path d="M77.0036 67.9625C78.4482 67.9625 79.6192 66.7914 79.6192 65.3468C79.6192 63.9023 78.4482 62.7312 77.0036 62.7312C75.559 62.7312 74.3879 63.9023 74.3879 65.3468C74.3879 66.7914 75.559 67.9625 77.0036 67.9625Z" fill="white"/>
<path d="M71.6974 62.6563C73.142 62.6563 74.3131 61.4853 74.3131 60.0407C74.3131 58.5961 73.142 57.425 71.6974 57.425C70.2528 57.425 69.0818 58.5961 69.0818 60.0407C69.0818 61.4853 70.2528 62.6563 71.6974 62.6563Z" fill="white"/>
<path d="M82.3095 62.6563C83.7541 62.6563 84.9251 61.4853 84.9251 60.0407C84.9251 58.5961 83.7541 57.425 82.3095 57.425C80.8649 57.425 79.6938 58.5961 79.6938 60.0407C79.6938 61.4853 80.8649 62.6563 82.3095 62.6563Z" fill="white"/>
</g>
<defs>
<clipPath id="clip0_10012_85">
<rect width="60" height="60" fill="white" transform="translate(34 34)"/>
</clipPath>
</defs>
</svg>
