<svg width="128" height="128" viewBox="0 0 128 128" fill="none" xmlns="http://www.w3.org/2000/svg">
<circle cx="64" cy="64" r="64" fill="#7D26FF"/>
<path d="M64 36.5C58.561 36.5 53.2442 38.1128 48.7218 41.1346C44.1995 44.1563 40.6747 48.4512 38.5933 53.4762C36.5119 58.5012 35.9673 64.0305 37.0284 69.365C38.0895 74.6995 40.7086 79.5995 44.5546 83.4454C48.4005 87.2914 53.3006 89.9105 58.635 90.9716C63.9695 92.0327 69.4988 91.4881 74.5238 89.4067C79.5488 87.3253 83.8437 83.8005 86.8654 79.2782C89.8872 74.7558 91.5 69.439 91.5 64C91.4914 56.7092 88.5913 49.7195 83.436 44.5641C78.2806 39.4087 71.2908 36.5086 64 36.5ZM64 86.5C59.5499 86.5 55.1998 85.1804 51.4997 82.7081C47.7996 80.2357 44.9157 76.7217 43.2127 72.6104C41.5098 68.499 41.0642 63.975 41.9323 59.6105C42.8005 55.2459 44.9434 51.2368 48.0901 48.0901C51.2368 44.9434 55.2459 42.8005 59.6105 41.9323C63.9751 41.0642 68.4991 41.5097 72.6104 43.2127C76.7217 44.9157 80.2357 47.7996 82.7081 51.4997C85.1804 55.1998 86.5 59.5499 86.5 64C86.4927 69.9651 84.1199 75.6839 79.9019 79.9019C75.6839 84.1199 69.9651 86.4927 64 86.5Z" fill="white"/>
<path d="M66.5 62.965V49C66.5 48.337 66.2366 47.7011 65.7678 47.2322C65.2989 46.7634 64.663 46.5 64 46.5C63.337 46.5 62.7011 46.7634 62.2322 47.2322C61.7634 47.7011 61.5 48.337 61.5 49V64C61.5001 64.663 61.7636 65.2988 62.2325 65.7675L69.7325 73.2675C70.204 73.7229 70.8355 73.9749 71.491 73.9692C72.1465 73.9635 72.7735 73.7006 73.237 73.237C73.7006 72.7735 73.9635 72.1465 73.9692 71.491C73.9749 70.8355 73.7229 70.204 73.2675 69.7325L66.5 62.965Z" fill="white"/>
</svg>
