<svg width="52" height="52" viewBox="0 0 52 52" fill="none" xmlns="http://www.w3.org/2000/svg">
<g id="Frame">
<g id="Group">
<g id="Group_2">
<path id="Vector" d="M21.7533 45.4797C23.8663 45.5369 25.9133 44.743 27.4361 43.2766C30.9842 39.7276 30.16 33.1305 25.5979 28.5684C21.0357 24.0063 14.4369 23.1821 10.8897 26.7302C7.3424 30.2783 8.1666 36.8754 12.7287 41.4375C15.0933 43.9122 18.3326 45.3631 21.7533 45.4797ZM12.1151 27.9557C12.7085 27.3873 13.4092 26.9431 14.1763 26.6488C14.9435 26.3546 15.7616 26.2164 16.5828 26.2423C19.5423 26.37 22.3359 27.6444 24.3724 29.7956C28.2577 33.6817 29.0836 39.1799 26.2106 42.0529C23.3376 44.9259 17.8403 44.0982 13.9533 40.2129C10.0663 36.3277 9.24387 30.8278 12.1151 27.9557Z" fill="#7090E3"/>
<path id="Vector_2" d="M7.21351 46.9534C10.2312 50.0763 14.3572 51.8852 18.6986 51.9887C20.1971 52.0216 21.6873 51.7561 23.0822 51.2075C24.4771 50.6589 25.7489 49.8382 26.8236 48.7933L29.8872 45.7297C31.092 44.4825 31.9999 42.9796 32.5433 41.3329C33.0866 39.6862 33.2514 37.9381 33.0254 36.2189C32.5772 32.3804 30.8197 28.8137 28.049 26.1196C25.3548 23.3491 21.7882 21.5917 17.9498 21.1432C16.2306 20.9171 14.4826 21.0818 12.8358 21.625C11.1891 22.1682 9.68621 23.0759 8.43898 24.2805L5.37358 27.3433C0.475179 32.24 1.30025 41.0401 7.21351 46.9534ZM16.5536 22.8046C16.9609 22.8046 17.3682 22.8254 17.7747 22.8661C21.2154 23.2735 24.4116 24.8551 26.8236 27.3433C29.3108 29.7549 30.8918 32.9494 31.3008 36.3896C31.4991 37.8533 31.3647 39.3428 30.9078 40.7474C30.4509 42.152 29.6832 43.4355 28.6618 44.5025C27.5951 45.5239 26.3117 46.2917 24.9072 46.7486C23.5028 47.2055 22.0133 47.3398 20.5498 47.1415C17.1095 46.7319 13.915 45.151 11.5026 42.6643C9.01589 40.252 7.43498 37.0574 7.02545 33.6171C6.82711 32.1535 6.96139 30.6639 7.41829 29.2593C7.87519 27.8547 8.64295 26.5712 9.66445 25.5043C10.5755 24.6188 11.6541 23.9239 12.837 23.4604C14.02 22.9968 15.2835 22.7739 16.5536 22.8046ZM5.46025 29.9936C5.22308 31.2445 5.16849 32.5231 5.29818 33.7896C5.74735 37.6281 7.50467 41.1947 10.2746 43.8897C12.9696 46.6596 16.5363 48.417 20.3747 48.8661C20.8479 48.9129 21.315 48.9363 21.7752 48.9363C22.5734 48.9363 23.3699 48.8618 24.1551 48.7136C19.7802 51.5554 13.1268 50.4175 8.43638 45.7279C3.74598 41.0384 2.60805 34.3677 5.46025 29.9936ZM9.95565 3.69633C7.75518 3.1642 5.86151 3.55333 4.62305 4.79267C3.38458 6.032 2.99545 7.9248 3.52671 10.1253C4.14417 12.3831 5.36055 14.4319 7.04711 16.055C9.48678 18.4955 12.3754 19.8146 14.7934 19.8137C15.439 19.8374 16.0829 19.7315 16.6869 19.5023C17.291 19.2731 17.8429 18.9251 18.3103 18.4791C20.7872 16.0004 19.723 11.0535 15.8836 7.21673C14.2616 5.52979 12.2131 4.31332 9.95565 3.69633ZM17.0848 17.2536C15.3515 18.9826 11.3189 17.875 8.27258 14.8269C6.81083 13.429 5.75357 11.6624 5.21238 9.7136C4.82671 8.1224 5.05378 6.80853 5.84851 6.0138C6.15436 5.73392 6.51291 5.51781 6.90323 5.37808C7.29355 5.23835 7.7078 5.17781 8.12178 5.2C8.60312 5.20452 9.08224 5.2659 9.54918 5.38287C11.4981 5.92426 13.2647 6.98183 14.6625 8.44393C17.7054 11.4868 18.8156 15.5229 17.0848 17.2536ZM48.2008 7.70293L45.6008 5.10293C42.5077 2.0072 36.2928 3.38 31.4524 8.2212C29.313 10.2781 27.7696 12.8753 26.9856 15.7378C26.3226 18.4834 26.8002 20.8373 28.3307 22.3687H28.335L30.935 24.9687C31.5143 25.5204 32.1984 25.9503 32.9467 26.2332C33.695 26.516 34.4924 26.6459 35.2918 26.6153C38.3338 26.6153 41.9885 24.9392 45.0851 21.8487C49.9202 17.0083 51.2931 10.7943 48.2008 7.70293ZM28.6704 16.1443C29.3799 13.5921 30.7643 11.2783 32.6779 9.44667C35.3837 6.74093 38.6978 5.20953 41.2839 5.20953C41.8473 5.18121 42.4107 5.2654 42.9412 5.45721C43.4716 5.64902 43.9586 5.94459 44.3736 6.32667C45.4587 7.41433 45.7733 9.18667 45.2576 11.3221C44.5498 13.8747 43.1665 16.1891 41.2536 18.0215C37.2366 22.0376 31.8814 23.4659 29.5536 21.1415C28.4694 20.0555 28.1539 18.2806 28.6704 16.1443ZM32.4777 24.0067C32.547 24.0067 32.6155 24.0145 32.6866 24.0145C35.7295 24.0145 39.3842 22.3383 42.4799 19.2435C44.6186 17.1864 46.1616 14.5896 46.9459 11.7277C47.1478 10.907 47.2405 10.0637 47.2215 9.21873C49.1749 11.6731 47.7146 16.7587 43.8571 20.6215C40.0108 24.4695 34.9434 25.935 32.4777 24.0067ZM23.2312 0C23.0014 0 22.781 0.0913093 22.6184 0.253841C22.4559 0.416372 22.3646 0.636812 22.3646 0.866667V3.46667C22.3646 3.69652 22.4559 3.91696 22.6184 4.07949C22.781 4.24202 23.0014 4.33333 23.2312 4.33333C23.4611 4.33333 23.6815 4.24202 23.8441 4.07949C24.0066 3.91696 24.0979 3.69652 24.0979 3.46667V0.866667C24.0979 0.636812 24.0066 0.416372 23.8441 0.253841C23.6815 0.0913093 23.4611 0 23.2312 0ZM22.3646 9.53333C22.3646 9.76319 22.4559 9.98363 22.6184 10.1462C22.781 10.3087 23.0014 10.4 23.2312 10.4C23.4611 10.4 23.6815 10.3087 23.8441 10.1462C24.0066 9.98363 24.0979 9.76319 24.0979 9.53333V6.93333C24.0979 6.70348 24.0066 6.48304 23.8441 6.32051C23.6815 6.15798 23.4611 6.06667 23.2312 6.06667C23.0014 6.06667 22.781 6.15798 22.6184 6.32051C22.4559 6.48304 22.3646 6.70348 22.3646 6.93333V9.53333ZM24.9646 6.06667H27.5646C27.7944 6.06667 28.0149 5.97536 28.1774 5.81283C28.3399 5.65029 28.4312 5.42985 28.4312 5.2C28.4312 4.97015 28.3399 4.74971 28.1774 4.58717C28.0149 4.42464 27.7944 4.33333 27.5646 4.33333H24.9646C24.7347 4.33333 24.5143 4.42464 24.3518 4.58717C24.1892 4.74971 24.0979 4.97015 24.0979 5.2C24.0979 5.42985 24.1892 5.65029 24.3518 5.81283C24.5143 5.97536 24.7347 6.06667 24.9646 6.06667ZM21.4979 4.33333H18.8979C18.6681 4.33333 18.4476 4.42464 18.2851 4.58717C18.1226 4.74971 18.0312 4.97015 18.0312 5.2C18.0312 5.42985 18.1226 5.65029 18.2851 5.81283C18.4476 5.97536 18.6681 6.06667 18.8979 6.06667H21.4979C21.7278 6.06667 21.9482 5.97536 22.1107 5.81283C22.2733 5.65029 22.3646 5.42985 22.3646 5.2C22.3646 4.97015 22.2733 4.74971 22.1107 4.58717C21.9482 4.42464 21.7278 4.33333 21.4979 4.33333ZM43.513 31.4539C43.3505 31.2915 43.1301 31.2002 42.9002 31.2002C42.6704 31.2002 42.45 31.2915 42.2875 31.4539L40.5542 33.1873C40.4714 33.2672 40.4054 33.3629 40.36 33.4686C40.3145 33.5743 40.2906 33.688 40.2896 33.8031C40.2886 33.9182 40.3106 34.0323 40.3541 34.1388C40.3977 34.2453 40.4621 34.3421 40.5434 34.4235C40.6248 34.5049 40.7216 34.5692 40.8281 34.6128C40.9346 34.6564 41.0487 34.6783 41.1638 34.6773C41.2789 34.6763 41.3926 34.6524 41.4983 34.607C41.6041 34.5615 41.6997 34.4955 41.7797 34.4127L43.513 32.6794C43.6755 32.5169 43.7667 32.2965 43.7667 32.0667C43.7667 31.8369 43.6755 31.6165 43.513 31.4539ZM37.9542 35.7873L36.2208 37.5206C36.1381 37.6005 36.072 37.6962 36.0266 37.8019C35.9812 37.9077 35.9573 38.0214 35.9563 38.1365C35.9553 38.2515 35.9772 38.3657 36.0208 38.4722C36.0644 38.5787 36.1287 38.6754 36.2101 38.7568C36.2915 38.8382 36.3882 38.9025 36.4948 38.9461C36.6013 38.9897 36.7154 39.0116 36.8305 39.0106C36.9455 39.0096 37.0593 38.9857 37.165 38.9403C37.2707 38.8949 37.3664 38.8288 37.4463 38.7461L39.1796 37.0127C39.3375 36.8493 39.4249 36.6304 39.4229 36.4031C39.4209 36.1759 39.3298 35.9585 39.1691 35.7978C39.0084 35.6371 38.791 35.546 38.5638 35.544C38.3366 35.542 38.1176 35.6294 37.9542 35.7873ZM41.7797 35.7873C41.6162 35.6294 41.3973 35.542 41.17 35.544C40.9428 35.546 40.7254 35.6371 40.5647 35.7978C40.4041 35.9585 40.3129 36.1759 40.3109 36.4031C40.309 36.6304 40.3963 36.8493 40.5542 37.0127L42.2875 38.7461C42.451 38.9039 42.6699 38.9913 42.8971 38.9893C43.1244 38.9873 43.3417 38.8962 43.5024 38.7355C43.6631 38.5748 43.7543 38.3575 43.7562 38.1302C43.7582 37.903 43.6709 37.6841 43.513 37.5206L41.7797 35.7873ZM39.1796 33.1873L37.4463 31.4539C37.2829 31.2961 37.0639 31.2087 36.8367 31.2107C36.6095 31.2127 36.3921 31.3038 36.2314 31.4645C36.0707 31.6252 35.9796 31.8426 35.9776 32.0698C35.9756 32.297 36.063 32.5159 36.2208 32.6794L37.9542 34.4127C38.1176 34.5706 38.3366 34.658 38.5638 34.656C38.791 34.654 39.0084 34.5629 39.1691 34.4022C39.3298 34.2415 39.4209 34.0241 39.4229 33.7969C39.4249 33.5696 39.3375 33.3507 39.1796 33.1873Z" fill="#7090E3"/>
<path id="Vector_3" d="M15.6458 37.1799C15.7476 37.2309 15.8585 37.2612 15.9721 37.2693C16.0857 37.2773 16.1997 37.2629 16.3078 37.2268C16.4158 37.1908 16.5156 37.1338 16.6016 37.0591C16.6876 36.9844 16.758 36.8936 16.8088 36.7917L20.2755 29.8583C20.3782 29.6526 20.3951 29.4145 20.3222 29.1964C20.2494 28.9783 20.093 28.798 19.8872 28.6953C19.6815 28.5925 19.4434 28.5757 19.2253 28.6485C19.0072 28.7213 18.8269 28.8778 18.7242 29.0835L15.2575 36.0169C15.2066 36.1187 15.1762 36.2296 15.1682 36.3432C15.1601 36.4568 15.1746 36.5709 15.2106 36.6789C15.2467 36.7869 15.3037 36.8867 15.3783 36.9727C15.453 37.0587 15.5439 37.1291 15.6458 37.1799ZM19.1124 39.7799C19.2143 39.8309 19.3252 39.8612 19.4388 39.8693C19.5524 39.8773 19.6664 39.8629 19.7744 39.8268C19.8824 39.7908 19.9823 39.7338 20.0683 39.6591C20.1542 39.5844 20.2247 39.4936 20.2755 39.3917L22.0088 35.925C22.1116 35.7193 22.1284 35.4812 22.0556 35.2631C21.9828 35.0449 21.8263 34.8647 21.6206 34.7619C21.4148 34.6592 21.1767 34.6424 20.9586 34.7152C20.7405 34.788 20.5602 34.9445 20.4575 35.1502L18.7242 38.6169C18.6732 38.7187 18.6429 38.8296 18.6348 38.9432C18.6268 39.0568 18.6412 39.1709 18.6773 39.2789C18.7133 39.3869 18.7703 39.4867 18.845 39.5727C18.9197 39.6587 19.0105 39.7291 19.1124 39.7799ZM33.4618 13.7184C33.5553 13.7186 33.6481 13.7034 33.7366 13.6733L41.0902 11.2224C41.3086 11.1497 41.4891 10.9931 41.5921 10.7873C41.695 10.5815 41.712 10.3431 41.6393 10.1248C41.5665 9.90641 41.41 9.72589 41.2042 9.62293C40.9983 9.51997 40.76 9.50299 40.5416 9.57574L33.188 12.0293C32.9925 12.0942 32.8266 12.2266 32.7199 12.4027C32.6133 12.5788 32.5728 12.7872 32.6057 12.9904C32.6387 13.1937 32.7429 13.3786 32.8998 13.512C33.0567 13.6454 33.2559 13.7186 33.4618 13.7184ZM37.4771 15.0929L33.7998 16.3193C33.6917 16.3553 33.5917 16.4123 33.5056 16.4869C33.4195 16.5616 33.349 16.6525 33.298 16.7544C33.247 16.8563 33.2166 16.9673 33.2085 17.081C33.2004 17.1946 33.2148 17.3088 33.2508 17.4169C33.2868 17.525 33.3438 17.625 33.4184 17.7111C33.4931 17.7972 33.584 17.8678 33.6859 17.9188C33.8918 18.0217 34.1301 18.0387 34.3484 17.9659L38.0248 16.7405C38.2432 16.6677 38.4237 16.5112 38.5267 16.3054C38.6296 16.0995 38.6466 15.8612 38.5739 15.6428C38.5011 15.4245 38.3446 15.244 38.1388 15.141C37.9329 15.038 37.6946 15.0211 37.4762 15.0938L37.4771 15.0929Z" fill="#7090E3"/>
</g>
</g>
</g>
</svg>
