<svg width="1270" height="1305" viewBox="0 0 1270 1305" fill="none" xmlns="http://www.w3.org/2000/svg">
<g opacity="0.7" filter="url(#filter0_f_247_3674)">
<ellipse cx="583.5" cy="666.5" rx="183.5" ry="266.5" fill="#442B85"/>
</g>
<circle opacity="0.05" cx="839" cy="573" r="430.5" stroke="white"/>
<circle opacity="0.1" cx="839" cy="573" r="364.731" stroke="white"/>
<circle opacity="0.1" cx="839" cy="573" r="284.268" stroke="white"/>
<circle opacity="0.1" cx="839.001" cy="573" r="201.007" stroke="white"/>
<circle opacity="0.1" cx="839" cy="573" r="127.541" stroke="white"/>
<g opacity="0.3">
<g clip-path="url(#clip0_247_3674)">
<path d="M648.406 373.822H453.338C453.338 373.822 463.275 369.638 468.78 362.235C478.873 348.673 490.261 329.044 512.511 338.06C520.474 341.287 527.003 353.382 536.351 352.924C537.686 352.858 538.956 352.285 540.07 351.548C547.468 346.667 551.556 339.444 561.755 340.247C566.376 340.615 570.62 342.949 574.388 345.643C580.516 350.008 586.037 354.938 593.452 356.994C601.316 359.172 609.337 357.591 616.513 353.955C619.561 352.408 622.444 350.115 625.86 349.959C632.005 349.689 635.929 356.06 639.878 360.761C644.85 366.673 654.214 372.119 661.751 373.822C655.776 373.822 651.328 373.822 648.406 373.822Z" fill="#333742"/>
<path d="M526.38 644.458H434.602C434.602 644.458 439.279 642.492 441.868 639.004C446.62 632.624 451.978 623.387 462.447 627.629C466.191 629.144 469.263 634.835 473.663 634.622C474.293 634.59 474.883 634.319 475.408 633.976C478.889 631.674 480.815 628.284 485.607 628.661C487.786 628.833 489.777 629.93 491.555 631.199C494.438 633.255 497.035 635.572 500.525 636.539C504.228 637.562 507.997 636.825 511.372 635.114C512.806 634.385 514.157 633.304 515.771 633.239C518.663 633.116 520.506 636.105 522.366 638.324C524.701 641.108 529.108 643.671 532.656 644.466H526.38V644.458Z" fill="#333742"/>
<path d="M1132.61 759.089H1056.21C1056.21 759.089 1060.1 757.452 1062.26 754.553C1066.21 749.238 1070.67 741.548 1079.39 745.078C1082.51 746.339 1085.06 751.08 1088.73 750.9C1089.25 750.876 1089.74 750.655 1090.18 750.36C1093.08 748.443 1094.68 745.618 1098.68 745.938C1100.49 746.077 1102.15 746.994 1103.63 748.05C1106.03 749.762 1108.19 751.695 1111.1 752.497C1114.18 753.349 1117.33 752.735 1120.13 751.31C1121.32 750.704 1122.45 749.803 1123.79 749.746C1126.2 749.639 1127.73 752.137 1129.28 753.979C1131.23 756.297 1134.89 758.426 1137.85 759.098H1132.62L1132.61 759.089Z" fill="#333742"/>
<path d="M491.768 800.591L479.873 790.396L482.953 774.959L494.849 785.154L491.768 800.591Z" fill="url(#paint0_linear_247_3674)"/>
<path d="M491.768 800.591L506.661 795.743L509.742 780.307L494.848 785.155L491.768 800.591Z" fill="url(#paint1_linear_247_3674)"/>
<path d="M494.841 785.18L509.759 780.291L497.855 770.087L482.945 774.935L494.841 785.18Z" fill="url(#paint2_linear_247_3674)"/>
<path d="M833.078 788.415C955.352 788.415 1054.48 689.33 1054.48 567.103C1054.48 444.876 955.352 345.791 833.078 345.791C710.803 345.791 611.679 444.876 611.679 567.103C611.679 689.33 710.803 788.415 833.078 788.415Z" fill="url(#paint3_linear_247_3674)"/>
<path d="M992.025 406.333C1037.49 390.07 1070.56 387.834 1081.69 403.353C1105.93 437.141 1017.12 542.29 883.329 638.209C749.532 734.129 621.42 784.5 597.179 750.712C585.792 734.833 599.358 703.207 630.817 664.185" stroke="white" stroke-width="0.95" stroke-miterlimit="10"/>
<path d="M1013.83 438.648C1058.6 422.827 1091.11 420.788 1102.14 436.151C1126.38 469.939 1037.57 575.088 903.778 671.007C769.981 766.927 641.869 817.298 617.628 783.51C606.453 767.934 619.299 737.208 649.488 699.202C650.078 698.465 651.724 696.279 652.322 695.542" stroke="white" stroke-width="0.95" stroke-miterlimit="10"/>
<path d="M501.584 503.711L535.263 498.683L512.603 462.249L501.584 503.711Z" fill="url(#paint4_linear_247_3674)"/>
<path d="M535.263 498.683L501.584 503.711L524.244 540.144L535.263 498.683Z" fill="url(#paint5_linear_247_3674)"/>
<path d="M518.426 501.197L512.602 462.249L535.262 498.683L518.426 501.197Z" fill="url(#paint6_linear_247_3674)"/>
<path d="M518.427 501.197L524.244 540.144L535.263 498.683L518.427 501.197Z" fill="url(#paint7_linear_247_3674)"/>
<path d="M578.534 487.971L560.052 546.974L499.24 559.839L517.714 500.836L578.534 487.971Z" fill="url(#paint8_linear_247_3674)" stroke="white" stroke-width="0.88" stroke-linejoin="round"/>
<path d="M578.534 487.971L537.728 441.514L476.916 454.379L517.714 500.836L578.534 487.971Z" fill="url(#paint9_linear_247_3674)" stroke="white" stroke-width="0.88" stroke-linejoin="round"/>
<path d="M517.821 500.82L476.826 454.354L458.336 513.398L499.175 559.896L517.821 500.82Z" fill="url(#paint10_linear_247_3674)" stroke="white" stroke-width="0.88" stroke-linejoin="round"/>
<path d="M786.182 889.695C792.416 883.824 790.654 871.833 782.247 862.911C773.839 853.99 761.97 851.516 755.735 857.387C749.501 863.258 751.263 875.249 759.67 884.17C768.078 893.092 779.947 895.565 786.182 889.695Z" fill="url(#paint11_linear_247_3674)"/>
<path d="M759.658 884.219C768.063 893.146 779.934 895.619 786.168 889.747L782.563 893.146C776.329 899.017 764.458 896.544 756.053 887.618C747.648 878.692 745.886 866.703 752.121 860.831L755.725 857.433C749.491 863.304 751.252 875.293 759.658 884.219Z" fill="url(#paint12_linear_247_3674)"/>
<path d="M779.515 865.524C773.133 858.752 764.122 856.869 759.387 861.332C754.652 865.787 755.987 874.893 762.369 881.665C768.751 888.438 777.762 890.321 782.497 885.858C787.233 881.403 785.897 872.297 779.515 865.524Z" fill="url(#paint13_linear_247_3674)"/>
<path d="M773.691 883.106L772.798 880.879L770.365 880.936C769.824 880.944 769.283 880.805 768.743 880.51C768.202 880.215 767.702 879.814 767.26 879.306C766.817 878.799 766.473 878.234 766.227 877.628L765.654 876.194L768.538 876.129L769.07 877.447L771.389 877.398L770.234 874.508L767.817 874.565C767.284 874.573 766.752 874.442 766.211 874.155C765.67 873.869 765.179 873.467 764.72 872.96C764.27 872.452 763.909 871.871 763.655 871.215L762.361 867.981C762.107 867.342 762 866.769 762.033 866.253C762.066 865.737 762.238 865.327 762.541 865.024C762.844 864.721 763.27 864.558 763.811 864.55L766.244 864.492L765.351 862.265L768.243 862.199L769.136 864.427L771.552 864.378C772.093 864.369 772.634 864.5 773.175 864.787C773.715 865.074 774.207 865.467 774.649 865.974C775.092 866.482 775.444 867.047 775.698 867.686L776.279 869.144L773.388 869.209L772.847 867.866L770.528 867.915L771.749 870.97L774.166 870.921C774.707 870.912 775.247 871.052 775.788 871.346C776.329 871.641 776.82 872.034 777.254 872.518C777.689 873.009 778.024 873.541 778.254 874.114L779.548 877.349C779.794 877.955 779.892 878.52 779.851 879.044C779.81 879.568 779.647 879.986 779.343 880.297C779.04 880.608 778.631 880.772 778.098 880.78L775.681 880.83L776.574 883.057L773.683 883.122L773.691 883.106ZM768.841 871.019L767.62 867.964L765.302 868.014L766.522 871.068L768.841 871.019ZM774.297 877.333L776.615 877.284L775.46 874.393L773.142 874.442L774.297 877.333Z" fill="url(#paint14_linear_247_3674)"/>
<path d="M808.845 864.901L796.736 904.283L756.25 913.062L768.366 873.68L808.845 864.901Z" fill="url(#paint15_linear_247_3674)" stroke="white" stroke-width="0.66" stroke-linejoin="round"/>
<path d="M808.844 864.901L781.49 834.077L741.012 842.864L768.366 873.68L808.844 864.901Z" fill="url(#paint16_linear_247_3674)" stroke="white" stroke-width="0.66" stroke-linejoin="round"/>
<path d="M768.432 873.664L740.955 842.84L728.83 882.254L756.209 913.103L768.432 873.664Z" fill="url(#paint17_linear_247_3674)" stroke="white" stroke-width="0.66" stroke-linejoin="round"/>
<path d="M949.517 330.305L950.279 332.795C950.336 332.975 950.476 333.114 950.664 333.163L953.269 333.892C953.818 334.048 953.818 334.785 953.269 334.94L950.664 335.669C950.476 335.718 950.328 335.857 950.279 336.038L949.517 338.527C949.361 339.051 948.583 339.051 948.427 338.527L947.666 336.038C947.608 335.857 947.469 335.718 947.28 335.669L944.675 334.94C944.126 334.785 944.126 334.048 944.675 333.892L947.28 333.163C947.469 333.114 947.616 332.975 947.666 332.795L948.427 330.305C948.583 329.781 949.361 329.781 949.517 330.305Z" fill="white"/>
<path d="M533.198 697.22L533.935 699.75C533.984 699.93 534.132 700.078 534.312 700.127L536.843 700.864C537.376 701.019 537.376 701.773 536.843 701.928L534.312 702.665C534.132 702.714 533.993 702.862 533.935 703.042L533.198 705.572C533.042 706.105 532.289 706.105 532.133 705.572L531.396 703.042C531.346 702.862 531.199 702.723 531.019 702.665L528.487 701.928C527.955 701.773 527.955 701.019 528.487 700.864L531.019 700.127C531.199 700.078 531.346 699.93 531.396 699.75L532.133 697.22C532.289 696.687 533.042 696.687 533.198 697.22Z" fill="white"/>
<path d="M1163.2 426.683L1163.93 429.214C1163.98 429.394 1164.13 429.541 1164.31 429.591L1166.84 430.328C1167.37 430.483 1167.37 431.237 1166.84 431.392L1164.31 432.129C1164.13 432.178 1163.98 432.326 1163.93 432.506L1163.2 435.036C1163.04 435.569 1162.29 435.569 1162.13 435.036L1161.39 432.506C1161.34 432.326 1161.2 432.178 1161.02 432.129L1158.49 431.392C1157.95 431.237 1157.95 430.483 1158.49 430.328L1161.02 429.591C1161.2 429.541 1161.34 429.394 1161.39 429.214L1162.13 426.683C1162.29 426.151 1163.04 426.151 1163.2 426.683Z" fill="white"/>
<path d="M453.584 717.955L453.928 719.142C453.953 719.224 454.018 719.298 454.108 719.323L455.296 719.667C455.55 719.74 455.55 720.092 455.296 720.166L454.108 720.51C454.026 720.535 453.953 720.6 453.928 720.69L453.584 721.878C453.51 722.132 453.158 722.132 453.084 721.878L452.74 720.69C452.716 720.608 452.65 720.535 452.56 720.51L451.372 720.166C451.118 720.092 451.118 719.74 451.372 719.667L452.56 719.323C452.642 719.298 452.716 719.233 452.74 719.142L453.084 717.955C453.158 717.701 453.51 717.701 453.584 717.955Z" fill="white"/>
<path d="M1040.97 879.117L1041.67 881.541C1041.72 881.713 1041.86 881.852 1042.03 881.901L1044.46 882.606C1044.96 882.753 1044.96 883.474 1044.46 883.621L1042.03 884.325C1041.86 884.375 1041.72 884.514 1041.67 884.686L1040.97 887.11C1040.82 887.617 1040.1 887.617 1039.95 887.11L1039.25 884.686C1039.2 884.514 1039.06 884.375 1038.89 884.325L1036.46 883.621C1035.95 883.474 1035.95 882.753 1036.46 882.606L1038.89 881.901C1039.06 881.852 1039.2 881.713 1039.25 881.541L1039.95 879.117C1040.1 878.609 1040.82 878.609 1040.97 879.117Z" fill="white"/>
<path d="M1212.82 714.016L1214.24 718.897C1214.34 719.249 1214.62 719.519 1214.97 719.625L1219.86 721.05C1220.88 721.353 1220.88 722.803 1219.86 723.098L1214.97 724.522C1214.62 724.621 1214.35 724.899 1214.24 725.251L1212.82 730.132C1212.52 731.156 1211.06 731.156 1210.77 730.132L1209.34 725.251C1209.25 724.899 1208.97 724.629 1208.62 724.522L1203.73 723.098C1202.71 722.795 1202.71 721.345 1203.73 721.05L1208.62 719.625C1208.97 719.527 1209.24 719.249 1209.34 718.897L1210.77 714.016C1211.07 712.992 1212.52 712.992 1212.82 714.016Z" fill="white"/>
<path d="M594.401 418.781L596.081 424.53C596.204 424.939 596.523 425.267 596.933 425.381L602.684 427.06C603.888 427.412 603.888 429.124 602.684 429.476L596.933 431.155C596.523 431.277 596.195 431.597 596.081 432.006L594.401 437.755C594.049 438.959 592.337 438.959 591.984 437.755L590.305 432.006C590.182 431.597 589.863 431.269 589.453 431.155L583.702 429.476C582.498 429.124 582.498 427.412 583.702 427.06L589.453 425.381C589.863 425.258 590.19 424.939 590.305 424.53L591.984 418.781C592.337 417.577 594.049 417.577 594.401 418.781Z" fill="white"/>
<path d="M1010.03 567.499C1010.03 662.506 932.977 739.525 837.933 739.525C742.888 739.525 665.84 662.506 665.84 567.499C665.84 472.492 742.888 395.474 837.933 395.474C932.977 395.474 1010.03 472.492 1010.03 567.499Z" stroke="url(#paint18_linear_247_3674)"/>
<path d="M838.119 724.082C839.059 724.095 839.999 724.101 840.939 724.099L840.876 692.958C840.105 692.96 839.335 692.955 838.565 692.944L838.119 724.082Z" fill="#F2B43A"/>
<path d="M856.172 723.395C857.108 723.31 858.043 723.217 858.978 723.117L855.658 692.154C854.893 692.236 854.126 692.312 853.359 692.381L856.172 723.395Z" fill="#F2B43A"/>
<path d="M874.054 720.825C874.976 720.643 875.896 720.453 876.815 720.256L870.276 689.809C869.523 689.971 868.769 690.126 868.013 690.275L874.054 720.825Z" fill="#F2B43A"/>
<path d="M894.439 715.487C895.332 715.194 896.222 714.894 897.11 714.586L886.908 685.162C886.18 685.414 885.451 685.66 884.719 685.901L894.439 715.487Z" fill="#F2B43A"/>
<path d="M911.284 708.962C912.141 708.578 912.996 708.186 913.847 707.787L900.624 679.591C899.926 679.917 899.226 680.238 898.524 680.554L911.284 708.962Z" fill="#F2B43A"/>
<path d="M924.738 702.205C925.558 701.746 926.375 701.282 927.188 700.81L911.557 673.873C910.891 674.259 910.221 674.64 909.549 675.016L924.738 702.205Z" fill="#F2B43A"/>
<path d="M820.094 722.879C821.027 722.99 821.961 723.094 822.896 723.19L826.089 692.214C825.323 692.135 824.558 692.049 823.793 691.958L820.094 722.879Z" fill="#F2B43A"/>
<path d="M805.236 720.441C806.156 720.634 807.077 720.818 808 720.996L813.882 690.415C813.126 690.27 812.371 690.118 811.617 689.961L805.236 720.441Z" fill="#F2B43A"/>
<path d="M787.771 715.822C788.666 716.11 789.563 716.39 790.462 716.663L799.51 686.864C798.773 686.64 798.038 686.411 797.305 686.175L787.771 715.822Z" fill="#F2B43A"/>
<path d="M773.651 710.595C774.517 710.96 775.387 711.317 776.259 711.667L787.87 682.77C787.156 682.483 786.443 682.191 785.733 681.892L773.651 710.595Z" fill="#F2B43A"/>
<path d="M747.043 696.56C747.833 697.07 748.627 697.572 749.425 698.069L765.88 671.626C765.226 671.22 764.576 670.808 763.928 670.39L747.043 696.56Z" fill="#F2B43A"/>
<path d="M738.738 672.328C739.354 672.939 739.975 673.545 740.601 674.145L751.692 662.602C751.129 662.062 750.571 661.517 750.017 660.967L738.738 672.328Z" fill="#F2B43A"/>
<path d="M731.123 664.227C731.695 664.88 732.272 665.527 732.854 666.17L744.724 655.428C744.2 654.85 743.681 654.268 743.167 653.681L731.123 664.227Z" fill="#F2B43A"/>
<path d="M722.43 653.388C722.942 654.087 723.461 654.783 723.985 655.474L736.746 645.807C736.274 645.186 735.808 644.56 735.347 643.931L722.43 653.388Z" fill="#F2B43A"/>
<path d="M714.714 641.832C715.164 642.574 715.62 643.312 716.081 644.046L729.637 635.527C729.221 634.867 728.811 634.203 728.407 633.536L714.714 641.832Z" fill="#F2B43A"/>
<path d="M709.286 632.131C709.683 632.902 710.086 633.67 710.495 634.434L724.612 626.882C724.243 626.194 723.881 625.503 723.524 624.81L709.286 632.131Z" fill="#F2B43A"/>
<path d="M703.474 619.511C703.802 620.313 704.136 621.113 704.477 621.911L719.199 615.617C718.892 614.9 718.591 614.18 718.296 613.458L703.474 619.511Z" fill="#F2B43A"/>
<path d="M698.784 606.432C699.041 607.261 699.304 608.087 699.575 608.911L714.789 603.924C714.546 603.182 714.309 602.439 714.078 601.694L698.784 606.432Z" fill="#F2B43A"/>
<path d="M695.252 592.995C695.436 593.843 695.627 594.689 695.824 595.533L711.415 591.89C711.238 591.131 711.066 590.37 710.901 589.607L695.252 592.995Z" fill="#F2B43A"/>
<path d="M692.906 579.301C693.015 580.162 693.131 581.021 693.254 581.879L709.103 579.609C708.993 578.837 708.888 578.064 708.79 577.29L692.906 579.301Z" fill="#F2B43A"/>
<path d="M691.762 565.455C691.796 566.322 691.837 567.188 691.884 568.054L707.871 567.173C707.828 566.394 707.792 565.615 707.762 564.835L691.762 565.455Z" fill="#F2B43A"/>
<path d="M691.83 551.562C691.788 552.428 691.753 553.295 691.725 554.162L707.728 554.677C707.753 553.897 707.785 553.118 707.823 552.338L691.83 551.562Z" fill="#F2B43A"/>
<path d="M693.109 537.728C692.992 538.587 692.881 539.447 692.778 540.308L708.675 542.216C708.768 541.441 708.868 540.667 708.973 539.895L693.109 537.728Z" fill="#F2B43A"/>
<path d="M695.59 524.058C695.398 524.904 695.213 525.751 695.035 526.6L710.705 529.885C710.865 529.121 711.032 528.359 711.204 527.598L695.59 524.058Z" fill="#F2B43A"/>
<path d="M936.625 673.84C936.009 674.415 935.388 674.985 934.763 675.55L923.672 664.691C924.234 664.183 924.793 663.67 925.347 663.153L936.625 673.84Z" fill="#F2B43A"/>
<path d="M944.24 666.22C943.668 666.834 943.091 667.443 942.509 668.048L930.639 657.943C931.163 657.399 931.682 656.851 932.196 656.299L944.24 666.22Z" fill="#F2B43A"/>
<path d="M952.934 656.023C952.421 656.681 951.903 657.335 951.379 657.985L938.618 648.891C939.089 648.307 939.555 647.718 940.016 647.126L952.934 656.023Z" fill="#F2B43A"/>
<path d="M960.649 645.152C960.2 645.85 959.744 646.544 959.282 647.234L945.727 639.221C946.142 638.6 946.552 637.975 946.957 637.348L960.649 645.152Z" fill="#F2B43A"/>
<path d="M966.078 636.025C965.681 636.751 965.278 637.473 964.868 638.193L950.752 631.088C951.12 630.441 951.483 629.791 951.839 629.138L966.078 636.025Z" fill="#F2B43A"/>
<path d="M971.89 624.153C971.562 624.909 971.227 625.661 970.886 626.411L956.165 620.491C956.471 619.816 956.772 619.139 957.067 618.46L971.89 624.153Z" fill="#F2B43A"/>
<path d="M976.579 611.85C976.323 612.629 976.059 613.407 975.789 614.182L960.575 609.49C960.818 608.793 961.055 608.094 961.286 607.393L976.579 611.85Z" fill="#F2B43A"/>
<path d="M980.111 599.209C979.927 600.006 979.737 600.802 979.539 601.597L963.948 598.17C964.126 597.455 964.297 596.739 964.462 596.022L980.111 599.209Z" fill="#F2B43A"/>
<path d="M982.458 586.327C982.348 587.136 982.232 587.945 982.109 588.752L966.26 586.616C966.371 585.89 966.475 585.163 966.573 584.435L982.458 586.327Z" fill="#F2B43A"/>
<path d="M983.601 573.301C983.568 574.117 983.527 574.932 983.479 575.746L967.492 574.917C967.535 574.185 967.572 573.452 967.602 572.718L983.601 573.301Z" fill="#F2B43A"/>
<path d="M983.533 560.232C983.575 561.047 983.61 561.862 983.638 562.677L967.635 563.162C967.61 562.428 967.579 561.695 967.541 560.962L983.533 560.232Z" fill="#F2B43A"/>
<path d="M982.254 547.217C982.372 548.026 982.482 548.835 982.585 549.645L966.688 551.439C966.595 550.711 966.496 549.983 966.39 549.256L982.254 547.217Z" fill="#F2B43A"/>
<path d="M979.774 534.358C979.966 535.153 980.151 535.95 980.329 536.749L964.658 539.839C964.498 539.121 964.332 538.404 964.159 537.688L979.774 534.358Z" fill="#F2B43A"/>
<path d="M696.699 493.483C696.225 494.294 695.757 495.109 695.296 495.927L720.939 510.358C721.321 509.679 721.709 509.003 722.103 508.33L696.699 493.483Z" fill="#F2B43A"/>
<path d="M704.859 480.833C704.315 481.6 703.778 482.371 703.248 483.146L727.535 499.756C727.975 499.113 728.42 498.473 728.871 497.838L704.859 480.833Z" fill="#F2B43A"/>
<path d="M714.09 468.943C713.482 469.66 712.88 470.381 712.284 471.107L735.03 489.77C735.525 489.167 736.024 488.569 736.529 487.975L714.09 468.943Z" fill="#F2B43A"/>
<path d="M724.323 457.902C723.655 458.563 722.992 459.229 722.335 459.901L743.367 480.474C743.913 479.917 744.463 479.364 745.017 478.816L724.323 457.902Z" fill="#F2B43A"/>
<path d="M735.48 447.795C734.757 448.395 734.038 449.001 733.325 449.613L752.484 471.94C753.075 471.433 753.671 470.93 754.271 470.432L735.48 447.795Z" fill="#F2B43A"/>
<path d="M749.967 437.007C749.185 437.528 748.407 438.055 747.634 438.589L764.353 462.796C764.995 462.353 765.64 461.915 766.289 461.483L749.967 437.007Z" fill="#F2B43A"/>
<path d="M762.848 429.213C762.024 429.664 761.203 430.122 760.386 430.586L774.931 456.157C775.609 455.772 776.289 455.393 776.973 455.018L762.848 429.213Z" fill="#F2B43A"/>
<path d="M776.36 422.571C775.499 422.949 774.642 423.333 773.787 423.725L786.047 450.466C786.756 450.141 787.467 449.822 788.181 449.509L776.36 422.571Z" fill="#F2B43A"/>
<path d="M790.399 417.132C789.509 417.433 788.621 417.741 787.735 418.057L797.617 445.764C798.352 445.503 799.088 445.247 799.827 444.997L790.399 417.132Z" fill="#F2B43A"/>
<path d="M804.859 412.937C803.946 413.159 803.035 413.389 802.125 413.626L809.553 442.089C810.308 441.892 811.064 441.702 811.821 441.517L804.859 412.937Z" fill="#F2B43A"/>
<path d="M819.63 410.017C818.701 410.159 817.773 410.308 816.846 410.465L821.765 439.467C822.533 439.337 823.303 439.213 824.074 439.095L819.63 410.017Z" fill="#F2B43A"/>
<path d="M948.163 460.343C947.479 459.699 946.79 459.06 946.096 458.427L926.261 480.156C926.837 480.681 927.408 481.211 927.976 481.746L948.163 460.343Z" fill="#F2B43A"/>
<path d="M958.657 471.136C958.032 470.434 957.401 469.738 956.765 469.047L935.111 488.965C935.639 489.539 936.162 490.117 936.681 490.699L958.657 471.136Z" fill="#F2B43A"/>
<path d="M969.949 485.232C969.401 484.469 968.846 483.711 968.286 482.957L944.668 500.504C945.133 501.129 945.593 501.759 946.047 502.392L969.949 485.232Z" fill="#F2B43A"/>
<path d="M979.705 500.431C979.239 499.615 978.767 498.803 978.289 497.994L952.965 512.978C953.362 513.648 953.754 514.322 954.14 514.999L979.705 500.431Z" fill="#F2B43A"/>
<mask id="path-90-inside-1_247_3674" fill="white">
<path d="M719.627 671.199C700.575 650.339 687.539 624.925 681.847 597.55C676.155 570.175 678.011 541.818 687.226 515.37L690.226 516.364C681.191 542.294 679.371 570.097 684.951 596.937C690.532 623.776 703.314 648.693 721.992 669.145L719.627 671.199Z"/>
</mask>
<path d="M719.627 671.199C700.575 650.339 687.539 624.925 681.847 597.55C676.155 570.175 678.011 541.818 687.226 515.37L690.226 516.364C681.191 542.294 679.371 570.097 684.951 596.937C690.532 623.776 703.314 648.693 721.992 669.145L719.627 671.199Z" stroke="#E9AD44" stroke-width="4" mask="url(#path-90-inside-1_247_3674)"/>
<mask id="path-91-inside-2_247_3674" fill="white">
<path d="M934.439 693.699C961.087 673.581 980.635 645.86 990.36 614.397C1000.09 582.934 999.502 549.297 988.693 518.173L985.692 519.163C996.29 549.679 996.862 582.658 987.327 613.505C977.792 644.353 958.626 671.532 932.499 691.256L934.439 693.699Z"/>
</mask>
<path d="M934.439 693.699C961.087 673.581 980.635 645.86 990.36 614.397C1000.09 582.934 999.502 549.297 988.693 518.173L985.692 519.163C996.29 549.679 996.862 582.658 987.327 613.505C977.792 644.353 958.626 671.532 932.499 691.256L934.439 693.699Z" stroke="#E9AD44" stroke-width="4" mask="url(#path-91-inside-2_247_3674)"/>
<path d="M839.035 439.081L847.629 410.622L853.404 412.365L861.453 433.913L866.745 416.39L872.927 418.256L864.333 446.715L859.005 445.107L850.68 422.855L845.217 440.947L839.035 439.081Z" fill="#FDFDB2"/>
<path d="M876.128 451.95L887.863 424.635L893.875 427.215L884.487 449.068L898.111 454.916L895.764 460.379L876.128 451.95Z" fill="#FDFDB2"/>
<path d="M907.835 466.301L920.64 446.358L913.025 441.473L916.283 436.397L937.02 449.702L933.762 454.777L926.146 449.891L913.341 469.834L907.835 466.301Z" fill="#FDFDB2"/>
<path fill-rule="evenodd" clip-rule="evenodd" d="M822.185 471.946L826.186 475.437L754.676 557.316L840.805 657.761L836.773 661.216L747.654 557.285L822.185 471.946Z" fill="#FDC95B"/>
<path fill-rule="evenodd" clip-rule="evenodd" d="M852.098 471.946L848.098 475.437L919.607 557.316L833.478 656.835L837.461 662.143L926.629 557.285L852.098 471.946Z" fill="#FDC95B"/>
<path d="M790.992 513.506C780.371 536.863 760.457 551.992 753.818 557.301C771.078 569.245 785.682 590.479 790.992 601.096V513.506Z" fill="#FDC95B"/>
<path d="M883.928 513.506C894.549 536.863 914.463 551.992 921.102 557.301C903.842 569.245 889.238 590.479 883.928 601.096V513.506Z" fill="#FDC95B"/>
<path d="M785.682 554.646L764.439 557.301L785.682 558.628V554.646Z" fill="#734E12"/>
<path d="M889.238 554.646L910.48 557.301L889.238 558.628V554.646Z" fill="#734E12"/>
<path d="M793.648 587.824L838.156 662.143L878.617 587.824H793.648Z" fill="url(#paint19_linear_247_3674)"/>
<path d="M834.141 627.638L836.796 648.872L838.124 627.638L834.141 627.638Z" fill="#734E12"/>
<g filter="url(#filter1_d_247_3674)">
<path d="M796.449 604.658C795.897 604.658 795.449 604.21 795.449 603.658V507.451C795.449 506.899 795.897 506.451 796.449 506.451H814.344C814.66 506.451 814.958 506.601 815.147 506.856L857.851 564.485C858.424 565.259 859.654 564.853 859.654 563.889V507.451C859.654 506.899 860.102 506.451 860.654 506.451H879.418C879.97 506.451 880.418 506.899 880.418 507.451V603.658C880.418 604.21 879.97 604.658 879.418 604.658H863.026C862.709 604.658 862.412 604.508 862.223 604.254L818.016 544.657C817.442 543.883 816.213 544.29 816.213 545.253V603.658C816.213 604.21 815.766 604.658 815.213 604.658H796.449Z" fill="#FDC95B"/>
</g>
</g>
</g>
<defs>
<filter id="filter0_f_247_3674" x="0" y="0" width="1167" height="1333" filterUnits="userSpaceOnUse" color-interpolation-filters="sRGB">
<feFlood flood-opacity="0" result="BackgroundImageFix"/>
<feBlend mode="normal" in="SourceGraphic" in2="BackgroundImageFix" result="shape"/>
<feGaussianBlur stdDeviation="200" result="effect1_foregroundBlur_247_3674"/>
</filter>
<filter id="filter1_d_247_3674" x="779.449" y="490.451" width="116.969" height="130.207" filterUnits="userSpaceOnUse" color-interpolation-filters="sRGB">
<feFlood flood-opacity="0" result="BackgroundImageFix"/>
<feColorMatrix in="SourceAlpha" type="matrix" values="0 0 0 0 0 0 0 0 0 0 0 0 0 0 0 0 0 0 127 0" result="hardAlpha"/>
<feOffset/>
<feGaussianBlur stdDeviation="8"/>
<feComposite in2="hardAlpha" operator="out"/>
<feColorMatrix type="matrix" values="0 0 0 0 0 0 0 0 0 0 0 0 0 0 0 0 0 0 1 0"/>
<feBlend mode="normal" in2="BackgroundImageFix" result="effect1_dropShadow_247_3674"/>
<feBlend mode="normal" in="SourceGraphic" in2="effect1_dropShadow_247_3674" result="shape"/>
</filter>
<linearGradient id="paint0_linear_247_3674" x1="494.127" y1="775.776" x2="481.5" y2="798.135" gradientUnits="userSpaceOnUse">
<stop stop-color="#C422C6" stop-opacity="0.1"/>
<stop offset="0.27" stop-color="#D55ED7" stop-opacity="0.4"/>
<stop offset="0.53" stop-color="#E493E7" stop-opacity="0.66"/>
<stop offset="0.74" stop-color="#EFB8F2" stop-opacity="0.84"/>
<stop offset="0.91" stop-color="#F6D0F9" stop-opacity="0.96"/>
<stop offset="1" stop-color="#F9D9FC"/>
</linearGradient>
<linearGradient id="paint1_linear_247_3674" x1="490.606" y1="788.134" x2="517.255" y2="794.283" gradientUnits="userSpaceOnUse">
<stop stop-color="#C422C6" stop-opacity="0.1"/>
<stop offset="0.27" stop-color="#D55ED7" stop-opacity="0.4"/>
<stop offset="0.53" stop-color="#E493E7" stop-opacity="0.66"/>
<stop offset="0.74" stop-color="#EFB8F2" stop-opacity="0.84"/>
<stop offset="0.91" stop-color="#F6D0F9" stop-opacity="0.96"/>
<stop offset="1" stop-color="#F9D9FC"/>
</linearGradient>
<linearGradient id="paint2_linear_247_3674" x1="497.724" y1="768.435" x2="494.213" y2="791.593" gradientUnits="userSpaceOnUse">
<stop stop-color="#C422C6" stop-opacity="0.1"/>
<stop offset="0.27" stop-color="#D55ED7" stop-opacity="0.4"/>
<stop offset="0.53" stop-color="#E493E7" stop-opacity="0.66"/>
<stop offset="0.74" stop-color="#EFB8F2" stop-opacity="0.84"/>
<stop offset="0.91" stop-color="#F6D0F9" stop-opacity="0.96"/>
<stop offset="1" stop-color="#F9D9FC"/>
</linearGradient>
<linearGradient id="paint3_linear_247_3674" x1="757.214" y1="286.007" x2="890.332" y2="779.913" gradientUnits="userSpaceOnUse">
<stop stop-color="#E9A1EC" stop-opacity="0.7"/>
<stop offset="0.05" stop-color="#E187E4" stop-opacity="0.57"/>
<stop offset="0.12" stop-color="#6182D6" stop-opacity="0.37"/>
<stop offset="0.18" stop-color="#CC40CF" stop-opacity="0.21"/>
<stop offset="0.24" stop-color="#C62AC8" stop-opacity="0.09"/>
<stop offset="0.3" stop-color="#C21CC4" stop-opacity="0.02"/>
<stop offset="0.34" stop-color="#0D43CD" stop-opacity="0"/>
<stop offset="0.5" stop-color="#8191BA" stop-opacity="0.05"/>
<stop offset="0.63" stop-color="#4A6DC8" stop-opacity="0.1"/>
<stop offset="0.79" stop-color="#8191BA" stop-opacity="0.48"/>
<stop offset="1" stop-color="#8191BA"/>
</linearGradient>
<linearGradient id="paint4_linear_247_3674" x1="558.371" y1="488.551" x2="381.031" y2="469.342" gradientUnits="userSpaceOnUse">
<stop offset="0.12" stop-color="#F0D3F5"/>
<stop offset="0.21" stop-color="#EED0F4" stop-opacity="0.99"/>
<stop offset="0.28" stop-color="#EBC9F2" stop-opacity="0.95"/>
<stop offset="0.34" stop-color="#E6BDEE" stop-opacity="0.89"/>
<stop offset="0.39" stop-color="#DEADE8" stop-opacity="0.8"/>
<stop offset="0.44" stop-color="#D497E2" stop-opacity="0.68"/>
<stop offset="0.48" stop-color="#C87CD9" stop-opacity="0.54"/>
<stop offset="0.53" stop-color="#B95CCF" stop-opacity="0.36"/>
<stop offset="0.57" stop-color="#A839C4" stop-opacity="0.17"/>
<stop offset="0.6" stop-color="#9A19BA" stop-opacity="0"/>
</linearGradient>
<linearGradient id="paint5_linear_247_3674" x1="527.411" y1="577.203" x2="513" y2="455.884" gradientUnits="userSpaceOnUse">
<stop offset="0.12" stop-color="#F0BDF5"/>
<stop offset="0.21" stop-color="#EEBAF4" stop-opacity="0.98"/>
<stop offset="0.29" stop-color="#EAB2F1" stop-opacity="0.94"/>
<stop offset="0.37" stop-color="#E3A5EC" stop-opacity="0.86"/>
<stop offset="0.45" stop-color="#DA93E6" stop-opacity="0.75"/>
<stop offset="0.53" stop-color="#CD7BDD" stop-opacity="0.6"/>
<stop offset="0.61" stop-color="#BE5FD3" stop-opacity="0.43"/>
<stop offset="0.69" stop-color="#AD3DC7" stop-opacity="0.22"/>
<stop offset="0.77" stop-color="#9A19BA" stop-opacity="0"/>
</linearGradient>
<linearGradient id="paint6_linear_247_3674" x1="499.531" y1="505.999" x2="544.535" y2="458.8" gradientUnits="userSpaceOnUse">
<stop offset="0.27" stop-color="#9500BA" stop-opacity="0"/>
<stop offset="0.62" stop-color="#F0BDF5"/>
</linearGradient>
<linearGradient id="paint7_linear_247_3674" x1="481.464" y1="494.879" x2="554.057" y2="532.258" gradientUnits="userSpaceOnUse">
<stop offset="0.27" stop-color="#9A19BA" stop-opacity="0"/>
<stop offset="0.62" stop-color="#F0BDF5"/>
</linearGradient>
<linearGradient id="paint8_linear_247_3674" x1="586.787" y1="569.807" x2="503.784" y2="491.358" gradientUnits="userSpaceOnUse">
<stop offset="0.32" stop-color="#FFEDFF"/>
<stop offset="0.34" stop-color="#FEEBFE" stop-opacity="0.94"/>
<stop offset="0.46" stop-color="#FCE5FD" stop-opacity="0.61"/>
<stop offset="0.56" stop-color="#FBDFFD" stop-opacity="0.35"/>
<stop offset="0.65" stop-color="#F9DCFC" stop-opacity="0.16"/>
<stop offset="0.71" stop-color="#F9D9FC" stop-opacity="0.04"/>
<stop offset="0.75" stop-color="#F9D9FC" stop-opacity="0"/>
</linearGradient>
<linearGradient id="paint9_linear_247_3674" x1="543.207" y1="408.249" x2="518.351" y2="507.018" gradientUnits="userSpaceOnUse">
<stop offset="0.07" stop-color="#FFB6FF"/>
<stop offset="0.1" stop-color="#FEB8FE" stop-opacity="0.94"/>
<stop offset="0.29" stop-color="#FCC3FD" stop-opacity="0.61"/>
<stop offset="0.45" stop-color="#FBCCFD" stop-opacity="0.35"/>
<stop offset="0.59" stop-color="#F9D3FC" stop-opacity="0.16"/>
<stop offset="0.69" stop-color="#F9D7FC" stop-opacity="0.04"/>
<stop offset="0.75" stop-color="#F9D9FC" stop-opacity="0"/>
</linearGradient>
<linearGradient id="paint10_linear_247_3674" x1="380.091" y1="468.818" x2="663.907" y2="569.652" gradientUnits="userSpaceOnUse">
<stop offset="0.07" stop-color="#FFB6FF"/>
<stop offset="0.08" stop-color="#FEB8FE" stop-opacity="0.94"/>
<stop offset="0.19" stop-color="#FCC3FD" stop-opacity="0.61"/>
<stop offset="0.28" stop-color="#FBCCFD" stop-opacity="0.35"/>
<stop offset="0.35" stop-color="#F9D3FC" stop-opacity="0.16"/>
<stop offset="0.41" stop-color="#F9D7FC" stop-opacity="0.04"/>
<stop offset="0.44" stop-color="#F9D9FC" stop-opacity="0"/>
</linearGradient>
<linearGradient id="paint11_linear_247_3674" x1="787.223" y1="907.018" x2="758.35" y2="846.709" gradientUnits="userSpaceOnUse">
<stop offset="0.23" stop-color="#4E0778"/>
<stop offset="0.37" stop-color="#500A79"/>
<stop offset="0.49" stop-color="#581380"/>
<stop offset="0.58" stop-color="#65238A"/>
<stop offset="0.68" stop-color="#783B99"/>
<stop offset="0.76" stop-color="#9058AC"/>
<stop offset="0.85" stop-color="#AE7DC3"/>
<stop offset="0.93" stop-color="#D1A7DE"/>
<stop offset="1" stop-color="#F7D6FC"/>
</linearGradient>
<linearGradient id="paint12_linear_247_3674" x1="797.286" y1="918.672" x2="717.51" y2="828.032" gradientUnits="userSpaceOnUse">
<stop offset="0.12" stop-color="#F0BDF5"/>
<stop offset="0.22" stop-color="#EDBAF3"/>
<stop offset="0.3" stop-color="#E6B0ED"/>
<stop offset="0.36" stop-color="#DAA1E3"/>
<stop offset="0.42" stop-color="#C88BD4"/>
<stop offset="0.48" stop-color="#B26EC2"/>
<stop offset="0.53" stop-color="#964BAB"/>
<stop offset="0.58" stop-color="#762291"/>
<stop offset="0.61" stop-color="#5E037D"/>
</linearGradient>
<linearGradient id="paint13_linear_247_3674" x1="793.116" y1="852.579" x2="743.573" y2="899.791" gradientUnits="userSpaceOnUse">
<stop offset="0.23" stop-color="#4E0778"/>
<stop offset="0.4" stop-color="#6E2F91"/>
<stop offset="0.77" stop-color="#C193D1"/>
<stop offset="1" stop-color="#F7D6FC"/>
</linearGradient>
<linearGradient id="paint14_linear_247_3674" x1="741.478" y1="861.143" x2="782.469" y2="877.155" gradientUnits="userSpaceOnUse">
<stop offset="0.23" stop-color="#4E0778"/>
<stop offset="0.4" stop-color="#6E2F91"/>
<stop offset="0.77" stop-color="#C193D1"/>
<stop offset="1" stop-color="#F7D6FC"/>
</linearGradient>
<linearGradient id="paint15_linear_247_3674" x1="829.801" y1="932.233" x2="755.981" y2="864.611" gradientUnits="userSpaceOnUse">
<stop offset="0.07" stop-color="white"/>
<stop offset="0.39" stop-color="#FCECFD" stop-opacity="0.51"/>
<stop offset="0.64" stop-color="#F9DEFC" stop-opacity="0.14"/>
<stop offset="0.75" stop-color="#F9D9FC" stop-opacity="0"/>
</linearGradient>
<linearGradient id="paint16_linear_247_3674" x1="784.911" y1="812.121" x2="768.692" y2="878.041" gradientUnits="userSpaceOnUse">
<stop offset="0.28" stop-color="white"/>
<stop offset="0.3" stop-color="#FEFCFE" stop-opacity="0.94"/>
<stop offset="0.43" stop-color="#FCF0FD" stop-opacity="0.61"/>
<stop offset="0.54" stop-color="#FBE6FD" stop-opacity="0.35"/>
<stop offset="0.64" stop-color="#F9DFFC" stop-opacity="0.16"/>
<stop offset="0.71" stop-color="#F9DAFC" stop-opacity="0.04"/>
<stop offset="0.75" stop-color="#F9D9FC" stop-opacity="0"/>
</linearGradient>
<linearGradient id="paint17_linear_247_3674" x1="676.53" y1="852.822" x2="866.036" y2="919.029" gradientUnits="userSpaceOnUse">
<stop offset="0.07" stop-color="#FFE3FF"/>
<stop offset="0.16" stop-color="#FDE0FE" stop-opacity="0.75"/>
<stop offset="0.25" stop-color="#FCDEFD" stop-opacity="0.53"/>
<stop offset="0.34" stop-color="#FBDCFD" stop-opacity="0.34"/>
<stop offset="0.42" stop-color="#FADAFC" stop-opacity="0.19"/>
<stop offset="0.5" stop-color="#F9D9FC" stop-opacity="0.09"/>
<stop offset="0.57" stop-color="#F9D9FC" stop-opacity="0.02"/>
<stop offset="0.62" stop-color="#F9D9FC" stop-opacity="0"/>
</linearGradient>
<linearGradient id="paint18_linear_247_3674" x1="1010.53" y1="567.499" x2="665.34" y2="567.499" gradientUnits="userSpaceOnUse">
<stop stop-color="#F4C169"/>
<stop offset="1" stop-color="#E0DE9F"/>
</linearGradient>
<linearGradient id="paint19_linear_247_3674" x1="836.133" y1="587.824" x2="836.133" y2="662.143" gradientUnits="userSpaceOnUse">
<stop stop-color="#080808" stop-opacity="0"/>
<stop offset="0.317933" stop-color="#AC7728"/>
<stop offset="0.728012" stop-color="#FDC95B"/>
<stop offset="1" stop-color="#FDC95B"/>
</linearGradient>
<clipPath id="clip0_247_3674">
<rect width="825" height="650" fill="white" transform="translate(415 332)"/>
</clipPath>
</defs>
</svg>
