<svg width="50" height="45" viewBox="0 0 50 45" fill="none" xmlns="http://www.w3.org/2000/svg">
<circle cx="25" cy="25" r="20" fill="url(#paint0_linear_0_10261)"/>
<path opacity="0.1" fill-rule="evenodd" clip-rule="evenodd" d="M0.228697 25C0.355003 25 0.457283 24.8974 0.458459 24.7711C0.518315 18.3447 3.0971 12.1944 7.64576 7.64575C12.2484 3.04312 18.4909 0.457393 25 0.457394C31.5091 0.457394 37.7516 3.04313 42.3542 7.64576C46.9029 12.1944 49.4817 18.3447 49.5415 24.7711C49.5427 24.8974 49.645 25 49.7713 25C49.8976 25 50.0001 24.8976 49.999 24.7713C49.9966 24.5137 49.9903 24.2566 49.98 24C49.7294 17.733 47.1298 11.7745 42.6777 7.32233C37.9893 2.63392 31.6304 0 25 0C18.3696 0 12.0107 2.63392 7.32233 7.32233C2.87015 11.7745 0.270644 17.733 0.0199868 24C0.0097232 24.2566 0.00339779 24.5137 0.00104463 24.7713C-0.000109281 24.8976 0.102391 25 0.228697 25Z" fill="white"/>
<path d="M18 25L23 30L33 20" stroke="black" stroke-width="2" stroke-linecap="round" stroke-linejoin="round"/>
<defs>
<linearGradient id="paint0_linear_0_10261" x1="25" y1="5" x2="25" y2="45" gradientUnits="userSpaceOnUse">
<stop stop-color="#121317"/>
<stop offset="1" stop-color="#425FD1"/>
</linearGradient>
</defs>
</svg>
