<svg width="25" height="25" viewBox="0 0 25 25" fill="none" xmlns="http://www.w3.org/2000/svg">
<path d="M16.5 12.5C16.5 13.2911 16.2654 14.0645 15.8259 14.7223C15.3864 15.3801 14.7616 15.8928 14.0307 16.1955C13.2998 16.4983 12.4956 16.5775 11.7196 16.4231C10.9437 16.2688 10.231 15.8878 9.67157 15.3284C9.11216 14.769 8.7312 14.0563 8.57686 13.2804C8.42252 12.5044 8.50173 11.7002 8.80448 10.9693C9.10723 10.2384 9.61992 9.61365 10.2777 9.17412C10.9355 8.7346 11.7089 8.5 12.5 8.5C13.5599 8.5033 14.5754 8.92578 15.3248 9.67521C16.0742 10.4246 16.4967 11.4401 16.5 12.5ZM25 7V18C25 19.8565 24.2625 21.637 22.9497 22.9497C21.637 24.2625 19.8565 25 18 25H7C5.14348 25 3.36301 24.2625 2.05025 22.9497C0.737498 21.637 0 19.8565 0 18V7C0 5.14348 0.737498 3.36301 2.05025 2.05025C3.36301 0.737498 5.14348 0 7 0H18C19.8565 0 21.637 0.737498 22.9497 2.05025C24.2625 3.36301 25 5.14348 25 7ZM18.5 12.5C18.5 11.3133 18.1481 10.1533 17.4888 9.16658C16.8295 8.17988 15.8925 7.41085 14.7961 6.95672C13.6997 6.5026 12.4933 6.38378 11.3295 6.61529C10.1656 6.8468 9.09647 7.41824 8.25736 8.25736C7.41824 9.09647 6.8468 10.1656 6.61529 11.3295C6.38378 12.4933 6.5026 13.6997 6.95672 14.7961C7.41085 15.8925 8.17988 16.8295 9.16658 17.4888C10.1533 18.1481 11.3133 18.5 12.5 18.5C14.0913 18.5 15.6174 17.8679 16.7426 16.7426C17.8679 15.6174 18.5 14.0913 18.5 12.5ZM20.5 6C20.5 5.70333 20.412 5.41332 20.2472 5.16665C20.0824 4.91997 19.8481 4.72771 19.574 4.61418C19.2999 4.50065 18.9983 4.47094 18.7074 4.52882C18.4164 4.5867 18.1491 4.72956 17.9393 4.93934C17.7296 5.14912 17.5867 5.41639 17.5288 5.70736C17.4709 5.99834 17.5007 6.29994 17.6142 6.57403C17.7277 6.84811 17.92 7.08238 18.1666 7.2472C18.4133 7.41203 18.7033 7.5 19 7.5C19.3978 7.5 19.7794 7.34196 20.0607 7.06066C20.342 6.77936 20.5 6.39782 20.5 6Z" fill="#D96E9B"/>
</svg>
