<svg width="40" height="24" viewBox="0 0 40 24" fill="none" xmlns="http://www.w3.org/2000/svg">
<path fill-rule="evenodd" clip-rule="evenodd" d="M39.0584 1.66667C39.3551 0.726667 39.0584 0.0433331 37.7459 0.0433331H33.3817C32.2809 0.0433331 31.7725 0.641666 31.4759 1.28167C31.4759 1.28167 29.2309 6.74833 26.0959 10.2925C25.0792 11.3175 24.6134 11.6592 24.0625 11.6592C23.7659 11.6592 23.3842 11.3175 23.3842 10.3783V1.6225C23.3842 0.5125 23.0459 0 22.1134 0H15.25C14.5717 0 14.1484 0.5125 14.1484 1.025C14.1484 2.0925 15.7159 2.34917 15.885 5.33833V11.8333C15.885 13.2425 15.635 13.5 15.08 13.5C13.5975 13.5 9.99668 7.99083 7.83668 1.71333C7.41668 0.47 6.99001 0 5.88834 0H1.4825C0.211667 0 0 0.5975 0 1.23833C0 2.39167 1.4825 8.19917 6.90501 15.8858C10.5058 21.1358 15.6317 23.9575 20.2492 23.9575C23.0459 23.9575 23.3842 23.3167 23.3842 22.2492V18.2775C23.3842 16.9967 23.6384 16.7833 24.5284 16.7833C25.1634 16.7833 26.3075 17.1242 28.8917 19.6442C31.8567 22.6333 32.365 24 34.0175 24H38.3809C39.6517 24 40.2451 23.3592 39.9059 22.1208C39.5251 20.8825 38.0842 19.0892 36.2201 16.9542C35.2034 15.7592 33.6784 14.435 33.2125 13.7942C32.5775 12.94 32.7467 12.5983 33.2125 11.83C33.17 11.83 38.5084 4.22833 39.0584 1.66333" fill="#D96E9B"/>
</svg>
