<svg width="1300" height="1130" viewBox="0 0 1300 1130" fill="none" xmlns="http://www.w3.org/2000/svg">
<g opacity="0.3" clip-path="url(#clip0_0_2644)">
<path d="M399.255 74.0966H119.066C119.066 74.0966 133.34 68.0836 141.248 57.4461C155.745 37.9596 172.101 9.75367 204.061 22.7093C215.498 27.3456 224.877 44.7258 238.303 44.0668C240.221 43.9727 242.045 43.1489 243.646 42.0899C254.271 35.0767 260.143 24.698 274.793 25.8512C281.43 26.3807 287.525 29.7344 292.938 33.6058C301.74 39.8777 309.671 46.9615 320.321 49.9151C331.617 53.0452 343.137 50.7741 353.445 45.5495C357.823 43.3255 361.965 40.0306 366.872 39.8071C375.697 39.4187 381.333 48.5736 387.005 55.328C394.148 63.8239 407.598 71.6491 418.424 74.0966C409.841 74.0966 403.452 74.0966 399.255 74.0966Z" fill="#333742"/>
<path d="M223.982 462.979H92.1543C92.1543 462.979 98.8734 460.155 102.592 455.142C109.417 445.975 117.113 432.702 132.151 438.797C137.529 440.974 141.941 449.153 148.26 448.847C149.166 448.8 150.014 448.411 150.767 447.917C155.768 444.61 158.533 439.739 165.417 440.28C168.547 440.527 171.406 442.104 173.96 443.928C178.102 446.882 181.832 450.212 186.845 451.6C192.164 453.071 197.577 452.012 202.425 449.553C204.484 448.505 206.425 446.952 208.744 446.858C212.897 446.681 215.545 450.976 218.216 454.165C221.57 458.166 227.901 461.849 232.996 462.991H223.982V462.979Z" fill="#333742"/>
<path d="M1094.75 627.695H985.013C985.013 627.695 990.602 625.342 993.697 621.176C999.38 613.539 1005.78 602.49 1018.3 607.562C1022.79 609.374 1026.46 616.187 1031.72 615.928C1032.47 615.893 1033.18 615.575 1033.81 615.151C1037.98 612.398 1040.27 608.338 1046.01 608.797C1048.61 608.997 1051 610.315 1053.12 611.833C1056.57 614.292 1059.68 617.07 1063.85 618.223C1068.28 619.447 1072.8 618.564 1076.82 616.516C1078.54 615.646 1080.15 614.351 1082.08 614.269C1085.54 614.116 1087.74 617.705 1089.96 620.353C1092.76 623.683 1098.02 626.742 1102.27 627.707H1094.77L1094.75 627.695Z" fill="#333742"/>
<path d="M174.266 687.331L157.18 672.681L161.604 650.5L178.69 665.15L174.266 687.331Z" fill="url(#paint0_linear_0_2644)"/>
<path d="M174.266 687.332L195.658 680.366L200.083 658.185L178.69 665.151L174.266 687.332Z" fill="url(#paint1_linear_0_2644)"/>
<path d="M178.679 665.186L200.107 658.161L183.009 643.499L161.593 650.465L178.679 665.186Z" fill="url(#paint2_linear_0_2644)"/>
<path d="M664.51 669.834C840.141 669.834 982.518 527.457 982.518 351.826C982.518 176.194 840.141 33.8174 664.51 33.8174C488.879 33.8174 346.502 176.194 346.502 351.826C346.502 527.457 488.879 669.834 664.51 669.834Z" fill="url(#paint3_linear_0_2644)"/>
<path d="M892.817 120.812C958.125 97.4423 1005.62 94.2299 1021.61 116.529C1056.43 165.08 928.86 316.171 736.69 454C544.508 591.829 360.493 664.209 325.674 615.657C309.318 592.841 328.804 547.396 373.99 491.325" stroke="white" stroke-width="0.95" stroke-miterlimit="10"/>
<path d="M924.141 167.245C988.437 144.511 1035.14 141.581 1050.98 163.656C1085.8 212.208 958.23 363.298 766.061 501.127C573.879 638.956 389.864 711.336 355.044 662.785C338.994 640.404 357.445 596.253 400.807 541.642C401.654 540.583 404.02 537.441 404.879 536.382" stroke="white" stroke-width="0.95" stroke-miterlimit="10"/>
<path d="M188.362 260.736L236.737 253.511L204.189 201.159L188.362 260.736Z" fill="url(#paint4_linear_0_2644)"/>
<path d="M236.737 253.512L188.362 260.737L220.91 313.089L236.737 253.512Z" fill="url(#paint5_linear_0_2644)"/>
<path d="M212.556 257.124L204.189 201.159L236.737 253.511L212.556 257.124Z" fill="url(#paint6_linear_0_2644)"/>
<path d="M212.556 257.124L220.91 313.089L236.737 253.512L212.556 257.124Z" fill="url(#paint7_linear_0_2644)"/>
<path d="M298.892 238.119L272.345 322.902L184.997 341.388L211.532 256.605L298.892 238.119Z" fill="url(#paint8_linear_0_2644)" stroke="white" stroke-width="0.88" stroke-linejoin="round"/>
<path d="M298.891 238.119L240.278 171.364L152.931 189.851L211.531 256.606L298.891 238.119Z" fill="url(#paint9_linear_0_2644)" stroke="white" stroke-width="0.88" stroke-linejoin="round"/>
<path d="M211.685 256.582L152.802 189.815L126.243 274.657L184.903 341.471L211.685 256.582Z" fill="url(#paint10_linear_0_2644)" stroke="white" stroke-width="0.88" stroke-linejoin="round"/>
<path d="M597.149 815.366C606.104 806.93 603.574 789.699 591.497 776.88C579.421 764.06 562.372 760.506 553.417 768.942C544.462 777.377 546.993 794.608 559.069 807.428C571.146 820.247 588.195 823.801 597.149 815.366Z" fill="url(#paint11_linear_0_2644)"/>
<path d="M559.052 807.497C571.125 820.324 588.176 823.877 597.13 815.44L591.953 820.324C582.998 828.761 565.947 825.207 553.874 812.381C541.801 799.555 539.271 782.327 548.226 773.89L553.404 769.007C544.449 777.444 546.979 794.671 559.052 807.497Z" fill="url(#paint12_linear_0_2644)"/>
<path d="M587.576 780.633C578.409 770.902 565.465 768.195 558.664 774.608C551.862 781.01 553.78 794.095 562.947 803.826C572.114 813.558 585.057 816.264 591.859 809.851C598.66 803.45 596.742 790.365 587.576 780.633Z" fill="url(#paint13_linear_0_2644)"/>
<path d="M579.208 805.897L577.925 802.696L574.431 802.779C573.654 802.791 572.877 802.59 572.101 802.167C571.324 801.743 570.606 801.167 569.971 800.437C569.335 799.708 568.841 798.896 568.488 798.025L567.664 795.966L571.807 795.871L572.571 797.766L575.902 797.695L574.242 793.542L570.771 793.624C570.006 793.636 569.241 793.447 568.465 793.036C567.688 792.624 566.982 792.047 566.323 791.318C565.676 790.588 565.158 789.753 564.793 788.811L562.934 784.163C562.569 783.245 562.416 782.422 562.463 781.68C562.51 780.939 562.758 780.351 563.193 779.915C563.628 779.48 564.24 779.244 565.017 779.233L568.512 779.15L567.229 775.95L571.383 775.855L572.666 779.056L576.137 778.986C576.913 778.974 577.69 779.162 578.467 779.574C579.243 779.986 579.949 780.551 580.585 781.28C581.22 782.01 581.726 782.822 582.091 783.739L582.927 785.834L578.773 785.928L577.996 783.998L574.666 784.069L576.419 788.458L579.891 788.388C580.667 788.376 581.444 788.576 582.22 788.999C582.997 789.423 583.703 789.988 584.327 790.682C584.95 791.388 585.433 792.153 585.762 792.977L587.622 797.625C587.975 798.496 588.116 799.307 588.057 800.061C587.998 800.814 587.763 801.414 587.327 801.861C586.892 802.308 586.304 802.543 585.539 802.555L582.068 802.626L583.35 805.827L579.196 805.921L579.208 805.897ZM572.242 788.529L570.489 784.14L567.158 784.21L568.912 788.599L572.242 788.529ZM580.079 797.601L583.409 797.531L581.75 793.377L578.42 793.447L580.079 797.601Z" fill="url(#paint14_linear_0_2644)"/>
<path d="M629.702 779.739L612.31 836.328L554.156 848.942L571.56 792.354L629.702 779.739Z" fill="url(#paint15_linear_0_2644)" stroke="white" stroke-width="0.66" stroke-linejoin="round"/>
<path d="M629.702 779.739L590.411 735.447L532.27 748.073L571.56 792.353L629.702 779.739Z" fill="url(#paint16_linear_0_2644)" stroke="white" stroke-width="0.66" stroke-linejoin="round"/>
<path d="M571.654 792.33L532.187 748.038L514.771 804.674L554.097 849.001L571.654 792.33Z" fill="url(#paint17_linear_0_2644)" stroke="white" stroke-width="0.66" stroke-linejoin="round"/>
<path d="M233.772 538.794L234.831 542.43C234.902 542.689 235.114 542.901 235.373 542.972L239.009 544.031C239.774 544.254 239.774 545.337 239.009 545.56L235.373 546.62C235.114 546.69 234.914 546.902 234.831 547.161L233.772 550.797C233.549 551.562 232.466 551.562 232.243 550.797L231.184 547.161C231.113 546.902 230.901 546.702 230.642 546.62L227.006 545.56C226.241 545.337 226.241 544.254 227.006 544.031L230.642 542.972C230.901 542.901 231.113 542.689 231.184 542.43L232.243 538.794C232.466 538.029 233.549 538.029 233.772 538.794Z" fill="white"/>
<path d="M1138.68 150.054L1139.74 153.69C1139.81 153.949 1140.02 154.161 1140.28 154.231L1143.92 155.291C1144.68 155.514 1144.68 156.597 1143.92 156.82L1140.28 157.879C1140.02 157.95 1139.81 158.162 1139.74 158.421L1138.68 162.057C1138.46 162.822 1137.37 162.822 1137.15 162.057L1136.09 158.421C1136.02 158.162 1135.81 157.95 1135.55 157.879L1131.91 156.82C1131.15 156.597 1131.15 155.514 1131.91 155.291L1135.55 154.231C1135.81 154.161 1136.01 153.949 1136.09 153.69L1137.15 150.054C1137.37 149.289 1138.46 149.289 1138.68 150.054Z" fill="white"/>
<path d="M119.419 568.589L119.913 570.295C119.948 570.413 120.042 570.519 120.172 570.554L121.878 571.048C122.243 571.154 122.243 571.66 121.878 571.766L120.172 572.26C120.054 572.296 119.948 572.39 119.913 572.519L119.419 574.226C119.313 574.59 118.807 574.59 118.701 574.226L118.206 572.519C118.171 572.402 118.077 572.296 117.948 572.26L116.241 571.766C115.877 571.66 115.877 571.154 116.241 571.048L117.948 570.554C118.065 570.519 118.171 570.425 118.206 570.295L118.701 568.589C118.807 568.224 119.313 568.224 119.419 568.589Z" fill="white"/>
<path d="M963.114 800.167L964.126 803.65C964.196 803.897 964.397 804.097 964.644 804.168L968.127 805.18C968.856 805.392 968.856 806.427 968.127 806.639L964.644 807.651C964.397 807.722 964.196 807.922 964.126 808.169L963.114 811.652C962.902 812.382 961.867 812.382 961.655 811.652L960.643 808.169C960.572 807.922 960.372 807.722 960.125 807.651L956.642 806.639C955.912 806.427 955.912 805.392 956.642 805.18L960.125 804.168C960.372 804.097 960.572 803.897 960.643 803.65L961.655 800.167C961.867 799.438 962.902 799.438 963.114 800.167Z" fill="white"/>
<path d="M1209.95 562.929L1212 569.943C1212.14 570.449 1212.54 570.837 1213.05 570.99L1220.06 573.037C1221.53 573.473 1221.53 575.556 1220.06 575.979L1213.05 578.027C1212.54 578.168 1212.15 578.568 1212 579.074L1209.95 586.087C1209.52 587.558 1207.44 587.558 1207.01 586.087L1204.96 579.074C1204.82 578.568 1204.42 578.18 1203.92 578.027L1196.9 575.979C1195.43 575.544 1195.43 573.461 1196.9 573.037L1203.92 570.99C1204.42 570.849 1204.81 570.449 1204.96 569.943L1207.01 562.929C1207.45 561.458 1209.53 561.458 1209.95 562.929Z" fill="white"/>
<path d="M321.685 138.699L324.097 146.959C324.274 147.548 324.733 148.018 325.321 148.183L333.581 150.595C335.311 151.101 335.311 153.561 333.581 154.067L325.321 156.479C324.733 156.655 324.262 157.114 324.097 157.703L321.685 165.963C321.179 167.693 318.719 167.693 318.213 165.963L315.801 157.703C315.625 157.114 315.166 156.644 314.577 156.479L306.317 154.067C304.587 153.561 304.587 151.101 306.317 150.595L314.577 148.183C315.166 148.007 315.636 147.548 315.801 146.959L318.213 138.699C318.719 136.969 321.179 136.969 321.685 138.699Z" fill="white"/>
<circle cx="671.485" cy="352.395" r="247.406" stroke="url(#paint18_linear_0_2644)"/>
<path d="M671.753 577.391C673.103 577.41 674.453 577.419 675.803 577.416L675.712 532.669C674.606 532.671 673.5 532.664 672.393 532.648L671.753 577.391Z" fill="#F2B43A"/>
<path d="M697.683 576.404C699.028 576.282 700.371 576.149 701.713 576.005L696.946 531.513C695.846 531.631 694.745 531.74 693.643 531.84L697.683 576.404Z" fill="#F2B43A"/>
<path d="M723.368 572.712C724.692 572.45 726.015 572.177 727.334 571.894L717.942 528.144C716.861 528.376 715.777 528.599 714.692 528.814L723.368 572.712Z" fill="#F2B43A"/>
<path d="M752.649 565.041C753.931 564.62 755.21 564.188 756.486 563.746L741.832 521.466C740.787 521.829 739.738 522.183 738.687 522.528L752.649 565.041Z" fill="#F2B43A"/>
<path d="M776.845 555.666C778.076 555.113 779.303 554.55 780.525 553.977L761.532 513.461C760.531 513.93 759.525 514.392 758.516 514.845L776.845 555.666Z" fill="#F2B43A"/>
<path d="M796.169 545.955C797.348 545.297 798.521 544.629 799.689 543.952L777.237 505.245C776.28 505.8 775.318 506.347 774.352 506.887L796.169 545.955Z" fill="#F2B43A"/>
<path d="M645.862 575.662C647.202 575.822 648.544 575.972 649.887 576.11L654.474 531.599C653.374 531.485 652.274 531.363 651.176 531.232L645.862 575.662Z" fill="#F2B43A"/>
<path d="M624.52 572.16C625.842 572.436 627.165 572.702 628.491 572.957L636.94 529.015C635.854 528.806 634.769 528.588 633.686 528.361L624.52 572.16Z" fill="#F2B43A"/>
<path d="M599.435 565.522C600.72 565.936 602.008 566.338 603.3 566.73L616.296 523.912C615.238 523.591 614.182 523.261 613.129 522.922L599.435 565.522Z" fill="#F2B43A"/>
<path d="M579.154 558.012C580.398 558.536 581.646 559.049 582.899 559.552L599.578 518.03C598.551 517.617 597.528 517.197 596.508 516.767L579.154 558.012Z" fill="#F2B43A"/>
<path d="M540.935 537.845C542.07 538.577 543.21 539.299 544.356 540.012L567.992 502.016C567.053 501.432 566.118 500.84 565.188 500.24L540.935 537.845Z" fill="#F2B43A"/>
<path d="M529.008 503.024C529.893 503.902 530.784 504.773 531.683 505.636L547.614 489.049C546.805 488.273 546.003 487.49 545.208 486.7L529.008 503.024Z" fill="#F2B43A"/>
<path d="M518.07 491.385C518.891 492.322 519.72 493.253 520.556 494.176L537.605 478.741C536.853 477.91 536.108 477.073 535.369 476.23L518.07 491.385Z" fill="#F2B43A"/>
<path d="M505.583 475.809C506.319 476.814 507.064 477.814 507.816 478.807L526.146 464.916C525.469 464.023 524.799 463.124 524.137 462.22L505.583 475.809Z" fill="#F2B43A"/>
<path d="M494.5 459.204C495.146 460.27 495.801 461.33 496.464 462.385L515.934 450.145C515.338 449.196 514.749 448.242 514.168 447.284L494.5 459.204Z" fill="#F2B43A"/>
<path d="M486.703 445.264C487.273 446.372 487.852 447.476 488.44 448.574L508.717 437.722C508.188 436.734 507.667 435.741 507.154 434.745L486.703 445.264Z" fill="#F2B43A"/>
<path d="M478.355 427.13C478.826 428.284 479.307 429.433 479.797 430.579L500.942 421.535C500.501 420.505 500.069 419.471 499.645 418.433L478.355 427.13Z" fill="#F2B43A"/>
<path d="M471.619 408.337C471.988 409.528 472.366 410.715 472.755 411.899L494.608 404.733C494.258 403.668 493.918 402.6 493.586 401.529L471.619 408.337Z" fill="#F2B43A"/>
<path d="M466.546 389.029C466.81 390.247 467.084 391.463 467.367 392.676L489.762 387.442C489.507 386.35 489.261 385.257 489.023 384.161L466.546 389.029Z" fill="#F2B43A"/>
<path d="M463.176 369.352C463.332 370.589 463.499 371.823 463.676 373.057L486.441 369.794C486.282 368.685 486.132 367.574 485.992 366.462L463.176 369.352Z" fill="#F2B43A"/>
<path d="M461.533 349.456C461.581 350.702 461.64 351.946 461.708 353.191L484.672 351.925C484.61 350.805 484.557 349.686 484.514 348.566L461.533 349.456Z" fill="#F2B43A"/>
<path d="M461.631 329.493C461.57 330.738 461.52 331.983 461.48 333.229L484.466 333.969C484.502 332.848 484.547 331.728 484.602 330.609L461.631 329.493Z" fill="#F2B43A"/>
<path d="M463.468 309.615C463.299 310.849 463.141 312.085 462.992 313.322L485.826 316.063C485.96 314.95 486.103 313.838 486.254 312.728L463.468 309.615Z" fill="#F2B43A"/>
<path d="M467.031 289.972C466.755 291.187 466.489 292.404 466.234 293.624L488.742 298.344C488.972 297.247 489.211 296.152 489.459 295.059L467.031 289.972Z" fill="#F2B43A"/>
<path d="M813.25 505.198C812.365 506.024 811.474 506.843 810.575 507.655L794.644 492.051C795.452 491.321 796.254 490.584 797.05 489.842L813.25 505.198Z" fill="#F2B43A"/>
<path d="M824.188 494.249C823.367 495.13 822.538 496.006 821.701 496.875L804.652 482.354C805.405 481.573 806.15 480.785 806.889 479.992L824.188 494.249Z" fill="#F2B43A"/>
<path d="M836.675 479.596C835.939 480.542 835.194 481.482 834.442 482.416L816.112 469.349C816.789 468.508 817.459 467.663 818.121 466.812L836.675 479.596Z" fill="#F2B43A"/>
<path d="M847.757 463.975C847.111 464.978 846.457 465.975 845.794 466.968L826.323 455.453C826.92 454.56 827.509 453.663 828.09 452.761L847.757 463.975Z" fill="#F2B43A"/>
<path d="M855.555 450.861C854.985 451.904 854.406 452.942 853.818 453.975L833.541 443.766C834.07 442.837 834.591 441.903 835.103 440.965L855.555 450.861Z" fill="#F2B43A"/>
<path d="M863.903 433.802C863.432 434.887 862.951 435.969 862.461 437.046L841.316 428.539C841.756 427.569 842.189 426.596 842.613 425.62L863.903 433.802Z" fill="#F2B43A"/>
<path d="M870.639 416.123C870.27 417.243 869.891 418.359 869.503 419.473L847.65 412.732C847.999 411.73 848.34 410.725 848.672 409.718L870.639 416.123Z" fill="#F2B43A"/>
<path d="M875.712 397.959C875.448 399.105 875.174 400.248 874.89 401.39L852.496 396.466C852.751 395.439 852.997 394.41 853.235 393.38L875.712 397.959Z" fill="#F2B43A"/>
<path d="M879.082 379.448C878.925 380.611 878.759 381.773 878.582 382.933L855.816 379.864C855.975 378.82 856.125 377.775 856.266 376.729L879.082 379.448Z" fill="#F2B43A"/>
<path d="M880.725 360.732C880.676 361.903 880.618 363.074 880.549 364.244L857.586 363.053C857.648 362.001 857.7 360.947 857.744 359.894L880.725 360.732Z" fill="#F2B43A"/>
<path d="M880.627 341.952C880.687 343.122 880.738 344.294 880.778 345.465L857.792 346.162C857.756 345.108 857.71 344.054 857.656 343.001L880.627 341.952Z" fill="#F2B43A"/>
<path d="M878.79 323.251C878.959 324.412 879.117 325.575 879.266 326.739L856.431 329.317C856.298 328.27 856.155 327.224 856.003 326.18L878.79 323.251Z" fill="#F2B43A"/>
<path d="M875.227 304.772C875.503 305.915 875.768 307.061 876.024 308.208L853.516 312.649C853.286 311.617 853.047 310.586 852.799 309.558L875.227 304.772Z" fill="#F2B43A"/>
<path d="M468.622 246.038C467.941 247.204 467.269 248.375 466.607 249.551L503.439 270.287C503.988 269.311 504.546 268.34 505.111 267.373L468.622 246.038Z" fill="#F2B43A"/>
<path d="M480.342 227.862C479.562 228.964 478.791 230.072 478.028 231.186L512.913 255.053C513.546 254.129 514.185 253.21 514.833 252.296L480.342 227.862Z" fill="#F2B43A"/>
<path d="M493.602 210.777C492.729 211.806 491.864 212.843 491.007 213.886L523.679 240.703C524.39 239.837 525.107 238.978 525.832 238.124L493.602 210.777Z" fill="#F2B43A"/>
<path d="M508.3 194.912C507.341 195.862 506.389 196.819 505.444 197.784L535.655 227.346C536.438 226.545 537.228 225.751 538.024 224.964L508.3 194.912Z" fill="#F2B43A"/>
<path d="M524.325 180.389C523.287 181.251 522.255 182.122 521.23 183.001L548.749 215.083C549.599 214.354 550.455 213.632 551.317 212.917L524.325 180.389Z" fill="#F2B43A"/>
<path d="M545.134 164.887C544.011 165.635 542.894 166.393 541.783 167.16L565.798 201.944C566.719 201.307 567.646 200.679 568.578 200.058L545.134 164.887Z" fill="#F2B43A"/>
<path d="M563.636 153.688C562.452 154.336 561.273 154.994 560.099 155.661L580.991 192.405C581.965 191.851 582.943 191.306 583.925 190.768L563.636 153.688Z" fill="#F2B43A"/>
<path d="M583.044 144.144C581.808 144.687 580.576 145.239 579.349 145.801L596.958 184.226C597.976 183.76 598.998 183.302 600.024 182.852L583.044 144.144Z" fill="#F2B43A"/>
<path d="M603.209 136.329C601.93 136.761 600.655 137.204 599.383 137.657L613.577 177.471C614.632 177.095 615.69 176.727 616.751 176.369L603.209 136.329Z" fill="#F2B43A"/>
<path d="M623.979 130.3C622.667 130.619 621.358 130.949 620.052 131.29L630.722 172.189C631.806 171.907 632.891 171.633 633.979 171.368L623.979 130.3Z" fill="#F2B43A"/>
<path d="M645.195 126.105C643.861 126.308 642.528 126.523 641.197 126.749L648.262 168.422C649.366 168.235 650.471 168.057 651.578 167.888L645.195 126.105Z" fill="#F2B43A"/>
<path d="M829.814 198.419C828.832 197.493 827.842 196.575 826.845 195.665L798.355 226.889C799.183 227.644 800.004 228.405 800.818 229.174L829.814 198.419Z" fill="#F2B43A"/>
<path d="M844.888 213.928C843.99 212.92 843.084 211.919 842.17 210.925L811.067 239.547C811.826 240.371 812.577 241.202 813.322 242.038L844.888 213.928Z" fill="#F2B43A"/>
<path d="M861.107 234.183C860.32 233.087 859.523 231.997 858.718 230.913L824.794 256.127C825.462 257.026 826.123 257.93 826.776 258.84L861.107 234.183Z" fill="#F2B43A"/>
<path d="M875.12 256.023C874.452 254.85 873.774 253.683 873.086 252.521L836.712 274.051C837.283 275.015 837.845 275.983 838.4 276.956L875.12 256.023Z" fill="#F2B43A"/>
<mask id="path-83-inside-1_0_2644" fill="white">
<path d="M501.554 501.403C474.189 471.428 455.464 434.911 447.288 395.575C439.112 356.239 441.778 315.492 455.015 277.489L459.323 278.917C446.346 316.176 443.732 356.127 451.748 394.693C459.764 433.26 478.122 469.063 504.952 498.451L501.554 501.403Z"/>
</mask>
<path d="M501.554 501.403C474.189 471.428 455.464 434.911 447.288 395.575C439.112 356.239 441.778 315.492 455.015 277.489L459.323 278.917C446.346 316.176 443.732 356.127 451.748 394.693C459.764 433.26 478.122 469.063 504.952 498.451L501.554 501.403Z" stroke="#E9AD44" stroke-width="4" mask="url(#path-83-inside-1_0_2644)"/>
<mask id="path-84-inside-2_0_2644" fill="white">
<path d="M810.101 533.732C848.378 504.825 876.456 464.991 890.425 419.782C904.394 374.572 903.556 326.238 888.03 281.515L883.72 282.938C898.943 326.787 899.763 374.176 886.068 418.501C872.373 462.826 844.843 501.881 807.316 530.223L810.101 533.732Z"/>
</mask>
<path d="M810.101 533.732C848.378 504.825 876.456 464.991 890.425 419.782C904.394 374.572 903.556 326.238 888.03 281.515L883.72 282.938C898.943 326.787 899.763 374.176 886.068 418.501C872.373 462.826 844.843 501.881 807.316 530.223L810.101 533.732Z" stroke="#E9AD44" stroke-width="4" mask="url(#path-84-inside-2_0_2644)"/>
<path d="M673.07 167.867L685.414 126.974L693.71 129.478L705.271 160.441L712.871 135.262L721.751 137.942L709.407 178.836L701.754 176.526L689.797 144.551L681.95 170.548L673.07 167.867Z" fill="#FDFDB2"/>
<path d="M726.346 186.358L743.202 147.108L751.837 150.817L738.352 182.217L757.921 190.62L754.55 198.47L726.346 186.358Z" fill="#FDFDB2"/>
<path d="M771.891 206.98L790.284 178.324L779.345 171.303L784.025 164.011L813.811 183.128L809.131 190.421L798.192 183.4L779.8 212.056L771.891 206.98Z" fill="#FDFDB2"/>
<path fill-rule="evenodd" clip-rule="evenodd" d="M648.866 215.091L654.612 220.107L551.898 337.761L675.611 482.093L669.82 487.057L541.812 337.715L648.866 215.091Z" fill="#FDC95B"/>
<path fill-rule="evenodd" clip-rule="evenodd" d="M691.834 215.092L686.088 220.108L788.802 337.762L665.089 480.762L670.81 488.39L798.888 337.716L691.834 215.092Z" fill="#FDC95B"/>
<path d="M604.063 274.81C588.807 308.372 560.203 330.112 550.668 337.74C575.459 354.902 596.435 385.414 604.063 400.67V274.81Z" fill="#FDC95B"/>
<path d="M737.552 274.81C752.808 308.372 781.412 330.112 790.947 337.74C766.157 354.902 745.18 385.414 737.552 400.67V274.81Z" fill="#FDC95B"/>
<path d="M596.436 333.926L565.925 337.74L596.436 339.647V333.926Z" fill="#734E12"/>
<path d="M745.18 333.926L775.691 337.74L745.18 339.647V333.926Z" fill="#734E12"/>
<path d="M607.878 381.6L671.807 488.39L729.924 381.6H607.878Z" fill="url(#paint19_linear_0_2644)"/>
<path d="M666.039 438.81L669.853 469.321L671.76 438.81L666.039 438.81Z" fill="#734E12"/>
<g filter="url(#filter0_d_0_2644)">
<path d="M611.463 405.789C610.911 405.789 610.463 405.341 610.463 404.789V265.673C610.463 265.121 610.911 264.673 611.463 264.673H637.822C638.139 264.673 638.437 264.823 638.625 265.078L700.881 349.125C701.455 349.9 702.684 349.494 702.684 348.53V265.673C702.684 265.121 703.132 264.673 703.684 264.673H731.509C732.061 264.673 732.509 265.121 732.509 265.673V404.789C732.509 405.341 732.061 405.789 731.509 405.789H707.308C706.992 405.789 706.694 405.639 706.505 405.384L642.091 318.511C641.517 317.737 640.288 318.143 640.288 319.107V404.789C640.288 405.341 639.84 405.789 639.288 405.789H611.463Z" fill="#FDC95B"/>
</g>
</g>
<rect x="1300" width="1130" height="1300" transform="rotate(90 1300 0)" fill="url(#paint20_linear_0_2644)"/>
<defs>
<filter id="filter0_d_0_2644" x="594.463" y="248.673" width="154.046" height="173.116" filterUnits="userSpaceOnUse" color-interpolation-filters="sRGB">
<feFlood flood-opacity="0" result="BackgroundImageFix"/>
<feColorMatrix in="SourceAlpha" type="matrix" values="0 0 0 0 0 0 0 0 0 0 0 0 0 0 0 0 0 0 127 0" result="hardAlpha"/>
<feOffset/>
<feGaussianBlur stdDeviation="8"/>
<feComposite in2="hardAlpha" operator="out"/>
<feColorMatrix type="matrix" values="0 0 0 0 0 0 0 0 0 0 0 0 0 0 0 0 0 0 1 0"/>
<feBlend mode="normal" in2="BackgroundImageFix" result="effect1_dropShadow_0_2644"/>
<feBlend mode="normal" in="SourceGraphic" in2="effect1_dropShadow_0_2644" result="shape"/>
</filter>
<linearGradient id="paint0_linear_0_2644" x1="177.654" y1="651.674" x2="159.506" y2="683.797" gradientUnits="userSpaceOnUse">
<stop stop-color="#C422C6" stop-opacity="0.1"/>
<stop offset="0.27" stop-color="#D55ED7" stop-opacity="0.4"/>
<stop offset="0.53" stop-color="#E493E7" stop-opacity="0.66"/>
<stop offset="0.74" stop-color="#EFB8F2" stop-opacity="0.84"/>
<stop offset="0.91" stop-color="#F6D0F9" stop-opacity="0.96"/>
<stop offset="1" stop-color="#F9D9FC"/>
</linearGradient>
<linearGradient id="paint1_linear_0_2644" x1="172.597" y1="669.432" x2="210.876" y2="678.262" gradientUnits="userSpaceOnUse">
<stop stop-color="#C422C6" stop-opacity="0.1"/>
<stop offset="0.27" stop-color="#D55ED7" stop-opacity="0.4"/>
<stop offset="0.53" stop-color="#E493E7" stop-opacity="0.66"/>
<stop offset="0.74" stop-color="#EFB8F2" stop-opacity="0.84"/>
<stop offset="0.91" stop-color="#F6D0F9" stop-opacity="0.96"/>
<stop offset="1" stop-color="#F9D9FC"/>
</linearGradient>
<linearGradient id="paint2_linear_0_2644" x1="182.82" y1="641.126" x2="177.773" y2="674.401" gradientUnits="userSpaceOnUse">
<stop stop-color="#C422C6" stop-opacity="0.1"/>
<stop offset="0.27" stop-color="#D55ED7" stop-opacity="0.4"/>
<stop offset="0.53" stop-color="#E493E7" stop-opacity="0.66"/>
<stop offset="0.74" stop-color="#EFB8F2" stop-opacity="0.84"/>
<stop offset="0.91" stop-color="#F6D0F9" stop-opacity="0.96"/>
<stop offset="1" stop-color="#F9D9FC"/>
</linearGradient>
<linearGradient id="paint3_linear_0_2644" x1="555.543" y1="-52.0884" x2="746.887" y2="657.581" gradientUnits="userSpaceOnUse">
<stop stop-color="#E9A1EC" stop-opacity="0.7"/>
<stop offset="0.05" stop-color="#E187E4" stop-opacity="0.57"/>
<stop offset="0.12" stop-color="#6182D6" stop-opacity="0.37"/>
<stop offset="0.18" stop-color="#CC40CF" stop-opacity="0.21"/>
<stop offset="0.24" stop-color="#C62AC8" stop-opacity="0.09"/>
<stop offset="0.3" stop-color="#C21CC4" stop-opacity="0.02"/>
<stop offset="0.34" stop-color="#0D43CD" stop-opacity="0"/>
<stop offset="0.5" stop-color="#8191BA" stop-opacity="0.05"/>
<stop offset="0.63" stop-color="#4A6DC8" stop-opacity="0.1"/>
<stop offset="0.79" stop-color="#8191BA" stop-opacity="0.48"/>
<stop offset="1" stop-color="#8191BA"/>
</linearGradient>
<linearGradient id="paint4_linear_0_2644" x1="269.929" y1="238.952" x2="15.2017" y2="211.373" gradientUnits="userSpaceOnUse">
<stop offset="0.12" stop-color="#F0D3F5"/>
<stop offset="0.21" stop-color="#EED0F4" stop-opacity="0.99"/>
<stop offset="0.28" stop-color="#EBC9F2" stop-opacity="0.95"/>
<stop offset="0.34" stop-color="#E6BDEE" stop-opacity="0.89"/>
<stop offset="0.39" stop-color="#DEADE8" stop-opacity="0.8"/>
<stop offset="0.44" stop-color="#D497E2" stop-opacity="0.68"/>
<stop offset="0.48" stop-color="#C87CD9" stop-opacity="0.54"/>
<stop offset="0.53" stop-color="#B95CCF" stop-opacity="0.36"/>
<stop offset="0.57" stop-color="#A839C4" stop-opacity="0.17"/>
<stop offset="0.6" stop-color="#9A19BA" stop-opacity="0"/>
</linearGradient>
<linearGradient id="paint5_linear_0_2644" x1="225.459" y1="366.339" x2="204.743" y2="192.015" gradientUnits="userSpaceOnUse">
<stop offset="0.12" stop-color="#F0BDF5"/>
<stop offset="0.21" stop-color="#EEBAF4" stop-opacity="0.98"/>
<stop offset="0.29" stop-color="#EAB2F1" stop-opacity="0.94"/>
<stop offset="0.37" stop-color="#E3A5EC" stop-opacity="0.86"/>
<stop offset="0.45" stop-color="#DA93E6" stop-opacity="0.75"/>
<stop offset="0.53" stop-color="#CD7BDD" stop-opacity="0.6"/>
<stop offset="0.61" stop-color="#BE5FD3" stop-opacity="0.43"/>
<stop offset="0.69" stop-color="#AD3DC7" stop-opacity="0.22"/>
<stop offset="0.77" stop-color="#9A19BA" stop-opacity="0"/>
</linearGradient>
<linearGradient id="paint6_linear_0_2644" x1="185.416" y1="264.025" x2="250.084" y2="196.228" gradientUnits="userSpaceOnUse">
<stop offset="0.27" stop-color="#9500BA" stop-opacity="0"/>
<stop offset="0.62" stop-color="#F0BDF5"/>
</linearGradient>
<linearGradient id="paint7_linear_0_2644" x1="159.462" y1="248.047" x2="263.75" y2="301.723" gradientUnits="userSpaceOnUse">
<stop offset="0.27" stop-color="#9A19BA" stop-opacity="0"/>
<stop offset="0.62" stop-color="#F0BDF5"/>
</linearGradient>
<linearGradient id="paint8_linear_0_2644" x1="310.746" y1="355.711" x2="191.479" y2="243.033" gradientUnits="userSpaceOnUse">
<stop offset="0.32" stop-color="#FFEDFF"/>
<stop offset="0.34" stop-color="#FEEBFE" stop-opacity="0.94"/>
<stop offset="0.46" stop-color="#FCE5FD" stop-opacity="0.61"/>
<stop offset="0.56" stop-color="#FBDFFD" stop-opacity="0.35"/>
<stop offset="0.65" stop-color="#F9DCFC" stop-opacity="0.16"/>
<stop offset="0.71" stop-color="#F9D9FC" stop-opacity="0.04"/>
<stop offset="0.75" stop-color="#F9D9FC" stop-opacity="0"/>
</linearGradient>
<linearGradient id="paint9_linear_0_2644" x1="248.149" y1="123.566" x2="212.421" y2="265.482" gradientUnits="userSpaceOnUse">
<stop offset="0.07" stop-color="#FFB6FF"/>
<stop offset="0.1" stop-color="#FEB8FE" stop-opacity="0.94"/>
<stop offset="0.29" stop-color="#FCC3FD" stop-opacity="0.61"/>
<stop offset="0.45" stop-color="#FBCCFD" stop-opacity="0.35"/>
<stop offset="0.59" stop-color="#F9D3FC" stop-opacity="0.16"/>
<stop offset="0.69" stop-color="#F9D7FC" stop-opacity="0.04"/>
<stop offset="0.75" stop-color="#F9D9FC" stop-opacity="0"/>
</linearGradient>
<linearGradient id="paint10_linear_0_2644" x1="13.8554" y1="210.598" x2="421.554" y2="355.388" gradientUnits="userSpaceOnUse">
<stop offset="0.07" stop-color="#FFB6FF"/>
<stop offset="0.08" stop-color="#FEB8FE" stop-opacity="0.94"/>
<stop offset="0.19" stop-color="#FCC3FD" stop-opacity="0.61"/>
<stop offset="0.28" stop-color="#FBCCFD" stop-opacity="0.35"/>
<stop offset="0.35" stop-color="#F9D3FC" stop-opacity="0.16"/>
<stop offset="0.41" stop-color="#F9D7FC" stop-opacity="0.04"/>
<stop offset="0.44" stop-color="#F9D9FC" stop-opacity="0"/>
</linearGradient>
<linearGradient id="paint11_linear_0_2644" x1="598.645" y1="840.258" x2="557.146" y2="753.611" gradientUnits="userSpaceOnUse">
<stop offset="0.23" stop-color="#4E0778"/>
<stop offset="0.37" stop-color="#500A79"/>
<stop offset="0.49" stop-color="#581380"/>
<stop offset="0.58" stop-color="#65238A"/>
<stop offset="0.68" stop-color="#783B99"/>
<stop offset="0.76" stop-color="#9058AC"/>
<stop offset="0.85" stop-color="#AE7DC3"/>
<stop offset="0.93" stop-color="#D1A7DE"/>
<stop offset="1" stop-color="#F7D6FC"/>
</linearGradient>
<linearGradient id="paint12_linear_0_2644" x1="613.1" y1="857.003" x2="498.462" y2="726.805" gradientUnits="userSpaceOnUse">
<stop offset="0.12" stop-color="#F0BDF5"/>
<stop offset="0.22" stop-color="#EDBAF3"/>
<stop offset="0.3" stop-color="#E6B0ED"/>
<stop offset="0.36" stop-color="#DAA1E3"/>
<stop offset="0.42" stop-color="#C88BD4"/>
<stop offset="0.48" stop-color="#B26EC2"/>
<stop offset="0.53" stop-color="#964BAB"/>
<stop offset="0.58" stop-color="#762291"/>
<stop offset="0.61" stop-color="#5E037D"/>
</linearGradient>
<linearGradient id="paint13_linear_0_2644" x1="607.111" y1="762.031" x2="535.924" y2="829.843" gradientUnits="userSpaceOnUse">
<stop offset="0.23" stop-color="#4E0778"/>
<stop offset="0.4" stop-color="#6E2F91"/>
<stop offset="0.77" stop-color="#C193D1"/>
<stop offset="1" stop-color="#F7D6FC"/>
</linearGradient>
<linearGradient id="paint14_linear_0_2644" x1="532.939" y1="774.338" x2="591.822" y2="797.331" gradientUnits="userSpaceOnUse">
<stop offset="0.23" stop-color="#4E0778"/>
<stop offset="0.4" stop-color="#6E2F91"/>
<stop offset="0.77" stop-color="#C193D1"/>
<stop offset="1" stop-color="#F7D6FC"/>
</linearGradient>
<linearGradient id="paint15_linear_0_2644" x1="659.802" y1="876.489" x2="553.733" y2="779.363" gradientUnits="userSpaceOnUse">
<stop offset="0.07" stop-color="white"/>
<stop offset="0.39" stop-color="#FCECFD" stop-opacity="0.51"/>
<stop offset="0.64" stop-color="#F9DEFC" stop-opacity="0.14"/>
<stop offset="0.75" stop-color="#F9D9FC" stop-opacity="0"/>
</linearGradient>
<linearGradient id="paint16_linear_0_2644" x1="595.325" y1="703.898" x2="572.011" y2="798.615" gradientUnits="userSpaceOnUse">
<stop offset="0.28" stop-color="white"/>
<stop offset="0.3" stop-color="#FEFCFE" stop-opacity="0.94"/>
<stop offset="0.43" stop-color="#FCF0FD" stop-opacity="0.61"/>
<stop offset="0.54" stop-color="#FBE6FD" stop-opacity="0.35"/>
<stop offset="0.64" stop-color="#F9DFFC" stop-opacity="0.16"/>
<stop offset="0.71" stop-color="#F9DAFC" stop-opacity="0.04"/>
<stop offset="0.75" stop-color="#F9D9FC" stop-opacity="0"/>
</linearGradient>
<linearGradient id="paint17_linear_0_2644" x1="439.65" y1="762.382" x2="711.872" y2="857.449" gradientUnits="userSpaceOnUse">
<stop offset="0.07" stop-color="#FFE3FF"/>
<stop offset="0.16" stop-color="#FDE0FE" stop-opacity="0.75"/>
<stop offset="0.25" stop-color="#FCDEFD" stop-opacity="0.53"/>
<stop offset="0.34" stop-color="#FBDCFD" stop-opacity="0.34"/>
<stop offset="0.42" stop-color="#FADAFC" stop-opacity="0.19"/>
<stop offset="0.5" stop-color="#F9D9FC" stop-opacity="0.09"/>
<stop offset="0.57" stop-color="#F9D9FC" stop-opacity="0.02"/>
<stop offset="0.62" stop-color="#F9D9FC" stop-opacity="0"/>
</linearGradient>
<linearGradient id="paint18_linear_0_2644" x1="919.392" y1="352.395" x2="423.579" y2="352.395" gradientUnits="userSpaceOnUse">
<stop stop-color="#F4C169"/>
<stop offset="1" stop-color="#E0DE9F"/>
</linearGradient>
<linearGradient id="paint19_linear_0_2644" x1="668.901" y1="381.6" x2="668.901" y2="488.39" gradientUnits="userSpaceOnUse">
<stop stop-color="#080808" stop-opacity="0"/>
<stop offset="0.317933" stop-color="#AC7728"/>
<stop offset="0.728012" stop-color="#FDC95B"/>
<stop offset="1" stop-color="#FDC95B"/>
</linearGradient>
<linearGradient id="paint20_linear_0_2644" x1="1300" y1="478.947" x2="2430" y2="478.947" gradientUnits="userSpaceOnUse">
<stop stop-color="#121317"/>
<stop offset="0.535656" stop-color="#121317" stop-opacity="0.78"/>
<stop offset="1" stop-color="#121317" stop-opacity="0"/>
</linearGradient>
<clipPath id="clip0_0_2644">
<rect width="1185" height="910" fill="white" transform="translate(64 38.001)"/>
</clipPath>
</defs>
</svg>
