<svg width="48" height="47" viewBox="0 0 48 47" fill="none" xmlns="http://www.w3.org/2000/svg">
<path d="M47.9132 38.1414C47.688 37.0574 47.0508 36.1312 46.1188 35.5333C45.1867 34.9356 44.0798 34.7426 43.0001 34.9894L37.997 36.1349V34.0897C39.0004 33.1445 40.0451 31.9104 40.7882 30.7825C42.0912 28.8045 43.0133 26.6325 43.529 24.328C44.142 21.5862 44.1552 18.6836 43.5667 15.9329C43.4583 15.4269 42.9598 15.1038 42.4538 15.2127C41.9473 15.3207 41.625 15.819 41.733 16.3255C42.2655 18.8132 42.2538 21.439 41.699 23.9186C41.2331 26.0008 40.3996 27.9633 39.2223 29.7508C38.8732 30.2807 38.45 30.8367 37.997 31.3677V20.9759C37.997 20.4582 37.5772 20.0384 37.0595 20.0384H29.6433V10.027C29.6433 9.51061 29.2254 9.09136 28.7091 9.08948L20.3555 9.06136H20.3526C20.2297 9.06124 20.108 9.08534 19.9945 9.13226C19.8809 9.17918 19.7777 9.24802 19.6908 9.33482C19.6034 9.42188 19.534 9.52535 19.4867 9.63929C19.4394 9.75323 19.415 9.87539 19.4151 9.99876V15.2067H11.9978C11.4803 15.2067 11.0603 15.6264 11.0603 16.1442V25.4279H8.97141V24.1546C8.97141 23.6371 8.55178 23.2175 8.03391 23.2175H7.07231C6.90821 22.3159 6.81427 21.4028 6.79134 20.4867C6.73641 18.2641 7.08872 16.0896 7.83797 14.0227C8.01363 13.5385 8.21038 13.0623 8.42766 12.5953C8.64628 12.1258 8.44266 11.568 7.97353 11.3493C7.50403 11.1314 6.94631 11.3343 6.72806 11.8038C6.48738 12.3206 6.26964 12.8477 6.07547 13.3837C5.24634 15.6706 4.85672 18.0763 4.91672 20.5329C4.93965 21.4325 5.02432 22.3295 5.17013 23.2175H0.9375C0.419719 23.2175 0 23.6372 0 24.155V40.6338C0 41.1516 0.419719 41.5713 0.9375 41.5713H8.03391C8.55178 41.5713 8.97141 41.1516 8.97141 40.6338V39.7424H12.4981L26.7835 45.3455C28.1173 45.8688 29.5145 46.1321 30.9188 46.1321C31.8552 46.1321 32.7957 46.0149 33.7218 45.7794L44.9187 42.9336C47.0442 42.3934 48.3592 40.2884 47.9132 38.1414ZM36.1222 21.9134V36.5641L33.6159 37.1379C33.3462 37.1991 33.074 37.2486 32.8 37.2863C31.7544 37.4304 30.692 37.3996 29.6565 37.1951C29.6521 37.1939 29.6477 37.1932 29.6434 37.1922V35.7705C30.3581 34.7041 30.5951 33.3521 30.2205 32.1179C30.1161 31.7727 29.9678 31.4424 29.7792 31.135C29.7365 31.0656 29.6918 30.9974 29.6452 30.9306C29.6448 30.9296 29.644 30.9288 29.6433 30.9278V21.9131H36.1223L36.1222 21.9134ZM21.2901 10.9395L27.7687 10.9611V29.4388L24.148 27.9402L21.2901 26.757V10.9395ZM12.9353 17.0817H19.4139V25.9802L18.2512 25.499C18.1376 25.4519 18.0157 25.4276 17.8927 25.4277H12.9353V17.0817ZM7.09641 39.6963H1.875V25.0921H6.29813C6.3 25.0921 6.30216 25.0925 6.30431 25.0925C6.30619 25.0925 6.30759 25.0921 6.30947 25.0921H7.09641V39.6963ZM44.4569 41.1164L33.26 43.9623C31.3271 44.4534 29.3243 44.3278 27.4681 43.6001L13.0177 37.9322C12.9086 37.8895 12.7924 37.8677 12.6753 37.8678H8.97141V27.3029H17.7059L23.7718 29.8138L27.0912 31.1878C28.2656 31.6748 28.8278 33.0524 28.3462 34.2254C28.2496 34.4609 28.1298 34.6847 27.9708 34.8843C27.3838 35.6251 26.4173 35.9518 25.5136 35.7321L25.4916 35.7266C25.4372 35.7129 25.3834 35.6973 25.3301 35.6797L19.0221 33.2547C18.9708 33.2349 18.9437 33.2247 18.9437 33.2247C18.4607 33.0386 17.9183 33.28 17.7323 33.7634C17.5467 34.2464 17.7877 34.7891 18.271 34.9747C18.271 34.9747 21.8276 36.3421 24.5398 37.3881C24.5944 37.4093 24.6486 37.4291 24.7031 37.4474L26.7858 38.2483C27.4153 38.4903 28.0418 38.7314 28.6971 38.8987C29.8115 39.1834 30.9627 39.2966 32.1112 39.2345C32.759 39.1997 33.4025 39.1097 34.035 38.9657L37.2689 38.2256C37.2722 38.2248 37.2755 38.2234 37.2788 38.2227L43.4187 36.8172C44.0028 36.6835 44.6023 36.7878 45.1062 37.1113C45.6109 37.435 45.9554 37.9363 46.0775 38.5229C46.1946 39.0808 46.0913 39.6624 45.7892 40.1459C45.4871 40.6293 45.0097 40.9771 44.4569 41.1164ZM11.9887 7.16798C12.2208 7.1683 12.4447 7.08213 12.6168 6.92629C14.2896 5.41532 16.2872 4.21007 18.3948 3.44067C20.6781 2.60723 23.1812 2.25164 25.6337 2.4127C27.3834 2.52687 29.1062 2.90212 30.7449 3.52598C31.2283 3.7102 31.7703 3.46786 31.9545 2.98364C32.139 2.49989 31.8963 1.95829 31.4122 1.77408C29.599 1.08358 27.6927 0.668205 25.7567 0.541731C23.046 0.363794 20.2778 0.757075 17.7518 1.67957C15.42 2.53064 13.2099 3.86395 11.3603 5.53467C10.9757 5.88182 10.9457 6.4747 11.2928 6.85889C11.3806 6.9564 11.4879 7.03432 11.6078 7.08758C11.7277 7.14083 11.8575 7.16823 11.9887 7.16798Z" fill="#7090E3"/>
<path d="M33.2709 13.8591C33.4412 14.0074 33.6595 14.089 33.8853 14.0888C34.0196 14.0889 34.1523 14.0602 34.2745 14.0046C34.3967 13.949 34.5055 13.8678 34.5936 13.7665L42.3068 4.88767C42.6466 4.49692 42.6049 3.9048 42.214 3.56523C41.8229 3.22586 41.2312 3.26711 40.8917 3.65795L33.1781 12.5367C32.8383 12.9275 32.88 13.5196 33.2709 13.8591ZM40.183 9.85089C38.8852 9.85089 37.8295 10.9067 37.8295 12.2046C37.8295 13.5025 38.8852 14.5582 40.183 14.5582C41.4809 14.5582 42.5367 13.5021 42.5367 12.2046C42.5367 10.9067 41.4809 9.85089 40.183 9.85089ZM40.183 12.6832C40.0562 12.683 39.9345 12.6326 39.8448 12.5429C39.755 12.4531 39.7046 12.3315 39.7045 12.2046C39.7046 12.0777 39.7551 11.956 39.8448 11.8663C39.9345 11.7766 40.0562 11.7261 40.183 11.7259C40.3099 11.7261 40.4316 11.7766 40.5213 11.8663C40.611 11.9561 40.6615 12.0777 40.6617 12.2046C40.6616 12.3315 40.6111 12.4531 40.5213 12.5428C40.4316 12.6326 40.3099 12.683 40.183 12.6832ZM34.977 7.76392C36.2749 7.76392 37.3306 6.70811 37.3306 5.41023C37.3306 4.11236 36.2749 3.05664 34.977 3.05664C33.6791 3.05664 32.6233 4.11236 32.6233 5.41014C32.6233 6.70792 33.6791 7.76392 34.977 7.76392ZM34.977 4.93127C35.104 4.93146 35.2257 4.98202 35.3154 5.07183C35.4051 5.16164 35.4555 5.28338 35.4556 5.41033C35.4554 5.53721 35.405 5.65884 35.3152 5.74855C35.2255 5.83827 35.1039 5.88875 34.977 5.88892C34.8501 5.88877 34.7284 5.83829 34.6387 5.74855C34.549 5.65881 34.4985 5.53714 34.4983 5.41023C34.4983 5.14623 34.713 4.93127 34.977 4.93127ZM8.65595 9.37155C8.80614 9.73192 9.17561 9.96995 9.56711 9.94942C9.9542 9.92927 10.2933 9.66742 10.413 9.29973C10.534 8.92877 10.402 8.50623 10.0919 8.26923C9.7758 8.0283 9.33198 8.0133 9.00095 8.23333C8.63364 8.47764 8.48645 8.96467 8.65595 9.37155Z" fill="#7090E3"/>
</svg>
