<svg width="65" height="65" viewBox="0 0 65 65" fill="none" xmlns="http://www.w3.org/2000/svg">
<path d="M62.8716 0H44.0546C42.8811 0 41.9263 0.954814 41.9263 2.12837V4.14185H16.0443C15.775 4.14185 15.5166 4.24885 15.3262 4.43932C15.1357 4.62978 15.0287 4.88811 15.0287 5.15747V16.4715C6.65336 16.9974 0 23.9771 0 32.4829C0 40.9886 6.65336 47.9683 15.0288 48.4942V59.8424C15.0288 60.1118 15.1358 60.3701 15.3263 60.5606C15.5168 60.751 15.7751 60.858 16.0445 60.858H41.9264V62.8715C41.9264 64.0451 42.8812 64.9999 44.0548 64.9999H62.8718C64.0453 64.9999 65.0001 64.0451 65.0001 62.8715V56.8133C65.0001 55.6397 64.0453 54.6848 62.8718 54.6848H44.0548C42.8812 54.6848 41.9264 55.6396 41.9264 56.8133V58.8266H17.0601V48.4941C20.5333 48.276 23.7107 46.949 26.2399 44.8623L28.2669 46.8892C28.4574 47.0797 28.7157 47.1867 28.9851 47.1867H41.9264V49.2002C41.9264 50.3737 42.8812 51.3285 44.0548 51.3285H62.8718C64.0453 51.3285 65.0001 50.3737 65.0001 49.2002V43.142C65.0001 41.9684 64.0453 41.0136 62.8718 41.0136H44.0548C42.8812 41.0136 41.9264 41.9684 41.9264 43.142V45.1553H29.4056L27.7228 43.4723C30.2074 40.8336 31.8095 37.3562 32.0548 33.5152H41.9264V35.5287C41.9264 36.7023 42.8812 37.6571 44.0548 37.6571H62.8718C64.0453 37.6571 65.0001 36.7023 65.0001 35.5287V29.4705C65.0001 28.297 64.0453 27.3421 62.8718 27.3421H44.0548C42.8812 27.3421 41.9264 28.297 41.9264 29.4705V31.4844H32.0572C31.9219 29.316 31.3479 27.1977 30.37 25.2577L35.4448 20.183C35.5738 20.0539 35.6656 19.8924 35.7106 19.7156C35.7556 19.5387 35.7522 19.353 35.7006 19.1779C35.649 19.0028 35.5512 18.8449 35.4175 18.7207C35.2838 18.5965 35.1191 18.5106 34.9407 18.4721L32.1315 17.8666L32.356 17.642C32.4513 17.5479 32.527 17.4359 32.5788 17.3125C32.6306 17.189 32.6574 17.0565 32.6578 16.9226C32.6582 16.7887 32.6322 16.6561 32.5811 16.5323C32.5301 16.4085 32.455 16.2961 32.3603 16.2014C32.2657 16.1067 32.1532 16.0317 32.0294 15.9806C31.9056 15.9296 31.773 15.9035 31.6391 15.904C31.5052 15.9044 31.3727 15.9312 31.2492 15.9831C31.1258 16.0349 31.0138 16.1106 30.9197 16.2058L30.6951 16.4304L30.0895 13.6211C30.0511 13.4426 29.9652 13.2778 29.841 13.144C29.7168 13.0102 29.5589 12.9124 29.3837 12.8608C29.2086 12.8092 29.0228 12.8057 28.8459 12.8508C28.669 12.8959 28.5075 12.9878 28.3785 13.1169L23.3153 18.1801C21.3682 17.1907 19.2397 16.6092 17.0601 16.4712V6.1731H41.9264V8.18657C41.9264 9.36013 42.8812 10.3149 44.0548 10.3149H62.8718C64.0453 10.3149 65.0001 9.36013 65.0001 8.18657V2.12837C65 0.954814 64.0452 0 62.8716 0ZM43.9576 56.8136C43.9576 56.7628 44.0039 56.7163 44.0548 56.7163H62.8718C62.9225 56.7163 62.9689 56.7626 62.9689 56.8136V62.8718C62.9689 62.9225 62.9227 62.9689 62.8718 62.9689H44.0548C44.0293 62.9679 44.0051 62.9574 43.9871 62.9394C43.9691 62.9214 43.9586 62.8972 43.9576 62.8718V56.8136ZM43.9576 43.1422C43.9576 43.0914 44.0039 43.0451 44.0548 43.0451H62.8718C62.9225 43.0451 62.9689 43.0913 62.9689 43.1422V49.2004C62.9689 49.2512 62.9227 49.2975 62.8718 49.2975H44.0548C44.0293 49.2966 44.0051 49.2861 43.9871 49.2681C43.9691 49.25 43.9586 49.2259 43.9576 49.2004V43.1422ZM43.9576 29.471C43.9576 29.4202 44.0039 29.3739 44.0548 29.3739H62.8718C62.9225 29.3739 62.9689 29.4202 62.9689 29.471V35.5292C62.9689 35.58 62.9227 35.6264 62.8718 35.6264H44.0548C44.0293 35.6254 44.0051 35.6149 43.9871 35.5969C43.9691 35.5788 43.9586 35.5547 43.9576 35.5292V29.471ZM2.03125 32.4829C2.03125 24.756 8.31759 18.4698 16.0445 18.4698C18.1493 18.4698 20.2255 18.9445 22.1074 19.8476C22.1095 19.9069 22.115 19.9662 22.1277 20.0252L23.0092 24.116L22.8541 24.2712C21.0048 22.7349 18.6308 21.8097 16.0443 21.8097C10.1592 21.8097 5.37113 26.5977 5.37113 32.4829C5.37113 38.368 10.1592 43.1561 16.0443 43.1561C21.9295 43.1561 26.7175 38.368 26.7175 32.4829C26.7175 29.914 25.805 27.5543 24.2873 25.7104L24.4455 25.5522L28.5361 26.4338C28.5891 26.4452 28.6423 26.4508 28.6953 26.4537C29.5918 28.3372 30.0571 30.3968 30.0574 32.4827L30.0573 32.4991V32.5004C30.0478 40.2193 23.7654 46.4959 16.0443 46.4959C8.31759 46.4961 2.03125 40.2097 2.03125 32.4829ZM19.3153 32.4829C19.3153 34.2864 17.848 35.7537 16.0445 35.7537C14.241 35.7537 12.7736 34.2864 12.7736 32.4829C12.7736 30.6794 14.241 29.212 16.0445 29.212C16.5858 29.212 17.0963 29.345 17.5464 29.5788L15.3433 31.7818C15.2013 31.9239 15.1046 32.1048 15.0654 32.3018C15.0263 32.4988 15.0464 32.703 15.1233 32.8886C15.2001 33.0741 15.3303 33.2327 15.4973 33.3443C15.6643 33.4559 15.8606 33.5155 16.0615 33.5155C16.1949 33.5157 16.327 33.4895 16.4503 33.4385C16.5735 33.3874 16.6855 33.3125 16.7796 33.218L18.9716 31.0261C19.198 31.4783 19.3157 31.9771 19.3153 32.4829ZM19.0248 28.1004C18.1468 27.5003 17.1079 27.1798 16.0445 27.1809C13.121 27.1809 10.7424 29.5594 10.7424 32.483C10.7424 35.4066 13.1209 37.7851 16.0445 37.7851C18.9681 37.7851 21.3465 35.4066 21.3465 32.483C21.3476 31.4364 21.0371 30.4131 20.4546 29.5436L22.842 27.1562C23.9958 28.6253 24.6865 30.4745 24.6865 32.483C24.6865 37.2482 20.8098 41.1249 16.0446 41.1249C11.2794 41.1249 7.40251 37.248 7.40251 32.4829C7.40251 27.7177 11.2793 23.8409 16.0445 23.8409C18.0705 23.8409 19.9346 24.5436 21.4098 25.7156L19.0248 28.1004ZM32.6903 20.0649L28.4234 24.3317L26.1551 23.8429L30.4219 19.576L32.6903 20.0649ZM28.4967 15.8713L28.9856 18.1398L24.7187 22.4067L24.2298 20.1382L28.4967 15.8713ZM62.9688 8.18657C62.9688 8.23735 62.9225 8.28369 62.8716 8.28369H44.0546C44.0292 8.28275 44.005 8.27221 43.987 8.2542C43.969 8.23619 43.9585 8.21203 43.9575 8.18657V2.12837C43.9575 2.07759 44.0037 2.03125 44.0546 2.03125H62.8716C62.9224 2.03125 62.9688 2.07759 62.9688 2.12837V8.18657ZM62.8716 13.6713H44.0546C42.8811 13.6713 41.9263 14.6261 41.9263 15.7997V17.8132H38.8477C38.5783 17.8132 38.32 17.9202 38.1295 18.1106C37.939 18.3011 37.832 18.5594 37.832 18.8288C37.832 19.0982 37.939 19.3565 38.1295 19.547C38.32 19.7374 38.5783 19.8444 38.8477 19.8444H41.9263V21.8579C41.9263 23.0315 42.8811 23.9863 44.0546 23.9863H62.8716C64.0452 23.9863 65 23.0315 65 21.8579V15.7997C65 14.6261 64.0452 13.6713 62.8716 13.6713ZM62.9688 21.8579C62.9688 21.9087 62.9225 21.955 62.8716 21.955H44.0546C44.0292 21.954 44.0051 21.9435 43.987 21.9255C43.969 21.9075 43.9585 21.8833 43.9575 21.8579V15.7997C43.9575 15.7489 44.0037 15.7026 44.0546 15.7026H62.8716C62.9224 15.7026 62.9688 15.7488 62.9688 15.7997V21.8579ZM59.906 5.15747C59.906 5.42683 59.799 5.68516 59.6085 5.87563C59.4181 6.06609 59.1597 6.1731 58.8904 6.1731H48.0359C47.7665 6.1731 47.5082 6.06609 47.3177 5.87563C47.1273 5.68516 47.0203 5.42683 47.0203 5.15747C47.0203 4.88811 47.1273 4.62978 47.3177 4.43932C47.5082 4.24885 47.7665 4.14185 48.0359 4.14185H58.8904C59.1597 4.14185 59.4181 4.24885 59.6085 4.43932C59.799 4.62978 59.906 4.88811 59.906 5.15747ZM59.906 18.8288C59.906 19.0982 59.799 19.3565 59.6085 19.547C59.4181 19.7374 59.1597 19.8444 58.8904 19.8444H48.0359C47.7665 19.8444 47.5082 19.7374 47.3177 19.547C47.1273 19.3565 47.0203 19.0982 47.0203 18.8288C47.0203 18.5594 47.1273 18.3011 47.3177 18.1106C47.5082 17.9202 47.7665 17.8132 48.0359 17.8132H58.8904C59.1597 17.8132 59.4181 17.9202 59.6085 18.1106C59.799 18.3011 59.906 18.5594 59.906 18.8288ZM47.0203 32.5C47.0203 32.2306 47.1273 31.9723 47.3177 31.7818C47.5082 31.5914 47.7665 31.4844 48.0359 31.4844H58.8904C59.1597 31.4844 59.4181 31.5914 59.6085 31.7818C59.799 31.9723 59.906 32.2306 59.906 32.5C59.906 32.7694 59.799 33.0277 59.6085 33.2182C59.4181 33.4086 59.1597 33.5156 58.8904 33.5156H48.0359C47.7665 33.5156 47.5082 33.4086 47.3177 33.2182C47.1273 33.0277 47.0203 32.7694 47.0203 32.5ZM47.0203 46.1713C47.0203 45.902 47.1273 45.6436 47.3177 45.4532C47.5082 45.2627 47.7665 45.1557 48.0359 45.1557H58.8904C59.1597 45.1557 59.4181 45.2627 59.6085 45.4532C59.799 45.6436 59.906 45.902 59.906 46.1713C59.906 46.4407 59.799 46.699 59.6085 46.8895C59.4181 47.0799 59.1597 47.187 58.8904 47.187H48.0359C47.475 47.187 47.0203 46.7321 47.0203 46.1713ZM47.0203 59.8425C47.0203 59.5732 47.1273 59.3148 47.3177 59.1244C47.5082 58.9339 47.7665 58.8269 48.0359 58.8269H58.8904C59.1597 58.8269 59.4181 58.9339 59.6085 59.1244C59.799 59.3148 59.906 59.5732 59.906 59.8425C59.906 60.1119 59.799 60.3702 59.6085 60.5607C59.4181 60.7512 59.1597 60.8582 58.8904 60.8582H48.0359C47.7665 60.8582 47.5082 60.7512 47.3177 60.5607C47.1273 60.3702 47.0203 60.1119 47.0203 59.8425Z" fill="#E1E5E1"/>
</svg>
