<svg width="48" height="48" viewBox="0 0 48 48" fill="none" xmlns="http://www.w3.org/2000/svg">
<path d="M39.6654 31.4012C37.7328 31.4012 35.9562 32.0681 34.541 33.1764L32.6368 31.3171C34.2766 29.358 35.2674 26.8381 35.2674 24.0891C35.2674 21.045 34.0508 18.2841 32.0847 16.2532L33.8553 14.4399C35.3548 15.8836 37.3875 16.7768 39.6282 16.7768C44.2243 16.7768 47.9632 13.0379 47.9632 8.44242C47.9632 3.84634 44.2243 0.107422 39.6282 0.107422C35.0327 0.107422 31.2938 3.84634 31.2938 8.44242C31.2938 10.3654 31.9548 12.1337 33.0531 13.5458L31.2092 15.434C29.2542 13.8001 26.7407 12.8133 23.9999 12.8133C20.9554 12.8133 18.194 14.0334 16.164 16.0039L14.3326 14.215C15.7762 12.716 16.6694 10.6828 16.6694 8.44242C16.6694 3.84634 12.9305 0.107422 8.33441 0.107422C3.73892 0.107422 0 3.84634 0 8.44242C0 13.038 3.73892 16.7768 8.33453 16.7768C10.258 16.7768 12.0263 16.1159 13.4379 15.0172L15.3457 16.8802C13.716 18.8361 12.7325 21.3491 12.7325 24.0891C12.7325 27.1236 13.9423 29.8763 15.8974 31.9053L14.1075 33.7382C12.6081 32.2946 10.5753 31.4012 8.33453 31.4012C3.73892 31.4012 0 35.1402 0 39.7359C0 44.332 3.73892 48.0709 8.33453 48.0709C12.9306 48.0709 16.6695 44.332 16.6695 39.7359C16.6695 37.8129 16.0085 36.0445 14.9098 34.6325L16.771 32.7266C18.7292 34.371 21.25 35.3648 23.9999 35.3648C27.0353 35.3648 29.789 34.1517 31.8167 32.1918L33.6499 33.9822C32.2169 35.4796 31.3305 37.5046 31.3305 39.7359C31.3305 44.332 35.0694 48.0709 39.6655 48.0709C44.261 48.0709 47.9999 44.332 47.9999 39.7359C47.9999 35.1403 44.261 31.4014 39.6654 31.4014V31.4012ZM35.3524 14.1413C35.4224 12.3111 36.6153 10.7405 38.3806 10.2044C38.4936 10.17 38.594 10.103 38.6691 10.0118C38.7442 9.9206 38.7906 9.80924 38.8026 9.6917C38.8146 9.57417 38.7917 9.4557 38.7366 9.35119C38.6815 9.24667 38.5967 9.16077 38.493 9.10425C38.0847 8.88236 37.7439 8.55445 37.5065 8.15507C37.269 7.7557 37.1437 7.29966 37.1437 6.83502C37.1437 5.41158 38.3018 4.25337 39.7253 4.25337C41.1489 4.25337 42.307 5.41147 42.307 6.83502C42.307 7.80974 41.7654 8.69125 40.8931 9.13482C40.7875 9.18843 40.7002 9.27216 40.6422 9.37543C40.5842 9.47869 40.5582 9.59684 40.5674 9.71492C40.5763 9.83283 40.6199 9.94546 40.6927 10.0387C40.7654 10.1319 40.8641 10.2015 40.9764 10.2387C42.682 10.8031 43.8352 12.3597 43.9043 14.1408C42.7113 15.0388 41.2333 15.578 39.6283 15.578C38.0238 15.578 36.5459 15.0389 35.3524 14.1413ZM39.6283 1.30673C43.5629 1.30673 46.7639 4.50771 46.7639 8.44242C46.7639 10.2441 46.0871 11.8877 44.981 13.1451C44.6525 11.63 43.7066 10.3187 42.3581 9.54794C43.0832 8.84769 43.5063 7.87789 43.5063 6.83502C43.5063 4.75069 41.8098 3.05406 39.7253 3.05406C37.6409 3.05406 35.9442 4.75057 35.9442 6.83514C35.9442 7.83726 36.34 8.78001 37.0198 9.47662C35.6027 10.2349 34.6111 11.5748 34.2748 13.1441C33.1693 11.8872 32.4927 10.2436 32.4927 8.44242C32.4927 4.50771 35.6941 1.30673 39.6283 1.30673ZM1.19884 8.44242C1.19884 4.50771 4.40029 1.30673 8.33453 1.30673C12.2691 1.30673 15.4701 4.50771 15.4701 8.44242C15.4701 10.2441 14.7936 11.8877 13.6876 13.1451C13.3592 11.63 12.4128 10.3187 11.0643 9.54794C11.7898 8.84769 12.2124 7.87789 12.2124 6.83502C12.2124 4.75069 10.5164 3.05406 8.43137 3.05406C6.34703 3.05406 4.65099 4.75057 4.65099 6.83514C4.65099 7.83726 5.0462 8.78001 5.72595 9.47662C4.30883 10.2349 3.31725 11.5748 2.98142 13.1441C1.8759 11.8872 1.19884 10.2436 1.19884 8.44242ZM4.0586 14.1413C4.12909 12.3111 5.32208 10.7405 7.08674 10.2044C7.19987 10.1701 7.30032 10.1031 7.37544 10.0118C7.45056 9.92057 7.49699 9.80911 7.50887 9.6915C7.52093 9.57398 7.49796 9.45552 7.44284 9.35102C7.38773 9.24653 7.30294 9.16067 7.19915 9.10425C6.79092 8.88236 6.4501 8.55445 6.21263 8.15507C5.97516 7.7557 5.84982 7.29966 5.84984 6.83502C5.84984 5.41158 7.00793 4.25337 8.43148 4.25337C9.85539 4.25337 11.0131 5.41147 11.0131 6.83502C11.0131 7.80974 10.4716 8.69125 9.5993 9.13482C9.49391 9.18859 9.40678 9.27232 9.34885 9.37547C9.29092 9.47863 9.26478 9.59661 9.27372 9.71458C9.28265 9.83255 9.32626 9.94525 9.39907 10.0385C9.47188 10.1318 9.57063 10.2014 9.68291 10.2387C11.3882 10.8031 12.5413 12.3597 12.6108 14.1408C11.4175 15.0388 9.93958 15.578 8.33441 15.578C6.72994 15.578 5.25205 15.0389 4.0586 14.1413ZM4.0586 45.4347C4.12909 43.605 5.32208 42.0342 7.08674 41.4987C7.19975 41.4642 7.30008 41.3971 7.37513 41.3059C7.45018 41.2146 7.49662 41.1033 7.50863 40.9857C7.52063 40.8682 7.49767 40.7497 7.44261 40.6452C7.38756 40.5406 7.30286 40.4547 7.19915 40.3981C6.79092 40.1762 6.4501 39.8483 6.21263 39.4489C5.97516 39.0495 5.84982 38.5935 5.84984 38.1288C5.84984 36.7049 7.00793 35.5472 8.43148 35.5472C9.85539 35.5472 11.0131 36.7049 11.0131 38.1288C11.0131 39.1036 10.4716 39.9846 9.5993 40.4286C9.49388 40.4824 9.40671 40.566 9.34874 40.6692C9.29078 40.7723 9.26461 40.8903 9.27353 41.0083C9.28241 41.1262 9.32603 41.2389 9.39888 41.3322C9.47174 41.4254 9.57057 41.4949 9.68291 41.532C11.3882 42.0969 12.5413 43.6535 12.6108 45.4347C11.4175 46.3326 9.93958 46.8715 8.33441 46.8715C6.72994 46.8715 5.25205 46.3326 4.0586 45.4347ZM13.6872 44.4389C13.3592 42.9235 12.4128 41.6125 11.0643 40.8418C11.7894 40.1415 12.2124 39.1717 12.2124 38.1288C12.2124 36.044 10.5164 34.3479 8.43137 34.3479C6.34703 34.3479 4.65099 36.044 4.65099 38.129C4.65099 39.1306 5.04667 40.0738 5.72595 40.7704C4.30883 41.5288 3.31725 42.8686 2.98142 44.4379C1.8759 43.1805 1.19884 41.5374 1.19884 39.7358C1.19884 35.8015 4.40029 32.6001 8.33453 32.6001C12.2691 32.6001 15.4701 35.8015 15.4701 39.7358C15.4701 41.5379 14.7936 43.1815 13.6872 44.4389ZM23.9999 34.1654C18.4484 34.1654 13.9319 29.6453 13.9319 24.0891C13.9319 18.5328 18.4484 14.0123 23.9999 14.0123C29.5515 14.0123 34.0684 18.5329 34.0684 24.0891C34.0684 29.6453 29.5515 34.1654 23.9999 34.1654ZM35.3895 45.4347C35.4594 43.605 36.6524 42.0342 38.4171 41.4987C38.5303 41.4643 38.6307 41.3973 38.7059 41.306C38.781 41.2146 38.8275 41.1031 38.8393 40.9854C38.8514 40.868 38.8284 40.7495 38.7734 40.6451C38.7184 40.5406 38.6337 40.4547 38.5301 40.3981C38.1218 40.1762 37.7809 39.8483 37.5434 39.4489C37.3058 39.0496 37.1804 38.5935 37.1803 38.1288C37.1803 36.7049 38.3384 35.5472 39.7623 35.5472C41.1859 35.5472 42.344 36.7049 42.344 38.1288C42.344 39.1036 41.8019 39.9846 40.9301 40.4286C40.8246 40.4823 40.7374 40.5659 40.6794 40.669C40.6213 40.7721 40.5951 40.8901 40.604 41.0081C40.6129 41.1261 40.6565 41.2388 40.7294 41.332C40.8022 41.4253 40.9011 41.4949 41.0134 41.532C42.7187 42.0969 43.8717 43.6535 43.9413 45.4347C42.7479 46.3326 41.2699 46.8715 39.6654 46.8715C38.0603 46.8715 36.5829 46.3326 35.3895 45.4347ZM45.018 44.4389C44.6897 42.9235 43.7432 41.6125 42.3948 40.8418C43.1197 40.1415 43.5429 39.1717 43.5429 38.1288C43.5429 36.044 41.8468 34.3479 39.7623 34.3479C37.6775 34.3479 35.9814 36.044 35.9814 38.129C35.9813 39.1161 36.3672 40.0641 37.0568 40.7704C35.6397 41.5288 34.6481 42.8686 34.3119 44.4379C33.2063 43.1805 32.5297 41.5374 32.5297 39.7358C32.5297 35.8015 35.7308 32.6001 39.6654 32.6001C43.5996 32.6001 46.801 35.8015 46.801 39.7358C46.801 41.5379 46.1241 43.1815 45.018 44.4389Z" fill="#7090E3"/>
<path d="M24.0434 23.4893H23.9579C23.1258 23.4893 22.4493 22.8155 22.4493 21.9872C22.4493 21.1587 23.1258 20.4846 23.9579 20.4846C24.7894 20.4846 25.466 21.1587 25.466 21.9872C25.466 22.3183 25.7345 22.5864 26.0655 22.5864C26.3966 22.5864 26.6648 22.3182 26.6648 21.9872C26.6648 20.7037 25.7614 19.6311 24.5571 19.3571V18.9705C24.5571 18.8115 24.4939 18.6591 24.3815 18.5467C24.2691 18.4342 24.1166 18.3711 23.9576 18.3711C23.7987 18.3711 23.6462 18.4342 23.5338 18.5467C23.4214 18.6591 23.3582 18.8115 23.3582 18.9705V19.3569C22.1538 19.6309 21.25 20.7036 21.25 21.9872C21.25 23.4764 22.4649 24.6886 23.9579 24.6886H24.0434C24.875 24.6886 25.5516 25.3624 25.5516 26.1907C25.5516 27.0191 24.875 27.6933 24.0434 27.6933C23.2114 27.6933 22.5348 27.0191 22.5348 26.1907C22.5348 26.0318 22.4717 25.8793 22.3594 25.7669C22.247 25.6544 22.0946 25.5912 21.9356 25.5911C21.7766 25.5911 21.6241 25.6543 21.5117 25.7668C21.3992 25.8792 21.3361 26.0317 21.3361 26.1907C21.3361 27.4431 22.1981 28.4893 23.3582 28.7938V29.2074C23.3582 29.5386 23.6267 29.8066 23.9578 29.8066C24.2888 29.8066 24.5571 29.5384 24.5571 29.2074V28.8405C25.8049 28.5999 26.7508 27.5049 26.7508 26.1907C26.7508 24.7014 25.5364 23.4893 24.0434 23.4893Z" fill="#7090E3"/>
<path d="M24.0001 15.917C19.4974 15.917 15.834 19.5831 15.834 24.0891C15.834 28.595 19.4974 32.2612 24.0001 32.2612C28.5029 32.2612 32.1663 28.595 32.1663 24.089C32.1663 19.5831 28.5029 15.917 24.0001 15.917ZM24.0001 31.0619C20.1583 31.0619 17.0333 27.9341 17.0333 24.0891C17.0333 20.2441 20.1583 17.1163 24.0001 17.1163C27.842 17.1163 30.967 20.244 30.967 24.0891C30.967 27.9341 27.842 31.0619 24.0001 31.0619Z" fill="#7090E3"/>
</svg>
