<svg width="39" height="39" viewBox="0 0 39 39" fill="none" xmlns="http://www.w3.org/2000/svg">
<path fill-rule="evenodd" clip-rule="evenodd" d="M19.5 39C8.73045 39 0 30.2696 0 19.5C0 8.73045 8.73045 0 19.5 0C30.2696 0 39 8.73045 39 19.5C39 30.2696 30.2696 39 19.5 39ZM20.5489 12.9074V11.0884C20.5489 10.9357 20.3692 10.8526 20.2524 10.9536L11.6611 18.4049C11.5834 18.4722 11.521 18.5555 11.4783 18.6491C11.4356 18.7427 11.4135 18.8443 11.4135 18.9472C11.4135 19.0501 11.4356 19.1517 11.4783 19.2453C11.521 19.3389 11.5834 19.4222 11.6611 19.4895L20.2524 26.943C20.367 27.0441 20.5489 26.961 20.5489 26.8083V24.9893C20.5489 24.8837 20.504 24.7849 20.4254 24.7175L14.7585 19.8017L27.4062 19.8017C27.5051 19.8017 27.5859 19.7208 27.5859 19.622V18.2746C27.5859 18.1758 27.5051 18.095 27.4062 18.095H14.7585L20.4254 13.1791C20.504 13.1095 20.5489 13.0107 20.5489 12.9074Z" fill="#4E73D2"/>
</svg>
