<svg width="48" height="48" viewBox="0 0 48 48" fill="none" xmlns="http://www.w3.org/2000/svg">
<path d="M37.3565 10.6429C33.7888 7.07526 29.0454 5.11035 23.9998 5.11035C18.9541 5.11035 14.2107 7.07516 10.6429 10.643C7.07516 14.2107 5.11035 18.9541 5.11035 23.9998C5.11035 29.0454 7.07516 33.7889 10.6429 37.3566C14.2106 40.9243 18.9542 42.8892 23.9998 42.8892C29.0453 42.8892 33.7889 40.9244 37.3566 37.3566C40.9243 33.7889 42.8892 29.0453 42.8892 23.9998C42.8892 18.9542 40.9242 14.2107 37.3565 10.6429ZM36.0044 36.0044C32.7978 39.2109 28.5345 40.9769 23.9998 40.9769C19.465 40.9769 15.2017 39.2109 11.9952 36.0044C8.78863 32.7978 7.02266 28.5345 7.02266 23.9998C7.02266 19.465 8.78863 15.2017 11.9952 11.9952C15.2017 8.78863 19.465 7.02266 23.9998 7.02266C28.5345 7.02266 32.7978 8.78863 36.0044 11.9952C39.2109 15.2017 40.9769 19.465 40.9769 23.9998C40.9769 28.5345 39.2109 32.7978 36.0044 36.0044Z" fill="#7090E3"/>
<path d="M31.3467 30.3488C33.0432 28.145 33.1994 25.5708 30.8397 23.2111C28.1679 20.5393 25.6522 21.4169 23.4484 22.4506L18.6118 17.614C20.1525 16.2295 21.381 16.2879 21.7321 15.9368C22.0831 15.5858 21.8296 14.9033 21.5761 14.6498C20.9326 14.0063 18.8848 15.0788 17.4223 16.4245L16.8568 15.859C16.6617 15.6639 16.2522 15.7224 16.0377 15.9368C15.7842 16.1904 15.7647 16.5609 15.9598 16.756L16.5643 17.3605C14.9847 19.1742 13.9121 21.8069 16.3692 24.2641C18.8654 26.7603 21.2837 25.5123 23.6044 24.4006L29.2794 30.0756C26.8027 32.4354 24.8331 31.3238 24.365 31.7918C24.0725 32.0843 24.1894 32.7863 24.5015 33.0983C25.2036 33.8004 28.0314 33.7419 30.508 31.3042L31.2101 32.0063C31.4051 32.2013 31.7756 32.1818 32.0292 31.9283C32.2437 31.7138 32.3021 31.3043 32.1071 31.1093L31.3467 30.3488ZM17.4808 22.9184C16.0377 21.4752 16.6422 19.8176 17.7734 18.4915L22.2978 23.0159C20.5816 23.8351 19.0021 24.4397 17.4808 22.9184ZM30.079 29.198L24.7549 23.8739C26.4126 23.1915 28.0118 22.8795 29.7084 24.5761C31.1516 26.0193 31.2296 27.6184 30.079 29.198ZM24.0003 0C23.6136 0 23.2231 0.00928125 22.8396 0.0276563C22.3121 0.052875 21.905 0.500906 21.9301 1.02834C21.9546 1.54022 22.3773 1.93884 22.8845 1.93884C22.8998 1.93884 22.9152 1.93847 22.9309 1.93772C23.2871 1.92086 23.6437 1.91242 24.0003 1.91241C24.5283 1.91241 24.9565 1.48425 24.9565 0.95625C24.9565 0.428156 24.5283 0 24.0003 0Z" fill="#7090E3"/>
<path d="M46.0496 14.5076C45.0164 12.1068 43.5959 9.89208 41.8448 7.95171H42.2122C42.7402 7.95171 43.1683 7.52356 43.1683 6.99556C43.1683 6.46756 42.7402 6.0394 42.2122 6.0394H39.5175C38.9895 6.0394 38.5613 6.46756 38.5613 6.99556V9.69021C38.5613 10.2182 38.9895 10.6464 39.5175 10.6464C40.0455 10.6464 40.4737 10.2182 40.4737 9.69021V9.28606C44.1043 13.3371 46.0878 18.5048 46.0878 23.9996C46.0878 36.1787 36.1793 46.0872 24.0001 46.0872C11.8208 46.0872 1.91231 36.1787 1.91231 23.9996C1.91231 14.0452 8.61431 5.27749 18.2102 2.67828C18.7199 2.54018 19.0211 2.01499 18.8831 1.50537C18.745 0.99565 18.2197 0.694056 17.7102 0.832431C7.28269 3.65693 0 13.1836 0 23.9996C0 30.4103 2.49638 36.4371 7.02956 40.9701C11.5625 45.5032 17.5893 47.9996 24 47.9996C30.4107 47.9996 36.4375 45.5032 40.9705 40.9701C45.5036 36.4371 48 30.4103 48 23.9996C48 20.7036 47.3438 17.51 46.0496 14.5076Z" fill="#7090E3"/>
</svg>
