<svg width="39" height="39" viewBox="0 0 39 39" fill="none" xmlns="http://www.w3.org/2000/svg">
<g opacity="0.3">
<path fill-rule="evenodd" clip-rule="evenodd" d="M19.5 39C30.2696 39 39 30.2696 39 19.5C39 8.73045 30.2696 0 19.5 0C8.73045 0 0 8.73045 0 19.5C0 30.2696 8.73045 39 19.5 39ZM18.4511 12.9074V11.0884C18.4511 10.9357 18.6308 10.8526 18.7476 10.9536L27.3389 18.4049C27.4166 18.4722 27.479 18.5555 27.5217 18.6491C27.5644 18.7427 27.5865 18.8443 27.5865 18.9472C27.5865 19.0501 27.5644 19.1517 27.5217 19.2453C27.479 19.3389 27.4166 19.4222 27.3389 19.4895L18.7476 26.943C18.633 27.0441 18.4511 26.961 18.4511 26.8083V24.9893C18.4511 24.8837 18.496 24.7849 18.5746 24.7175L24.2415 19.8017L11.5938 19.8017C11.4949 19.8017 11.4141 19.7208 11.4141 19.622V18.2746C11.4141 18.1758 11.4949 18.095 11.5938 18.095H24.2415L18.5746 13.1791C18.496 13.1095 18.4511 13.0107 18.4511 12.9074Z" fill="#DEE0E5"/>
</g>
</svg>
