<svg width="42" height="42" viewBox="0 0 42 42" fill="none" xmlns="http://www.w3.org/2000/svg">
<g id="Group">
<path id="Vector" d="M12.1008 17.9424H39.1283C39.505 17.9422 39.878 18.0166 40.2259 18.1611C40.5738 18.3057 40.8897 18.5176 41.1554 18.7847V18.7896C41.4221 19.0546 41.6338 19.3696 41.7784 19.7167C41.923 20.0637 41.9976 20.4358 41.998 20.8118V39.131C41.998 39.9184 41.6745 40.6383 41.1554 41.1574C40.8898 41.4247 40.574 41.6367 40.226 41.7813C39.8781 41.9259 39.505 42.0002 39.1283 42H12.1008C11.7242 41.9998 11.3513 41.9253 11.0035 41.7807C10.6557 41.6361 10.3398 41.4243 10.0741 41.1574C9.80691 40.8919 9.59494 40.5761 9.45033 40.2284C9.30571 39.8806 9.23133 39.5076 9.23145 39.131V20.8118C9.23145 20.024 9.55464 19.3041 10.0741 18.7847C10.34 18.518 10.6558 18.3063 11.0036 18.1618C11.3514 18.0173 11.7242 17.9427 12.1008 17.9424ZM39.1283 19.2542H12.1008C11.8966 19.2547 11.6945 19.2956 11.5062 19.3745C11.3178 19.4534 11.1469 19.5687 11.0033 19.7139C10.858 19.8575 10.7426 20.0285 10.6637 20.2169C10.5847 20.4053 10.5438 20.6075 10.5433 20.8118V39.131C10.5433 39.5592 10.7208 39.9506 11.0033 40.2331C11.1472 40.3776 11.3182 40.4922 11.5066 40.5703C11.695 40.6484 11.8969 40.6885 12.1008 40.6882H39.1283C39.3329 40.6885 39.5355 40.6484 39.7247 40.5704C39.9138 40.4923 40.0856 40.3777 40.2304 40.2331C40.3751 40.0883 40.4898 39.9165 40.568 39.7274C40.6462 39.5383 40.6863 39.3356 40.6862 39.131V20.8118C40.6864 20.6071 40.6463 20.4044 40.5681 20.2153C40.4899 20.0262 40.3752 19.8543 40.2304 19.7096V19.7142C39.9385 19.4209 39.5421 19.2554 39.1283 19.2542Z" fill="#E1E5E1"/>
<path id="Vector_2" d="M20.1359 12.4717H31.099C31.723 12.4717 32.2966 12.7266 32.7067 13.141C33.1166 13.5555 33.3764 14.1251 33.3764 14.7488V19.2532H29.2956V16.4662H21.9395V19.2536H17.8584V14.7488C17.8584 14.4498 17.9173 14.1536 18.0318 13.8773C18.1462 13.601 18.314 13.35 18.5255 13.1385C18.737 12.9271 18.988 12.7593 19.2643 12.6449C19.5407 12.5305 19.8368 12.4716 20.1359 12.4717ZM31.0986 13.7835H20.1359C19.8714 13.7835 19.6302 13.8924 19.4524 14.0703C19.2723 14.2502 19.1709 14.4942 19.1705 14.7488V17.9414H20.6277V15.1544H30.6074V17.9417H32.0646V14.7491C32.0646 14.4847 31.9553 14.2435 31.7824 14.0706H31.7775C31.6893 13.9797 31.5838 13.9075 31.4672 13.8582C31.3506 13.8089 31.2252 13.7835 31.0986 13.7835Z" fill="#E1E5E1"/>
<path id="Vector_3" d="M7.24617 35.6012C7.60611 35.6012 7.90208 35.8922 7.90208 36.2567C7.90121 36.4304 7.83182 36.5967 7.70899 36.7195C7.58616 36.8422 7.41983 36.9115 7.24617 36.9123H1.96773C1.43027 36.9123 0.938419 36.6892 0.578473 36.3342V36.3296C0.395374 36.1475 0.250024 35.931 0.150756 35.6926C0.0514891 35.4542 0.00025776 35.1986 0 34.9403L0 1.96935C0 1.43189 0.223121 0.940044 0.578473 0.580426C0.760558 0.397298 0.977013 0.251929 1.21542 0.152659C1.45382 0.05339 1.70948 0.00217502 1.96773 0.00195312L20.4182 0.00195313C20.7007 0.00195313 20.9648 0.0567489 21.2112 0.166012C21.4584 0.280031 21.6811 0.440814 21.8671 0.639487L26.8181 5.93663C26.8316 5.95041 26.8407 5.96387 26.8545 5.97765C27.0059 6.14813 27.1261 6.34394 27.2095 6.55612C27.2939 6.78359 27.3371 7.02423 27.3372 7.26682V10.4824C27.3371 10.6563 27.268 10.8231 27.145 10.9461C27.022 11.0691 26.8552 11.1382 26.6813 11.1383C26.5948 11.1387 26.5091 11.1221 26.4291 11.0893C26.349 11.0566 26.2763 11.0084 26.2149 10.9474C26.1535 10.8865 26.1048 10.814 26.0715 10.7342C26.0382 10.6544 26.0209 10.5689 26.0208 10.4824V7.26682C26.0208 7.17561 26.0119 7.09391 25.9844 7.02073C25.9571 6.9611 25.9236 6.90456 25.8843 6.85208C25.8751 6.84322 25.8656 6.83863 25.8567 6.82944L20.9103 1.5323C20.845 1.46302 20.7679 1.40592 20.6826 1.36364C20.5988 1.32966 20.509 1.3127 20.4185 1.31377H1.96773C1.8818 1.31368 1.79674 1.33099 1.71768 1.36466C1.63862 1.39832 1.56719 1.44765 1.5077 1.50966L1.50311 1.50506C1.38466 1.62319 1.31182 1.79184 1.31182 1.96935V34.9403C1.31182 35.1224 1.38466 35.2865 1.50311 35.4049L1.5077 35.4095C1.62615 35.5237 1.78989 35.6012 1.96773 35.6012H7.24617Z" fill="#E1E5E1"/>
<path id="Vector_4" d="M23.2377 29.8985L11.9832 27.7618C11.2226 27.6207 10.5208 27.2883 10.0158 26.7827C9.53251 26.3 9.23195 25.6671 9.23195 24.9062H10.5438C10.5438 25.2933 10.699 25.6123 10.9447 25.8584C11.2591 26.1678 11.7191 26.382 12.2247 26.4775L23.4792 28.6136L23.2377 29.8985ZM41.9982 24.9062C41.9982 25.6667 41.6976 26.2954 41.2146 26.7781V26.7827C40.709 27.2883 40.0078 27.621 39.2518 27.7618L27.997 29.9162L27.7513 28.6319L39.0057 26.4775C39.516 26.3774 39.976 26.1681 40.29 25.8584C40.4169 25.7346 40.5175 25.5865 40.5856 25.4228C40.6538 25.2592 40.688 25.0834 40.6864 24.9062H41.9982ZM16.7153 5.86314C17.0796 5.86314 17.3713 6.15484 17.3713 6.51905C17.3712 6.69298 17.302 6.85976 17.179 6.98275C17.0561 7.10574 16.8893 7.17487 16.7153 7.17496H7.56084C7.47296 7.17774 7.38542 7.16283 7.30341 7.13112C7.22141 7.09941 7.14661 7.05154 7.08346 6.99036C7.02031 6.92918 6.9701 6.85593 6.93581 6.77497C6.90153 6.694 6.88386 6.60697 6.88386 6.51905C6.88386 6.43113 6.90153 6.3441 6.93581 6.26313C6.9701 6.18217 7.02031 6.10892 7.08346 6.04774C7.14661 5.98656 7.22141 5.93869 7.30341 5.90698C7.38542 5.87527 7.47296 5.86036 7.56084 5.86314H16.7153ZM4.43584 5.86314C4.80038 5.86314 5.09667 6.15484 5.09667 6.51905C5.09563 6.69354 5.02552 6.86051 4.90167 6.98344C4.77783 7.10636 4.61034 7.17522 4.43584 7.17496H3.94432C3.58405 7.17496 3.28809 6.879 3.28809 6.51905C3.28817 6.34506 3.35735 6.17823 3.48041 6.05523C3.60347 5.93223 3.77033 5.86314 3.94432 5.86314H4.43584ZM12.4019 11.8162C12.7618 11.8162 13.0578 12.1118 13.0578 12.4721C13.0578 12.8363 12.7618 13.1277 12.4019 13.1277H7.56052C7.391 13.1211 7.23061 13.0492 7.113 12.9269C6.99539 12.8046 6.92969 12.6416 6.92969 12.4719C6.92969 12.3023 6.99539 12.1392 7.113 12.017C7.23061 11.8947 7.391 11.8228 7.56052 11.8162H12.4019ZM4.43617 11.8162C4.80038 11.8162 5.09667 12.1118 5.09667 12.4721C5.09667 12.8363 4.80071 13.1277 4.43617 13.1277H3.94432C3.77039 13.1277 3.60357 13.0586 3.48053 12.9357C3.35748 12.8128 3.28826 12.646 3.28809 12.4721C3.28809 12.1122 3.58405 11.8162 3.94432 11.8162H4.43617ZM16.7153 8.8418C17.0796 8.8418 17.3713 9.1335 17.3713 9.49771C17.3712 9.67164 17.302 9.83842 17.179 9.96141C17.0561 10.0844 16.8893 10.1535 16.7153 10.1536H7.56084C7.47296 10.1564 7.38542 10.1415 7.30341 10.1098C7.22141 10.0781 7.14661 10.0302 7.08346 9.96902C7.02031 9.90784 6.9701 9.83459 6.93581 9.75362C6.90153 9.67266 6.88386 9.58563 6.88386 9.49771C6.88386 9.40978 6.90153 9.32276 6.93581 9.24179C6.9701 9.16083 7.02031 9.08758 7.08346 9.0264C7.14661 8.96522 7.22141 8.91735 7.30341 8.88564C7.38542 8.85393 7.47296 8.83902 7.56084 8.8418H16.7153ZM4.43584 8.8418C4.80038 8.8418 5.09667 9.1335 5.09667 9.49771C5.09555 9.67217 5.02541 9.8391 4.90158 9.962C4.77775 10.0849 4.61031 10.1538 4.43584 10.1536H3.94432C3.58405 10.1536 3.28809 9.85765 3.28809 9.49771C3.28817 9.32372 3.35735 9.15689 3.48041 9.03389C3.60347 8.91089 3.77033 8.8418 3.94432 8.8418H4.43584ZM21.0924 0.2428L27.0632 6.72412C27.1803 6.85214 27.2418 7.02143 27.2341 7.19477C27.2264 7.36811 27.1502 7.5313 27.0222 7.64843C26.902 7.75971 26.7443 7.82157 26.5806 7.82168H22.4679C22.1344 7.82155 21.8041 7.75551 21.4962 7.62735C21.1882 7.49919 20.9086 7.31144 20.6734 7.07488L20.6324 7.03387C20.179 6.56265 19.9259 5.93401 19.9263 5.28007V0.657542C19.9264 0.483554 19.9956 0.316721 20.1186 0.193724C20.2417 0.0707268 20.4086 0.00163278 20.5826 0.0016328C20.787 0.0016328 20.9694 0.0971153 21.0924 0.2428ZM25.087 6.51019L21.2381 2.33784V5.2804C21.2376 5.59331 21.3566 5.89461 21.5708 6.12268L21.5984 6.15024C21.7126 6.26439 21.8482 6.3549 21.9974 6.4166C22.1466 6.47831 22.3065 6.51 22.4679 6.50986L25.087 6.51019ZM29.8237 3.5358C29.8067 3.62014 29.7731 3.70026 29.7248 3.77149C29.6765 3.84272 29.6146 3.90364 29.5425 3.9507C29.4705 3.99775 29.3898 4.03001 29.3052 4.04559C29.2206 4.06116 29.1337 4.05975 29.0496 4.04143C28.9656 4.02439 28.8857 3.99096 28.8145 3.94303C28.7434 3.89511 28.6823 3.83363 28.635 3.76211C28.5876 3.69059 28.5547 3.61044 28.5384 3.52623C28.522 3.44202 28.5223 3.3554 28.5394 3.27133L28.7901 2.07797L29.1179 0.524982C29.1484 0.377159 29.2289 0.244362 29.3459 0.148929C29.4628 0.0534955 29.6091 0.00124855 29.76 0.000976562H32.0555C32.3879 0.000976562 32.6616 0.247065 32.7069 0.570262L33.1895 2.86578C33.5265 2.96159 33.8546 3.07545 34.1732 3.20735C34.4967 3.33958 34.8107 3.49445 35.1113 3.66311L37.12 2.35129C37.2454 2.27049 37.3946 2.23503 37.5429 2.25079C37.6911 2.26654 37.8296 2.33258 37.9351 2.43791H37.94L38.7508 3.24869C38.7597 3.26247 38.7734 3.27166 38.783 3.28511L39.5616 4.06407C39.789 4.28719 39.8123 4.64254 39.6347 4.89749L38.3364 6.88753C38.5087 7.19065 38.6624 7.50404 38.7964 7.82595C38.924 8.14455 39.0379 8.47267 39.1334 8.80964L41.4745 9.30609C41.6285 9.3362 41.7664 9.42103 41.8627 9.54492C41.9591 9.6688 42.0073 9.82336 41.9985 9.98004V12.2398C41.9985 12.5722 41.7528 12.8501 41.4292 12.8911L39.1337 13.3738C39.0399 13.7077 38.9274 14.0362 38.7967 14.3575C38.6089 14.8107 38.3819 15.2467 38.1182 15.6604C38.0726 15.7339 38.0129 15.7976 37.9424 15.8478C37.872 15.898 37.7923 15.9336 37.708 15.9527C37.6236 15.9717 37.5363 15.9738 37.4511 15.9588C37.366 15.9438 37.2847 15.9119 37.2119 15.8652C37.0652 15.7715 36.9617 15.6234 36.9241 15.4534C36.8865 15.2834 36.9179 15.1054 37.0114 14.9586C37.4512 14.2677 37.7701 13.5069 37.9544 12.709C37.9761 12.5792 38.0364 12.4589 38.1274 12.3639C38.2184 12.2688 38.3359 12.2034 38.4647 12.1761L40.6867 11.7115V11.092H40.6913V10.4771L38.464 10.0079C38.3411 9.98225 38.2281 9.92182 38.1384 9.83382C38.0488 9.74582 37.9863 9.63395 37.9584 9.51149C37.8699 9.1064 37.745 8.71017 37.585 8.32764C37.4257 7.9444 37.2336 7.57564 37.0108 7.22549C36.9446 7.11943 36.9099 6.99677 36.9107 6.87177C36.9116 6.74677 36.9478 6.62457 37.0154 6.51938L38.2593 4.61563L37.858 4.21041C37.8445 4.20155 37.8357 4.19203 37.8216 4.17825L37.3845 3.7412L35.5215 4.95721C35.4154 5.0386 35.2868 5.08532 35.1532 5.09102C35.0197 5.09671 34.8876 5.0611 34.775 4.98903C34.4247 4.76653 34.056 4.57454 33.6728 4.41515C33.2995 4.26079 32.9141 4.13744 32.5205 4.04635C32.3909 4.02526 32.2709 3.9651 32.1765 3.87391C32.0821 3.78272 32.0178 3.66487 31.9922 3.53612L31.5223 1.31312H30.288L30.074 2.34243L29.8237 3.5358ZM30.9078 7.02927C30.5432 7.02927 30.2515 6.73758 30.2515 6.37337C30.2515 6.00915 30.5432 5.71746 30.9078 5.71746C32.3922 5.71746 33.7358 6.3189 34.7107 7.29341C35.2099 7.79189 35.6056 8.38408 35.8753 9.03596C36.145 9.68785 36.2832 10.3866 36.282 11.092C36.2829 11.478 36.2416 11.8628 36.159 12.2398C36.0767 12.616 35.9547 12.9823 35.7951 13.3328C35.7225 13.4909 35.59 13.6138 35.4269 13.6744C35.2638 13.7351 35.0833 13.7286 34.9249 13.6563C34.8471 13.6204 34.7772 13.5696 34.719 13.5067C34.6609 13.4437 34.6157 13.37 34.5861 13.2896C34.5566 13.2092 34.5431 13.1237 34.5466 13.0381C34.55 12.9525 34.5703 12.8684 34.6063 12.7907C34.7245 12.5358 34.8157 12.2578 34.8793 11.9661C34.9387 11.684 34.9705 11.3923 34.9705 11.0917C34.9705 9.97118 34.5151 8.95533 33.7818 8.21772C33.0189 7.45674 31.9853 7.02935 30.9078 7.02927Z" fill="#E1E5E1"/>
<path id="Vector_5" d="M23.4516 24.9248H27.7828C28.1247 24.9248 28.4341 25.0659 28.6575 25.2887L28.6621 25.2933C28.895 25.5267 29.0259 25.8429 29.0263 26.1726V30.9733C29.0263 31.9114 28.6441 32.7632 28.0243 33.3824C27.4097 34.0022 26.5533 34.3848 25.6149 34.3848C24.6765 34.3848 23.8247 34.0022 23.2055 33.3824C22.5903 32.7632 22.2031 31.9118 22.2031 30.9733V26.1726C22.2031 25.8311 22.3445 25.5164 22.5723 25.2933V25.2887C22.8063 25.0568 23.1221 24.9261 23.4516 24.9248ZM27.7149 26.2366H23.5199V30.9733C23.5193 31.2485 23.5734 31.5211 23.679 31.7752C23.7845 32.0293 23.9394 32.26 24.1348 32.4538C24.3286 32.6494 24.5591 32.8048 24.8131 32.911C25.0671 33.0173 25.3396 33.0723 25.6149 33.073C25.891 33.0728 26.1643 33.018 26.4191 32.9118C26.674 32.8055 26.9052 32.6499 27.0996 32.4538C27.4925 32.0611 27.7137 31.5288 27.7149 30.9733V26.2366Z" fill="#E1E5E1"/>
<path id="Vector_6" d="M25.6149 31.5423C25.9771 31.5423 26.2708 31.2486 26.2708 30.8864C26.2708 30.5241 25.9771 30.2305 25.6149 30.2305C25.2526 30.2305 24.959 30.5241 24.959 30.8864C24.959 31.2486 25.2526 31.5423 25.6149 31.5423Z" fill="#E1E5E1"/>
</g>
</svg>
