<svg width="104" height="103" viewBox="0 0 104 103" fill="none" xmlns="http://www.w3.org/2000/svg">
<rect x="52" y="1.41421" width="70.3209" height="70.3209" transform="rotate(45 52 1.41421)" stroke="#4F5870" stroke-width="2"/>
<path fill-rule="evenodd" clip-rule="evenodd" d="M44.1086 38.6739C45.6694 37.1131 47.6579 36.0503 49.8227 35.6197C51.9875 35.1891 54.2314 35.4101 56.2706 36.2548C58.3098 37.0994 60.0527 38.5298 61.279 40.365C62.5053 42.2002 63.1598 44.3578 63.1598 46.5651V55.2051C63.1598 58.1649 61.9841 61.0035 59.8912 63.0964C57.7983 65.1893 54.9597 66.3651 51.9998 66.3651C49.04 66.3651 46.2014 65.1893 44.1085 63.0964C42.0156 61.0035 40.8398 58.1649 40.8398 55.2051V46.5651C40.8399 43.6053 42.0157 40.7667 44.1086 38.6739ZM51.9998 37.5651C49.6129 37.5651 47.3237 38.5133 45.6359 40.2011C43.9481 41.8889 42.9998 44.1781 42.9998 46.5651V55.2051C42.9998 57.592 43.9481 59.8812 45.6359 61.569C47.3237 63.2568 49.6129 64.2051 51.9998 64.2051C54.3868 64.2051 56.676 63.2568 58.3638 61.569C60.0516 59.8812 60.9998 57.592 60.9998 55.2051V46.5651C60.9998 44.1781 60.0516 41.8889 58.3638 40.2011C56.676 38.5133 54.3868 37.5651 51.9998 37.5651Z" fill="#7E99CE"/>
<path fill-rule="evenodd" clip-rule="evenodd" d="M51.9999 41.165C52.2864 41.165 52.5611 41.2788 52.7636 41.4814C52.9661 41.6839 53.0799 41.9586 53.0799 42.245V53.765C53.0799 54.0515 52.9661 54.3262 52.7636 54.5287C52.5611 54.7313 52.2864 54.845 51.9999 54.845C51.7135 54.845 51.4388 54.7313 51.2362 54.5287C51.0337 54.3262 50.9199 54.0515 50.9199 53.765V42.245C50.9199 41.9586 51.0337 41.6839 51.2362 41.4814C51.4388 41.2788 51.7135 41.165 51.9999 41.165Z" fill="#7E99CE"/>
<path fill-rule="evenodd" clip-rule="evenodd" d="M46.9164 48.6816C47.1189 48.4794 47.3934 48.3658 47.6796 48.3658C47.9658 48.3658 48.2403 48.4794 48.4428 48.6816L51.9996 52.2384L55.5564 48.6816C55.6553 48.5755 55.7745 48.4904 55.907 48.4314C56.0395 48.3724 56.1825 48.3406 56.3275 48.3381C56.4725 48.3355 56.6166 48.3622 56.7511 48.4165C56.8855 48.4708 57.0077 48.5517 57.1102 48.6542C57.2128 48.7568 57.2937 48.8789 57.348 49.0134C57.4023 49.1479 57.429 49.2919 57.4264 49.4369C57.4238 49.582 57.3921 49.725 57.3331 49.8574C57.2741 49.9899 57.1889 50.1092 57.0828 50.208L52.7628 54.528C52.5603 54.7303 52.2858 54.8439 51.9996 54.8439C51.7134 54.8439 51.4389 54.7303 51.2364 54.528L46.9164 50.208C46.7142 50.0055 46.6006 49.731 46.6006 49.4448C46.6006 49.1586 46.7142 48.8841 46.9164 48.6816Z" fill="#7E99CE"/>
</svg>
