<svg width="51" height="51" viewBox="0 0 51 51" fill="none" xmlns="http://www.w3.org/2000/svg">
<path d="M21.7136 9.50416C24.1091 9.50416 26.0409 7.57234 26.0409 5.17688C26.0409 2.78143 24.1091 0.849609 21.7136 0.849609C19.3182 0.849609 17.3864 2.78143 17.3864 5.17688C17.3864 7.57234 19.3955 9.50416 21.7136 9.50416ZM21.7136 2.39506C23.2591 2.39506 24.4955 3.63143 24.4955 5.17688C24.4955 6.72234 23.2591 7.9587 21.7136 7.9587C20.1682 7.9587 18.9318 6.72234 18.9318 5.17688C18.9318 3.63143 20.2455 2.39506 21.7136 2.39506ZM20.4773 43.736C20.1682 43.4269 19.7045 43.4269 19.3955 43.736L17.2318 45.8996C16.9227 46.2087 16.9227 46.6723 17.2318 46.9814C17.5409 47.2905 18.0045 47.2905 18.3136 46.9814L19.1636 46.1314V49.3769C19.1636 49.8405 19.4727 50.1496 19.9364 50.1496C20.4 50.1496 20.7091 49.8405 20.7091 49.3769V46.1314L21.5591 46.9814C21.8682 47.2905 22.3318 47.2905 22.6409 46.9814C22.95 46.6723 22.95 46.2087 22.6409 45.8996L20.4773 43.736ZM31.8364 36.7042C31.5273 36.3951 31.0636 36.3951 30.7545 36.7042L28.5909 38.8678C28.2818 39.1769 28.2818 39.6405 28.5909 39.9496C28.9 40.2587 29.3636 40.2587 29.6727 39.9496L30.5227 39.0996V49.3769C30.5227 49.8405 30.8318 50.1496 31.2955 50.1496C31.7591 50.1496 32.0682 49.8405 32.0682 49.3769V39.0996L32.9182 39.9496C33.2273 40.2587 33.6909 40.2587 34 39.9496C34.3091 39.6405 34.3091 39.1769 34 38.8678L31.8364 36.7042ZM44.1227 29.9814C43.8136 29.6723 43.35 29.6723 43.0409 29.9814L40.8773 32.1451C40.5682 32.4542 40.5682 32.9178 40.8773 33.2269C41.1864 33.536 41.65 33.536 41.9591 33.2269L42.8091 32.3769V49.2996C42.8091 49.7632 43.1182 50.0723 43.5818 50.0723C44.0455 50.0723 44.3545 49.7632 44.3545 49.2996V32.3769L45.2045 33.2269C45.5136 33.536 45.9773 33.536 46.2864 33.2269C46.5955 32.9178 46.5955 32.4542 46.2864 32.1451L44.1227 29.9814Z" fill="#7090E3"/>
<path d="M49.4543 25.8864H36.4725C36.0088 25.8864 35.6997 26.1955 35.6997 26.6591V33.3819H32.9179V27.2773C32.9952 25.0364 31.527 23.1046 29.3634 22.5637L25.7316 21.6364L25.8861 16.3046L27.9725 17.7728C31.0634 19.9364 33.9225 17.7728 35.777 17.3864C36.7816 17.0773 37.3997 15.9955 37.2452 14.9909C37.0134 13.6773 35.6997 12.8273 34.3861 13.2909L32.2225 13.9864C30.3679 14.6046 29.5179 12.8273 27.1997 11.2819C25.4997 9.89095 24.1088 10.5091 18.0043 9.96822C16.6906 9.89095 15.4543 10.4319 14.6043 11.4364L9.27246 17.6182C9.11792 17.85 8.96337 18.0819 8.8861 18.3137L7.72701 23.0273C7.34064 24.5728 8.57701 26.0409 10.1225 25.9637C11.127 25.9637 11.977 25.2682 12.2861 24.2637C13.9088 19.2409 13.7543 19.4728 13.8316 19.3955L16.6134 16.3819V22.4091C16.6134 23.0273 16.7679 23.6455 16.9997 24.1864L15.5316 38.7137C15.4543 39.4864 15.7634 40.1819 16.227 40.6455H12.6725C12.2088 40.6455 11.8997 40.9546 11.8997 41.4182V48.1409H1.54519C1.08155 48.1409 0.772461 48.45 0.772461 48.9137C0.772461 49.3773 1.08155 49.6864 1.54519 49.6864H12.6725C13.1361 49.6864 13.4452 49.3773 13.4452 48.9137V42.1909H24.4952C24.9588 42.1909 25.2679 41.8819 25.2679 41.4182V34.9273H36.4725C36.9361 34.9273 37.2452 34.6182 37.2452 34.1546V27.4319H49.4543C49.9179 27.4319 50.227 27.1228 50.227 26.6591C50.227 26.1955 49.9179 25.8864 49.4543 25.8864ZM12.7497 18.3909C12.5952 18.6228 12.4406 18.8546 12.3634 19.0864L10.8179 23.8773C10.7406 24.1864 10.4316 24.4182 10.0452 24.4955C9.50428 24.4955 9.04064 24.0319 9.19519 23.4909C10.5088 18.5455 10.4316 18.7 10.5088 18.6228L15.8406 12.4409C16.3816 11.8228 17.1543 11.5137 18.0043 11.5137C24.3406 12.0546 25.1906 11.5909 26.2725 12.5182C28.2816 13.8319 29.827 16.5364 32.7634 15.5319L34.927 14.8364C35.3134 14.6819 35.6997 14.9909 35.777 15.3773C35.8543 15.6864 35.6225 15.9955 35.3134 16.0728C33.3043 16.5364 31.1406 18.2364 28.8997 16.6909L25.6543 14.3728C25.4225 14.2182 25.1134 14.2182 24.8816 14.2955C24.6497 14.45 24.4952 14.6819 24.4952 14.9909L24.3406 22.4091C24.3406 22.7955 24.5725 23.1046 24.9588 23.1819L29.2088 24.2637C30.677 24.65 31.6043 25.9637 31.527 27.4319V33.5364H29.3634V28.9773C29.3634 27.8182 28.5906 26.8909 27.4316 26.6591L20.3997 25.1909C19.1634 24.9591 18.3134 23.8 18.3134 22.5637V14.45C18.3134 14.1409 18.0816 13.8319 17.8497 13.7546C17.5406 13.6 17.2316 13.7546 16.9997 13.9864L12.7497 18.3909ZM20.0134 26.5819L21.2497 26.8909L19.3179 39.1C19.2406 39.6409 18.6997 40.1046 18.1588 40.0273C17.5406 39.95 17.077 39.4864 17.1543 38.8682L18.4679 25.8864C18.8543 26.1955 19.3952 26.4273 20.0134 26.5819ZM24.4952 33.4591C24.0316 33.4591 23.7225 33.7682 23.7225 34.2319V40.7228H20.1679C20.477 40.3364 20.7088 39.8728 20.8634 39.4091L22.7952 27.2L27.0452 28.1273C27.4316 28.2046 27.7406 28.5909 27.7406 28.9773V33.5364H24.4952V33.4591Z" fill="#7090E3"/>
</svg>
