<svg width="49" height="49" viewBox="0 0 49 49" fill="none" xmlns="http://www.w3.org/2000/svg">
<path d="M40.4374 34.895C40.4362 33.8291 40.0123 32.8073 39.2586 32.0536C38.5049 31.2999 37.4831 30.876 36.4172 30.8748H30.0203C29.8289 29.5471 29.1655 28.333 28.1516 27.4548C27.1377 26.5766 25.8413 26.0932 24.4999 26.0932C23.1586 26.0932 21.8622 26.5766 20.8483 27.4548C19.8344 28.333 19.171 29.5471 18.9796 30.8748H12.5827C11.8974 30.8748 11.2235 31.0499 10.625 31.3836C10.0264 31.7174 9.52312 32.1985 9.16284 32.7814C8.80256 33.3644 8.59727 34.0297 8.56645 34.7143C8.53564 35.3989 8.68033 36.08 8.98678 36.6929L10.5234 39.766L10.5111 39.7743L10.5768 39.8729L14.1406 47.0003V48.406H34.8593V47.0003L38.4232 39.8726L38.4888 39.7743L38.4765 39.766L40.0131 36.6929C40.2915 36.1344 40.4367 35.519 40.4374 34.895ZM24.4999 27.6873C25.418 27.6885 26.3077 28.0061 27.0188 28.5868C27.73 29.1674 28.2193 29.9755 28.4041 30.8748H26.4921C26.1208 30.8746 25.7532 30.9488 25.4111 31.093C25.0689 31.2373 24.7591 31.4486 24.4999 31.7145C24.2408 31.4486 23.931 31.2373 23.5888 31.093C23.2466 30.9488 22.8791 30.8746 22.5078 30.8748H20.5958C20.7806 29.9755 21.2699 29.1674 21.9811 28.5868C22.6922 28.0061 23.5818 27.6885 24.4999 27.6873ZM10.4124 35.9803C10.2274 35.6104 10.1401 35.1993 10.1586 34.7861C10.1772 34.3729 10.3011 33.9713 10.5186 33.6194C10.736 33.2676 11.0398 32.9771 11.401 32.7757C11.7623 32.5743 12.1691 32.4685 12.5827 32.4685H22.5078C22.8248 32.4685 23.1288 32.5944 23.353 32.8186C23.5771 33.0428 23.7031 33.3468 23.7031 33.6638C23.7031 33.9808 23.5771 34.2849 23.353 34.509C23.1288 34.7332 22.8248 34.8591 22.5078 34.8591H16.2268C15.9732 34.8591 15.7232 34.9196 15.4977 35.0357C15.2721 35.1517 15.0776 35.3199 14.9301 35.5262C14.7826 35.7326 14.6865 35.9711 14.6498 36.2221C14.6131 36.473 14.6368 36.7291 14.7189 36.9691L11.8598 38.8751L10.4124 35.9803ZM26.4921 36.4529H27.3557C27.3428 36.4661 27.3304 36.4798 27.3174 36.4929L26.7938 37.0164C26.5712 37.2378 26.3946 37.5013 26.2745 37.7914C26.1543 38.0816 26.0928 38.3927 26.0937 38.7067V39.6404H22.9062V38.7067C22.907 38.3927 22.8456 38.0816 22.7254 37.7914C22.6052 37.5013 22.4286 37.2378 22.2059 37.0164L21.6826 36.4929C21.6694 36.4799 21.6571 36.4661 21.6442 36.4529H22.5078C22.8791 36.453 23.2466 36.3788 23.5888 36.2346C23.931 36.0904 24.2408 35.8791 24.4999 35.6132C24.7591 35.8791 25.0689 36.0904 25.4111 36.2346C25.7532 36.3788 26.1208 36.453 26.4921 36.4529ZM31.1793 39.6404H27.6874V38.7067C27.6872 38.6021 27.7077 38.4984 27.7477 38.4017C27.7878 38.305 27.8466 38.2172 27.9208 38.1434L28.4444 37.6199C28.7923 37.2721 29.0925 36.8797 29.3372 36.4529H32.7731L31.1793 39.6404ZM17.8205 39.6404L16.2268 36.4529H19.6627C19.9074 36.8797 20.2076 37.2721 20.5556 37.6199L21.079 38.1433C21.1532 38.2171 21.2121 38.3049 21.2522 38.4016C21.2922 38.4983 21.3127 38.602 21.3124 38.7067V39.6404H17.8205ZM12.5781 40.3116L15.4252 38.4135L16.062 39.6869C15.5205 39.796 15.0334 40.089 14.6832 40.5163C14.333 40.9435 14.1413 41.4786 14.1406 42.031V43.4367L12.5781 40.3116ZM33.2656 46.8123H15.7343V42.031C15.7346 41.8197 15.8186 41.6172 15.968 41.4678C16.1174 41.3184 16.3199 41.2344 16.5312 41.2341H32.4687C32.68 41.2344 32.8825 41.3184 33.0319 41.4678C33.1813 41.6172 33.2653 41.8197 33.2656 42.031V46.8123ZM32.9379 39.6869L33.5747 38.4135L36.4219 40.3116L34.8593 43.4367V42.031C34.8586 41.4786 34.6669 40.9435 34.3167 40.5162C33.9665 40.089 33.4794 39.796 32.9379 39.6869ZM38.5876 35.9802L37.1402 38.8751L34.281 36.9691C34.3631 36.7291 34.3868 36.473 34.3501 36.2221C34.3134 35.9711 34.2173 35.7326 34.0698 35.5262C33.9223 35.3199 33.7277 35.1517 33.5022 35.0357C33.2767 34.9196 33.0267 34.8591 32.7731 34.8591H26.4921C26.1751 34.8591 25.8711 34.7332 25.6469 34.509C25.4228 34.2849 25.2968 33.9808 25.2968 33.6638C25.2968 33.3468 25.4228 33.0428 25.6469 32.8186C25.8711 32.5944 26.1751 32.4685 26.4921 32.4685H36.4172C36.8308 32.4685 37.2375 32.5743 37.5988 32.7757C37.96 32.9771 38.2638 33.2676 38.4813 33.6194C38.6987 33.9712 38.8226 34.3728 38.8412 34.786C38.8598 35.1992 38.7725 35.6103 38.5876 35.9802ZM6.85185 13.0327C8.65406 11.6868 10.842 10.9575 13.0913 10.9529C14.9529 10.9507 16.7887 10.5173 18.4547 9.68685L21.5137 8.15735L18.613 0.42218L14.4484 1.61211C13.1481 1.98494 11.7873 2.09925 10.4431 1.94859L9.2368 1.81452C6.61541 1.52813 3.97241 2.10892 1.7126 3.46794L0.297852 4.32238L5.94371 13.7139L6.85185 13.0327ZM2.53657 4.83209C4.496 3.65364 6.78773 3.15007 9.06069 3.39851L10.267 3.53248C11.8173 3.70616 13.3866 3.57432 14.8861 3.1444L17.637 2.35849L19.5176 7.37332L17.7418 8.26124C16.2972 8.98141 14.7055 9.3572 13.0913 9.35913C10.7119 9.36425 8.38711 10.0721 6.40869 11.394L2.48328 4.86436L2.53657 4.83209ZM4.99423 25.0698L6.37562 30.1351L10.7088 29.7412C14.1876 29.4176 17.4703 27.9841 20.0721 25.6522L24.7602 21.4328L18.2331 12.1084L14.8974 15.4441C14.6974 15.6434 14.4917 15.837 14.2804 16.0244L12.9531 12.0426L12.0687 12.706C10.0638 14.2054 7.75025 15.2398 5.29595 15.7341L0.34915 16.7236L3.24768 25.4191L4.99423 25.0698ZM16.0244 16.5711L18.0168 14.5786L22.6459 21.1916L19.006 24.4676C16.6603 26.5698 13.7008 27.8622 10.5645 28.1539L7.56177 28.4269L6.56069 24.7566L7.99925 24.4688C9.11703 24.2439 10.2114 23.9153 11.2681 23.4872C11.4923 23.9547 11.8272 24.3605 12.2437 24.6693C12.6602 24.978 13.1457 25.1805 13.6582 25.2591C14.1707 25.3378 14.6946 25.2902 15.1845 25.1205C15.6744 24.9508 16.1155 24.6641 16.4695 24.2853C16.8236 23.9065 17.0798 23.4471 17.2161 22.9468C17.3523 22.4466 17.3644 21.9207 17.2514 21.4147C17.1384 20.9087 16.9036 20.4379 16.5674 20.0432C16.2312 19.6485 15.8038 19.3418 15.3222 19.1496L14.8242 17.6559C15.242 17.3144 15.6425 16.9524 16.0244 16.5711ZM15.4136 21.1543C15.5462 21.331 15.6406 21.5333 15.6908 21.7485C15.741 21.9636 15.7459 22.1869 15.7051 22.404C15.6644 22.6212 15.5788 22.8274 15.454 23.0098C15.3292 23.1921 15.1679 23.3464 14.9802 23.463C14.7925 23.5795 14.5826 23.6557 14.3639 23.6868C14.1451 23.7178 13.9223 23.703 13.7096 23.6433C13.4969 23.5836 13.299 23.4802 13.1284 23.3399C12.9577 23.1995 12.8182 23.0251 12.7186 22.8279C13.6637 22.349 14.5654 21.7891 15.4136 21.1543ZM5.60863 17.297C7.9344 16.8283 10.1483 15.9165 12.1295 14.6112L13.9965 20.2127C12.0997 21.5329 9.95207 22.4496 7.68658 22.906L4.3148 23.5804L2.43198 17.9322L5.60863 17.297ZM44.2478 20.2767C40.6361 21.4751 36.803 21.8546 33.0265 21.3879L31.2596 21.1669L34.26 29.1678L34.666 29.2694C38.9789 30.3436 43.4895 30.3436 47.8025 29.2694L48.5396 29.0851L46.6198 19.486L44.2478 20.2767ZM35.457 27.8206L33.6721 23.0611C37.4135 23.4047 41.1856 22.9715 44.7517 21.7887L45.4111 21.5689L46.6766 27.8961C42.9772 28.7012 39.1452 28.6754 35.457 27.8207V27.8206ZM42.8281 43.6248C42.3552 43.6248 41.893 43.765 41.4999 44.0276C41.1068 44.2903 40.8004 44.6637 40.6194 45.1005C40.4385 45.5374 40.3911 46.018 40.4834 46.4818C40.5756 46.9455 40.8033 47.3715 41.1376 47.7058C41.472 48.0401 41.8979 48.2678 42.3617 48.3601C42.8254 48.4523 43.3061 48.405 43.7429 48.224C44.1797 48.0431 44.5531 47.7367 44.8158 47.3435C45.0785 46.9504 45.2187 46.4882 45.2187 46.0154C45.218 45.3816 44.9659 44.7739 44.5177 44.3257C44.0695 43.8776 43.4619 43.6255 42.8281 43.6248ZM42.8281 46.8123C42.6705 46.8123 42.5164 46.7655 42.3853 46.678C42.2543 46.5904 42.1522 46.4659 42.0919 46.3203C42.0315 46.1747 42.0158 46.0145 42.0465 45.8599C42.0773 45.7053 42.1531 45.5634 42.2646 45.4519C42.376 45.3405 42.518 45.2646 42.6726 45.2338C42.8272 45.2031 42.9874 45.2189 43.133 45.2792C43.2786 45.3395 43.4031 45.4416 43.4906 45.5727C43.5782 45.7037 43.6249 45.8578 43.6249 46.0154C43.6247 46.2266 43.5406 46.4292 43.3913 46.5786C43.2419 46.728 43.0393 46.812 42.8281 46.8123ZM46.8124 34.8591H45.2187V36.4529H43.6249V38.0466H45.2187V39.6404H46.8124V38.0466H48.4062V36.4529H46.8124V34.8591ZM7.76557 43.6248H6.17182V45.2185H4.57807V46.8123H6.17182V48.406H7.76557V46.8123H9.35932V45.2185H7.76557V43.6248ZM5.37494 38.8435V37.2498H3.78119V35.656H2.18744V37.2498H0.593691V38.8435H2.18744V40.4373H3.78119V38.8435H5.37494ZM32.003 19.8408C36.679 19.2085 41.0195 17.0635 44.3622 13.7332L48.7898 9.30554L37.9676 0.287109L35.6401 2.87337C32.3281 6.55928 27.758 8.87401 22.8269 9.36312L21.7571 9.4701L26.3901 20.5892L32.003 19.8408ZM36.8246 3.93939L38.126 2.49356L46.4287 9.41262L43.2352 12.6061C40.1404 15.6895 36.1216 17.6755 31.7923 18.2609L27.391 18.8477L24.0447 10.8165C28.9744 10.0789 33.4932 7.64718 36.8246 3.93939Z" fill="#7090E3"/>
<path d="M34.8594 14.1406C35.3322 14.1406 35.7944 14.0004 36.1876 13.7377C36.5807 13.475 36.8871 13.1016 37.068 12.6648C37.249 12.228 37.2963 11.7473 37.2041 11.2836C37.1118 10.8198 36.8842 10.3939 36.5498 10.0595C36.2155 9.72518 35.7895 9.4975 35.3258 9.40526C34.862 9.31301 34.3814 9.36036 33.9445 9.5413C33.5077 9.72224 33.1343 10.0287 32.8717 10.4218C32.609 10.8149 32.4688 11.2771 32.4688 11.7499C32.4695 12.3838 32.7216 12.9914 33.1698 13.4396C33.6179 13.8878 34.2256 14.1399 34.8594 14.1406ZM34.8594 10.9531C35.017 10.9531 35.1711 10.9998 35.3021 11.0874C35.4332 11.1749 35.5353 11.2994 35.5956 11.445C35.6559 11.5906 35.6717 11.7508 35.641 11.9054C35.6102 12.06 35.5343 12.202 35.4229 12.3134C35.3114 12.4249 35.1694 12.5008 35.0149 12.5315C34.8603 12.5623 34.7001 12.5465 34.5544 12.4862C34.4088 12.4258 34.2844 12.3237 34.1968 12.1927C34.1093 12.0616 34.0625 11.9076 34.0625 11.7499C34.0628 11.5387 34.1468 11.3361 34.2962 11.1868C34.4456 11.0374 34.6481 10.9533 34.8594 10.9531ZM38.0958 7.24989L41.6476 10.2098L40.6709 11.1865L41.7979 12.3134L44.0087 10.1026L37.998 5.09375L35.8897 7.20208L37.0166 8.32906L38.0958 7.24989ZM31.9239 16.4903L31.4199 14.9784L29.7421 15.5376L28.6997 12.9316L29.6377 12.4627L28.9249 11.0372L26.6753 12.162L28.8205 17.5248L31.9239 16.4903ZM39.6406 25.2968H42.0313V26.8906H39.6406V25.2968ZM6.71387 18.9716L9.10529 18.1753L9.60891 19.6877L7.21749 20.484L6.71387 18.9716ZM10.1563 6.17182H12.5469V7.76557H10.1563V6.17182Z" fill="#7090E3"/>
</svg>
