<svg width="76" height="75" viewBox="0 0 76 75" fill="none" xmlns="http://www.w3.org/2000/svg">
<path d="M23.8516 58.0092C23.8516 59.0591 24.7058 59.9133 25.7557 59.9133C26.8055 59.9133 27.6597 59.0591 27.6597 58.0092V56.1051H23.8516V58.0092ZM40.549 17.4375C40.549 16.1015 39.4784 15.094 38.059 15.094C36.6396 15.094 35.569 16.1015 35.569 17.4375V18.9022H40.549V17.4375ZM38.059 45.0834C38.9027 44.1973 39.8108 43.5704 40.549 43.15V38.5289H35.569V43.15C36.3072 43.5704 37.2153 44.1973 38.059 45.0834ZM30.882 23.2962V34.1349H45.2359V23.2962H40.256V25.7862C40.256 26.9995 39.2723 27.9832 38.059 27.9832C36.8457 27.9832 35.862 26.9995 35.862 25.7862V23.2962H30.882ZM46.6054 46.9128C45.4703 46.8073 44.3234 46.7473 43.1693 46.7356C42.5204 47.0373 40.9591 47.9146 40.256 49.6166V74.9339C44.3942 74.6911 48.4628 73.7587 52.2938 72.1752C47.9693 66.855 45.5289 60.1543 45.5289 53.0981V50.5393C45.5289 49.249 45.9082 47.982 46.6054 46.9128Z" fill="white"/>
<path d="M5.38785 52.5607C11.2391 47.0625 20.5715 42.899 31.1751 42.3914V38.529H28.6851C27.4718 38.529 26.4881 37.5453 26.4881 36.332V21.0993C26.4881 19.8859 27.4718 18.9022 28.6851 18.9022H31.1751V17.4376C31.1751 13.6595 34.1989 10.7 38.0591 10.7C41.9193 10.7 44.9431 13.6595 44.9431 17.4376V18.9022H47.4331C48.6464 18.9022 49.6301 19.8859 49.6301 21.0993V36.332C49.6301 37.5453 48.6464 38.529 47.4331 38.529H44.9431V42.3914C47.4375 42.5115 49.8967 42.8322 52.2826 43.3434C53.5906 42.5759 55.4478 41.1347 57.182 38.5349C59.7837 34.6291 65.5399 34.6173 68.1495 38.5349C71.0511 42.8864 74.5238 44.0186 74.9003 44.1314C74.9202 44.1362 74.9398 44.1421 74.9596 44.1471C77.0967 32.3353 73.5044 19.9824 64.5423 11.0205C61.0726 7.52823 56.9464 4.7567 52.4013 2.86543C47.8562 0.974165 42.9819 0.000501895 38.059 0.000488281C33.1362 0.000474668 28.2619 0.974111 23.7168 2.86536C19.1716 4.7566 15.0455 7.5281 11.5757 11.0203C-0.210458 22.8065 -2.3489 40.0246 4.25023 53.6983L5.38785 52.5607Z" fill="white"/>
<path d="M73.9658 48.4316C70.1683 47.3278 66.7781 44.3983 64.4935 40.972C63.6236 39.6671 61.7055 39.67 60.8377 40.972C58.8391 43.9696 56.0593 46.61 52.8258 47.9775C52.1536 48.2617 51.7171 48.3774 51.6307 48.3979C50.6171 48.6132 49.9228 49.5023 49.9228 50.5393V53.0981C49.9228 61.9673 54.4141 69.9421 61.447 74.6305C61.8079 74.8711 62.2319 74.9995 62.6657 74.9995C63.0994 74.9995 63.5234 74.8711 63.8843 74.6305C70.9249 69.9369 75.5549 61.9295 75.5549 53.0976V50.5393C75.5549 49.5452 74.8884 48.6971 73.9658 48.4316ZM67.2631 56.6561L63.7478 60.7572C62.9162 61.7277 61.4314 61.786 60.5263 60.881L58.7686 59.1233C57.9106 58.2655 57.9106 56.8743 58.7686 56.0163C59.6265 55.1584 61.0177 55.1584 61.8757 56.0163L61.9557 56.0963L63.927 53.7966C64.7167 52.8751 66.1035 52.7685 67.0248 53.5583C67.9461 54.348 68.0528 55.7348 67.2631 56.6561ZM35.862 49.6165C35.159 47.9146 33.5976 47.0372 32.9488 46.7355C23.547 46.8307 14.6446 50.0852 8.45926 55.7052L6.4834 57.6806C12.8658 67.5876 23.606 74.2228 35.8619 74.9334L35.862 49.6165ZM32.0538 58.0092C32.0538 61.4819 29.2285 64.3073 25.7557 64.3073C22.2829 64.3073 19.4576 61.4819 19.4576 58.0092V53.908C19.4576 52.6947 20.4412 51.711 21.6546 51.711H29.8568C31.0702 51.711 32.0538 52.6947 32.0538 53.908V58.0092Z" fill="white"/>
</svg>
