<svg width="18" height="18" viewBox="0 0 18 18" fill="none" xmlns="http://www.w3.org/2000/svg">
<path d="M0.75 7.49996C0.551088 7.49996 0.360322 7.42095 0.21967 7.28029C0.0790178 7.13964 0 6.94888 0 6.74996V0.751465C0 0.552552 0.0790178 0.361787 0.21967 0.221135C0.360322 0.0804826 0.551088 0.00146484 0.75 0.00146484H6.75C6.94891 0.00146484 7.13968 0.0804826 7.28033 0.221135C7.42098 0.361787 7.5 0.552552 7.5 0.751465V6.74996C7.5 6.94888 7.42098 7.13964 7.28033 7.28029C7.13968 7.42095 6.94891 7.49996 6.75 7.49996H0.75ZM11.25 7.49996C11.0511 7.49996 10.8603 7.42095 10.7197 7.28029C10.579 7.13964 10.5 6.94888 10.5 6.74996V0.751465C10.5 0.552552 10.579 0.361787 10.7197 0.221135C10.8603 0.0804826 11.0511 0.00146484 11.25 0.00146484H17.2485C17.4474 0.00146484 17.6382 0.0804826 17.7788 0.221135C17.9195 0.361787 17.9985 0.552552 17.9985 0.751465V6.74996C17.9985 6.94888 17.9195 7.13964 17.7788 7.28029C17.6382 7.42095 17.4474 7.49996 17.2485 7.49996H11.25ZM0.75 18C0.551088 18 0.360322 17.9209 0.21967 17.7803C0.0790178 17.6396 0 17.4489 0 17.25V11.25C0 11.0511 0.0790178 10.8603 0.21967 10.7196C0.360322 10.579 0.551088 10.5 0.75 10.5H6.75C6.94891 10.5 7.13968 10.579 7.28033 10.7196C7.42098 10.8603 7.5 11.0511 7.5 11.25V17.25C7.5 17.4489 7.42098 17.6396 7.28033 17.7803C7.13968 17.9209 6.94891 18 6.75 18H0.75ZM11.25 18C11.0511 18 10.8603 17.9209 10.7197 17.7803C10.579 17.6396 10.5 17.4489 10.5 17.25V11.25C10.5 11.0511 10.579 10.8603 10.7197 10.7196C10.8603 10.579 11.0511 10.5 11.25 10.5H17.2485C17.4474 10.5 17.6382 10.579 17.7788 10.7196C17.9195 10.8603 17.9985 11.0511 17.9985 11.25V17.25C17.9985 17.4489 17.9195 17.6396 17.7788 17.7803C17.6382 17.9209 17.4474 18 17.2485 18H11.25Z" fill="#002D3A"/>
</svg>
