<svg width="22" height="22" viewBox="0 0 22 22" fill="none" xmlns="http://www.w3.org/2000/svg">
<g id="tabler-icon-coins">
<path id="Vector" d="M8.25 12.833C8.25 14.3519 10.7122 15.583 13.75 15.583C16.7878 15.583 19.25 14.3519 19.25 12.833C19.25 11.3141 16.7878 10.083 13.75 10.083C10.7122 10.083 8.25 11.3141 8.25 12.833Z" stroke="#252525" stroke-width="1.7" stroke-linecap="round" stroke-linejoin="round"/>
<path id="Vector_2" d="M8.25 12.833V16.4997C8.25 18.0177 10.7122 19.2497 13.75 19.2497C16.7878 19.2497 19.25 18.0177 19.25 16.4997V12.833" stroke="#252525" stroke-width="1.7" stroke-linecap="round" stroke-linejoin="round"/>
<path id="Vector_3" d="M2.75 5.5C2.75 6.48267 3.79867 7.39017 5.5 7.8815C7.20133 8.37283 9.29867 8.37283 11 7.8815C12.7013 7.39017 13.75 6.48267 13.75 5.5C13.75 4.51733 12.7013 3.60983 11 3.1185C9.29867 2.62717 7.20133 2.62717 5.5 3.1185C3.79867 3.60983 2.75 4.51733 2.75 5.5Z" stroke="#252525" stroke-width="1.7" stroke-linecap="round" stroke-linejoin="round"/>
<path id="Vector_4" d="M2.75 5.5V14.6667C2.75 15.4807 3.45767 15.9958 4.58333 16.5" stroke="#252525" stroke-width="1.7" stroke-linecap="round" stroke-linejoin="round"/>
<path id="Vector_5" d="M2.75 10.083C2.75 10.897 3.45767 11.4122 4.58333 11.9163" stroke="#252525" stroke-width="1.7" stroke-linecap="round" stroke-linejoin="round"/>
</g>
</svg>
