<svg width="22" height="22" viewBox="0 0 22 22" fill="none" xmlns="http://www.w3.org/2000/svg">
<g id="tabler-icon-map-pin">
<path id="Vector" d="M11 12.833C12.5188 12.833 13.75 11.6018 13.75 10.083C13.75 8.56422 12.5188 7.33301 11 7.33301C9.48122 7.33301 8.25 8.56422 8.25 10.083C8.25 11.6018 9.48122 12.833 11 12.833Z" stroke="#252525" stroke-width="1.7" stroke-linecap="round" stroke-linejoin="round"/>
<path id="Vector_2" d="M16.1859 15.2686L12.2965 19.1581C11.9527 19.5015 11.4867 19.6944 11.0008 19.6944C10.5149 19.6944 10.0488 19.5015 9.70508 19.1581L5.81475 15.2686C4.7892 14.243 4.0908 12.9364 3.80788 11.5139C3.52495 10.0913 3.67019 8.61687 4.22525 7.2769C4.7803 5.93693 5.72023 4.79164 6.92619 3.98586C8.13214 3.18008 9.54995 2.75 11.0003 2.75C12.4507 2.75 13.8685 3.18008 15.0745 3.98586C16.2804 4.79164 17.2204 5.93693 17.7754 7.2769C18.3305 8.61687 18.4757 10.0913 18.1928 11.5139C17.9099 12.9364 17.2115 14.243 16.1859 15.2686V15.2686Z" stroke="#252525" stroke-width="1.7" stroke-linecap="round" stroke-linejoin="round"/>
</g>
</svg>
