<svg width="26" height="26" viewBox="0 0 26 26" fill="none" xmlns="http://www.w3.org/2000/svg">
<g id="tabler-icon-map-pin">
<path id="Vector" d="M13 15.167C14.7949 15.167 16.25 13.7119 16.25 11.917C16.25 10.1221 14.7949 8.66699 13 8.66699C11.2051 8.66699 9.75 10.1221 9.75 11.917C9.75 13.7119 11.2051 15.167 13 15.167Z" stroke="#DD6A24" stroke-width="2" stroke-linecap="round" stroke-linejoin="round"/>
<path id="Vector_2" d="M19.1271 18.0448L14.5305 22.6413C14.1243 23.0472 13.5735 23.2752 12.9992 23.2752C12.425 23.2752 11.8742 23.0472 11.468 22.6413L6.87029 18.0448C5.65828 16.8327 4.8329 15.2884 4.49853 13.6073C4.16416 11.9261 4.33582 10.1836 4.99179 8.59997C5.64776 7.01637 6.75859 5.66285 8.18381 4.71057C9.60902 3.75828 11.2846 3.25 12.9987 3.25C14.7128 3.25 16.3884 3.75828 17.8136 4.71057C19.2388 5.66285 20.3496 7.01637 21.0056 8.59997C21.6616 10.1836 21.8332 11.9261 21.4989 13.6073C21.1645 15.2884 20.3391 16.8327 19.1271 18.0448V18.0448Z" stroke="#DD6A24" stroke-width="2" stroke-linecap="round" stroke-linejoin="round"/>
</g>
</svg>
