<svg width="24" height="24" viewBox="0 0 24 24" fill="none" xmlns="http://www.w3.org/2000/svg">
<path d="M3.45 0.746094H2.55C1.55589 0.746094 0.75 1.55198 0.75 2.54609V3.44609C0.75 4.44021 1.55589 5.24609 2.55 5.24609H3.45C4.44411 5.24609 5.25 4.44021 5.25 3.44609V2.54609C5.25 1.55198 4.44411 0.746094 3.45 0.746094Z" stroke="#A0A9B2" stroke-width="1.2" stroke-linecap="round" stroke-linejoin="round"/>
<path d="M12.45 0.746094H11.55C10.5559 0.746094 9.75 1.55198 9.75 2.54609V3.44609C9.75 4.44021 10.5559 5.24609 11.55 5.24609H12.45C13.4441 5.24609 14.25 4.44021 14.25 3.44609V2.54609C14.25 1.55198 13.4441 0.746094 12.45 0.746094Z" stroke="#A0A9B2" stroke-width="1.2" stroke-linecap="round" stroke-linejoin="round"/>
<path d="M21.45 0.746094H20.55C19.5559 0.746094 18.75 1.55198 18.75 2.54609V3.44609C18.75 4.44021 19.5559 5.24609 20.55 5.24609H21.45C22.4441 5.24609 23.25 4.44021 23.25 3.44609V2.54609C23.25 1.55198 22.4441 0.746094 21.45 0.746094Z" stroke="#A0A9B2" stroke-width="1.2" stroke-linecap="round" stroke-linejoin="round"/>
<path d="M3.45 9.74609H2.55C1.55589 9.74609 0.75 10.552 0.75 11.5461V12.4461C0.75 13.4402 1.55589 14.2461 2.55 14.2461H3.45C4.44411 14.2461 5.25 13.4402 5.25 12.4461V11.5461C5.25 10.552 4.44411 9.74609 3.45 9.74609Z" stroke="#A0A9B2" stroke-width="1.2" stroke-linecap="round" stroke-linejoin="round"/>
<path d="M12.45 9.74609H11.55C10.5559 9.74609 9.75 10.552 9.75 11.5461V12.4461C9.75 13.4402 10.5559 14.2461 11.55 14.2461H12.45C13.4441 14.2461 14.25 13.4402 14.25 12.4461V11.5461C14.25 10.552 13.4441 9.74609 12.45 9.74609Z" stroke="#A0A9B2" stroke-width="1.2" stroke-linecap="round" stroke-linejoin="round"/>
<path d="M21.45 9.74609H20.55C19.5559 9.74609 18.75 10.552 18.75 11.5461V12.4461C18.75 13.4402 19.5559 14.2461 20.55 14.2461H21.45C22.4441 14.2461 23.25 13.4402 23.25 12.4461V11.5461C23.25 10.552 22.4441 9.74609 21.45 9.74609Z" stroke="#A0A9B2" stroke-width="1.2" stroke-linecap="round" stroke-linejoin="round"/>
<path d="M3.45 18.7461H2.55C1.55589 18.7461 0.75 19.552 0.75 20.5461V21.4461C0.75 22.4402 1.55589 23.2461 2.55 23.2461H3.45C4.44411 23.2461 5.25 22.4402 5.25 21.4461V20.5461C5.25 19.552 4.44411 18.7461 3.45 18.7461Z" stroke="#A0A9B2" stroke-width="1.2" stroke-linecap="round" stroke-linejoin="round"/>
<path d="M12.45 18.7461H11.55C10.5559 18.7461 9.75 19.552 9.75 20.5461V21.4461C9.75 22.4402 10.5559 23.2461 11.55 23.2461H12.45C13.4441 23.2461 14.25 22.4402 14.25 21.4461V20.5461C14.25 19.552 13.4441 18.7461 12.45 18.7461Z" stroke="#A0A9B2" stroke-width="1.2" stroke-linecap="round" stroke-linejoin="round"/>
<path d="M21.45 18.7461H20.55C19.5559 18.7461 18.75 19.552 18.75 20.5461V21.4461C18.75 22.4402 19.5559 23.2461 20.55 23.2461H21.45C22.4441 23.2461 23.25 22.4402 23.25 21.4461V20.5461C23.25 19.552 22.4441 18.7461 21.45 18.7461Z" stroke="#A0A9B2" stroke-width="1.2" stroke-linecap="round" stroke-linejoin="round"/>
</svg>
