<svg width="54" height="64" viewBox="0 0 54 64" fill="none" xmlns="http://www.w3.org/2000/svg">
<g clip-path="url(#clip0_72_363)">
<path d="M41.144 38.2584C41.144 46.838 35.0761 53.8482 26.3234 53.8482C17.5707 53.8482 11.3614 46.6976 11.3614 38.1152H0V38.2584C0 52.488 10.9375 63.9999 26.1821 63.9999C41.4266 63.9999 52.5054 52.3448 52.5054 38.1152H41.144V38.2584Z" fill="#002D3A"/>
<path d="M27.2636 15.5787L19.5816 7.79487L27.2663 0.0082602L34.9484 7.79212L34.9511 7.78661L27.2663 0L0.527222 27.0962H15.8968L27.2636 15.5787Z" fill="#0093BD"/>
<path d="M19.5815 7.79491L27.2636 15.5788L38.6277 27.0962H54L34.9484 7.79216L27.2663 0.00830078L19.5815 7.79491Z" fill="#077D9F"/>
<path d="M26.1902 28.6465H22.5027V32.3828H26.1902V28.6465Z" fill="#002D3A"/>
<path d="M31.0326 28.6465H27.3451V32.3828H31.0326V28.6465Z" fill="#002D3A"/>
<path d="M26.1902 33.9053H22.5027V37.6416H26.1902V33.9053Z" fill="#002D3A"/>
<path d="M31.0326 33.9053H27.3451V37.6416H31.0326V33.9053Z" fill="#002D3A"/>
</g>
<defs>
<clipPath id="clip0_72_363">
<rect width="54" height="64" fill="white"/>
</clipPath>
</defs>
</svg>
