<svg width="178" height="45" viewBox="0 0 178 45" fill="none" xmlns="http://www.w3.org/2000/svg">
<path d="M13.24 2H18.44V16H11.64L5.60001 7.74V16H0.400012V2H7.20001L13.24 10.26V2Z" fill="white"/>
<path d="M19.2477 0H24.0477V3.2H19.2477V0ZM19.2477 4H24.0477V16H19.2477V4Z" fill="white"/>
<path d="M32.6131 12.4C34.3531 12.4 35.0531 12.28 36.0331 11.5H40.7331C40.1331 14.68 37.5531 16.2 32.6131 16.2C27.9131 16.2 24.6531 14.44 24.6531 10C24.6531 5.56 27.9131 3.8 32.8131 3.8C37.7531 3.8 40.9331 5.56 40.9331 10.8H29.5531C29.9531 12.08 31.2931 12.4 32.6131 12.4ZM32.7931 7.2C31.5131 7.2 30.3131 7.32 29.7731 8.4H35.8131C35.2731 7.32 34.0731 7.2 32.7931 7.2Z" fill="white"/>
<path d="M41.1375 11.86H45.9375C45.9375 12.54 46.5775 12.8 49.4775 12.8C52.1575 12.8 52.6175 12.68 52.6175 12.16C52.6175 11.56 52.1575 11.62 49.2775 11.5C43.7575 11.28 41.3375 10.86 41.3375 7.8C41.3375 4.38 45.0375 3.8 49.4775 3.8C53.9175 3.8 57.0175 4.38 57.0175 7.84H52.2175C52.2175 7.2 51.4175 7.2 49.2775 7.2C46.8375 7.2 46.1375 7.2 46.1375 7.66C46.1375 8.16 46.6375 8.14 49.6775 8.3C54.3975 8.54 57.4175 8.82 57.4175 11.96C57.4175 15.62 54.2175 16.2 49.6775 16.2C45.1375 16.2 41.1375 15.62 41.1375 11.86Z" fill="white"/>
<path d="M66.0172 3.8C70.9372 3.8 73.7372 5.48 73.7772 10.06V16H68.9772V14.54C67.1172 15.9 65.0372 16.2 62.9572 16.2C60.2172 16.2 57.8172 15.22 57.8172 12.62C57.8172 9.5 61.4172 8.68 64.9172 8.68C66.5972 8.68 67.8772 8.9 68.9772 9.3C68.9772 7.86 67.4572 7.8 65.8572 7.8C64.3172 7.8 62.5572 7.94 60.3572 8.42L58.7972 5.02C61.1972 4.24 63.7972 3.8 66.0172 3.8ZM68.9772 12.08V11.58C68.2172 11.38 67.1772 11.28 65.7972 11.28C63.5772 11.28 62.6172 11.48 62.6172 12.24C62.6172 12.9 63.1772 13 64.3972 13C66.0172 13 67.7772 12.6 68.9772 12.08Z" fill="white"/>
<path d="M94.9444 3.8C97.0444 3.8 99.9044 4.64 99.9044 8.78V16H95.1044V10.94C95.1044 8.88 94.5644 8 92.8044 8C91.5844 8 90.5644 8.52 89.5444 9.52V16H84.7444V10.94C84.7444 8.88 84.2044 8 82.4444 8C81.2244 8 80.2044 8.52 79.1844 9.52V16H74.3844V4H79.1844V6C80.2444 5 81.6644 3.8 84.5844 3.8C86.0844 3.8 87.9844 4.24 88.9244 6C90.1844 4.8 92.0244 3.8 94.9444 3.8Z" fill="white"/>
<path d="M108.477 16.2C103.377 16.2 100.317 14.44 100.317 10C100.317 5.56 103.377 3.8 108.477 3.8C113.577 3.8 116.637 5.56 116.637 10C116.637 14.44 113.577 16.2 108.477 16.2ZM108.477 12.2C110.617 12.2 111.837 11.76 111.837 10C111.837 8.24 110.617 7.8 108.477 7.8C106.337 7.8 105.117 8.24 105.117 10C105.117 11.76 106.337 12.2 108.477 12.2Z" fill="white"/>
<path d="M136.674 4H142.074L137.074 16H131.254L128.754 9.74L126.254 16H120.434L115.434 4H120.834L123.614 11.56L126.254 4H131.254L133.894 11.56L136.674 4Z" fill="white"/>
<path d="M142.47 0H147.27V3.2H142.47V0ZM142.47 4H147.27V16H142.47V4Z" fill="white"/>
<path d="M159.996 8H155.096V10.48C155.096 11.62 155.536 12.2 156.936 12.2C158.016 12.2 158.616 12.2 159.996 12V15.9C158.856 16.1 157.436 16.2 155.856 16.2C152.136 16.2 150.296 15.06 150.296 12.46V8H147.876V4H150.296V2L155.096 0.799999V4H159.996V8Z" fill="white"/>
<path d="M172.415 4H177.615L170.795 21H165.595L167.595 16H165.395L160.395 4H165.595L169.075 12.34L172.415 4Z" fill="white"/>
<path d="M23.86 26H29.44L24.84 40H17.12L14.82 31.94L12.52 40H4.80001L0.200012 26H5.78001L8.68001 35.88L11.72 26H17.92L20.96 35.88L23.86 26Z" fill="white"/>
<path d="M41.263 28H46.463L39.643 45H34.443L36.443 40H34.243L29.243 28H34.443L37.923 36.34L41.263 28Z" fill="white"/>
<path d="M56.6249 27.8C59.7249 27.8 63.1849 29.16 63.1849 34C63.1849 38.84 59.7249 40.2 56.6249 40.2C54.7649 40.2 52.9249 39.64 51.6649 38.36V40H46.8649V24H51.6649V29.64C52.9249 28.36 54.7649 27.8 56.6249 27.8ZM55.0249 36.2C57.1649 36.2 58.3849 35.76 58.3849 34C58.3849 32.24 57.1649 31.8 55.0249 31.8C52.8849 31.8 51.6649 32.24 51.6649 34C51.6649 35.76 52.8849 36.2 55.0249 36.2Z" fill="white"/>
<path d="M67.8389 24L75.6189 22.4V25.2L67.8389 26.8V24ZM71.7389 40.2C66.6389 40.2 63.5789 38.44 63.5789 34C63.5789 29.56 66.6389 27.8 71.7389 27.8C76.8389 27.8 79.8989 29.56 79.8989 34C79.8989 38.44 76.8389 40.2 71.7389 40.2ZM71.7389 36.2C73.8789 36.2 75.0989 35.76 75.0989 34C75.0989 32.24 73.8789 31.8 71.7389 31.8C69.5989 31.8 68.3789 32.24 68.3789 34C68.3789 35.76 69.5989 36.2 71.7389 36.2Z" fill="white"/>
<path d="M89.9577 27.8C91.3577 27.8 92.3377 28 93.1377 28.2V32.2C92.0177 31.92 91.1177 31.8 90.2377 31.8C88.5377 31.8 86.6777 32 85.2977 33.52V40H80.4977V28H85.2977V30C86.3577 28.42 87.9977 27.8 89.9577 27.8Z" fill="white"/>
<path d="M115.148 26H120.348V40H115.148V35.2H106.948V40H101.748V26H106.948V30.8H115.148V26Z" fill="white"/>
<path d="M129.102 40.2C124.002 40.2 120.942 38.44 120.942 34C120.942 29.56 124.002 27.8 129.102 27.8C134.202 27.8 137.262 29.56 137.262 34C137.262 38.44 134.202 40.2 129.102 40.2ZM129.102 36.2C131.242 36.2 132.462 35.76 132.462 34C132.462 32.24 131.242 31.8 129.102 31.8C126.962 31.8 125.742 32.24 125.742 34C125.742 35.76 126.962 36.2 129.102 36.2Z" fill="white"/>
<path d="M149.39 32H144.49V34.48C144.49 35.62 144.93 36.2 146.33 36.2C147.41 36.2 148.01 36.2 149.39 36V39.9C148.25 40.1 146.83 40.2 145.25 40.2C141.53 40.2 139.69 39.06 139.69 36.46V32H137.27V28H139.69V26L144.49 24.8V28H149.39V32Z" fill="white"/>
<path d="M157.75 36.4C159.49 36.4 160.19 36.28 161.17 35.5H165.87C165.27 38.68 162.69 40.2 157.75 40.2C153.05 40.2 149.79 38.44 149.79 34C149.79 29.56 153.05 27.8 157.95 27.8C162.89 27.8 166.07 29.56 166.07 34.8H154.69C155.09 36.08 156.43 36.4 157.75 36.4ZM157.93 31.2C156.65 31.2 155.45 31.32 154.91 32.4H160.95C160.41 31.32 159.21 31.2 157.93 31.2Z" fill="white"/>
<path d="M166.67 24H171.47V40H166.67V24Z" fill="white"/>
<path d="M172.275 24H177.075V27.2H172.275V24ZM172.275 28H177.075V40H172.275V28Z" fill="white"/>
</svg>
