<svg width="30" height="30" viewBox="0 0 30 30" fill="none" xmlns="http://www.w3.org/2000/svg">
<path fill-rule="evenodd" clip-rule="evenodd" d="M15 30C23.2843 30 30 23.2843 30 15C30 6.71573 23.2843 0 15 0C6.71573 0 0 6.71573 0 15C0 23.2843 6.71573 30 15 30Z" fill="white"/>
<path d="M18.5217 14.8695C18.5217 15.0799 18.4434 15.2902 18.2872 15.4506L13.3677 20.4982C13.0548 20.8193 12.5474 20.8193 12.2346 20.4982C11.9218 20.1772 11.9218 19.6567 12.2346 19.3356L16.5876 14.8695L12.2348 10.4033C11.9219 10.0822 11.9219 9.56176 12.2348 9.24082C12.5476 8.91957 13.0549 8.91957 13.3679 9.24082L18.2873 14.2883C18.4436 14.4488 18.5217 14.6592 18.5217 14.8695Z" fill="#1E2E36"/>
</svg>
