<svg width="32" height="32" viewBox="0 0 32 32" fill="none" xmlns="http://www.w3.org/2000/svg">
<path fill-rule="evenodd" clip-rule="evenodd" d="M16 31C24.2843 31 31 24.2843 31 16C31 7.71573 24.2843 1 16 1C7.71573 1 1 7.71573 1 16C1 24.2843 7.71573 31 16 31Z" stroke="white"/>
<path d="M12.4783 15.8695C12.4783 15.6592 12.5566 15.4488 12.7128 15.2884L17.6323 10.2408C17.9452 9.91973 18.4526 9.91973 18.7654 10.2408C19.0782 10.5618 19.0782 11.0823 18.7654 11.4034L14.4124 15.8695L18.7652 20.3357C19.0781 20.6568 19.0781 21.1773 18.7652 21.4982C18.4524 21.8194 17.9451 21.8194 17.6321 21.4982L12.7127 16.4507C12.5564 16.2902 12.4783 16.0799 12.4783 15.8695Z" fill="white"/>
</svg>
