<svg width="244" height="24" viewBox="0 0 244 24" fill="none" xmlns="http://www.w3.org/2000/svg">
<g id="logo">
<path d="M14.2453 21.5589C20.5403 21.5589 23.0638 19.1852 23.8507 18.2916C23.8507 19.6271 24.2131 23.2299 24.2131 24H28.0343L29.6573 9.46694H14.7066V13.5162H21.7885C21.7885 14.1864 20.1062 16.1133 14.8965 16.1133C9.90386 16.1133 7.97736 13.5162 7.97736 10.8632V10.5561C7.97736 7.8193 9.52399 5.41766 14.9508 5.41766C20.6489 5.41766 21.3544 7.51211 21.49 8.04271H29.5216V8.01478C29.4131 5.11047 27.7308 0 15.3578 0H14.2995C2.38778 0 0 5.83655 0 10.3047V11.0867C0 15.471 2.57772 21.5589 13.6212 21.5589H14.2453Z" fill="#FF7B2A"/>
<path d="M46.1867 0C33.1082 0 31.453 6.39507 31.453 10.3047V11.1425C31.453 15.0242 33.1082 21.5589 46.1867 21.5589H47.4077C60.4591 21.5589 62.1143 15.0242 62.1143 11.1425V10.3047C62.1143 6.39507 60.432 0 47.4077 0H46.1867ZM54.1369 10.8912C54.1369 13.1253 52.7531 15.9458 46.7837 15.9458C40.8142 15.9458 39.4304 13.0136 39.4304 10.8353V10.5002C39.4304 8.29404 40.7057 5.58521 46.7837 5.58521C52.7531 5.58521 54.1369 8.29404 54.1369 10.5002V10.8912Z" fill="#FF7B2A"/>
<path d="M80.3616 21.168H88.0676V6.05996H96.7776V0.390965H71.6516V6.05996H80.3616V21.168Z" fill="black"/>
<path d="M112.114 0C99.035 0 97.3798 6.39507 97.3798 10.3047V11.1425C97.3798 15.0242 99.035 21.5589 112.114 21.5589H113.335C126.386 21.5589 128.041 15.0242 128.041 11.1425V10.3047C128.041 6.39507 126.359 0 113.335 0H112.114ZM120.064 10.8912C120.064 13.1253 118.68 15.9458 112.71 15.9458C106.741 15.9458 105.357 13.0136 105.357 10.8353V10.5002C105.357 8.29404 106.632 5.58521 112.71 5.58521C118.68 5.58521 120.064 8.29404 120.064 10.5002V10.8912Z" fill="black"/>
<path d="M145.909 5.44558H154.754C156.491 5.44558 157.088 6.22752 157.088 7.20493V7.23285C157.088 8.23819 156.464 9.02012 154.754 9.02012H145.909V5.44558ZM145.909 14.0468H153.289C156.328 14.0468 157.386 15.2756 157.386 17.6493V20.0788C157.386 20.6653 157.44 20.9446 157.63 21.168H165.499V21.0283C165.309 20.6653 165.119 20.1347 165.119 18.6825V15.6107C165.119 12.9298 163.464 11.2542 160.968 10.6678C162.487 10.3047 165.038 9.04805 165.038 6.03203V5.72485C165.038 2.34579 162.433 0.390965 156.545 0.390965H138.203V21.168H145.909V14.0468Z" fill="black"/>
<path d="M167.244 0.390965V21.168H189.792V15.9737H174.842V13.1253H189.277V8.07064H174.842V5.47351H189.575V0.390965H167.244Z" fill="black"/>
<path d="M205.885 21.5589C216.495 21.5589 218.394 17.9844 218.394 14.4936V14.1027C218.394 9.91376 215.409 8.07064 207.73 7.84723L204.094 7.76345C200.296 7.67967 199.699 7.00945 199.699 6.17166V6.14374C199.699 5.33388 200.106 4.6078 204.149 4.6078H204.42C208.789 4.6078 209.223 6.05996 209.304 6.81396H217.688V6.59055C217.688 3.29528 215.409 0.0279257 205.424 0.0279257H203.009C193.594 0.0279257 191.396 2.98809 191.396 6.36715V6.61848C191.396 9.82998 193.485 12.6505 201.3 12.8739L205.044 12.9856C209.277 13.1253 209.792 13.7955 209.792 14.8567V14.8846C209.792 15.8899 209.168 16.8394 204.854 16.8394H204.61C200.214 16.8394 199.644 15.0242 199.563 13.9072H191.097V14.1864C191.097 16.8953 192.264 21.5589 203.416 21.5589H205.885Z" fill="black"/>
<path d="M227.584 21.168H235.29V6.05996H244V0.390965H218.874V6.05996H227.584V21.168Z" fill="black"/>
</g>
</svg>
