<svg width="1147" height="475" viewBox="0 0 1147 475" fill="none" xmlns="http://www.w3.org/2000/svg">
<g opacity="0.3" clip-path="url(#clip0_0_4585)">
<g opacity="0.1">
<path d="M328.892 5.8457H332.392" stroke="#102C2B" stroke-width="2" stroke-linecap="square" stroke-linejoin="round"/>
<path d="M338.392 5.8457H1258.15" stroke="#102C2B" stroke-width="2" stroke-linecap="square" stroke-linejoin="round" stroke-dasharray="7 6"/>
<path d="M328.892 106.416H332.392" stroke="#102C2B" stroke-width="2" stroke-linecap="square" stroke-linejoin="round"/>
<path d="M338.392 106.416H1258.15" stroke="#102C2B" stroke-width="2" stroke-linecap="square" stroke-linejoin="round" stroke-dasharray="7 6"/>
<path d="M328.892 206.985H332.392" stroke="#102C2B" stroke-width="2" stroke-linecap="square" stroke-linejoin="round"/>
<path d="M338.392 206.985H1258.15" stroke="#102C2B" stroke-width="2" stroke-linecap="square" stroke-linejoin="round" stroke-dasharray="7 6"/>
<path d="M328.892 307.565H332.392" stroke="#102C2B" stroke-width="2" stroke-linecap="square" stroke-linejoin="round"/>
<path d="M338.392 307.565H1258.15" stroke="#102C2B" stroke-width="2" stroke-linecap="square" stroke-linejoin="round" stroke-dasharray="7 6"/>
<path d="M328.892 408.136H332.392" stroke="#102C2B" stroke-width="2" stroke-linecap="square" stroke-linejoin="round"/>
<path d="M338.392 408.136H1258.15" stroke="#102C2B" stroke-width="2" stroke-linecap="square" stroke-linejoin="round" stroke-dasharray="7 6"/>
<path d="M1144.73 -201.104V718.655" stroke="#102C2B" stroke-width="2" stroke-linecap="square" stroke-linejoin="round" stroke-dasharray="7 6"/>
<path d="M1044.16 -201.104V718.655" stroke="#102C2B" stroke-width="2" stroke-linecap="square" stroke-linejoin="round" stroke-dasharray="7 6"/>
<path d="M943.591 -201.104V718.655" stroke="#102C2B" stroke-width="2" stroke-linecap="square" stroke-linejoin="round" stroke-dasharray="7 6"/>
<path d="M843.021 -201.104V718.655" stroke="#102C2B" stroke-width="2" stroke-linecap="square" stroke-linejoin="round" stroke-dasharray="7 6"/>
<path d="M742.451 -201.104V718.655" stroke="#102C2B" stroke-width="2" stroke-linecap="square" stroke-linejoin="round" stroke-dasharray="7 6"/>
<path d="M641.881 -201.104V718.655" stroke="#102C2B" stroke-width="2" stroke-linecap="square" stroke-linejoin="round" stroke-dasharray="7 6"/>
<path d="M541.312 -201.104V718.655" stroke="#102C2B" stroke-width="2" stroke-linecap="square" stroke-linejoin="round" stroke-dasharray="7 6"/>
<path d="M440.731 -201.104V718.655" stroke="#102C2B" stroke-width="2" stroke-linecap="square" stroke-linejoin="round" stroke-dasharray="7 6"/>
<path d="M789.341 417.886C731.761 445.886 724.391 486.886 714.741 523.936C695.991 595.936 632.581 626.756 572.841 612.406C513.101 598.056 608.151 499.796 578.351 444.916C537.451 369.606 549.221 302.726 570.451 236.086C591.681 169.446 636.571 222.446 667.121 275.496C701.391 334.996 739.231 311.076 799.381 324.906C854.651 337.636 843.591 391.556 789.341 417.886Z" stroke="#5E847C" stroke-miterlimit="10"/>
<path opacity="0.3" d="M587.452 587.616C533.312 577.326 615.512 492.496 589.962 444.286C555.542 379.736 560.552 321.886 578.842 262.136C597.132 202.386 635.842 257.556 665.842 299.596C698.312 345.106 728.912 327.346 778.622 338.946C825.172 349.886 817.332 395.486 772.772 418.326C726.772 441.916 718.772 477.126 709.092 509.946C691.392 570.296 638.562 597.336 587.452 587.616Z" stroke="#5E847C" stroke-miterlimit="10"/>
<path opacity="0.4" d="M602.062 562.806C553.402 556.706 622.992 485.116 601.582 443.646C573.772 389.786 571.892 340.886 587.232 288.156C602.572 235.426 634.612 292.156 664.652 323.666C694.692 355.176 718.722 343.516 757.952 352.956C795.812 362.066 791.212 399.376 756.292 418.746C721.842 437.876 713.292 467.316 703.552 495.936C686.982 544.666 644.412 568.126 602.062 562.806Z" stroke="#5E847C" stroke-miterlimit="10"/>
<path opacity="0.6" d="M616.671 537.996C573.341 536.346 630.391 477.786 613.201 442.996C591.891 399.886 583.201 359.996 595.621 314.176C608.041 268.356 632.131 326.486 663.421 347.746C689.471 365.456 708.421 359.746 737.241 366.966C766.391 374.286 765.111 403.166 739.771 419.176C716.841 433.656 707.871 457.516 697.981 481.886C682.841 519.086 650.141 539.276 616.671 537.996Z" stroke="#5E847C" stroke-miterlimit="10"/>
<path opacity="0.8" d="M631.281 513.186C593.661 520.136 637.741 470.476 624.821 442.356C609.981 410.026 594.551 379.116 603.981 340.206C613.411 301.296 627.761 362.206 662.151 371.826C682.521 377.496 698.151 376.006 716.501 380.986C736.941 386.536 739.051 406.676 723.221 419.596C711.681 429.016 702.661 447.786 692.321 467.916C686.303 479.64 677.667 489.822 667.082 497.672C656.497 505.522 644.247 510.831 631.281 513.186Z" stroke="#5E847C" stroke-miterlimit="10" stroke-dasharray="1 3"/>
<path opacity="0.8" d="M706.731 420.015C704.371 426.215 678.331 478.305 645.891 488.375C613.451 498.445 644.981 463.205 636.441 441.705C627.901 420.205 605.881 398.205 612.441 366.225C619.001 334.245 624.191 404.565 660.981 395.885C698.981 386.945 714.091 400.605 706.731 420.015Z" stroke="#5E847C" stroke-miterlimit="10"/>
<path d="M591.311 -23.4643C581.911 44.1757 576.671 91.1357 582.901 128.156C589.131 165.176 606.821 192.236 643.271 220.096C679.721 247.956 676.501 273.646 691.271 288.496C706.041 303.346 738.921 307.326 774.551 311.356C810.181 315.386 832.101 320.356 844.281 330.766C856.461 341.176 854.721 358.936 848.111 384.236C836.371 429.236 808.231 473.926 823.391 504.606C842.141 542.606 902.211 568.386 972.801 472.966C1025.29 401.966 1065.35 430.666 1058.31 375.586C1051.27 320.506 957.261 296.296 940.731 218.656C917.391 109.026 915.901 85.7757 957.571 14.5457C981.701 -26.7043 1017.37 -86.1143 967.981 -178.334C918.591 -270.554 786.841 -236.114 720.771 -196.114C654.701 -156.114 599.041 -79.1143 591.311 -23.4643Z" stroke="#5E847C" stroke-miterlimit="10"/>
<path opacity="0.3" d="M968.281 463.725C1015.63 401.725 1053.14 422.146 1043.59 370.896C1041.95 361.356 1037.51 352.755 1031.14 344.665C1013.49 322.255 983.811 304.775 960.631 278.595C947.481 263.785 936.541 246.526 931.551 225.046C915.981 157.885 909.511 124.485 915.691 89.6655C918.621 73.5255 925.801 57.3355 935.691 36.3855C954.581 -3.61452 986.971 -59.5145 948.191 -144.125C940.891 -160.375 931.051 -172.745 919.481 -181.965C868.791 -222.485 779.111 -204.215 730.481 -178.085C670.981 -145.405 617.531 -79.0245 607.181 -28.9545C601.181 -9.95451 597.451 9.53549 601.281 29.7555C605.341 54.7555 605.361 74.0755 605.281 91.5055C605.191 108.065 604.861 122.935 608.161 139.905C613.941 173.455 630.861 198.015 664.381 223.095C696.961 247.675 695.721 270.365 709.951 283.755C724.181 297.145 753.951 301.255 785.871 305.465C817.791 309.675 837.711 314.645 849.071 324.465C860.431 334.285 859.331 350.265 854.071 372.995C853.597 375.049 853.094 377.095 852.561 379.135C842.251 418.065 821.731 456.135 834.471 483.135C852.171 520.885 905.081 546.475 968.281 463.725Z" stroke="#5E847C" stroke-miterlimit="10"/>
<path opacity="0.4" d="M963.722 454.475C1005.95 401.415 1040.89 413.615 1028.84 366.195C1026.84 357.585 1022.47 349.725 1016.23 342.365C998.462 321.365 971.422 306.365 949.732 281.435C937.642 267.625 927.462 251.435 922.382 231.435C907.202 171.885 899.982 139.755 901.122 107.185C901.762 92.1855 907.122 77.3555 913.852 58.1855C927.512 19.1855 956.612 -32.9245 928.432 -109.945C923.242 -124.885 915.942 -136.655 907.162 -145.895C866.822 -187.785 784.012 -179.895 740.162 -160.075C687.342 -134.735 635.982 -78.9545 623.042 -34.4545C613.662 -15.8545 608.642 5.54548 618.122 29.7455C628.612 58.9155 630.122 79.0255 630.262 97.2555C630.362 114.745 628.922 130.515 633.362 151.665C638.692 181.735 654.852 203.795 685.442 226.105C714.152 247.415 714.882 267.105 728.522 279.015C742.162 290.925 768.802 295.185 797.082 299.585C825.182 303.875 843.222 308.965 853.752 318.195C864.092 327.195 863.862 341.645 859.892 361.795C859.532 363.645 859.162 365.505 858.742 367.365C850.682 402.565 834.302 436.825 845.412 461.755C862.122 499.265 907.982 524.575 963.722 454.475Z" stroke="#5E847C" stroke-miterlimit="10"/>
<path opacity="0.6" d="M959.161 445.225C996.281 401.115 1028.65 405.095 1014.08 361.505C1011.82 353.815 1007.43 346.715 1001.32 340.065C983.401 320.565 959.031 307.925 938.831 284.285C927.831 271.455 918.411 256.285 913.201 237.845C898.531 185.845 890.431 155.025 886.551 124.715C884.911 110.715 888.321 97.1654 891.991 80.0754C900.261 41.5154 926.231 -6.25455 908.651 -75.6946C905.561 -89.3246 900.821 -100.495 894.831 -109.695C864.831 -152.965 788.831 -155.535 749.831 -141.955C703.621 -124.015 654.481 -78.8446 638.881 -39.9046C626.191 -21.7346 619.821 1.49545 634.981 29.7254C651.891 63.0555 654.981 83.9854 655.271 102.995C655.571 121.435 653.011 138.095 658.611 163.415C663.491 190.025 678.871 209.575 706.531 229.105C731.371 247.105 734.081 263.805 747.141 274.285C760.201 284.765 783.731 289.115 808.341 293.695C832.671 298.125 848.771 303.275 858.481 311.915C867.891 320.255 868.481 333.025 865.771 350.575C865.521 352.235 865.281 353.905 864.981 355.575C859.251 387.055 846.881 417.575 856.411 440.325C871.981 477.665 910.801 502.685 959.161 445.225Z" stroke="#5E847C" stroke-miterlimit="10"/>
<path opacity="0.8" d="M954.601 435.986C986.601 400.826 1016.4 396.566 999.321 356.816C996.761 350.036 992.381 343.706 986.411 337.766C968.321 319.766 946.641 309.506 927.931 287.126C917.185 274.557 909.044 259.978 903.981 244.236C889.931 199.856 880.861 170.296 871.981 142.236C868.051 129.376 869.181 116.806 870.131 101.916C872.581 63.4559 895.851 20.3759 888.871 -41.4841C888.111 -52.423 885.97 -63.2219 882.501 -73.6241C862.851 -118.264 793.761 -131.254 759.561 -123.954C719.981 -113.374 672.981 -78.8141 654.771 -45.4341C638.711 -27.6041 631.011 -2.52409 651.771 29.7159C675.121 67.1959 679.771 88.9359 680.221 108.716C680.721 128.096 677.051 145.636 683.791 175.136C688.221 198.276 702.791 215.316 727.571 232.086C748.571 246.856 753.221 260.496 765.701 269.516C778.181 278.536 798.601 283.026 819.541 287.776C840.111 292.346 854.261 297.566 863.151 305.596C871.641 313.246 873.001 324.376 871.591 339.326C871.461 340.796 871.341 342.276 871.161 343.756C867.691 371.496 859.341 398.276 867.351 418.876C881.851 456.106 913.731 480.816 954.601 435.986Z" stroke="#5E847C" stroke-miterlimit="10" stroke-dasharray="1 3"/>
<path opacity="0.8" d="M950.042 426.736C977.042 400.566 1004.15 388.046 984.572 352.116C981.309 345.785 976.874 340.131 971.502 335.456C953.212 318.966 934.242 311.086 917.032 289.966C907.442 278.221 899.94 264.918 894.852 250.636C881.552 213.816 871.362 185.566 857.412 159.756C851.192 147.996 849.662 136.376 848.272 123.756C844.012 85.2256 865.482 46.9956 869.092 -7.24445C870.175 -17.2856 870.536 -27.3916 870.172 -37.4844C860.862 -83.4844 798.632 -106.914 769.262 -105.884C736.262 -102.684 691.482 -78.7244 670.642 -50.8844C651.232 -33.4344 642.192 -6.50444 668.642 29.7556C698.412 71.3856 704.552 93.9356 705.252 114.546C705.942 134.856 701.152 153.296 709.042 186.966C713.042 206.646 726.872 221.176 748.672 235.166C765.772 246.666 772.432 257.296 784.322 264.856C796.212 272.416 813.572 276.986 830.822 281.886C847.632 286.576 859.822 291.886 867.902 299.306C875.472 306.306 877.692 315.766 877.502 328.096C877.502 329.376 877.502 330.656 877.432 331.956C876.212 355.956 871.832 379.046 878.382 397.436C891.592 434.576 916.732 458.986 950.042 426.736Z" stroke="#5E847C" stroke-miterlimit="10"/>
<path opacity="0.7" d="M945.481 417.495C967.621 400.395 991.911 379.495 969.811 347.425C966.192 341.996 961.729 337.178 956.591 333.155C938.071 318.215 921.851 312.655 906.121 292.805C898.291 282.975 891.511 270.885 885.671 257.035C873.301 227.695 861.821 200.835 842.841 177.275C834.341 166.615 829.791 156.085 826.411 145.595C814.091 107.445 850.411 46.4153 857.831 -1.40475C868.771 -72.1147 803.501 -82.6147 778.981 -87.8647C752.641 -92.0247 709.981 -78.6747 686.531 -56.4247C663.781 -39.3547 653.411 -10.5747 685.531 29.6853C721.731 75.4753 729.401 98.8353 730.301 120.235C731.201 141.635 725.301 160.825 734.301 198.675C737.841 214.875 750.921 226.905 769.781 238.115C783.021 246.355 791.651 253.965 802.961 260.115C814.271 266.265 828.501 270.955 842.081 276.115C855.081 280.945 865.391 286.295 872.631 293.115C879.271 299.375 882.421 307.255 883.381 316.965C883.491 318.055 883.611 319.145 883.661 320.255C884.661 340.505 884.231 359.925 889.381 376.105C901.171 413.105 919.881 437.275 945.481 417.495Z" stroke="#5E847C" stroke-miterlimit="10"/>
<path opacity="0.8" d="M940.921 408.246C960.841 399.526 985.781 362.156 941.681 330.856C922.901 317.526 909.461 314.236 895.221 295.656C876.281 270.886 865.641 227.946 828.271 194.806C762.831 136.746 813.981 102.376 839.981 35.0956C858.061 -11.5944 829.981 -58.7444 788.611 -69.8244C768.881 -81.3544 728.421 -78.6044 702.331 -61.9144C676.241 -45.2244 664.521 -14.5944 702.331 29.6756C744.981 79.6056 754.181 103.786 755.271 125.986C756.361 148.186 749.351 168.406 759.521 210.426C769.691 252.446 880.391 259.426 889.881 308.426C901.611 368.886 916.611 418.886 940.921 408.246Z" stroke="#5E847C" stroke-miterlimit="10"/>
<path d="M417.091 792.485C382.271 612.985 502.091 581.485 550.151 619.565C598.211 657.645 623.591 650.855 670.291 616.955C730.291 573.425 728.391 494.335 752.821 458.245C777.251 422.155 812.961 418.745 803.311 464.725C793.931 509.435 814.161 540.565 845.751 550.495C886.131 563.175 927.021 549.145 989.641 466.415C1029.11 414.265 1105.69 440.675 1127.64 490.175C1168.57 582.535 1079.3 662.175 977.291 691.795" stroke="#5E847C" stroke-miterlimit="10"/>
<path d="M780.321 560.885C775.621 524.005 766.011 520.515 749.921 517.475C725.731 512.905 773.581 424.135 786.411 464.655C799.241 505.175 783.221 583.635 780.321 560.885Z" stroke="#70D3BF" stroke-miterlimit="10"/>
<path d="M783.391 112.466C816.021 66.1859 854.641 13.8059 799.191 -60.5341C743.741 -134.874 634.191 -61.1141 712.771 -6.7741C784.181 42.6159 758.341 147.996 783.391 112.466Z" stroke="#5E847C" stroke-miterlimit="10"/>
<path d="M782.701 65.5952C789.201 74.1152 818.461 46.5052 797.181 -14.6248C781.801 -58.8148 691.781 -38.8748 747.061 5.4352C781.251 32.8852 769.391 48.1552 782.701 65.5952Z" stroke="#70D3BF" stroke-miterlimit="10"/>
<path d="M845.982 239.586C823.702 209.126 809.812 207.126 795.522 172.266C781.232 137.406 753.402 174.186 772.682 201.356C791.962 228.526 856.342 253.706 845.982 239.586Z" stroke="#70D3BF" stroke-miterlimit="10"/>
<path d="M649.321 458.166C652.101 486.216 689.521 432.916 685.321 419.036C681.121 405.156 667.531 425.356 656.691 414.116C645.851 402.876 647.711 441.946 649.321 458.166Z" stroke="#70D3BF" stroke-miterlimit="10"/>
<path d="M917.521 367.256C924.801 399.256 957.671 390.726 945.631 365.356C933.591 339.986 911.861 321.356 907.481 327.886C903.101 334.416 911.651 341.476 917.521 367.256Z" stroke="#70D3BF" stroke-miterlimit="10"/>
<path opacity="0.3" d="M539.701 573.406C527.821 528.996 581.421 516.546 569.451 457.516C557.481 398.486 516.771 382.996 537.811 287.336C560.391 184.716 536.811 192.206 474.311 271.666C458.101 292.266 430.611 322.376 410.031 358.886C389.451 395.396 375.771 438.296 387.211 484.486C398.651 530.676 440.481 566.756 477.601 584.376C514.721 601.996 547.111 601.136 539.701 573.406Z" stroke="#5E847C" stroke-miterlimit="10"/>
<path opacity="0.3" d="M525.231 560.146C516.031 518.746 557.421 505.636 550.021 457.616C545.201 426.306 532.201 407.806 524.781 375.366C519.711 352.866 517.951 330.566 523.071 303.276C537.611 225.716 520.991 232.426 472.511 293.116C459.091 309.886 436.791 334.546 418.781 364.516C399.781 396.086 388.451 433.276 396.891 473.206C402.131 497.996 415.891 520.356 432.501 538.396C445.961 552.996 461.091 564.796 475.211 571.726C504.981 586.336 530.711 584.806 525.231 560.146Z" stroke="#5E847C" stroke-miterlimit="10"/>
<path opacity="0.4" d="M510.751 546.886C504.321 508.446 533.581 494.636 530.591 457.716C528.501 431.956 521.101 414.916 514.151 383.116C508.661 357.966 505.971 338.046 508.331 319.206C514.891 266.866 505.071 272.596 470.701 314.556C460.071 327.556 442.891 346.676 427.521 370.146C410.111 396.746 400.981 428.306 406.571 461.886C410.501 485.356 421.761 507.236 435.501 525.046C447.371 540.416 460.691 552.806 472.821 559.046C495.281 570.606 514.371 568.456 510.751 546.886Z" stroke="#5E847C" stroke-miterlimit="10"/>
<path opacity="0.6" d="M496.281 533.626C492.761 498.116 510.091 483.556 511.161 457.806C512.001 437.546 510.161 421.996 503.521 390.866C497.711 363.056 493.981 345.866 493.581 335.146C492.581 308.506 488.981 312.636 468.901 335.996C461.021 345.156 448.901 358.746 436.271 375.776C420.27 397.254 413.112 424.049 416.271 450.646C418.741 472.816 427.551 494.286 438.521 511.776C448.681 527.986 460.311 540.886 470.431 546.426C485.631 554.786 498.111 552.086 496.281 533.626Z" stroke="#5E847C" stroke-miterlimit="10"/>
<path opacity="0.8" d="M481.812 520.365C481.452 487.785 487.322 472.585 491.722 457.905C496.122 443.225 499.082 429.085 492.902 398.615C486.722 368.145 484.422 353.125 478.842 351.075C476.052 350.075 472.432 352.275 467.102 357.435C461.772 362.595 454.702 370.685 445.022 381.435C430.252 397.765 425.212 418.465 425.982 439.365C426.752 460.265 433.222 481.365 441.552 498.465C449.882 515.565 459.982 528.735 468.042 533.775C476.102 538.815 481.982 535.725 481.812 520.365Z" stroke="#5E847C" stroke-miterlimit="10" stroke-dasharray="1 3"/>
<path opacity="0.8" d="M456.841 486.885C477.091 442.885 488.631 428.945 480.731 407.015C472.831 385.085 453.981 405.045 446.871 436.105C439.761 467.165 451.661 498.095 456.841 486.885Z" stroke="#5E847C" stroke-miterlimit="10"/>
<path d="M1004.74 80.5658C977.521 120.646 1007.5 169.646 1029.99 175.786C1052.48 181.926 1078.7 143.786 1041.29 120.706C1006.14 98.9958 1031.83 40.6858 1004.74 80.5658Z" stroke="#70D3BF" stroke-miterlimit="10"/>
<path d="M414.641 272.605C441.761 144.436 519.981 184.465 549.081 208.185C578.181 231.905 595.931 181.125 562.731 124.576C529.531 68.0255 591.291 -10.5145 570.981 -80.7845C550.671 -151.055 30.1311 -134.605 278.421 7.8055C315.681 29.1755 409.841 104.565 329.581 208.245C213.381 358.335 249.661 440.735 315.981 428.885C398.551 414.145 403.191 326.756 414.641 272.605Z" stroke="#5E847C" stroke-miterlimit="10"/>
<path d="M216.981 -100.114C207.251 10.2759 344.101 -26.0241 372.641 97.7059C388.171 164.996 384.641 253.316 417.121 212.416C469.621 146.336 499.011 160.506 525.251 170.256C551.491 180.006 583.881 193.796 548.751 138.256C468.551 11.5159 617.131 -15.5041 546.921 -62.4141C474.921 -110.534 501.851 -205.414 447.071 -188.164C419.681 -179.524 362.801 -164.904 312.451 -148.744C262.101 -132.584 218.261 -114.894 216.981 -100.114Z" stroke="#5E847C" stroke-miterlimit="10"/>
<path opacity="0.8" d="M391.431 22.1554C403.041 35.4254 413.431 42.1554 414.671 55.5054C416.321 73.5054 418.541 93.8854 431.591 86.5754C442.521 80.4254 449.881 47.3654 455.501 33.8854C461.121 20.4054 464.261 -6.54456 455.841 -12.1746C451.531 -15.1146 420.221 -31.6746 415.611 -32.2046C406.391 -33.2546 356.621 -17.6246 391.431 22.1554Z" stroke="#5E847C" stroke-miterlimit="10"/>
<path d="M400.301 8.45564C409.841 14.9356 417.561 17.4556 420.531 25.7356C424.531 36.8656 429.341 49.4256 436.391 42.6156C442.291 36.9056 441.491 14.7556 442.811 5.26564C444.131 -4.22436 441.671 -21.8044 435.411 -23.9744C432.201 -25.0844 409.621 -30.4044 406.611 -29.9744C400.601 -29.1144 371.661 -10.9844 400.301 8.45564Z" stroke="#70D3BF" stroke-miterlimit="10"/>
<path opacity="0.4" d="M414.291 194.376C456.981 140.706 486.151 144.736 507.821 151.636C529.311 158.476 555.371 169.256 527.821 124.046C502.821 82.9358 506.761 54.1658 516.971 32.0458C532.281 -1.01418 562.381 -18.7442 528.741 -42.3942C471.431 -82.6742 493.101 -159.614 447.741 -147.464C433.061 -143.534 408.831 -137.994 382.431 -131.254C366.601 -127.174 349.981 -122.804 334.131 -118.114C329.461 -116.744 324.861 -115.344 320.361 -113.934C283.701 -102.464 254.161 -89.7942 253.171 -78.4542C249.171 -32.8342 274.711 -16.0442 304.301 2.13582C333.041 19.8258 365.611 38.8858 378.621 86.8058C379.048 88.3858 379.458 89.9892 379.851 91.6158C393.551 149.076 387.431 228.196 414.291 194.376Z" stroke="#5E847C" stroke-miterlimit="10"/>
<path opacity="0.6" d="M417.501 168.975C450.271 127.705 473.231 128.975 490.391 132.975C507.101 136.915 526.861 144.665 506.871 109.785C488.571 77.8852 492.381 54.8852 500.561 37.0952C512.561 11.0952 535.451 -3.33479 510.561 -22.3048C467.921 -54.7748 484.211 -113.855 448.391 -106.715C436.191 -104.275 416.571 -100.985 395.311 -96.5148C382.311 -93.7848 368.751 -90.8448 355.821 -87.5148C351.988 -86.5481 348.225 -85.5481 344.531 -84.5148C314.401 -76.2148 290.211 -66.3448 289.371 -56.8348C286.191 -20.7248 305.591 -5.68479 328.261 10.5052C350.261 26.3452 375.451 43.2852 386.021 81.6052C386.381 82.8952 386.721 84.1952 387.021 85.5252C398.981 133.155 396.261 195.705 417.501 168.975Z" stroke="#5E847C" stroke-miterlimit="10"/>
<path opacity="0.8" d="M420.701 143.576C443.621 114.716 460.181 113.196 472.981 114.376C484.791 115.476 498.361 120.116 485.981 95.5759C474.381 72.7659 477.981 55.6559 484.161 42.1059C492.841 23.1059 502.681 11.2459 506.371 -10.0141C511.951 -42.2641 484.371 -64.9541 449.061 -66.0141C439.221 -66.3041 424.311 -64.0141 408.201 -61.8341C398.091 -60.4441 387.531 -58.8941 377.511 -56.9341C374.511 -56.3441 371.581 -55.7441 368.701 -55.1141C345.101 -49.9741 326.251 -42.9141 325.571 -35.2141C323.231 -8.59411 336.511 4.64589 352.231 18.8859C367.591 32.8159 385.231 47.7259 393.411 76.3859C393.701 77.3859 393.981 78.3859 394.251 79.3859C404.221 117.256 405.091 163.226 420.701 143.576Z" stroke="#5E847C" stroke-miterlimit="10" stroke-dasharray="1 3"/>
<path opacity="0.8" d="M423.912 118.176C436.982 101.726 446.862 97.6357 455.542 95.7557C462.262 94.2857 469.892 95.4457 464.992 81.3457C460.212 67.5757 463.632 56.3957 467.762 47.1257C473.102 35.1657 481.512 13.8857 478.982 2.1057C467.982 -48.1143 465.842 -23.5543 449.722 -25.2643C440.216 -26.4073 430.655 -27.0249 421.082 -27.1143C413.812 -27.1143 406.312 -26.9143 399.192 -26.2943C397.052 -26.1043 394.932 -25.8943 392.872 -25.6543C375.812 -23.6543 362.292 -19.4343 361.782 -13.5543C360.282 3.5357 367.402 15.0357 376.192 27.2857C384.852 39.3557 395.062 52.1757 400.812 71.1957C401.032 71.9157 401.242 72.6357 401.452 73.3557C409.612 101.336 413.922 130.736 423.912 118.176Z" stroke="#5E847C" stroke-miterlimit="10"/>
<path opacity="0.3" d="M363.151 205.525C334.951 222.605 311.271 251.445 294.981 281.525C278.691 311.605 269.821 342.835 271.231 364.755C273.311 396.915 300.901 426.755 336.081 407.145C356.951 395.515 372.191 368.665 383.131 340.345C394.071 312.025 400.691 282.255 404.331 264.785C411.621 229.855 407.771 229.715 388.631 239.665C367.341 250.705 377.861 196.615 363.151 205.525Z" stroke="#5E847C" stroke-miterlimit="10"/>
<path opacity="0.4" d="M336.512 389.525C353.112 380.275 365.322 359.165 374.162 336.775C379.127 323.886 383.298 310.705 386.652 297.305C388.652 289.505 390.212 282.515 391.402 276.975C397.162 250.075 394.402 249.305 380.232 256.085C364.502 263.585 372.772 222.645 361.622 228.315C357.354 230.404 353.261 232.832 349.382 235.575C340.51 242.183 332.386 249.737 325.152 258.105C316.566 267.794 309 278.339 302.572 289.575C289.292 313.015 282.202 337.575 283.312 354.745C284.982 381.125 307.642 405.605 336.512 389.525Z" stroke="#5E847C" stroke-miterlimit="10"/>
<path opacity="0.6" d="M336.981 371.946C349.311 365.076 358.491 349.706 365.241 333.236C369.036 323.761 372.239 314.058 374.831 304.186C376.351 298.516 377.571 293.376 378.501 289.186C382.731 270.336 381.131 268.936 371.861 272.526C361.691 276.466 367.671 248.906 360.131 251.086C356.647 252.039 353.324 253.505 350.271 255.436C343.321 259.886 336.321 266.046 329.681 272.886C322.277 280.401 315.73 288.716 310.161 297.676C299.941 314.536 294.581 332.286 295.381 344.786C296.711 365.386 314.391 384.506 336.981 371.946Z" stroke="#5E847C" stroke-miterlimit="10"/>
<path opacity="0.8" d="M337.372 354.356C345.372 349.876 351.582 340.246 356.242 329.706C358.854 323.641 361.085 317.419 362.922 311.076C363.922 307.526 364.842 304.236 365.532 301.426C368.182 290.596 367.732 288.986 363.412 288.986C358.752 288.986 361.882 273.376 358.562 273.876C357.692 272.796 354.812 273.346 351.082 275.306C345.862 278.056 339.962 282.536 334.222 287.656C328.033 293.011 322.504 299.084 317.752 305.746C310.752 316.086 306.952 327.006 307.462 334.806C308.412 349.636 321.142 363.406 337.372 354.356Z" stroke="#5E847C" stroke-miterlimit="10"/>
<path opacity="0.8" d="M319.531 324.886C320.111 333.946 327.891 342.346 337.801 336.826C343.681 333.556 347.981 325.986 351.061 318.006C353.619 311.078 355.625 303.959 357.061 296.716C357.571 294.256 355.441 294.016 351.961 295.226C347.289 297.097 342.863 299.531 338.781 302.476C333.902 305.782 329.396 309.608 325.341 313.886C321.701 317.826 319.331 321.746 319.531 324.886Z" stroke="#5E847C" stroke-miterlimit="10"/>
<path opacity="0.3" d="M498.981 219.795C480.401 257.005 421.761 315.885 424.751 288.445C427.741 261.005 439.441 257.825 447.851 225.255C456.261 192.685 513.981 189.885 498.981 219.795Z" stroke="#5E847C" stroke-miterlimit="10"/>
<path opacity="0.1" d="M242.391 372.355C251.101 280.575 289.801 249.225 324.751 177.245C363.601 97.2452 310.851 8.56522 166.191 -19.5748C21.5314 -47.7148 179.461 87.3352 120.271 207.745C61.0814 328.155 232.711 474.335 242.391 372.355Z" stroke="#5E847C" stroke-miterlimit="10"/>
<path opacity="0.3" d="M237.331 356.456C246.251 273.276 281.491 243.886 312.981 178.236C347.901 105.426 300.311 24.646 168.591 -0.983996C36.8708 -26.614 180.671 96.366 126.771 206.016C72.8708 315.666 227.111 449.316 237.331 356.456Z" stroke="#5E847C" stroke-miterlimit="10"/>
<path opacity="0.4" d="M232.271 340.566C241.621 265.996 273.191 238.566 301.181 179.216C332.181 113.616 289.771 40.7155 170.981 17.6055C52.1915 -5.50447 181.871 105.396 133.271 204.266C84.6715 303.136 221.771 424.316 232.271 340.566Z" stroke="#5E847C" stroke-miterlimit="10"/>
<path opacity="0.6" d="M227.211 324.666C236.871 258.716 264.881 233.256 289.391 180.206C316.511 121.816 279.221 56.7958 173.391 36.2058C67.5615 15.6158 183.091 114.436 139.781 202.536C96.4714 290.636 216.281 399.316 227.211 324.666Z" stroke="#5E847C" stroke-miterlimit="10"/>
<path opacity="0.8" d="M222.151 308.766C232.151 251.436 256.571 227.926 277.611 181.196C300.811 130.006 268.681 72.8655 175.771 54.7955C82.8613 36.7255 184.291 123.456 146.281 200.796C108.271 278.136 210.781 374.316 222.151 308.766Z" stroke="#5E847C" stroke-miterlimit="10"/>
<path opacity="0.8" d="M217.092 292.886C227.312 244.166 248.262 222.616 265.822 182.196C285.112 138.196 258.142 88.9458 178.172 73.3958C98.2016 57.8458 185.502 132.496 152.782 199.056C120.062 265.616 205.262 349.316 217.092 292.886Z" stroke="#5E847C" stroke-miterlimit="10"/>
<path opacity="0.7" d="M212.031 276.976C222.481 236.876 239.881 217.256 254.031 183.176C269.331 146.356 247.591 105.016 180.561 91.9761C113.531 78.9361 186.711 141.506 159.281 197.306C131.851 253.106 199.701 324.326 212.031 276.976Z" stroke="#5E847C" stroke-miterlimit="10"/>
<path opacity="0.8" d="M206.981 261.086C217.601 229.596 231.581 211.926 242.261 184.156C253.641 154.546 237.061 121.086 182.971 110.566C128.881 100.046 187.971 150.566 165.791 195.566C143.611 240.566 194.071 299.336 206.981 261.086Z" stroke="#5E847C" stroke-miterlimit="10"/>
<path opacity="0.8" d="M201.911 245.185C212.601 222.285 223.281 206.615 230.461 185.185C237.951 162.785 226.461 137.185 185.351 129.185C144.241 121.185 189.121 159.595 172.281 193.855C155.441 228.115 188.321 274.305 201.911 245.185Z" stroke="#5E847C" stroke-miterlimit="10"/>
<path opacity="0.8" d="M196.851 229.296C207.441 214.846 215.031 201.296 218.671 186.136C222.311 170.976 215.961 153.236 187.751 147.746C159.541 142.256 190.331 168.596 178.751 192.086C167.171 215.576 182.341 249.096 196.851 229.296Z" stroke="#5E847C" stroke-miterlimit="10"/>
<path opacity="0.1" d="M1469.2 -136.114C1380.49 -111.114 1304.9 -206.864 1257.52 -142.394C1237.26 -114.824 1167.35 -97.0545 1114.52 26.8156C1056.76 162.356 1255.8 72.3155 1389.47 83.9755C1523.14 95.6355 1567.79 -163.984 1469.2 -136.114Z" stroke="#5E847C" stroke-miterlimit="10"/>
<path opacity="0.8" d="M1456.21 -125.684C1375.43 -103.934 1307.21 -188.844 1262.7 -131.784C1243.25 -106.834 1179.25 -89.8839 1132.88 23.3661C1082.08 147.016 1260.49 62.7261 1382.21 73.3661C1503.93 84.0061 1546.48 -149.714 1456.21 -125.684Z" stroke="#5E847C" stroke-miterlimit="10"/>
<path opacity="0.8" d="M1443.22 -115.215C1370.32 -96.9846 1309.36 -170.805 1267.88 -121.155C1249.21 -98.8046 1191.15 -82.6846 1151.21 19.9454C1107.4 131.675 1265.19 53.1354 1374.98 62.7154C1484.77 72.2954 1525.11 -135.695 1443.22 -115.215Z" stroke="#5E847C" stroke-miterlimit="10"/>
<path opacity="0.1" d="M446.331 812.975C342.741 669.335 465.921 621.535 453.501 590.235C443.921 566.085 364.981 587.765 363.981 520.955C362.981 459.295 366.711 418.385 297.861 446.145C229.011 473.905 220.231 537.065 155.671 448.615C118.961 398.315 -97.8788 652.175 67.3312 718.615C232.541 785.055 497.271 883.625 446.331 812.975Z" stroke="#5E847C" stroke-miterlimit="10"/>
<path opacity="0.3" d="M426.531 795.085C338.291 663.235 444.851 622.255 434.261 591.785C425.981 567.955 357.671 584.515 354.841 526.145C352.201 471.785 352.081 436.825 290.731 461.565C227.631 487.005 220.731 540.495 161.451 463.695C126.881 418.935 -70.4187 658.055 80.9813 718.975C232.381 779.895 475.831 868.765 426.531 795.085Z" stroke="#5E847C" stroke-miterlimit="10"/>
<path opacity="0.4" d="M406.731 777.196C331.351 658.886 423.791 622.956 415.031 593.346C408.031 569.816 350.281 581.236 345.711 531.346C341.401 484.246 337.471 455.276 283.611 476.986C226.271 500.106 221.181 543.986 167.241 478.786C134.771 439.556 -43.0391 664.156 94.6409 719.306C234.391 775.276 456.081 854.636 406.731 777.196Z" stroke="#5E847C" stroke-miterlimit="10"/>
<path opacity="0.1" d="M393.041 557.225C405.401 562.775 426.281 565.725 414.331 552.915C406.331 544.305 395.851 534.345 390.811 524.175C373.341 488.925 375.471 454.175 371.691 490.815C368.981 517.265 376.191 549.655 393.041 557.225Z" stroke="#5E847C" stroke-miterlimit="10"/>
<path d="M1037.42 -95.6744C994.791 -33.1144 938.781 36.1856 937.371 96.0556C935.961 155.926 944.461 213.136 978.671 252.456C1052.83 337.696 1237.24 328.016 1178.93 198.556C1120.62 69.0956 1059.16 111.286 1118.53 -9.5544C1177.9 -130.394 1065.62 -137.064 1037.42 -95.6744Z" stroke="#5E847C" stroke-miterlimit="10"/>
<path opacity="0.3" d="M1036.05 -75.1141C996.751 -17.7841 945.761 43.2359 944.481 97.2359C943.201 151.236 950.881 202.886 981.741 238.326C1048.65 315.216 1214.98 306.486 1162.39 189.696C1109.8 72.9059 1051.5 111.166 1105.05 2.15586C1158.6 -106.854 1061.59 -112.344 1036.05 -75.1141Z" stroke="#5E847C" stroke-miterlimit="10"/>
<path opacity="0.4" d="M1034.68 -54.4647C998.681 -2.46474 952.741 50.2753 951.601 98.4153C950.461 146.555 957.301 192.575 984.821 224.195C1044.46 292.735 1192.76 284.955 1145.82 180.845C1098.88 76.7353 1043.82 111.045 1091.53 13.8453C1139.24 -83.3547 1057.56 -87.6147 1034.68 -54.4647Z" stroke="#5E847C" stroke-miterlimit="10"/>
<path opacity="0.6" d="M1033.31 -33.8642C1000.66 12.8858 959.722 57.3258 958.722 99.6058C957.722 141.886 963.722 182.296 987.892 210.066C1040.27 270.266 1170.51 263.426 1129.33 171.996C1088.15 80.5658 1036.16 110.936 1078.09 25.5858C1120.02 -59.7642 1053.52 -62.8942 1033.31 -33.8642Z" stroke="#5E847C" stroke-miterlimit="10"/>
<path opacity="0.8" d="M1031.98 -13.2649C1002.62 28.2252 966.701 64.3652 965.841 100.785C964.981 137.205 970.151 172.015 990.961 195.935C1036.08 247.785 1148.27 241.935 1112.79 163.135C1077.31 84.3351 1028.49 110.815 1064.61 37.3051C1100.73 -36.2049 1049.49 -38.1149 1031.98 -13.2649Z" stroke="#5E847C" stroke-miterlimit="10" stroke-dasharray="1 3"/>
<path opacity="0.8" d="M1030.58 7.34558C1004.58 43.5556 973.681 71.4056 972.951 101.966C972.221 132.526 976.571 161.726 994.041 181.796C1031.89 225.306 1126.04 220.366 1096.26 154.286C1066.48 88.2056 1020.82 110.706 1051.13 49.0256C1081.44 -12.6544 1045.46 -13.4444 1030.58 7.34558Z" stroke="#5E847C" stroke-miterlimit="10"/>
<path d="M1029.21 27.946C1006.53 58.946 980.651 78.456 980.071 103.146C979.491 127.836 983.001 151.446 997.071 167.666C1027.71 202.886 1103.78 198.886 1079.72 145.436C1055.66 91.986 1013.16 110.586 1037.65 60.736C1062.14 10.886 1041.43 11.276 1029.21 27.946Z" stroke="#5E847C" stroke-miterlimit="10"/>
<path opacity="0.1" d="M1214.7 681.786C1101.98 671.456 1173.37 559.186 1146.27 497.646C1111.04 417.646 1059.27 433.256 1067.6 379.646C1075.93 326.036 1019.53 320.456 1128.98 323.286C1238.43 326.116 1186.26 194.066 1194.53 151.096C1217.66 30.8659 1623.62 -9.78412 1541.53 339.006C1459.44 687.796 1369.14 793.056 1305.68 791.826C1242.22 790.596 1374.77 696.446 1214.7 681.786Z" stroke="#5E847C" stroke-miterlimit="10"/>
<path opacity="0.3" d="M1224.11 664.625C1125.61 652.835 1183.11 550.055 1156.72 491.925C1123.15 417.395 1074.72 431.755 1082.51 381.595C1090.3 331.435 1037.51 326.195 1139.97 328.845C1242.43 331.495 1195.14 208.105 1203.05 167.935C1224.16 59.0854 1602.84 17.1654 1525.98 343.555C1449.12 669.945 1367.83 762.175 1309.84 764.235C1250.92 766.335 1360.98 680.995 1224.11 664.625Z" stroke="#5E847C" stroke-miterlimit="10"/>
<path opacity="0.4" d="M1233.53 647.456C1149.36 634.116 1192.63 540.976 1167.17 486.206C1135.1 417.206 1090.17 430.256 1097.41 383.536C1104.65 336.816 1055.51 331.936 1150.93 334.406C1246.35 336.876 1204.1 222.166 1211.54 184.766C1230.91 87.356 1582.04 44.116 1510.46 348.106C1438.88 652.096 1366.46 731.366 1313.98 736.646C1259.52 742.136 1347.35 665.506 1233.53 647.456Z" stroke="#5E847C" stroke-miterlimit="10"/>
<path opacity="0.8" d="M1242.98 630.295C1173.27 615.235 1202.28 531.885 1177.62 480.485C1147.15 416.995 1105.62 428.755 1112.32 385.485C1119.02 342.215 1073.51 337.695 1161.9 339.975C1250.29 342.255 1212.98 236.215 1220.03 201.605C1237.49 115.605 1561.23 71.0752 1494.93 352.605C1428.63 634.135 1364.98 700.685 1318.15 709.065C1268.03 718.025 1333.98 649.975 1242.98 630.295Z" stroke="#5E847C" stroke-miterlimit="10" stroke-dasharray="1 3"/>
<path opacity="0.8" d="M1252.37 613.136C1197.49 596.136 1211.94 522.746 1188.07 474.766C1159.22 416.766 1121.07 427.246 1127.22 387.416C1133.37 347.586 1091.5 343.416 1172.86 345.526C1254.22 347.636 1221.86 250.266 1228.52 218.446C1244.04 143.846 1540.42 98.0258 1479.4 357.206C1418.38 616.386 1363.5 670.206 1322.3 681.476C1276.45 694.066 1321.26 634.456 1252.37 613.136Z" stroke="#5E847C" stroke-miterlimit="10"/>
<path opacity="0.8" d="M1261.79 595.976C1219.59 584.356 1221.61 513.626 1198.52 469.036C1171.32 416.516 1136.52 425.746 1142.13 389.356C1147.74 352.966 1109.49 349.166 1183.82 351.086C1258.15 353.006 1230.82 264.306 1237 235.286C1250.56 172.076 1519.62 124.976 1463.87 361.756C1408.12 598.536 1361.98 639.886 1326.45 653.886C1284.82 670.316 1304.75 627.516 1261.79 595.976Z" stroke="#5E847C" stroke-miterlimit="10"/>
<path opacity="0.3" d="M977.271 691.796C1070.21 632.046 1150.37 591.796 1111.65 501.796C1072.93 411.796 1004.37 461.266 958.591 528.396C910.111 599.476 852.891 570.916 830.271 562.996C794.951 550.636 747.151 592.476 799.841 682.606C852.531 772.736 941.721 714.646 977.271 691.796Z" stroke="#5E847C" stroke-miterlimit="10"/>
<path opacity="0.1" d="M1178.92 141.316C1200.04 119.006 1215.6 106.676 1193.92 110.466C1177.92 113.266 1174.15 112.536 1157.58 111.256C1133.34 109.376 1157.73 163.706 1178.92 141.316Z" stroke="#5E847C" stroke-miterlimit="10"/>
<path d="M1010.98 134.205C1011.17 134.755 1023.45 162.375 1036.42 157.035C1049.39 151.695 1047.65 137.745 1038.42 132.765C1029.19 127.785 1003.52 112.705 1010.98 134.205Z" stroke="#70D3BF" stroke-linecap="round" stroke-linejoin="round" stroke-dasharray="1 3"/>
<path d="M778.651 178.385C776.191 179.385 775.741 188.485 780.651 194.715C784.851 200.055 792.471 202.635 794.151 200.715C797.191 197.255 782.851 176.725 778.651 178.385Z" stroke="#70D3BF" stroke-linecap="round" stroke-linejoin="round" stroke-dasharray="1 3"/>
<path d="M463.231 426.636C455.711 431.716 458.071 446.006 461.231 446.886C465.171 447.976 475.911 429.886 472.231 425.636C470.541 423.696 465.901 424.826 463.231 426.636Z" stroke="#70D3BF" stroke-miterlimit="10"/>
<path d="M765.231 482.136C763.035 483.7 761.407 485.936 760.596 488.507C759.784 491.078 759.831 493.844 760.731 496.386C763.111 503.116 771.201 506.436 776.731 504.136C783.951 501.136 783.921 479.046 777.981 473.386C774.411 469.986 770.151 478.756 765.231 482.136Z" stroke="#70D3BF" stroke-miterlimit="10"/>
<path d="M929.231 366.636C930.831 374.406 930.041 376.826 932.231 378.386C934.761 380.186 939.481 379.556 941.231 377.136C944.231 372.946 938.011 363.896 933.231 359.386C932.441 358.646 928.571 354.986 927.231 355.886C926.131 356.616 927.801 359.696 929.231 366.636Z" stroke="#70D3BF" stroke-linecap="round" stroke-linejoin="round" stroke-dasharray="1 3"/>
<path d="M776.151 16.7158C774.941 18.5458 776.681 20.6458 784.311 35.8858C788.591 44.4158 789.111 45.8858 790.311 45.8858C794.371 45.8058 802.311 28.5558 794.481 19.7158C789.261 13.8158 778.441 13.2658 776.151 16.7158Z" stroke="#70D3BF" stroke-linecap="round" stroke-linejoin="round" stroke-dasharray="1 3"/>
<path d="M658.731 433.266C660.331 440.886 655.411 449.976 659.231 450.766C664.901 451.926 676.561 432.886 673.361 428.136C671.161 424.886 657.101 425.506 658.731 433.266Z" stroke="#70D3BF" stroke-linecap="round" stroke-linejoin="round" stroke-dasharray="1 3"/>
<path d="M1144.73 98.5859V114.246" stroke="#F4F4DE" stroke-width="3.3" stroke-miterlimit="10"/>
<path d="M1152.56 106.416H1136.9" stroke="#F4F4DE" stroke-width="3.3" stroke-miterlimit="10"/>
<path d="M1144.73 0.0556641V15.7157" stroke="#F4F4DE" stroke-width="3.3" stroke-miterlimit="10"/>
<path d="M1152.56 7.88574H1136.9" stroke="#F4F4DE" stroke-width="3.3" stroke-miterlimit="10"/>
<path d="M1044.16 0.0556641V15.7157" stroke="#F4F4DE" stroke-width="3.3" stroke-miterlimit="10"/>
<path d="M1051.99 7.88574H1036.33" stroke="#F4F4DE" stroke-width="3.3" stroke-miterlimit="10"/>
<path d="M1044.16 98.5859V114.246" stroke="#F4F4DE" stroke-width="3.3" stroke-miterlimit="10"/>
<path d="M1051.99 106.416H1036.33" stroke="#F4F4DE" stroke-width="3.3" stroke-miterlimit="10"/>
<path d="M1144.73 199.155V214.815" stroke="#F4F4DE" stroke-width="3.3" stroke-miterlimit="10"/>
<path d="M1152.56 206.985H1136.9" stroke="#F4F4DE" stroke-width="3.3" stroke-miterlimit="10"/>
<path d="M1044.16 199.155V214.815" stroke="#F4F4DE" stroke-width="3.3" stroke-miterlimit="10"/>
<path d="M1051.99 206.985H1036.33" stroke="#F4F4DE" stroke-width="3.3" stroke-miterlimit="10"/>
<path d="M1144.73 299.735V315.385" stroke="#F4F4DE" stroke-width="3.3" stroke-miterlimit="10"/>
<path d="M1152.56 307.565H1136.9" stroke="#F4F4DE" stroke-width="3.3" stroke-miterlimit="10"/>
<path d="M1044.16 299.735V315.385" stroke="#F4F4DE" stroke-width="3.3" stroke-miterlimit="10"/>
<path d="M1051.99 307.565H1036.33" stroke="#F4F4DE" stroke-width="3.3" stroke-miterlimit="10"/>
<path d="M1144.73 400.306V415.966" stroke="#F4F4DE" stroke-width="3.3" stroke-miterlimit="10"/>
<path d="M1152.56 408.136H1136.9" stroke="#F4F4DE" stroke-width="3.3" stroke-miterlimit="10"/>
<path d="M1044.16 400.306V415.966" stroke="#F4F4DE" stroke-width="3.3" stroke-miterlimit="10"/>
<path d="M1051.99 408.136H1036.33" stroke="#F4F4DE" stroke-width="3.3" stroke-miterlimit="10"/>
<path d="M943.691 98.5859V114.246" stroke="#F4F4DE" stroke-width="3.3" stroke-miterlimit="10"/>
<path d="M951.521 106.416H935.861" stroke="#F4F4DE" stroke-width="3.3" stroke-miterlimit="10"/>
<path d="M943.691 0.0556641V15.7157" stroke="#F4F4DE" stroke-width="3.3" stroke-miterlimit="10"/>
<path d="M951.521 7.88574H935.861" stroke="#F4F4DE" stroke-width="3.3" stroke-miterlimit="10"/>
<path d="M843.121 0.0556641V15.7157" stroke="#F4F4DE" stroke-width="3.3" stroke-miterlimit="10"/>
<path d="M850.951 7.88574H835.291" stroke="#F4F4DE" stroke-width="3.3" stroke-miterlimit="10"/>
<path d="M843.121 98.5859V114.246" stroke="#F4F4DE" stroke-width="3.3" stroke-miterlimit="10"/>
<path d="M850.951 106.416H835.291" stroke="#F4F4DE" stroke-width="3.3" stroke-miterlimit="10"/>
<path d="M943.691 199.155V214.815" stroke="#F4F4DE" stroke-width="3.3" stroke-miterlimit="10"/>
<path d="M951.521 206.985H935.861" stroke="#F4F4DE" stroke-width="3.3" stroke-miterlimit="10"/>
<path d="M843.121 199.155V214.815" stroke="#F4F4DE" stroke-width="3.3" stroke-miterlimit="10"/>
<path d="M850.951 206.985H835.291" stroke="#F4F4DE" stroke-width="3.3" stroke-miterlimit="10"/>
<path d="M943.691 299.735V315.385" stroke="#F4F4DE" stroke-width="3.3" stroke-miterlimit="10"/>
<path d="M951.521 307.565H935.861" stroke="#F4F4DE" stroke-width="3.3" stroke-miterlimit="10"/>
<path d="M843.121 299.735V315.385" stroke="#F4F4DE" stroke-width="3.3" stroke-miterlimit="10"/>
<path d="M850.951 307.565H835.291" stroke="#F4F4DE" stroke-width="3.3" stroke-miterlimit="10"/>
<path d="M943.691 400.306V415.966" stroke="#F4F4DE" stroke-width="3.3" stroke-miterlimit="10"/>
<path d="M951.521 408.136H935.861" stroke="#F4F4DE" stroke-width="3.3" stroke-miterlimit="10"/>
<path d="M843.121 400.306V415.966" stroke="#F4F4DE" stroke-width="3.3" stroke-miterlimit="10"/>
<path d="M850.951 408.136H835.291" stroke="#F4F4DE" stroke-width="3.3" stroke-miterlimit="10"/>
<path d="M843.121 98.5859V114.246" stroke="#F4F4DE" stroke-width="3.3" stroke-miterlimit="10"/>
<path d="M850.951 106.416H835.291" stroke="#F4F4DE" stroke-width="3.3" stroke-miterlimit="10"/>
<path d="M843.121 0.0556641V15.7157" stroke="#F4F4DE" stroke-width="3.3" stroke-miterlimit="10"/>
<path d="M850.951 7.88574H835.291" stroke="#F4F4DE" stroke-width="3.3" stroke-miterlimit="10"/>
<path d="M742.551 0.0556641V15.7157" stroke="#F4F4DE" stroke-width="3.3" stroke-miterlimit="10"/>
<path d="M750.381 7.88574H734.721" stroke="#F4F4DE" stroke-width="3.3" stroke-miterlimit="10"/>
<path d="M742.551 98.5859V114.246" stroke="#F4F4DE" stroke-width="3.3" stroke-miterlimit="10"/>
<path d="M750.381 106.416H734.721" stroke="#F4F4DE" stroke-width="3.3" stroke-miterlimit="10"/>
<path d="M843.121 199.155V214.815" stroke="#F4F4DE" stroke-width="3.3" stroke-miterlimit="10"/>
<path d="M850.951 206.985H835.291" stroke="#F4F4DE" stroke-width="3.3" stroke-miterlimit="10"/>
<path d="M742.551 199.156V214.816" stroke="#F4F4DE" stroke-width="3.3" stroke-miterlimit="10"/>
<path d="M750.381 206.985H734.721" stroke="#F4F4DE" stroke-width="3.3" stroke-miterlimit="10"/>
<path d="M843.121 299.735V315.385" stroke="#F4F4DE" stroke-width="3.3" stroke-miterlimit="10"/>
<path d="M850.951 307.565H835.291" stroke="#F4F4DE" stroke-width="3.3" stroke-miterlimit="10"/>
<path d="M742.551 299.735V315.385" stroke="#F4F4DE" stroke-width="3.3" stroke-miterlimit="10"/>
<path d="M750.381 307.565H734.721" stroke="#F4F4DE" stroke-width="3.3" stroke-miterlimit="10"/>
<path d="M843.121 400.306V415.966" stroke="#F4F4DE" stroke-width="3.3" stroke-miterlimit="10"/>
<path d="M850.951 408.136H835.291" stroke="#F4F4DE" stroke-width="3.3" stroke-miterlimit="10"/>
<path d="M742.551 400.306V415.966" stroke="#F4F4DE" stroke-width="3.3" stroke-miterlimit="10"/>
<path d="M750.381 408.136H734.721" stroke="#F4F4DE" stroke-width="3.3" stroke-miterlimit="10"/>
<path d="M742.551 98.5859V114.246" stroke="#F4F4DE" stroke-width="3.3" stroke-miterlimit="10"/>
<path d="M750.381 106.416H734.721" stroke="#F4F4DE" stroke-width="3.3" stroke-miterlimit="10"/>
<path d="M742.551 0.0556641V15.7157" stroke="#F4F4DE" stroke-width="3.3" stroke-miterlimit="10"/>
<path d="M750.381 7.88574H734.721" stroke="#F4F4DE" stroke-width="3.3" stroke-miterlimit="10"/>
<path d="M641.981 0.0556641V15.7157" stroke="#F4F4DE" stroke-width="3.3" stroke-miterlimit="10"/>
<path d="M649.811 7.88574H634.151" stroke="#F4F4DE" stroke-width="3.3" stroke-miterlimit="10"/>
<path d="M641.981 98.5859V114.246" stroke="#F4F4DE" stroke-width="3.3" stroke-miterlimit="10"/>
<path d="M649.811 106.416H634.151" stroke="#F4F4DE" stroke-width="3.3" stroke-miterlimit="10"/>
<path d="M742.551 199.156V214.816" stroke="#F4F4DE" stroke-width="3.3" stroke-miterlimit="10"/>
<path d="M750.381 206.985H734.721" stroke="#F4F4DE" stroke-width="3.3" stroke-miterlimit="10"/>
<path d="M641.981 199.156V214.816" stroke="#F4F4DE" stroke-width="3.3" stroke-miterlimit="10"/>
<path d="M649.811 206.985H634.151" stroke="#F4F4DE" stroke-width="3.3" stroke-miterlimit="10"/>
<path d="M742.551 299.735V315.385" stroke="#F4F4DE" stroke-width="3.3" stroke-miterlimit="10"/>
<path d="M750.381 307.565H734.721" stroke="#F4F4DE" stroke-width="3.3" stroke-miterlimit="10"/>
<path d="M641.981 299.735V315.385" stroke="#F4F4DE" stroke-width="3.3" stroke-miterlimit="10"/>
<path d="M649.811 307.565H634.151" stroke="#F4F4DE" stroke-width="3.3" stroke-miterlimit="10"/>
<path d="M742.551 400.306V415.966" stroke="#F4F4DE" stroke-width="3.3" stroke-miterlimit="10"/>
<path d="M750.381 408.136H734.721" stroke="#F4F4DE" stroke-width="3.3" stroke-miterlimit="10"/>
<path d="M641.981 400.306V415.966" stroke="#F4F4DE" stroke-width="3.3" stroke-miterlimit="10"/>
<path d="M649.811 408.136H634.151" stroke="#F4F4DE" stroke-width="3.3" stroke-miterlimit="10"/>
<path d="M641.981 98.5859V114.246" stroke="#F4F4DE" stroke-width="3.3" stroke-miterlimit="10"/>
<path d="M649.811 106.416H634.151" stroke="#F4F4DE" stroke-width="3.3" stroke-miterlimit="10"/>
<path d="M641.981 0.0556641V15.7157" stroke="#F4F4DE" stroke-width="3.3" stroke-miterlimit="10"/>
<path d="M649.811 7.88574H634.151" stroke="#F4F4DE" stroke-width="3.3" stroke-miterlimit="10"/>
<path d="M541.411 0.0556641V15.7157" stroke="#F4F4DE" stroke-width="3.3" stroke-miterlimit="10"/>
<path d="M440.731 0.0556641V15.7157" stroke="#F4F4DE" stroke-width="3.3" stroke-miterlimit="10"/>
<path d="M549.241 7.88574H533.581" stroke="#F4F4DE" stroke-width="3.3" stroke-miterlimit="10"/>
<path d="M448.561 7.88574H432.911" stroke="#F4F4DE" stroke-width="3.3" stroke-miterlimit="10"/>
<path d="M440.731 98.5859V114.246" stroke="#F4F4DE" stroke-width="3.3" stroke-miterlimit="10"/>
<path d="M448.561 106.416H432.911" stroke="#F4F4DE" stroke-width="3.3" stroke-miterlimit="10"/>
<path d="M440.731 199.156V214.816" stroke="#F4F4DE" stroke-width="3.3" stroke-miterlimit="10"/>
<path d="M448.561 206.985H432.911" stroke="#F4F4DE" stroke-width="3.3" stroke-miterlimit="10"/>
<path d="M440.731 299.735V315.385" stroke="#F4F4DE" stroke-width="3.3" stroke-miterlimit="10"/>
<path d="M448.561 307.565H432.911" stroke="#F4F4DE" stroke-width="3.3" stroke-miterlimit="10"/>
<path d="M440.731 400.306V415.966" stroke="#F4F4DE" stroke-width="3.3" stroke-miterlimit="10"/>
<path d="M448.561 408.136H432.911" stroke="#F4F4DE" stroke-width="3.3" stroke-miterlimit="10"/>
<path d="M541.411 98.5859V114.246" stroke="#F4F4DE" stroke-width="3.3" stroke-miterlimit="10"/>
<path d="M549.241 106.416H533.581" stroke="#F4F4DE" stroke-width="3.3" stroke-miterlimit="10"/>
<path d="M641.981 199.156V214.816" stroke="#F4F4DE" stroke-width="3.3" stroke-miterlimit="10"/>
<path d="M649.811 206.985H634.151" stroke="#F4F4DE" stroke-width="3.3" stroke-miterlimit="10"/>
<path d="M541.411 199.155V214.815" stroke="#F4F4DE" stroke-width="3.3" stroke-miterlimit="10"/>
<path d="M549.241 206.985H533.581" stroke="#F4F4DE" stroke-width="3.3" stroke-miterlimit="10"/>
<path d="M641.981 299.735V315.385" stroke="#F4F4DE" stroke-width="3.3" stroke-miterlimit="10"/>
<path d="M649.811 307.565H634.151" stroke="#F4F4DE" stroke-width="3.3" stroke-miterlimit="10"/>
<path d="M541.411 299.735V315.385" stroke="#F4F4DE" stroke-width="3.3" stroke-miterlimit="10"/>
<path d="M549.241 307.565H533.581" stroke="#F4F4DE" stroke-width="3.3" stroke-miterlimit="10"/>
<path d="M641.981 400.306V415.966" stroke="#F4F4DE" stroke-width="3.3" stroke-miterlimit="10"/>
<path d="M649.811 408.136H634.151" stroke="#F4F4DE" stroke-width="3.3" stroke-miterlimit="10"/>
<path d="M541.411 400.306V415.966" stroke="#F4F4DE" stroke-width="3.3" stroke-miterlimit="10"/>
<path d="M549.241 408.136H533.581" stroke="#F4F4DE" stroke-width="3.3" stroke-miterlimit="10"/>
</g>
</g>
<defs>
<clipPath id="clip0_0_4585">
<rect width="1755" height="475" fill="white"/>
</clipPath>
</defs>
</svg>
