<svg width="1485" height="483" viewBox="0 0 1485 483" fill="none" xmlns="http://www.w3.org/2000/svg">
<g opacity="0.3" clip-path="url(#clip0_0_5211)">
<g opacity="0.1">
<path d="M58.8916 5.8457H62.3916" stroke="#102C2B" stroke-width="2" stroke-linecap="square" stroke-linejoin="round"/>
<path d="M68.3916 5.8457H988.152" stroke="#102C2B" stroke-width="2" stroke-linecap="square" stroke-linejoin="round" stroke-dasharray="7 6"/>
<path d="M991.151 5.8457H994.651" stroke="#102C2B" stroke-width="2" stroke-linecap="square" stroke-linejoin="round"/>
<path d="M58.8916 106.416H62.3916" stroke="#102C2B" stroke-width="2" stroke-linecap="square" stroke-linejoin="round"/>
<path d="M68.3916 106.416H988.152" stroke="#102C2B" stroke-width="2" stroke-linecap="square" stroke-linejoin="round" stroke-dasharray="7 6"/>
<path d="M991.151 106.416H994.651" stroke="#102C2B" stroke-width="2" stroke-linecap="square" stroke-linejoin="round"/>
<path d="M58.8916 206.985H62.3916" stroke="#102C2B" stroke-width="2" stroke-linecap="square" stroke-linejoin="round"/>
<path d="M68.3916 206.985H988.152" stroke="#102C2B" stroke-width="2" stroke-linecap="square" stroke-linejoin="round" stroke-dasharray="7 6"/>
<path d="M991.151 206.985H994.651" stroke="#102C2B" stroke-width="2" stroke-linecap="square" stroke-linejoin="round"/>
<path d="M58.8916 307.565H62.3916" stroke="#102C2B" stroke-width="2" stroke-linecap="square" stroke-linejoin="round"/>
<path d="M68.3916 307.565H988.152" stroke="#102C2B" stroke-width="2" stroke-linecap="square" stroke-linejoin="round" stroke-dasharray="7 6"/>
<path d="M991.151 307.565H994.651" stroke="#102C2B" stroke-width="2" stroke-linecap="square" stroke-linejoin="round"/>
<path d="M58.8916 408.136H62.3916" stroke="#102C2B" stroke-width="2" stroke-linecap="square" stroke-linejoin="round"/>
<path d="M68.3916 408.136H988.152" stroke="#102C2B" stroke-width="2" stroke-linecap="square" stroke-linejoin="round" stroke-dasharray="7 6"/>
<path d="M991.151 408.136H994.651" stroke="#102C2B" stroke-width="2" stroke-linecap="square" stroke-linejoin="round"/>
<path d="M874.731 -201.104V718.655" stroke="#102C2B" stroke-width="2" stroke-linecap="square" stroke-linejoin="round" stroke-dasharray="7 6"/>
<path d="M774.161 -201.104V718.655" stroke="#102C2B" stroke-width="2" stroke-linecap="square" stroke-linejoin="round" stroke-dasharray="7 6"/>
<path d="M673.591 -201.104V718.655" stroke="#102C2B" stroke-width="2" stroke-linecap="square" stroke-linejoin="round" stroke-dasharray="7 6"/>
<path d="M573.021 -201.104V718.655" stroke="#102C2B" stroke-width="2" stroke-linecap="square" stroke-linejoin="round" stroke-dasharray="7 6"/>
<path d="M472.451 -201.104V718.655" stroke="#102C2B" stroke-width="2" stroke-linecap="square" stroke-linejoin="round" stroke-dasharray="7 6"/>
<path d="M371.881 -201.104V718.655" stroke="#102C2B" stroke-width="2" stroke-linecap="square" stroke-linejoin="round" stroke-dasharray="7 6"/>
<path d="M271.312 -201.104V718.655" stroke="#102C2B" stroke-width="2" stroke-linecap="square" stroke-linejoin="round" stroke-dasharray="7 6"/>
<path d="M170.731 -201.104V718.655" stroke="#102C2B" stroke-width="2" stroke-linecap="square" stroke-linejoin="round" stroke-dasharray="7 6"/>
<path d="M519.341 417.886C461.761 445.886 454.391 486.886 444.741 523.936C425.991 595.936 362.581 626.756 302.841 612.406C243.101 598.056 338.151 499.796 308.351 444.916C267.451 369.606 279.221 302.726 300.451 236.086C321.681 169.446 366.571 222.446 397.121 275.496C431.391 334.996 469.231 311.076 529.381 324.906C584.651 337.636 573.591 391.556 519.341 417.886Z" stroke="#5E847C" stroke-miterlimit="10"/>
<path opacity="0.3" d="M317.452 587.616C263.312 577.326 345.512 492.496 319.962 444.286C285.542 379.736 290.552 321.886 308.842 262.136C327.132 202.386 365.842 257.556 395.842 299.596C428.312 345.106 458.912 327.346 508.622 338.946C555.172 349.886 547.332 395.486 502.772 418.326C456.772 441.916 448.772 477.126 439.092 509.946C421.392 570.296 368.562 597.336 317.452 587.616Z" stroke="#5E847C" stroke-miterlimit="10"/>
<path opacity="0.4" d="M332.062 562.806C283.402 556.706 352.992 485.116 331.582 443.646C303.772 389.786 301.892 340.886 317.232 288.156C332.572 235.426 364.612 292.156 394.652 323.666C424.692 355.176 448.722 343.516 487.952 352.956C525.812 362.066 521.212 399.376 486.292 418.746C451.842 437.876 443.292 467.316 433.552 495.936C416.982 544.666 374.412 568.126 332.062 562.806Z" stroke="#5E847C" stroke-miterlimit="10"/>
<path opacity="0.6" d="M346.671 537.996C303.341 536.346 360.391 477.786 343.201 442.996C321.891 399.886 313.201 359.996 325.621 314.176C338.041 268.356 362.131 326.486 393.421 347.746C419.471 365.456 438.421 359.746 467.241 366.966C496.391 374.286 495.111 403.166 469.771 419.176C446.841 433.656 437.871 457.516 427.981 481.886C412.841 519.086 380.141 539.276 346.671 537.996Z" stroke="#5E847C" stroke-miterlimit="10"/>
<path opacity="0.8" d="M361.281 513.186C323.661 520.136 367.741 470.476 354.821 442.356C339.981 410.026 324.551 379.116 333.981 340.206C343.411 301.296 357.761 362.206 392.151 371.826C412.521 377.496 428.151 376.006 446.501 380.986C466.941 386.536 469.051 406.676 453.221 419.596C441.681 429.016 432.661 447.786 422.321 467.916C416.303 479.64 407.667 489.822 397.082 497.672C386.497 505.522 374.247 510.831 361.281 513.186Z" stroke="#5E847C" stroke-miterlimit="10" stroke-dasharray="1 3"/>
<path opacity="0.8" d="M436.731 420.015C434.371 426.215 408.331 478.305 375.891 488.375C343.451 498.445 374.981 463.205 366.441 441.705C357.901 420.205 335.881 398.205 342.441 366.225C349.001 334.245 354.191 404.565 390.981 395.885C428.981 386.945 444.091 400.605 436.731 420.015Z" stroke="#5E847C" stroke-miterlimit="10"/>
<path d="M321.311 -23.4643C311.911 44.1757 306.671 91.1357 312.901 128.156C319.131 165.176 336.821 192.236 373.271 220.096C409.721 247.956 406.501 273.646 421.271 288.496C436.041 303.346 468.921 307.326 504.551 311.356C540.181 315.386 562.101 320.356 574.281 330.766C586.461 341.176 584.721 358.936 578.111 384.236C566.371 429.236 538.231 473.926 553.391 504.606C572.141 542.606 632.211 568.386 702.801 472.966C755.291 401.966 795.351 430.666 788.311 375.586C781.271 320.506 687.261 296.296 670.731 218.656C647.391 109.026 645.901 85.7757 687.571 14.5457C711.701 -26.7043 747.371 -86.1143 697.981 -178.334C648.591 -270.554 516.841 -236.114 450.771 -196.114C384.701 -156.114 329.041 -79.1143 321.311 -23.4643Z" stroke="#5E847C" stroke-miterlimit="10"/>
<path opacity="0.3" d="M698.281 463.725C745.631 401.725 783.141 422.146 773.591 370.896C771.951 361.356 767.511 352.755 761.141 344.665C743.491 322.255 713.811 304.775 690.631 278.595C677.481 263.785 666.541 246.526 661.551 225.046C645.981 157.885 639.511 124.485 645.691 89.6655C648.621 73.5255 655.801 57.3355 665.691 36.3855C684.581 -3.61452 716.971 -59.5145 678.191 -144.125C670.891 -160.375 661.051 -172.745 649.481 -181.965C598.791 -222.485 509.111 -204.215 460.481 -178.085C400.981 -145.405 347.531 -79.0245 337.181 -28.9545C331.181 -9.95451 327.451 9.53549 331.281 29.7555C335.341 54.7555 335.361 74.0755 335.281 91.5055C335.191 108.065 334.861 122.935 338.161 139.905C343.941 173.455 360.861 198.015 394.381 223.095C426.961 247.675 425.721 270.365 439.951 283.755C454.181 297.145 483.951 301.255 515.871 305.465C547.791 309.675 567.711 314.645 579.071 324.465C590.431 334.285 589.331 350.265 584.071 372.995C583.597 375.049 583.094 377.095 582.561 379.135C572.251 418.065 551.731 456.135 564.471 483.135C582.171 520.885 635.081 546.475 698.281 463.725Z" stroke="#5E847C" stroke-miterlimit="10"/>
<path opacity="0.4" d="M693.722 454.475C735.952 401.415 770.892 413.615 758.842 366.195C756.842 357.585 752.472 349.725 746.232 342.365C728.462 321.365 701.422 306.365 679.732 281.435C667.642 267.625 657.462 251.435 652.382 231.435C637.202 171.885 629.982 139.755 631.122 107.185C631.762 92.1855 637.122 77.3555 643.852 58.1855C657.512 19.1855 686.612 -32.9245 658.432 -109.945C653.242 -124.885 645.942 -136.655 637.162 -145.895C596.822 -187.785 514.012 -179.895 470.162 -160.075C417.342 -134.735 365.982 -78.9545 353.042 -34.4545C343.662 -15.8545 338.642 5.54548 348.122 29.7455C358.612 58.9155 360.122 79.0255 360.262 97.2555C360.362 114.745 358.922 130.515 363.362 151.665C368.692 181.735 384.852 203.795 415.442 226.105C444.152 247.415 444.882 267.105 458.522 279.015C472.162 290.925 498.802 295.185 527.082 299.585C555.182 303.875 573.222 308.965 583.752 318.195C594.092 327.195 593.862 341.645 589.892 361.795C589.532 363.645 589.162 365.505 588.742 367.365C580.682 402.565 564.302 436.825 575.412 461.755C592.122 499.265 637.982 524.575 693.722 454.475Z" stroke="#5E847C" stroke-miterlimit="10"/>
<path opacity="0.6" d="M689.161 445.225C726.281 401.115 758.651 405.095 744.081 361.505C741.821 353.815 737.431 346.715 731.321 340.065C713.401 320.565 689.031 307.925 668.831 284.285C657.831 271.455 648.411 256.285 643.201 237.845C628.531 185.845 620.431 155.025 616.551 124.715C614.911 110.715 618.321 97.1654 621.991 80.0754C630.261 41.5154 656.231 -6.25455 638.651 -75.6946C635.561 -89.3246 630.821 -100.495 624.831 -109.695C594.831 -152.965 518.831 -155.535 479.831 -141.955C433.621 -124.015 384.481 -78.8446 368.881 -39.9046C356.191 -21.7346 349.821 1.49545 364.981 29.7254C381.891 63.0555 384.981 83.9854 385.271 102.995C385.571 121.435 383.011 138.095 388.611 163.415C393.491 190.025 408.871 209.575 436.531 229.105C461.371 247.105 464.081 263.805 477.141 274.285C490.201 284.765 513.731 289.115 538.341 293.695C562.671 298.125 578.771 303.275 588.481 311.915C597.891 320.255 598.481 333.025 595.771 350.575C595.521 352.235 595.281 353.905 594.981 355.575C589.251 387.055 576.881 417.575 586.411 440.325C601.981 477.665 640.801 502.685 689.161 445.225Z" stroke="#5E847C" stroke-miterlimit="10"/>
<path opacity="0.8" d="M684.601 435.986C716.601 400.826 746.401 396.566 729.321 356.816C726.761 350.036 722.381 343.706 716.411 337.766C698.321 319.766 676.641 309.506 657.931 287.126C647.185 274.557 639.044 259.978 633.981 244.236C619.931 199.856 610.861 170.296 601.981 142.236C598.051 129.376 599.181 116.806 600.131 101.916C602.581 63.4559 625.851 20.3759 618.871 -41.4841C618.111 -52.423 615.97 -63.2219 612.501 -73.6241C592.851 -118.264 523.761 -131.254 489.561 -123.954C449.981 -113.374 402.981 -78.8141 384.771 -45.4341C368.711 -27.6041 361.011 -2.52409 381.771 29.7159C405.121 67.1959 409.771 88.9359 410.221 108.716C410.721 128.096 407.051 145.636 413.791 175.136C418.221 198.276 432.791 215.316 457.571 232.086C478.571 246.856 483.221 260.496 495.701 269.516C508.181 278.536 528.601 283.026 549.541 287.776C570.111 292.346 584.261 297.566 593.151 305.596C601.641 313.246 603.001 324.376 601.591 339.326C601.461 340.796 601.341 342.276 601.161 343.756C597.691 371.496 589.341 398.276 597.351 418.876C611.851 456.106 643.731 480.816 684.601 435.986Z" stroke="#5E847C" stroke-miterlimit="10" stroke-dasharray="1 3"/>
<path opacity="0.8" d="M680.042 426.736C707.042 400.566 734.152 388.046 714.572 352.116C711.309 345.785 706.874 340.131 701.502 335.456C683.212 318.966 664.242 311.086 647.032 289.966C637.442 278.221 629.94 264.918 624.852 250.636C611.552 213.816 601.362 185.566 587.412 159.756C581.192 147.996 579.662 136.376 578.272 123.756C574.012 85.2256 595.482 46.9956 599.092 -7.24445C600.175 -17.2856 600.536 -27.3916 600.172 -37.4844C590.862 -83.4844 528.632 -106.914 499.262 -105.884C466.262 -102.684 421.482 -78.7244 400.642 -50.8844C381.232 -33.4344 372.192 -6.50444 398.642 29.7556C428.412 71.3856 434.552 93.9356 435.252 114.546C435.942 134.856 431.152 153.296 439.042 186.966C443.042 206.646 456.872 221.176 478.672 235.166C495.772 246.666 502.432 257.296 514.322 264.856C526.212 272.416 543.572 276.986 560.822 281.886C577.632 286.576 589.822 291.886 597.902 299.306C605.472 306.306 607.692 315.766 607.502 328.096C607.502 329.376 607.502 330.656 607.432 331.956C606.212 355.956 601.832 379.046 608.382 397.436C621.592 434.576 646.732 458.986 680.042 426.736Z" stroke="#5E847C" stroke-miterlimit="10"/>
<path opacity="0.7" d="M675.481 417.495C697.621 400.395 721.911 379.495 699.811 347.425C696.192 341.996 691.729 337.178 686.591 333.155C668.071 318.215 651.851 312.655 636.121 292.805C628.291 282.975 621.511 270.885 615.671 257.035C603.301 227.695 591.821 200.835 572.841 177.275C564.341 166.615 559.791 156.085 556.411 145.595C544.091 107.445 580.411 46.4153 587.831 -1.40475C598.771 -72.1147 533.501 -82.6147 508.981 -87.8647C482.641 -92.0247 439.981 -78.6747 416.531 -56.4247C393.781 -39.3547 383.411 -10.5747 415.531 29.6853C451.731 75.4753 459.401 98.8353 460.301 120.235C461.201 141.635 455.301 160.825 464.301 198.675C467.841 214.875 480.921 226.905 499.781 238.115C513.021 246.355 521.651 253.965 532.961 260.115C544.271 266.265 558.501 270.955 572.081 276.115C585.081 280.945 595.391 286.295 602.631 293.115C609.271 299.375 612.421 307.255 613.381 316.965C613.491 318.055 613.611 319.145 613.661 320.255C614.661 340.505 614.231 359.925 619.381 376.105C631.171 413.105 649.881 437.275 675.481 417.495Z" stroke="#5E847C" stroke-miterlimit="10"/>
<path opacity="0.8" d="M670.921 408.246C690.841 399.526 715.781 362.156 671.681 330.856C652.901 317.526 639.461 314.236 625.221 295.656C606.281 270.886 595.641 227.946 558.271 194.806C492.831 136.746 543.981 102.376 569.981 35.0956C588.061 -11.5944 559.981 -58.7444 518.611 -69.8244C498.881 -81.3544 458.421 -78.6044 432.331 -61.9144C406.241 -45.2244 394.521 -14.5944 432.331 29.6756C474.981 79.6056 484.181 103.786 485.271 125.986C486.361 148.186 479.351 168.406 489.521 210.426C499.691 252.446 610.391 259.426 619.881 308.426C631.611 368.886 646.611 418.886 670.921 408.246Z" stroke="#5E847C" stroke-miterlimit="10"/>
<path d="M147.091 792.485C112.271 612.985 232.091 581.485 280.151 619.565C328.211 657.645 353.591 650.855 400.291 616.955C460.291 573.425 458.391 494.335 482.821 458.245C507.251 422.155 542.961 418.745 533.311 464.725C523.931 509.435 544.161 540.565 575.751 550.495C616.131 563.175 657.021 549.145 719.641 466.415C759.111 414.265 835.691 440.675 857.641 490.175C898.571 582.535 809.301 662.175 707.291 691.795" stroke="#5E847C" stroke-miterlimit="10"/>
<path d="M510.321 560.885C505.621 524.005 496.011 520.515 479.921 517.475C455.731 512.905 503.581 424.135 516.411 464.655C529.241 505.175 513.221 583.635 510.321 560.885Z" stroke="#70D3BF" stroke-miterlimit="10"/>
<path d="M513.391 112.466C546.021 66.1859 584.641 13.8059 529.191 -60.5341C473.741 -134.874 364.191 -61.1141 442.771 -6.7741C514.181 42.6159 488.341 147.996 513.391 112.466Z" stroke="#5E847C" stroke-miterlimit="10"/>
<path d="M512.701 65.5952C519.201 74.1152 548.461 46.5052 527.181 -14.6248C511.801 -58.8148 421.781 -38.8748 477.061 5.4352C511.251 32.8852 499.391 48.1552 512.701 65.5952Z" stroke="#70D3BF" stroke-miterlimit="10"/>
<path d="M575.982 239.586C553.702 209.126 539.812 207.126 525.522 172.266C511.232 137.406 483.402 174.186 502.682 201.356C521.962 228.526 586.342 253.706 575.982 239.586Z" stroke="#70D3BF" stroke-miterlimit="10"/>
<path d="M379.321 458.166C382.101 486.216 419.521 432.916 415.321 419.036C411.121 405.156 397.531 425.356 386.691 414.116C375.851 402.876 377.711 441.946 379.321 458.166Z" stroke="#70D3BF" stroke-miterlimit="10"/>
<path d="M647.521 367.256C654.801 399.256 687.671 390.726 675.631 365.356C663.591 339.986 641.861 321.356 637.481 327.886C633.101 334.416 641.651 341.476 647.521 367.256Z" stroke="#70D3BF" stroke-miterlimit="10"/>
<path opacity="0.3" d="M269.701 573.406C257.821 528.996 311.421 516.546 299.451 457.516C287.481 398.486 246.771 382.996 267.811 287.336C290.391 184.716 266.811 192.206 204.311 271.666C188.101 292.266 160.611 322.376 140.031 358.886C119.451 395.396 105.771 438.296 117.211 484.486C128.651 530.676 170.481 566.756 207.601 584.376C244.721 601.996 277.111 601.136 269.701 573.406Z" stroke="#5E847C" stroke-miterlimit="10"/>
<path opacity="0.3" d="M255.231 560.146C246.031 518.746 287.421 505.636 280.021 457.616C275.201 426.306 262.201 407.806 254.781 375.366C249.711 352.866 247.951 330.566 253.071 303.276C267.611 225.716 250.991 232.426 202.511 293.116C189.091 309.886 166.791 334.546 148.781 364.516C129.781 396.086 118.451 433.276 126.891 473.206C132.131 497.996 145.891 520.356 162.501 538.396C175.961 552.996 191.091 564.796 205.211 571.726C234.981 586.336 260.711 584.806 255.231 560.146Z" stroke="#5E847C" stroke-miterlimit="10"/>
<path opacity="0.4" d="M240.751 546.886C234.321 508.446 263.581 494.636 260.591 457.716C258.501 431.956 251.101 414.916 244.151 383.116C238.661 357.966 235.971 338.046 238.331 319.206C244.891 266.866 235.071 272.596 200.701 314.556C190.071 327.556 172.891 346.676 157.521 370.146C140.111 396.746 130.981 428.306 136.571 461.886C140.501 485.356 151.761 507.236 165.501 525.046C177.371 540.416 190.691 552.806 202.821 559.046C225.281 570.606 244.371 568.456 240.751 546.886Z" stroke="#5E847C" stroke-miterlimit="10"/>
<path opacity="0.6" d="M226.281 533.626C222.761 498.116 240.091 483.556 241.161 457.806C242.001 437.546 240.161 421.996 233.521 390.866C227.711 363.056 223.981 345.866 223.581 335.146C222.581 308.506 218.981 312.636 198.901 335.996C191.021 345.156 178.901 358.746 166.271 375.776C150.27 397.254 143.112 424.049 146.271 450.646C148.741 472.816 157.551 494.286 168.521 511.776C178.681 527.986 190.311 540.886 200.431 546.426C215.631 554.786 228.111 552.086 226.281 533.626Z" stroke="#5E847C" stroke-miterlimit="10"/>
<path opacity="0.8" d="M211.812 520.365C211.452 487.785 217.322 472.585 221.722 457.905C226.122 443.225 229.082 429.085 222.902 398.615C216.722 368.145 214.422 353.125 208.842 351.075C206.052 350.075 202.432 352.275 197.102 357.435C191.772 362.595 184.702 370.685 175.022 381.435C160.252 397.765 155.212 418.465 155.982 439.365C156.752 460.265 163.222 481.365 171.552 498.465C179.882 515.565 189.982 528.735 198.042 533.775C206.102 538.815 211.982 535.725 211.812 520.365Z" stroke="#5E847C" stroke-miterlimit="10" stroke-dasharray="1 3"/>
<path opacity="0.8" d="M186.841 486.885C207.091 442.885 218.631 428.945 210.731 407.015C202.831 385.085 183.981 405.045 176.871 436.105C169.761 467.165 181.661 498.095 186.841 486.885Z" stroke="#5E847C" stroke-miterlimit="10"/>
<path d="M734.741 80.5658C707.521 120.646 737.501 169.646 759.991 175.786C782.481 181.926 808.701 143.786 771.291 120.706C736.141 98.9958 761.831 40.6858 734.741 80.5658Z" stroke="#70D3BF" stroke-miterlimit="10"/>
<path d="M144.641 272.605C171.761 144.436 249.981 184.465 279.081 208.185C308.181 231.905 325.931 181.125 292.731 124.576C259.531 68.0255 321.291 -10.5145 300.981 -80.7845C280.671 -151.055 -239.869 -134.605 8.42109 7.8055C45.6811 29.1755 139.841 104.565 59.5811 208.245C-56.6189 358.335 -20.3389 440.735 45.9811 428.885C128.551 414.145 133.191 326.756 144.641 272.605Z" stroke="#5E847C" stroke-miterlimit="10"/>
<path d="M-53.0185 -100.114C-62.7485 10.2759 74.1015 -26.0241 102.641 97.7059C118.171 164.996 114.641 253.316 147.121 212.416C199.621 146.336 229.011 160.506 255.251 170.256C281.491 180.006 313.881 193.796 278.751 138.256C198.551 11.5159 347.131 -15.5041 276.921 -62.4141C204.921 -110.534 231.851 -205.414 177.071 -188.164C149.681 -179.524 92.8015 -164.904 42.4515 -148.744C-7.89854 -132.584 -51.7385 -114.894 -53.0185 -100.114Z" stroke="#5E847C" stroke-miterlimit="10"/>
<path opacity="0.8" d="M121.431 22.1554C133.041 35.4254 143.431 42.1554 144.671 55.5054C146.321 73.5054 148.541 93.8854 161.591 86.5754C172.521 80.4254 179.881 47.3654 185.501 33.8854C191.121 20.4054 194.261 -6.54456 185.841 -12.1746C181.531 -15.1146 150.221 -31.6746 145.611 -32.2046C136.391 -33.2546 86.6211 -17.6246 121.431 22.1554Z" stroke="#5E847C" stroke-miterlimit="10"/>
<path d="M130.301 8.45564C139.841 14.9356 147.561 17.4556 150.531 25.7356C154.531 36.8656 159.341 49.4256 166.391 42.6156C172.291 36.9056 171.491 14.7556 172.811 5.26564C174.131 -4.22436 171.671 -21.8044 165.411 -23.9744C162.201 -25.0844 139.621 -30.4044 136.611 -29.9744C130.601 -29.1144 101.661 -10.9844 130.301 8.45564Z" stroke="#70D3BF" stroke-miterlimit="10"/>
<path opacity="0.4" d="M144.291 194.376C186.981 140.706 216.151 144.736 237.821 151.636C259.311 158.476 285.371 169.256 257.821 124.046C232.821 82.9358 236.761 54.1658 246.971 32.0458C262.281 -1.01418 292.381 -18.7442 258.741 -42.3942C201.431 -82.6742 223.101 -159.614 177.741 -147.464C163.061 -143.534 138.831 -137.994 112.431 -131.254C96.6013 -127.174 79.9813 -122.804 64.1313 -118.114C59.4613 -116.744 54.8613 -115.344 50.3613 -113.934C13.7013 -102.464 -15.8387 -89.7942 -16.8287 -78.4542C-20.8287 -32.8342 4.71134 -16.0442 34.3013 2.13582C63.0413 19.8258 95.6113 38.8858 108.621 86.8058C109.048 88.3858 109.458 89.9892 109.851 91.6158C123.551 149.076 117.431 228.196 144.291 194.376Z" stroke="#5E847C" stroke-miterlimit="10"/>
<path opacity="0.6" d="M147.501 168.975C180.271 127.705 203.231 128.975 220.391 132.975C237.101 136.915 256.861 144.665 236.871 109.785C218.571 77.8852 222.381 54.8852 230.561 37.0952C242.561 11.0952 265.451 -3.33479 240.561 -22.3048C197.921 -54.7748 214.211 -113.855 178.391 -106.715C166.191 -104.275 146.571 -100.985 125.311 -96.5148C112.311 -93.7848 98.7513 -90.8448 85.8213 -87.5148C81.9879 -86.5481 78.2246 -85.5481 74.5313 -84.5148C44.4013 -76.2148 20.2113 -66.3448 19.3713 -56.8348C16.1913 -20.7248 35.5913 -5.68479 58.2613 10.5052C80.2613 26.3452 105.451 43.2852 116.021 81.6052C116.381 82.8952 116.721 84.1952 117.021 85.5252C128.981 133.155 126.261 195.705 147.501 168.975Z" stroke="#5E847C" stroke-miterlimit="10"/>
<path opacity="0.8" d="M150.701 143.576C173.621 114.716 190.181 113.196 202.981 114.376C214.791 115.476 228.361 120.116 215.981 95.5759C204.381 72.7659 207.981 55.6559 214.161 42.1059C222.841 23.1059 232.681 11.2459 236.371 -10.0141C241.951 -42.2641 214.371 -64.9541 179.061 -66.0141C169.221 -66.3041 154.311 -64.0141 138.201 -61.8341C128.091 -60.4441 117.531 -58.8941 107.511 -56.9341C104.511 -56.3441 101.581 -55.7441 98.7015 -55.1141C75.1015 -49.9741 56.2515 -42.9141 55.5715 -35.2141C53.2315 -8.59411 66.5115 4.64589 82.2315 18.8859C97.5915 32.8159 115.231 47.7259 123.411 76.3859C123.701 77.3859 123.981 78.3859 124.251 79.3859C134.221 117.256 135.091 163.226 150.701 143.576Z" stroke="#5E847C" stroke-miterlimit="10" stroke-dasharray="1 3"/>
<path opacity="0.8" d="M153.912 118.176C166.982 101.726 176.862 97.6357 185.542 95.7557C192.262 94.2857 199.892 95.4457 194.992 81.3457C190.212 67.5757 193.632 56.3957 197.762 47.1257C203.102 35.1657 211.512 13.8857 208.982 2.1057C197.982 -48.1143 195.842 -23.5543 179.722 -25.2643C170.216 -26.4073 160.655 -27.0249 151.082 -27.1143C143.812 -27.1143 136.312 -26.9143 129.192 -26.2943C127.052 -26.1043 124.932 -25.8943 122.872 -25.6543C105.812 -23.6543 92.2917 -19.4343 91.7817 -13.5543C90.2817 3.5357 97.4017 15.0357 106.192 27.2857C114.852 39.3557 125.062 52.1757 130.812 71.1957C131.032 71.9157 131.242 72.6357 131.452 73.3557C139.612 101.336 143.922 130.736 153.912 118.176Z" stroke="#5E847C" stroke-miterlimit="10"/>
<path opacity="0.3" d="M93.1509 205.525C64.9509 222.605 41.2709 251.445 24.9809 281.525C8.69094 311.605 -0.179057 342.835 1.23094 364.755C3.31094 396.915 30.9009 426.755 66.0809 407.145C86.9509 395.515 102.191 368.665 113.131 340.345C124.071 312.025 130.691 282.255 134.331 264.785C141.621 229.855 137.771 229.715 118.631 239.665C97.3409 250.705 107.861 196.615 93.1509 205.525Z" stroke="#5E847C" stroke-miterlimit="10"/>
<path opacity="0.4" d="M66.5116 389.525C83.1116 380.275 95.3216 359.165 104.162 336.775C109.127 323.886 113.298 310.705 116.652 297.305C118.652 289.505 120.212 282.515 121.402 276.975C127.162 250.075 124.402 249.305 110.232 256.085C94.5016 263.585 102.772 222.645 91.6216 228.315C87.3538 230.404 83.2606 232.832 79.3816 235.575C70.5102 242.183 62.3856 249.737 55.1516 258.105C46.5664 267.794 39 278.339 32.5716 289.575C19.2916 313.015 12.2016 337.575 13.3116 354.745C14.9816 381.125 37.6416 405.605 66.5116 389.525Z" stroke="#5E847C" stroke-miterlimit="10"/>
<path opacity="0.6" d="M66.981 371.946C79.311 365.076 88.491 349.706 95.241 333.236C99.0361 323.761 102.239 314.058 104.831 304.186C106.351 298.516 107.571 293.376 108.501 289.186C112.731 270.336 111.131 268.936 101.861 272.526C91.691 276.466 97.671 248.906 90.131 251.086C86.6468 252.039 83.3237 253.505 80.271 255.436C73.321 259.886 66.321 266.046 59.681 272.886C52.2771 280.401 45.7303 288.716 40.161 297.676C29.941 314.536 24.581 332.286 25.381 344.786C26.711 365.386 44.391 384.506 66.981 371.946Z" stroke="#5E847C" stroke-miterlimit="10"/>
<path opacity="0.8" d="M67.3715 354.356C75.3715 349.876 81.5815 340.246 86.2415 329.706C88.8543 323.641 91.0853 317.419 92.9215 311.076C93.9215 307.526 94.8415 304.236 95.5315 301.426C98.1815 290.596 97.7315 288.986 93.4115 288.986C88.7515 288.986 91.8815 273.376 88.5615 273.876C87.6915 272.796 84.8115 273.346 81.0815 275.306C75.8615 278.056 69.9615 282.536 64.2215 287.656C58.0332 293.011 52.5043 299.084 47.7515 305.746C40.7515 316.086 36.9515 327.006 37.4615 334.806C38.4115 349.636 51.1415 363.406 67.3715 354.356Z" stroke="#5E847C" stroke-miterlimit="10"/>
<path opacity="0.8" d="M49.5313 324.886C50.1113 333.946 57.8913 342.346 67.8013 336.826C73.6813 333.556 77.9813 325.986 81.0613 318.006C83.6188 311.078 85.625 303.959 87.0613 296.716C87.5713 294.256 85.4413 294.016 81.9613 295.226C77.2891 297.097 72.863 299.531 68.7813 302.476C63.9021 305.782 59.3957 309.608 55.3413 313.886C51.7013 317.826 49.3313 321.746 49.5313 324.886Z" stroke="#5E847C" stroke-miterlimit="10"/>
<path opacity="0.8" d="M672.561 677.606C707.641 666.916 746.751 645.606 777.651 620.886C808.551 596.166 831.231 568.026 833.451 543.696C836.711 507.996 804.581 463.436 762.531 478.926C737.581 488.106 716.211 515.006 699.311 544.246C682.411 573.486 669.981 605.076 662.981 623.646C648.981 660.786 627.901 691.206 672.561 677.606Z" stroke="#5E847C" stroke-miterlimit="10" stroke-dasharray="1 3"/>
<path opacity="0.3" d="M228.981 219.795C210.401 257.005 151.761 315.885 154.751 288.445C157.741 261.005 169.441 257.825 177.851 225.255C186.261 192.685 243.981 189.885 228.981 219.795Z" stroke="#5E847C" stroke-miterlimit="10"/>
<path opacity="0.1" d="M-27.6086 372.355C-18.8986 280.575 19.8014 249.225 54.7514 177.245C93.6014 97.2452 40.8514 8.56522 -103.809 -19.5748C-248.469 -47.7148 -90.5386 87.3352 -149.729 207.745C-208.919 328.155 -37.2886 474.335 -27.6086 372.355Z" stroke="#5E847C" stroke-miterlimit="10"/>
<path opacity="0.3" d="M-32.6692 356.456C-23.7492 273.276 11.4908 243.886 42.9808 178.236C77.9008 105.426 30.3108 24.646 -101.409 -0.983996C-233.129 -26.614 -89.3292 96.366 -143.229 206.016C-197.129 315.666 -42.8892 449.316 -32.6692 356.456Z" stroke="#5E847C" stroke-miterlimit="10"/>
<path opacity="0.4" d="M-37.7285 340.566C-28.3785 265.996 3.19147 238.566 31.1815 179.216C62.1815 113.616 19.7715 40.7155 -99.0185 17.6055C-217.809 -5.50447 -88.1285 105.396 -136.729 204.266C-185.329 303.136 -48.2285 424.316 -37.7285 340.566Z" stroke="#5E847C" stroke-miterlimit="10"/>
<path opacity="0.6" d="M-42.7885 324.666C-33.1285 258.716 -5.11854 233.256 19.3915 180.206C46.5115 121.816 9.22147 56.7958 -96.6085 36.2058C-202.439 15.6158 -86.9085 114.436 -130.219 202.536C-173.529 290.636 -53.7185 399.316 -42.7885 324.666Z" stroke="#5E847C" stroke-miterlimit="10"/>
<path opacity="0.8" d="M-47.8487 308.766C-37.8487 251.436 -13.4287 227.926 7.61131 181.196C30.8113 130.006 -1.3187 72.8655 -94.2287 54.7955C-187.139 36.7255 -85.7087 123.456 -123.719 200.796C-161.729 278.136 -59.2187 374.316 -47.8487 308.766Z" stroke="#5E847C" stroke-miterlimit="10"/>
<path opacity="0.8" d="M-52.9084 292.886C-42.6884 244.166 -21.7384 222.616 -4.17839 182.196C15.1116 138.196 -11.8584 88.9458 -91.8284 73.3958C-171.798 57.8458 -84.4984 132.496 -117.218 199.056C-149.938 265.616 -64.7384 349.316 -52.9084 292.886Z" stroke="#5E847C" stroke-miterlimit="10"/>
<path opacity="0.1" d="M1199.2 -136.114C1110.49 -111.114 1034.9 -206.864 987.521 -142.394C967.261 -114.824 897.351 -97.0545 844.521 26.8156C786.761 162.356 985.801 72.3155 1119.47 83.9755C1253.14 95.6355 1297.79 -163.984 1199.2 -136.114Z" stroke="#5E847C" stroke-miterlimit="10"/>
<path opacity="0.8" d="M1186.21 -125.684C1105.43 -103.934 1037.21 -188.844 992.701 -131.784C973.251 -106.834 909.251 -89.8839 862.881 23.3661C812.081 147.016 990.491 62.7261 1112.21 73.3661C1233.93 84.0061 1276.48 -149.714 1186.21 -125.684Z" stroke="#5E847C" stroke-miterlimit="10"/>
<path opacity="0.8" d="M1173.22 -115.215C1100.32 -96.9846 1039.36 -170.805 997.881 -121.155C979.211 -98.8046 921.151 -82.6846 881.211 19.9454C837.401 131.675 995.191 53.1354 1104.98 62.7154C1214.77 72.2954 1255.11 -135.695 1173.22 -115.215Z" stroke="#5E847C" stroke-miterlimit="10"/>
<path opacity="0.8" d="M1160.23 -104.754C1095.23 -89.9244 1041.42 -152.754 1003.06 -110.524C985.131 -90.7644 933.251 -75.4144 899.541 16.5256C862.981 116.406 999.881 43.5556 1097.69 52.0856C1195.5 60.6156 1233.78 -121.544 1160.23 -104.754Z" stroke="#5E847C" stroke-miterlimit="10"/>
<path opacity="0.8" d="M1147.24 -94.2944C1090.18 -82.8444 1043.33 -134.834 1008.24 -99.8844C991.001 -82.7144 945.241 -68.2044 917.871 13.1156C888.301 101.116 1004.57 33.9856 1090.42 41.4756C1176.27 48.9656 1212.46 -107.384 1147.24 -94.2944Z" stroke="#5E847C" stroke-miterlimit="10"/>
<path opacity="0.8" d="M1134.24 -83.8242C1085.12 -75.7442 1045.05 -116.974 1013.42 -89.2542C996.791 -74.6742 957.151 -61.0042 936.211 9.67578C913.671 85.7458 1009.27 24.3858 1083.16 30.8858C1157.05 37.3858 1191.15 -93.1942 1134.24 -83.8242Z" stroke="#5E847C" stroke-miterlimit="10"/>
<path opacity="0.8" d="M1121.25 -73.364C1080.09 -68.614 1046.51 -99.284 1018.61 -78.624C1002.47 -66.624 969.081 -53.814 954.541 6.25603C938.981 70.396 1013.98 14.796 1075.9 20.206C1137.82 25.616 1169.86 -78.974 1121.25 -73.364Z" stroke="#5E847C" stroke-miterlimit="10"/>
<path opacity="0.8" d="M1108.26 -62.9044C1075.07 -61.4244 1047.67 -81.9044 1023.79 -67.9944C1007.98 -58.8044 980.981 -46.6444 972.871 2.8856C964.321 55.0656 1018.65 5.2556 1068.64 9.6256C1118.63 13.9956 1148.59 -64.7044 1108.26 -62.9044Z" stroke="#5E847C" stroke-miterlimit="10"/>
<path opacity="0.8" d="M1095.27 -52.4348C1070.05 -54.1148 1048.58 -64.9848 1028.98 -57.3548C1013.38 -51.2948 992.811 -39.4948 991.211 -0.594791C989.561 39.6352 1023.36 -4.37479 1061.39 -1.05479C1099.42 2.26521 1127.33 -50.2948 1095.27 -52.4348Z" stroke="#5E847C" stroke-miterlimit="10"/>
<path opacity="0.8" d="M1082.27 -41.9743C1064.98 -46.6243 1049.62 -48.8143 1034.15 -46.7243C1018.68 -44.6343 1004.45 -32.3043 1009.53 -4.01432C1014.61 24.2757 1028.04 -14.0143 1054.11 -11.6843C1080.18 -9.35432 1105.98 -35.6043 1082.27 -41.9743Z" stroke="#5E847C" stroke-miterlimit="10"/>
<path opacity="0.1" d="M176.331 812.975C72.7412 669.335 195.921 621.535 183.501 590.235C173.921 566.085 94.9812 587.765 93.9812 520.955C92.9812 459.295 96.7112 418.385 27.8612 446.145C-40.9888 473.905 -49.7688 537.065 -114.329 448.615C-151.039 398.315 -367.879 652.175 -202.669 718.615C-37.4588 785.055 227.271 883.625 176.331 812.975Z" stroke="#5E847C" stroke-miterlimit="10"/>
<path opacity="0.3" d="M156.531 795.085C68.2913 663.235 174.851 622.255 164.261 591.785C155.981 567.955 87.6713 584.515 84.8413 526.145C82.2013 471.785 82.0813 436.825 20.7313 461.565C-42.3687 487.005 -49.2687 540.495 -108.549 463.695C-143.119 418.935 -340.419 658.055 -189.019 718.975C-37.6187 779.895 205.831 868.765 156.531 795.085Z" stroke="#5E847C" stroke-miterlimit="10"/>
<path opacity="0.4" d="M136.731 777.196C61.3509 658.886 153.791 622.956 145.031 593.346C138.031 569.816 80.2808 581.236 75.7108 531.346C71.4008 484.246 67.4709 455.276 13.6109 476.986C-43.7291 500.106 -48.8192 543.986 -102.759 478.786C-135.229 439.556 -313.039 664.156 -175.359 719.306C-35.6091 775.276 186.081 854.636 136.731 777.196Z" stroke="#5E847C" stroke-miterlimit="10"/>
<path opacity="0.6" d="M116.982 759.306C56.8315 653.306 132.812 623.646 125.842 594.906C120.202 571.656 72.8915 577.906 66.6415 536.546C60.6415 496.676 52.9115 473.716 6.54153 492.416C-45.0385 513.216 -48.4585 547.476 -96.9185 493.866C-127.348 460.186 -285.428 669.816 -161.638 719.626C-37.8485 769.436 162.572 839.776 116.982 759.306Z" stroke="#5E847C" stroke-miterlimit="10"/>
<path opacity="0.8" d="M1454.86 145.196C1338.4 278.606 1263.96 169.446 1236.28 188.626C1214.93 203.426 1253.9 275.366 1189.07 291.526C1129.23 306.436 1088.54 312.086 1131.17 372.856C1173.8 433.626 1237.3 427.856 1165.76 510.796C1125.07 557.946 1421.43 711.686 1448.76 535.726C1476.09 359.766 1512.14 79.5757 1454.86 145.196Z" stroke="#5E847C" stroke-miterlimit="10"/>
<path opacity="0.8" d="M1445.98 522.336C1471.05 361.076 1502.29 103.636 1441.89 168.526C1335.74 282.526 1272.17 191.196 1246.38 207.276C1226.59 219.696 1258.69 281.006 1201.65 295.206C1143.14 309.696 1108.71 320.606 1147.77 376.296C1186.83 431.986 1240.49 426.596 1179.11 501.746C1143.36 545.546 1420.98 683.596 1445.98 522.336Z" stroke="#5E847C" stroke-miterlimit="10"/>
<path opacity="0.8" d="M1443.24 508.946C1465.98 362.396 1492.72 127.676 1428.98 191.886C1334.21 287.306 1280.4 212.886 1256.53 225.946C1238.28 235.946 1263.53 286.676 1214.3 298.946C1157.12 313.006 1128.93 329.166 1164.43 379.786C1199.93 430.406 1243.8 425.446 1192.52 492.786C1161.66 533.186 1420.45 655.506 1443.24 508.946Z" stroke="#5E847C" stroke-miterlimit="10"/>
<path opacity="0.8" d="M1440.46 495.566C1460.96 363.716 1483.38 151.776 1416.03 215.196C1333.61 292.816 1288.64 234.586 1266.66 244.566C1249.97 252.156 1268.36 292.306 1226.92 302.566C1171.06 316.196 1149.13 337.626 1181.07 383.166C1213.01 428.706 1247.16 424.306 1205.91 483.616C1179.98 520.886 1419.98 627.416 1440.46 495.566Z" stroke="#5E847C" stroke-miterlimit="10"/>
<path opacity="0.8" d="M1437.68 482.175C1455.89 365.035 1474.4 176.085 1403.09 238.535C1333.89 299.135 1296.89 256.315 1276.79 263.215C1261.67 268.405 1273.2 298.025 1239.53 306.215C1185.04 319.545 1169.32 346.115 1197.7 386.585C1226.08 427.055 1250.7 423.375 1219.29 474.535C1198.37 508.695 1419.47 599.325 1437.68 482.175Z" stroke="#5E847C" stroke-miterlimit="10"/>
<path opacity="0.8" d="M1434.91 468.795C1450.83 366.355 1465.98 200.885 1390.15 261.885C1334.94 306.285 1305.15 278.085 1286.92 281.885C1273.38 284.705 1278.01 303.685 1252.15 309.965C1198.98 322.875 1189.52 354.695 1214.33 390.085C1239.14 425.475 1254.42 422.745 1232.67 465.535C1216.87 496.615 1418.98 571.225 1434.91 468.795Z" stroke="#5E847C" stroke-miterlimit="10"/>
<path opacity="0.8" d="M1432.13 455.405C1445.77 367.665 1458.54 227.085 1377.21 285.205C1336.61 314.205 1313.42 299.855 1297.05 300.505C1285.05 300.985 1282.83 309.285 1264.77 313.625C1212.92 326.095 1209.71 363.195 1230.97 393.505C1252.23 423.815 1258.61 422.275 1246.06 456.455C1235.68 484.705 1418.49 543.135 1432.13 455.405Z" stroke="#5E847C" stroke-miterlimit="10"/>
<path opacity="0.8" d="M1364.26 308.536C1320.14 333.536 1301.93 311.536 1277.38 317.316C1226.84 329.246 1229.91 371.716 1247.6 396.946C1265.29 422.176 1263.6 421.896 1259.44 447.406C1255.28 472.916 1418 515.046 1429.35 442.016C1440.7 368.986 1453.73 257.886 1364.26 308.536Z" stroke="#5E847C" stroke-miterlimit="10"/>
<path opacity="0.1" d="M123.041 557.225C135.401 562.775 156.281 565.725 144.331 552.915C136.331 544.305 125.851 534.345 120.811 524.175C103.341 488.925 105.471 454.175 101.691 490.815C98.9807 517.265 106.191 549.655 123.041 557.225Z" stroke="#5E847C" stroke-miterlimit="10"/>
<path d="M767.421 -95.6744C724.791 -33.1144 668.781 36.1856 667.371 96.0556C665.961 155.926 674.461 213.136 708.671 252.456C782.831 337.696 967.241 328.016 908.931 198.556C850.621 69.0956 789.161 111.286 848.531 -9.5544C907.901 -130.394 795.621 -137.064 767.421 -95.6744Z" stroke="#5E847C" stroke-miterlimit="10"/>
<path opacity="0.3" d="M766.051 -75.1141C726.751 -17.7841 675.761 43.2359 674.481 97.2359C673.201 151.236 680.881 202.886 711.741 238.326C778.651 315.216 944.981 306.486 892.391 189.696C839.801 72.9059 781.501 111.166 835.051 2.15586C888.601 -106.854 791.591 -112.344 766.051 -75.1141Z" stroke="#5E847C" stroke-miterlimit="10"/>
<path opacity="0.4" d="M764.681 -54.4647C728.681 -2.46474 682.741 50.2753 681.601 98.4153C680.461 146.555 687.301 192.575 714.821 224.195C774.461 292.735 922.761 284.955 875.821 180.845C828.881 76.7353 773.821 111.045 821.531 13.8453C869.241 -83.3547 787.561 -87.6147 764.681 -54.4647Z" stroke="#5E847C" stroke-miterlimit="10"/>
<path opacity="0.6" d="M763.312 -33.8642C730.662 12.8858 689.722 57.3258 688.722 99.6058C687.722 141.886 693.722 182.296 717.892 210.066C770.272 270.266 900.512 263.426 859.332 171.996C818.152 80.5658 766.162 110.936 808.092 25.5858C850.022 -59.7642 783.522 -62.8942 763.312 -33.8642Z" stroke="#5E847C" stroke-miterlimit="10"/>
<path opacity="0.8" d="M761.981 -13.2649C732.621 28.2252 696.701 64.3652 695.841 100.785C694.981 137.205 700.151 172.015 720.961 195.935C766.081 247.785 878.271 241.935 842.791 163.135C807.311 84.3351 758.491 110.815 794.611 37.3051C830.731 -36.2049 779.491 -38.1149 761.981 -13.2649Z" stroke="#5E847C" stroke-miterlimit="10" stroke-dasharray="1 3"/>
<path opacity="0.8" d="M760.581 7.34558C734.581 43.5556 703.681 71.4056 702.951 101.966C702.221 132.526 706.571 161.726 724.041 181.796C761.891 225.306 856.041 220.366 826.261 154.286C796.481 88.2056 750.821 110.706 781.131 49.0256C811.441 -12.6544 775.461 -13.4444 760.581 7.34558Z" stroke="#5E847C" stroke-miterlimit="10"/>
<path d="M759.211 27.946C736.531 58.946 710.651 78.456 710.071 103.146C709.491 127.836 713.001 151.446 727.071 167.666C757.711 202.886 833.781 198.886 809.721 145.436C785.661 91.986 743.161 110.586 767.651 60.736C792.141 10.886 771.431 11.276 759.211 27.946Z" stroke="#5E847C" stroke-miterlimit="10"/>
<path opacity="0.1" d="M944.701 681.786C831.981 671.456 903.371 559.186 876.271 497.646C841.041 417.646 789.271 433.256 797.601 379.646C805.931 326.036 749.531 320.456 858.981 323.286C968.431 326.116 916.261 194.066 924.531 151.096C947.661 30.8659 1353.62 -9.78412 1271.53 339.006C1189.44 687.796 1099.14 793.056 1035.68 791.826C972.221 790.596 1104.77 696.446 944.701 681.786Z" stroke="#5E847C" stroke-miterlimit="10"/>
<path opacity="0.3" d="M954.111 664.625C855.611 652.835 913.111 550.055 886.721 491.925C853.151 417.395 804.721 431.755 812.511 381.595C820.301 331.435 767.511 326.195 869.971 328.845C972.431 331.495 925.141 208.105 933.051 167.935C954.161 59.0854 1332.84 17.1654 1255.98 343.555C1179.12 669.945 1097.83 762.175 1039.84 764.235C980.921 766.335 1090.98 680.995 954.111 664.625Z" stroke="#5E847C" stroke-miterlimit="10"/>
<path opacity="0.4" d="M963.531 647.456C879.361 634.116 922.631 540.976 897.171 486.206C865.101 417.206 820.171 430.256 827.411 383.536C834.651 336.816 785.511 331.936 880.931 334.406C976.351 336.876 934.101 222.166 941.541 184.766C960.911 87.356 1312.04 44.116 1240.46 348.106C1168.88 652.096 1096.46 731.366 1043.98 736.646C989.521 742.136 1077.35 665.506 963.531 647.456Z" stroke="#5E847C" stroke-miterlimit="10"/>
<path opacity="0.8" d="M972.981 630.295C903.271 615.235 932.281 531.885 907.621 480.485C877.151 416.995 835.621 428.755 842.321 385.485C849.021 342.215 803.511 337.695 891.901 339.975C980.291 342.255 942.981 236.215 950.031 201.605C967.491 115.605 1291.23 71.0752 1224.93 352.605C1158.63 634.135 1094.98 700.685 1048.15 709.065C998.031 718.025 1063.98 649.975 972.981 630.295Z" stroke="#5E847C" stroke-miterlimit="10" stroke-dasharray="1 3"/>
<path opacity="0.8" d="M982.371 613.136C927.491 596.136 941.941 522.746 918.071 474.766C889.221 416.766 851.071 427.246 857.221 387.416C863.371 347.586 821.501 343.416 902.861 345.526C984.221 347.636 951.861 250.266 958.521 218.446C974.041 143.846 1270.42 98.0258 1209.4 357.206C1148.38 616.386 1093.5 670.206 1052.3 681.476C1006.45 694.066 1051.26 634.456 982.371 613.136Z" stroke="#5E847C" stroke-miterlimit="10"/>
<path opacity="0.8" d="M991.791 595.976C949.591 584.356 951.611 513.626 928.521 469.036C901.321 416.516 866.521 425.746 872.131 389.356C877.741 352.966 839.491 349.166 913.821 351.086C988.151 353.006 960.821 264.306 967.001 235.286C980.561 172.076 1249.62 124.976 1193.87 361.756C1138.12 598.536 1091.98 639.886 1056.45 653.886C1014.82 670.316 1034.75 627.516 991.791 595.976Z" stroke="#5E847C" stroke-miterlimit="10"/>
<path opacity="0.7" d="M1001.2 578.815C973.111 566.935 961.311 504.495 938.971 463.315C913.441 416.265 881.971 424.245 887.031 391.315C892.091 358.385 857.491 354.885 924.781 356.645C992.071 358.405 969.651 278.355 975.491 252.125C987.031 200.295 1228.81 151.925 1178.33 366.305C1127.85 580.685 1090.48 609.885 1060.61 626.305C1023.24 646.885 1020.75 613.725 1001.2 578.815Z" stroke="#5E847C" stroke-miterlimit="10"/>
<path opacity="0.8" d="M1010.62 561.646C996.621 549.516 971.031 495.346 949.421 457.646C925.601 416.036 897.361 422.796 901.941 393.286C906.521 363.776 875.481 360.706 935.741 362.286C996.001 363.866 978.501 292.476 983.981 269.036C993.441 228.516 1207.98 178.886 1162.8 370.886C1117.62 562.886 1089.17 580.156 1064.8 598.736C1031.87 623.756 1006.75 599.946 1010.62 561.646Z" stroke="#5E847C" stroke-miterlimit="10"/>
<path opacity="0.8" d="M1020.04 544.485C1020.17 532.105 980.801 486.175 959.871 451.875C937.791 415.695 912.801 421.235 916.871 395.175C920.941 369.115 893.491 366.395 946.721 367.765C999.951 369.135 987.321 306.425 992.491 285.765C999.791 256.675 1187.22 205.765 1147.29 375.385C1107.36 545.005 1088.16 550.585 1068.91 571.135C1040.98 600.975 992.741 586.155 1020.04 544.485Z" stroke="#5E847C" stroke-miterlimit="10"/>
<path opacity="0.8" d="M1029.46 527.325C1043.69 514.685 990.611 476.955 970.321 446.155C950.031 415.355 928.241 419.735 931.751 397.155C935.261 374.575 911.471 372.155 957.671 373.375C1003.87 374.595 995.981 320.415 1000.98 302.635C1005.98 284.855 1166.41 232.785 1131.76 379.965C1097.11 527.145 1087.58 521.025 1073.09 543.545C1050.7 578.315 978.741 572.365 1029.46 527.325Z" stroke="#5E847C" stroke-miterlimit="10"/>
<path opacity="0.3" d="M707.271 691.796C800.211 632.046 880.371 591.796 841.651 501.796C802.931 411.796 734.371 461.266 688.591 528.396C640.111 599.476 582.891 570.916 560.271 562.996C524.951 550.636 477.151 592.476 529.841 682.606C582.531 772.736 671.721 714.646 707.271 691.796Z" stroke="#5E847C" stroke-miterlimit="10"/>
<path opacity="0.1" d="M908.921 141.316C930.041 119.006 945.601 106.676 923.921 110.466C907.921 113.266 904.151 112.536 887.581 111.256C863.341 109.376 887.731 163.706 908.921 141.316Z" stroke="#5E847C" stroke-miterlimit="10"/>
<path d="M740.981 134.205C741.171 134.755 753.451 162.375 766.421 157.035C779.391 151.695 777.651 137.745 768.421 132.765C759.191 127.785 733.521 112.705 740.981 134.205Z" stroke="#70D3BF" stroke-linecap="round" stroke-linejoin="round" stroke-dasharray="1 3"/>
<path d="M508.651 178.385C506.191 179.385 505.741 188.485 510.651 194.715C514.851 200.055 522.471 202.635 524.151 200.715C527.191 197.255 512.851 176.725 508.651 178.385Z" stroke="#70D3BF" stroke-linecap="round" stroke-linejoin="round" stroke-dasharray="1 3"/>
<path d="M193.231 426.636C185.711 431.716 188.071 446.006 191.231 446.886C195.171 447.976 205.911 429.886 202.231 425.636C200.541 423.696 195.901 424.826 193.231 426.636Z" stroke="#70D3BF" stroke-miterlimit="10"/>
<path d="M495.231 482.136C493.035 483.7 491.407 485.936 490.596 488.507C489.784 491.078 489.831 493.844 490.731 496.386C493.111 503.116 501.201 506.436 506.731 504.136C513.951 501.136 513.921 479.046 507.981 473.386C504.411 469.986 500.151 478.756 495.231 482.136Z" stroke="#70D3BF" stroke-miterlimit="10"/>
<path d="M659.231 366.636C660.831 374.406 660.041 376.826 662.231 378.386C664.761 380.186 669.481 379.556 671.231 377.136C674.231 372.946 668.011 363.896 663.231 359.386C662.441 358.646 658.571 354.986 657.231 355.886C656.131 356.616 657.801 359.696 659.231 366.636Z" stroke="#70D3BF" stroke-linecap="round" stroke-linejoin="round" stroke-dasharray="1 3"/>
<path d="M506.151 16.7158C504.941 18.5458 506.681 20.6458 514.311 35.8858C518.591 44.4158 519.111 45.8858 520.311 45.8858C524.371 45.8058 532.311 28.5558 524.481 19.7158C519.261 13.8158 508.441 13.2658 506.151 16.7158Z" stroke="#70D3BF" stroke-linecap="round" stroke-linejoin="round" stroke-dasharray="1 3"/>
<path d="M388.731 433.266C390.331 440.886 385.411 449.976 389.231 450.766C394.901 451.926 406.561 432.886 403.361 428.136C401.161 424.886 387.101 425.506 388.731 433.266Z" stroke="#70D3BF" stroke-linecap="round" stroke-linejoin="round" stroke-dasharray="1 3"/>
<path d="M874.731 98.5859V114.246" stroke="#F4F4DE" stroke-width="3.3" stroke-miterlimit="10"/>
<path d="M882.561 106.416H866.901" stroke="#F4F4DE" stroke-width="3.3" stroke-miterlimit="10"/>
<path d="M874.731 0.0556641V15.7157" stroke="#F4F4DE" stroke-width="3.3" stroke-miterlimit="10"/>
<path d="M882.561 7.88574H866.901" stroke="#F4F4DE" stroke-width="3.3" stroke-miterlimit="10"/>
<path d="M774.161 0.0556641V15.7157" stroke="#F4F4DE" stroke-width="3.3" stroke-miterlimit="10"/>
<path d="M781.991 7.88574H766.331" stroke="#F4F4DE" stroke-width="3.3" stroke-miterlimit="10"/>
<path d="M774.161 98.5859V114.246" stroke="#F4F4DE" stroke-width="3.3" stroke-miterlimit="10"/>
<path d="M781.991 106.416H766.331" stroke="#F4F4DE" stroke-width="3.3" stroke-miterlimit="10"/>
<path d="M874.731 199.155V214.815" stroke="#F4F4DE" stroke-width="3.3" stroke-miterlimit="10"/>
<path d="M882.561 206.985H866.901" stroke="#F4F4DE" stroke-width="3.3" stroke-miterlimit="10"/>
<path d="M774.161 199.155V214.815" stroke="#F4F4DE" stroke-width="3.3" stroke-miterlimit="10"/>
<path d="M781.991 206.985H766.331" stroke="#F4F4DE" stroke-width="3.3" stroke-miterlimit="10"/>
<path d="M874.731 299.735V315.385" stroke="#F4F4DE" stroke-width="3.3" stroke-miterlimit="10"/>
<path d="M882.561 307.565H866.901" stroke="#F4F4DE" stroke-width="3.3" stroke-miterlimit="10"/>
<path d="M774.161 299.735V315.385" stroke="#F4F4DE" stroke-width="3.3" stroke-miterlimit="10"/>
<path d="M781.991 307.565H766.331" stroke="#F4F4DE" stroke-width="3.3" stroke-miterlimit="10"/>
<path d="M874.731 400.306V415.966" stroke="#F4F4DE" stroke-width="3.3" stroke-miterlimit="10"/>
<path d="M882.561 408.136H866.901" stroke="#F4F4DE" stroke-width="3.3" stroke-miterlimit="10"/>
<path d="M774.161 400.306V415.966" stroke="#F4F4DE" stroke-width="3.3" stroke-miterlimit="10"/>
<path d="M781.991 408.136H766.331" stroke="#F4F4DE" stroke-width="3.3" stroke-miterlimit="10"/>
<path d="M673.691 98.5859V114.246" stroke="#F4F4DE" stroke-width="3.3" stroke-miterlimit="10"/>
<path d="M681.521 106.416H665.861" stroke="#F4F4DE" stroke-width="3.3" stroke-miterlimit="10"/>
<path d="M673.691 0.0556641V15.7157" stroke="#F4F4DE" stroke-width="3.3" stroke-miterlimit="10"/>
<path d="M681.521 7.88574H665.861" stroke="#F4F4DE" stroke-width="3.3" stroke-miterlimit="10"/>
<path d="M573.121 0.0556641V15.7157" stroke="#F4F4DE" stroke-width="3.3" stroke-miterlimit="10"/>
<path d="M580.951 7.88574H565.291" stroke="#F4F4DE" stroke-width="3.3" stroke-miterlimit="10"/>
<path d="M573.121 98.5859V114.246" stroke="#F4F4DE" stroke-width="3.3" stroke-miterlimit="10"/>
<path d="M580.951 106.416H565.291" stroke="#F4F4DE" stroke-width="3.3" stroke-miterlimit="10"/>
<path d="M673.691 199.155V214.815" stroke="#F4F4DE" stroke-width="3.3" stroke-miterlimit="10"/>
<path d="M681.521 206.985H665.861" stroke="#F4F4DE" stroke-width="3.3" stroke-miterlimit="10"/>
<path d="M573.121 199.155V214.815" stroke="#F4F4DE" stroke-width="3.3" stroke-miterlimit="10"/>
<path d="M580.951 206.985H565.291" stroke="#F4F4DE" stroke-width="3.3" stroke-miterlimit="10"/>
<path d="M673.691 299.735V315.385" stroke="#F4F4DE" stroke-width="3.3" stroke-miterlimit="10"/>
<path d="M681.521 307.565H665.861" stroke="#F4F4DE" stroke-width="3.3" stroke-miterlimit="10"/>
<path d="M573.121 299.735V315.385" stroke="#F4F4DE" stroke-width="3.3" stroke-miterlimit="10"/>
<path d="M580.951 307.565H565.291" stroke="#F4F4DE" stroke-width="3.3" stroke-miterlimit="10"/>
<path d="M673.691 400.306V415.966" stroke="#F4F4DE" stroke-width="3.3" stroke-miterlimit="10"/>
<path d="M681.521 408.136H665.861" stroke="#F4F4DE" stroke-width="3.3" stroke-miterlimit="10"/>
<path d="M573.121 400.306V415.966" stroke="#F4F4DE" stroke-width="3.3" stroke-miterlimit="10"/>
<path d="M580.951 408.136H565.291" stroke="#F4F4DE" stroke-width="3.3" stroke-miterlimit="10"/>
<path d="M573.121 98.5859V114.246" stroke="#F4F4DE" stroke-width="3.3" stroke-miterlimit="10"/>
<path d="M580.951 106.416H565.291" stroke="#F4F4DE" stroke-width="3.3" stroke-miterlimit="10"/>
<path d="M573.121 0.0556641V15.7157" stroke="#F4F4DE" stroke-width="3.3" stroke-miterlimit="10"/>
<path d="M580.951 7.88574H565.291" stroke="#F4F4DE" stroke-width="3.3" stroke-miterlimit="10"/>
<path d="M472.551 0.0556641V15.7157" stroke="#F4F4DE" stroke-width="3.3" stroke-miterlimit="10"/>
<path d="M480.381 7.88574H464.721" stroke="#F4F4DE" stroke-width="3.3" stroke-miterlimit="10"/>
<path d="M472.551 98.5859V114.246" stroke="#F4F4DE" stroke-width="3.3" stroke-miterlimit="10"/>
<path d="M480.381 106.416H464.721" stroke="#F4F4DE" stroke-width="3.3" stroke-miterlimit="10"/>
<path d="M573.121 199.155V214.815" stroke="#F4F4DE" stroke-width="3.3" stroke-miterlimit="10"/>
<path d="M580.951 206.985H565.291" stroke="#F4F4DE" stroke-width="3.3" stroke-miterlimit="10"/>
<path d="M472.551 199.156V214.816" stroke="#F4F4DE" stroke-width="3.3" stroke-miterlimit="10"/>
<path d="M480.381 206.985H464.721" stroke="#F4F4DE" stroke-width="3.3" stroke-miterlimit="10"/>
<path d="M573.121 299.735V315.385" stroke="#F4F4DE" stroke-width="3.3" stroke-miterlimit="10"/>
<path d="M580.951 307.565H565.291" stroke="#F4F4DE" stroke-width="3.3" stroke-miterlimit="10"/>
<path d="M472.551 299.735V315.385" stroke="#F4F4DE" stroke-width="3.3" stroke-miterlimit="10"/>
<path d="M480.381 307.565H464.721" stroke="#F4F4DE" stroke-width="3.3" stroke-miterlimit="10"/>
<path d="M573.121 400.306V415.966" stroke="#F4F4DE" stroke-width="3.3" stroke-miterlimit="10"/>
<path d="M580.951 408.136H565.291" stroke="#F4F4DE" stroke-width="3.3" stroke-miterlimit="10"/>
<path d="M472.551 400.306V415.966" stroke="#F4F4DE" stroke-width="3.3" stroke-miterlimit="10"/>
<path d="M480.381 408.136H464.721" stroke="#F4F4DE" stroke-width="3.3" stroke-miterlimit="10"/>
<path d="M472.551 98.5859V114.246" stroke="#F4F4DE" stroke-width="3.3" stroke-miterlimit="10"/>
<path d="M480.381 106.416H464.721" stroke="#F4F4DE" stroke-width="3.3" stroke-miterlimit="10"/>
<path d="M472.551 0.0556641V15.7157" stroke="#F4F4DE" stroke-width="3.3" stroke-miterlimit="10"/>
<path d="M480.381 7.88574H464.721" stroke="#F4F4DE" stroke-width="3.3" stroke-miterlimit="10"/>
<path d="M371.981 0.0556641V15.7157" stroke="#F4F4DE" stroke-width="3.3" stroke-miterlimit="10"/>
<path d="M379.811 7.88574H364.151" stroke="#F4F4DE" stroke-width="3.3" stroke-miterlimit="10"/>
<path d="M371.981 98.5859V114.246" stroke="#F4F4DE" stroke-width="3.3" stroke-miterlimit="10"/>
<path d="M379.811 106.416H364.151" stroke="#F4F4DE" stroke-width="3.3" stroke-miterlimit="10"/>
<path d="M472.551 199.156V214.816" stroke="#F4F4DE" stroke-width="3.3" stroke-miterlimit="10"/>
<path d="M480.381 206.985H464.721" stroke="#F4F4DE" stroke-width="3.3" stroke-miterlimit="10"/>
<path d="M371.981 199.156V214.816" stroke="#F4F4DE" stroke-width="3.3" stroke-miterlimit="10"/>
<path d="M379.811 206.985H364.151" stroke="#F4F4DE" stroke-width="3.3" stroke-miterlimit="10"/>
<path d="M472.551 299.735V315.385" stroke="#F4F4DE" stroke-width="3.3" stroke-miterlimit="10"/>
<path d="M480.381 307.565H464.721" stroke="#F4F4DE" stroke-width="3.3" stroke-miterlimit="10"/>
<path d="M371.981 299.735V315.385" stroke="#F4F4DE" stroke-width="3.3" stroke-miterlimit="10"/>
<path d="M379.811 307.565H364.151" stroke="#F4F4DE" stroke-width="3.3" stroke-miterlimit="10"/>
<path d="M472.551 400.306V415.966" stroke="#F4F4DE" stroke-width="3.3" stroke-miterlimit="10"/>
<path d="M480.381 408.136H464.721" stroke="#F4F4DE" stroke-width="3.3" stroke-miterlimit="10"/>
<path d="M371.981 400.306V415.966" stroke="#F4F4DE" stroke-width="3.3" stroke-miterlimit="10"/>
<path d="M379.811 408.136H364.151" stroke="#F4F4DE" stroke-width="3.3" stroke-miterlimit="10"/>
<path d="M371.981 98.5859V114.246" stroke="#F4F4DE" stroke-width="3.3" stroke-miterlimit="10"/>
<path d="M379.811 106.416H364.151" stroke="#F4F4DE" stroke-width="3.3" stroke-miterlimit="10"/>
<path d="M371.981 0.0556641V15.7157" stroke="#F4F4DE" stroke-width="3.3" stroke-miterlimit="10"/>
<path d="M379.811 7.88574H364.151" stroke="#F4F4DE" stroke-width="3.3" stroke-miterlimit="10"/>
<path d="M271.411 0.0556641V15.7157" stroke="#F4F4DE" stroke-width="3.3" stroke-miterlimit="10"/>
<path d="M170.731 0.0556641V15.7157" stroke="#F4F4DE" stroke-width="3.3" stroke-miterlimit="10"/>
<path d="M279.241 7.88574H263.581" stroke="#F4F4DE" stroke-width="3.3" stroke-miterlimit="10"/>
<path d="M178.561 7.88574H162.911" stroke="#F4F4DE" stroke-width="3.3" stroke-miterlimit="10"/>
<path d="M170.731 98.5859V114.246" stroke="#F4F4DE" stroke-width="3.3" stroke-miterlimit="10"/>
<path d="M178.561 106.416H162.911" stroke="#F4F4DE" stroke-width="3.3" stroke-miterlimit="10"/>
<path d="M170.731 199.156V214.816" stroke="#F4F4DE" stroke-width="3.3" stroke-miterlimit="10"/>
<path d="M178.561 206.985H162.911" stroke="#F4F4DE" stroke-width="3.3" stroke-miterlimit="10"/>
<path d="M170.731 299.735V315.385" stroke="#F4F4DE" stroke-width="3.3" stroke-miterlimit="10"/>
<path d="M178.561 307.565H162.911" stroke="#F4F4DE" stroke-width="3.3" stroke-miterlimit="10"/>
<path d="M170.731 400.306V415.966" stroke="#F4F4DE" stroke-width="3.3" stroke-miterlimit="10"/>
<path d="M178.561 408.136H162.911" stroke="#F4F4DE" stroke-width="3.3" stroke-miterlimit="10"/>
<path d="M271.411 98.5859V114.246" stroke="#F4F4DE" stroke-width="3.3" stroke-miterlimit="10"/>
<path d="M279.241 106.416H263.581" stroke="#F4F4DE" stroke-width="3.3" stroke-miterlimit="10"/>
<path d="M371.981 199.156V214.816" stroke="#F4F4DE" stroke-width="3.3" stroke-miterlimit="10"/>
<path d="M379.811 206.985H364.151" stroke="#F4F4DE" stroke-width="3.3" stroke-miterlimit="10"/>
<path d="M271.411 199.155V214.815" stroke="#F4F4DE" stroke-width="3.3" stroke-miterlimit="10"/>
<path d="M279.241 206.985H263.581" stroke="#F4F4DE" stroke-width="3.3" stroke-miterlimit="10"/>
<path d="M371.981 299.735V315.385" stroke="#F4F4DE" stroke-width="3.3" stroke-miterlimit="10"/>
<path d="M379.811 307.565H364.151" stroke="#F4F4DE" stroke-width="3.3" stroke-miterlimit="10"/>
<path d="M271.411 299.735V315.385" stroke="#F4F4DE" stroke-width="3.3" stroke-miterlimit="10"/>
<path d="M279.241 307.565H263.581" stroke="#F4F4DE" stroke-width="3.3" stroke-miterlimit="10"/>
<path d="M371.981 400.306V415.966" stroke="#F4F4DE" stroke-width="3.3" stroke-miterlimit="10"/>
<path d="M379.811 408.136H364.151" stroke="#F4F4DE" stroke-width="3.3" stroke-miterlimit="10"/>
<path d="M271.411 400.306V415.966" stroke="#F4F4DE" stroke-width="3.3" stroke-miterlimit="10"/>
<path d="M279.241 408.136H263.581" stroke="#F4F4DE" stroke-width="3.3" stroke-miterlimit="10"/>
</g>
</g>
<defs>
<clipPath id="clip0_0_5211">
<rect width="1755" height="483" fill="white" transform="translate(-270)"/>
</clipPath>
</defs>
</svg>
