<svg width="1366" height="882" viewBox="0 0 1366 882" fill="none" xmlns="http://www.w3.org/2000/svg">
<path d="M941.179 764.206H589.027" stroke="#4081FF" stroke-width="0.25" stroke-miterlimit="10" stroke-linecap="round" stroke-linejoin="round"/>
<path d="M595.128 778.354C587.283 781.837 578.131 778.137 574.644 770.301C571.158 762.465 574.862 753.323 582.707 749.841C590.552 746.358 599.704 750.059 603.191 757.894C606.678 765.948 602.973 775.09 595.128 778.354Z" fill="url(#paint0_radial_0_5532)"/>
<path d="M714.982 764.206L662.9 816.444" stroke="#4081FF" stroke-width="0.25" stroke-miterlimit="10" stroke-linecap="round" stroke-linejoin="round"/>
<path d="M787.548 764.206L748.541 668.218H677.283" stroke="#4081FF" stroke-width="0.25" stroke-miterlimit="10" stroke-linecap="round" stroke-linejoin="round"/>
<path d="M940.961 775.09H772.076L742.439 804.474" stroke="#4081FF" stroke-width="0.25" stroke-miterlimit="10" stroke-linecap="round" stroke-linejoin="round"/>
<path d="M774.691 732.645H670.963L618.228 679.754" stroke="#4081FF" stroke-width="0.25" stroke-miterlimit="10" stroke-linecap="round" stroke-linejoin="round"/>
<path d="M940.961 785.973H804.11L718.251 871.949" stroke="#4081FF" stroke-width="0.25" stroke-miterlimit="10" stroke-linecap="round" stroke-linejoin="round"/>
<path d="M761.18 828.852H633.045" stroke="#4081FF" stroke-width="0.25" stroke-miterlimit="10" stroke-linecap="round" stroke-linejoin="round"/>
<path d="M666.605 825.369C661.592 827.545 655.927 825.151 653.748 820.362C651.568 815.356 653.965 809.697 658.76 807.521C663.772 805.344 669.437 807.738 671.617 812.527C674.014 817.533 671.617 823.192 666.605 825.369Z" fill="url(#paint1_radial_0_5532)"/>
<path d="M622.586 689.984C616.92 692.379 610.382 689.767 607.985 684.108C605.588 678.448 608.203 671.919 613.869 669.524C619.535 667.13 626.072 669.742 628.469 675.401C630.867 681.06 628.252 687.59 622.586 689.984Z" fill="url(#paint2_radial_0_5532)"/>
<path d="M681.205 677.142C676.193 679.319 670.527 676.924 668.348 672.136C666.169 667.13 668.566 661.471 673.36 659.294C678.372 657.117 684.038 659.512 686.217 664.3C688.396 669.306 686.217 675.183 681.205 677.142Z" fill="url(#paint3_radial_0_5532)"/>
<path d="M746.362 813.398C741.35 815.575 735.684 813.18 733.505 808.392C731.326 803.386 733.723 797.726 738.517 795.55C743.529 793.373 749.195 795.767 751.374 800.556C753.553 805.562 751.374 811.439 746.362 813.398Z" fill="url(#paint4_radial_0_5532)"/>
<path d="M722.173 880.873C717.161 883.049 711.495 880.655 709.316 875.866C707.137 870.86 709.534 865.201 714.328 863.024C719.34 860.848 725.006 863.242 727.185 868.031C729.364 873.037 726.967 878.696 722.173 880.873Z" fill="url(#paint5_radial_0_5532)"/>
<path d="M636.968 837.776C631.956 839.952 626.29 837.558 624.111 832.77C621.932 827.763 624.329 822.104 629.123 819.928C634.135 817.751 639.801 820.145 641.98 824.934C644.16 829.94 641.98 835.817 636.968 837.776Z" fill="url(#paint6_radial_0_5532)"/>
<path d="M941.178 753.105H793.214L772.076 698.255" stroke="#4081FF" stroke-width="0.25" stroke-miterlimit="10" stroke-linecap="round" stroke-linejoin="round"/>
<path d="M1167.59 699.343H1401.2" stroke="#4081FF" stroke-width="0.25" stroke-miterlimit="10" stroke-linecap="round" stroke-linejoin="round"/>
<path d="M1180.01 699.343L1222.73 656.899" stroke="#4081FF" stroke-width="0.25" stroke-miterlimit="10" stroke-linecap="round" stroke-linejoin="round"/>
<path d="M1239.07 699.343L1271.1 621.203H1329.07" stroke="#4081FF" stroke-width="0.25" stroke-miterlimit="10" stroke-linecap="round" stroke-linejoin="round"/>
<path d="M1163.45 708.268H1251.93L1275.9 732.428" stroke="#4081FF" stroke-width="0.25" stroke-miterlimit="10" stroke-linecap="round" stroke-linejoin="round"/>
<path d="M1261.51 717.844H1296.16L1315.56 737.651" stroke="#4081FF" stroke-width="0.25" stroke-miterlimit="10" stroke-linecap="round" stroke-linejoin="round"/>
<path d="M1159.31 717.191H1225.56L1295.73 787.278" stroke="#4081FF" stroke-width="0.25" stroke-miterlimit="10" stroke-linecap="round" stroke-linejoin="round"/>
<path d="M1255.19 659.946H1303.79" stroke="#4081FF" stroke-width="0.25" stroke-miterlimit="10" stroke-linecap="round" stroke-linejoin="round"/>
<path d="M1219.46 649.499C1223.6 647.757 1228.17 649.716 1229.92 653.634C1231.66 657.77 1229.7 662.341 1225.78 664.082C1221.64 665.823 1217.06 663.864 1215.32 659.947C1213.57 656.029 1215.53 651.24 1219.46 649.499Z" fill="url(#paint7_radial_0_5532)"/>
<path d="M1311.85 729.38C1316.43 727.421 1321.66 729.598 1323.84 734.169C1325.8 738.74 1323.62 743.963 1319.04 746.14C1314.47 748.099 1309.24 745.922 1307.06 741.351C1305.1 736.781 1307.28 731.339 1311.85 729.38Z" fill="url(#paint8_radial_0_5532)"/>
<path d="M1326.02 628.386C1330.16 630.127 1334.73 628.168 1336.48 624.25C1338.22 620.115 1336.26 615.544 1332.34 613.802C1328.2 612.061 1323.62 614.02 1321.88 617.938C1320.13 622.074 1321.88 626.644 1326.02 628.386Z" fill="url(#paint9_radial_0_5532)"/>
<path d="M1272.85 739.61C1276.99 741.352 1281.56 739.393 1283.31 735.475C1285.05 731.339 1283.09 726.768 1279.17 725.027C1275.03 723.286 1270.45 725.245 1268.71 729.163C1266.96 733.298 1268.71 737.869 1272.85 739.61Z" fill="url(#paint10_radial_0_5532)"/>
<path d="M1292.68 794.461C1296.82 796.202 1301.39 794.243 1303.14 790.325C1304.88 786.19 1302.92 781.619 1299 779.878C1294.86 778.136 1290.28 780.095 1288.54 784.013C1286.79 788.149 1288.54 792.72 1292.68 794.461Z" fill="url(#paint11_radial_0_5532)"/>
<path d="M1300.52 667.129C1304.66 668.87 1309.24 666.911 1310.98 662.993C1312.72 658.858 1310.76 654.287 1306.84 652.546C1302.7 650.804 1298.12 652.763 1296.38 656.681C1294.64 660.817 1296.6 665.388 1300.52 667.129Z" fill="url(#paint12_radial_0_5532)"/>
<path d="M1064.52 840.605L1085.44 796.855L1134.25 756.153L1157.79 720.021L1172.82 688.46L1190.91 634.481L1182.63 596.39L1170.64 579.848L1147.33 567.006L1138.61 573.971L1141.88 596.172L1153.65 611.626L1151.47 626.427L1142.1 642.752L1148.85 668.871L1172.82 688.46L1143.19 697.167L1160.18 715.233" stroke="#4081FF" stroke-width="0.25" stroke-miterlimit="10" stroke-linecap="round" stroke-linejoin="round"/>
<path d="M1139.05 577.671L1126.62 597.696L1111.59 615.762L1105.92 611.191L1123.14 577.454L1147.11 531.527L1170.43 492.566L1169.55 472.106L1149.94 462.529L1132.07 473.194L1111.81 510.85L1092.85 535.445L1082.82 555.688L1066.48 587.901L1049.05 572.012L1065.39 531.963L1079.55 495.396L1097.64 468.188L1105.49 453.823L1105.27 437.933L1094.16 429.88L1079.55 434.015L1063.43 452.734L1023.99 504.755L1013.31 533.269L993.042 577.889L982.147 598.349L964.06 598.567L952.728 594.649L945.755 572.883L939.435 548.287L933.769 513.679L903.915 480.377L888.225 482.118L884.084 490.607L896.07 518.25L895.416 555.47L896.941 589.643L893.455 630.563L921.13 676.489L941.396 730.469L940.743 814.921L961.445 819.275" stroke="#4081FF" stroke-width="0.25" stroke-miterlimit="10" stroke-linecap="round" stroke-linejoin="round"/>
<path d="M1170.64 579.848L1157.57 598.567L1141.88 596.172" stroke="#4081FF" stroke-width="0.25" stroke-miterlimit="10" stroke-linecap="round" stroke-linejoin="round"/>
<path d="M1164.11 589.207L1177.18 609.667L1173.04 637.31L1161.71 679.318" stroke="#4081FF" stroke-width="0.25" stroke-miterlimit="10" stroke-linecap="round" stroke-linejoin="round"/>
<path d="M1181.1 663.865L1172.17 640.793L1190.91 634.48L1181.1 663.865Z" stroke="#4081FF" stroke-width="0.25" stroke-miterlimit="10" stroke-linecap="round" stroke-linejoin="round"/>
<path d="M1142.31 570.924L1151.25 547.852L1154.52 526.739L1166.07 507.803L1185.68 513.68L1191.56 540.887L1188.51 561.783L1177.62 589.425" stroke="#4081FF" stroke-width="0.25" stroke-miterlimit="10" stroke-linecap="round" stroke-linejoin="round"/>
<path d="M1166.07 507.803L1169.99 524.127L1180.45 525.651L1185.68 513.68" stroke="#4081FF" stroke-width="0.25" stroke-miterlimit="10" stroke-linecap="round" stroke-linejoin="round"/>
<path d="M1151.25 547.852L1164.11 563.741L1188.51 561.782" stroke="#4081FF" stroke-width="0.25" stroke-miterlimit="10" stroke-linecap="round" stroke-linejoin="round"/>
<path d="M1134.25 756.153L1115.08 734.822L1085.44 796.856" stroke="#4081FF" stroke-width="0.25" stroke-miterlimit="10" stroke-linecap="round" stroke-linejoin="round"/>
<path d="M893.455 630.563L935.295 627.298L921.13 676.489L893.455 630.563Z" stroke="#4081FF" stroke-width="0.25" stroke-miterlimit="10" stroke-linecap="round" stroke-linejoin="round"/>
<path d="M935.295 627.298L1018.32 690.855L941.397 730.469L921.13 676.489L935.295 627.298Z" stroke="#4081FF" stroke-width="0.25" stroke-miterlimit="10" stroke-linecap="round" stroke-linejoin="round"/>
<path opacity="0.3" d="M935.295 627.298L1018.32 690.855L941.397 730.469L921.13 676.489L935.295 627.298Z" fill="#4081FF"/>
<path d="M940.96 793.373L969.29 767.689L961.445 819.275" stroke="#4081FF" stroke-width="0.25" stroke-miterlimit="10" stroke-linecap="round" stroke-linejoin="round"/>
<path d="M888.225 482.118L900.864 491.26L920.912 521.95L915.029 561.782L932.68 592.472L952.728 594.649" stroke="#4081FF" stroke-width="0.25" stroke-miterlimit="10" stroke-linecap="round" stroke-linejoin="round"/>
<path opacity="0.3" d="M896.07 518.25L903.261 509.326L900.864 491.26L888.225 482.118L884.084 490.607L896.07 518.25Z" fill="#4081FF"/>
<path d="M896.07 518.25L903.261 509.326L900.864 491.26L888.225 482.118L884.084 490.607L896.07 518.25Z" stroke="#4081FF" stroke-width="0.25" stroke-miterlimit="10" stroke-linecap="round" stroke-linejoin="round"/>
<path d="M1187.42 522.168L1186.77 506.496L1175.44 499.531L1165.41 504.973L1163.23 512.591" stroke="#4081FF" stroke-width="0.25" stroke-miterlimit="10" stroke-linecap="round" stroke-linejoin="round"/>
<path d="M1170.43 492.566L1143.19 499.096L1132.07 473.194L1146.89 458.394L1168.68 461.658L1173.04 475.589L1170.21 484.948" stroke="#4081FF" stroke-width="0.25" stroke-miterlimit="10" stroke-linecap="round" stroke-linejoin="round"/>
<path d="M1143.19 697.167L1124.66 669.307L1103.09 668.001L1143.19 697.167Z" stroke="#4081FF" stroke-width="0.25" stroke-miterlimit="10" stroke-linecap="round" stroke-linejoin="round"/>
<path opacity="0.3" d="M1049.05 572.012L1043.6 545.893L998.926 564.611L1049.05 572.012Z" fill="#4081FF"/>
<path d="M1049.05 572.012L1043.6 545.893L998.926 564.611L1049.05 572.012Z" stroke="#4081FF" stroke-width="0.25" stroke-miterlimit="10" stroke-linecap="round" stroke-linejoin="round"/>
<path d="M1123.14 577.454L1117.04 553.293L1084.78 551.987" stroke="#4081FF" stroke-width="0.25" stroke-miterlimit="10" stroke-linecap="round" stroke-linejoin="round"/>
<path d="M1068.22 524.78L1059.72 499.749L1079.55 495.396" stroke="#4081FF" stroke-width="0.25" stroke-miterlimit="10" stroke-linecap="round" stroke-linejoin="round"/>
<path d="M1093.07 594.649L1120.96 568.53L1101.13 565.7L1096.33 552.423" stroke="#4081FF" stroke-width="0.25" stroke-miterlimit="10" stroke-linecap="round" stroke-linejoin="round"/>
<path d="M1142.1 642.751L1136.87 630.345L1128.15 626.862L1119.43 620.115L1111.59 615.762L1070.84 661.253L1027.69 599.655L1001.11 586.813L998.926 564.611" stroke="#4081FF" stroke-width="0.25" stroke-miterlimit="10" stroke-linecap="round" stroke-linejoin="round"/>
<path d="M1117.04 553.293L1124.88 533.051L1147.11 531.527" stroke="#4081FF" stroke-width="0.25" stroke-miterlimit="10" stroke-linecap="round" stroke-linejoin="round"/>
<path d="M1105.49 453.822L1078.68 462.311L1075.41 438.804" stroke="#4081FF" stroke-width="0.25" stroke-miterlimit="10" stroke-linecap="round" stroke-linejoin="round"/>
<path d="M1078.68 462.312L1079.12 481.683L1038.37 485.819" stroke="#4081FF" stroke-width="0.25" stroke-miterlimit="10" stroke-linecap="round" stroke-linejoin="round"/>
<path d="M1023.99 504.755L1044.03 518.903L1043.6 545.893" stroke="#4081FF" stroke-width="0.25" stroke-miterlimit="10" stroke-linecap="round" stroke-linejoin="round"/>
<path d="M964.06 598.566L965.585 605.749L995.222 622.727L1016.14 644.275L1020.94 673.877L1052.75 682.801L1103.09 668L1115.08 734.822L1052.75 682.801L1009.17 752.235L1077.38 813.833" stroke="#4081FF" stroke-width="0.25" stroke-miterlimit="10" stroke-linecap="round" stroke-linejoin="round"/>
<path d="M896.941 589.643L915.028 561.782" stroke="#4081FF" stroke-width="0.25" stroke-miterlimit="10" stroke-linecap="round" stroke-linejoin="round"/>
<path d="M906.094 575.713L925.488 628.169" stroke="#4081FF" stroke-width="0.25" stroke-miterlimit="10" stroke-linecap="round" stroke-linejoin="round"/>
<path opacity="0.3" d="M1180.45 525.651L1181.54 562.218L1164.11 563.741L1151.25 547.852L1154.52 526.739L1169.99 524.127L1180.45 525.651Z" fill="#4081FF"/>
<path d="M1180.45 525.651L1181.54 562.218L1164.11 563.741L1151.25 547.852L1154.52 526.739L1169.99 524.127L1180.45 525.651Z" stroke="#4081FF" stroke-width="0.25" stroke-miterlimit="10" stroke-linecap="round" stroke-linejoin="round"/>
<path d="M1124.88 533.051L1108.54 514.985L1132.29 514.114L1143.19 499.096" stroke="#4081FF" stroke-width="0.25" stroke-miterlimit="10" stroke-linecap="round" stroke-linejoin="round"/>
<path d="M1062.12 483.425L1044.03 518.903" stroke="#4081FF" stroke-width="0.25" stroke-miterlimit="10" stroke-linecap="round" stroke-linejoin="round"/>
<path d="M1115.08 734.822L1143.19 697.167" stroke="#4081FF" stroke-width="0.25" stroke-miterlimit="10" stroke-linecap="round" stroke-linejoin="round"/>
<path d="M1009.17 752.235L983.672 730.686L941.396 730.469L1009.17 752.235Z" stroke="#4081FF" stroke-width="0.25" stroke-miterlimit="10" stroke-linecap="round" stroke-linejoin="round"/>
<path d="M1036.63 708.485L1078.47 736.781L1092.85 780.966" stroke="#4081FF" stroke-width="0.25" stroke-miterlimit="10" stroke-linecap="round" stroke-linejoin="round"/>
<path d="M1016.14 644.276L1027.69 599.655L995.222 622.727" stroke="#4081FF" stroke-width="0.25" stroke-miterlimit="10" stroke-linecap="round" stroke-linejoin="round"/>
<path d="M1070.84 661.253L1052.75 682.801" stroke="#4081FF" stroke-width="0.25" stroke-miterlimit="10" stroke-linecap="round" stroke-linejoin="round"/>
<path d="M1148.85 668.871L1120.09 654.723L1111.59 615.762L1093.07 618.809L1066.48 587.901L1093.07 594.649L1105.92 611.191" stroke="#4081FF" stroke-width="0.25" stroke-miterlimit="10" stroke-linecap="round" stroke-linejoin="round"/>
<path d="M1066.48 587.901L1027.69 599.655L1049.05 572.012" stroke="#4081FF" stroke-width="0.25" stroke-miterlimit="10" stroke-linecap="round" stroke-linejoin="round"/>
<path opacity="0.3" d="M1140.79 588.554L1155.61 592.037L1163.89 576.148L1147.33 567.006L1138.61 573.971L1140.79 588.554Z" fill="#4081FF"/>
<path d="M1140.79 588.554L1155.61 592.037L1163.89 576.148L1147.33 567.006L1138.61 573.971L1140.79 588.554Z" stroke="#4081FF" stroke-width="0.25" stroke-miterlimit="10" stroke-linecap="round" stroke-linejoin="round"/>
<g filter="url(#filter0_d_0_5532)">
<g opacity="0.8">
<path opacity="0.8" d="M919.605 355.222C918.297 357.834 913.067 369.587 910.234 389.394C911.542 380.035 913.939 370.24 919.169 356.31C919.387 355.657 919.387 355.657 919.605 355.222Z" fill="#4081FF"/>
<path opacity="0.8" d="M941.396 312.343C941.832 311.908 942.268 311.255 942.704 310.819C942.486 311.037 942.268 311.472 941.832 311.69L940.96 312.778L938.999 315.608C938.999 315.39 939.217 315.39 939.217 315.173C939.871 314.302 940.742 313.431 941.396 312.343Z" fill="#4081FF"/>
<path opacity="0.8" d="M969.508 516.508C979.967 522.603 981.711 523.691 994.35 530.438H994.568C996.311 529.568 998.272 528.697 1000.23 528.044C1000.23 527.609 999.362 527.174 999.362 527.174C997.619 527.826 995.222 528.697 993.478 529.568C983.236 523.909 980.185 522.385 969.943 516.29C971.687 514.985 973.866 513.896 976.263 512.59C976.481 512.373 975.827 511.502 975.391 511.502C972.776 512.808 970.597 514.114 968.854 515.42C968.854 515.42 968.854 515.42 969.072 515.42H968.854C967.764 516.073 966.893 516.943 966.239 517.596C967.11 518.685 967.11 518.685 967.11 518.902C967.546 518.032 968.418 517.161 969.508 516.508Z" fill="#4081FF"/>
<path opacity="0.8" d="M967.982 286.441C968.2 286.441 968.2 286.441 967.982 286.441V286.441ZM966.892 289.706L966.239 290.141C966.239 290.141 966.674 289.924 966.892 289.706ZM954.689 297.542C957.086 295.583 960.355 293.624 963.842 291.883C958.612 295.583 955.125 298.195 952.292 300.807L954.689 297.542ZM973.866 280.129L972.994 280.782C976.699 277.952 981.929 275.558 988.684 273.164C988.902 272.946 989.338 272.728 989.556 272.511C983.018 274.687 977.57 277.299 973.866 280.129Z" fill="#4081FF"/>
<path opacity="0.8" d="M1051.01 319.743C1051.01 319.526 1051.01 319.09 1050.79 318.873C1020.28 317.131 992.825 311.472 978.006 302.983C976.263 301.895 974.738 301.025 973.43 300.154C973.43 300.154 973.43 300.154 973.43 299.936C969.29 296.671 967.328 293.406 967.328 290.142V289.706C967.546 286.659 969.508 283.612 973.212 280.564L972.776 281C970.379 282.959 968.418 284.918 967.328 286.877C962.97 289.706 961.881 290.577 958.83 293.189C960.791 291.665 962.752 290.142 967.11 287.094C966.675 288.183 966.239 289.053 966.239 290.142C961.88 292.1 958.176 294.277 955.343 296.671C954.689 297.107 954.253 297.542 953.818 297.977L954.907 296.889C955.343 296.454 955.779 296.018 956.215 295.801C955.997 296.018 955.779 296.236 955.343 296.454L954.471 297.324L952.946 299.066C953.382 298.63 954.036 298.195 954.471 297.542L952.074 300.807C950.549 302.331 949.023 303.636 947.498 305.378C948.806 304.072 950.113 302.766 951.421 301.46L950.331 302.983C952.946 301.242 956.215 299.283 959.919 297.542C960.137 297.324 960.791 296.889 960.791 296.454C957.086 298.195 954.036 299.936 951.421 301.678L952.074 301.025C956.433 297.324 960.791 294.059 965.367 290.795C965.803 290.577 966.021 290.577 966.457 290.359C966.239 293.842 968.2 297.324 972.558 300.589C973.866 301.678 975.391 302.548 977.135 303.636C981.275 306.031 986.505 308.207 992.389 310.166C985.633 335.415 990.21 354.351 990.21 354.351C990.427 354.351 990.645 354.351 990.863 353.916C991.081 353.698 991.081 353.481 991.081 353.263C988.248 331.715 990.427 322.791 993.26 310.384C995.657 311.255 998.49 311.908 1001.11 312.561C1000.89 323.879 1000.89 324.314 1003.28 336.939L1003.5 337.156C1005.03 337.374 1006.55 337.592 1008.08 338.027L1009.82 347.822L1010.04 348.039C1016.36 348.91 1023.11 349.78 1029.87 350.433C1030.09 350.433 1030.31 350.433 1030.31 349.998C1030.52 349.781 1030.52 349.345 1030.09 349.128C1022.68 348.475 1022.24 348.257 1010.48 346.733L1008.95 338.244C1018.54 339.768 1028.78 341.074 1039.46 341.945C1039.68 341.727 1039.89 341.727 1039.89 341.509C1040.11 340.856 1039.89 340.856 1039.68 340.639C1022.9 339.333 1013.96 337.809 1003.94 336.068C1001.76 325.185 1001.76 324.75 1001.76 312.996V311.908V312.996C1015.71 316.478 1032.7 318.873 1050.79 319.743C1050.79 319.961 1050.79 319.743 1051.01 319.743Z" fill="#4081FF"/>
<path opacity="0.8" d="M1232.1 380.253C1232.1 380.471 1232.1 380.471 1232.1 380.906C1232.31 381.777 1232.31 382.647 1232.53 383.518C1232.31 382.43 1232.31 381.341 1232.1 380.471C1232.1 380.471 1232.1 380.471 1232.1 380.253Z" fill="#4081FF"/>
<path opacity="0.8" d="M1234.28 397.23C1233.84 391.353 1233.4 389.177 1232.53 383.735C1233.19 388.089 1233.84 392.877 1234.28 397.23Z" fill="#4081FF"/>
<path opacity="0.8" d="M1215.53 333.892C1217.5 337.374 1219.24 341.292 1221.42 345.863C1219.46 341.074 1217.5 337.374 1215.53 333.892Z" fill="#4081FF"/>
<path opacity="0.8" d="M1202.24 313.867C1207.91 321.703 1211.61 327.144 1215.53 334.109C1212.05 327.797 1208.34 321.92 1201.81 313.214L1201.59 312.996C1199.63 311.255 1197.01 309.296 1193.96 307.555C1194.18 307.99 1194.4 308.208 1194.61 308.643C1197.67 310.167 1200.28 311.908 1202.24 313.867Z" fill="#4081FF"/>
<path opacity="0.8" d="M1070.18 422.044C1056.46 422.044 1042.95 421.391 1029.87 420.52C1029.65 420.52 1029.65 420.52 1029.43 420.738C1029.65 420.52 1029.65 420.52 1029.65 420.52C1024.86 420.085 1020.28 419.65 1015.71 419.214C1006.34 404.849 1005.68 403.978 998.926 391.571L998.272 390.265C998.49 390.701 998.708 391.136 998.926 391.571C1013.96 393.748 1030.31 395.489 1047.09 396.142C1047.52 395.925 1047.52 395.925 1047.52 395.489C1047.52 394.836 1047.3 394.619 1047.09 394.619C1025.95 393.53 1005.68 391.354 987.812 388.089C995.222 379.6 999.144 375.247 1013.74 359.14C1021.81 360.228 1030.52 361.099 1039.46 361.534C1039.68 361.317 1039.68 361.316 1039.89 361.099C1040.11 360.664 1039.89 360.446 1039.68 360.228C1030.96 359.575 1022.46 358.705 1014.18 357.616L1013.74 357.834C996.965 376.117 996.965 376.117 986.723 387.871C979.314 386.565 972.558 384.824 966.021 383.3C966.239 377.423 966.457 369.37 966.893 363.493C970.597 364.581 974.52 365.67 978.66 366.54C978.878 366.54 979.096 366.54 979.314 366.105C979.532 365.452 979.314 365.234 979.314 365.234C970.379 363.058 962.316 360.664 955.343 358.052C956.433 357.834 957.522 357.399 958.612 357.181C959.265 356.746 959.048 355.875 958.83 355.657C958.83 355.657 958.83 355.657 958.612 355.657C956.65 356.093 954.907 356.746 953.164 357.181C949.459 355.657 946.191 354.134 943.358 352.392C950.331 349.78 958.612 347.386 967.546 345.21H967.764C967.982 344.992 968.418 343.904 967.764 343.904C957.958 346.298 949.241 348.91 942.05 351.739C940.089 350.651 938.346 349.563 937.038 348.257V348.475C937.038 348.257 937.038 348.257 937.038 348.257C933.334 345.427 930.936 342.598 929.629 339.768C929.629 339.55 929.629 339.333 929.629 338.897V338.027V338.897C935.731 334.544 944.665 330.409 955.997 326.708C956.215 326.491 956.651 326.056 956.651 325.403C956.651 325.403 956.65 325.403 956.433 325.403C944.883 329.103 935.949 333.456 929.629 337.809C929.411 337.809 929.411 338.027 929.193 338.027C928.975 337.374 928.757 336.503 928.757 335.85C934.423 326.056 938.346 319.743 947.716 308.643C951.421 306.466 955.997 304.289 961.445 302.113C961.663 301.895 962.098 301.678 962.098 301.242C956.651 303.201 952.074 305.378 948.37 307.554L948.152 307.772C939.871 318.002 935.295 323.879 928.757 335.415C928.539 333.021 929.193 330.844 930.501 328.45C930.719 328.232 930.719 328.014 930.719 327.797L930.501 328.014L929.629 329.32C928.975 330.626 928.321 331.932 928.104 333.238C927.45 334.544 926.578 335.85 925.924 337.374C926.578 336.286 927.232 334.98 928.104 333.456C927.886 334.327 927.886 335.197 927.886 336.286C927.014 337.809 926.36 339.115 925.489 340.856C923.745 342.598 922.438 344.121 921.566 345.863C922.874 343.251 924.399 340.203 925.924 337.374C923.745 341.074 922.874 342.815 921.348 346.08C921.13 346.516 920.912 346.951 920.694 347.386L920.041 348.91C920.041 349.128 919.823 349.128 919.823 349.345C920.041 348.91 920.041 348.692 920.259 348.475C921.13 346.298 922.874 344.121 924.835 342.162C924.835 342.162 924.835 342.162 924.835 341.945C925.053 341.509 925.489 340.856 925.706 340.421C926.36 339.115 927.232 337.809 927.886 336.721C927.886 337.156 928.104 337.809 928.104 338.244C927.232 338.897 926.36 339.55 925.706 340.203C925.489 340.639 925.053 341.292 924.835 341.945C925.924 340.856 927.014 339.986 928.321 339.115C928.539 339.55 928.757 339.986 928.975 340.421C928.975 346.733 929.411 347.604 931.808 356.528H932.026C934.423 355.44 937.038 354.134 939.871 353.045L942.704 361.099L942.922 361.317C945.973 360.228 949.459 359.14 952.946 358.052C957.086 359.793 961.445 361.317 966.239 362.622C965.803 368.935 965.367 377.206 965.149 383.518C965.149 383.736 965.149 383.953 965.367 383.953C971.905 385.694 978.878 387.218 986.505 388.742H986.723C990.21 389.395 993.914 390.048 997.619 390.701V390.483V390.265C997.619 390.483 997.619 390.483 997.837 390.701C1005.9 405.502 1006.12 405.719 1015.49 419.867L1015.71 420.085C1020.28 420.52 1025.08 420.955 1029.87 421.391L1036.41 432.274L1036.84 432.491C1044.47 432.927 1052.1 433.362 1059.94 433.58C1060.16 433.58 1060.38 433.362 1060.38 432.927C1060.38 432.709 1060.38 432.274 1059.94 432.056C1053.19 431.839 1044.03 431.403 1037.06 430.968L1031.4 421.608C1030.96 420.955 1030.74 420.738 1030.74 420.52C1030.96 420.955 1031.18 421.391 1031.4 421.608C1044.03 422.479 1057.11 423.132 1070.4 423.132C1070.62 423.132 1070.84 422.914 1070.84 422.479C1070.84 422.261 1070.4 422.044 1070.18 422.044ZM940.307 352.392C940.525 352.175 940.525 352.392 940.307 352.392C937.692 353.263 935.077 354.569 932.68 355.657C930.719 348.91 930.283 347.604 930.065 342.38C931.372 344.774 933.551 347.169 936.602 349.345C937.692 350.433 938.999 351.304 940.307 352.392C940.525 352.392 940.307 352.392 940.307 352.392ZM943.358 360.228L940.961 353.263C941.178 353.263 941.396 353.045 941.832 353.045C942.268 353.263 942.486 353.481 942.704 353.698C945.319 355.222 947.934 356.528 950.985 357.834C948.37 358.487 945.973 359.358 943.358 360.228ZM986.287 388.524C986.287 388.742 986.287 388.959 986.287 389.177C986.287 389.177 986.287 388.959 986.287 388.524Z" fill="#4081FF"/>
<path opacity="0.8" d="M1040.11 564.829C1030.96 560.476 1029.22 559.388 1019.41 553.729C1023.77 554.382 1028.13 555.034 1032.7 555.47C1032.7 555.47 1032.7 555.47 1032.92 555.47V555.252C1032.7 555.035 1032.49 554.817 1032.49 554.817C1024.86 553.946 1017.67 552.858 1010.69 551.77C1010.91 546.11 1012.44 542.846 1015.49 536.098C1025.73 537.404 1036.84 538.492 1048.18 538.928C1048.39 538.928 1048.39 538.71 1048.39 538.492C1048.39 538.057 1047.96 538.057 1047.96 537.839C1036.63 537.186 1025.51 536.316 1015.05 534.792H1014.83C1010.69 543.281 1010.48 545.675 1009.82 551.117C1009.82 551.117 1010.04 551.552 1010.26 551.77C1010.04 551.552 1009.82 551.334 1009.82 551.117C1004.59 550.028 999.58 548.94 994.786 547.634C990.645 544.151 985.415 539.581 981.493 535.88C984.762 536.751 988.03 537.622 991.735 538.492V538.275C991.517 537.839 991.299 537.839 991.081 537.622C978.442 534.574 967.546 530.874 959.919 526.521C957.74 525.433 955.997 524.127 954.471 523.038L954.253 522.821C953.164 521.95 952.074 521.079 951.203 520.209C948.588 516.944 947.498 513.897 947.934 510.632C961.227 522.821 962.752 523.474 962.752 523.474C963.406 521.732 964.713 519.991 966.457 518.25C966.457 518.25 966.457 518.25 966.239 518.25C966.021 517.815 965.803 517.379 965.585 516.944C959.048 506.061 955.561 500.619 951.421 486.689C954.036 485.165 957.304 483.424 960.791 481.901C966.457 483.424 972.34 484.948 978.442 486.036C992.389 504.537 1005.03 517.162 1005.68 517.379C1005.68 517.162 1005.9 517.162 1005.9 516.944C1005.9 516.726 1005.68 516.509 1005.68 516.509C992.825 503.014 987.159 495.831 978.878 484.948L978.66 484.73C973.212 483.642 967.764 482.336 962.752 481.03C964.931 480.159 967.328 479.289 969.726 478.418C969.943 477.765 969.072 477.112 969.072 477.112C966.021 478.2 962.97 479.289 960.355 480.377C947.934 476.894 937.474 472.976 929.411 468.406C926.796 466.882 924.399 465.358 922.656 464.052C922.656 464.27 922.656 464.27 922.874 464.488C922.874 464.27 922.656 464.27 922.656 464.052C918.079 460.57 915.465 457.087 914.157 453.387C913.721 451.863 913.721 450.34 913.939 449.034C915.464 451.428 917.862 453.822 920.912 456.217C922.874 457.958 925.271 459.482 927.886 461.005C930.719 462.746 933.987 464.27 937.474 465.794C937.474 465.794 937.474 465.794 937.692 465.794C952.292 472.106 972.123 476.894 994.35 480.377C996.529 483.424 999.58 487.342 1001.76 490.607C1001.76 490.825 1001.98 490.825 1002.19 491.042C1001.98 491.042 1001.98 491.042 1001.98 490.825C1005.46 495.178 1010.26 501.055 1013.74 505.408C1014.18 505.843 1014.4 505.626 1014.4 505.19C1014.4 504.973 1014.4 504.973 1006.55 495.178C1005.46 493.872 1004.37 492.348 1003.28 491.042C1010.69 492.131 1018.54 492.784 1026.38 493.654C1042.29 514.114 1042.51 512.591 1042.51 512.155C1042.51 511.938 1042.51 511.72 1042.29 511.72C1036.63 504.973 1036.63 504.973 1026.82 492.784L1026.38 492.566C1018.1 491.913 1009.82 491.042 1001.98 489.954H1001.76H1001.98C999.798 486.907 996.747 482.771 994.568 479.724L994.132 479.506C971.251 476.024 951.203 471.018 936.602 464.488C935.731 463.399 933.987 461.44 930.501 457.523C928.757 455.346 923.745 449.469 917.862 439.239L917.644 439.021C915.029 441.851 913.503 444.898 913.067 447.728C912.196 446.422 911.542 444.898 911.106 443.592C910.235 438.368 912.85 433.145 918.297 428.356C920.041 429.662 922.002 430.968 924.181 432.274C924.835 432.492 925.489 432.927 925.924 433.145C926.142 433.362 926.142 433.58 926.36 433.798C926.36 434.015 926.578 434.015 926.578 434.015C926.578 434.015 926.578 434.015 926.36 434.015C928.975 437.933 932.68 442.939 935.513 446.64C935.513 446.857 935.731 446.857 935.731 446.857C935.949 446.64 935.731 445.987 935.513 445.551C932.898 442.069 929.629 437.498 927.014 434.015C933.769 437.498 941.832 440.545 950.985 443.375C951.638 444.028 952.292 444.898 953.164 445.769L953.382 445.987C953.818 445.769 953.818 445.551 952.51 443.81C972.558 449.687 997.619 453.822 1024.86 455.999C1024.86 455.781 1025.08 455.564 1025.08 455.564C1025.08 455.346 1024.86 454.911 1024.64 454.693C996.747 452.299 971.033 447.945 950.767 441.851C950.331 441.416 949.895 440.763 949.241 440.11C955.343 429.444 962.316 419.432 969.726 410.29C971.905 407.461 976.045 404.196 977.135 400.931C977.353 400.278 977.135 400.06 976.917 400.06C976.699 400.06 976.699 400.06 976.481 400.278C961.445 418.779 956.433 426.179 948.588 439.457C947.934 438.586 947.062 437.498 945.973 436.409C943.794 433.798 940.961 429.88 938.781 427.05L938.564 426.832C933.987 428.791 930.065 430.75 926.796 432.709C926.36 432.492 925.924 432.274 925.489 432.056C923.963 429.662 922.438 427.05 921.13 424.873L920.912 424.656C919.605 425.526 918.515 426.397 917.644 427.268C917.426 427.05 916.99 426.832 916.772 426.832C916.772 426.615 916.772 426.615 916.554 426.397C910.452 421.609 907.402 416.82 906.966 412.032C907.402 403.325 916.99 394.836 934.205 387.654C934.641 387.436 934.641 386.565 934.205 386.13C917.426 393.095 907.837 401.366 906.966 409.637V411.161V411.379C906.966 411.379 906.966 411.379 906.966 411.161C906.966 410.726 906.966 410.073 906.966 409.42C907.402 403.107 907.62 397.448 908.491 391.571C907.837 397.013 907.184 403.107 906.966 409.855C906.966 410.29 906.966 410.508 906.966 410.943V412.684C906.966 417.691 910.017 422.697 916.554 427.703C916.554 427.703 916.554 427.703 916.772 427.703C911.542 432.492 909.363 437.715 910.235 442.939L910.67 444.463C910.888 445.987 911.542 447.293 912.414 448.816C912.196 450.34 912.414 451.646 912.85 453.169L913.285 454.693C914.375 458.393 917.208 462.311 922.002 466.011C923.963 467.535 926.36 469.059 928.975 470.582C936.602 474.935 946.409 478.636 957.74 481.901C954.689 483.206 952.074 484.512 949.677 486.036V486.254C954.036 499.096 955.997 504.755 964.496 517.597C962.752 519.338 961.445 521.079 960.791 522.821C956.651 519.338 951.203 514.55 947.062 510.849C947.28 509.543 947.934 508.237 948.588 507.149C948.588 506.932 947.934 506.061 947.716 506.061C946.844 507.367 946.409 508.673 946.191 510.196C946.191 510.196 946.191 510.414 946.409 510.414L946.191 510.196C945.537 513.679 946.626 516.944 949.895 520.426L950.985 521.732C951.856 522.821 952.946 523.691 954.253 524.562C955.779 525.868 957.522 526.956 959.701 528.045C965.149 531.092 971.905 533.921 979.968 536.316C984.108 540.016 989.774 545.022 994.132 548.505C994.35 548.722 994.568 548.722 994.568 548.722C999.144 550.028 1004.37 551.117 1009.6 552.205H1009.39C1009.39 552.205 1009.6 552.205 1009.82 552.205C1012.44 552.64 1015.05 553.076 1017.67 553.511C1028.56 559.823 1030.96 561.129 1039.46 565.265H1039.68C1042.95 565.7 1046.21 565.918 1049.7 566.135V565.918C1049.7 565.7 1049.26 565.7 1049.26 565.7C1046.87 565.482 1043.38 565.265 1040.11 564.829ZM1002.19 490.389C1002.19 490.172 1002.19 490.389 1002.19 490.389V490.389ZM918.515 440.98C924.181 449.904 926.796 454.475 935.731 464.27C932.898 462.964 930.283 461.658 927.668 460.352C925.053 458.829 922.656 457.305 920.694 455.781C917.862 453.605 915.682 451.428 914.157 449.251C914.811 446.204 916.336 443.592 918.515 440.98ZM949.895 440.98C950.113 441.198 950.113 441.198 950.331 441.416C950.113 441.416 949.895 441.198 949.677 441.198C949.895 441.198 949.895 440.98 949.895 440.98ZM940.089 428.138C945.101 434.886 947.28 437.715 949.241 440.11C949.024 440.327 948.806 440.763 948.806 440.98C948.806 440.98 948.806 441.198 948.588 441.198C948.588 441.198 948.588 441.198 948.588 440.98V440.763C941.396 438.368 934.859 435.974 929.411 433.145C932.68 431.621 936.166 429.88 940.089 428.138ZM922.438 426.179C923.309 427.703 924.399 429.662 925.489 431.403C925.271 431.403 925.271 431.186 925.053 431.186C923.092 430.097 921.566 429.009 920.041 428.138C920.912 427.268 921.566 426.615 922.438 426.179ZM980.403 535.445C980.621 535.445 980.621 535.663 980.839 535.663C980.621 535.663 980.621 535.663 980.403 535.445ZM1017.88 552.858C1017.88 552.858 1017.88 553.076 1017.88 552.858C1017.88 553.076 1017.88 553.076 1017.88 552.858C1017.88 553.076 1017.88 553.076 1017.88 552.858ZM1018.1 553.076C1018.1 553.076 1018.32 553.076 1018.54 553.293C1018.32 553.076 1018.1 553.076 1018.1 553.076Z" fill="#4081FF"/>
<path opacity="0.8" d="M942.704 310.82C944.447 308.861 945.972 307.119 947.28 305.596C945.754 307.119 944.229 308.861 942.704 310.82Z" fill="#4081FF"/>
<path opacity="0.8" d="M981.929 279.041C981.493 282.088 983.236 285.353 987.159 288.4C988.248 289.271 989.556 290.141 991.081 291.012C994.786 293.188 999.362 294.93 1004.81 296.671H1005.03C1007.86 294.93 1011.35 292.535 1014.18 290.577C1017.45 291.447 1020.94 292.318 1024.42 292.971L1024.64 292.753C1028.34 289.706 1040.77 280.129 1040.98 279.911C1041.2 279.476 1041.2 279.476 1041.2 279.476C1041.2 279.476 1040.98 279.476 1040.98 279.693C1035.75 283.829 1030.31 287.965 1025.08 292.1C1021.59 291.447 1018.32 290.577 1015.27 289.706C1018.97 287.312 1023.99 284.047 1027.69 281.652L1027.91 281.435C1028.34 280.999 1028.34 280.999 1028.34 280.782C1028.13 280.782 1018.32 287.094 1014.62 289.488C1014.62 289.488 1014.62 289.488 1014.83 289.488C1014.83 289.488 1014.62 289.706 1014.4 289.706C1011.78 291.447 1008.08 293.841 1005.46 295.583C1000.23 293.841 995.657 292.1 991.953 289.924C990.427 289.053 989.12 288.182 988.03 287.312C984.108 284.264 982.582 281.217 982.8 278.17C985.415 276.429 988.902 273.817 991.735 272.075C991.953 271.858 991.953 271.858 992.171 271.858C996.529 269.463 1002.19 266.416 1006.77 264.24C1006.77 264.24 1006.99 264.24 1006.99 264.022C1006.99 264.022 1002.63 265.546 992.389 271.64C992.824 270.552 993.478 269.246 994.568 268.157C997.619 266.416 1001.76 264.457 1005.03 263.151C1008.08 261.845 1012.22 260.322 1015.27 259.233C1015.05 259.233 1014.62 259.451 1014.18 259.451C1006.77 262.063 1006.55 262.281 993.478 268.593L993.26 268.81C992.171 270.116 991.517 271.205 991.081 272.511C988.466 274.47 984.762 276.864 981.929 279.041ZM1014.4 289.924C1014.4 290.141 1014.18 290.141 1014.18 290.359C1014.18 290.141 1014.18 290.141 1014.4 289.924Z" fill="#4081FF"/>
<path opacity="0.8" d="M1035.75 257.492C1035.75 257.492 1035.32 257.492 1034.45 257.71C1024.2 260.539 1018.54 262.934 1012.44 265.981C1017.23 263.804 1022.03 262.281 1035.75 257.492Z" fill="#4081FF"/>
<path opacity="0.8" d="M1010.04 276.864C1008.95 276.211 1007.86 275.558 1006.99 274.905C1005.46 273.599 1004.16 272.293 1003.72 271.205C1006.55 269.463 1008.73 268.375 1010.48 267.287C1008.08 268.593 1005.46 270.116 1002.41 271.858L1002.19 272.075C1002.85 273.381 1003.94 274.687 1005.68 275.993C1005.68 275.993 1005.68 275.993 1005.46 275.993C1006.34 276.646 1007.42 277.299 1008.51 277.952C1009.6 278.605 1010.69 279.041 1012 279.694H1012.22C1022.68 274.687 1033.57 270.552 1043.82 265.328C1044.25 265.11 1044.25 265.11 1044.47 264.893H1044.25C1030.74 270.552 1023.77 273.817 1013.09 278.823C1012.22 277.952 1011.13 277.517 1010.04 276.864Z" fill="#4081FF"/>
<path opacity="0.8" d="M955.779 295.8C956.868 294.712 957.74 294.059 958.612 293.188C957.74 294.059 956.868 294.93 955.779 295.8Z" fill="#4081FF"/>
<path opacity="0.8" d="M1153.65 304.943C1157.57 314.955 1157.57 315.608 1159.75 328.45C1159.75 328.45 1159.97 329.538 1160.62 329.321V329.103C1159.09 318.438 1158.66 317.785 1154.52 305.813C1163.45 302.549 1169.55 298.631 1172.39 294.713C1172.39 294.713 1172.17 294.495 1171.95 294.495C1172.17 294.713 1172.39 294.713 1172.39 294.713C1175.44 290.577 1175.22 286.442 1171.52 282.306C1173.91 284.047 1177.18 286.442 1179.58 288.401C1181.1 289.924 1183.28 291.883 1184.59 293.407C1184.81 293.624 1184.81 293.624 1185.03 293.842C1185.24 294.06 1185.46 294.277 1185.46 294.277C1185.46 294.06 1181.54 290.142 1180.01 288.618L1179.14 287.748C1176.75 285.571 1173.04 283.177 1170.43 281.218C1174.13 285.353 1174.13 289.489 1171.3 293.624C1168.46 297.76 1162.36 301.46 1153.65 304.943ZM1171.52 293.842C1171.3 293.842 1171.52 293.842 1171.52 293.842V293.842Z" fill="#4081FF"/>
<path opacity="0.8" d="M1175.87 348.257C1170.86 349.999 1165.41 351.522 1159.09 353.046C1158.88 353.699 1159.31 354.134 1159.75 354.352C1165.85 353.046 1171.3 351.305 1176.31 349.781C1188.51 361.317 1193.96 367.629 1200.93 375.683C1189.6 380.689 1174.57 385.26 1155.83 388.524C1155.17 388.96 1155.83 390.048 1156.04 390.048C1170.86 387.436 1183.72 383.954 1193.96 380.036C1190.26 395.054 1190.26 395.707 1185.03 409.202C1183.28 409.638 1181.54 410.073 1179.8 410.508C1179.8 410.508 1179.8 410.508 1179.58 410.508C1172.17 412.249 1164.11 413.991 1155.39 415.514C1154.74 415.95 1154.95 416.82 1155.39 417.038H1155.61C1164.11 415.514 1171.73 413.991 1178.92 412.249L1175 422.262C1165.41 424.438 1165.41 424.438 1165.2 424.438C1164.76 424.656 1164.98 425.962 1165.41 425.962C1168.68 425.309 1171.95 424.656 1175.22 423.785L1175.44 423.568L1179.8 412.032C1181.54 411.597 1183.28 411.161 1185.03 410.726L1185.24 410.508C1191.35 394.837 1191.35 394.184 1194.61 379.818C1197.23 378.947 1201.59 376.771 1201.59 376.771H1201.81C1202.46 376.553 1210.3 372.635 1213.57 370.241C1213.57 370.241 1214.01 368.282 1207.91 349.128C1209.65 347.604 1210.96 346.298 1212.05 344.775C1213.14 343.251 1213.79 341.945 1214.23 340.422C1214.44 340.422 1214.44 340.639 1214.66 340.857C1217.06 343.251 1219.46 344.339 1219.67 349.563C1220.11 353.046 1219.67 355.005 1218.59 361.317C1217.71 360.664 1216.62 360.011 1215.53 359.358C1215.1 359.14 1214.66 358.923 1214.23 358.705C1214.23 359.14 1214.44 359.576 1214.44 360.011C1214.66 360.229 1214.88 360.229 1215.1 360.446L1214.66 362.188C1214.66 362.841 1214.88 363.494 1215.1 364.147L1215.75 360.882C1216.84 361.535 1217.93 362.188 1218.8 362.841H1219.02C1220.11 356.311 1220.55 351.74 1220.11 347.604C1221.2 349.563 1222.51 350.869 1223.16 356.311C1223.16 356.311 1223.16 356.528 1223.38 356.528C1223.6 354.569 1223.38 352.393 1222.51 350.434L1221.85 348.91C1221.64 348.475 1221.42 348.04 1221.42 347.822C1221.2 347.387 1221.2 347.169 1220.98 346.951C1220.98 347.169 1221.2 347.387 1221.2 347.387C1220.55 346.298 1219.89 345.21 1218.8 344.122C1217.5 342.598 1216.19 341.292 1214.44 339.769C1214.88 338.463 1214.88 336.939 1214.66 335.415C1214.66 335.415 1214.66 335.198 1214.44 334.762C1214.23 334.327 1214.01 334.109 1214.01 334.109C1214.23 335.633 1214.01 337.374 1213.57 338.898C1211.83 337.592 1209.65 336.286 1207.47 334.98C1207.69 335.415 1207.91 335.851 1207.91 336.286C1209.87 337.374 1211.61 338.463 1213.14 339.769C1212.7 341.075 1212.05 342.163 1211.18 343.469V343.686V343.469C1209 346.516 1205.51 349.346 1200.72 352.175C1200.72 352.175 1200.93 353.481 1201.37 353.481C1203.55 352.175 1205.51 350.869 1207.25 349.346C1209 355.222 1211.18 362.841 1212.48 368.717C1209.43 370.894 1205.51 373.071 1200.93 375.247C1191.35 363.929 1185.24 358.052 1175.22 348.475L1175.87 348.257ZM1207.69 348.04C1207.69 347.822 1207.69 347.822 1207.69 347.604C1207.69 347.604 1207.69 347.604 1207.47 347.604C1207.69 347.822 1207.69 347.822 1207.69 348.04Z" fill="#4081FF"/>
<path opacity="0.8" d="M1233.4 430.098C1233.19 427.921 1232.31 425.744 1231.01 423.785C1228.17 408.767 1226.87 404.414 1218.15 388.524V390.266C1224.69 402.455 1227.3 407.679 1230.35 422.915C1228.17 419.868 1224.69 416.82 1220.11 413.773L1219.02 414.644C1224.47 418.126 1228.39 421.609 1230.79 425.091C1232.1 427.268 1232.97 429.445 1233.19 431.621C1232.97 433.145 1232.75 434.886 1232.53 436.627C1232.31 437.28 1232.1 437.716 1231.66 438.369C1231.01 435.757 1229.7 433.145 1227.3 430.533H1227.08C1226.21 432.057 1225.56 433.363 1224.9 434.451C1222.94 425.744 1220.33 418.779 1217.93 413.991L1213.14 405.72C1212.92 405.937 1212.92 406.59 1213.14 407.026C1220.11 419.65 1222.73 427.703 1224.47 435.321C1220.98 441.851 1219.67 443.593 1214.23 450.993C1214.23 450.993 1214.01 451.211 1214.01 451.646C1213.79 452.081 1214.01 452.299 1214.01 452.299C1214.01 452.299 1218.37 447.728 1224.69 436.192C1225.34 439.022 1225.78 441.851 1226.21 444.681C1222.07 448.381 1215.97 452.081 1208.34 455.564C1208.34 455.129 1208.34 454.476 1208.34 454.04V453.823C1207.91 454.04 1207.91 454.04 1207.91 454.476C1207.69 454.911 1207.69 455.346 1207.47 455.999C1199.19 451.211 1189.38 446.857 1179.14 442.069H1178.92C1174.57 443.157 1170.21 444.028 1165.41 444.898C1165.41 444.898 1164.54 446.204 1165.41 446.422C1169.99 445.551 1174.57 444.463 1178.71 443.593C1193.96 450.558 1197.01 452.081 1205.51 456.652C1198.54 459.482 1190.26 462.094 1180.89 464.488C1180.67 464.706 1180.23 465.141 1180.45 465.794C1180.45 465.794 1180.67 465.794 1180.67 466.012C1190.91 463.4 1199.63 460.57 1207.04 457.305C1206.82 459.699 1206.82 462.529 1206.6 464.706C1204.64 465.576 1202.46 466.447 1200.06 467.318L1199.84 467.535C1197.01 472.759 1193.09 479.724 1189.6 484.73C1181.98 495.613 1181.98 495.613 1182.19 496.049C1182.19 496.049 1182.41 495.831 1182.63 495.831C1190.91 484.295 1191.35 483.86 1200.06 468.841C1202.46 467.971 1204.42 467.1 1206.6 466.229C1206.38 468.623 1205.51 474.065 1203.11 482.554C1197.67 491.478 1193.31 496.919 1185.9 506.279C1185.24 505.843 1184.59 505.19 1183.94 504.538C1186.33 498.878 1188.95 491.478 1190.69 485.601C1190.26 486.254 1190.04 486.907 1189.6 487.342C1187.86 492.784 1185.24 500.184 1182.85 505.408V505.626C1185.46 507.367 1187.21 509.326 1188.51 511.067C1186.77 513.679 1184.15 517.162 1182.41 519.774L1182.19 519.991C1182.19 520.209 1182.41 520.427 1182.41 520.644C1180.89 521.297 1179.14 521.95 1177.4 522.603C1178.05 514.332 1176.75 510.414 1174.13 501.708C1174.13 501.708 1174.13 501.708 1173.91 501.708C1173.69 501.708 1173.26 502.143 1173.26 502.796C1176.96 513.026 1176.75 516.291 1176.53 523.474C1178.71 522.821 1180.67 521.95 1182.63 521.08C1183.94 524.345 1183.28 527.61 1181.1 530.657C1180.45 531.527 1179.58 532.398 1178.49 533.269C1177.4 534.139 1176.09 535.228 1174.57 536.098C1174.78 535.881 1175 535.663 1175 535.445C1179.58 529.351 1177.18 522.821 1166.5 516.726C1166.5 516.944 1166.07 517.379 1165.63 517.597H1165.41C1175.66 523.474 1178.05 530.004 1173.69 536.098L1173.48 536.316C1171.73 537.404 1169.99 538.275 1167.81 539.363C1168.68 537.84 1170.21 536.098 1171.08 534.792C1172.17 532.398 1173.48 529.351 1174.13 526.957C1173.69 527.174 1173.48 527.61 1173.48 527.827C1172.17 532.18 1171.95 532.398 1170.64 535.228C1166.94 536.751 1163.02 538.057 1158.66 539.363C1159.53 535.881 1159.53 535.881 1159.31 528.262C1159.31 528.262 1159.31 528.262 1159.09 528.262C1158.66 528.262 1158.44 528.915 1158.44 529.133C1158.88 533.269 1158.88 533.269 1157.79 540.234C1162.36 538.928 1166.5 537.404 1170.21 535.881C1169.34 537.404 1168.03 539.146 1166.94 540.669C1169.12 539.581 1171.3 538.493 1173.04 537.404C1172.17 538.275 1171.3 539.363 1170.21 540.234C1164.32 544.587 1154.74 548.505 1141.88 551.77C1141.66 551.77 1141.66 551.988 1141.44 551.988L1141.66 551.77H1141.88C1134.91 553.511 1126.84 555.035 1117.91 556.123C1112.46 556.776 1107.01 557.429 1101.56 557.864C1101.35 557.864 1101.13 558.082 1101.13 558.3V558.517C1106.79 558.082 1112.24 557.429 1117.47 556.776C1125.97 555.688 1133.82 554.164 1140.57 552.423C1128.37 559.17 1127.93 559.606 1117.47 564.177C1116.6 564.394 1115.51 564.612 1114.64 564.612C1112.68 564.829 1110.72 565.265 1108.76 565.482C1106.14 565.918 1103.53 566.135 1100.69 566.353C1100.48 566.353 1100.04 566.571 1100.26 566.788C1102.87 566.571 1105.49 566.135 1108.1 565.918C1109.85 565.7 1111.59 565.482 1113.33 565.265L1106.58 567.877C1105.92 567.877 1105.27 568.094 1104.62 568.094C1103.96 568.094 1103.09 568.312 1102.22 568.312C1102.22 568.312 1101.56 568.53 1101.56 568.747C1102.44 568.747 1103.09 568.53 1103.96 568.53C1104.62 568.53 1105.27 568.312 1105.92 568.312H1106.14L1113.77 565.265C1114.64 565.047 1115.73 564.829 1116.6 564.829H1116.82C1128.8 559.388 1129.46 559.17 1141.23 552.64C1153.86 549.376 1163.45 545.458 1169.34 541.322L1170.64 540.234C1171.95 539.146 1173.04 538.275 1173.91 537.187C1175.22 536.316 1176.53 535.445 1177.62 534.575L1178.92 533.486C1180.01 532.398 1181.1 531.527 1181.76 530.439C1183.94 527.392 1184.59 524.345 1183.5 521.297C1192.22 517.597 1198.32 513.462 1201.59 509.108L1201.81 508.891L1202.46 508.02C1204.2 505.626 1205.29 503.014 1205.29 500.402C1205.29 497.137 1203.77 493.872 1200.72 490.825C1201.59 487.995 1202.46 485.601 1203.11 483.207C1204.86 480.377 1206.6 477.33 1208.78 473.847C1216.62 469.929 1222.29 465.794 1225.56 461.223C1226.87 459.482 1227.74 457.74 1228.17 455.999L1228.61 454.476C1229.05 452.952 1229.05 451.646 1229.05 450.122C1229.92 448.599 1230.57 447.293 1230.79 445.769L1231.22 444.246C1231.44 442.722 1231.44 441.416 1231.22 439.892C1231.44 439.457 1231.66 439.022 1231.88 438.586C1231.88 438.586 1231.88 438.586 1231.88 438.369C1232.31 437.28 1232.53 436.41 1232.75 435.321L1232.97 433.58C1233.19 432.71 1233.19 431.839 1232.97 430.968C1233.62 426.18 1234.06 423.132 1234.06 418.997C1234.49 422.044 1234.06 425.309 1233.4 430.098ZM1200.5 491.043V491.26C1205.95 496.702 1206.38 502.361 1202.68 507.802C1199.19 512.156 1192.87 516.291 1183.94 520.209C1183.72 519.774 1183.72 519.556 1183.5 519.121C1185.24 516.509 1187.64 513.026 1189.6 510.414L1189.82 510.197V509.979C1189.82 509.979 1189.82 509.979 1189.82 510.197C1196.36 499.314 1197.67 495.613 1197.67 495.396C1197.45 495.396 1197.23 495.613 1197.01 496.049L1196.79 496.266C1194.83 500.402 1192 505.843 1189.6 509.761C1188.73 508.673 1187.64 507.585 1186.33 506.496C1194.18 496.919 1198.32 491.043 1202.68 484.077C1202.24 486.254 1201.37 488.431 1200.5 491.043ZM1225.34 435.539C1225.99 434.451 1226.43 433.363 1227.08 432.274C1229.05 434.668 1230.57 437.063 1231.01 439.457C1230.79 439.892 1230.57 440.328 1230.13 440.763C1229.26 442.069 1227.96 443.375 1226.65 444.681C1226.43 441.198 1225.99 438.369 1225.34 435.539ZM1211.83 470.8C1211.18 471.235 1210.3 471.453 1209.65 471.888L1209.43 472.106C1207.47 475.589 1205.95 478.418 1204.2 481.03C1205.73 476.024 1206.82 471.453 1207.47 465.794C1213.36 463.182 1218.15 460.352 1221.85 457.523C1219.67 461.223 1216.62 465.141 1211.83 470.8C1211.83 470.582 1211.83 470.582 1211.83 470.8ZM1228.83 454.693C1228.39 456.217 1227.52 457.74 1226.43 459.264C1223.6 462.964 1219.24 466.447 1213.36 469.929C1215.53 467.535 1219.24 463.182 1223.16 456.87C1225.34 455.129 1227.08 453.387 1228.61 451.428C1228.83 450.993 1229.05 450.775 1229.26 450.34C1229.26 451.864 1229.26 453.17 1228.83 454.693ZM1224.47 454.476C1225.78 452.299 1227.08 449.905 1228.39 447.293C1228.61 447.946 1228.83 448.816 1229.05 449.469C1228.83 449.687 1228.83 449.905 1228.61 449.905C1227.52 451.646 1225.99 452.952 1224.47 454.476ZM1231.44 444.463C1231.01 445.987 1230.35 447.293 1229.48 448.816C1229.26 447.728 1229.05 446.857 1228.61 445.769C1226.65 449.469 1225.12 452.299 1223.38 455.129C1219.46 458.393 1214.23 461.441 1207.69 464.27C1207.91 461.876 1208.13 459.482 1208.34 456.652C1216.19 453.17 1222.29 449.469 1226.43 445.551C1227.74 444.246 1229.05 442.94 1229.92 441.634C1230.35 440.981 1230.79 440.328 1231.22 439.675C1231.66 441.416 1231.66 442.94 1231.44 444.463ZM1233.19 434.233C1232.97 434.886 1232.75 435.539 1232.53 436.192C1232.75 434.668 1232.97 433.363 1233.19 432.274C1233.4 432.927 1233.4 433.58 1233.19 434.233Z" fill="#4081FF"/>
<path opacity="0.8" d="M1234.71 418.779C1234.93 415.95 1234.93 413.12 1234.93 409.202C1234.93 413.338 1234.71 416.167 1234.71 418.779Z" fill="#4081FF"/>
<path opacity="0.8" d="M1234.71 400.931C1234.49 399.842 1234.49 398.537 1234.28 397.448C1234.49 398.972 1234.49 400.713 1234.71 403.107C1234.71 405.502 1234.71 407.678 1234.93 409.42C1234.93 408.114 1234.93 406.808 1234.93 405.066L1234.71 400.931Z" fill="#4081FF"/>
<path opacity="0.8" d="M1163.89 287.965C1163.89 287.747 1163.89 287.747 1163.89 287.965C1163.89 287.747 1163.89 287.747 1163.89 287.965C1163.23 288.618 1162.58 289.271 1161.71 290.141C1136.43 276.211 1117.91 269.246 1117.69 269.246C1117.69 269.246 1117.91 269.464 1118.78 269.899C1137.74 277.735 1146.67 282.306 1161.49 290.359C1161.93 290.577 1162.36 290.794 1162.8 291.012C1162.8 291.012 1162.8 291.012 1162.8 291.23H1162.58L1161.49 290.577C1158.88 292.753 1155.39 294.93 1150.6 297.106C1142.75 292.1 1141.23 291.23 1129.68 284.265H1129.46C1128.8 284.482 1127.93 284.7 1127.06 285.135C1127.06 285.135 1127.5 285.788 1128.15 286.006C1129.02 285.788 1129.68 285.57 1130.55 285.353C1137.74 289.706 1137.74 289.706 1150.16 297.542C1143.84 300.154 1135.56 302.548 1125.75 304.507C1125.75 304.942 1126.19 305.378 1126.62 305.595C1146.89 301.677 1160.18 295.801 1164.98 289.271C1164.98 289.271 1164.76 289.271 1164.54 289.053C1164.76 289.053 1164.76 289.271 1164.98 289.271C1167.38 286.006 1167.59 282.741 1165.41 279.476C1164.11 277.299 1161.71 275.34 1158.44 273.381L1157.13 272.511C1156.7 272.293 1156.48 272.076 1156.04 271.858C1156.48 272.076 1156.7 272.293 1157.13 272.511C1157.35 272.729 1157.57 272.729 1157.79 272.946C1160.62 274.905 1162.8 276.646 1164.11 278.605C1159.09 275.123 1157.57 274.034 1152.12 270.987C1154.95 272.729 1158 274.687 1164.32 278.823C1164.54 279.041 1164.54 279.041 1164.76 279.041C1164.76 279.041 1164.54 279.041 1164.54 278.823L1164.32 278.605C1165.85 281 1166.07 283.394 1165.2 285.788C1146.67 269.681 1130.77 263.587 1124.66 261.628C1124.23 261.41 1124.23 261.41 1123.79 261.41H1124.01C1145.37 269.681 1153.65 276.429 1164.98 286.006C1165.2 286.223 1165.2 286.223 1165.41 286.441C1165.2 286.441 1165.2 286.223 1165.2 286.223L1164.98 286.006C1164.76 286.223 1164.32 287.094 1163.89 287.965C1163.89 287.747 1163.89 287.747 1163.89 287.965ZM1151.47 297.542C1151.25 297.542 1151.47 297.542 1151.47 297.542V297.542ZM1165.41 278.605C1165.41 278.823 1165.41 278.823 1165.41 278.605C1165.41 278.823 1165.41 278.823 1165.41 278.605C1165.41 278.823 1165.41 278.823 1165.41 278.605ZM1166.29 286.223C1166.29 286.223 1166.29 286.441 1166.29 286.223C1166.29 286.223 1166.07 286.223 1165.85 286.006C1166.07 286.223 1166.07 286.223 1166.29 286.223Z" fill="#4081FF"/>
<path opacity="0.8" d="M1142.97 264.893C1142.75 264.893 1142.53 264.676 1142.31 264.676C1141.88 264.458 1141.66 264.458 1141.66 264.458L1142.75 265.546L1142.97 265.764C1144.49 266.417 1145.58 267.07 1146.67 267.723C1145.8 267.288 1144.93 266.852 1144.06 266.199C1143.84 265.546 1143.4 265.329 1142.97 264.893Z" fill="#4081FF"/>
<path opacity="0.8" d="M1152.12 270.117C1150.38 269.028 1148.85 268.375 1146.89 267.287C1149.07 268.375 1150.6 269.464 1152.12 270.117Z" fill="#4081FF"/>
</g>
</g>
<path opacity="0.5" d="M1320.13 517.162C1302.48 524.78 1282 516.727 1274.37 499.096C1266.74 481.466 1274.81 461.006 1292.46 453.387C1310.11 445.769 1330.59 453.823 1338.22 471.453C1345.85 489.084 1337.79 509.544 1320.13 517.162Z" fill="url(#paint13_radial_0_5532)"/>
<path opacity="0.5" d="M710.624 661.906C684.038 673.224 653.312 661.035 641.98 634.698C630.649 608.144 642.852 577.454 669.22 566.135C695.805 554.817 726.532 567.006 737.863 593.343C749.413 619.68 737.209 650.37 710.624 661.906Z" fill="url(#paint14_radial_0_5532)"/>
<path opacity="0.5" d="M723.262 304.289C710.623 309.731 696.241 303.854 690.793 291.447C685.345 278.823 691.229 264.457 703.65 259.016C716.289 253.574 730.672 259.451 736.12 271.858C741.567 284.264 735.902 298.848 723.262 304.289Z" fill="url(#paint15_radial_0_5532)"/>
<path opacity="0.5" d="M1166.72 848.223C1120.31 868.248 1066.48 846.7 1046.43 800.338C1026.38 753.976 1047.96 699.996 1094.37 680.189C1140.79 660.164 1194.61 681.713 1214.66 728.075C1234.71 774.436 1213.14 828.199 1166.72 848.223Z" fill="url(#paint16_radial_0_5532)"/>
<path d="M1176.09 597.478C1166.94 601.396 1156.26 597.26 1152.34 588.119C1148.42 578.977 1152.56 568.312 1161.71 564.394C1170.86 560.476 1181.54 564.611 1185.46 573.753C1189.6 582.677 1185.24 593.343 1176.09 597.478Z" fill="url(#paint17_radial_0_5532)"/>
<defs>
<filter id="filter0_d_0_5532" x="845.966" y="196.492" width="449.963" height="433.255" filterUnits="userSpaceOnUse" color-interpolation-filters="sRGB">
<feFlood flood-opacity="0" result="BackgroundImageFix"/>
<feColorMatrix in="SourceAlpha" type="matrix" values="0 0 0 0 0 0 0 0 0 0 0 0 0 0 0 0 0 0 127 0" result="hardAlpha"/>
<feOffset/>
<feGaussianBlur stdDeviation="30.5"/>
<feColorMatrix type="matrix" values="0 0 0 0 0.3125 0 0 0 0 0.62875 0 0 0 0 1 0 0 0 1 0"/>
<feBlend mode="normal" in2="BackgroundImageFix" result="effect1_dropShadow_0_5532"/>
<feBlend mode="normal" in="SourceGraphic" in2="effect1_dropShadow_0_5532" result="shape"/>
</filter>
<radialGradient id="paint0_radial_0_5532" cx="0" cy="0" r="1" gradientUnits="userSpaceOnUse" gradientTransform="translate(588.988 764.206) rotate(66.6665) scale(15.4953 15.5078)">
<stop stop-color="white"/>
<stop offset="0.0178931" stop-color="#FCFDFF" stop-opacity="0.9791"/>
<stop offset="0.2684" stop-color="#D6E4FF" stop-opacity="0.6871"/>
<stop offset="0.4999" stop-color="#BBD3FF" stop-opacity="0.4171"/>
<stop offset="0.7037" stop-color="#AAC8FF" stop-opacity="0.1796"/>
<stop offset="0.8577" stop-color="#A4C4FF" stop-opacity="0"/>
</radialGradient>
<radialGradient id="paint1_radial_0_5532" cx="0" cy="0" r="1" gradientUnits="userSpaceOnUse" gradientTransform="translate(662.831 816.342) rotate(66.6664) scale(9.76145 9.76931)">
<stop stop-color="white"/>
<stop offset="0.0178931" stop-color="#FCFDFF" stop-opacity="0.9791"/>
<stop offset="0.2684" stop-color="#D6E4FF" stop-opacity="0.6871"/>
<stop offset="0.4999" stop-color="#BBD3FF" stop-opacity="0.4171"/>
<stop offset="0.7037" stop-color="#AAC8FF" stop-opacity="0.1796"/>
<stop offset="0.8577" stop-color="#A4C4FF" stop-opacity="0"/>
</radialGradient>
<radialGradient id="paint2_radial_0_5532" cx="0" cy="0" r="1" gradientUnits="userSpaceOnUse" gradientTransform="translate(618.147 679.777) rotate(66.6664) scale(11.0822 11.0912)">
<stop stop-color="white"/>
<stop offset="0.0178931" stop-color="#FCFDFF" stop-opacity="0.9791"/>
<stop offset="0.2684" stop-color="#D6E4FF" stop-opacity="0.6871"/>
<stop offset="0.4999" stop-color="#BBD3FF" stop-opacity="0.4171"/>
<stop offset="0.7037" stop-color="#AAC8FF" stop-opacity="0.1796"/>
<stop offset="0.8577" stop-color="#A4C4FF" stop-opacity="0"/>
</radialGradient>
<radialGradient id="paint3_radial_0_5532" cx="0" cy="0" r="1" gradientUnits="userSpaceOnUse" gradientTransform="translate(677.301 668.284) rotate(66.6664) scale(9.76099 9.76886)">
<stop stop-color="white"/>
<stop offset="0.0178931" stop-color="#FCFDFF" stop-opacity="0.9791"/>
<stop offset="0.2684" stop-color="#D6E4FF" stop-opacity="0.6871"/>
<stop offset="0.4999" stop-color="#BBD3FF" stop-opacity="0.4171"/>
<stop offset="0.7037" stop-color="#AAC8FF" stop-opacity="0.1796"/>
<stop offset="0.8577" stop-color="#A4C4FF" stop-opacity="0"/>
</radialGradient>
<radialGradient id="paint4_radial_0_5532" cx="0" cy="0" r="1" gradientUnits="userSpaceOnUse" gradientTransform="translate(742.477 804.534) rotate(66.6664) scale(9.7608 9.76865)">
<stop stop-color="white"/>
<stop offset="0.0178931" stop-color="#FCFDFF" stop-opacity="0.9791"/>
<stop offset="0.2684" stop-color="#D6E4FF" stop-opacity="0.6871"/>
<stop offset="0.4999" stop-color="#BBD3FF" stop-opacity="0.4171"/>
<stop offset="0.7037" stop-color="#AAC8FF" stop-opacity="0.1796"/>
<stop offset="0.8577" stop-color="#A4C4FF" stop-opacity="0"/>
</radialGradient>
<radialGradient id="paint5_radial_0_5532" cx="0" cy="0" r="1" gradientUnits="userSpaceOnUse" gradientTransform="translate(718.237 871.844) rotate(66.6665) scale(9.7615 9.76933)">
<stop stop-color="white"/>
<stop offset="0.0178931" stop-color="#FCFDFF" stop-opacity="0.9791"/>
<stop offset="0.2684" stop-color="#D6E4FF" stop-opacity="0.6871"/>
<stop offset="0.4999" stop-color="#BBD3FF" stop-opacity="0.4171"/>
<stop offset="0.7037" stop-color="#AAC8FF" stop-opacity="0.1796"/>
<stop offset="0.8577" stop-color="#A4C4FF" stop-opacity="0"/>
</radialGradient>
<radialGradient id="paint6_radial_0_5532" cx="0" cy="0" r="1" gradientUnits="userSpaceOnUse" gradientTransform="translate(633.145 828.917) rotate(66.6663) scale(9.76116 9.76905)">
<stop stop-color="white"/>
<stop offset="0.0178931" stop-color="#FCFDFF" stop-opacity="0.9791"/>
<stop offset="0.2684" stop-color="#D6E4FF" stop-opacity="0.6871"/>
<stop offset="0.4999" stop-color="#BBD3FF" stop-opacity="0.4171"/>
<stop offset="0.7037" stop-color="#AAC8FF" stop-opacity="0.1796"/>
<stop offset="0.8577" stop-color="#A4C4FF" stop-opacity="0"/>
</radialGradient>
<radialGradient id="paint7_radial_0_5532" cx="0" cy="0" r="1" gradientUnits="userSpaceOnUse" gradientTransform="translate(1222.63 656.896) rotate(-113.334) scale(7.96387 7.97026)">
<stop stop-color="white"/>
<stop offset="0.0178931" stop-color="#FCFDFF" stop-opacity="0.9791"/>
<stop offset="0.2684" stop-color="#D6E4FF" stop-opacity="0.6871"/>
<stop offset="0.4999" stop-color="#BBD3FF" stop-opacity="0.4171"/>
<stop offset="0.7037" stop-color="#AAC8FF" stop-opacity="0.1796"/>
<stop offset="0.8577" stop-color="#A4C4FF" stop-opacity="0"/>
</radialGradient>
<radialGradient id="paint8_radial_0_5532" cx="0" cy="0" r="1" gradientUnits="userSpaceOnUse" gradientTransform="translate(1315.45 737.717) rotate(-113.334) scale(9.04165 9.04896)">
<stop stop-color="white"/>
<stop offset="0.0178931" stop-color="#FCFDFF" stop-opacity="0.9791"/>
<stop offset="0.2684" stop-color="#D6E4FF" stop-opacity="0.6871"/>
<stop offset="0.4999" stop-color="#BBD3FF" stop-opacity="0.4171"/>
<stop offset="0.7037" stop-color="#AAC8FF" stop-opacity="0.1796"/>
<stop offset="0.8577" stop-color="#A4C4FF" stop-opacity="0"/>
</radialGradient>
<radialGradient id="paint9_radial_0_5532" cx="0" cy="0" r="1" gradientUnits="userSpaceOnUse" gradientTransform="translate(1329.18 621.179) rotate(113.334) scale(7.96277 7.96922)">
<stop stop-color="white"/>
<stop offset="0.0178931" stop-color="#FCFDFF" stop-opacity="0.9791"/>
<stop offset="0.2684" stop-color="#D6E4FF" stop-opacity="0.6871"/>
<stop offset="0.4999" stop-color="#BBD3FF" stop-opacity="0.4171"/>
<stop offset="0.7037" stop-color="#AAC8FF" stop-opacity="0.1796"/>
<stop offset="0.8577" stop-color="#A4C4FF" stop-opacity="0"/>
</radialGradient>
<radialGradient id="paint10_radial_0_5532" cx="0" cy="0" r="1" gradientUnits="userSpaceOnUse" gradientTransform="translate(1276 732.337) rotate(113.334) scale(7.9632 7.96961)">
<stop stop-color="white"/>
<stop offset="0.0178931" stop-color="#FCFDFF" stop-opacity="0.9791"/>
<stop offset="0.2684" stop-color="#D6E4FF" stop-opacity="0.6871"/>
<stop offset="0.4999" stop-color="#BBD3FF" stop-opacity="0.4171"/>
<stop offset="0.7037" stop-color="#AAC8FF" stop-opacity="0.1796"/>
<stop offset="0.8577" stop-color="#A4C4FF" stop-opacity="0"/>
</radialGradient>
<radialGradient id="paint11_radial_0_5532" cx="0" cy="0" r="1" gradientUnits="userSpaceOnUse" gradientTransform="translate(1295.78 787.251) rotate(113.334) scale(7.96384 7.9703)">
<stop stop-color="white"/>
<stop offset="0.0178931" stop-color="#FCFDFF" stop-opacity="0.9791"/>
<stop offset="0.2684" stop-color="#D6E4FF" stop-opacity="0.6871"/>
<stop offset="0.4999" stop-color="#BBD3FF" stop-opacity="0.4171"/>
<stop offset="0.7037" stop-color="#AAC8FF" stop-opacity="0.1796"/>
<stop offset="0.8577" stop-color="#A4C4FF" stop-opacity="0"/>
</radialGradient>
<radialGradient id="paint12_radial_0_5532" cx="0" cy="0" r="1" gradientUnits="userSpaceOnUse" gradientTransform="translate(1303.76 659.846) rotate(113.334) scale(7.96256 7.96895)">
<stop stop-color="white"/>
<stop offset="0.0178931" stop-color="#FCFDFF" stop-opacity="0.9791"/>
<stop offset="0.2684" stop-color="#D6E4FF" stop-opacity="0.6871"/>
<stop offset="0.4999" stop-color="#BBD3FF" stop-opacity="0.4171"/>
<stop offset="0.7037" stop-color="#AAC8FF" stop-opacity="0.1796"/>
<stop offset="0.8577" stop-color="#A4C4FF" stop-opacity="0"/>
</radialGradient>
<radialGradient id="paint13_radial_0_5532" cx="0" cy="0" r="1" gradientUnits="userSpaceOnUse" gradientTransform="translate(1306.4 485.314) rotate(66.6664) scale(34.7424 34.7703)">
<stop stop-color="#A4C4FF"/>
<stop offset="0.0475346" stop-color="#98B7F2" stop-opacity="0.9446"/>
<stop offset="0.2422" stop-color="#6A86C4" stop-opacity="0.7177"/>
<stop offset="0.4266" stop-color="#46609F" stop-opacity="0.5026"/>
<stop offset="0.5961" stop-color="#2C4585" stop-opacity="0.3051"/>
<stop offset="0.7451" stop-color="#1D3475" stop-opacity="0.1313"/>
<stop offset="0.8577" stop-color="#172E6F" stop-opacity="0"/>
</radialGradient>
<radialGradient id="paint14_radial_0_5532" cx="0" cy="0" r="1" gradientUnits="userSpaceOnUse" gradientTransform="translate(689.961 613.881) rotate(66.6664) scale(52.2003 52.2424)">
<stop stop-color="#A4C4FF"/>
<stop offset="0.0475346" stop-color="#98B7F2" stop-opacity="0.9446"/>
<stop offset="0.2422" stop-color="#6A86C4" stop-opacity="0.7177"/>
<stop offset="0.4266" stop-color="#46609F" stop-opacity="0.5026"/>
<stop offset="0.5961" stop-color="#2C4585" stop-opacity="0.3051"/>
<stop offset="0.7451" stop-color="#1D3475" stop-opacity="0.1313"/>
<stop offset="0.8577" stop-color="#172E6F" stop-opacity="0"/>
</radialGradient>
<radialGradient id="paint15_radial_0_5532" cx="0" cy="0" r="1" gradientUnits="userSpaceOnUse" gradientTransform="translate(713.478 281.594) rotate(66.6664) scale(24.7271 24.747)">
<stop stop-color="#A4C4FF"/>
<stop offset="0.0475346" stop-color="#98B7F2" stop-opacity="0.9446"/>
<stop offset="0.2422" stop-color="#6A86C4" stop-opacity="0.7177"/>
<stop offset="0.4266" stop-color="#46609F" stop-opacity="0.5026"/>
<stop offset="0.5961" stop-color="#2C4585" stop-opacity="0.3051"/>
<stop offset="0.7451" stop-color="#1D3475" stop-opacity="0.1313"/>
<stop offset="0.8577" stop-color="#172E6F" stop-opacity="0"/>
</radialGradient>
<radialGradient id="paint16_radial_0_5532" cx="0" cy="0" r="1" gradientUnits="userSpaceOnUse" gradientTransform="translate(1130.54 764.208) rotate(66.6664) scale(91.4882 91.5618)">
<stop stop-color="#A4C4FF"/>
<stop offset="0.0475346" stop-color="#98B7F2" stop-opacity="0.9446"/>
<stop offset="0.2422" stop-color="#6A86C4" stop-opacity="0.7177"/>
<stop offset="0.4266" stop-color="#46609F" stop-opacity="0.5026"/>
<stop offset="0.5961" stop-color="#2C4585" stop-opacity="0.3051"/>
<stop offset="0.7451" stop-color="#1D3475" stop-opacity="0.1313"/>
<stop offset="0.8577" stop-color="#172E6F" stop-opacity="0"/>
</radialGradient>
<radialGradient id="paint17_radial_0_5532" cx="0" cy="0" r="1" gradientUnits="userSpaceOnUse" gradientTransform="translate(1168.9 580.76) rotate(66.6663) scale(18.1082 18.1229)">
<stop stop-color="#A4C4FF"/>
<stop offset="0.0475346" stop-color="#98B7F2" stop-opacity="0.9446"/>
<stop offset="0.2422" stop-color="#6A86C4" stop-opacity="0.7177"/>
<stop offset="0.4266" stop-color="#46609F" stop-opacity="0.5026"/>
<stop offset="0.5961" stop-color="#2C4585" stop-opacity="0.3051"/>
<stop offset="0.7451" stop-color="#1D3475" stop-opacity="0.1313"/>
<stop offset="0.8577" stop-color="#172E6F" stop-opacity="0"/>
</radialGradient>
</defs>
</svg>
