<svg width="65" height="65" viewBox="0 0 65 65" fill="none" xmlns="http://www.w3.org/2000/svg">
<path d="M48.5463 42.3301C45.1236 42.3301 42.3408 45.1131 42.3408 48.5359C42.3408 51.9222 45.1054 54.7316 48.5463 54.7316C51.9588 54.7316 54.7314 51.9486 54.7314 48.5359C54.7314 45.0999 51.9314 42.3301 48.5463 42.3301ZM44.3721 48.5359C44.3721 46.3014 46.1291 44.4833 48.333 44.3716C47.3207 46.3267 46.0461 48.1344 44.5447 49.7446C44.433 49.3586 44.3721 48.9524 44.3721 48.5359ZM48.5463 52.7002C47.4189 52.7002 46.4033 52.2533 45.6518 51.5322C47.5611 49.5719 49.1658 47.3069 50.3947 44.7982C51.0876 45.1464 51.6701 45.6803 52.0771 46.3403C52.4842 47.0003 52.7 47.7605 52.7002 48.5359C52.7002 50.8314 50.8314 52.7002 48.5463 52.7002Z" fill="#E1E5E1"/>
<path d="M64.0961 44.9097L61.0187 44.5542C60.775 43.7924 60.4602 43.051 60.0742 42.3298L61.882 39.7906C62.1664 39.3843 62.1156 38.8359 61.7703 38.4804L58.3273 35.0372C58.1507 34.8607 57.915 34.7558 57.6656 34.7426C57.4162 34.7295 57.1708 34.8091 56.9766 34.9661L54.5492 36.8959C53.8383 36.5303 53.0867 36.2256 52.3148 35.9919L51.7969 32.9144C51.7582 32.6758 51.6357 32.4588 51.4514 32.3024C51.2671 32.1461 51.0331 32.0605 50.7914 32.0612H46.993C46.7594 27.1859 44.7992 22.7575 41.7219 19.355L41.7198 19.3529L44.6144 16.4582L44.6164 16.4603C48.1736 20.305 50.393 25.1966 50.9437 30.4057C51.0047 30.9643 51.5125 31.3706 52.0609 31.3096C52.6195 31.2487 53.0258 30.7408 52.9648 30.1924C52.3595 24.5217 49.9369 19.1988 46.0586 15.018L46.0566 15.016L46.9879 14.0836H46.993L52.5992 14.0632C52.8734 14.0632 53.1273 13.9515 53.3203 13.7687L59.3328 7.75581C59.5969 7.49173 59.6984 7.09562 59.5867 6.72997C59.475 6.37448 59.1703 6.1104 58.7945 6.0393L54.407 5.21659L53.5945 0.828821C53.5635 0.647141 53.4824 0.477712 53.3604 0.339561C53.2384 0.201409 53.0803 0.100007 52.9039 0.046741C52.5383 -0.0649847 52.1523 0.0264273 51.8781 0.290506L45.8555 6.31354C45.6727 6.50652 45.5609 6.76044 45.5609 7.03468L45.5508 12.6413V12.6484L44.6205 13.5798L44.6164 13.5757C39.7057 9.0246 33.2537 6.50241 26.5586 6.51667C11.9133 6.51667 0 18.4307 0 33.0769C0 47.7231 11.9133 59.6372 26.5586 59.6372C29.5141 59.6372 32.3883 59.1496 35.0797 58.2254C35.1203 58.3574 35.2016 58.4691 35.3031 58.5808L38.7461 62.024C39.1117 62.3897 39.6906 62.4201 40.0969 62.1053L42.5344 60.1653C43.2453 60.531 43.9867 60.8357 44.7586 61.0693L45.2766 64.157C45.3174 64.3937 45.4408 64.6083 45.6249 64.7627C45.809 64.917 46.0418 65.0011 46.282 65H51.157C51.675 65 52.1117 64.614 52.1625 64.096L52.518 61.0083C53.2898 60.7646 54.0312 60.4497 54.732 60.0638L57.2812 61.8818C57.6875 62.1662 58.2461 62.1154 58.5914 61.7701L62.0242 58.3269C62.3898 57.9613 62.4203 57.3823 62.1055 56.9761L60.1758 54.5486C60.5516 53.8274 60.8461 53.0758 61.0797 52.3039L64.157 51.7859C64.3937 51.7451 64.6083 51.6216 64.7627 51.4375C64.917 51.2534 65.0011 51.0206 65 50.7804V45.9152C65 45.3972 64.6141 44.9605 64.0961 44.9097ZM47.5922 7.46126L51.9492 3.09381L52.5383 6.27291C52.6094 6.68934 52.9344 7.01436 53.3508 7.08546L56.5297 7.68471L52.1828 12.0319L47.582 12.0522L47.5922 7.46126ZM40.2898 20.7871C43.1234 23.9662 44.8906 28.1204 44.982 32.691C44.9414 32.7722 44.9211 32.8636 44.9109 32.9652L44.5555 36.063C43.7836 36.3068 43.0422 36.6217 42.3414 36.9975L40.6656 35.8091C41.0841 33.6713 41.0079 31.4661 40.4428 29.3624C39.8777 27.2586 38.8387 25.312 37.4055 23.6716L37.4034 23.6686L40.2878 20.784L40.2898 20.7871ZM2.03125 33.0769C2.03125 19.548 13.0305 8.54805 26.5586 8.54805C32.9469 8.54805 38.7969 10.9755 43.1742 15.018L43.1783 15.021L40.2837 17.9157C40.2817 17.9157 40.2807 17.9137 40.2797 17.9127C36.6437 14.6219 31.8297 12.6108 26.5586 12.6108C15.275 12.6108 6.09375 21.7926 6.09375 33.0769C6.09375 44.3612 15.275 53.543 26.5586 53.543C27.1172 53.543 27.5742 53.086 27.5742 52.5273C27.5742 51.9687 27.1172 51.5117 26.5586 51.5117C16.3922 51.5117 8.125 43.244 8.125 33.0769C8.125 22.9099 16.3922 14.6422 26.5586 14.6422C31.2812 14.6422 35.5875 16.4298 38.8477 19.3448L38.8507 19.3479L35.9663 22.2324L35.9633 22.2294C33.3587 19.9542 30.0169 18.7018 26.5586 18.7049C18.6367 18.7049 12.1875 25.1546 12.1875 33.0769C12.1875 40.9993 18.6367 47.4489 26.5586 47.4489C27.8891 47.4489 29.2094 47.2661 30.4789 46.9106C30.7388 46.8365 30.9587 46.6622 31.0901 46.426C31.2215 46.1898 31.2538 45.9111 31.1797 45.6511C31.1056 45.3912 30.9313 45.1713 30.6951 45.0399C30.459 44.9085 30.1802 44.8762 29.9203 44.9503C28.8336 45.2652 27.7062 45.4175 26.5586 45.4175C19.7539 45.4175 14.2187 39.882 14.2187 33.0769C14.2187 26.2718 19.7539 20.7363 26.5586 20.7363C29.5953 20.7363 32.3781 21.8333 34.5312 23.6615L34.5353 23.6645L31.6408 26.5592C31.6387 26.5592 31.6377 26.5572 31.6367 26.5562C30.1892 25.4171 28.4005 24.7982 26.5586 24.7991C21.9984 24.7991 18.2812 28.5165 18.2812 33.0769C18.2812 37.6374 21.9984 41.3548 26.5586 41.3548C31.1187 41.3548 34.8359 37.6374 34.8359 33.0769C34.8359 31.1573 34.1758 29.4001 33.0789 27.9985L33.0769 27.9954L35.9714 25.1007L35.9734 25.1038C37.1349 26.4692 37.9833 28.0724 38.4588 29.8008C38.9343 31.5293 39.0254 33.3409 38.7258 35.1083C38.6344 35.1591 38.5531 35.22 38.482 35.2911L35.0492 38.7343C34.6836 39.0999 34.6531 39.6789 34.9781 40.0852L36.9078 42.5228C36.532 43.2338 36.2273 43.9854 35.9937 44.7573L32.9266 45.2753C32.688 45.314 32.471 45.4365 32.3146 45.6208C32.1583 45.8051 32.0727 46.0392 32.0734 46.2809V51.146C32.0734 51.664 32.4594 52.1008 32.9773 52.1515L36.0547 52.507C36.2984 53.2891 36.6133 54.0306 36.9992 54.7415L36.4406 55.5236C33.3937 56.8643 30.0422 57.6058 26.5586 57.6058C13.0305 57.6058 2.03125 46.6059 2.03125 33.0769ZM31.6367 29.4408C32.3953 30.5015 32.8037 31.7728 32.8047 33.0769C32.8047 36.5201 30.0016 39.3234 26.5586 39.3234C23.1156 39.3234 20.3125 36.5201 20.3125 33.0769C20.3125 29.6337 23.1156 26.8304 26.5586 26.8304C27.9094 26.8304 29.1687 27.2672 30.1945 27.9985L30.1986 28.0015L25.8395 32.3598C25.7425 32.4535 25.6652 32.5656 25.6119 32.6895C25.5587 32.8134 25.5307 32.9467 25.5295 33.0816C25.5283 33.2164 25.554 33.3502 25.6051 33.475C25.6562 33.5998 25.7316 33.7132 25.8269 33.8086C25.9223 33.904 26.0357 33.9794 26.1605 34.0305C26.2853 34.0815 26.4191 34.1072 26.5539 34.1061C26.6888 34.1049 26.822 34.0769 26.946 34.0236C27.0699 33.9704 27.1819 33.893 27.2756 33.796L31.6347 29.4387L31.6367 29.4408ZM62.9687 49.9272L60.0945 50.4046C59.6883 50.4757 59.3734 50.7804 59.2719 51.1765C59.0281 52.2023 58.632 53.2079 58.0836 54.1423C57.8703 54.4978 57.9008 54.9548 58.1648 55.2799L59.9523 57.5347L57.7586 59.7286L55.382 58.0324C55.2183 57.9162 55.0237 57.8513 54.823 57.8459C54.6223 57.8404 54.4245 57.8947 54.2547 58.0019C53.3609 58.5504 52.3758 58.9668 51.3398 59.2207C50.9234 59.3325 50.6187 59.6778 50.568 60.0942L50.2531 62.9686H47.1352L46.6578 60.0841C46.5867 59.6879 46.282 59.3629 45.8859 59.2614C44.8602 59.0176 43.8648 58.6113 42.9508 58.073C42.7739 57.9682 42.5693 57.9198 42.3643 57.9343C42.1592 57.9489 41.9634 58.0256 41.8031 58.1543L39.5484 59.9419L37.3445 57.748L39.0305 55.3916C39.2539 55.0767 39.2793 54.6105 39.0711 54.2642C39.002 54.126 38.2687 53.0525 37.8219 51.3187C37.7692 51.1207 37.6591 50.9427 37.5055 50.8071C37.3519 50.6716 37.1616 50.5845 36.9586 50.5569L34.1047 50.242V47.134L36.9789 46.6567C37.3852 46.5856 37.7 46.2809 37.8016 45.8847C38.0453 44.8386 38.4516 43.8534 39 42.9392C39.2133 42.5838 39.1828 42.1165 38.9187 41.7915L37.1312 39.5265L39.3148 37.3326L41.6914 39.0289C41.8532 39.1442 42.0453 39.2095 42.2439 39.2167C42.4425 39.2239 42.6388 39.1727 42.8086 39.0695C43.8039 38.4733 44.8327 38.0579 45.7437 37.8303C46.1602 37.7288 46.4547 37.3834 46.5055 36.967L46.8203 34.0926H49.9383L50.4258 36.9772C50.4867 37.3834 50.7914 37.6983 51.1875 37.7999C52.2234 38.0436 53.2187 38.4499 54.1328 38.9882C54.4984 39.2015 54.9555 39.171 55.2906 38.907L57.5352 37.1194L59.7289 39.3132L58.043 41.6798C57.9315 41.8451 57.8686 42.0384 57.8614 42.2377C57.8542 42.437 57.903 42.6343 58.0023 42.8072C58.5711 43.7315 58.9773 44.7167 59.2414 45.7425C59.343 46.1488 59.6883 46.4535 60.1047 46.5043L62.9687 46.8192V49.9272Z" fill="#E1E5E1"/>
</svg>
