<svg width="345" height="345" viewBox="0 0 345 345" fill="none" xmlns="http://www.w3.org/2000/svg">
<mask id="mask0_257_3668" style="mask-type:alpha" maskUnits="userSpaceOnUse" x="0" y="0" width="345" height="345">
<circle cx="172.5" cy="172.5" r="172.5" fill="url(#paint0_linear_257_3668)"/>
</mask>
<g mask="url(#mask0_257_3668)">
<rect width="345" height="174" rx="23" fill="url(#paint1_linear_257_3668)"/>
</g>
<g clip-path="url(#clip0_257_3668)">
<path d="M243.594 68.4557C243.401 63.8313 243.401 59.5923 243.401 55.3537C243.401 53.2253 241.676 51.5001 239.548 51.5001C213.921 51.5001 194.268 43.9854 177.698 28.186C176.331 26.6961 174.015 26.5965 172.525 27.9636C172.448 28.0344 172.374 28.1089 172.303 28.186C155.732 43.9858 136.079 51.5001 110.453 51.5001C108.324 51.5001 106.599 53.2253 106.599 55.3537C106.599 59.5927 106.599 63.8317 106.407 68.2632C105.636 110.074 104.48 167.108 173.652 191H176.157C245.521 167.3 244.365 110.074 243.594 68.4557ZM175 183.293C118.738 163.254 113.728 119.709 113.921 81.1727L201.975 169.42C193.711 175.34 184.622 180.014 175 183.293ZM208.141 164.603L114.113 70.5752V68.4557C114.113 65.3729 114.306 62.0972 114.306 59.2069C124.036 58.9204 133.687 57.3659 143.015 54.5825L227.024 138.591C222.669 148.516 216.228 157.387 208.141 164.603ZM229.914 130.691L150.915 51.6926C159.787 47.9238 167.936 42.6433 175 36.0857C191.571 51.1147 211.031 58.4365 235.694 59.2073C235.694 62.2901 235.887 65.3729 235.887 68.4561C236.272 88.4945 236.657 110.653 229.914 130.691Z" fill="#7090E3"/>
</g>
<defs>
<linearGradient id="paint0_linear_257_3668" x1="172.5" y1="0" x2="172.5" y2="345" gradientUnits="userSpaceOnUse">
<stop stop-color="#15171D"/>
<stop offset="1" stop-color="#22242B"/>
</linearGradient>
<linearGradient id="paint1_linear_257_3668" x1="172.5" y1="0" x2="172.5" y2="174" gradientUnits="userSpaceOnUse">
<stop stop-color="#15171D"/>
<stop offset="1" stop-color="#22242B"/>
</linearGradient>
<clipPath id="clip0_257_3668">
<rect width="164" height="164" fill="white" transform="translate(93 27)"/>
</clipPath>
</defs>
</svg>
