<svg width="51" height="51" viewBox="0 0 51 51" fill="none" xmlns="http://www.w3.org/2000/svg">
<path fill-rule="evenodd" clip-rule="evenodd" d="M20.9293 5.8418L23.5331 8.72643H27.3166L29.9203 5.8418L36.1153 8.40732L35.9175 12.2883L38.5926 14.9633L42.4735 14.7655L45.0391 20.9605L42.1544 23.5642V27.3478L45.0391 29.9515L44.8367 30.4401C44.5722 31.0788 44.3726 31.5612 44.2059 31.9642C44.1297 32.1486 44.0602 32.3164 43.9946 32.4749L42.61 31.9019C42.6751 31.7445 42.7441 31.5777 42.8199 31.3945C42.9416 31.1005 43.0808 30.7639 43.2499 30.3553L40.6559 28.0139V22.8982L43.2499 20.5567L41.4937 16.316L38.0038 16.4938L34.3871 12.877L34.5649 9.3872L30.3241 7.63096L27.9827 10.225H22.867L20.5256 7.63096L16.2848 9.3872L16.4626 12.877L12.8458 16.4938L9.35618 16.316C9.17767 16.7471 9.03211 17.0979 8.90563 17.4027L8.8718 17.4843L7.48768 16.91L7.52135 16.8288C7.69256 16.4162 7.89842 15.9201 8.17366 15.2544L8.37583 14.7655L12.2571 14.9633L14.9321 12.2883L14.7343 8.40732L20.9293 5.8418ZM6.24229 19.9184C6.5347 19.2127 6.73611 18.7266 6.91361 18.2962L8.299 18.8674C8.12093 19.2992 7.91885 19.7869 7.62631 20.4929C7.61757 20.514 7.60874 20.5353 7.59984 20.5568L10.1938 22.8982V28.0139L7.59977 30.3553L9.35601 34.5961L12.8458 34.4182L16.4626 38.035L16.2848 41.5248L20.5256 43.2811L22.867 40.6871H27.9827L30.3241 43.2811L34.5649 41.5248L34.3871 38.035L38.0038 34.4182L41.4938 34.5961C41.6629 34.1879 41.8019 33.8517 41.9233 33.5579C41.9624 33.4635 41.9996 33.3734 42.0355 33.2867L43.4203 33.8594C43.3843 33.9463 43.347 34.0366 43.3078 34.1314C43.1411 34.5345 42.9412 35.0182 42.6757 35.6583L42.4733 36.1465L38.5926 35.9487L35.9175 38.6238L36.1153 42.5047L29.9203 45.0703L27.3166 42.1856H23.5331L20.9293 45.0703L14.7343 42.5047L14.9321 38.6238L12.2571 35.9487L8.37613 36.1465L5.81061 29.9515L8.69524 27.3478V23.5642L5.81055 20.9605L6.01298 20.4718C6.09538 20.2729 6.1715 20.0892 6.24229 19.9184Z" fill="#7090E3"/>
<path fill-rule="evenodd" clip-rule="evenodd" d="M25.4255 14.1016L35.2591 19.779V31.1339L25.4255 36.8113L15.5918 31.1339V19.779L25.4255 14.1016ZM17.0903 20.6442V30.2687L25.4255 35.081L33.7606 30.2687V20.6442L25.4255 15.8319L17.0903 20.6442Z" fill="#7090E3"/>
<path fill-rule="evenodd" clip-rule="evenodd" d="M5.88594 9.73535L11.2977 10.7739L14.4543 13.7904L13.419 14.8738L10.5816 12.1623L5.60352 11.207L5.88594 9.73535ZM40.3692 12.1623L45.3472 11.207L45.0648 9.73535L39.6531 10.7739L36.4964 13.7904L37.5317 14.8738L40.3692 12.1623ZM25.4254 17.5623L32.262 21.5094V29.4036L25.4254 33.3507L18.5888 29.4036V21.5094L25.4254 17.5623ZM25.4254 19.2927L20.0874 22.3745V28.5385L25.4254 31.6203L30.7635 28.5385V22.3745L25.4254 19.2927Z" fill="#7090E3"/>
<path fill-rule="evenodd" clip-rule="evenodd" d="M2.2478 24.7075C1.83399 24.7075 1.49853 25.043 1.49853 25.4568C1.49853 25.8706 1.83399 26.206 2.2478 26.206C2.6616 26.206 2.99706 25.8706 2.99706 25.4568C2.99706 25.043 2.6616 24.7075 2.2478 24.7075ZM0 25.4568C0 24.2154 1.00637 23.209 2.2478 23.209C3.48922 23.209 4.49559 24.2154 4.49559 25.4568C4.49559 26.6982 3.48922 27.7046 2.2478 27.7046C1.00637 27.7046 0 26.6982 0 25.4568Z" fill="#7090E3"/>
<path fill-rule="evenodd" clip-rule="evenodd" d="M25.4255 1.51806C25.0117 1.51806 24.6763 1.85352 24.6763 2.26733C24.6763 2.68114 25.0117 3.01659 25.4255 3.01659C25.8393 3.01659 26.1748 2.68114 26.1748 2.26733C26.1748 1.85352 25.8393 1.51806 25.4255 1.51806ZM23.1777 2.26733C23.1777 1.0259 24.1841 0.0195312 25.4255 0.0195312C26.667 0.0195312 27.6733 1.0259 27.6733 2.26733C27.6733 3.50875 26.667 4.51512 25.4255 4.51512C24.1841 4.51512 23.1777 3.50875 23.1777 2.26733Z" fill="#7090E3"/>
<path fill-rule="evenodd" clip-rule="evenodd" d="M38.4119 1.51806C37.9981 1.51806 37.6626 1.85352 37.6626 2.26733C37.6626 2.68114 37.9981 3.01659 38.4119 3.01659C38.8257 3.01659 39.1611 2.68114 39.1611 2.26733C39.1611 1.85352 38.8257 1.51806 38.4119 1.51806ZM36.1641 2.26733C36.1641 1.0259 37.1704 0.0195312 38.4119 0.0195312C39.6533 0.0195312 40.6597 1.0259 40.6597 2.26733C40.6597 3.50875 39.6533 4.51512 38.4119 4.51512C37.1704 4.51512 36.1641 3.50875 36.1641 2.26733Z" fill="#7090E3"/>
<path fill-rule="evenodd" clip-rule="evenodd" d="M12.4382 1.51806C12.0244 1.51806 11.689 1.85352 11.689 2.26733C11.689 2.68114 12.0244 3.01659 12.4382 3.01659C12.852 3.01659 13.1875 2.68114 13.1875 2.26733C13.1875 1.85352 12.852 1.51806 12.4382 1.51806ZM10.1904 2.26733C10.1904 1.0259 11.1968 0.0195312 12.4382 0.0195312C13.6796 0.0195312 14.686 1.0259 14.686 2.26733C14.686 3.50875 13.6796 4.51512 12.4382 4.51512C11.1968 4.51512 10.1904 3.50875 10.1904 2.26733Z" fill="#7090E3"/>
<path fill-rule="evenodd" clip-rule="evenodd" d="M25.4255 47.9849C25.0117 47.9849 24.6763 48.3203 24.6763 48.7341C24.6763 49.1479 25.0117 49.4834 25.4255 49.4834C25.8393 49.4834 26.1748 49.1479 26.1748 48.7341C26.1748 48.3203 25.8393 47.9849 25.4255 47.9849ZM23.1777 48.7341C23.1777 47.4927 24.1841 46.4863 25.4255 46.4863C26.667 46.4863 27.6733 47.4927 27.6733 48.7341C27.6733 49.9755 26.667 50.9819 25.4255 50.9819C24.1841 50.9819 23.1777 49.9755 23.1777 48.7341Z" fill="#7090E3"/>
<path fill-rule="evenodd" clip-rule="evenodd" d="M38.4119 47.9849C37.9981 47.9849 37.6626 48.3203 37.6626 48.7341C37.6626 49.1479 37.9981 49.4834 38.4119 49.4834C38.8257 49.4834 39.1611 49.1479 39.1611 48.7341C39.1611 48.3203 38.8257 47.9849 38.4119 47.9849ZM36.1641 48.7341C36.1641 47.4927 37.1704 46.4863 38.4119 46.4863C39.6533 46.4863 40.6597 47.4927 40.6597 48.7341C40.6597 49.9755 39.6533 50.9819 38.4119 50.9819C37.1704 50.9819 36.1641 49.9755 36.1641 48.7341Z" fill="#7090E3"/>
<path fill-rule="evenodd" clip-rule="evenodd" d="M12.4382 47.9849C12.0244 47.9849 11.689 48.3203 11.689 48.7341C11.689 49.1479 12.0244 49.4834 12.4382 49.4834C12.852 49.4834 13.1875 49.1479 13.1875 48.7341C13.1875 48.3203 12.852 47.9849 12.4382 47.9849ZM10.1904 48.7341C10.1904 47.4927 11.1968 46.4863 12.4382 46.4863C13.6796 46.4863 14.686 47.4927 14.686 48.7341C14.686 49.9755 13.6796 50.9819 12.4382 50.9819C11.1968 50.9819 10.1904 49.9755 10.1904 48.7341Z" fill="#7090E3"/>
<path fill-rule="evenodd" clip-rule="evenodd" d="M48.7527 24.7075C48.3389 24.7075 48.0034 25.043 48.0034 25.4568C48.0034 25.8706 48.3389 26.206 48.7527 26.206C49.1665 26.206 49.5019 25.8706 49.5019 25.4568C49.5019 25.043 49.1665 24.7075 48.7527 24.7075ZM46.5049 25.4568C46.5049 24.2154 47.5113 23.209 48.7527 23.209C49.9941 23.209 51.0005 24.2154 51.0005 25.4568C51.0005 26.6982 49.9941 27.7046 48.7527 27.7046C47.5113 27.7046 46.5049 26.6982 46.5049 25.4568Z" fill="#7090E3"/>
<path fill-rule="evenodd" clip-rule="evenodd" d="M4.24584 38.6938C3.83204 38.6938 3.49658 39.0293 3.49658 39.4431C3.49658 39.8569 3.83204 40.1924 4.24584 40.1924C4.65965 40.1924 4.99511 39.8569 4.99511 39.4431C4.99511 39.0293 4.65965 38.6938 4.24584 38.6938ZM1.99805 39.4431C1.99805 38.2017 3.00442 37.1953 4.24584 37.1953C5.48727 37.1953 6.49364 38.2017 6.49364 39.4431C6.49364 40.6845 5.48727 41.6909 4.24584 41.6909C3.00442 41.6909 1.99805 40.6845 1.99805 39.4431Z" fill="#7090E3"/>
<path fill-rule="evenodd" clip-rule="evenodd" d="M46.7546 38.6938C46.3408 38.6938 46.0054 39.0293 46.0054 39.4431C46.0054 39.8569 46.3408 40.1924 46.7546 40.1924C47.1684 40.1924 47.5039 39.8569 47.5039 39.4431C47.5039 39.0293 47.1684 38.6938 46.7546 38.6938ZM44.5068 39.4431C44.5068 38.2017 45.5132 37.1953 46.7546 37.1953C47.9961 37.1953 49.0024 38.2017 49.0024 39.4431C49.0024 40.6845 47.9961 41.6909 46.7546 41.6909C45.5132 41.6909 44.5068 40.6845 44.5068 39.4431Z" fill="#7090E3"/>
<path fill-rule="evenodd" clip-rule="evenodd" d="M4.24584 9.72216C3.83204 9.72216 3.49658 10.0576 3.49658 10.4714C3.49658 10.8852 3.83204 11.2207 4.24584 11.2207C4.65965 11.2207 4.99511 10.8852 4.99511 10.4714C4.99511 10.0576 4.65965 9.72216 4.24584 9.72216ZM1.99805 10.4714C1.99805 9.23001 3.00442 8.22363 4.24584 8.22363C5.48727 8.22363 6.49364 9.23001 6.49364 10.4714C6.49364 11.7129 5.48727 12.7192 4.24584 12.7192C3.00442 12.7192 1.99805 11.7129 1.99805 10.4714Z" fill="#7090E3"/>
<path fill-rule="evenodd" clip-rule="evenodd" d="M46.7546 9.72216C46.3408 9.72216 46.0054 10.0576 46.0054 10.4714C46.0054 10.8852 46.3408 11.2207 46.7546 11.2207C47.1684 11.2207 47.5039 10.8852 47.5039 10.4714C47.5039 10.0576 47.1684 9.72216 46.7546 9.72216ZM44.5068 10.4714C44.5068 9.23001 45.5132 8.22363 46.7546 8.22363C47.9961 8.22363 49.0024 9.23001 49.0024 10.4714C49.0024 11.7129 47.9961 12.7192 46.7546 12.7192C45.5132 12.7192 44.5068 11.7129 44.5068 10.4714Z" fill="#7090E3"/>
<path fill-rule="evenodd" clip-rule="evenodd" d="M15.7804 4.76882L13.3701 3.87711L13.8901 2.47168L16.9005 3.5854L18.6372 7.58857L17.2625 8.18499L15.7804 4.76882ZM36.8952 2.49897L37.5439 3.84982L35.658 4.75548L33.5418 8.27302L32.2578 7.50053L34.6051 3.59875L36.8952 2.49897ZM24.6756 9.47552V3.76572H26.1741V9.47552H24.6756ZM3.74609 24.707H9.44411V26.2055H3.74609V24.707ZM24.6756 26.2055H23.177V24.707H24.6756V26.2055ZM27.6726 26.2055H26.1741V24.707H27.6726V26.2055ZM41.4056 24.707H47.2534V26.2055H41.4056V24.707ZM14.4049 37.0363L11.2494 40.1918H5.74413V38.6933H10.6287L13.3453 35.9767L14.4049 37.0363ZM40.8486 38.6933L37.0456 36.2166L36.2279 37.4723L40.4037 40.1918H45.2554V38.6933H40.8486ZM24.6756 47.3535V41.437H26.1741V47.3535H24.6756ZM34.977 45.9827L33.842 42.6851L32.425 43.1728L33.7698 47.0798L36.9093 48.5082L37.5299 47.1442L34.977 45.9827ZM18.89 43.5151L16.9136 46.9967L14.3203 48.9126L13.4298 47.7073L15.7673 45.9804L17.5868 42.7753L18.89 43.5151Z" fill="#7090E3"/>
</svg>
