<svg width="51" height="51" viewBox="0 0 51 51" fill="none" xmlns="http://www.w3.org/2000/svg">
<path fill-rule="evenodd" clip-rule="evenodd" d="M0 0.0166016H5.89267V1.5122H1.4956V3.25707C1.4956 3.66964 1.83083 4.00487 2.2434 4.00487H48.7566C49.1692 4.00487 49.5044 3.66964 49.5044 3.25707V1.5122H7.38827V0.0166016H51V3.25707C51 4.23346 50.3755 5.0646 49.5044 5.37271V38.0836C49.5044 40.1488 47.8305 41.8226 45.7654 41.8226H38.063V40.327H45.7654C47.0045 40.327 48.0088 39.3228 48.0088 38.0836V5.50047H2.9912V38.0836C2.9912 39.3228 3.99546 40.327 5.2346 40.327H36.5674V41.8226H25.5733V46.2482H24.0777V41.8226H5.2346C3.16946 41.8226 1.4956 40.1488 1.4956 38.0836V5.37271C0.624454 5.0646 0 4.23346 0 3.25707V0.0166016Z" fill="#7090E3"/>
<path fill-rule="evenodd" clip-rule="evenodd" d="M24.8259 46.9956C24.1376 46.9956 23.5796 47.5536 23.5796 48.2419C23.5796 48.9303 24.1376 49.4883 24.8259 49.4883C25.5143 49.4883 26.0723 48.9303 26.0723 48.2419C26.0723 47.5536 25.5143 46.9956 24.8259 46.9956ZM22.084 48.2419C22.084 46.7276 23.3116 45.5 24.8259 45.5C26.3403 45.5 27.5679 46.7276 27.5679 48.2419C27.5679 49.7563 26.3403 50.9839 24.8259 50.9839C23.3116 50.9839 22.084 49.7563 22.084 48.2419Z" fill="#7090E3"/>
<path fill-rule="evenodd" clip-rule="evenodd" d="M24.7518 9.34228H23.2562V7.84668H24.7518V9.34228ZM27.743 9.34228H26.2474V7.84668H27.743V9.34228ZM5.89258 10.2016H13.3706V13.1928H16.5759C18.6409 13.1928 20.3149 14.8667 20.3149 16.9318V22.1664H25.1287V22.0616L23.5248 20.6135L25.0798 16.8592L27.238 16.9695L28.4436 15.7639L28.3333 13.6057L32.0876 12.0507L33.5357 13.6546H35.2407L36.6888 12.0507L40.4431 13.6057L40.3328 15.7639L41.5385 16.9695L43.6966 16.8592L45.2517 20.6135L43.6477 22.0616V23.7666L45.2517 25.2147L43.6966 28.969L41.5385 28.8587L40.3328 30.0644L40.4431 32.2225L36.6888 33.7776L35.2407 32.1736H33.5357L32.0876 33.7776L28.3333 32.2225L28.4436 30.0644L27.238 28.8587L25.0798 28.969L23.5248 25.2147L25.1287 23.7666V23.662H20.3149V28.8966C20.3149 30.9616 18.6409 32.6356 16.5759 32.6356H13.3706V35.6268H5.89258V28.1488H13.3706V31.14H16.5759C17.8149 31.14 18.8193 30.1356 18.8193 28.8966V23.662H13.3706V26.6532H5.89258V19.1752H13.3706V22.1664H18.8193V16.9318C18.8193 15.6927 17.8149 14.6884 16.5759 14.6884H13.3706V17.6796H5.89258V10.2016ZM7.38818 11.6972V16.184H11.875V11.6972H7.38818ZM29.8809 14.5835L29.9712 16.3514L27.8255 18.4971L26.0576 18.4068L25.3104 20.2107L26.6243 21.3969V24.4313L25.3104 25.6175L26.0576 27.4215L27.8255 27.3311L29.9712 29.4768L29.8809 31.2447L31.6848 31.9919L32.871 30.678H35.9054L37.0916 31.9919L38.8956 31.2447L38.8052 29.4768L40.9509 27.3311L42.7188 27.4215L43.466 25.6175L42.1521 24.4313V21.3969L43.466 20.2107L42.7188 18.4068L40.9509 18.4971L38.8052 16.3514L38.8956 14.5835L37.0916 13.8363L35.9054 15.1502H32.871L31.6848 13.8363L29.8809 14.5835ZM34.3882 19.4807C32.492 19.4807 30.9548 21.0179 30.9548 22.9141C30.9548 24.8104 32.492 26.3476 34.3882 26.3476C36.2844 26.3476 37.8217 24.8104 37.8216 22.9141C37.8216 21.0179 36.2844 19.4807 34.3882 19.4807ZM29.4592 22.9141C29.4592 20.1919 31.666 17.9851 34.3882 17.9851C37.1104 17.9851 39.3172 20.1919 39.3172 22.9141C39.3173 25.6364 37.1104 27.8432 34.3882 27.8432C31.6659 27.8432 29.4592 25.6364 29.4592 22.9141ZM7.38818 20.6708V25.1576H11.875V20.6708H7.38818ZM7.38818 29.6444V34.1312H11.875V29.6444H7.38818Z" fill="#7090E3"/>
</svg>
