<svg width="184" height="54" viewBox="0 0 184 54" fill="none" xmlns="http://www.w3.org/2000/svg">
<g clip-path="url(#clip0_6008_216)">
<path d="M177.181 54H6.81782C3.06974 54 0.00317383 50.9625 0.00317383 47.2501V6.75085C0.00317383 3.03839 3.06974 0.000976562 6.81782 0.000976562H177.181C180.929 0.000976562 183.996 3.03839 183.996 6.75085V47.2501C183.996 50.9625 180.929 54 177.181 54Z" fill="#100F0D"/>
<path d="M177.181 0.000976562H6.81782C3.06974 0.000976562 0.00317383 3.03839 0.00317383 6.75085V47.2501C0.00317383 50.9625 3.06974 54 6.81782 54H177.181C180.929 54 183.996 50.9625 183.996 47.2501V6.75085C183.996 3.03839 180.929 0.000976562 177.181 0.000976562ZM177.181 1.08041C180.338 1.08041 182.906 3.62433 182.906 6.75085V47.2501C182.906 50.3766 180.338 52.9205 177.181 52.9205H6.81782C3.6613 52.9205 1.09409 50.3766 1.09409 47.2501V6.75085C1.09409 3.62433 3.6613 1.08041 6.81782 1.08041H177.181Z" fill="#A2A2A1"/>
<path d="M145.748 40.5002H148.292V23.6227H145.748V40.5002ZM168.655 29.7028L165.74 37.0196H165.653L162.627 29.7028H159.888L164.426 39.9292L161.838 45.6179H164.49L171.484 29.7033L168.655 29.7028ZM154.232 38.5831C153.4 38.5831 152.238 38.1702 152.238 37.1498C152.238 35.8472 153.685 35.3479 154.934 35.3479C156.051 35.3479 156.579 35.5863 157.258 35.9122C157.06 37.4757 155.701 38.5831 154.232 38.5831ZM154.54 29.3337C152.699 29.3337 150.792 30.1373 150.003 31.9177L152.26 32.8511C152.742 31.9177 153.64 31.614 154.583 31.614C155.899 31.614 157.236 32.3949 157.258 33.785V33.9585C156.797 33.6979 155.81 33.3072 154.605 33.3072C152.171 33.3072 149.695 34.6313 149.695 37.1066C149.695 39.3647 151.69 40.8195 153.925 40.8195C155.634 40.8195 156.579 40.0596 157.169 39.1691H157.258V40.4726H159.714V34.0016C159.714 31.0053 157.454 29.3337 154.54 29.3337ZM138.822 31.7573H135.205V25.9726H138.822C140.723 25.9726 141.803 27.5314 141.803 28.8649C141.803 30.1727 140.723 31.7573 138.822 31.7573ZM138.757 23.6231H132.663V40.5006H135.205V34.1067H138.757C141.575 34.1067 144.346 32.086 144.346 28.8655C144.346 25.6456 141.575 23.6231 138.757 23.6231ZM105.527 38.586C103.77 38.586 102.3 37.1284 102.3 35.1283C102.3 33.1049 103.77 31.6267 105.527 31.6267C107.262 31.6267 108.623 33.105 108.623 35.1283C108.623 37.1284 107.262 38.586 105.527 38.586ZM108.448 30.6476H108.36C107.789 29.9736 106.691 29.3646 105.308 29.3646C102.409 29.3646 99.7524 31.8878 99.7524 35.1283C99.7524 38.3466 102.409 40.8477 105.308 40.8477C106.691 40.8477 107.789 40.2386 108.36 39.5431H108.448V40.3689C108.448 42.5663 107.262 43.7401 105.352 43.7401C103.793 43.7401 102.827 42.6311 102.431 41.6961L100.214 42.6094C100.85 44.1312 102.541 46.0023 105.352 46.0023C108.338 46.0023 110.864 44.262 110.864 40.0207V29.7124H108.448L108.448 30.6476ZM112.62 40.4997H115.166V23.6222H112.62V40.4997ZM118.921 34.9321C118.856 32.7136 120.657 31.583 121.952 31.583C122.962 31.583 123.818 32.0834 124.104 32.8006L118.921 34.9321ZM126.826 33.0179C126.343 31.7354 124.872 29.3646 121.864 29.3646C118.877 29.3646 116.396 31.6916 116.396 35.1062C116.396 38.325 118.856 40.8478 122.149 40.8478C124.805 40.8478 126.343 39.2389 126.98 38.3034L125.004 36.9983C124.345 37.9554 123.445 38.5861 122.149 38.5861C120.854 38.5861 119.931 37.9987 119.339 36.846L127.089 33.6708L126.826 33.0179ZM65.0744 31.1263V33.5621H70.9589C70.7832 34.9322 70.3221 35.9325 69.6193 36.6286C68.7627 37.4765 67.4233 38.412 65.0743 38.412C61.4513 38.412 58.619 35.5196 58.619 31.9311C58.619 28.3425 61.4513 25.4497 65.0743 25.4497C67.0286 25.4497 68.4555 26.2111 69.5096 27.1898L71.2447 25.4713C69.7731 24.0796 67.8192 23.0139 65.0743 23.0139C60.1112 23.0139 55.9395 27.0157 55.9395 31.9311C55.9395 36.8459 60.1112 40.8478 65.0743 40.8478C67.7528 40.8478 69.7732 39.9777 71.3538 38.3467C72.9788 36.7372 73.484 34.4755 73.484 32.6483C73.484 32.0835 73.4397 31.5615 73.3519 31.1263H65.0744ZM80.1747 38.586C78.4177 38.586 76.9026 37.1505 76.9026 35.1062C76.9026 33.0401 78.4177 31.6268 80.1747 31.6268C81.931 31.6268 83.4461 33.0401 83.4461 35.1062C83.4461 37.1505 81.931 38.586 80.1747 38.586ZM80.1747 29.3646C76.968 29.3646 74.3555 31.7786 74.3555 35.1062C74.3555 38.412 76.968 40.8478 80.1747 40.8478C83.3802 40.8478 85.9932 38.412 85.9932 35.1062C85.9932 31.7786 83.3802 29.3646 80.1747 29.3646ZM92.8676 38.586C91.1119 38.586 89.5962 37.1505 89.5962 35.1062C89.5962 33.0401 91.112 31.6268 92.8676 31.6268C94.6246 31.6268 96.1393 33.0401 96.1393 35.1062C96.1393 37.1505 94.6246 38.586 92.8676 38.586ZM92.8676 29.3646C89.6622 29.3646 87.0497 31.7786 87.0497 35.1062C87.0497 38.412 89.6622 40.8478 92.8676 40.8478C96.0743 40.8478 98.6868 38.412 98.6868 35.1062C98.6868 31.7786 96.0743 29.3646 92.8676 29.3646Z" fill="white"/>
<path d="M28.2357 26.223L13.7263 41.4774C13.7269 41.4805 13.728 41.4832 13.7285 41.4864C14.1735 43.1429 15.7009 44.3625 17.5138 44.3625C18.2384 44.3625 18.9188 44.1685 19.5023 43.8278L19.5486 43.8009L35.8817 34.4656L28.2357 26.223Z" fill="#EB3131"/>
<path d="M42.9161 23.6258L42.9021 23.6164L35.8507 19.5674L27.9062 26.5695L35.8783 34.4647L42.8925 30.456C44.1223 29.7984 44.9571 28.5143 44.9571 27.0335C44.9571 25.5633 44.1336 24.2856 42.9161 23.6258Z" fill="#F6B60B"/>
<path d="M13.7244 12.5247C13.6372 12.8433 13.5913 13.177 13.5913 13.5235V40.4795C13.5913 40.8254 13.6366 41.1602 13.7249 41.4777L28.7352 26.6131L13.7244 12.5247Z" fill="#5778C5"/>
<path d="M28.3432 27.0016L35.8537 19.5646L19.5391 10.1955C18.946 9.84366 18.2539 9.64062 17.5133 9.64062C15.7005 9.64062 14.171 10.8625 13.7259 12.5209C13.7253 12.5225 13.7253 12.5236 13.7253 12.5251L28.3432 27.0016Z" fill="#3BAD49"/>
<path d="M64.5974 13.2051H60.6214V14.1796H63.6008C63.5198 14.9749 63.2004 15.5993 62.6616 16.0528C62.1228 16.5064 61.4349 16.7341 60.6215 16.7341C59.7291 16.7341 58.9731 16.4262 58.3536 15.8145C57.7465 15.1901 57.4378 14.4181 57.4378 13.4879C57.4378 12.5577 57.7465 11.7856 58.3536 11.1613C58.9731 10.5497 59.7292 10.2438 60.6215 10.2438C61.0794 10.2438 61.5159 10.3218 61.9162 10.4927C62.3166 10.6635 62.6381 10.9019 62.8895 11.2078L63.6455 10.4589C63.3026 10.0729 62.8682 9.77761 62.3293 9.56243C61.7905 9.34724 61.2283 9.24397 60.6213 9.24397C59.431 9.24397 58.4216 9.65314 57.5974 10.4695C56.7732 11.2879 56.3601 12.2962 56.3601 13.4879C56.3601 14.6796 56.7732 15.6901 57.5974 16.5065C58.4216 17.3227 59.431 17.732 60.6213 17.732C61.8714 17.732 62.8681 17.3354 63.6347 16.5296C64.3098 15.8589 64.6548 14.9519 64.6548 13.8171C64.6548 13.6251 64.6314 13.4203 64.5974 13.2051ZM66.1376 9.4252V17.5505H70.927V16.5527H67.1918V13.9752H70.5608V13.0006H67.1918V10.4251H70.927V9.42517L66.1376 9.4252ZM77.6428 10.4251V9.4252H72.0057V10.4251H74.2972V17.5504H75.3514V10.4251H77.6428ZM82.7462 9.4252H81.6921V17.5505H82.7462V9.4252ZM89.7041 10.4251V9.4252H84.0671V10.4251H86.3584V17.5504H87.4125V10.4251H89.7041ZM100.341 10.4821C99.5278 9.65308 98.5312 9.2439 97.3407 9.2439C96.1482 9.2439 95.1516 9.65307 94.338 10.4694C93.5245 11.2752 93.1242 12.2856 93.1242 13.4878C93.1242 14.6901 93.5245 15.7005 94.338 16.5064C95.1515 17.3226 96.1482 17.7319 97.3407 17.7319C98.5204 17.7319 99.5277 17.3226 100.341 16.5064C101.155 15.7006 101.555 14.6902 101.555 13.4878C101.555 12.2961 101.155 11.2877 100.341 10.4821ZM95.094 11.1613C95.701 10.5496 96.4463 10.2437 97.3407 10.2437C98.233 10.2437 98.9784 10.5496 99.5746 11.1613C100.182 11.7624 100.48 12.547 100.48 13.4878C100.48 14.4308 100.182 15.2132 99.5746 15.8144C98.9784 16.4261 98.233 16.734 97.3407 16.734C96.4463 16.734 95.7009 16.4261 95.094 15.8144C94.4998 15.2006 94.2017 14.4307 94.2017 13.4878C94.2017 12.547 94.4998 11.775 95.094 11.1613ZM104.06 12.4902L104.015 10.9228H104.06L108.229 17.5504H109.33V9.42511H108.276V14.1795L108.321 15.7469H108.276L104.29 9.42511H103.005V17.5504H104.06V12.4902Z" fill="white" stroke="white" stroke-width="0.26666" stroke-miterlimit="10"/>
</g>
<defs>
<clipPath id="clip0_6008_216">
<rect width="184" height="54" fill="white"/>
</clipPath>
</defs>
</svg>
