<svg width="30" height="32" viewBox="0 0 30 32" fill="none" xmlns="http://www.w3.org/2000/svg">
<path fill-rule="evenodd" clip-rule="evenodd" d="M29.5081 0.799988C29.0498 0.799988 28.2063 0.887668 26.9753 1.05951C25.7442 1.23231 24.9484 1.39903 24.5897 1.55743C24.2297 1.71519 23.5791 2.26399 22.6399 3.19647C21.6998 4.13279 20.3359 5.86015 18.5526 8.37791C16.7666 10.8985 15.101 13.5587 13.5526 16.3619C11.982 19.209 10.5352 22.1227 9.21624 25.0947C7.97465 22.9693 6.85304 21.5283 5.84505 20.7705C4.84025 20.0096 3.99224 19.6301 3.30264 19.6301C2.76408 19.6301 2.08984 19.9171 1.27608 20.4889C0.463285 21.0617 0.0568848 21.623 0.0568848 22.1766C0.0568848 22.577 0.429685 23.1705 1.1756 23.9555C2.65272 25.5161 3.96025 27.1715 5.09176 28.9232C5.78297 29.9709 6.24281 30.6141 6.47192 30.8486C6.69976 31.0806 7.39417 31.2 8.55513 31.2C10.1705 31.2 11.1302 30.993 11.4351 30.576C11.7375 30.175 12.2975 28.9792 13.1135 26.9856C15.1305 21.9942 17.6383 17.2275 20.6358 12.6893C23.6358 8.15327 26.3836 4.72127 28.8854 2.39647C29.3836 1.95487 29.6828 1.66847 29.7881 1.53631C29.8905 1.40351 29.943 1.27007 29.943 1.13119C29.943 0.911668 29.7977 0.799988 29.5081 0.799988Z" fill="#3CE3DB"/>
</svg>
